<?xml version="1.0" standalone="no"?>
<!DOCTYPE svg PUBLIC "-//W3C//DTD SVG 1.1//EN" "http://www.w3.org/Graphics/SVG/1.1/DTD/svg11.dtd" >
<svg xmlns="http://www.w3.org/2000/svg" xmlns:xlink="http://www.w3.org/1999/xlink" version="1.1">
<metadata>
Created by FontForge 20170731 at Thu Jun 16 07:36:34 2022
 By Aleksey,,,
2021 (C) Copyright by Mans Greback AB 
</metadata>
<defs>
<font id="MonitaSignaturePERSONALUSE-Regular" horiz-adv-x="0" >
  <font-face 
    font-family="Monita Signature PERSONAL USE"
    font-weight="400"
    font-stretch="normal"
    units-per-em="2048"
    panose-1="0 0 0 0 0 0 0 0 0 0"
    ascent="1638"
    descent="-410"
    x-height="1223"
    cap-height="2666"
    bbox="-1972.69 -1059.8 20507 4168"
    underline-thickness="102"
    underline-position="-358"
    unicode-range="U+0020-FB02"
  />
<missing-glyph horiz-adv-x="2097" 
 />
    <glyph glyph-name="mn.sg" unicode="&#x30;&#x30;&#x30;&#x30;&#x30;&#x30;&#x30;&#x30;&#x30;&#x30;" horiz-adv-x="4591" 
d="M2466 2157q-65 0 -107.5 33t-46.5 94q-6 39 -6 116q0 21 -2.5 82.5t-1 105.5t9.5 81q21 96 148 100q128 0 159 -88q9 -28 12.5 -65.5t3.5 -65t-1.5 -69.5t-1.5 -58q0 -103 -6 -146q-13 -64 -51.5 -92t-108.5 -28zM162 174l8 692h113l84 -434l77 434h119l2 -692h-96
l-12 287l-47 -287h-82l-58 281l-6 -281h-102zM655 174v692h88l119 -331v331h109v-692h-86l-121 338v-338h-109zM719 -446q0 49 23.5 77t68.5 21q20 -1 34 -9t21 -17.5t10.5 -26t4 -26.5t0.5 -28h-37q0 38 -4 58q-10 19 -34 20.5t-36 -12.5q-8 -13 -9.5 -33t1 -45t2.5 -29
t-2.5 -33t0 -48.5t12.5 -30.5q9 -19 32.5 -16.5t33.5 26.5q4 14 4 49h37q0 -22 -2 -37t-9 -34t-24 -29t-43 -10q-23 0 -39 7.5t-25 22t-14.5 30t-6.5 38t-1 39.5t1 41t1 35zM913 -496q0 31 1 47.5t6 40.5t14.5 35.5t28.5 19.5t47 5q12 -1 22 -4t17.5 -7t13 -12.5t9.5 -14
t6.5 -17.5t4 -17.5t2 -20t0.5 -19v-19.5v-17v-25t-0.5 -24t-2 -25.5l-4.5 -22.5t-7 -22t-10.5 -17.5t-15 -15t-20.5 -8t-26 -3.5q-18 0 -32 4.5t-23 10.5t-15.5 19t-9.5 21t-4.5 26.5t-2 26t0 29t0.5 26.5zM922 2163v604h133q108 0 141 -70q31 -52 25.5 -120.5t-52.5 -110.5
q-14 -12 -37.5 -17.5t-39 -6.5t-51.5 0t-42 1v-280h-77zM924 1702v379h86v-408q0 -5 -0.5 -24.5t0 -28t2.5 -25t6.5 -25.5t14 -20t22.5 -18q41 -14 68 6t36.5 52.5t9.5 72.5v418h84v-279q0 -14 1 -48.5t1 -56.5t-2 -55t-8.5 -55.5t-17.5 -46.5t-30.5 -39.5t-45.5 -23.5
q-56 -21 -119 1t-88 81q-20 35 -20 143zM954 -473q0 -3 -1 -25t0 -36.5t3 -34.5t9 -33.5t18 -20.5q11 -5 20 -6.5t14.5 2t9.5 8.5t6 13.5t3 17t0.5 19t-1 19.5t-1 18.5t-0.5 15.5t4 44t1 61t-19 30q-27 9 -46.5 -8t-19.5 -47v-37zM999 2499q6 0 20.5 -0.5t23 -0.5t21.5 1.5
t23 5.5q34 14 44 34t10 54q0 28 -2 44t-14.5 34.5t-37.5 25.5q-13 4 -27.5 5t-34.5 0t-26 -1v-202zM1026 -276v309h125v-33h-70v-104h56v-29h-56v-143h-55zM1049 174v125h118v-125h-118zM1130 -655v307h44l55 -246l49 246h47v-307h-25v219l-55 -219h-37l-43 219v-219h-35z
M1174 -111q0 29 0.5 44.5t5.5 40.5t14.5 37.5t28.5 22.5t47 9q13 -2 23 -6t17 -12t12.5 -15.5t8.5 -20t5 -21t2.5 -24t0.5 -23v-23.5v-21q0 -26 -0.5 -38t-2.5 -35t-7 -34.5t-13 -25t-22.5 -19.5t-33.5 -6q-25 0 -42 11.5t-25.5 26t-13 41t-5 41.5t-0.5 42v8zM1210 416
l109 6q0 -84 27 -123q16 -32 43 -23q28 8 28 58q0 25 -13 52t-25 42.5t-38 43t-32 34.5q-8 11 -33 35t-29 39q-47 67 -28 159q2 75 72 115t143 6q90 -44 90 -221l-107 -6q-2 11 -4 38t-4 44.5t-11.5 33.5t-25.5 19q-24 1 -38 -16.5t-13.5 -38t4.5 -35.5q5 -14 14 -27
t13.5 -18t21 -19.5t17.5 -15.5l55 -63q95 -98 80 -230q-2 -48 -33.5 -87t-87.5 -52q-51 -8 -98 14t-68 68q-29 74 -29 168zM1221 -104q0 -5 -2.5 -31t-3 -45.5t6.5 -39t23 -24.5q20 -5 33 4.5t17.5 31t6 36t1.5 35.5q0 5 1 24t1 33t-2 31.5t-8.5 29.5t-16.5 17
q-23 16 -40 -3.5t-17 -47.5v-51zM1278 2163v604h231v-66h-151v-202h125v-56h-125v-221h153v-59h-233zM1315 1640l86 23q0 -28 0.5 -41t6.5 -32.5t19 -30.5q14 -30 43.5 -32t51.5 27q27 22 25.5 54t-21.5 59q-1 1 -5 7.5t-5 8l-5 7.5t-6 8t-6.5 7t-7 7.5t-7.5 6.5t-9 6
t-9.5 4.5t-11.5 3.5q-8 9 -53.5 50t-61.5 66q-18 42 -20 88t23 87.5t71 56.5q89 5 148 -23q49 -41 49 -131l-66 -26q-2 38 -18 71.5t-49 36.5q-26 11 -47 -1t-29 -38q-4 -14 -4.5 -26.5t2 -23t9 -22t12.5 -19t16.5 -18t18 -17t20 -16.5t18.5 -16q10 -9 32.5 -27.5t33 -28.5
t25 -27t21.5 -35.5t9 -40.5q18 -70 -22.5 -125t-114.5 -55q-70 0 -112 47t-50 120zM1378 -655v307h49l50 -246l57 246h41l2 -307h-29l-4 219l-51 -219h-39l-37 219l-4 -219h-35zM1391 -276v309q9 0 27 1.5t28.5 1.5t26 -3.5t28.5 -12.5q37 -18 39.5 -73.5t-39.5 -69.5
l47 -153h-47l-47 143h-27v-143h-36zM1421 1014v319h16.5h22.5t22.5 -1t25 -3.5t21 -6.5t19.5 -10.5t13 -15.5q12 -25 9 -62.5t-22 -53.5q-6 -4 -11.5 -7t-12.5 -5t-11.5 -3t-14 -1.5t-13.5 -0.5h-15.5h-15.5v-149h-33zM1427 -104q74 0 74 55q0 22 -12 33.5t-25.5 13.5
t-36.5 2v-104zM1454 1192q39 0 51 4q21 10 21 57q0 36 -15.5 45t-56.5 9v-115zM1577 2163v604q6 0 46.5 0.5t55 0t46 -2.5t53.5 -7.5t41 -13.5q40 -26 57 -87.5t2 -120t-59 -74.5l65 -299h-65l-88 280h-66v-280h-88zM1581 520q0 21 -1.5 65t-1 76t4.5 60q19 108 100 145
q99 23 154 -16q36 -20 54 -61.5t20 -71t2 -81.5v-15h-111q0 88 -6.5 111.5t-30.5 35.5q-36 4 -49.5 -22t-13.5 -72v-252q0 -5 -1.5 -27t-0.5 -37t3.5 -34.5t12 -31.5t25.5 -16q26 -10 42.5 2.5t20.5 38t6.5 53.5t-0.5 48v14h-69v103h178v-361h-90l-4 23q-33 -30 -84.5 -32.5
t-85.5 21.5q-59 30 -72 142q-4 30 -4.5 61t1 71t1.5 60zM1608 1014v319h28v-284h84v-35h-112zM1626 -655v307h125v-31h-82v-94h66v-33h-66v-125h82v-24h-125zM1647 0v33h161v-33h-57v-276h-49v276h-55zM1665 2499q55 0 88 6q26 18 36.5 46t0.5 58q0 71 -37 82
q-12 6 -25.5 8.5t-22 2.5t-22.5 -0.5t-18 -0.5v-202zM1688 1477v604h237v-72h-158v-197h121v-59h-121v-233h158v-43h-237zM1753 1014v319h113v-26h-80v-111h69v-33h-69v-114h80v-35h-113zM1780 -655v307q15 0 40.5 2t41.5 1t30 -7q39 -22 38.5 -77t-42.5 -67l49 -159h-45
l-32 149h-31v-149h-49zM1829 -473q16 0 23.5 0.5t17.5 4t14 11.5t4 21q0 20 -4 32t-13.5 17t-18 6.5t-23.5 1.5v-94zM1829 -276v309h37v-137h84v137h45v-309h-45v143h-84v-143h-37zM1884 1014l72 319h45l59 -319h-41l-18 80h-64l-10 -80h-43zM1944 86l184 868h108l-196 -868
h-96zM1944 1126h57l-29 142zM1944 2329l84 20q0 -73 20 -102q26 -23 54.5 -24.5t49.5 22.5q24 10 23 46.5t-23 61.5q-1 1 -23 29.5t-42 44.5q-72 46 -115 104q-24 39 -25.5 88.5t23.5 89t72 46.5q29 14 72.5 11t70.5 -22q9 -8 16 -18t11.5 -17.5t10.5 -23t7.5 -21.5t8 -27.5
t8.5 -27.5l-72 -16q-4 28 -9 46.5t-20 39.5t-39 28q-32 0 -54 -12.5t-25 -36.5q0 -14 -2.5 -23t3 -21.5t7.5 -20t11.5 -18.5t14 -17t15.5 -16.5t16.5 -15t16.5 -14t16 -13.5q4 -4 34.5 -32t40 -38.5t26 -35.5t24.5 -50q17 -72 -27 -129t-117 -57q-76 0 -118.5 49.5
t-44.5 122.5zM1972 -446q0 49 23.5 77t70.5 21q31 -2 47.5 -21.5t19.5 -38.5t3 -47h-47q0 4 2 16t1.5 22.5t-5.5 19.5q-4 19 -26.5 20.5t-32.5 -12.5q-9 -10 -13.5 -26.5t-5 -28.5t0.5 -30.5t1 -21.5q0 -4 -1 -25t-0.5 -33.5t5 -28.5t13.5 -25q7 -12 20 -16t24.5 3t14.5 23
q5 6 5.5 14t-1.5 19t-2 16h47q0 -110 -88 -110q-24 0 -40.5 11t-24.5 26.5t-11 41t-3 44.5t1.5 48.5t1.5 41.5zM2034 -276v309h118v-33h-71v-104h61v-29h-61v-115h71v-28h-118zM2081 1100l45 20q0 -22 0.5 -31t5.5 -21.5t16 -18.5q50 0 50 36q0 12 -4.5 23t-15 23t-16.5 18
t-20.5 18t-15.5 13q-21 22 -33 45.5t-10 47.5t24 40q17 14 42.5 17t37.5 -3q41 -24 41 -76l-30 -10q-17 65 -47 63q-17 -2 -25 -24q-7 -27 7 -50.5t36 -33.5q4 -6 31.5 -30.5t27.5 -45.5q18 -40 -1.5 -73t-57.5 -33q-37 0 -60 26t-28 60zM2148 1722q0 16 -0.5 60.5t-0.5 69
t3 62t9 66.5q33 101 137 101q132 0 164 -82q16 -37 18 -81.5t-3 -104t-5 -80.5q0 -16 2.5 -47t1.5 -53t-8 -42q-8 -118 -154 -118q-137 0 -160 120q-4 43 -4 129zM2181 -655v307h37v-307h-37zM2228 1663q0 -23 1 -36t4.5 -33t13.5 -33t26 -19q32 -37 76 0q39 19 39 78
q4 7 4 17.5t-2 23.5t-2 18v217q0 6 1 25.5t0.5 29.5t-4.5 24.5t-13 23.5q-60 26 -78 10q-24 0 -36 -9.5t-30 -39.5q-4 -26 -4 -59t2 -74.5t2 -63.5v-100zM2249 170l14 692h109l79 -436l80 436h123l4 -692h-104l-4 289l-58 -289h-77l-58 283v-283h-108zM2253 -655l59 307h51
l66 -307h-41l-6 77h-70l-18 -77h-41zM2273 1014v319h115v-26h-76v-111h70v-33h-70v-114h84v-35h-123zM2286 -276v309h114v-33h-88v-104h70v-29h-70v-143h-26zM2312 -557h60l-27 145zM2388 2345q0 -94 49 -121q39 -10 72 0q15 11 25.5 26t14.5 27t9 33v270q0 78 -31 101
q-26 31 -67 20q-53 -6 -64 -59q-5 -17 -7 -43t-2 -46t0.5 -54t0.5 -48v-106zM2429 -203v70v166h37v-137q0 -2 -1 -28t0 -40t4 -35t12.5 -31t23.5 -10q10 0 17.5 3.5t13 11t9.5 14.5t6.5 19.5l4 20t2 22t0.5 20v19v14.5v137h33v-142v-16v-18.5t-0.5 -18t-1.5 -20t-3 -19
t-5 -19.5t-8 -16.5t-10.5 -16t-13.5 -13t-18 -10.5q-43 -10 -69.5 10t-32.5 63zM2460 -655v307h43v-283h77v-24h-120zM2503 1333h39l49 -233l41 233h45l-70 -319h-39zM2564 1477v604h55l170 -408v408h78v-604h-61l-180 407v-407h-62zM2632 -276v309h53v-281h57v-28h-110z
M2685 -348h33l55 -230l43 230h35l-66 -307h-43zM2707 1014v319h35v-319h-35zM2718 418v192q0 70 4 105q3 48 29 88.5t71 58.5q94 20 152 -16q13 -8 23 -17t17.5 -23t12.5 -23t8.5 -28t5.5 -26.5t3 -30.5t1 -27v-29v-26v-198v-24v-26t-0.5 -24.5t-2 -26.5t-4 -24.5t-6 -25.5
t-9 -22.5t-12.5 -21.5t-16.5 -17t-20.5 -16q-60 -43 -152 -16q-45 16 -71 55t-29 86q-4 37 -4 103zM2718 2163v604h61l164 -406v406h74v-604h-58l-170 405v-405h-71zM2785 -276v309h37v-281h82v-28h-119zM2798 1100l32 20q0 -52 37 -71q14 0 25.5 9.5t11.5 26.5
q1 28 -20.5 53t-53.5 42q-66 93 -14 133q41 28 84 14q36 -24 43 -76l-39 -10q-11 65 -39 63q-17 -3 -26 -24q-6 -12 -6.5 -21.5t5.5 -19t11 -14.5t17 -15t16 -14q6 -8 22 -21t26.5 -26t12.5 -29q9 -42 -11.5 -74t-60.5 -32q-65 0 -73 86zM2832 432q0 -101 11 -135
q5 -12 20 -20t33 -5q3 2 10.5 5.5t10 5.5t7 6.5t6 10.5t1.5 15q4 15 4.5 31.5t-1 39t-1.5 32.5v198q0 10 1.5 32.5t1 39t-4.5 31.5q0 27 -35 43q-17 0 -32 -7.5t-21 -15.5q-11 -37 -11 -141v-166zM2884 -655v307h125v-31h-76v-94h61v-33h-61v-125h76v-24h-125zM2955 1477
v604h76v-561h150v-43h-226zM2982 1014v319h43v-319h-43zM3009 -276l59 309h51l62 -309h-43l-13 77h-65l-17 -77h-34zM3043 -655v307q10 0 36 2t45 1t34 -7q24 -14 32.5 -47t-2 -63.5t-36.5 -39.5l51 -153h-47l-37 149h-33v-149h-43zM3054 1307v26h149v-26h-55v-293h-33v293
h-61zM3068 -166h55l-31 137zM3076 2163l131 604h80l123 -604h-76l-33 147h-120l-29 -147h-76zM3086 -473q25 0 36 1.5t20.5 9.5t9.5 26q0 20 -4.5 32t-14.5 17t-19.5 6.5t-27.5 1.5v-94zM3105 170v692h84l121 -332v332h108v-692h-88l-117 338v-338h-108zM3195 2365h100
l-45 277zM3213 -276v309h27l90 -199v199h37v-309h-33l-80 210v-210h-41zM3213 2081h74l90 -297l94 297h78q-6 -18 -34 -113.5t-44 -144.5l-43 -121q-6 -10 -9 -21.5t-3 -18.5t1 -19.5t1 -18.5v-147h-80v116q0 10 0.5 31t0.5 38t-1 30q-4 18 -10.5 36t-16.5 40.5t-16 37.5z
M3234 -567l33 2q0 -11 8 -30t20 -28q24 -7 36.5 4t12.5 31q0 21 -24.5 46.5t-52.5 45.5q-27 27 -34 68t23 59q45 39 84 17q22 -11 29.5 -27.5t7.5 -44.5l-33 -16q-1 5 -2 14.5t-2 15.5t-3 13t-5 11.5t-8 6.5q-31 10 -47 -18q-5 -9 -5.5 -18t2 -15t8 -13t10.5 -11t13 -10
t11 -9q2 -2 13 -11.5t14.5 -13t12 -13.5t12 -16.5t6.5 -17t3 -20.5q14 -34 -4.5 -64t-60.5 -30q-78 0 -78 92zM3410 -276v309q6 0 30.5 1t38 0.5t34 -6.5t36.5 -18q11 -11 16.5 -29t6 -30t-0.5 -39.5t-1 -34.5q0 -5 1 -27t0 -32.5t-3.5 -27t-9.5 -26.5t-19 -16
q-13 -12 -32.5 -17.5t-29.5 -7t-38 -0.5t-29 1zM3418 -655v307h37v-307h-37zM3455 -248q21 0 31.5 1.5t22 12t16.5 31.5v160q0 13 -3.5 21t-8 12.5t-15.5 6.5t-18.5 2.5t-24.5 0.5v-248zM3478 2163v604h81v-545h154v-59h-235zM3502 -496q0 31 0.5 47t5.5 40.5t14.5 36
t28 19.5t45.5 5q16 -1 28.5 -6t21 -10.5t14 -18t8.5 -19.5t4.5 -24.5t1.5 -23.5v-25v-21v-12q0 -29 -0.5 -44t-5 -39t-13 -36t-26 -22t-43.5 -10q-21 0 -36.5 6t-24.5 22t-14 26t-7 37t-2 34.5v37.5zM3502 170v692h121v-692h-121zM3557 -473q0 -2 -3.5 -44t0 -69t18.5 -37
q13 -6 23 -6.5t17 3t12.5 10t8.5 15t5 18.5t2.5 21t0.5 20.5v18.5v3.5v3.5q0 3 0.5 25.5t0 34.5t-2 30t-7 29t-13.5 16q-62 16 -62 -55v-37zM3586 1477v84h88v-84h-88zM3586 2081h88l-27 -477h-28zM3697 743v119h313v-119h-96v-573h-119v573h-98zM3723 -655v307h33l82 -209
v209h37v-307h-37l-82 209v-209h-33zM4006 170l127 692h108l119 -692h-114l-23 164h-76l-22 -164h-119zM4166 432h36l-18 141z" />
    <glyph glyph-name="uniE216" unicode="ll" horiz-adv-x="2136" 
d="M197 1169q156 115 426 453l208 276q-162 -139 -290 -284q-141 -159 -375 -469zM-246 279q0 76 29 186q190 648 919 1393q189 192 228 192q51 0 51 -49q0 -82 -156 -313q-141 -204 -161 -230q-37 -50 -101.5 -137.5t-89.5 -122.5q-89 -119 -129 -166q-29 -34 -51 -43
q-23 -10 -62 -10q-45 0 -65 10q-25 20 -62 62q-322 -527 -325 -807q0 -133 123 -133q237 0 970 688q79 74 254 252q109 115 244 288q124 174 227 301q181 220 222 220q14 0 24 -13q8 -13 8 -30q0 -43 -67 -144q-72 -109 -230 -319q-128 -170 -260 -361q-84 -134 -118 -155
q-22 -16 -50 -19q-36 -6 -92 -135q-74 -154 -100 -246q-24 -88 -33 -178q0 -30 27 -57q29 -29 59 -29q131 0 586 369q251 212 426 354q100 74 123 74q49 0 49 -39q0 -20 -12 -41q-11 -19 -31 -29q-11 -5 -262 -186q-469 -347 -619 -443q-169 -108 -241 -108q-64 0 -93 51
q-32 49 -32 131q0 161 112 406q35 75 35 102q0 8 -4 16l-449 -362q-501 -414 -667 -414q-65 0 -109 56q-45 51 -45 168z" />
    <glyph glyph-name="uniE217" unicode="ss" horiz-adv-x="1671" 
d="M-383 -219q48 4 115 22q230 82 424 258q196 178 211 314q-3 53 -21 100q-17 43 -43 53q-43 -6 -178 -90q-286 -182 -461 -381q-125 -137 -141 -229q3 -43 74 -49zM-492 -184q0 73 43 149q53 90 222 248q169 156 336 276l153 109q-48 38 -78 68q-188 170 -188 227
q0 129 67 227q62 89 130 107q71 0 114 -19q41 -18 41 -78q0 -43 -106 -83q-175 -76 -187 -164q3 -34 41 -72q12 -14 203 -190q422 308 575 356q14 43 50 98q43 70 80 88q39 17 73 17q62 0 109 -33q39 -23 39 -57q0 -71 -115 -86q-180 -27 -180 -113q0 -29 45 -68
q42 -37 164 -108q366 252 489 252q55 0 55 -54q0 -18 -6 -30q-10 -13 -131 -37q-78 -16 -229 -90q-51 -24 -143 -82l18 -25q43 -52 43 -112q0 -97 -51 -177q-44 -64 -135 -143q-99 -86 -189 -139q-180 -101 -282 -101q-89 0 -89 70q0 145 320 424q151 130 287 217
q-191 113 -217 164q-54 -18 -156 -70q-288 -142 -375 -213l-2 -4q0 -9 16 -49q18 -49 21 -123q-6 -97 -49 -178q-69 -122 -240 -256q-269 -207 -497 -225q-80 6 -89 82zM510 55q0 -32 61 -32q107 0 295 108q122 70 191 131q155 149 155 252q0 58 -38 107q-19 22 -37 22
q-24 0 -140 -78q-277 -190 -413 -366q-74 -95 -74 -144z" />
    <glyph glyph-name="uniE218" unicode="tt" horiz-adv-x="1824" 
d="M-207 -530q-17 0 -47 18q-32 14 -57 53q-26 36 -29 92q3 245 88 492q84 241 320 709q-64 9 -99 26q-36 14 -39 58q6 43 90 118q197 182 680 815q-46 0 -274 -30q-276 -42 -467 -74q-379 -61 -442 -92q-29 -16 -43 -39q-13 -21 -33 -33q-16 -8 -86 -8q-57 0 -100 37
q-41 35 -41 61q0 34 45 60q43 25 149 28q81 3 701 80q611 73 647 86q399 531 413 531q22 -10 25 -41q0 -36 -152 -250q-151 -213 -151 -223q2 -2 14 -2q27 0 125 10q141 16 352 35q102 165 111 182q46 94 78 119q36 28 82 28q52 0 88 -28q33 -29 33 -62q0 -37 -88 -98
q-70 -53 -144 -127q397 28 703 31q395 0 395 -97q0 -14 -12 -32q-13 -19 -41 -19q-29 0 -78 14q-146 41 -457 41q-292 -3 -584 -20q-108 -124 -213 -258q-543 -697 -774 -1278q-102 -258 -102 -383q0 -113 78 -113q60 0 184 86q89 64 444 379q677 605 717 627q13 8 33 8
q40 0 43 -53q0 -24 -16 -43q-15 -21 -68 -51q-179 -127 -893 -713q-337 -289 -444 -289q-50 0 -74 47q-25 48 -25 117q0 158 109 434q113 286 313 617q45 74 293 454q44 67 262 406q-444 -27 -497 -47q-12 -12 -93 -121q-371 -500 -526 -758q-119 -198 -246 -467
q-131 -281 -186 -457q-61 -186 -61 -325q0 -87 14 -115q12 -31 45 -31l51 7q61 0 64 -54q0 -17 -15 -32q-16 -19 -45 -31q-35 -12 -47 -12z" />
    <glyph glyph-name="fi" unicode="fi" horiz-adv-x="1818" 
d="M-295 -272q-50 0 -86 28q-17 23 -31 62q-27 70 -49 76q-33 11 -59 51q-29 40 -29 71q0 34 41 99q44 71 100 129q62 65 105 166q168 397 637 1097q88 129 125 176q44 58 65 80q22 19 41 19q25 0 49 -21q25 -22 25 -45q0 -41 -139 -360l-72 -172q-26 -68 -55 -84
q-30 -15 -68 -15q-30 0 -57 9q-32 11 -41 22q-11 14 -23 14q-28 0 -221 -333q-192 -332 -192 -375q0 -2 4 -2q16 0 63 41q275 219 586 391q314 176 432 176q13 0 29 -4q13 42 26 76q41 77 105 80l31 2q45 -3 73 -23q30 -21 39 -55q0 -79 -72 -107q-31 -11 -77 -88
q-46 -80 -74 -161q-34 -84 -37 -130q6 -49 70 -49q83 3 186 47q79 42 346 201q237 153 299 168q45 -6 51 -41q0 -46 -65 -70q-32 -13 -352 -172q-333 -172 -439 -190l-39 -2q-41 -1 -66.5 32.5t-33.5 96.5q-6 50 -6 106q0 87 12 160l-49 2q-147 0 -416 -139
q-273 -144 -547 -365q-57 -45 -90 -75q-28 -25 -45 -56t-28 -67q-29 -102 -29 -168q3 -64 18 -70q18 -7 37 -10q142 -41 142 -129q0 -55 -60 -80q-44 -20 -90 -20zM-502 6q0 -13 8 -18q14 -9 19 -11q8 -2 18 -2q18 0 27 27q6 23 12 59q6 33 15 64q10 30 10 39q0 6 -4 6
q-3 0 -33 -33q-27 -33 -49 -71q-23 -36 -23 -60zM1135 1511q12 98 149 113q95 -6 98 -70q-3 -36 -36 -69q-36 -39 -113 -45q-95 6 -98 71z" />
    <glyph glyph-name="fl" unicode="fl" horiz-adv-x="2000" 
d="M-295 -272q-50 0 -86 28q-17 23 -31 62q-27 70 -49 76q-33 11 -59 51q-29 40 -29 71q0 34 41 99q44 71 100 129q62 65 105 166q168 397 637 1097q88 129 125 176q44 58 65 80q22 19 41 19q25 0 49 -21q25 -22 25 -45q0 -41 -139 -360l-72 -172q-26 -68 -55 -84
q-30 -15 -68 -15q-30 0 -57 9q-32 11 -41 22q-11 14 -23 14q-28 0 -221 -333q-192 -332 -192 -375q0 -2 4 -2q16 0 63 41q275 219 586 391q314 176 432 176q35 0 68 -20l8 -7q251 419 680 857q189 192 227 192q51 0 51 -49q0 -83 -155 -313q-174 -251 -355 -490
q-139 -192 -178 -209q-20 -10 -61 -10q-47 0 -64 10q-13 8 -63 62l-58 -97q-3 -28 -22 -41q-246 -433 -246 -669q0 -133 123 -133q238 0 971 688q188 176 229 176q23 0 23 -37q0 -23 -152 -147l-397 -322q-260 -209 -423.5 -311.5t-244.5 -102.5q-63 0 -108 54t-45 170
q0 80 28 186q57 197 185 438l-64 4q-147 0 -416 -139q-273 -144 -547 -365q-57 -45 -90 -75q-28 -25 -45 -56t-28 -67q-29 -102 -29 -168q3 -64 18 -70q18 -7 37 -10q142 -41 142 -129q0 -55 -60 -80q-44 -20 -90 -20zM-502 6q0 -13 8 -18q14 -9 19 -11q8 -2 18 -2
q18 0 27 27q6 23 12 59q6 33 15 64q10 30 10 39q0 6 -4 6q-3 0 -33 -33q-27 -33 -49 -71q-23 -36 -23 -60zM1075 1145l31 24q117 94 242 236q138 153 184 217l209 276q-166 -143 -291 -284q-143 -158 -375 -469z" />
    <glyph glyph-name="M_o_n_i_t_a_space_S_i_g_n_a_t_u_r_e" unicode="Monita&#x20;Signature" horiz-adv-x="19884" 
d="M2214 -256q-86 0 -143 100q-62 100 -62 295q0 209 88 539q85 327 332 1018q102 288 141 409q43 134 60 226q12 66 16 153q0 21 -4 29q-8 4 -19 4q-49 0 -262 -213q-137 -142 -282 -344q-151 -212 -363 -553q-140 -226 -223 -326q-81 -100 -139 -100q-74 0 -123 156
q-9 26 -12 59q-6 30 -9 86q-2 37 -2 326q0 354 -2 409q-3 84 -12 111q-9 26 -25 26q-12 0 -63 -51q-62 -62 -119 -127q-80 -91 -123 -143q-159 -219 -309 -479q-145 -254 -229 -467q-44 -117 -76 -240q-35 -134 -35 -182q0 -41 27 -41q77 0 80 -59q0 -43 -68 -84
q-58 -25 -102 -25q-91 0 -91 80q0 42 19 135q81 375 321 823q232 433 562 817q134 152 215 152q116 0 116 -256q0 -62 -10 -215q-14 -178 -14 -373q0 -232 20 -291q23 -69 62 -69q41 0 116 106q86 121 222 351q412 691 692 950q165 155 250 155q40 0 63 -36q25 -42 25 -103
q0 -71 -43 -207q-49 -159 -150 -438q-224 -612 -336 -1008q-100 -353 -100 -585q0 -86 12 -162q12 -98 41 -152q26 -50 78 -71q70 -24 70 -60q0 -23 -23 -39q-22 -16 -55 -16zM2458 690q0 115 92 328q59 127 59 160q6 53 43 77q41 23 78 23q45 -6 70 -23q31 -15 49 -18
q16 0 49 10q47 15 72 15q114 -9 114 -132q-6 -101 -78 -239q-24 -40 -28 -53l2 -2q16 0 104 24q68 16 197 53q57 16 180 56q92 32 139 32h4q118 208 160 326q16 58 58 100q41 35 81 35q30 0 66 -22q33 -20 33 -54q0 -59 -123 -206q-159 -208 -309 -447q-136 -222 -136 -270
q0 -10 7 -10q9 0 43 30q32 28 73 78q70 78 199 207q114 114 190 182q84 78 111 90q29 13 41 13q22 0 45 -33q25 -35 33 -90q18 -94 33 -144q35 -96 170 -96q95 0 237 62q138 60 236 149q36 36 57 51q14 77 43 148q41 77 105 80l30 2q46 -3 74 -23q30 -21 39 -55
q0 -79 -72 -107q-33 -11 -78 -88q-43 -76 -73 -161q-34 -84 -37 -130q6 -49 69 -49q84 3 187 47q79 42 346 201q221 142 285 164q20 23 57 55q154 142 510 592q170 221 170 223q-64 0 -275 -32q-808 -114 -909 -164q-29 -16 -43 -39q-19 -25 -35 -33q-24 -8 -84 -8
q-56 0 -100 35q-41 38 -41 63q0 34 45 60q45 25 150 28q81 3 698 80q612 73 649 86q402 531 414 531q21 -9 24 -41q0 -39 -151 -252q-152 -214 -152 -221q2 -2 15 -2q27 0 125 10q693 77 1214 80q160 0 227 -11q168 -30 168 -86q0 -14 -12 -32q-13 -19 -41 -19q-29 0 -78 14
q-146 41 -456 41q-389 -6 -861 -36q-314 -21 -354 -37q-12 -9 -92 -121q-368 -494 -526 -758q-121 -201 -246 -469q-120 -249 -189 -455q-59 -189 -59 -325q0 -87 14 -115q12 -31 45 -31l52 7q60 0 63 -54q0 -18 -14 -32q-12 -18 -45 -31q-30 -12 -47 -12q-13 0 -50 16
q-31 18 -57 55q-24 38 -27 92q3 243 89 490q85 247 319 711q-60 9 -98 24q-16 11 -17 12q-73 -32 -342 -168q-334 -172 -438 -190l-39 -2q-41 -1 -66.5 32.5t-33.5 96.5q-6 49 -6 106l2 64q-2 -1 -7.5 -4t-7.5 -4q-108 -63 -243 -105q-134 -45 -240 -45q-111 0 -164 56
q-51 54 -69 184q-3 23 -15 72q-6 22 -12 32q-14 9 -19 11q-41 0 -172 -119q-135 -126 -258 -283q-120 -156 -147 -235q-8 -32 -53 -86q-62 -50 -131 -50q-28 0 -39 11q-14 14 -17 41q-6 30 -6 65q0 72 47 178q54 114 193 349l6 8q-7 -1 -16 -2.5t-20.5 -4.5t-18.5 -4
q-151 -31 -219 -43q-151 -26 -203 -34q-68 -11 -90 -17q-31 -7 -45 -18q-19 -13 -33 -35q-73 -85 -166 -143q-97 -60 -158 -60q-32 0 -73 41q-39 45 -39 125zM2550 655q0 -36 35 -39q52 0 122 48q102 78 134 106l-56 -4q-82 3 -188 45l-10 -33q-5 -11 -23 -63
q-14 -57 -14 -60zM2628 860q0 -15 30 -24q48 -13 215 -19l45 57q44 55 76 134q34 75 37 125q0 30 -18 36q-21 7 -52 7q-39 0 -100 -21q-51 -20 -82 -59q-44 -61 -63 -90q-42 -59 -62 -95q-26 -47 -26 -51zM6355 774q0 44 61 129q64 89 142 170q86 86 149 121q51 23 101 23
q89 0 159 -46q74 -47 74 -100q0 -39 -39 -65q-47 -32 -100 -29l-58 4q21 -183 64 -276q29 -68 94 -111q45 -31 115 -31t125 10q46 8 131 50q148 74 309 172q182 111 250 168q75 63 127 63q42 0 45 -47q0 -11 -4 -31q-22 -51 -168 -139q-156 -92 -332 -170
q-283 -125 -426 -125q-178 0 -252 117q-51 80 -86 262q-18 117 -33 135q-26 0 -297 -235q-79 -70 -116 -70q-29 0 -35 51zM6371 -481q0 92 230 92q129 0 176 -27q33 -16 119 -16q168 0 682 26q1132 55 2121 76q596 14 1250 19q18 159 139 358q141 232 379 461
q232 226 518 399q112 69 129 103q14 41 14 92q0 98 -45 104q-23 0 -121 -49q-198 -94 -198 -147q0 -28 -35 -52q-36 -22 -80 -22q-47 0 -186 -80q-135 -78 -195 -78q-34 0 -59 25q-16 19 -23 43q-86 -41 -291 -144q-334 -172 -438 -190l-39 -2q-41 -1 -66.5 32.5t-33.5 96.5
q-6 50 -6 106q3 215 61 355q41 77 105 80l30 2q46 -3 74 -23q30 -21 39 -55q0 -79 -72 -107q-33 -11 -78 -88q-43 -76 -73 -161q-34 -84 -37 -130q6 -49 69 -49q84 3 187 47q79 42 346 201q203 133 281 162q25 32 67 74q89 89 162 135q65 39 135 39q50 0 90 -27
q40 -24 55 -61q3 -6 11 -6q23 0 84 38q168 107 233 107q74 0 74 -139q-3 -45 -6 -70q-4 -28 -4 -47l2 -12q7 0 94 34q121 50 201 50q49 0 79 -21l13 -10q88 164 125 264q17 60 57 100q41 35 82 35q29 0 65 -22q33 -20 33 -54q0 -59 -123 -206q-159 -208 -309 -447
q-135 -221 -135 -270q0 -10 6 -10q8 0 43 30q35 31 74 78q78 87 198 207q105 105 191 182q84 78 111 90q29 13 41 13q22 0 45 -33t32 -90q18 -94 33 -144q35 -96 170 -96q96 0 238 62q136 59 235 149q28 29 60 51q60 75 104 121q85 85 150 121q51 23 100 23q90 0 160 -46
q73 -46 73 -100q0 -39 -39 -65q-47 -32 -100 -29l-57 4q22 -186 63 -276q29 -68 94 -111q45 -31 115 -31t125 10q46 8 131 50q148 74 309 172q182 111 250 168q38 29 62 43l43 30q84 59 213 193.5t364 398.5q75 85 156 181t100 118l90 107q-598 -4 -1056 -15.5t-709.5 -28
t-377 -29.5t-189.5 -26q-228 -46 -291 -67q-46 -16 -58 -31q-13 -13 -10 -39q0 -27 -14 -41q-11 -15 -43 -26q-42 -14 -84 -11q-51 3 -57 21q-5 10 -25 24l-2 9q-12 48 29.5 88.5t144.5 76.5q101 37 272.5 64.5t392.5 43.5t434.5 26t477 13.5t436 4.5t395.5 0.5t277 -0.5
l109 2q313 365 327 365q24 -9 27 -41q0 -40 -170 -252l-58 -70q56 1 167 2t157 2q215 3 275 8q35 3 494 9t556 6q128 0 125 -46q-2 -36 -81 -78q-35 -19 -79 -34q-20 -8 -229.5 8t-475.5 36t-378 20q-20 0 -90.5 4t-122.5 4h-365q-104 -137 -233 -291q-432 -519 -596 -758
q-136 -201 -279 -469q-134 -249 -213 -455q-67 -195 -67 -325q0 -88 16 -115q15 -31 51 -31l58 7q68 0 71 -54q0 -18 -14 -32q-16 -19 -51 -31q-37 -12 -53 -12q-15 0 -58 16q-33 17 -63 55q-28 39 -31 92q3 249 100 490q95 249 418 817q-25 -12 -47.5 -25t-42 -25
t-26.5 -16q-15 -11 -99 -65q-156 -92 -332 -170q-283 -125 -426 -125q-177 0 -251 117q-51 80 -86 262q-18 117 -33 135q-26 0 -297 -235q-79 -70 -117 -70q-27 0 -33 43q-82 -40 -180 -70q-134 -45 -240 -45q-110 0 -163 56q-52 55 -70 184q-4 31 -14 72q-5 20 -13 32
q-15 10 -18 11q-41 0 -172 -119q-135 -126 -258 -283q-122 -159 -148 -235q-8 -32 -53 -86q-62 -50 -131 -50q-28 0 -39 11q-13 13 -16 41q-6 30 -6 65q0 72 47 178q58 122 192 349l58 98q-4 1 -11.5 3t-11.5 3q-6 2 -33 2q-68 0 -147 -31q-65 -25 -174 -80
q-128 -383 -137 -407q-52 -134 -127 -291q-136 -286 -301 -481q450 4 708 4q1674 0 1745 14q6 2 23 2q51 0 92 -24q45 -24 51 -60q0 -23 -29 -39t-65 -16t-78 20q-50 50 -1751 50l-744 -2q-3 -3 -9 -10.5t-9 -10.5q-200 -209 -363 -209q-73 0 -120 53q-49 55 -49 162v13
q-941 -9 -1553 -21q-1062 -24 -2025 -98q-369 -29 -422 -37q-82 -9 -109 -33q-42 -33 -127 -33q-68 0 -164 17q-97 18 -147 37q-27 21 -27 47zM6494 860q11 0 133 113q70 61 70 69h-4q-62 -47 -131 -110q-68 -68 -68 -72zM8368 1075q0 138 86 289q84 147 275 338
q396 399 974 680q343 172 652 266q303 92 503 92q163 0 240 -59q78 -60 78 -160q0 -222 -328 -584q-329 -364 -1001 -829q-133 -86 -228 -158q-45 -28 -100 -28q-111 0 -117 75q0 30 9 45q15 26 153 97q200 104 451 264q605 392 905 772q170 218 170 342q0 129 -217 129
q-240 0 -633 -127q-386 -128 -772 -342q-423 -247 -731 -543q-312 -300 -346 -528q0 -48 30 -100q25 -52 70 -82q76 -49 219 -76q151 -28 451 -43q293 -20 374 -37q103 -15 183 -53t94 -70q9 -24 25 -24q17 0 90 24q107 39 143 39q33 0 47 -14q17 -17 17 -33q0 -19 -11 -37
q-20 -29 -192 -78q-127 -41 -127 -51q0 -11 -33 -47q-166 -193 -453 -330q-165 -80 -223 -80q-29 0 -29 31q0 87 322 307q191 132 348 207q58 27 58 41q0 9 -15 21q-40 49 -196 79q-179 34 -502 54q-240 17 -383 41q-330 56 -330 280zM9087 63l12 3q75 10 129 32
q223 88 373 207q108 87 180 170q-321 -148 -469 -235q-145 -84 -225 -177zM10596 1511q12 98 150 113q95 -6 98 -70q-3 -35 -37 -69q-36 -39 -112 -45q-96 6 -99 71zM10969 -379q0 -157 131 -160q148 0 332 181l-463 -2v-19zM10975 -311l508 4q268 286 473 819
q119 311 119 350v2q-5 0 -53 -26q-14 -8 -51 -30.5t-60 -35.5q-48 -28 -123 -76l-92 -59q-189 -133 -354 -313q-162 -180 -268 -369q-85 -155 -99 -266zM11305 874q0 -4 6 -4q16 0 127 60q58 28 72 45q16 16 16 43q0 8 1 24.5t1 24.5q-43 -24 -94 -63q-47 -37 -90 -76
q-39 -36 -39 -54zM13857 866q18 12 123 107q69 60 69 69h-4q-62 -47 -131 -110l-41 -41q-3 -12 -16 -25zM16028 860q2 53 14 137q24 138 41 172q16 25 51 39q34 15 72 15q46 0 72 -23q26 -20 26 -49q0 -39 -41 -92q-42 -51 -67 -121q-28 -67 -31 -111v-20q4 -8 6 -8
q17 0 231 190q153 135 164 135q6 0 15 -6q10 -7 16 -18q8 -11 8 -35q-3 -37 -14 -84q-11 -46 -14 -86q0 -88 167 -94q80 0 205 35q131 41 180 75q56 39 97 39l53 99q79 149 88 211q8 43 35 81q44 41 94 41q44 0 82 -24q35 -27 35 -72q0 -24 -25 -55q-22 -32 -55 -45
q-15 -9 -49 -49q-82 -99 -162 -242q-113 -195 -113 -233l2 -5q7 0 129 134q124 142 224 235q92 86 116 86q52 0 84 -59q8 -13 30.5 -66t39.5 -67q43 -37 99 -52t102 -2q26 9 53 29q20 44 72 106q60 71 133 129q73 54 106 54q25 0 49 -17q19 -19 19 -47q0 -63 -125 -225
q-56 -88 -133 -82l-56 4q-24 3 -40 -33q-19 -36 -19 -61q0 -65 115 -68q52 0 133 19q110 24 649 213q311 114 361 114q36 -3 36 -43q0 -32 -8 -43t-45 -24q-47 -18 -483 -135q-424 -112 -461 -121q-123 -33 -192 -33q-152 0 -152 133q0 35 8 66q-41 -6 -86 -6
q-52 0 -94.5 16.5t-71 42t-51 64t-35.5 75.5t-24 84q-232 -200 -371 -434q-37 -64 -37 -100q0 -11 4 -47q0 -52 -49 -86q-53 -35 -115 -35q-28 0 -41 10q-13 19 -32 70q-19 52 -19 80q0 38 115 268q-81 -28 -160 -41q-115 -23 -221 -23h-8q-112 0 -171 53t-59 142v20
q0 11 -4 11q-23 0 -139 -119q-164 -156 -248 -156q-29 0 -55 23q-55 46 -55 147zM19673 1067q0 27 31 63q29 33 80 33q28 0 55 -18q25 -22 25 -45q0 -38 -43 -68q-45 -28 -82 -28q-33 0 -50 20q-16 16 -16 43z" />
    <glyph glyph-name=".notdef" horiz-adv-x="2097" 
 />
    <glyph glyph-name=".null" 
 />
    <glyph glyph-name="nonmarkingreturn" horiz-adv-x="1040" 
 />
    <glyph glyph-name="space" unicode=" " horiz-adv-x="716" 
 />
    <glyph glyph-name="space" unicode="&#xa0;" horiz-adv-x="716" 
 />
    <glyph glyph-name="exclam" unicode="!" horiz-adv-x="1187" 
d="M258 72q-36 0 -61 14q-29 16 -29 49q0 25 20 55q17 29 58 50q38 18 71 18q40 0 60 -20q24 -24 24 -62q0 -48 -45 -74q-46 -30 -98 -30zM170 539q0 54 18 137q29 173 119 403q78 197 311 672q127 256 191 391q63 134 86 199q20 59 20 94v8q0 107 123 119q99 0 111 -98
q0 -42 -16 -64q-13 -18 -60 -41q-46 -27 -174 -235q-108 -174 -293 -533q-189 -372 -256 -579q-70 -210 -82 -428q0 -41 35 -68q35 -38 35 -67q0 -27 -25 -43q-24 -15 -45 -15q-29 0 -63 37q-35 41 -35 111z" />
    <glyph glyph-name="quotedbl" unicode="&#x22;" horiz-adv-x="600" 
d="M399 1872q-20 0 -37 14q-16 16 -16 33q0 16 35 57q35 38 35 56q0 26 -35 41q-49 26 -78 53q-29 29 -29 45q0 28 29 57q31 31 88 37q50 0 68 -55q18 -52 18 -187v-59q0 -39 -24 -66q-23 -26 -54 -26zM49 2140q0 36 31 64q36 28 78 28q58 0 94 -71q37 -70 37 -160
q0 -66 -25 -133q-10 -33 -22 -49q-14 -14 -45 -17q-68 0 -68 51q0 54 47 54l33 -6q14 0 27 16q9 14 20 39q6 21 6 37q0 34 -33 51q-36 20 -63 20q-37 0 -88 31q-29 17 -29 45z" />
    <glyph glyph-name="numbersign" unicode="#" horiz-adv-x="1513" 
d="M864 143q-32 0 -59 41q-27 44 -27 109q1 33 8 188q2 50 7 92q3 25 10 50q0 10 -35 10q-79 0 -289 -64q-2 -31 -2 -65q-2 -14 -2 -35q-2 -10 -2 -41q0 -40 8 -53q7 -21 27 -35q33 -29 33 -61q0 -50 -64 -50q-48 3 -69 37q-23 38 -23 133v133q-88 -44 -102 -57
q-15 -15 -15 -47q0 -33 -20 -47q-22 -16 -45 -16q-65 0 -74 77q0 97 229 176q33 9 48 27q26 29 51 156q14 35 14 53l-2 2q-18 0 -109 -49q-138 -72 -202 -72q-44 0 -66 25t-22 51q0 31 32 66q14 17 33 28q13 8 53 8l48 -2q111 0 196 33q47 16 80 27l45 143q59 171 59 217
t43 86q44 41 86 41q39 0 72 -26q31 -28 31 -64q0 -44 -60 -92q-24 -21 -38 -21q-48 0 -109 -129q-51 -105 -51 -120q0 -2 2 -2q17 0 178 47q155 48 164 53q12 16 20 47q23 94 23 141q0 74 41 121q39 45 104 45q84 0 84 -47q0 -49 -86 -182q-47 -71 -47 -86q0 -17 60 -17
q107 0 116 -67q0 -19 -14 -33q-16 -16 -41 -16q-14 0 -25 8q-33 20 -90 20h-69q-54 -124 -101 -256q6 2 17.5 6t17.5 5l12 4t15 4q8 2 37 2q61 0 100 -39q41 -41 41 -76q0 -34 -47 -61q-27 -17 -43 -17q-5 0 -127 29q-24 6 -39 6q-43 -3 -43 -188q0 -58 6 -107t43 -49
q66 0 66 -61q0 -33 -37 -70q-35 -27 -64 -27zM485 651l181 49q83 26 114 31q38 8 56 43q7 14 69 232q0 4 -10 4q-20 0 -94 -19q-176 -51 -236 -90q-31 -17 -67 -137q-13 -54 -13 -113z" />
    <glyph glyph-name="dollar" unicode="$" horiz-adv-x="960" 
d="M358 -233q-31 3 -51 36q-22 36 -22 215l2 181l-60 14q-121 18 -168 96q-22 39 -22 68q0 28 29 47q27 18 55 18q33 0 45 -12q14 -12 29 -45q10 -29 28 -47q16 -13 80 -19l92 588l-61 66q-70 70 -70 157q0 98 68 193q61 85 194 231q43 288 56 310q38 59 118 59q40 0 76 -22
q27 -18 27 -50q0 -14 -31 -65q-45 -77 -94 -217q71 -64 82 -80q22 -28 22 -64q0 -88 -120 -88l-17 2q-25 0 -33 -8q-13 -10 -22 -43q-18 -57 -41 -158q-37 -129 -41 -182q0 -26 12 -41q8 -13 35 -30q174 -128 174 -293q0 -84 -78 -185q-73 -95 -182 -143l-51 -23
q3 -208 20 -325q8 -39 8 -66q0 -24 -8 -32q-43 -43 -80 -43zM307 1102q0 -48 62 -101q20 -20 41 -20q4 4 10 29q58 301 63 352l-2 4q-19 0 -96 -109q-78 -113 -78 -155zM428 365q0 -37 14 -37q18 0 70 30q82 52 135 129t53 142q0 51 -43 106q-48 54 -104 90l-59 35
q-66 -358 -66 -495z" />
    <glyph glyph-name="percent" unicode="%" horiz-adv-x="1048" 
d="M567 100q-33 0 -59 11q-25 11 -49 41q-32 29 -41 53q-10 20 -10 76v36q3 56 45 95q40 32 102 32q44 0 88 -20q43 -19 80 -66q33 -42 33 -84q0 -65 -58 -120q-60 -54 -131 -54zM33 47q0 231 409 989l142 260q52 97 65 131q19 40 19 54t-9 26q-8 8 -8 27q0 50 49 102
q51 54 103 54q44 0 65 -27q21 -24 21 -61q0 -40 -27 -80q-27 -41 -80 -56q-33 -7 -178 -241q-456 -759 -465 -1088q0 -36 29 -45q29 -13 29 -45q0 -39 -33 -65q-30 -27 -66 -27q-65 0 -65 92zM96 1427q0 43 51 91q52 49 107 49q56 0 113 -45t57 -117q0 -42 -25 -90
q-25 -45 -69 -78t-76 -33q-35 0 -72 58q-14 22 -14 34q0 10 -29 47q-43 55 -43 84zM215 1294q0 -30 25 -30q24 0 69 26q43 27 64 66q26 39 26 78q0 28 -12 28q-11 0 -29 -35q-16 -37 -75 -51q-49 -12 -58 -37q-10 -20 -10 -45zM608 223l13 13q49 55 49 77q0 19 -33 25
q-14 0 -14 -41q0 -12 -15 -74z" />
    <glyph glyph-name="ampersand" unicode="&#x26;" horiz-adv-x="1234" 
d="M805 283q-45 0 -80 47q-32 43 -35 114q0 37 -6 58q-3 20 -22 20q-26 0 -87 -37q-224 -112 -364 -112q-132 0 -141 92q0 127 108 262q86 108 346 291q172 117 172 127l-157 -8q-155 0 -193 53q-10 23 -10 47q0 108 164 219q137 90 237 90q77 0 119 -39q24 -24 41 -73
q12 -40 12 -68q0 -43 -49 -70q-42 -20 -69 -20q-50 0 -95 45q-30 35 -30 63l2 15q0 10 -13 10q-21 0 -73 -27q-66 -32 -111 -65q-55 -37 -55 -62q0 -41 164 -41q6 0 108 5q33 4 82 4q74 0 74 -23q0 -37 -178 -145q-247 -148 -404 -299q-168 -158 -168 -256q0 -84 111 -84
q104 0 282 94q104 58 154 111q48 54 57 129q15 89 68 127q44 30 86 30q80 0 80 -65q0 -50 -55 -105q-42 -42 -78 -104q-47 -75 -47 -137q0 -71 63 -86q72 -9 72 -62q0 -31 -33 -51q-22 -14 -49 -14z" />
    <glyph glyph-name="quotesingle" unicode="'" horiz-adv-x="284" 
d="M158 1247q-16 0 -33 17q-16 13 -16 32q0 23 32 74q35 53 35 76q0 42 -74 57q-110 18 -110 80q0 25 10 45q10 29 51 47q46 19 82 19q100 0 103 -166q-3 -88 -17 -180q-12 -73 -31 -86q-18 -15 -32 -15z" />
    <glyph glyph-name="parenleft" unicode="(" horiz-adv-x="1292" 
d="M424 -295q-50 0 -107 66q-53 59 -96 180q-69 192 -69 389q0 86 26 295q24 212 58 340q93 347 319 754q168 308 354 530q144 171 234 235q73 48 139 48q51 0 90 -17q19 -8 39 -41q33 -42 33 -76q0 -46 -49 -73q-44 -21 -74 -21q-41 0 -64 13q-12 6 -55 40l-94 -79
q-223 -195 -424 -516q-202 -321 -330 -682q-29 -77 -47 -172q-19 -102 -37 -256q-24 -191 -24 -265q0 -69 14 -143q65 -358 189 -416q51 -34 51 -69q0 -27 -29 -50q-20 -14 -47 -14z" />
    <glyph glyph-name="parenright" unicode=")" horiz-adv-x="1495" 
d="M135 -274q-58 0 -90 14q-22 13 -39 41q-33 42 -33 78q0 47 50 71q37 21 73 21q43 0 64 -12q18 -9 55 -41l94 79q223 195 424 519q204 323 330 680q28 75 47 174q17 91 37 254q24 190 24 264q0 50 -14 143q-65 359 -188 416q-51 36 -51 72q0 28 28 47q22 16 47 16
q48 0 107 -65q53 -59 96 -181q70 -198 70 -389q0 -79 -27 -297q-24 -212 -57 -340q-92 -342 -320 -753q-174 -316 -354 -531q-144 -171 -234 -235q-68 -45 -139 -45z" />
    <glyph glyph-name="asterisk" unicode="*" horiz-adv-x="923" 
d="M336 1104q-30 0 -49 22q-19 19 -19 52q0 52 41 116q31 54 31 66q0 4 -4 4q-6 0 -39 -23q-36 -36 -100 -36q-76 0 -76 59q0 78 145 84q38 0 62 4l34 6q4 1 13.5 3t13.5 3l-24 33q-23 37 -60 43q-32 6 -51 29q-21 25 -21 49q21 98 109 98q33 0 57 -18q25 -19 25 -58
q0 -20 -4 -28q-2 -10 -10 -21q-7 -14 -7 -26q0 -15 3 -27q1 -4 10 -31q1 -5 5.5 -19t6.5 -22q74 90 127 168q67 88 137 88q34 0 58 -18t24 -45q0 -25 -26 -57q-26 -29 -72 -35q-43 -9 -137 -97q141 25 209 25q88 0 88 -51q0 -16 -25 -35q-24 -18 -47 -18q-16 0 -43 6
q-62 16 -148 16q-102 0 -102 -16q0 -18 51 -72q40 -44 51 -51q15 -12 45 -12q46 0 58 -15q14 -11 14 -35q0 -30 -24 -51q-23 -20 -48 -20q-24 0 -49 28q-9 13 -127 207q-8 0 -22 -26q-20 -30 -33 -60q-13 -25 -20 -51q0 -19 24 -25q28 -17 31 -45q0 -22 -29 -45
q-26 -20 -57 -20z" />
    <glyph glyph-name="plus" unicode="+" horiz-adv-x="983" 
d="M469 270q-57 0 -57 64q0 31 65 575q0 25 -28 25q-45 0 -181 -43q-83 -25 -123 -25q-67 0 -67 62q0 47 47 88q45 39 94 39q12 0 49 -11q54 -22 160 -22l72 2q10 150 10 152q0 64 -21 102q-10 20 -10 39q0 37 27 80q41 65 106 65q41 0 70 -32q23 -23 23 -68q0 -56 -54 -92
q-54 -42 -78 -133l-30 -105q0 -8 20 -8q46 0 189 14q67 6 106 6q90 0 90 -57q0 -29 -28 -57q-21 -21 -52 -21l-16 2q-110 39 -244 39q-57 0 -76 -16q-24 -24 -24 -307q0 -134 10 -205q8 -52 8 -88q0 -64 -57 -64z" />
    <glyph glyph-name="comma" unicode="," horiz-adv-x="227" 
d="M104 63q-28 0 -28 31q0 23 20 56q24 40 33 65q12 35 12 51q0 44 -63 53q-88 24 -88 70q0 26 33 55q33 33 73 33q51 0 66 -43q16 -56 16 -260q0 -41 -4 -65q-3 -18 -24 -33q-20 -13 -46 -13z" />
    <glyph glyph-name="hyphen" unicode="-" horiz-adv-x="937" 
d="M156 866q-26 0 -47 15q-23 16 -23 41q0 48 43 75q43 29 98 29q25 0 49 -6q52 -14 228 -14q317 0 354 -11q23 -16 23 -39q0 -21 -19 -43q-22 -22 -51 -22q-25 0 -66 8l-100 12q-68 7 -119 7q-150 0 -258 -27q-80 -25 -112 -25z" />
    <glyph glyph-name="hyphen" unicode="&#xad;" horiz-adv-x="937" 
d="M156 866q-26 0 -47 15q-23 16 -23 41q0 48 43 75q43 29 98 29q25 0 49 -6q52 -14 228 -14q317 0 354 -11q23 -16 23 -39q0 -21 -19 -43q-22 -22 -51 -22q-25 0 -66 8l-100 12q-68 7 -119 7q-150 0 -258 -27q-80 -25 -112 -25z" />
    <glyph glyph-name="period" unicode="." horiz-adv-x="526" 
d="M213 782q-31 0 -49 21q-17 17 -17 43q0 27 31 63q29 33 80 33q28 0 55 -18q25 -22 25 -45q0 -38 -43 -68q-47 -29 -82 -29z" />
    <glyph glyph-name="slash" unicode="/" horiz-adv-x="1071" 
d="M143 201q-96 0 -96 135q0 144 127 422q125 268 387 717l184 323q68 120 86 160q23 51 23 63q0 9 -4 21t-4 20q0 37 28 82q40 66 109 66q50 0 80 -37q29 -36 29 -78q0 -47 -37 -84t-97 -37q-16 0 -30 -14q-25 -25 -45 -57q-48 -70 -80 -121q-385 -609 -539 -979
q-32 -80 -74 -232q-34 -133 -34 -182q0 -31 8 -39q8 -11 35 -14q24 -6 32 -17q11 -11 11 -30q0 -23 -19 -51q-23 -29 -39 -29q-11 0 -32 -8h-9z" />
    <glyph glyph-name="colon" unicode=":" horiz-adv-x="387" 
d="M205 549q-29 0 -62 16q-35 17 -61 49q-21 27 -21 60q0 30 25 55q24 21 64 21q56 0 98 -39q45 -39 45 -76q0 -29 -31 -57q-26 -29 -57 -29zM76 1219q0 37 26 63q29 29 78 29q41 0 86 -31q41 -35 41 -68q0 -28 -39 -61q-38 -35 -75 -35q-54 0 -84 35q-33 33 -33 68z" />
    <glyph glyph-name="semicolon" unicode=";" horiz-adv-x="372" 
d="M184 1128q-36 0 -69 29q-31 28 -31 62q0 35 37 65q40 29 94 29q92 -6 92 -76q0 -41 -41 -76q-36 -33 -82 -33zM47 766q0 32 37 59q38 27 84 27q35 0 65 -21q30 -23 50 -88q18 -64 18 -133q0 -61 -22 -112q-35 -84 -107 -84q-31 0 -45 14q-16 11 -16 29q0 29 61 84
q61 52 61 82q0 33 -79 57q-107 35 -107 86z" />
    <glyph glyph-name="semicolon" unicode="&#x37e;" horiz-adv-x="372" 
d="M184 1128q-36 0 -69 29q-31 28 -31 62q0 35 37 65q40 29 94 29q92 -6 92 -76q0 -41 -41 -76q-36 -33 -82 -33zM47 766q0 32 37 59q38 27 84 27q35 0 65 -21q30 -23 50 -88q18 -64 18 -133q0 -61 -22 -112q-35 -84 -107 -84q-31 0 -45 14q-16 11 -16 29q0 29 61 84
q61 52 61 82q0 33 -79 57q-107 35 -107 86z" />
    <glyph glyph-name="less" unicode="&#x3c;" horiz-adv-x="886" 
d="M674 412q-21 0 -33 24q-15 48 -117 107q-95 54 -248 106q-82 24 -137 47q-45 17 -57 39q-12 21 -12 62q0 49 168 293q170 264 186 315q27 77 51 117q29 45 98 45q30 0 66 -25q51 -19 51 -51q0 -31 -55 -92q-71 -78 -184 -189q-361 -355 -361 -422q4 -14 23 -28
q13 -11 73 -35q9 -3 160 -53q58 -21 129 -51q59 -25 123 -58q48 -22 76 -43q26 -15 33 -28q8 -11 8 -31q0 -27 -8 -35q-7 -11 -33 -14z" />
    <glyph glyph-name="equal" unicode="=" horiz-adv-x="956" 
d="M190 590q-48 0 -81 20t-33 52q0 94 129 94q33 0 112 -11q94 -16 168 -16q78 0 211 21q34 6 58 6q86 0 86 -60q-6 -37 -21 -49t-114 -12l-101 2q-197 0 -289 -25q-80 -22 -125 -22zM121 1112q4 25 37 51q35 27 75 27h29q170 -37 275 -37q43 0 92 6q66 4 84 4q61 0 75 -14
q15 -15 15 -49q-3 -56 -90 -56l-191 17q-45 0 -190 -23q-60 -14 -103 -14q-99 0 -108 88z" />
    <glyph glyph-name="greater" unicode="&#x3e;" horiz-adv-x="880" 
d="M250 336q-32 0 -66 24q-51 22 -51 54q0 29 55 90q56 62 185 188q360 354 360 422q-3 16 -22 29q-20 16 -74 35q-79 30 -160 53q-59 21 -129 51t-123 57q-35 18 -75 43q-26 14 -33 29q-8 11 -8 31q0 27 8 35q5 11 33 14q20 0 32 -25q15 -48 117 -106q99 -57 248 -107
q98 -29 137 -45q43 -17 57 -41q13 -23 13 -61q0 -49 -168 -293q-172 -267 -187 -315q-27 -77 -51 -117q-31 -45 -98 -45z" />
    <glyph glyph-name="question" unicode="?" horiz-adv-x="1761" 
d="M352 29q-48 6 -71 22q-21 15 -21 53q0 48 39 68q44 23 80 23q50 0 80 -27q30 -24 30 -43q0 -25 -43 -59q-43 -37 -94 -37zM176 1479q0 99 162 297q246 299 569 510q358 233 609 233q46 0 59 -8t37 -35q37 -46 37 -82q-6 -96 -52 -203q-43 -100 -182 -293
q-153 -208 -411 -524q-308 -378 -398 -497q-191 -268 -215 -404q0 -22 41 -37q49 -18 49 -63q0 -47 -67 -47q-47 3 -82 30q-33 29 -33 76q0 88 147 297q155 213 517 653q293 359 403 506q238 321 238 451q0 80 -105 92h-10q-102 0 -293 -90q-177 -87 -385 -252
q-166 -141 -301 -313q-136 -173 -139 -224q0 -14 43 -32q51 -29 51 -72q-3 -36 -41 -64q-41 -18 -86 -18q-71 0 -119 31q-43 27 -43 82z" />
    <glyph glyph-name="at" unicode="@" horiz-adv-x="1456" 
d="M500 313q-126 0 -205 49q-78 49 -117 134q-37 81 -37 188q0 305 283 602q256 268 487 268q147 0 213 -124q68 -127 68 -338q0 -122 -18 -187t-56 -139l62 2q45 0 45 -35q0 -55 -80 -147q-82 -95 -197 -158q-245 -115 -448 -115zM190 651q0 -166 136 -237q49 -17 120 -17
q354 0 574 228q72 75 72 88q0 2 -5 2q-8 0 -34 -23q-74 -47 -142 -47q-31 0 -51 10q-17 9 -41 39q-23 29 -37 62q-16 37 -16 53q0 17 -12 20q-19 0 -88 -63q-127 -109 -183 -109q-55 9 -55 86q0 94 92 242q123 178 211 178q25 0 68 -30q21 -21 41 -21q6 0 16 -10q8 -8 8 -27
q5 -19 31 -59q41 -71 41 -96q-3 -31 -35 -60q-35 -30 -80 -33q-35 -3 -35 -18q9 -61 45 -92t76 -31q50 0 121 47q68 47 105 154q38 109 38 252q-6 344 -239 344q-161 0 -350 -152q-193 -152 -308 -379q-84 -173 -84 -301zM477 739q0 -24 12 -24q15 0 76 39q92 59 113 108
q22 49 22 142q0 40 -6 43q-26 0 -121 -136q-96 -137 -96 -172z" />
    <glyph glyph-name="A" unicode="A" horiz-adv-x="2230" 
d="M1825 -385q-30 0 -53 57q-73 122 -76 475q0 292 82 988q-13 5 -31 16q-20 8 -113 25q-87 18 -171 32t-169.5 25.5t-109.5 15.5l-13 2l-24 -6q-24 -16 -60 -71q-212 -324 -331 -572q-101 -206 -101 -283q0 -12 17 -32q22 -31 22 -60q0 -28 -14 -39q-12 -12 -31 -12
q-59 0 -71 113q0 103 90 278q78 157 274 463q123 188 123 217v2h-88q-761 -41 -1081 -274l-37 -27q12 -27 32 -57q15 -18 15 -37q0 -36 -43 -51q-76 25 -82 96q0 43 10 76q44 130 381 229q358 108 789 117l81 2q21 0 62 -8q9 0 26 20q12 12 56 70q29 38 98 141
q303 445 436 666q127 208 133 272q2 17 33 56q24 35 60 63t55 31l2 -2q33 0 39 -64q0 -37 -2 -41q-37 -146 -88 -477q-18 -114 -125 -858q209 -74 327 -160q111 -83 123 -192q0 -50 -10 -88q-9 -33 -41 -33q-62 0 -80 129q-15 96 -114 166q-101 69 -205 102
q-31 -245 -51 -510q-7 -182 -7 -303q0 -443 89 -543q30 -38 30 -65l-2 -6q0 -27 -18 -51q-19 -22 -39 -25zM1180 1313q175 -12 608 -103l6 29q39 182 113 784q22 193 22 279q0 22 -2 22q-23 -11 -151 -182q-106 -138 -299 -405q-152 -209 -297 -424z" />
    <glyph glyph-name="B" unicode="B" horiz-adv-x="2811" 
d="M721 -348q-66 0 -100.5 38.5t-34.5 108.5q3 125 112 318q43 74 54 96q13 34 16 63q0 13 -4 19q-8 27 -8 76q9 382 403 1020q110 177 537 831q-46 6 -88 6q-74 0 -162 -16q-96 -15 -180 -39q-377 -111 -672 -371q-297 -260 -420 -594q-38 -101 -41 -229q0 -137 55 -164
q27 -11 72 -14q42 0 68 -23q22 -22 22 -49q0 -50 -61 -80q-38 -14 -96 -14q-101 3 -150 78q-47 70 -47 194q6 342 311 733q265 321 608 502q343 183 699 189l151 2q82 149 111 182q38 41 111 41q79 -6 79 -90q-5 -37 -30 -72q-27 -35 -54 -35q-25 0 -81 -65q88 -63 112 -94
q35 -41 35 -119q-3 -143 -104 -297q-99 -154 -347 -402q-159 -170 -159 -184q10 -16 63 -16q86 0 275 26q195 19 354 19q277 0 375 -39q118 -52 118 -168q-3 -171 -247 -412q-236 -233 -555 -446q-333 -223 -631 -365q-310 -145 -459 -145h-10zM618 -215q0 -72 111 -72
q172 0 569 203q612 314 1002 672q307 282 307 409q0 38 -43 78q-44 39 -113 60q-95 31 -340 34q-93 0 -319 -16q-241 -25 -301 -25q-48 0 -61 13q-15 12 -15 37q0 37 12 61q12 31 160 186q406 420 406 592v15q0 95 -101 147q-33 23 -43 23q-30 0 -237 -287
q-373 -494 -561.5 -849t-188.5 -581v-131q275 303 539 461q73 43 96 43q23 -3 41 -18q18 -18 18 -35q0 -26 -36 -55q-44 -36 -144 -95q-76 -48 -176 -129q-102 -80 -184 -159q-80 -75 -88 -101q0 -11 10 -28q8 -16 8 -31q-3 -24 -22 -37q-22 -16 -52 -16q-15 3 -18 6h-10
q-34 0 -86 -76q-56 -81 -94 -162q-46 -93 -46 -137z" />
    <glyph glyph-name="C" unicode="C" horiz-adv-x="2441" 
d="M688 -207q-165 0 -282 60q-201 97 -293 262q-93 162 -93 405q0 170 35 316q131 415 477 823q310 343 701 600q393 258 598 258q43 -3 70 -12q26 -9 55 -41q26 -29 26 -86q0 -114 -36 -230q-37 -106 -154 -282q-131 -194 -326 -404q-201 -214 -374 -346
q-183 -143 -277 -143q-104 0 -104 76q0 35 28 57q24 19 111 55q205 81 547 426q326 320 458 590q66 126 66 178q0 76 -106 76q-176 0 -517 -209q-341 -207 -643 -512q-397 -415 -561 -883q-16 -50 -26 -94q-10 -47 -13 -90q-4 -70 -4 -141q0 -172 15 -219q7 -30 24 -66
q111 -224 367 -330q56 -22 102 -28q70 -4 148 -4q178 0 344 63q162 59 383 207q246 167 493 381q289 247 426 401q97 109 141 109q18 0 29 -17q14 -14 14 -34q0 -48 -145 -181q-241 -229 -541 -458q-304 -228 -520 -349q-359 -184 -643 -184z" />
    <glyph glyph-name="D" unicode="D" horiz-adv-x="2811" 
d="M616 -197q-33 0 -73 19q-41 20 -64 61q-29 57 -24 123l4 64q27 421 882 1718q185 283 185 293q-29 0 -264 -113q-379 -186 -691 -475q-233 -217 -333 -412q-43 -76 -43 -118t36 -68q35 -27 35 -59t-35 -56t-92 -24t-104 41t-47 86q6 136 139 327q141 203 395 414
q288 243 520 363q173 91 607 272q123 215 123 274q0 49 34 76t78 27q50 0 86 -33q39 -33 39 -80q0 -51 -67 -78q-15 -6 -58 -41q-43 -37 -63 -63q-31 -31 -31 -41v-2q40 4 152 29q272 59 479 59q279 0 444 -107q164 -105 164 -315q0 -232 -203 -573q-198 -338 -569 -721
q-366 -372 -678 -561q-307 -183 -483 -183q-129 0 -185 103q-8 13 -8 43q3 103 41 190q43 91 158 209q426 423 938 561q111 27 168 27q50 0 71 -21q23 -23 23 -39q0 -11 -14 -28q-10 -19 -47 -31q-47 -15 -123 -31q-338 -73 -674 -301q-216 -150 -342 -282
q-141 -141 -141 -224q0 -47 43 -77q42 -33 114 -33q211 0 584 262q376 262 725 657q541 643 541 998q0 153 -105 248q-66 59 -133 84q-106 32 -293 32q-177 0 -414 -47q-299 -62 -356 -98q-60 -48 -244 -320q-174 -258 -374 -596q-494 -837 -494 -1165q0 -61 14 -86
q15 -25 60 -37q63 -21 63 -67q0 -23 -22 -39q-21 -15 -54 -15z" />
    <glyph glyph-name="E" unicode="E" horiz-adv-x="2600" 
d="M512 -317q-346 15 -428 368q-12 59 -12 139q6 181 24 263q22 84 47 163h-47q-8 -2 -20 -2q-139 6 -139 82q0 32 24 56q19 22 62 28q128 20 184 54q27 24 106 190q94 194 232 416q121 198 360 532q105 132 105 160q0 10 -11 10q-24 0 -110 -28q-323 -104 -475 -232
q-70 -67 -123 -67q-47 3 -88 36q-45 36 -45 74q3 59 102 82q613 188 852 248l57 80q109 148 146 233q24 55 53 84q23 23 68 23q70 -3 96 -39q29 -40 29 -78q-3 -36 -31 -61t-72 -25h-22q-28 0 -47 -16q-24 -20 -62 -70q-72 -81 -72 -94l7 -4q16 0 75 12q341 52 521 72
q204 26 385 26q233 0 337 -37q109 -41 109 -125q0 -54 -27 -96q-27 -35 -61 -35q-20 0 -33 19q-14 14 -14 45q4 25 12 39q10 17 10 26q0 80 -503 80q-219 0 -424 -30q-187 -28 -496 -99q-290 -378 -387 -512q-261 -361 -434 -719q-33 -62 -33 -75h6q31 0 101 28
q694 246 1017 246q142 -6 211 -47q62 -38 62 -84q0 -15 -15 -45q-9 -12 -32 -12q-41 0 -86 45q-39 39 -97 39q-82 4 -123 4q-212 0 -479 -66q-280 -67 -489 -162q-72 -34 -99 -55q-36 -25 -53 -63q-17 -33 -47 -121q-78 -233 -84 -414q0 -417 445 -432q265 0 661 174
q420 185 946 483q268 146 295 146q22 -6 35 -23q12 -18 12 -37q0 -16 -8 -24q-23 -23 -227 -129q-228 -118 -457 -226q-249 -117 -436 -196q-539 -238 -795 -227z" />
    <glyph glyph-name="F" unicode="F" horiz-adv-x="1839" 
d="M250 -334q-96 12 -96 82q0 40 43 98q41 55 63 148q1 4 2 12.5t2 11.5q2 6 2 29q0 46 -43 86q-33 33 -119 92q-85 56 -122 103q-17 34 -17 71q3 73 35 121q53 89 188 189q139 106 314 188q78 35 98 86q47 117 182 393q126 259 265 520q176 332 176 357l-13 2
q-98 0 -512 -123q-283 -84 -346 -127q-22 -16 -22 -37q-3 -45 -45 -65q-39 -23 -92 -23h-15q-127 3 -133 109q0 23 14 34q62 45 611 183q246 65 608 135q170 350 199 379q36 20 73 20q53 0 92 -28q35 -24 35 -64q-3 -62 -82 -92q-24 -12 -61 -49q-45 -45 -68 -76
q-29 -39 -32 -57q0 -9 6 -9q1 0 172 23q578 74 991 74q267 0 389 -29q68 -18 109 -59q41 -44 41 -88q-3 -29 -23 -60q-21 -24 -49 -24q-26 3 -43 20q-16 19 -16 51q0 34 -15 43q-105 54 -528 54q-497 0 -1102 -86q-7 0 -68 -101q-69 -110 -145 -241q-67 -118 -162 -289
q-79 -141 -129 -240q-32 -64 -94 -196q-63 -134 -76 -168q-30 -68 -30 -74l2 -2q17 0 90 28q160 60 325 95q169 39 285 39q205 -3 205 -138v-8q-15 -104 -60 -104q-43 0 -55 84q-3 42 -10 49q-17 20 -158 26q-280 0 -661 -139q-74 -196 -140 -393q-54 -163 -106 -397
q-25 -95 -25 -142t19 -102q16 -59 16 -100q-3 -105 -127 -105h-12zM-20 416q0 -34 36 -70q39 -39 142 -108q92 -70 98 -78q15 -27 29 -27q5 0 55 156q73 237 207 583q-392 -184 -522 -364q-42 -55 -45 -92z" />
    <glyph glyph-name="G" unicode="G" horiz-adv-x="2729" 
d="M1870 -457q-13 0 -39 11q-23 15 -35 30q-17 20 -22 39q-9 21 -9 72q6 191 58 397q59 225 162 537q112 337 112 350q-4 0 -399 -266q-593 -403 -905 -563q-320 -164 -508 -164q-310 6 -310 325q9 503 635 1239q120 140 346 353q193 182 353 303q196 144 383 235
q189 92 309 92q166 -3 237 -139q12 -27 33 -147q9 -62 27 -133q16 -26 16 -41q-3 -26 -30 -50q-29 -26 -68 -26q-64 3 -107 33q-45 29 -45 94q3 47 19 114q13 59 16 91q0 54 -28 73q-29 19 -82 19q-123 0 -340 -103q-225 -112 -441 -278q-301 -235 -561 -537
q-271 -312 -452 -624q-182 -322 -205 -555v-19q0 -133 86 -207q35 -30 74 -39q65 -14 145 -14q173 0 418 121q251 127 637 407q757 546 757 566h-6q-21 0 -88 -15q-23 -5 -141 -34q-67 -20 -113 -37q-54 -23 -82 -23q-48 0 -96 45q-45 45 -45 90q3 37 25 56q19 22 61 22
q27 0 45 -6q13 -6 57 -10q79 0 230 20q315 35 456 35q137 -6 185 -20q90 -35 139 -117q31 -54 31 -96q0 -62 -62 -62q-85 0 -106 84q-8 24 -23 43q-17 13 -53 25q-56 16 -86 16q-37 0 -59 -14q-26 -16 -62 -45q-33 -30 -69 -82q-24 -35 -76 -140q-279 -560 -293 -995
l-4 -125q0 -35 4 -49q3 -18 29 -41q37 -34 37 -63q-3 -58 -72 -58z" />
    <glyph glyph-name="H" unicode="H" horiz-adv-x="3239" 
d="M2114 -502q-50 0 -84 66q-35 65 -35 123q0 163 -299 336q-129 63 -318 118q-260 77 -424 90q-19 0 -24 -8q-4 -7 -8 -35q-11 -64 -11 -88q0 -60 29 -73q53 -24 53 -64q0 -26 -24 -47q-24 -18 -58 -18q-51 0 -84 41q-34 37 -34 131q0 46 26 176q-189 22 -321 33
q-436 43 -506 79q-39 22 -39 56q0 112 350 250q225 91 492 165l315 86l195 347q96 171 444 696q319 472 319 530q0 42 43 66q50 26 95 26q39 0 75 -22q33 -20 33 -51q0 -49 -98 -140q-400 -412 -789 -1054q-206 -344 -206 -365h2q21 0 290 56q502 98 844 133q18 0 35 10
q25 15 82 145q63 143 127 277q436 920 436 1091q0 50 43 84q44 35 94 35q40 0 70 -18q33 -17 33 -51q0 -50 -84 -191q-199 -351 -379 -702q-210 -414 -324 -666h236q261 0 334 -37q78 -38 78 -139q0 -27 -21 -45q-22 -19 -45 -19q-38 0 -53 60q-3 56 -88 71q-57 10 -291 17
l-193 6q-217 -570 -260 -725q-67 -230 -76 -494q0 -72 21 -102q21 -35 63 -57q72 -51 72 -93q0 -26 -29 -49q-30 -24 -63 -34q-41 -13 -61 -13zM-27 432q0 -37 355 -78q397 -43 471 -43q13 0 28 11q23 14 70 133q53 130 186 403q-178 -39 -538 -151q-332 -105 -484 -201
q-88 -57 -88 -74zM954 315q0 -22 19 -22q17 0 125 -21q298 -57 401 -88q141 -44 246 -94q93 -46 178 -115l72 -57q6 0 33 125q50 254 229 739l100 269q0 4 -14 4q-23 0 -227 -19q-525 -54 -934 -153q-228 -492 -228 -568z" />
    <glyph glyph-name="I" unicode="I" horiz-adv-x="735" 
d="M78 -346q-20 4 -55 22q-57 23 -78 70q-21 44 -21 158q0 308 221 825q197 451 615 1165q298 512 301 543l-2 2q-2 0 -8 -6q-133 -148 -279 -344q-147 -201 -246 -365q-101 -168 -104 -225q-4 -34 -6 -45q-11 -45 -68 -72q-40 -18 -80 -18q-35 3 -63 25t-31 45
q15 70 320 479q295 391 518 620q114 117 149 129q24 4 37 4q36 -3 39 -43q-3 -50 -59 -145q-95 -167 -269 -444q-433 -690 -653 -1178q-244 -533 -244 -928q0 -74 15 -108q15 -35 53 -43q74 -12 74 -62q0 -49 -76 -61z" />
    <glyph glyph-name="J" unicode="J" horiz-adv-x="2183" 
d="M326 -342q-53 0 -56 63q0 135 301 451q336 336 822 610q98 55 141 92q83 71 268 379q357 595 357 936q0 221 -150 312q-60 34 -92 39q-36 7 -150 10q-186 0 -401 -96q-203 -88 -414 -240q-201 -146 -366 -311q-155 -155 -264 -312q-99 -147 -99 -235q0 -42 53 -101
q31 -31 31 -49q0 -32 -35 -53q-34 -18 -82 -18q-40 0 -75 14q-36 13 -68 63q-29 45 -29 103q0 188 230 457q237 276 571 514q332 236 682 346q136 39 268 39q443 0 461 -433q0 -210 -131 -524q-136 -327 -375 -686q-54 -73 -59 -94l-2 -2h4q11 0 70 16q134 41 192 41
q115 0 115 -65q0 -38 -27 -50q-22 -14 -110 -26q-157 -27 -355 -127q-65 -26 -206 -199q-416 -498 -785 -749q-171 -115 -235 -115zM307 -256q0 -16 23 -16q96 0 379 235q274 230 555 549q61 73 61 78q0 2 -2 2q-60 -29 -168 -96q-275 -177 -418 -293q-161 -133 -295 -273
q-135 -144 -135 -186z" />
    <glyph glyph-name="K" unicode="K" horiz-adv-x="1886" 
d="M223 -446q-52 0 -110 49q-59 50 -93 125q-30 86 -36 305q0 102 14 176q10 72 10 76q-3 22 -35 39q-29 17 -32 92q0 42 28 100q35 61 107 150q48 69 67 112q12 27 37 56q42 61 152 270q150 285 383 694q359 635 383 735q24 101 129 101h8q38 0 76 -23q29 -23 32 -59
q0 -23 -100 -152q-307 -369 -686 -1036q-197 -344 -197 -373q8 0 119 111q248 260 727 690q220 197 307 279q145 136 412 428q100 -8 143 -23q35 -12 35 -66q0 -25 -24 -49q-18 -21 -97 -77q-406 -304 -860 -705q-445 -393 -690 -659q-42 -49 -53 -70q-10 -27 -10 -57
q3 -146 106 -267q163 -196 420 -196q127 9 301 67q180 60 281 125q106 83 137 88q18 0 37 -16q16 -16 16 -39q0 -27 -33 -63q-76 -85 -256 -148q-199 -64 -411 -70q-175 0 -312 70q-130 65 -307 219q-101 90 -125 90q-28 -3 -57 -112q-31 -98 -31 -119q3 -20 19 -43
q13 -20 16 -37q0 -31 -45 -51q-51 -25 -45 -176l4 -123q3 -123 39 -205q26 -68 94 -100q74 -27 74 -72q0 -19 -19 -41q-17 -20 -49 -20z" />
    <glyph glyph-name="L" unicode="L" horiz-adv-x="2455" 
d="M-98 -61q-50 0 -88 30q-39 29 -39 62q0 19 18 37q52 43 645 294q123 303 242 541q98 183 98 205q0 4 -4 4l-31 -20q-6 -3 -13 -9.5t-9 -7.5q-12 -4 -21 -4q-17 0 -30 16q-17 17 -17 31q0 37 97 103q114 88 139 110q44 47 170 254q129 206 270 455q148 264 207 387
q42 98 70 123q28 28 84 28q23 0 47 -12q25 -11 45 -31q18 -18 18 -32q0 -8 -28 -84q-78 -199 -123 -285q-144 -279 -500 -653q-93 -93 -184 -232q-120 -186 -285 -549q-117 -252 -117 -282q2 -2 6 -2q12 0 90 20q323 111 633 168q322 62 545 62q168 0 268 -41
q101 -40 129 -103q21 -44 21 -59q0 -26 -17 -33q-13 -8 -49 -8q-30 0 -53 39q-49 104 -348 104q-168 0 -375 -26q-295 -36 -610 -125q-236 -69 -258 -88q-21 -30 -27 -109q0 -12 8 -16q6 -2 31 -2q69 0 72 -49q0 -29 -33 -58q-38 -24 -78 -24q-38 0 -76 24q-19 16 -22 35
q-6 18 -6 72q0 75 -6 75q-17 0 -154 -73q-122 -65 -184 -105q-64 -40 -64 -76q0 -75 -104 -81zM1186 1608q137 149 282 368q1 2 17 31.5t24 46.5q26 53 35 80q17 42 17 47q0 2 -2 2q-25 -19 -275 -411q-57 -88 -98 -164z" />
    <glyph glyph-name="M" unicode="M" horiz-adv-x="2467" 
d="M2124 -256q-87 0 -144 100q-61 98 -61 295q0 209 88 539q85 327 332 1018q102 288 141 409q43 134 60 226q12 66 16 153q0 21 -4 29q-8 4 -19 4q-49 0 -262 -213q-137 -142 -282 -344q-151 -212 -363 -553q-140 -226 -223 -326q-81 -100 -139 -100q-74 0 -123 156
q-10 30 -13 59q-5 23 -8 86q-2 37 -2 326q0 354 -2 409q-3 84 -12 111q-9 26 -25 26q-12 0 -63 -51q-62 -62 -119 -127q-80 -91 -123 -143q-159 -219 -309 -479q-145 -254 -229 -467q-44 -117 -76 -240q-35 -134 -35 -182q0 -41 27 -41q76 0 79 -59q0 -44 -67 -84
q-58 -25 -103 -25q-90 0 -90 80q0 42 19 135q81 375 321 823q234 437 561 817q134 152 215 152q117 0 117 -256q0 -62 -10 -215q-14 -178 -14 -373q0 -232 20 -291q23 -69 62 -69q41 0 116 106q80 112 221 351q411 689 693 950q165 155 250 155q40 0 63 -36q25 -42 25 -103
q0 -71 -43 -207q-49 -159 -150 -438q-224 -612 -336 -1008q-100 -353 -100 -585q0 -86 12 -162q12 -98 41 -152q26 -50 78 -71q70 -24 70 -60q0 -23 -23 -39q-22 -16 -55 -16z" />
    <glyph glyph-name="N" unicode="N" horiz-adv-x="2764" 
d="M131 -182q-54 0 -98 78q-41 80 -41 143q0 130 137 450q123 295 483 1000q362 705 451 958q46 131 82 176q35 41 112 41q86 0 95 -61q0 -46 -45 -100q-96 -112 -306 -478q-219 -380 -419 -772q-381 -738 -445 -1009q-25 -99 -28 -205q0 -10 4 -10q18 0 84 106l227 373
q698 1176 1192 1722q293 344 385 344q44 0 59 -6q63 -25 72 -166q0 -157 -121 -639q-227 -933 -227 -1243q0 -260 145 -260h10q206 35 605 504q168 198 209 201q18 0 34 -13q14 -11 17 -28q0 -39 -148 -199q-450 -480 -690 -520h-20q-167 0 -179 284l-4 86q-7 143 39.5 403
t147.5 677q51 231 90 422q37 179 37 280q-9 133 -45 133q-36 -6 -150 -114q-116 -110 -258 -283q-548 -625 -1085 -1610q-248 -441 -248 -514l6 -16q0 -30 -16 -59q-16 -28 -41 -44q-55 -32 -95 -32h-14z" />
    <glyph glyph-name="O" unicode="O" horiz-adv-x="2975" 
d="M1120 -33q-103 0 -155 37q-48 35 -91 115q-21 34 -26 74q-6 41 -6 135q0 158 10 207l14 65q-251 -8 -374 -10q-146 0 -220 14q-86 13 -143 45q-119 43 -119 207q0 133 129 303q125 161 342 332q412 323 979 530l142 52l57 79q216 303 313 388q34 30 82 30q73 0 111 -47
q41 -47 41 -94q0 -85 -115 -88l-61 4q-4 1 -19.5 3.5t-25.5 4.5l-80 -92q-31 -36 -45.5 -52.5t-31 -37t-22.5 -31t-6 -16.5t10 -6q17 0 41 8q27 9 119 12q88 6 189 6q131 0 170 -2q178 -6 348 -96q62 -29 127 -94q87 -87 123 -183q14 -38 14 -153q0 -79 -10 -131
q-8 -44 -31 -105q-44 -111 -98 -198q-61 -93 -144 -203h123q218 0 221 -88q0 -26 -14 -43q-12 -21 -43 -21q-24 0 -43 11q-4 2 -51 16q-50 10 -84 8l-203 -6l-149 -133q-638 -566 -1092 -727q-113 -29 -203 -29zM25 846q0 -72 88 -127q128 -78 362 -78q129 0 318 18l88 9
q120 339 227 563q128 279 346 610q68 109 68 117l-2 2q-18 0 -111 -37q-674 -267 -1094 -653q-278 -254 -290 -424zM895 281q0 -242 233 -242q247 0 676 280q294 194 525 414q84 81 84 94q0 7 -13 7q-79 0 -745 -105q-668 -102 -701 -115q-11 -8 -26 -67q-17 -67 -25 -131
q-8 -65 -8 -135zM975 688q0 -10 10 -10q38 15 96 18q8 1 29 5t64 12.5t81 15.5q962 183 1309 240q164 203 248 352q82 146 82 293q0 209 -195 336q-198 127 -518 127q-124 0 -262 -21q-124 -19 -180 -35q-64 -36 -211 -262q-161 -248 -303 -512q-154 -284 -224 -467
q-26 -68 -26 -92z" />
    <glyph glyph-name="P" unicode="P" horiz-adv-x="2459" 
d="M817 -207q-136 0 -139 240q0 483 682 1784q151 281 151 307l-6 2q-29 -4 -104 -29q-74 -22 -176 -61q-92 -36 -166 -68q-608 -292 -828 -651l-36 -70q84 -41 84 -96q0 -33 -35 -57q-40 -22 -90 -25q-62 0 -109 27q-46 27 -49 71q0 79 164 258q171 187 370 330
q463 322 1016 469q17 3 33 23q20 17 43 61q19 30 70 131q47 92 84 154q40 67 55 82q39 28 86 28q44 0 74 -18q30 -16 34 -51q0 -26 -110 -142q-74 -79 -186 -229q215 21 274 21q149 0 289 -31q128 -28 213 -88q170 -120 170 -314q0 -327 -383 -725q-162 -171 -289 -260
q-443 -300 -709 -303q-153 0 -153 111q0 42 22 78q21 30 51 30q18 0 35 -14q19 -13 19 -29q0 -13 -8 -32q-9 -21 -9 -35q0 -12 13 -19q12 -6 47 -6q373 12 821 383q244 203 373 395q90 145 112 224q23 84 23 196q-12 234 -320 326q-82 24 -198 24q-413 -6 -443 -30
q-26 -18 -118 -168q-76 -124 -199 -348q-357 -660 -494 -1123q-88 -297 -88 -456q3 -141 72 -150q57 -12 57 -49q0 -18 -12 -45q-29 -33 -80 -33z" />
    <glyph glyph-name="Q" unicode="Q" horiz-adv-x="1853" 
d="M698 127q-28 0 -51 10q-26 11 -45 33q-28 39 -45 100q-18 62 -18 129l4 58q0 24 -25 24q-65 0 -340 -84q-271 -86 -280 -129q0 -73 -93 -73q-65 0 -112 47q-31 31 -31 59q0 14 16 33q42 45 74 45q24 0 211 45q224 50 578 127l6 156q24 292 170 649q144 352 379 708
q40 62 78 125q105 173 112 209q0 6 41 21q46 16 59 16q23 0 84 41q83 59 150 59q193 0 258 -364q10 -46 10 -115t-12 -186q-25 -223 -84 -397q-112 -335 -473 -830l129 -16q281 -41 281 -178q-3 -51 -27 -89q-23 -36 -57 -36q-64 6 -64 51q3 30 12 47q11 27 13 33
q0 13 -13 26q-27 27 -163 56q-66 14 -179 22q-139 -152 -254 -256q-185 -176 -299 -176zM602 348q0 -46 14 -84q12 -40 25 -53q10 -6 37 -10q64 0 180 78q108 72 244 221q39 33 39 47q0 5 -43 8q-177 0 -459 -53q25 -40 47 -62q19 -16 59 -16q25 0 52 6q40 4 49 4
q45 0 45 -47q-3 -37 -39 -57q-44 -23 -94 -23q-70 0 -117 35q-31 25 -33 25q-6 0 -6 -19zM629 565q334 46 590 66l84 114q329 450 464 918q54 205 54 483q0 88 -13 138q-52 184 -166 184q-65 0 -135 -43q-39 -17 -39 -37q0 -6 11 -35q10 -27 10 -47q-3 -30 -33 -65
q-33 -33 -82 -33q-16 0 -63 -84l-158 -289q-394 -735 -514 -1214zM649 971q7 5 90 217q57 153 135 325q106 242 109 263q-7 -3 -80 -150q-192 -380 -254 -647v-8z" />
    <glyph glyph-name="R" unicode="R" horiz-adv-x="2076" 
d="M100 -121q-32 0 -59 27q-31 27 -51 110q-12 58 -15 99q0 440 568 1702q237 521 264 649q13 46 41 69q39 33 94 33q50 0 86 -22q30 -24 33 -45q0 -16 -31 -58q-440 -657 -678 -1267q-129 -330 -194.5 -563.5t-65.5 -405.5v-6q7 0 66 164l32 90q445 1226 1141 1876
q262 247 424 262q149 0 164 -258q0 -349 -246 -789q-252 -444 -600 -704q-180 -130 -311 -133l-74 -2l10 -54q19 -111 138 -188q109 -74 227 -74q124 0 264 88q142 88 361 289q141 120 165 125q2 2 23 2q25 0 41 -16q15 -15 18 -41q0 -38 -188 -176q-241 -187 -363 -250
q-129 -66 -243 -66q-137 0 -221 23q-79 25 -146 104q-27 34 -74 115q-41 68 -84 155q-37 70 -41 97q-3 21 -45 63l-38 51q-18 24 -21 43q0 31 41 72q41 38 96 41q83 0 86 -57q-16 -184 -16 -189q0 -70 16 -86q24 -12 70 -12q87 3 180 47q274 147 533 490q251 336 368 718
q58 186 58 306q0 98 -45 155q-39 51 -86 51q-158 -18 -369 -202q-215 -188 -445 -494q-285 -380 -495 -817q-258 -540 -258 -846q3 -42 16 -94q10 -52 10 -78q0 -37 -16 -59q-14 -20 -49 -41q-32 -20 -66 -23z" />
    <glyph glyph-name="S" unicode="S" horiz-adv-x="2050" 
d="M774 14q-29 0 -29 31q0 87 322 307q191 132 348 207q58 27 58 41q0 9 -15 21q-40 49 -196 79q-179 34 -502 54q-240 17 -383 41q-330 56 -330 280q0 138 86 289q84 147 275 338q396 399 974 680q343 172 652 266q303 92 503 92q163 0 240 -59q78 -60 78 -160
q0 -222 -328 -584q-329 -364 -1001 -829q-133 -86 -228 -158q-45 -28 -100 -28q-111 0 -117 75q0 30 9 45q15 26 153 97q200 104 451 264q605 392 905 772q170 218 170 342q0 129 -217 129q-240 0 -633 -127q-386 -128 -772 -342q-423 -247 -731 -543q-312 -300 -346 -528
q0 -48 30 -100q25 -52 70 -82q76 -49 219 -76q151 -28 451 -43q293 -20 374 -37q103 -15 183 -53t94 -70q9 -24 25 -24t90 24q107 39 143 39q33 0 47 -14q16 -16 16 -33q0 -20 -10 -37q-20 -29 -192 -78q-127 -41 -127 -51q0 -11 -33 -47q-166 -193 -453 -330
q-165 -80 -223 -80zM766 63l12 3q75 10 129 32q223 88 373 207q108 87 180 170q-321 -148 -469 -235q-145 -84 -225 -177z" />
    <glyph glyph-name="T" unicode="T" horiz-adv-x="1957" 
d="M1077 -47q-102 0 -108 88q0 23 16 76q18 46 33 127q22 97 74 225q62 161 122 281q58 119 58 139q0 29 -45 80q-44 47 -105 75q-131 73 -483 113q-347 43 -451 60q-292 52 -292 157q0 142 434 355q451 225 1173 436q285 84 447 123q26 6 60.5 15t41.5 11q57 18 57 53
q0 33 37 54q45 20 82 20q42 0 60 -12q17 -14 47 -51q457 72 542 82q104 14 248 14q429 0 441 -223q0 -63 -39 -137q-19 -37 -33 -48q-12 -12 -37 -12q-55 0 -55 39q0 23 30 84q29 66 29 78q0 65 -106 108q-109 45 -316 45q-99 0 -262 -18q-394 -44 -463 -82
q-22 -19 -139 -178q-501 -683 -737 -1108q-91 -164 -105 -209q-8 -36 -8 -55q0 -55 -84 -398q-49 -203 -49 -221q0 -29 25 -41q26 -14 26 -39q-6 -46 -51 -75q-48 -31 -115 -31zM-80 1386q0 -56 150 -96q143 -36 485 -71q457 -49 582 -119q71 -34 135 -111q25 -28 28 -55
q2 0 80 131q120 213 346 584q222 361 359 616q-311 -44 -1010 -276q-482 -162 -821 -334q-334 -169 -334 -269zM1153 395q0 -2 2 -2q12 0 70 152q57 146 57 170q-8 -3 -70 -154q-59 -151 -59 -166z" />
    <glyph glyph-name="U" unicode="U" horiz-adv-x="1882" 
d="M1190 -178q-77 0 -123 104q-45 102 -45 277q0 235 57 483q60 261 172 612l-47 -61q-353 -460 -758 -870q-243 -246 -348 -246q-34 0 -63 33q-32 41 -47 82q-13 57 -13 124q0 197 84 490q78 287 232 633q117 250 227 432q111 185 178 231q45 31 95 31q55 0 98 -37
q41 -35 41 -74q0 -32 -29 -61q-34 -27 -82 -27l-51 7q-16 3 -35 -13q-17 -13 -43 -47q-188 -246 -387 -690q-189 -426 -254 -762q-16 -109 -16 -166q0 -64 16 -90q17 -27 49 -27q190 0 1028 1072q39 49 90 115.5t64 82.5q47 66 82 127q6 10 68 131q90 205 215 420
q117 208 231 363q113 149 166 149q42 0 45 -84q0 -110 -195 -397q-178 -263 -561 -774l-69 -207q-211 -628 -211 -1014q0 -309 123 -309q79 0 155 98q62 80 166 244l78 123q33 68 80 155q31 61 47 82q15 24 29 31q12 4 24 4q37 0 37 -33q0 -26 -29 -82q-333 -665 -571 -665z
M1483 1741q0 -4 2 -4q18 0 272 377t254 426q0 4 -4 4q-18 0 -147 -172q-94 -124 -211 -320q-166 -284 -166 -311z" />
    <glyph glyph-name="V" unicode="V" horiz-adv-x="1601" 
d="M442 -242q-123 0 -219 146q-96 137 -153 385q-58 241 -58 540q0 540 158 1006q108 344 240 344q51 0 92 -35q39 -36 39 -76q0 -38 -31 -69q-36 -31 -90 -31q-23 0 -43 -4q-14 -6 -55 -92q-112 -236 -177 -549q-61 -308 -61 -604q0 -274 49 -471q49 -199 129 -311
q80 -111 172 -111q78 0 164 80t184 254q93 165 297 608q389 828 660 1323q271 501 377 571q35 17 63 17q54 0 57 -47q0 -27 -65 -92q-302 -338 -1012 -1772q-276 -566 -360 -705q-185 -305 -357 -305z" />
    <glyph glyph-name="W" unicode="W" horiz-adv-x="2353" 
d="M1464 -193q-59 0 -116 31q-93 47 -172 158q-87 126 -175 336q-83 190 -141 276q-82 119 -182 119q-178 -15 -399 -453q-26 -47 -76 -129q-23 -33 -23 -45q0 -11 -22 -30q-21 -18 -49 -21q-10 0 -31 12q-89 53 -92 156q0 186 139 522q84 210 305 670q287 585 332 793
q41 130 59 151q35 24 94 27q77 0 80 -62q0 -48 -77 -178q-207 -364 -359 -670q-171 -342 -285 -608q-50 -122 -112 -315q-49 -165 -49 -213v-8l2 -2q16 8 153 182q52 68 131 162q150 156 287 159q138 0 236 -168q22 -33 108 -260q77 -208 125 -295q55 -100 115 -151
q101 -94 198 -94q117 3 224 131q158 204 288 585q168 494 168 967q0 146 -8 266q-20 328 -82 500q-15 40 -18 68q0 33 16 41q12 10 49 16q22 0 39 -20q15 -22 31 -95q33 -165 33 -477q0 -241 -29 -483q-89 -668 -305 -1129q-199 -422 -389 -422h-21z" />
    <glyph glyph-name="X" unicode="X" horiz-adv-x="1636" 
d="M-25 -188q-23 0 -36 8q-64 21 -64 86q0 57 62 196q248 601 761 1184l140 154q-63 650 -76 758q-20 158 -51 212q-29 50 -29 76q0 36 37 66q36 28 80 28q51 0 94 -34q29 -32 29 -64q0 -33 -17 -53q-12 -21 -61 -64l-2 -317q0 -160 4 -246q4 -155 8 -223q6 -91 12 -100
q5 0 70 65q837 846 1202 846q104 -3 156 -61q45 -51 45 -93q0 -24 -17 -41q-17 -14 -41 -14q-49 3 -98 49q-35 41 -69 41q-43 0 -158 -47q-292 -112 -617 -385q-340 -284 -473 -448q51 -400 107 -648q73 -324 225 -514q103 -128 125 -133q6 0 37 17q54 28 78 28
q51 -3 51 -63q-3 -50 -51 -86q-46 -37 -101 -37l-37 6q-67 24 -145 152q-76 124 -133 303q-111 416 -180 958l-127 -147q-514 -603 -637 -1075q-17 -53 -17 -103q0 -60 41 -74q33 -20 33 -51q0 -37 -37 -74q-33 -30 -94 -40z" />
    <glyph glyph-name="Y" unicode="Y" horiz-adv-x="1949" 
d="M561 -481q-61 0 -61 92q0 147 200 446q147 201 324 389q195 207 336 316q30 20 65 55q32 40 54 88q24 49 71 166q179 435 179 629q-3 54 -9 69q-7 17 -37 17q-96 0 -366 -285q-266 -278 -660 -799q-223 -296 -327 -403q-117 -117 -187 -117q-64 0 -106 70q-41 71 -41 203
q0 322 231 934q115 272 277 565q166 292 258 381q83 71 170 71q137 -6 137 -94q0 -41 -47 -59q-52 -19 -84 -19q-11 0 -39 -8q-88 -40 -281 -354q-320 -512 -468 -1041q-74 -260 -74 -409q0 -75 20 -111q19 -39 47 -39q50 0 140 93q122 129 385 479q223 300 368 475
q132 159 293 317q243 258 359 258q118 0 118 -184q0 -185 -131 -520q-44 -112 -84 -203q-24 -52 -24 -61l4 -2q5 0 141 65q66 29 105 29q51 0 88 -27q37 -24 37 -57q0 -26 -27 -47q-24 -21 -49 -21q-18 0 -37 11q-19 8 -41 8q-31 0 -100 -41q-141 -75 -201 -135
q-64 -67 -137 -205q-262 -467 -508 -756q-194 -229 -281 -229zM571 -369q0 -18 13 -18q6 0 88 70q59 56 162 178q224 279 407 600q47 75 47 90q-27 -3 -211 -184q-256 -253 -403 -508q-103 -177 -103 -228z" />
    <glyph glyph-name="Z" unicode="Z" horiz-adv-x="2027" 
d="M438 20q-59 0 -59 41q21 156 448 361q238 118 478 196q53 18 108 39q53 17 92 72q55 67 64 135q0 34 -32.5 60t-94.5 39q-138 32 -432 32h-56q-109 0 -155 11q-35 12 -35 32q9 58 186 168q378 252 621 498q293 299 293 473q0 49 -27 96q-18 40 -47 56q-27 15 -94 30
q-64 17 -142 17q-242 0 -538 -146q-301 -148 -555 -399q-120 -117 -213 -256q-113 -171 -113 -254q0 -53 60 -68q28 -9 57 -43q29 -33 29 -59q-3 -28 -43 -43q-47 -14 -84 -14q-28 0 -52 6q-147 44 -147 182q0 30 8 61q53 199 293 451q238 253 557 442q400 236 735 248
q70 0 162 -20q123 -29 182 -88q54 -69 54 -164q0 -52 -15 -107q-11 -54 -43 -116q-88 -169 -334 -394q-249 -228 -569 -432q-106 -72 -106 -84l2 -4h190q274 0 387 -26q180 -43 180 -164q0 -62 -61 -178q0 -6 6 -9q16 0 84 19q160 39 268 39q119 0 166 -56q27 -34 27 -59
q-6 -43 -68 -43q-28 0 -61 8q-42 10 -86 10q-111 0 -334 -49q-61 -12 -119 -28q-42 -12 -71 -31q-24 -12 -66 -45q-104 -82 -283 -193q-174 -108 -299 -166q-208 -84 -303 -84zM428 94q0 -5 25 -8q47 0 129 29q337 121 663 368l-63 -20q-175 -55 -336 -125
q-172 -74 -287 -141q-118 -64 -131 -103z" />
    <glyph glyph-name="bracketleft" unicode="[" horiz-adv-x="1226" 
d="M330 -246q-79 0 -135 39q-146 113 -146 389q0 299 135 701q119 361 420 1038q155 355 158 397q0 18 -6 21q-19 25 -19 49q0 48 56 92q56 41 98 41q43 0 67 -24q6 -6 62 -89q109 3 203 9q122 4 188 4q47 -3 68 -27q22 -22 22 -45q0 -32 -37 -53q-27 -17 -47 -17
q-24 3 -63 15q-40 16 -123 16q-18 0 -96 -4q-242 -15 -277 -27q-23 -30 -117 -219q-647 -1332 -647 -1855q0 -234 127 -305q49 -27 84 -27q42 0 76 37q45 39 82 39q49 0 55 -66q-3 -30 -37 -67q-38 -41 -75 -52q-45 -10 -76 -10z" />
    <glyph glyph-name="backslash" unicode="\" horiz-adv-x="1171" 
d="M987 201q-21 8 -33 8q-17 0 -36 29q-21 27 -21 51q0 20 10 30q8 11 33 17q27 3 35 14q8 8 8 39q0 45 -35 182q-42 152 -74 232q-156 375 -538 979q-32 51 -80 121q-20 32 -45 57q-14 14 -31 14q-59 0 -96 37t-37 84q0 38 29 78q30 37 80 37q67 0 110 -66q27 -49 27 -82
q0 -8 -4 -20t-4 -21q0 -14 22 -63q18 -40 86 -160l185 -323q262 -449 387 -717q127 -278 127 -422q0 -135 -95 -135h-10z" />
    <glyph glyph-name="bracketright" unicode="]" horiz-adv-x="1544" 
d="M557 -254q-43 0 -68 25q-12 11 -61 88q-109 -3 -203 -9q-122 -4 -188 -4q-46 3 -68 25q-22 25 -22 47q0 32 37 53q27 17 47 17q24 -3 63 -15q40 -16 123 -16q18 0 96 4q242 15 277 27q23 30 117 219q647 1332 647 1853q0 236 -127 307q-56 27 -84 27q-42 0 -76 -37
q-45 -39 -82 -39q-49 0 -55 66q3 30 37 67q39 42 75 50q41 12 76 12q79 0 135 -39q146 -113 146 -389q0 -299 -135 -701q-119 -361 -420 -1038q-155 -355 -158 -397q0 -18 6 -21q19 -25 19 -49q0 -48 -56 -92q-56 -41 -98 -41z" />
    <glyph glyph-name="asciicircum" unicode="^" horiz-adv-x="968" 
d="M205 958q-74 0 -74 56q0 21 143 237q145 216 201 281q65 74 103 74q31 0 49 -47q19 -45 41 -148q55 -266 139 -319q35 -22 35 -52q0 -22 -21 -34q-23 -13 -45 -13q-46 0 -69 47q-16 31 -54 220q-18 104 -37 198q-15 60 -26 60q-21 0 -78 -82q-136 -207 -184 -369
q-34 -109 -123 -109z" />
    <glyph glyph-name="underscore" unicode="_" horiz-adv-x="1187" 
d="M90 221q-48 0 -92 29q-37 27 -37 69q3 35 29 54q21 16 90 16q18 0 76 -4q40 -6 96 -6q92 0 276 18q217 19 322 19q144 0 203 -29q61 -27 61 -61q0 -59 -63 -62q-26 0 -64 23q-40 32 -104 41q-55 8 -166 8q-99 0 -246 -25q-143 -27 -250 -61q-82 -29 -131 -29z" />
    <glyph glyph-name="grave" unicode="`" horiz-adv-x="430" 
d="M276 1518q-14 0 -22 8q-10 10 -55 123q-80 207 -120.5 306.5t-55 127t-27.5 37.5q-37 30 -41 30q-5 0 -8 9q-4 6 -4 22q0 31 26 51q26 23 54 23q19 0 36 -14q15 -15 15 -43q0 -14 -8 -25q-9 -18 -9 -25q0 -24 18 -67.5t101 -225.5q20 -44 32 -70t33.5 -73.5t41.5 -91.5
q8 -18 20.5 -30.5t20.5 -18t8 -8.5q0 -15 -19 -31q-17 -14 -37 -14z" />
    <glyph glyph-name="a" unicode="a" horiz-adv-x="1529" 
d="M688 514q-178 0 -252 117q-51 80 -86 262q-18 117 -33 135q-26 0 -297 -235q-79 -70 -116 -70q-29 0 -35 51q0 44 61 129q64 89 142 170q86 86 149 121q51 23 101 23q89 0 159 -46q74 -47 74 -100q0 -39 -39 -65q-47 -32 -100 -29l-58 4q21 -183 64 -276q29 -68 94 -111
q45 -31 115 -31t125 10q46 8 131 50q148 74 309 172q182 111 250 168q75 63 127 63q42 0 45 -47q0 -11 -4 -31q-22 -51 -168 -139q-156 -92 -332 -170q-283 -125 -426 -125zM8 860q11 0 133 113q70 61 70 69h-4q-62 -47 -131 -110q-68 -68 -68 -72z" />
    <glyph glyph-name="b" unicode="b" horiz-adv-x="1288" 
d="M-293 -145q-41 0 -61 26q-23 23 -23 64q0 17 15 51q17 39 53 166q64 236 221 569q72 150 72 174q0 10 -7 17q-22 19 -22 43q0 48 98 106q57 29 176 217q148 218 332 453q171 212 320 364q146 146 204 146q13 0 35 -15q22 -22 27 -32q10 -20 10 -29q0 -45 -125 -225
q-290 -419 -786 -918q-107 -110 -133 -123q-25 -14 -45 -43q-31 -47 -113 -250q-72 -182 -72 -192q12 4 105 119q149 174 303 286q154 109 250 109q60 0 75 -35q11 -26 27 -121l133 76q119 65 230 105q115 41 176 41q116 -18 116 -82q0 -27 -30 -48q-12 -8 -27 -8
q-7 0 -39 8q-29 13 -69 13q-84 0 -189 -47q-74 -33 -334 -164l-57 -105q-64 -114 -174 -252q-107 -134 -205 -225q-101 -94 -143 -94q-24 0 -35 14q-8 13 -8 54q0 31 14 59q13 31 55 94q72 104 209 244q138 141 242 219q47 28 70 55q20 23 30 60q8 46 8 53q-4 16 -8 20
q-4 7 -30 7q-53 0 -138 -43q-152 -79 -297 -236q-152 -164 -241 -344q-34 -69 -41 -92q-15 -45 -13 -88l7 -113q3 -39 -50 -76q-46 -32 -98 -32zM14 49q0 -10 9 -10q31 0 145 111q121 114 258 303q96 131 96 147q0 4 -4 4q-6 0 -53 -29q-130 -92 -311 -303
q-140 -158 -140 -223zM313 1292q286 260 676 781q-141 -96 -334 -330q-167 -197 -342 -451z" />
    <glyph glyph-name="c" unicode="c" horiz-adv-x="1349" 
d="M31 305q-105 0 -156 60q-49 61 -49 153q0 173 147 440q49 92 117 162q79 88 146 88q56 0 102 -55q45 -54 45 -131q0 -59 -49 -86q-53 -29 -82 -29q-39 0 -70 25q-32 22 -32 49q0 25 -5 25t-26 -21q-88 -88 -164 -231q-86 -165 -92 -265q0 -127 168 -127q124 3 278 62
q151 60 436 209q283 153 486 287q118 71 145 71q18 0 29 -14q14 -11 14 -31q0 -36 -110 -100q-113 -69 -414 -217q-337 -167 -543 -246q-210 -78 -321 -78z" />
    <glyph glyph-name="d" unicode="d" horiz-adv-x="878" 
d="M260 -545q-48 0 -86 47q-43 46 -43 160q6 354 186 834q172 446 537 1093l41 82h-2q-71 -60 -299 -311q-238 -256 -262 -295q-16 -34 -72 -80q-64 -59 -115 -115q-125 -137 -196 -137q-34 0 -55 27q-21 24 -21 67q0 62 94 205q154 238 262 238q33 0 58 -21l22 -10
q29 0 209 195q201 201 400 424q195 210 229 210q29 0 35 -24q-14 -52 -201 -358q-648 -1063 -739 -1754q-14 -133 -19 -219q0 -136 37 -139q11 0 37 16q41 23 55 23q20 0 39 -16q17 -17 17 -37q0 -42 -50 -72q-47 -33 -98 -33z" />
    <glyph glyph-name="e" unicode="e" horiz-adv-x="1165" 
d="M6 602q-151 0 -151 133q0 51 24 121q23 68 88 145q60 71 133 129q73 54 107 54q25 0 49 -17q18 -18 18 -47q0 -64 -124 -225q-56 -88 -134 -82l-55 4q-25 3 -41 -33q-18 -34 -18 -61q0 -65 114 -68q53 0 134 19q110 24 649 213q311 114 360 114q37 -3 37 -43
q0 -32 -8 -43t-45 -24q-44 -17 -484 -135q-433 -115 -460 -121q-123 -33 -193 -33z" />
    <glyph glyph-name="f" unicode="f" horiz-adv-x="909" 
d="M-295 -272q-50 0 -86 28q-17 23 -31 62q-27 70 -49 76q-33 11 -59 51q-29 40 -29 71q0 34 41 99q44 71 100 129q62 65 105 166q168 397 637 1097q88 129 125 176q44 58 65 80q22 19 41 19q25 0 49 -21q25 -22 25 -45q0 -41 -139 -360l-72 -172q-26 -68 -55 -84
q-30 -15 -68 -15q-30 0 -57 9q-32 11 -41 22q-11 14 -23 14q-28 0 -221 -333q-192 -332 -192 -375q0 -2 4 -2q16 0 63 41q275 219 586 391q314 176 432 176q35 0 68 -20q32 -19 32 -47q0 -58 -71 -58l-72 4q-147 0 -416 -139q-273 -144 -547 -365q-57 -45 -90 -75
q-28 -25 -45 -56t-28 -67q-29 -102 -29 -168q3 -64 18 -70q18 -7 37 -10q142 -41 142 -129q0 -55 -60 -80q-44 -20 -90 -20zM-502 6q0 -13 8 -18q14 -9 19 -11q8 -2 18 -2q18 0 27 27q6 23 12 59q6 33 15 64q10 30 10 39q0 6 -4 6q-3 0 -33 -33q-27 -33 -49 -71
q-23 -36 -23 -60z" />
    <glyph glyph-name="g" unicode="g" horiz-adv-x="1224" 
d="M-160 -588q-74 0 -121 53q-49 55 -49 162q0 181 144 420q141 232 379 461q232 226 518 399q112 69 129 103q14 41 14 92q0 98 -45 104q-23 0 -121 -49q-199 -94 -199 -147q0 -28 -34 -52q-36 -22 -80 -22q-48 0 -187 -80q-135 -78 -194 -78q-35 0 -60 25q-22 25 -22 57
q0 71 125 193q89 89 162 135q65 39 135 39q50 0 90 -27q40 -24 55 -61q3 -6 10 -6q23 0 84 38q168 107 234 107q74 0 74 -139q-2 -29 -7 -70q-4 -28 -4 -47l2 -12q8 0 95 34q121 50 200 50q50 0 80 -21q31 -19 31 -47q0 -23 -18 -35q-19 -16 -48 -16l-24 6q-6 2 -33 2
q-68 0 -147 -31q-65 -25 -174 -80q-116 -348 -138 -407q-52 -134 -127 -291q-167 -348 -366 -553q-200 -209 -363 -209zM-305 -379q0 -157 131 -160q164 0 375 224q273 285 481 827q119 311 119 350v2q-5 0 -53 -26q-14 -8 -51 -30.5t-60 -35.5q-48 -28 -123 -76l-92 -59
q-189 -133 -354 -313q-165 -183 -269 -369t-104 -334zM31 874q0 -4 6 -4q16 0 127 60q58 28 72 45q16 16 16 43q0 8 1 24.5t1 24.5q-43 -24 -94 -63q-47 -37 -90 -76q-39 -36 -39 -54z" />
    <glyph glyph-name="h" unicode="h" horiz-adv-x="1265" 
d="M-92 -131q-15 0 -47 16q-30 15 -39 45q-27 114 -27 199q0 249 248 745q-57 28 -70 41q-10 10 -10 39q0 18 6 33q8 13 33 35q24 24 72 53q35 26 88 68q36 31 55 57l66 103q20 30 61 91t51 76q225 344 439 607q217 266 274 266q22 0 37 -21q16 -22 16 -45q0 -69 -315 -497
q-467 -658 -662 -838q-43 -37 -75 -84q-87 -128 -162 -369q-68 -204 -68 -321q0 -33 10 -33q16 0 74 113q107 195 215 358q122 187 215 299q100 121 131 121q56 0 62 -207q6 -88 28 -137q30 -68 105 -68q68 0 199 101q124 93 233 194q87 78 125 78t41 -45q0 -12 -66 -72
q-52 -45 -164 -125q-241 -171 -356 -174q-68 0 -110 60q-40 57 -52 203t-24 149q-14 0 -58 -47q-22 -22 -96 -113q-49 -67 -90 -129q-122 -201 -182 -336q-61 -135 -105 -276q39 -23 47 -35q9 -9 9 -35q0 -30 -29 -67q-26 -36 -78 -58q-41 -18 -55 -18zM453 1446
q17 9 249 317q201 272 201 279q-30 -9 -291 -363q-159 -217 -159 -233z" />
    <glyph glyph-name="i" unicode="i" horiz-adv-x="909" 
d="M47 510q-41 -1 -66.5 32.5t-33.5 96.5q-6 49 -6 106q3 215 61 355q41 77 104 80l31 2q46 -3 74 -23q30 -21 39 -55q0 -79 -72 -107q-33 -11 -78 -88q-43 -76 -73 -161q-34 -84 -37 -130q6 -49 69 -49q84 3 187 47q79 42 346 201q237 153 299 168q45 -6 51 -41
q0 -46 -65 -70q-37 -15 -353 -172q-334 -172 -438 -190zM225 1511q12 98 150 113q95 -6 98 -70q-3 -35 -37 -69q-36 -39 -112 -45q-96 6 -99 71z" />
    <glyph glyph-name="j" unicode="j" horiz-adv-x="1034" 
d="M590 1636q-14 0 -43 13q-23 8 -49 30q-23 20 -23 47q0 37 39 66q39 33 96 33q97 0 109 -76q0 -30 -21 -57q-44 -56 -108 -56zM-522 -399q0 344 575 878q269 249 449 367l151 100l-10 58q-25 136 -71.5 202t-122.5 66q-87 0 -181 -64q-72 -46 -121 -102q-43 -58 -43 -78
q0 -12 25 -12q23 0 47 -12q28 -20 39 -31q16 -16 16 -31q0 -45 -49 -72q-54 -28 -129 -28q-48 0 -86 32q-41 30 -41 64q0 39 43 106q44 65 109 127q199 175 352 175q52 0 102 -29q42 -24 82 -100q36 -78 45 -175q9 -81 21 -81q246 126 289 126q39 0 80 -30q36 -29 36 -64
q0 -50 -47 -53q-22 0 -43 12q-26 13 -49 13q-24 0 -108 -35q-44 -19 -119 -58q-36 -19 -53 -49q-16 -29 -19 -71q-24 -161 -123 -390q-106 -236 -231 -417q-99 -135 -238 -277q-134 -136 -233 -200q-86 -49 -166 -56l-49 -4q-37 -3 -74 37q-55 58 -55 156zM-502 -412
q0 -67 41 -100q41 -35 82 -35q35 0 107 29q121 47 290 209q172 165 304 362q209 314 288 623q25 86 25 115q0 18 -12 18q-25 0 -107 -55q-434 -279 -725 -621q-293 -338 -293 -545z" />
    <glyph glyph-name="k" unicode="k" horiz-adv-x="1087" 
d="M-258 -229q-98 0 -107 149q0 152 115 436q77 195 234 471l57 101l-29 24q-11 8 -22 23q-10 10 -10 29q0 22 36 55q30 30 117 98q50 40 80 72q63 66 252 340q168 237 240 325q52 61 83 64q27 0 50 -23q24 -21 24 -49q0 -31 -94 -180q-98 -156 -227 -330
q-130 -181 -250 -315q-117 -135 -166 -135q-21 0 -113 -156q-267 -472 -288 -760l-9 -108q23 -11 76 -43q14 -14 14 -37q0 -19 -18 -37q-14 -14 -45 -14zM23 614q0 98 311 377q60 57 92 82q35 28 53 33q19 8 45 8q62 0 101 -39q43 -37 43 -76q0 -16 -6 -28q-6 -14 -35 -27
q-40 -13 -88 -18q-146 -18 -346 -152q-138 -92 -138 -135q0 -33 86 -33q95 0 275 58q175 54 346 133q163 71 244 139q54 45 88 45q29 0 32 -41q0 -23 -30 -47q-39 -27 -121 -62q-89 -37 -258 -102q-439 -168 -604 -168q-87 0 -90 53z" />
    <glyph glyph-name="l" unicode="l" horiz-adv-x="1091" 
d="M-92 55q-64 0 -109 54t-45 170q0 76 29 186q190 648 919 1393q189 192 228 192q51 0 51 -49q0 -82 -156 -313q-186 -268 -354 -490q-139 -192 -178 -209q-20 -10 -62 -10q-46 0 -63 10q-15 10 -64 62q-325 -532 -325 -807q0 -133 123 -133q237 0 970 688q188 176 230 176
q22 0 22 -37q0 -24 -151 -147l-398 -322q-261 -210 -423.5 -312t-243.5 -102zM166 1145l31 24q113 92 241 236q143 159 185 217l208 276q-162 -139 -290 -284q-143 -158 -375 -469z" />
    <glyph glyph-name="m" unicode="m" horiz-adv-x="1597" 
d="M-217 246q-92 0 -98 73q0 39 53 154q29 63 192 389q193 380 193 438q9 67 49 107q41 41 96 41q91 0 94 -68q0 -46 -59 -102q-84 -84 -201 -270q-122 -194 -182 -334q-14 -35 -14 -45l14 16q176 203 293 309q152 137 217 146q49 0 55 -180q0 -53 4 -93q3 -30 29 -30
q43 0 248 161q94 70 121 70q33 0 114 -84q71 -71 113 -80q24 -8 72 -8q56 0 227 76q130 59 164 59q27 0 43 -16q14 -14 14 -37q0 -21 -16 -37q-14 -12 -223 -65q-131 -32 -183 -37q-99 0 -206 98q-74 74 -105 74q-33 0 -246 -154q-89 -65 -131 -65q-35 0 -47 41
q-14 38 -14 127q0 120 -19 120q-31 -6 -61 -30q-162 -125 -289 -299q-135 -186 -164 -322q-34 -143 -147 -143z" />
    <glyph glyph-name="n" unicode="n" horiz-adv-x="1345" 
d="M-250 233q-28 0 -39 11q-13 13 -16 41q-6 30 -6 65q0 72 47 178q58 122 192 349q185 314 232 450q17 60 57 100q41 35 82 35q30 0 66 -22q32 -19 32 -54q0 -59 -123 -206q-159 -208 -309 -447q-135 -221 -135 -270q0 -10 6 -10q8 0 43 30q35 31 74 78q70 78 199 207
q114 114 190 182q84 78 111 90q29 13 41 13q22 0 45 -33t32 -90q18 -94 33 -144q35 -96 170 -96q96 0 238 62q136 59 235 149q64 64 88 64q8 0 15 -7q30 -18 30 -43q0 -51 -106 -114q-107 -63 -244 -105q-134 -45 -239 -45q-111 0 -164 56q-52 55 -70 184q-4 31 -14 72
q-5 20 -13 32q-15 10 -18 11q-41 0 -172 -119q-135 -126 -258 -283q-122 -159 -148 -235q-8 -32 -53 -86q-62 -50 -131 -50z" />
    <glyph glyph-name="o" unicode="o" horiz-adv-x="1046" 
d="M12 524q-32 0 -73 41q-39 45 -39 125q0 115 92 328q59 127 59 160q6 53 43 77q41 23 78 23q45 -6 70 -23q31 -15 49 -18q16 0 49 10q47 15 72 15q114 -9 114 -132q-6 -103 -77 -239q-26 -43 -29 -53l2 -2q15 0 104 24q68 16 197 53q57 16 180 56q92 32 139 32
q27 0 33 -12q8 -16 8 -49q-3 -28 -30 -37q-39 -13 -127 -29q-151 -31 -219 -43q-151 -26 -203 -34q-68 -11 -90 -17q-31 -7 -45 -18q-19 -13 -33 -35q-73 -85 -166 -143q-97 -60 -158 -60zM-8 655q0 -36 35 -39q53 0 123 48q93 72 133 106l-56 -4q-82 3 -188 45l-10 -33
q-5 -11 -23 -63q-14 -57 -14 -60zM70 860q0 -15 30 -24q48 -13 215 -19l45 57q44 55 76 134q34 75 37 125q0 30 -18 36q-21 7 -52 7q-39 0 -100 -21q-51 -20 -82 -59q-44 -61 -63 -90q-42 -59 -62 -95q-26 -47 -26 -51z" />
    <glyph glyph-name="p" unicode="p" horiz-adv-x="1093" 
d="M-446 -508q-28 0 -46 21q-18 18 -18 100q0 311 281 893q90 194 106 268q14 48 35 80q29 50 29 76q0 40 96 127q94 94 225 264q146 193 209 262q68 74 100 74q47 -3 47 -47q0 -63 -120 -232q-90 -128 -90 -145q0 -2 2 -2q121 47 196 47q142 0 142 -174q0 -12 -1.5 -27
t-1.5 -16l-6 -33q87 29 135 43q48 10 95 10q71 0 114 -34q45 -51 45 -91q0 -49 -65 -49q-34 0 -53 29q-19 31 -70 31q-48 0 -154 -29q-53 -15 -84 -35q-24 -17 -38 -53q-78 -145 -240 -318q-259 -274 -393 -274q-33 0 -56 29q-20 33 -20 61q0 37 35 105q60 122 217 256
q155 132 362 239q133 68 138 68q4 8 4 39q0 79 -19 104q-22 25 -63 25q-63 0 -150 -37q-89 -41 -174 -105q-68 -56 -121 -133q-55 -76 -55 -108q0 -36 -33 -72q-30 -37 -73 -37l-54 4q-11 3 -43 6q-193 -382 -268 -593q-74 -207 -80 -426q0 -30 6 -39q3 -9 15 -9
q10 0 22 -12q17 -23 19 -26q8 -13 8 -27q0 -13 -15 -31q-20 -24 -36 -33q-20 -14 -43 -14zM-14 348q0 -26 45 -26q127 0 368 247q143 146 242 308q0 4 -6 4q-9 0 -70 -23q-196 -90 -344 -211q-152 -122 -213 -241q-22 -46 -22 -58z" />
    <glyph glyph-name="q" unicode="q" horiz-adv-x="956" 
d="M143 -657q-43 0 -86 34q-20 16 -28 33q-11 22 -11 51q-4 46 -4 95q0 163 95 395q112 262 337 649q342 587 342 682q0 12 -6 12q-18 0 -67 -30l-240 -158q0 -140 -12 -170q-9 -35 -47 -53q-40 -21 -82 -21q-35 0 -70 21q-8 8 -20 8q-16 0 -92 -55q-107 -82 -166 -82
q-64 0 -70 80q0 57 82 184q87 126 188 219q106 100 181 100q39 0 73 -24q35 -24 35 -56q0 -17 10 -20q14 0 76 47q174 127 252 127q31 0 47 -16q19 -19 19 -82q0 -66 -68 -205q-60 -129 -250 -442q-197 -332 -293 -519q-93 -178 -131 -315q-34 -111 -37 -246q0 -68 19 -90
q19 -25 63 -28q74 -9 74 -50q0 -12 -18 -30q-16 -19 -43 -31q-22 -14 -52 -14zM90 926q197 138 197 200q0 7 -6 7q-34 0 -191 -207z" />
    <glyph glyph-name="r" unicode="r" horiz-adv-x="942" 
d="M-125 375q-28 0 -41 10q-15 22 -33 70q-18 49 -18 80q0 60 246 514q79 149 88 211q8 43 35 81q44 41 94 41q44 0 82 -24q34 -27 34 -72q0 -25 -24 -55q-22 -32 -55 -45q-17 -10 -50 -49q-79 -95 -161 -242q-113 -195 -113 -233l2 -5q7 0 129 134q129 147 223 235
q92 86 117 86q52 0 84 -59q8 -13 30.5 -66t39.5 -67q43 -37 99 -52t101 -2q45 12 95 70q39 45 63 45q17 0 37 -20q18 -21 18 -39q0 -36 -79 -82q-77 -45 -199 -45q-52 0 -94.5 16.5t-71 42t-51.5 64t-36 75.5t-24 84q-230 -199 -370 -434q-37 -64 -37 -100q0 -11 4 -47
q0 -52 -49 -86q-53 -35 -115 -35z" />
    <glyph glyph-name="s" unicode="s" horiz-adv-x="948" 
d="M-403 -266q-80 6 -89 82q0 73 43 149q53 90 222 248q183 169 336 276l153 109q-48 38 -78 68q-188 170 -188 227q0 129 67 227q62 89 130 107q71 0 114 -19q41 -18 41 -78q0 -43 -106 -83q-175 -76 -187 -164q3 -34 41 -72q12 -14 203 -190q495 364 621 364q76 0 79 -53
q0 -47 -102 -74q-41 -11 -174 -76q-108 -52 -229 -123q-112 -63 -146 -90l-2 -4q0 -9 16 -49q18 -46 21 -123q-6 -97 -49 -178q-69 -122 -240 -256q-269 -207 -497 -225zM-477 -172q3 -46 74 -49l20 2q31 2 115 22q230 82 424 258q192 172 211 314q-3 57 -21 100
q-17 43 -43 53q-43 -6 -178 -90q-286 -182 -461 -381q-121 -133 -141 -229z" />
    <glyph glyph-name="t" unicode="t" horiz-adv-x="626" 
d="M-207 -530q-12 0 -49 16q-31 18 -57 55q-24 38 -27 92q3 246 88 490q83 241 320 711q-62 9 -99 24q-36 17 -39 60q3 43 90 118q154 142 510 592q170 221 170 223q-63 0 -274 -32q-808 -114 -909 -164q-29 -16 -43 -39q-19 -25 -35 -33q-24 -8 -84 -8q-56 0 -100 35
q-41 38 -41 63q0 34 45 60q45 25 149 28q81 3 698 80q614 73 650 86q402 531 413 531q22 -10 25 -41q0 -38 -152 -252q-151 -213 -151 -221q2 -2 14 -2q27 0 125 10q693 77 1215 80q160 0 227 -11q168 -30 168 -86q0 -14 -12 -32q-13 -19 -41 -19q-29 0 -78 14
q-146 41 -457 41q-388 -6 -860 -36q-314 -21 -354 -37q-14 -10 -93 -121q-368 -494 -526 -758q-121 -201 -246 -469q-117 -243 -188 -455q-59 -189 -59 -325q0 -87 14 -115q12 -31 45 -31l51 7q61 0 64 -54q0 -17 -15 -32q-12 -18 -45 -31q-30 -12 -47 -12z" />
    <glyph glyph-name="u" unicode="u" horiz-adv-x="1171" 
d="M59 690q-29 0 -55 23q-55 46 -55 147q2 53 14 137q24 138 41 172q16 25 51 39q35 15 72 15q46 0 72 -23q26 -20 26 -49q0 -39 -41 -92q-42 -51 -67 -121q-28 -67 -31 -111v-20q4 -8 6 -8q18 0 232 190q153 135 163 135q6 0 15 -6q10 -7 16 -18q8 -11 8 -35
q-3 -37 -14 -84q-11 -46 -14 -86q0 -88 168 -94q79 0 204 35q132 41 181 75q56 39 98 39q26 0 39 -20q12 -18 12 -33q-3 -43 -88 -80q-83 -33 -203 -55q-115 -23 -221 -23h-8q-112 0 -170.5 53t-58.5 142v20q0 11 -5 11q-23 0 -139 -119q-163 -156 -248 -156z" />
    <glyph glyph-name="v" unicode="v" horiz-adv-x="1124" 
d="M104 399q-110 3 -122 449q-9 192 -15 239l-2 37q0 58 45 84q50 29 88 29q39 -3 70 -31t31 -57q0 -25 -31 -82q-26 -63 -55 -274q-19 -132 -21 -211q0 -68 14 -76q6 -6 15 -6q24 0 227 215q551 596 699 596q81 0 81 -64q0 -65 -75 -65q-79 0 -295 -174
q-231 -186 -398 -373q-129 -146 -167 -182q-60 -54 -89 -54z" />
    <glyph glyph-name="w" unicode="w" horiz-adv-x="1486" 
d="M68 426q-50 0 -80 49q-31 48 -31 135q0 78 16 185q6 49 18.5 132.5t14.5 94.5q16 92 25 127q6 25 47 49q45 25 86 25q38 0 80 -31q39 -29 39 -64q0 -29 -21 -47q-15 -18 -69 -47q-41 -23 -91 -106q-45 -75 -86 -183q-36 -98 -36 -163q0 -44 24 -78q24 -35 57 -35
q29 0 84 37q72 43 275 307q177 235 244 274q36 19 69 19q51 0 82 -31t31 -63q0 -41 -53 -94q-91 -82 -91 -252q0 -55 11 -62q12 -4 24 -4q168 0 439 416q78 117 124 170q45 51 72 51q18 0 37 -16q16 -19 16 -37q0 -56 -114 -191q-387 -461 -553 -461q-26 0 -49 17
q-45 26 -60 92q-12 63 -26 270q-405 -405 -496 -471q-28 -14 -59 -14z" />
    <glyph glyph-name="x" unicode="x" horiz-adv-x="1335" 
d="M4 51q-41 0 -76 41q-23 29 -26 47q-2 12 -2 54q0 31 6 100q11 55 94 219q84 162 84 178q-3 17 -35 117q-38 108 -63 168q-26 75 -47 108q-18 24 -21 50q0 85 113 112l28 2q92 -3 101 -84q0 -37 -17 -51q-15 -27 -18 -242q0 -112 14 -112q10 0 70 78q281 328 338 366
q31 19 76 25q40 -3 79 -33q37 -32 46 -72q0 -90 -142 -90q-67 0 -100 -20q-53 -31 -176 -142q-168 -158 -174 -219q12 -76 84 -133q70 -55 159 -55h19q248 0 776 409q116 91 135 97q48 0 60 -51q-3 -35 -41 -52q-56 -22 -308 -180q-200 -123 -331 -188q-106 -55 -185 -68
q-49 -8 -129 -8q-99 0 -149 41q-49 42 -103 129l-26 39q-16 -24 -23 -31q-4 -5 -13 -19t-15 -22q-3 -5 -11.5 -20t-18 -32t-18.5 -34q-35 -72 -41 -98q-12 -37 -12 -115q0 -43 2 -53q0 -15 13 -25q6 -6 30 -16q52 -24 58 -57q0 -46 -48 -58h-16z" />
    <glyph glyph-name="y" unicode="y" horiz-adv-x="1525" 
d="M14 -598q-178 0 -178 188q0 224 279 568q277 341 688 610q73 46 104 74t31 57q0 25 -23 66q-38 86 -155 86q-170 0 -486 -199q-230 -133 -260 -133q-59 0 -59 84q0 115 92 344q35 87 74 104q46 17 80 17q42 0 80 -23q34 -21 34 -57q0 -33 -26 -62q-25 -32 -49 -32
q-23 0 -78 -64q-56 -62 -105 -135q-47 -71 -47 -100q0 -9 13 -9q41 0 200 99q364 219 527 219q64 0 106 -31t62 -72q26 -50 32 -73q11 -35 23 -41q25 0 121 47q107 50 190 74q88 26 143 26q46 -6 91 -39q41 -30 41 -59q0 -20 -17 -37q-15 -12 -37 -12q-23 0 -43 10
q-41 23 -92 23q-47 0 -145 -33q-119 -40 -191 -78q-48 -23 -55 -37q-12 -15 -12 -47q0 -137 -88 -373q-82 -228 -207 -426q-151 -235 -336 -381q-180 -143 -322 -143zM-137 -424q0 -47 8 -63q13 -21 27 -33q40 -37 96 -37q43 0 104 22q227 89 447 365q219 272 334 608
q69 210 69 305q0 15 -6 15q-15 0 -88 -43q-417 -244 -709 -596q-282 -341 -282 -543z" />
    <glyph glyph-name="z" unicode="z" horiz-adv-x="1118" 
d="M-299 -406q-44 6 -76 31q-81 60 -84 176q15 177 277 457q94 102 264 234q174 136 293 198l110 60q-220 48 -227 53q-12 9 -12 28q6 55 78 152q36 45 86 125q36 62 36 92q-19 0 -88 -29q-169 -76 -184 -139v-61q-15 -64 -117 -64q-88 9 -118 88q-5 40 -5 45q9 58 109 121
q99 62 225 109q122 45 191 45q80 -3 80 -88q0 -79 -140 -228q-104 -119 -104 -133q0 -10 125 -22q41 -7 96 -23q43 -12 68 -12q27 0 125 31q158 55 256 55q52 -8 90 -31q30 -24 30 -45q0 -55 -135 -61q-104 -3 -282 -60q-4 -62 -4 -69q-1 -8 -2.5 -24.5t-2.5 -24.5l-10 -78
q-55 -421 -452 -717q-272 -193 -457 -193zM-424 -197q0 -55 33 -94q18 -30 41 -43q34 -17 119 -20q51 0 110 18q201 63 387 217q181 153 283 346q85 171 88 344q0 83 -29 93q-21 0 -166 -62q-377 -188 -614 -412q-231 -220 -252 -387z" />
    <glyph glyph-name="braceleft" unicode="{" horiz-adv-x="1218" 
d="M205 -287q-80 0 -125 60q-33 48 -33 123q0 140 137 583q89 295 95 363l-33 -23q-53 -41 -84 -41q-26 0 -39 23q-12 21 -12 47q0 36 36 98q77 117 156 117l39 -4q11 0 20 6q7 7 27 37q0 1 51 82q223 387 365 903q45 160 80 235q39 83 67 105q35 24 62 24q61 0 98 -69
q33 -59 33 -113q0 -96 -119 -96h-31q-22 0 -30 -2q-12 -3 -25 -29l-57 -170q-133 -416 -412 -872q-82 -137 -94 -223t-101 -322q-186 -472 -186 -627q0 -112 94 -112q73 0 176 80q77 59 123 59q32 0 47 -21q15 -18 15 -36q0 -42 -76 -88q-68 -46 -145 -72q-70 -25 -119 -25z
" />
    <glyph glyph-name="bar" unicode="|" horiz-adv-x="1355" 
d="M176 -180q-104 0 -104 184q0 328 661 1638l172 338q101 204 107 263q16 92 69 151q57 60 111 60q20 0 41 -21q41 -44 41 -86l-2 -14q-27 -147 -109 -174q-42 -9 -241 -367q-328 -574 -506 -985q-223 -511 -223 -782q0 -33 34 -60q35 -27 35 -63q0 -38 -35 -62
q-26 -20 -51 -20z" />
    <glyph glyph-name="braceright" unicode="}" horiz-adv-x="1267" 
d="M178 -287q-58 0 -96 72q-35 62 -35 111q0 98 119 98l31 -2q14 0 30 4q14 4 27 29l57 170q133 413 412 872q82 140 94 223q12 86 101 322q186 476 186 626q0 113 -96 113q-74 0 -174 -80q-76 -59 -125 -59q-31 0 -45 20q-17 20 -17 37q0 38 78 88q58 39 145 72
q68 22 117 22q85 0 127 -57q31 -48 31 -123q0 -147 -135 -583q-89 -298 -95 -363l33 23q50 41 84 41q24 0 37 -23q14 -20 14 -49q0 -37 -36 -96q-77 -117 -158 -117l-39 4q-11 0 -19 -8q-5 -3 -26 -35q-35 -53 -51 -82q-223 -390 -365 -903q-45 -162 -80 -236
q-37 -78 -69 -104q-34 -27 -62 -27z" />
    <glyph glyph-name="asciitilde" unicode="~" horiz-adv-x="1376" 
d="M389 725q-42 0 -63 27q-47 50 -47 135q0 53 26 139q12 44 53 68t88 24q49 0 91 -31q38 -25 38 -65q0 -34 -30 -61q-30 -30 -84 -39q-88 -12 -88 -95q0 -25 30 -28q50 0 224 80q327 139 475 139q43 0 63 -14q21 -15 33 -62q12 -49 12 -96q0 -52 -16 -84q-19 -19 -45 -19
q-46 0 -49 33q0 31 35 74q32 40 32 72q0 43 -71 43q-131 0 -484 -162q-156 -78 -223 -78z" />
    <glyph glyph-name="exclamdown" unicode="&#xa1;" horiz-adv-x="1267" 
d="M1001 2374q-36 0 -61 22t-25 62q0 42 48 73q45 31 96 31q36 0 61 -14q29 -16 29 -49q0 -27 -19 -56q-18 -30 -57 -49q-42 -20 -72 -20zM168 170q0 39 16 61q21 24 60 43q45 25 176 236q141 233 291 532q179 347 258 580q68 213 80 426q0 42 -35 70q-35 38 -35 67t27 41
q27 17 45 17q27 0 63 -39q33 -36 33 -109q0 -53 -19 -137q-26 -175 -118 -404q-77 -202 -312 -671q-108 -219 -190 -394q-70 -149 -84 -198q-23 -64 -23 -92l2 -9q0 -106 -124 -118q-99 0 -111 98z" />
    <glyph glyph-name="cent" unicode="&#xa2;" horiz-adv-x="925" 
d="M412 -164q-83 0 -113 195q-16 109 -16 229q0 113 -17 113q-13 0 -71 49q-109 112 -109 305q0 201 121 449q25 48 74 110q114 141 153 141q20 0 29 33q52 231 61 344q8 59 19 109q12 40 39 61q44 33 96 33q48 0 80 -29q28 -25 28 -57q0 -50 -98 -117q-38 -41 -110 -250
q-27 -76 -27 -94q0 -13 8 -18q2 -1 5.5 -2t9 -2.5t10.5 -3.5q18 -4 51 -37q34 -27 67 -72q30 -40 39 -68l2 -28q0 -66 -59 -105q-45 -26 -80 -26q-77 0 -80 131l2 51q0 45 -8 45q-22 0 -90 -332q-17 -74 -31 -176q-19 -118 -30 -213q-13 -110 -13 -135t43 -25q38 0 88 41
q54 44 72 90q35 56 74 56q57 0 57 -64q0 -35 -45 -92q-47 -62 -96 -92q-63 -34 -197 -43q23 -223 37 -287q15 -73 47 -108q33 -36 33 -60q0 -19 -16 -32q-17 -17 -39 -17zM137 690q0 -162 105 -217l47 -29l18 142q38 291 76 481q37 200 37 223v4q-6 0 -23 -20
q-14 -12 -49 -51q-95 -112 -153 -254q-58 -143 -58 -279z" />
    <glyph glyph-name="sterling" unicode="&#xa3;" horiz-adv-x="919" 
d="M59 211q-13 0 -22 12q-10 10 -10 25q0 26 69 123q126 166 160 303q0 14 -33 14q-48 0 -90 31q-41 30 -47 67q0 22 33 48q20 26 53 26q31 0 45 -2q48 -7 66 -8q47 0 47 65q0 17 -60 23q-47 9 -80 35q-32 25 -32 55q0 11 12 29q14 21 31 35t43 14q27 0 39 -2q14 -3 57 -6
q24 0 33 6q7 7 10 22q92 432 129 490q34 57 94 57q43 0 82 -39q40 -40 64 -92q24 -53 24 -84q0 -41 -33 -67q-23 -33 -65 -33q-20 0 -47 6q-3 0 -26.5 3.5t-39.5 4.5q-31 0 -86 -242l62 -14q77 -24 77 -82q0 -57 -102 -57q-47 0 -57 -2q-17 -3 -23 -12q-7 -9 -14 -37
q-9 -27 -12 -45q-7 -21 -7 -23t52 -2l67 4q84 0 84 -57q-3 -72 -96 -72h-12q-148 0 -160 -61q-105 -261 -105 -279q25 0 160 33q191 51 258 51q58 0 58 -51q0 -39 -29 -55q-33 -18 -107 -27q-335 -50 -419 -94q-67 -37 -95 -37z" />
    <glyph glyph-name="currency" unicode="&#xa4;" horiz-adv-x="1345" 
 />
    <glyph glyph-name="yen" unicode="&#xa5;" horiz-adv-x="1005" 
d="M502 45q-68 0 -68 78q0 124 80 452l10 46q0 6 -6 6q-16 0 -74 -27q-75 -35 -120 -35q-46 3 -72 29q-29 23 -29 51q0 61 62 82q72 23 241 49l37 8q86 289 191 613q-8 -3 -97 -123q-243 -322 -391 -322q-102 0 -139 162q-10 75 -10 326q0 133 2 178q3 29 41 57q44 29 69 29
q33 0 84 -39q49 -40 49 -84q0 -58 -65 -82q-18 -7 -27 -16q-16 -16 -28 -107q-21 -108 -21 -184q0 -139 62 -139q47 0 147 100q106 106 219 264q72 103 119 162q41 55 66 80q20 20 34 20q14 -5 19 -10q10 -10 12 -16q4 -12 4 -23q-3 -35 -69 -198q-88 -212 -142 -375
q-58 -174 -61 -234q0 -20 6 -20q120 20 176 20q113 0 113 -69q-3 -33 -37 -56q-35 -24 -82 -24l-37 2q-165 0 -186 -53q-16 -44 -31 -217q-6 -120 -6 -177q0 -35 4 -75q4 -18 4 -48q0 -61 -53 -61z" />
    <glyph glyph-name="brokenbar" unicode="&#xa6;" horiz-adv-x="565" 
 />
    <glyph glyph-name="section" unicode="&#xa7;" horiz-adv-x="20527" 
d="M2281 -346q-88 0 -147 104q-63 100 -63 303q0 219 90 557q91 347 344 1051q63 177 145 424q48 152 62 231q12 68 16 160q0 21 -4 29q-8 4 -19 4q-51 0 -270 -219q-138 -144 -293 -356q-144 -204 -375 -572q-145 -236 -229 -336q-83 -102 -143 -102q-79 0 -127 160
q-13 38 -15 61q-4 22 -8 88q-2 39 -2 338q0 365 -2 422q-3 88 -12 115q-9 26 -25 26q-15 0 -65 -53q-62 -59 -123 -131q-69 -75 -127 -148q-169 -231 -320 -493q-146 -255 -237 -483q-51 -139 -78 -248q-37 -145 -37 -189q0 -41 29 -41q79 0 82 -61q0 -45 -70 -88
q-61 -25 -106 -25q-93 0 -93 82q0 45 19 142q83 379 332 849q247 457 579 844q141 156 223 156q121 0 121 -264q0 -81 -12 -222q-14 -183 -14 -385q0 -242 22 -301q23 -71 64 -71q44 0 118 110q79 110 230 361q426 717 715 981q171 162 258 162q42 0 65 -39q25 -42 25 -105
q0 -73 -43 -215q-61 -188 -156 -452q-234 -644 -346 -1041q-105 -372 -105 -604q0 -82 13 -168q15 -105 43 -156q25 -51 80 -73q71 -26 71 -62q0 -25 -22 -41t-58 -16zM2533 631q0 115 97 338q61 137 61 166q6 55 43 79q44 23 80 23q45 -6 74 -23q31 -15 49 -18q18 0 51 10
q51 15 74 15q58 -4 88.5 -39t30.5 -97q-6 -105 -80 -247q-29 -47 -31 -56l2 -2q18 0 109 27q106 24 202 55q61 17 187 56q92 34 143 34h4q126 221 166 336q17 63 59 105q40 34 84 34q32 0 68 -22q35 -20 35 -55q0 -62 -127 -213q-184 -242 -320 -461q-139 -228 -139 -281
q0 -10 6 -10q10 0 43 33q35 28 78 80q72 80 205 213q117 117 196 188q85 79 115 94q29 13 41 13q25 0 47 -35q23 -33 35 -92q18 -98 33 -148q35 -100 176 -100q102 0 246 63q138 62 241 154q11 11 60 53q13 69 45 154q42 79 108 82l31 2q49 -3 76 -25q32 -19 41 -55
q0 -83 -74 -111q-32 -10 -82 -92q-36 -63 -76 -166q-34 -87 -37 -133q6 -51 72 -51q89 3 193 49q58 30 356 207q233 149 297 170q23 30 57 57q165 152 527 610q176 229 176 230q-58 0 -285 -33q-835 -117 -938 -170q-30 -15 -45 -39q-18 -27 -37 -35q-24 -8 -86 -8
q-59 0 -102 37t-43 66q0 33 47 61q47 26 153 29q63 2 721 82q629 76 670 90q418 547 428 547q22 -10 25 -43q0 -41 -156 -261q-156 -218 -156 -227q2 -2 15 -2q27 0 129 10q705 79 1253 82q172 0 236 -10q172 -29 172 -88q0 -16 -13 -35q-12 -18 -41 -18t-81 14
q-145 43 -472 43q-426 -6 -888 -39q-325 -21 -365 -37q-12 -9 -96 -125q-390 -526 -543 -782q-131 -218 -254 -485q-121 -252 -194 -469q-62 -195 -62 -336q0 -89 15 -119q12 -31 47 -31l53 6q62 0 65 -55q0 -21 -14 -35q-14 -17 -47 -30q-32 -13 -49 -13q-9 0 -51 17
q-32 19 -60 57q-23 36 -26 94q3 255 90 506q84 244 329 733q-51 7 -100 27q-3 2 -9 5t-9 5q-45 -19 -353 -172q-345 -179 -452 -197l-39 -2q-43 -1 -70 34t-35 100q-6 53 -6 110l2 66q-2 -1 -7 -4.5t-7 -4.5q-97 -58 -252 -108q-146 -47 -248 -47q-113 0 -170 57
q-53 59 -71 191q-3 24 -15 73q-6 26 -12 35q-12 8 -18 10q-45 0 -179 -122q-132 -121 -266 -291q-122 -158 -153 -244q-9 -33 -54 -88q-63 -51 -137 -51q-29 0 -39 10q-13 13 -16 43q-8 27 -8 68q0 68 49 182q51 109 198 360l4 8q-13 -2 -55 -10l-225 -45q-187 -32 -209 -35
q-73 -11 -94 -18q-31 -7 -45 -18q-20 -12 -35 -35q-80 -93 -172 -150q-103 -61 -162 -61q-33 0 -76 43q-41 44 -41 129zM2630 594q0 -36 34 -39q57 0 127 49q79 58 138 109l-58 -4q-88 3 -194 47l-11 -35q-3 -7 -22 -66q-13 -56 -14 -61zM2710 807q0 -18 30 -27
q47 -12 223 -18l46 59q39 49 79 137q34 78 37 129q0 33 -18 39q-21 7 -53 7q-46 0 -103 -23q-50 -19 -86 -61q-35 -49 -65 -93l-64 -96q-26 -50 -26 -53zM6558 717q0 42 63 133q64 88 146 176q91 91 155 125q51 23 103 23q93 0 166 -46q75 -49 75 -104q0 -42 -39 -68
q-49 -31 -104 -28l-59 4q21 -187 65 -287q28 -67 98 -115q43 -30 117 -30t129 10q57 10 135 51q164 82 320 178q191 116 258 172q78 66 131 66q44 0 47 -47q0 -13 -4 -33q-22 -52 -174 -143q-155 -94 -342 -176q-296 -129 -440 -129q-184 0 -261 120q-54 87 -88 271
q-19 124 -34 139q-25 0 -306 -242q-80 -71 -120 -71q-31 0 -37 51zM6574 -580q0 97 238 97q134 0 182 -29q36 -16 121 -16q190 0 704 28q1251 58 2192 78q621 14 1290 19q20 165 145 370q147 243 391 475q239 236 535 412q116 73 133 107q14 43 14 96q0 100 -47 106
q-24 0 -123 -51q-206 -98 -206 -151q0 -27 -35 -54q-39 -22 -82 -22q-48 0 -193 -82q-142 -82 -202 -82q-33 0 -60 27q-19 19 -22 45q-56 -27 -301 -150q-349 -180 -453 -197l-41 -2q-42 -1 -69 34t-35 100q-7 61 -7 110q3 214 64 367q46 79 108 82l31 2q46 -3 78 -25
q30 -21 39 -55q0 -84 -74 -111q-35 -12 -80 -92q-42 -70 -75 -166q-36 -84 -39 -133q6 -51 71 -51q89 3 193 49q44 23 358 207q215 141 291 168q21 29 68 76q86 86 168 139q68 41 139 41q49 0 92 -29q42 -23 57 -63q4 -7 11 -7q24 0 88 41q169 109 239 109q78 0 78 -143
q-3 -54 -8 -72q-4 -28 -4 -49l2 -12q10 0 98 36q124 50 207 50q52 0 82 -21l14 -10q97 180 129 272q16 61 60 105q40 34 84 34q28 0 67 -22q33 -20 33 -55q0 -65 -127 -213q-176 -235 -319 -461q-140 -234 -140 -281q0 -10 6 -10q12 0 45 33q43 38 76 80q72 80 205 213
q112 109 197 188q82 76 114 94q33 13 43 13q22 0 47 -35q24 -35 33 -92q15 -81 35 -148q35 -100 174 -100q105 0 246 63q141 62 244 154q40 40 61 53q41 54 109 125q86 90 153 125q51 23 105 23q90 0 163 -46q76 -49 76 -104q0 -42 -39 -68q-49 -31 -104 -28l-60 4
q21 -184 66 -287q28 -67 98 -115q43 -30 117 -30t129 10t137 51q169 86 318 178q191 116 258 172q44 35 61 43q6 5 22.5 17t24.5 18q88 61 224 202.5t372 407.5q59 68 107 124t93 109.5t64 76.5l93 108q-617 -4 -1090 -16t-732.5 -28.5t-388.5 -29.5t-196 -26
q-231 -47 -301 -70q-46 -16 -59 -32q-13 -13 -10 -39q0 -28 -15 -43q-12 -15 -45 -27q-37 -15 -86 -12q-53 3 -59 22q-6 12 -27 25l-2 8q-12 50 31 92t149 80q105 38 281.5 66.5t405 44.5t449.5 26.5t492.5 14t450.5 4.5t408 0.5t286 -0.5l111 2q325 377 340 377
q23 -9 26 -43q0 -39 -174 -261l-59 -71q58 1 172 2t162 2q223 3 282 10q36 3 508.5 8.5t577.5 5.5q129 0 129 -46q0 -36 -80 -80q-38 -21 -86 -37q-20 -8 -236 8t-491 36.5t-391 20.5q-21 0 -93.5 4t-125.5 4h-377q-97 -126 -242 -299q-445 -539 -614 -782
q-131 -190 -289 -485q-138 -259 -219 -469q-70 -201 -70 -336q0 -91 17 -119q15 -31 53 -31l59 6q71 0 74 -55q0 -21 -14 -35q-17 -17 -54 -30q-44 -13 -55 -13q-10 0 -59 17q-39 20 -66 57q-28 39 -31 94q3 256 103 506q48 125 169 359.5t263 484.5q-53 -25 -123 -70
q-71 -47 -100 -65q-155 -94 -342 -176q-296 -129 -441 -129q-183 0 -260 120q-54 87 -88 271q-18 122 -35 139q-24 0 -305 -242q-80 -71 -121 -71q-28 0 -34 43q-65 -32 -187 -72q-143 -47 -245 -47q-113 0 -170 57q-54 57 -72 191q-4 31 -14 73q-6 26 -15 35q-12 8 -18 10
q-41 0 -178 -122q-131 -123 -267 -291q-126 -167 -151 -244q-10 -37 -55 -88q-60 -51 -136 -51q-28 0 -41 10q-13 13 -16 43q-6 30 -6 68q0 75 49 182q46 102 199 360l59 103q-20 5 -25 6q-6 2 -32 2q-68 0 -152 -33q-50 -19 -180 -82q-123 -371 -141 -422
q-48 -120 -131 -299q-141 -295 -312 -497q462 4 731 4q1729 0 1803 14q6 2 22 2q53 0 96 -24q49 -27 52 -62q0 -24 -29 -41q-29 -16 -68 -16q-38 0 -80 22q-52 49 -1808 49l-768 -2q-3 -3 -9 -10t-9 -10q-206 -215 -375 -215q-75 0 -125 53q-51 60 -51 168v12
q-1080 -10 -1604 -20q-1060 -23 -2091 -103q-393 -30 -436 -36q-86 -10 -111 -35q-42 -33 -131 -33q-77 0 -170 16q-101 18 -151 39q-29 23 -29 47zM6701 807q12 0 139 115q72 66 72 73h-4q-78 -60 -137 -114q-70 -73 -70 -74zM8636 1028q0 139 91 299q91 157 282 348
q410 413 1008 703q348 175 672 274q315 96 520 96q165 0 248 -61q79 -61 79 -166q0 -226 -338 -602q-337 -371 -1034 -856q-127 -82 -235 -164q-47 -29 -103 -29q-115 0 -121 78q0 29 9 47q13 24 157 99q212 110 465 272q628 408 936 799q176 226 176 352q0 133 -225 133
q-245 0 -653 -131q-396 -130 -797 -352q-440 -257 -756 -561q-322 -310 -356 -545q0 -48 31 -105q24 -53 71 -84q75 -49 228 -77q147 -30 465 -45q287 -19 387 -39q104 -15 188 -56q83 -38 96 -71q9 -25 27 -25q12 0 92 25q107 41 148 41q34 0 49 -15q16 -16 16 -35t-10 -36
q-17 -29 -199 -82q-131 -41 -131 -51q0 -14 -33 -50q-172 -200 -469 -340q-170 -84 -229 -84q-31 0 -31 33q0 87 334 318q193 134 359 213q59 26 59 43q0 9 -14 20q-46 52 -203 82q-197 36 -518 55q-262 17 -396 43q-342 56 -342 289zM9380 -16l12 2q77 10 133 34
q229 91 385 213q111 89 187 177q-328 -152 -486 -244q-150 -88 -231 -182zM10938 1479q12 101 154 116q99 -6 102 -71q-3 -36 -39 -72q-35 -41 -116 -47q-98 6 -101 74zM11323 -473q0 -163 136 -166q147 0 342 186l-478 -2v-18zM11330 -403l524 4q278 298 487 845
q123 315 123 363v2q-4 0 -55 -29q-84 -49 -113 -67q-40 -22 -127 -78q-20 -12 -51.5 -33.5t-44.5 -28.5q-198 -138 -365 -323q-171 -189 -278 -381q-86 -156 -100 -274zM11670 821q0 -4 6 -4q19 0 131 62q59 27 73 47q19 19 19 43q0 8 1 25.5t1 25.5q-26 -13 -98 -66
q-59 -45 -93 -77q-40 -37 -40 -56zM14303 811q20 14 129 111q72 66 72 73h-4q-80 -62 -135 -114l-43 -43q-8 -16 -19 -27zM16546 807q2 53 14 141q28 145 43 178q15 24 53 39q34 15 74 15q48 0 74 -23q29 -20 29 -51q0 -38 -43 -94q-49 -62 -70 -125q-30 -76 -33 -115v-20
q0 -1 1 -3l1.5 -3t2 -2t3.5 -1q17 0 238 197q160 139 170 139q5 0 14 -6q12 -8 17 -18q8 -13 8 -37q-3 -33 -15 -86q-11 -50 -14 -90q0 -91 174 -97q83 0 211 35q136 45 186 80q56 39 99 39l55 102q79 146 92 218q8 46 35 84q46 43 98 43q45 0 84 -25q35 -30 35 -76
q0 -25 -24 -55q-22 -35 -58 -47q-15 -9 -51 -51q-87 -109 -166 -250q-117 -202 -117 -240l2 -6q10 0 134 139q153 169 231 242q96 90 121 90q53 0 86 -61q10 -18 23 -50t24.5 -54.5t24.5 -33.5q44 -38 101.5 -53.5t104.5 -1.5q31 9 56 31q24 46 73 108q52 62 138 133
q74 56 110 56q27 0 51 -17q19 -22 19 -49q0 -63 -129 -233q-55 -90 -137 -84l-58 4q-25 3 -43 -35q-18 -34 -18 -61q0 -69 119 -72q49 0 137 20q114 24 670 220q325 118 372 118q39 -3 39 -45q0 -32 -8 -43q-7 -12 -47 -26q-73 -26 -500 -140q-430 -114 -475 -125
q-122 -32 -199 -32q-157 0 -157 137q0 25 10 67q-43 -6 -90 -6q-54 0 -98 17t-73.5 43.5t-52.5 66t-36.5 78t-24.5 86.5q-242 -207 -383 -448q-39 -62 -39 -103q0 -13 4 -49q0 -54 -49 -88q-55 -37 -119 -37q-30 0 -43 10q-12 17 -32 72q-21 52 -21 84q0 38 121 274
q-79 -26 -166 -40q-121 -23 -229 -23h-8q-117 0 -177.5 54.5t-60.5 146.5v20q0 10 -4 10q-28 0 -144 -122q-171 -160 -256 -160q-32 0 -57 22q-57 51 -57 154zM20310 1020q0 32 33 65q30 35 82 35q27 0 57 -20q25 -22 25 -45q0 -38 -43 -72q-50 -29 -86 -29q-32 0 -50 21
q-18 18 -18 45z" />
    <glyph glyph-name="dieresis" unicode="&#xa8;" horiz-adv-x="520" 
d="M180 1581q-35 0 -65 27q-21 27 -21 55q0 38 41 88q44 41 105 41q37 0 73 -25q33 -26 33 -59q0 -45 -57 -90q-52 -37 -109 -37zM580 1683q0 40 43 89q40 40 102 40q47 0 74 -24q35 -28 35 -59q0 -46 -60 -91q-55 -36 -106 -36q-40 0 -66 26q-22 28 -22 55z" />
    <glyph glyph-name="copyright" unicode="&#xa9;" horiz-adv-x="1212" 
d="M532 205q-171 0 -276 258q-24 55 -33 129q-7 51 -10 211q0 389 158 579l10 11q48 63 346 63q162 0 236 -39q48 -48 77 -104q25 -55 25 -176q0 -78 -27 -228q-23 -129 -59 -247q-77 -210 -199 -332q-122 -125 -248 -125zM281 715q0 -175 59 -299q56 -123 172 -123
q29 0 59 6q34 6 54 16q61 33 139 123q76 88 129 191q50 103 96 266q37 142 37 262l2 66q0 42 -10 59q-9 18 -37 43q-29 26 -53 31q-21 8 -90 8q-192 0 -207 -57q0 -33 -45 -66q-46 -37 -92 -37t-60 -26q-13 -26 -53 -35t-70 -144q-30 -132 -30 -284zM451 836q0 121 67 215
q69 96 146 96q33 0 75 -39q47 -44 70 -88q31 -51 31 -88q-6 -49 -43 -76q-36 -25 -88 -25q-43 0 -72 23q-33 20 -33 47q0 5 21 66q24 59 24 75q0 10 -12 13q-24 0 -62 -47q-31 -35 -71 -107q-31 -64 -31 -102q0 -54 37 -84q36 -33 80 -33q46 0 88 45q48 57 92 57
q43 0 49 -57q0 -54 -59 -92q-58 -37 -125 -37q-86 0 -137 72q-47 71 -47 166z" />
    <glyph glyph-name="ordfeminine" unicode="&#xaa;" horiz-adv-x="555" 
d="M360 1223q-11 0 -30 16q-17 20 -17 47q0 29 -12 29q-13 0 -47 -12q-77 -23 -100 -23q-95 0 -107 100q0 53 37 111q39 61 98 100q48 26 99 43q66 17 92 17l24 -4q8 0 15 20q7 21 10 47q4 20 4 53q0 41 -20 41q-35 0 -87 -79q-50 -87 -126 -87q-41 0 -78 21q-35 24 -35 57
q0 56 96 125q98 64 215 82q39 0 66 -37q30 -38 30 -102q0 -34 -12 -80q-10 -52 -10 -84q1 -4 2 -11.5t2 -10.5q3 -11 6 -37q4 -36 4 -86q0 -52 -28 -80q-19 -25 -19 -43l6 -62q0 -32 -28 -51q-26 -20 -50 -20zM147 1386q0 -6 9 -6q16 0 80 37q61 37 61 45q0 6 -23 6
q-47 0 -96 -43q-31 -28 -31 -39z" />
    <glyph glyph-name="guillemotleft" unicode="&#xab;" horiz-adv-x="1343" 
d="M668 487q-20 0 -33 25q-14 47 -117 106q-99 57 -248 107q-82 24 -137 47q-45 17 -57 39q-13 23 -13 61q0 49 168 293q172 266 187 316q26 75 51 116q29 45 98 45q31 0 66 -24q51 -19 51 -51q0 -31 -55 -92q-63 -70 -185 -189q-360 -354 -360 -422q4 -15 22 -28
q12 -10 74 -35q9 -3 160 -53q43 -16 129 -52q71 -30 123 -57q48 -22 76 -43q24 -13 32 -29q9 -12 9 -30q0 -26 -9 -35q-8 -12 -32 -15zM645 928q0 36 92 145q152 175 152 260q0 34 33 70q34 37 67 37q38 0 92 -31q49 -30 49 -74q0 -28 -28 -53q-27 -27 -158 -117
q-272 -178 -272 -227q0 -18 106 -70q94 -47 248 -100q157 -62 174 -76q21 -21 21 -49q0 -20 -17 -37q-13 -16 -30 -16q-27 0 -68 41q-54 51 -336 192q-50 23 -94 54q-31 25 -31 51z" />
    <glyph glyph-name="logicalnot" unicode="&#xac;" horiz-adv-x="1298" 
d="M1114 457q-26 0 -67 41q-37 43 -37 71q0 55 86 197q71 121 71 133q0 30 -106 33q-70 0 -230 -17q-110 -12 -264 -38q-103 -18 -170 -46q-56 -26 -110 -26q-61 0 -97 31q-36 29 -36 61q0 34 36 57q41 23 101 23q81 0 274 20q340 29 422 29q93 0 143 -12q43 -8 64 -29
q14 -20 14 -43q0 -40 -63 -145q-64 -110 -64 -146q0 -49 62 -73q39 -23 39 -60q0 -27 -23 -43q-24 -18 -45 -18z" />
    <glyph glyph-name="registered" unicode="&#xae;" horiz-adv-x="813" 
d="M342 1221q-71 0 -135 55q-63 54 -101 166q-16 53 -18 94q-6 52 -6 344l37 31q31 28 78 28l36 -2q52 0 138 13q71 14 125 14q212 0 215 -225q0 -48 -17 -131q-41 -173 -141 -279q-102 -108 -211 -108zM145 1501q0 -106 52 -170q55 -61 151 -61q40 0 64 8q27 10 55 27
q104 69 162 194q61 122 61 240q0 165 -160 168q-10 0 -86 -13q-44 -10 -96 -28q-45 -15 -51 -29q0 -7 59 -16q53 -5 82 -27q22 -19 25 -65q0 -32 -33 -99q-22 -42 -22 -55q0 -6 8 -6q10 0 51 18q82 43 125 43q29 0 37 -8q9 -12 12 -35q0 -84 -227 -102q-40 0 -58 14
q-14 11 -14 45l6 62q0 10 -4 10q-6 0 -18 -25q-9 -27 -9 -71q0 -39 5 -64q3 -29 14 -51q12 -21 12 -35q0 -17 -24 -35q-26 -16 -52 -16q-28 0 -49 18q-20 17 -20 49q0 45 37 209q-52 64 -70 64q-1 -1 -8 -29l-12 -61q-5 -63 -5 -68z" />
    <glyph glyph-name="macron" unicode="&#xaf;" horiz-adv-x="937" 
d="M156 1624q-27 0 -47 14q-23 16 -23 41q0 49 43 76q43 29 98 29q25 0 49 -6q56 -15 228 -15q321 0 354 -10q23 -16 23 -39q0 -21 -19 -43q-22 -22 -51 -22q-25 0 -66 8l-100 12q-58 6 -119 6q-154 0 -258 -26q-80 -25 -112 -25z" />
    <glyph glyph-name="degree" unicode="&#xb0;" horiz-adv-x="475" 
d="M199 1442q-25 0 -52 18q-71 41 -71 209q0 94 49 121q33 20 61 20q15 0 35 -10q9 -4 33 -18q5 -4 11.5 -7.5t13.5 -7.5t10 -6q35 -18 55 -59q21 -40 21 -84q0 -116 -113 -162q-28 -14 -53 -14zM164 1559q0 -48 39 -48q25 0 59 21q33 17 53 51q21 40 21 64q0 27 -23 47
q-19 16 -37 16q-8 0 -20 -6q-10 -6 -16 -16q-9 -6 -9 -15q0 -6 2 -8q5 -5 5 -8q0 -15 -13 -31t-30 -22q-31 -12 -31 -45z" />
    <glyph glyph-name="plusminus" unicode="&#xb1;" horiz-adv-x="983" 
d="M469 270q-57 0 -57 64q0 31 65 575q0 25 -28 25q-45 0 -181 -43q-83 -25 -123 -25q-67 0 -67 62q0 47 47 88q45 39 94 39q12 0 49 -11q54 -22 160 -22l72 2q10 150 10 152q0 64 -21 102q-10 20 -10 39q0 37 27 80q41 65 106 65q41 0 70 -32q23 -23 23 -68q0 -56 -54 -92
q-54 -42 -78 -133l-30 -105q0 -8 20 -8q46 0 189 14q67 6 106 6q90 0 90 -57q0 -29 -28 -57q-21 -21 -52 -21l-16 2q-110 39 -244 39q-57 0 -76 -16q-24 -24 -24 -307q0 -134 10 -205q8 -52 8 -88q0 -64 -57 -64zM86 82q0 49 43 76q42 28 98 28q25 0 49 -6q52 -14 228 -14
q321 0 354 -10q23 -16 23 -39q0 -21 -19 -43q-23 -23 -51 -23q-25 0 -66 8l-100 13q-59 6 -119 6q-150 0 -258 -27q-76 -24 -112 -24q-27 0 -47 14q-23 16 -23 41z" />
    <glyph glyph-name="uni00B2" unicode="&#xb2;" horiz-adv-x="585" 
d="M371 1278q-57 0 -109 14q-69 18 -78 51q-2 8 -2 27q0 62 47 139q101 164 107 193v2q-9 0 -66 -31q-49 -22 -86 -22q-65 0 -100 53q-21 35 -21 49q0 29 56 53q79 39 164 39q38 0 69 -8q90 -24 90 -92q0 -11 -4 -31q-15 -51 -162 -239q-51 -66 -51 -76q0 -19 51 -19
q22 0 103 15q56 16 82 16q34 0 53 -31q10 -12 10 -30q0 -45 -84 -66q-35 -6 -69 -6z" />
    <glyph glyph-name="uni00B3" unicode="&#xb3;" horiz-adv-x="514" 
d="M190 1217q-12 0 -16 2q-33 11 -33 38q9 64 84 64l33 -2q44 0 98 31l37 16l-2 2q-83 68 -106 94t-23 58q0 43 70 116q41 44 41 62q0 22 -33 22q-29 0 -41 -24q-31 -31 -80 -31q-84 0 -131 53q-22 25 -22 49q0 9 4 21q21 63 123 63q77 0 141 -22q84 -27 84 -94
q0 -45 -82 -152q-39 -48 -39 -57q0 -16 53 -51q74 -53 74 -86q0 -34 -62 -84q-58 -44 -106 -68q-39 -20 -66 -20z" />
    <glyph glyph-name="acute" unicode="&#xb4;" horiz-adv-x="385" 
d="M100 1464q-21 0 -45 15q-22 16 -22 41q0 26 30 47q25 15 166 164t195 221q34 43 63 43q14 0 25 -8q12 -9 12 -23q0 -22 -45 -51q-62 -47 -190.5 -182.5t-128.5 -157.5q0 -10 6 -19t6 -24q0 -26 -25 -45q-24 -18 -47 -21z" />
    <glyph glyph-name="uni00B5" unicode="&#xb5;" horiz-adv-x="835" 
d="M119 35q-64 0 -64 108q0 57 19 150q18 89 18 141q0 26 -6 41q-12 35 -12 80q0 93 53 285q42 176 53 293q0 54 10 92q8 28 37 71q60 82 105 82q36 0 63 -47t33 -110q0 -46 -96 -236q-144 -299 -144 -438q0 -78 31 -78q55 0 193 276q219 421 293 508q22 25 40 25
q41 0 41 -51q0 -34 -41 -137q-98 -246 -98 -420q0 -186 58 -189q30 0 45 -18q16 -19 16 -43q0 -36 -33 -62q-36 -20 -78 -20q-61 0 -82 59q-20 56 -20 164q0 82 37 307q-9 0 -107 -198q-121 -255 -192 -285q-33 -15 -119 -23v-98q0 -94 18 -137q9 -18 9 -31q0 -18 -27 -33
q-31 -28 -53 -28z" />
    <glyph glyph-name="paragraph" unicode="&#xb6;" horiz-adv-x="1345" 
 />
    <glyph glyph-name="periodcentered" unicode="&#xb7;" horiz-adv-x="276" 
d="M115 840q-32 0 -49 20q-17 17 -17 43q0 28 31 64q28 32 80 32q28 0 55 -18q25 -22 25 -45q0 -38 -43 -68q-45 -28 -82 -28z" />
    <glyph glyph-name="periodcentered" unicode="&#x2219;" horiz-adv-x="276" 
d="M115 840q-32 0 -49 20q-17 17 -17 43q0 28 31 64q28 32 80 32q28 0 55 -18q25 -22 25 -45q0 -38 -43 -68q-45 -28 -82 -28z" />
    <glyph glyph-name="cedilla" unicode="&#xb8;" horiz-adv-x="477" 
d="M-51 -549q-78 37 -158 211q-6 14 -14.5 30.5t-13 24.5t-9 20t-3.5 17l3 15q18 24 37 16q13 -7 33 -70q66 -196 143 -239q18 -11 33 -11q6 -1 10.5 0t7 2.5t2.5 2.5q10 13 7 55q-5 37 -21 80q-7 25 -38 98t-40 82q-17 17 -20 33q0 20 10 37q3 5 57.5 126.5t77.5 161.5
q7 13 15.5 30.5t12.5 25t10 18.5t9 15t8 9t10 6.5t11 2.5q13 3 23 -11t16 -34q12 -28 0 -49q0 -1 -17 -23.5t-40 -56.5t-47.5 -74.5t-46.5 -88.5t-31 -87q3 -12 22.5 -73.5t33.5 -111t15 -65.5q6 -51 -20 -98q-34 -58 -88 -27z" />
    <glyph glyph-name="uni00B9" unicode="&#xb9;" horiz-adv-x="301" 
d="M152 1280q-68 0 -68 80q0 24 4 82l8 166q0 42 -6 57q-6 16 -20 27q-31 31 -31 69q0 50 43 90q47 41 88 41q38 0 70 -32q30 -30 30 -64q0 -40 -45 -82q-23 -22 -30 -35q-12 -15 -15 -39q-2 -16 -2 -73q0 -75 8 -99q6 -28 29 -55q23 -33 23 -63q0 -33 -31 -52
q-30 -18 -55 -18z" />
    <glyph glyph-name="ordmasculine" unicode="&#xba;" horiz-adv-x="555" 
d="M254 1278q-34 0 -74 27q-104 58 -104 301q0 138 71 174q46 30 89 30q25 0 49 -12l49 -29q18 -13 51 -30q49 -26 78 -84q31 -60 31 -121q0 -169 -162 -236q-44 -20 -78 -20zM205 1446q0 -19 2 -29q4 -18 14 -26q13 -13 37 -13q35 0 88 29q49 30 76 76q29 53 29 90
q0 46 -33 69q-31 25 -53 25q-14 0 -27 -10q-10 -6 -27 -23q-10 -10 -10 -22q0 -8 4 -10q4 -8 4 -15q0 -17 -16 -43q-22 -25 -45 -33q-43 -18 -43 -65z" />
    <glyph glyph-name="guillemotright" unicode="&#xbb;" horiz-adv-x="1343" 
d="M616 487q-24 3 -32 15q-9 9 -9 35q0 18 9 30q8 16 32 29q28 21 76 43q52 27 123 57q86 36 129 52q151 50 160 53q62 25 74 35q18 13 22 28q0 68 -360 422q-122 119 -185 189q-55 61 -55 92q0 32 51 51q35 24 66 24q69 0 98 -45q25 -41 51 -116q15 -50 187 -316
q168 -244 168 -293q0 -38 -13 -61q-12 -22 -57 -39q-55 -23 -137 -47q-149 -50 -248 -107q-103 -59 -117 -106q-13 -25 -33 -25zM63 643q0 28 21 49q17 14 174 76q154 53 248 100q106 52 106 70q0 49 -272 227q-131 90 -158 117q-28 25 -28 53q0 44 49 74q54 31 92 31
q33 0 67 -37q33 -36 33 -70q0 -85 152 -260q92 -109 92 -145q0 -26 -31 -51q-44 -31 -94 -54q-282 -141 -336 -192q-41 -41 -67 -41q-18 0 -31 16q-17 17 -17 37z" />
    <glyph glyph-name="onequarter" unicode="&#xbc;" horiz-adv-x="1726" 
d="M242 668q-34 0 -58 30q-20 47 -20 154q0 91 16 184q16 94 84 361q96 387 96 497v35q0 4 -1 11.5t-1 11.5q-1 4 -2 17.5t-2 19.5q0 18 6 30q41 66 121 66q97 0 103 -76q0 -31 -31 -76q-26 -31 -80 -161q-36 -93 -88 -265q-39 -125 -63 -254q-35 -244 -35 -346q0 -36 6 -71
l18 -62q8 -24 8 -43q0 -17 -18 -35q-28 -28 -59 -28zM293 88q0 144 127 422q125 268 387 717l184 323q68 120 86 160q23 51 23 64q0 8 -4 20t-4 21q0 36 28 81q40 66 109 66q50 0 80 -37q28 -35 28 -78q0 -47 -37 -84t-96 -37q-16 0 -30 -14q-28 -28 -46 -57
q-38 -55 -79 -121q-385 -609 -539 -979q-33 -83 -74 -231q-35 -137 -35 -183q0 -30 9 -39q8 -11 34 -14q26 -6 33 -16q10 -10 10 -31q0 -24 -18 -51q-23 -29 -39 -29q-12 0 -33 -8h-8q-96 0 -96 135zM758 295q0 82 8 178q10 110 10 156q0 58 -8 82q-8 19 -8 39q0 52 37 86
q35 32 84 32q40 0 75 -28q37 -27 37 -64q0 -34 -37 -80q-13 -19 -53 -135q-30 -95 -63 -219q-29 -122 -29 -145q0 -60 51 -60q71 0 242 107q77 45 98 69q33 29 55 90q30 84 54 177q32 117 32 202l-2 78q0 49 15 76q16 28 53 49q47 29 78 29q32 0 53 -27q23 -26 23 -49
q0 -22 -33 -86q-38 -72 -96 -229q-74 -178 -84 -222q0 -4 4 -4q5 0 26 9q26 11 43 16q21 8 43 8q66 0 66 -59q0 -45 -62 -60q-110 -27 -161 -63q-31 -25 -88 -228q-52 -201 -52 -233q0 -19 23 -35q22 -25 22 -49q0 -37 -38 -72q-40 -34 -76 -34q-72 0 -72 73q0 74 102 381
q35 110 35 117q0 2 -2 2t-63 -23q-154 -64 -242 -73q-17 0 -33 8q-67 49 -67 213z" />
    <glyph glyph-name="onehalf" unicode="&#xbd;" horiz-adv-x="1712" 
d="M242 815q-33 0 -58 31q-20 47 -20 153q0 92 16 185q15 91 84 360q96 387 96 498v35q0 4 -1 11t-1 11q-1 4 -2 17.5t-2 19.5q0 19 6 31q41 65 121 65q97 0 103 -75q0 -31 -31 -76q-26 -30 -80 -162q-37 -97 -88 -264q-39 -125 -63 -254q-35 -244 -35 -346q0 -37 6 -72
l18 -61q8 -24 8 -43q0 -17 -18 -35q-29 -29 -59 -29zM223 88q0 144 127 422q125 268 387 717l185 323q68 120 86 160q22 49 22 64q0 8 -4 20t-4 21q0 34 29 81q40 66 108 66q50 0 80 -37q29 -36 29 -78q0 -47 -37 -84t-96 -37q-17 0 -31 -14q-25 -25 -45 -57
q-48 -70 -80 -121q-385 -609 -539 -979q-29 -74 -73 -231q-35 -137 -35 -183q0 -31 8 -39q8 -11 35 -14q26 -6 33 -16q10 -10 10 -31q0 -22 -19 -51q-23 -29 -39 -29q-11 0 -32 -8h-9q-96 0 -96 135zM641 715q0 71 133 166q120 86 283 141q110 39 219 39q272 0 272 -170
q0 -88 -100 -223q-81 -118 -320 -357q-127 -127 -251 -260q-91 -101 -91 -133q0 -29 54 -29q106 0 274 54q80 30 113 30q32 0 53 -24q12 -15 12 -35q0 -87 -229 -121q-103 -14 -162 -14l-45 2q-92 12 -104 22q-13 10 -23 33q-22 37 -22 64q0 58 233 297q282 279 414 432
q129 150 129 229q0 98 -174 98q-198 0 -373 -106q-75 -47 -78 -72q0 -9 21 -24q41 -33 41 -76q0 -44 -54 -62q-30 -10 -59 -10q-70 0 -131 43q-35 27 -35 66z" />
    <glyph glyph-name="threequarters" unicode="&#xbe;" horiz-adv-x="2029" 
d="M221 762q-21 0 -39 18t-18 33q0 24 45 57q46 34 153 95q345 200 345 311q0 26 -27 53q-22 22 -102 66q-80 42 -113 78q-37 40 -37 94q0 71 115 284q67 125 67 152q0 18 -16 18q-32 0 -74 -22q-39 -20 -71 -49q-33 -26 -33 -43q0 -11 12 -23l21 -26q6 -12 6 -25
q0 -33 -35 -57q-37 -27 -92 -27q-60 6 -105 37q-45 29 -45 74q0 17 47 67q47 47 105 96q70 55 100 70q93 40 203 43q41 0 63 -31q19 -32 19 -67q0 -87 -131 -273q-92 -142 -92 -182q0 -29 28 -51q32 -25 84 -49q84 -40 119 -78q33 -39 33 -92q0 -58 -19 -101t-67 -94
q-60 -60 -150 -135q-124 -103 -190 -152q-90 -69 -109 -69zM543 88q0 144 127 422q125 268 387 717l184 323q68 120 86 160q23 51 23 64q0 8 -4 20q-5 15 -5 21q0 34 29 81q40 66 109 66q50 0 80 -37q28 -35 28 -78q0 -47 -37 -84t-96 -37q-17 0 -31 -14q-25 -25 -45 -57
q-48 -70 -80 -121q-382 -604 -538 -979q-33 -83 -74 -231q-35 -137 -35 -183q0 -31 8 -39q8 -11 35 -14q26 -6 33 -16q10 -10 10 -31q0 -24 -18 -51q-23 -29 -39 -29q-12 0 -33 -8h-8q-96 0 -96 135zM1061 412q0 82 8 178q10 110 10 155q0 58 -8 82q-8 19 -8 39q0 52 37 86
q36 33 84 33q40 0 76 -29q36 -26 36 -63q0 -35 -36 -80q-15 -22 -54 -135q-30 -95 -63 -219q-29 -122 -29 -146q0 -59 51 -59q73 0 242 106q75 44 98 70q34 30 56 90q28 77 53 176q33 121 33 203l-2 78q0 51 14 76q16 28 53 49q45 28 78 28t53 -26q23 -26 23 -49
q0 -22 -33 -86q-37 -69 -96 -230q-74 -179 -84 -221q0 -4 4 -4q7 0 26 8q33 14 43 17q21 8 43 8q66 0 66 -60q0 -44 -61 -59q-112 -27 -162 -63q-31 -25 -88 -228q-51 -197 -51 -233q0 -19 22 -35q23 -26 23 -49q0 -36 -39 -72q-41 -35 -76 -35q-72 0 -72 74q0 70 103 381
q34 106 34 117q0 2 -2 2t-63 -23q-157 -65 -242 -74q-15 0 -33 9q-67 49 -67 213z" />
    <glyph glyph-name="questiondown" unicode="&#xbf;" horiz-adv-x="1761" 
d="M1446 2353q-50 0 -80 27q-31 25 -31 43q0 24 43 61q44 35 95 35q50 -6 69 -22q23 -14 23 -54q0 -47 -39 -67q-44 -23 -80 -23zM176 154q6 98 51 202q44 102 183 295q145 198 411 523q308 378 398 497q191 268 215 404q0 24 -41 36q-50 18 -50 64q0 47 68 47q46 -3 82 -31
q33 -26 33 -75q0 -88 -150 -297q-157 -219 -514 -654q-293 -359 -403 -506q-238 -321 -238 -450q0 -80 105 -92h10q104 0 293 92q175 83 385 250q168 143 301 315q136 170 139 221q0 15 -43 33q-51 29 -51 72q3 35 41 63q43 19 86 19q69 0 119 -29q43 -30 43 -82
q0 -101 -162 -299q-246 -299 -569 -510q-358 -233 -609 -233q-42 0 -59 10q-18 11 -37 35q-37 43 -37 80z" />
    <glyph glyph-name="Agrave" unicode="&#xc0;" horiz-adv-x="2230" 
d="M1825 -385q-30 0 -53 57q-73 122 -76 475q0 292 82 988q-13 5 -31 16q-20 8 -113 25q-87 18 -171 32t-169.5 25.5t-109.5 15.5l-13 2l-24 -6q-24 -16 -60 -71q-212 -324 -331 -572q-101 -206 -101 -283q0 -12 17 -32q22 -31 22 -60q0 -28 -14 -39q-12 -12 -31 -12
q-59 0 -71 113q0 103 90 278q78 157 274 463q123 188 123 217v2h-88q-761 -41 -1081 -274l-37 -27q12 -27 32 -57q15 -18 15 -37q0 -36 -43 -51q-76 25 -82 96q0 43 10 76q44 130 381 229q358 108 789 117l81 2q21 0 62 -8q9 0 26 20q12 12 56 70q29 38 98 141
q303 445 436 666q127 208 133 272q2 17 33 56q24 35 60 63t55 31l2 -2q33 0 39 -64q0 -37 -2 -41q-37 -146 -88 -477q-18 -114 -125 -858q209 -74 327 -160q111 -83 123 -192q0 -50 -10 -88q-9 -33 -41 -33q-62 0 -80 129q-15 96 -114 166q-101 69 -205 102
q-31 -245 -51 -510q-7 -182 -7 -303q0 -443 89 -543q30 -38 30 -65l-2 -6q0 -27 -18 -51q-19 -22 -39 -25zM1180 1313q175 -12 608 -103l6 29q39 182 113 784q22 193 22 279q0 22 -2 22q-23 -11 -151 -182q-106 -138 -299 -405q-152 -209 -297 -424zM1884 3439q0 30 27 51
q25 22 53 22q20 0 37 -14q14 -14 14 -43q0 -14 -8 -25q-8 -16 -8 -24q0 -26 19.5 -73.5t117.5 -261.5q54 -118 88 -194q8 -18 20.5 -30.5t20.5 -18t8 -8.5q0 -16 -18 -31q-17 -14 -37 -14q-15 0 -23 8q-10 10 -55 123q-80 207 -120.5 306.5t-55 127t-27.5 37.5
q-39 31 -41 31q-5 0 -8 8q-4 6 -4 23z" />
    <glyph glyph-name="Aacute" unicode="&#xc1;" horiz-adv-x="2230" 
d="M1825 -385q-30 0 -53 57q-73 122 -76 475q0 292 82 988q-13 5 -31 16q-20 8 -113 25q-87 18 -171 32t-169.5 25.5t-109.5 15.5l-13 2l-24 -6q-24 -16 -60 -71q-212 -324 -331 -572q-101 -206 -101 -283q0 -12 17 -32q22 -31 22 -60q0 -28 -14 -39q-12 -12 -31 -12
q-59 0 -71 113q0 103 90 278q78 157 274 463q123 188 123 217v2h-88q-761 -41 -1081 -274l-37 -27q12 -27 32 -57q15 -18 15 -37q0 -36 -43 -51q-76 25 -82 96q0 43 10 76q44 130 381 229q358 108 789 117l81 2q21 0 62 -8q9 0 26 20q12 12 56 70q29 38 98 141
q303 445 436 666q127 208 133 272q2 17 33 56q24 35 60 63t55 31l2 -2q33 0 39 -64q0 -37 -2 -41q-37 -146 -88 -477q-18 -114 -125 -858q209 -74 327 -160q111 -83 123 -192q0 -50 -10 -88q-9 -33 -41 -33q-62 0 -80 129q-15 96 -114 166q-101 69 -205 102
q-31 -245 -51 -510q-7 -182 -7 -303q0 -443 89 -543q30 -38 30 -65l-2 -6q0 -27 -18 -51q-19 -22 -39 -25zM1180 1313q175 -12 608 -103l6 29q39 182 113 784q22 193 22 279q0 22 -2 22q-23 -11 -151 -182q-106 -138 -299 -405q-152 -209 -297 -424zM1980 2906q0 25 31 47
q25 15 166 164t195 221q34 43 63 43q14 0 25 -8q12 -9 12 -22q0 -23 -45 -52q-62 -47 -191 -182.5t-129 -157.5q0 -7 7 -18q6 -9 6 -25q0 -26 -25 -45q-22 -16 -47 -20q-23 0 -45 14q-23 16 -23 41z" />
    <glyph glyph-name="Acircumflex" unicode="&#xc2;" horiz-adv-x="2230" 
d="M1825 -385q-30 0 -53 57q-73 122 -76 475q0 292 82 988q-13 5 -31 16q-20 8 -113 25q-87 18 -171 32t-169.5 25.5t-109.5 15.5l-13 2l-24 -6q-24 -16 -60 -71q-212 -324 -331 -572q-101 -206 -101 -283q0 -12 17 -32q22 -31 22 -60q0 -28 -14 -39q-12 -12 -31 -12
q-59 0 -71 113q0 103 90 278q78 157 274 463q123 188 123 217v2h-88q-761 -41 -1081 -274l-37 -27q12 -27 32 -57q15 -18 15 -37q0 -36 -43 -51q-76 25 -82 96q0 43 10 76q44 130 381 229q358 108 789 117l81 2q21 0 62 -8q9 0 26 20q12 12 56 70q29 38 98 141
q303 445 436 666q127 208 133 272q2 17 33 56q24 35 60 63t55 31l2 -2q33 0 39 -64q0 -37 -2 -41q-37 -146 -88 -477q-18 -114 -125 -858q209 -74 327 -160q111 -83 123 -192q0 -50 -10 -88q-9 -33 -41 -33q-62 0 -80 129q-15 96 -114 166q-101 69 -205 102
q-31 -245 -51 -510q-7 -182 -7 -303q0 -443 89 -543q30 -38 30 -65l-2 -6q0 -27 -18 -51q-19 -22 -39 -25zM1180 1313q175 -12 608 -103l6 29q39 182 113 784q22 193 22 279q0 22 -2 22q-23 -11 -151 -182q-106 -138 -299 -405q-152 -209 -297 -424zM1794 2857q0 25 41 90
q38 56 172.5 216t153.5 179q53 56 90 56q13 0 24 -7q34 -29 37 -122q3 -146 8 -224.5t10 -99t13 -27.5q20 -17 20 -36q0 -33 -45 -33q-32 0 -41 24q-10 27 -10 369q0 100 -10 100q-6 0 -25 -16q-24 -24 -68 -73.5t-101 -118t-97.5 -134.5t-40.5 -100q0 -53 -41 -74
q-24 -12 -39 -12q-17 0 -35 12q-16 13 -16 31z" />
    <glyph glyph-name="Atilde" unicode="&#xc3;" horiz-adv-x="2230" 
d="M1825 -385q-30 0 -53 57q-73 122 -76 475q0 292 82 988q-13 5 -31 16q-20 8 -113 25q-87 18 -171 32t-169.5 25.5t-109.5 15.5l-13 2l-24 -6q-24 -16 -60 -71q-212 -324 -331 -572q-101 -206 -101 -283q0 -12 17 -32q22 -31 22 -60q0 -28 -14 -39q-12 -12 -31 -12
q-59 0 -71 113q0 103 90 278q78 157 274 463q123 188 123 217v2h-88q-761 -41 -1081 -274l-37 -27q12 -27 32 -57q15 -18 15 -37q0 -36 -43 -51q-76 25 -82 96q0 43 10 76q44 130 381 229q358 108 789 117l81 2q21 0 62 -8q9 0 26 20q12 12 56 70q29 38 98 141
q303 445 436 666q127 208 133 272q2 17 33 56q24 35 60 63t55 31l2 -2q33 0 39 -64q0 -37 -2 -41q-37 -146 -88 -477q-18 -114 -125 -858q209 -74 327 -160q111 -83 123 -192q0 -50 -10 -88q-9 -33 -41 -33q-62 0 -80 129q-15 96 -114 166q-101 69 -205 102
q-31 -245 -51 -510q-7 -182 -7 -303q0 -443 89 -543q30 -38 30 -65l-2 -6q0 -27 -18 -51q-19 -22 -39 -25zM1180 1313q175 -12 608 -103l6 29q39 182 113 784q22 193 22 279q0 22 -2 22q-23 -11 -151 -182q-106 -138 -299 -405q-152 -209 -297 -424zM1757 3019q0 6 8 104
q10 77 113 80q81 0 307 -119q101 -55 123 -55q4 0 4 4q0 2 -1.5 4.5t-5.5 6.5l-7.5 7.5t-11 10.5t-13.5 12q-51 51 -51 86q0 13 21 41q20 20 49 33q22 14 47 14q42 0 84 -37q51 -34 51 -73q0 -17 -14 -64q-9 -58 -47 -100q-27 -37 -64 -37q-28 0 -209 100q-177 100 -309 115
q41 -71 41 -111q0 -71 -60 -71q-55 6 -55 49z" />
    <glyph glyph-name="Adieresis" unicode="&#xc4;" horiz-adv-x="2230" 
d="M1825 -385q-30 0 -53 57q-73 122 -76 475q0 292 82 988q-13 5 -31 16q-20 8 -113 25q-87 18 -171 32t-169.5 25.5t-109.5 15.5l-13 2l-24 -6q-24 -16 -60 -71q-212 -324 -331 -572q-101 -206 -101 -283q0 -12 17 -32q22 -31 22 -60q0 -28 -14 -39q-12 -12 -31 -12
q-59 0 -71 113q0 103 90 278q78 157 274 463q123 188 123 217v2h-88q-761 -41 -1081 -274l-37 -27q12 -27 32 -57q15 -18 15 -37q0 -36 -43 -51q-76 25 -82 96q0 43 10 76q44 130 381 229q358 108 789 117l81 2q21 0 62 -8q9 0 26 20q12 12 56 70q29 38 98 141
q303 445 436 666q127 208 133 272q2 17 33 56q24 35 60 63t55 31l2 -2q33 0 39 -64q0 -37 -2 -41q-37 -146 -88 -477q-18 -114 -125 -858q209 -74 327 -160q111 -83 123 -192q0 -50 -10 -88q-9 -33 -41 -33q-62 0 -80 129q-15 96 -114 166q-101 69 -205 102
q-31 -245 -51 -510q-7 -182 -7 -303q0 -443 89 -543q30 -38 30 -65l-2 -6q0 -27 -18 -51q-19 -22 -39 -25zM1180 1313q175 -12 608 -103l6 29q39 182 113 784q22 193 22 279q0 22 -2 22q-23 -11 -151 -182q-106 -138 -299 -405q-152 -209 -297 -424zM1708 2970q0 38 41 88
q44 41 104 41q38 0 74 -25q33 -26 33 -59q0 -45 -57 -90q-52 -37 -109 -37q-36 0 -65 26q-21 27 -21 56zM2193 2990q0 39 43 88q41 41 103 41q47 0 74 -24q34 -27 34 -60q0 -46 -59 -90q-56 -37 -107 -37q-38 0 -65 27q-23 30 -23 55z" />
    <glyph glyph-name="Aring" unicode="&#xc5;" horiz-adv-x="2230" 
d="M1825 -385q-30 0 -53 57q-73 122 -76 475q0 292 82 988q-13 5 -31 16q-20 8 -113 25q-87 18 -171 32t-169.5 25.5t-109.5 15.5l-13 2l-24 -6q-24 -16 -60 -71q-212 -324 -331 -572q-101 -206 -101 -283q0 -12 17 -32q22 -31 22 -60q0 -28 -14 -39q-12 -12 -31 -12
q-59 0 -71 113q0 103 90 278q78 157 274 463q123 188 123 217v2h-88q-761 -41 -1081 -274l-37 -27q12 -27 32 -57q15 -18 15 -37q0 -36 -43 -51q-76 25 -82 96q0 43 10 76q44 130 381 229q358 108 789 117l81 2q21 0 62 -8q9 0 26 20q12 12 56 70q29 38 98 141
q303 445 436 666q127 208 133 272q2 17 33 56q24 35 60 63t55 31l2 -2q33 0 39 -64q0 -37 -2 -41q-37 -146 -88 -477q-18 -114 -125 -858q209 -74 327 -160q111 -83 123 -192q0 -50 -10 -88q-9 -33 -41 -33q-62 0 -80 129q-15 96 -114 166q-101 69 -205 102
q-31 -245 -51 -510q-7 -182 -7 -303q0 -443 89 -543q30 -38 30 -65l-2 -6q0 -27 -18 -51q-19 -22 -39 -25zM1180 1313q175 -12 608 -103l6 29q39 182 113 784q22 193 22 279q0 22 -2 22q-23 -11 -151 -182q-106 -138 -299 -405q-152 -209 -297 -424zM1769 3148
q0 171 265 233q115 35 180 35q57 0 113 -37q59 -46 59 -125q-21 -121 -109 -209q-92 -86 -188 -100h-27q-45 0 -94 25q-59 29 -86 45q-38 20 -41 20q-2 0 -26 17q-3 6 -15 21t-16 24q-15 24 -15 51zM1966 3219q-15 -26 -17.5 -56.5t8.5 -59t44 -47.5t84 -19q48 0 133 64
q127 90 127 174q0 28 -27 45q-41 18 -71 18q-125 0 -182.5 -24.5t-98.5 -94.5z" />
    <glyph glyph-name="AE" unicode="&#xc6;" horiz-adv-x="4589" 
d="M2267 950q132 273 266 490q122 196 363 532q30 39 55 73.5t66 92.5t73 103q-28 -17 -204 -173q-37 -33 -130 -117.5t-172 -156t-155 -143.5q-78 -72 -220.5 -211.5t-333 -328.5t-194.5 -193q35 -9 242.5 -33.5t298.5 -50.5q35 78 45 116zM-131 723q9 54 29 88
q79 146 518 193q437 48 997 -31l100 -15q15 -2 76 -22q13 -3 210.5 186t348.5 342q428 423 680 697q209 229 224 295q5 20 53 61q104 84 162 84l2 -2q24 -3 30 -39l4 8q26 60 54 84q26 23 67 23q70 0 97 -37q28 -42 28 -80q-3 -39 -31 -61q-28 -25 -73 -25q-44 0 -66 -16
q-27 -23 -63 -70q-72 -81 -72 -94l6 -4q18 0 76 12q333 50 522 74q211 24 385 24q233 0 340 -37q105 -41 105 -127q-3 -60 -27 -94q-27 -35 -59 -35q-50 0 -50 64q3 18 15 39q8 13 8 26q0 80 -502 80q-221 0 -424 -30q-185 -27 -497 -99q-233 -305 -387 -512
q-281 -392 -435 -719q-32 -60 -32 -75q7 0 9.5 -2.5t2.5 -6t0.5 -6t7 -2.5t19.5 4q708 183 1036 156q132 -18 205 -66q56 -39 53 -88q-1 -29 -14 -42t-37 -11q-41 3 -82 53q-22 25 -37 33q-8 7 -51 14q-37 3 -58 9q-22 0 -69 6q-204 18 -482 -23q-269 -40 -503 -121l-19 -10
q3 1 3 0t-7 -6q-32 -22 -53 -63q-17 -33 -47 -121q-78 -233 -84 -414q0 -417 446 -432q264 0 660 174q420 185 946 483q268 146 295 146q47 -12 47 -60q0 -16 -8 -24q-23 -26 -228 -129q-238 -123 -456 -226q-241 -113 -437 -196q-539 -238 -794 -227l-51 2
q-347 15 -428 368q-11 71 -11 139q6 175 25 263q6 30 45 163q10 25 30 75.5t29 70.5q-88 25 -285.5 47.5t-232.5 32.5l-14 4q-8 0 -18.5 -1t-12.5 -1q-25 -5 -90 -74q-339 -348 -528 -606q-171 -219 -187 -314q-3 -13 13 -40q22 -40 16 -78q-11 -58 -66 -49q-75 12 -63 147
q17 120 168 311q186 230 436 490q195 198 201 235q-264 44 -379 52q-744 47 -1122 -127l-54 -25q5 -13 12 -29.5t11 -27t8 -17.5q14 -22 10 -47q-12 -42 -63 -53q-85 45 -82 131z" />
    <glyph glyph-name="Ccedilla" unicode="&#xc7;" horiz-adv-x="2441" 
d="M528 -938q-76 37 -157 211q-6 14 -14.5 30.5t-13 24.5t-9 19.5t-3.5 16.5l3 15q19 25 37 17q3 -2 5.5 -4.5t5 -6.5t4 -8t4 -11t4 -11t4.5 -14t5 -15q66 -196 144 -239q18 -11 33 -11q20 -3 20 4q9 12 6 56q-6 41 -20 80q-7 25 -38 98t-40 82q-18 18 -21 33q0 17 11 36
q3 5 57.5 127t77.5 162l20 39q-142 6 -247 60q-201 97 -293 262q-93 162 -93 405q0 170 35 316q131 415 477 823q310 343 701 600q393 258 598 258q43 -3 70 -12q26 -9 55 -41q26 -29 26 -86q0 -114 -36 -230q-37 -106 -154 -282q-131 -194 -326 -404q-201 -214 -374 -346
q-183 -143 -277 -143q-104 0 -104 76q0 35 28 57q24 19 111 55q205 81 547 426q326 320 458 590q66 126 66 178q0 76 -106 76q-176 0 -517 -209q-341 -207 -643 -512q-397 -415 -561 -883q-16 -50 -26 -94q-10 -47 -13 -90q-4 -70 -4 -141q0 -172 15 -219q7 -30 24 -66
q111 -224 367 -330q56 -22 102 -28q66 -4 133 -4q6 6 17 6q6 2 18 -6q169 3 324 63q162 59 383 207q246 167 493 381q289 247 426 401q97 109 141 109q18 0 29 -17q14 -14 14 -34q0 -48 -145 -181q-241 -229 -541 -458q-304 -228 -520 -349q-321 -164 -577 -182
q0 -16 -6 -28q0 -1 -17 -23.5t-40 -56.5t-48 -74.5t-47 -88.5t-31 -87q4 -13 23.5 -74t33.5 -110.5t15 -65.5q6 -50 -21 -98q-34 -58 -88 -27z" />
    <glyph glyph-name="Egrave" unicode="&#xc8;" horiz-adv-x="2600" 
d="M512 -317q-346 15 -428 368q-12 59 -12 139q6 181 24 263q22 84 47 163h-47q-8 -2 -20 -2q-139 6 -139 82q0 32 24 56q19 22 62 28q128 20 184 54q27 24 106 190q94 194 232 416q121 198 360 532q105 132 105 160q0 10 -11 10q-24 0 -110 -28q-323 -104 -475 -232
q-70 -67 -123 -67q-47 3 -88 36q-45 36 -45 74q3 59 102 82q613 188 852 248l57 80q109 148 146 233q24 55 53 84q23 23 68 23q70 -3 96 -39q29 -40 29 -78q-3 -36 -31 -61t-72 -25h-22q-28 0 -47 -16q-24 -20 -62 -70q-72 -81 -72 -94l7 -4q16 0 75 12q341 52 521 72
q204 26 385 26q233 0 337 -37q109 -41 109 -125q0 -54 -27 -96q-27 -35 -61 -35q-20 0 -33 19q-14 14 -14 45q4 25 12 39q10 17 10 26q0 80 -503 80q-219 0 -424 -30q-187 -28 -496 -99q-290 -378 -387 -512q-261 -361 -434 -719q-33 -62 -33 -75h6q31 0 101 28
q694 246 1017 246q142 -6 211 -47q62 -38 62 -84q0 -15 -15 -45q-9 -12 -32 -12q-41 0 -86 45q-39 39 -97 39q-82 4 -123 4q-212 0 -479 -66q-280 -67 -489 -162q-72 -34 -99 -55q-36 -25 -53 -63q-17 -33 -47 -121q-78 -233 -84 -414q0 -417 445 -432q265 0 661 174
q420 185 946 483q268 146 295 146q22 -6 35 -23q12 -18 12 -37q0 -16 -8 -24q-23 -23 -227 -129q-228 -118 -457 -226q-249 -117 -436 -196q-539 -238 -795 -227zM1872 3404q0 31 26 51q26 23 54 23q18 0 37 -15q14 -14 14 -43q0 -13 -8 -24q-8 -16 -8 -25q0 -25 21.5 -77
t108.5 -243q58 -126 95 -208q8 -18 20.5 -30.5t20.5 -18.5t8 -9q0 -15 -18 -30t-37 -15q-15 0 -23 8q-10 10 -55 123q-80 207 -120.5 306.5t-55 127t-27.5 37.5q-39 31 -41 31q-5 0 -8 8q-4 6 -4 23z" />
    <glyph glyph-name="Eacute" unicode="&#xc9;" horiz-adv-x="2600" 
d="M512 -317q-346 15 -428 368q-12 59 -12 139q6 181 24 263q22 84 47 163h-47q-8 -2 -20 -2q-139 6 -139 82q0 32 24 56q19 22 62 28q128 20 184 54q27 24 106 190q94 194 232 416q121 198 360 532q105 132 105 160q0 10 -11 10q-24 0 -110 -28q-323 -104 -475 -232
q-70 -67 -123 -67q-47 3 -88 36q-45 36 -45 74q3 59 102 82q613 188 852 248l57 80q109 148 146 233q24 55 53 84q23 23 68 23q70 -3 96 -39q29 -40 29 -78q-3 -36 -31 -61t-72 -25h-22q-28 0 -47 -16q-24 -20 -62 -70q-72 -81 -72 -94l7 -4q16 0 75 12q341 52 521 72
q204 26 385 26q233 0 337 -37q109 -41 109 -125q0 -54 -27 -96q-27 -35 -61 -35q-20 0 -33 19q-14 14 -14 45q4 25 12 39q10 17 10 26q0 80 -503 80q-219 0 -424 -30q-187 -28 -496 -99q-290 -378 -387 -512q-261 -361 -434 -719q-33 -62 -33 -75h6q31 0 101 28
q694 246 1017 246q142 -6 211 -47q62 -38 62 -84q0 -15 -15 -45q-9 -12 -32 -12q-41 0 -86 45q-39 39 -97 39q-82 4 -123 4q-212 0 -479 -66q-280 -67 -489 -162q-72 -34 -99 -55q-36 -25 -53 -63q-17 -33 -47 -121q-78 -233 -84 -414q0 -417 445 -432q265 0 661 174
q420 185 946 483q268 146 295 146q22 -6 35 -23q12 -18 12 -37q0 -16 -8 -24q-23 -23 -227 -129q-228 -118 -457 -226q-249 -117 -436 -196q-539 -238 -795 -227zM1968 2871q0 25 31 47q25 14 165.5 163t194.5 222q34 43 64 43q13 0 24 -8q13 -10 13 -22q0 -22 -45 -51
q-62 -47 -191 -182.5t-129 -157.5q0 -10 6 -19t6 -24q0 -28 -24 -46q-22 -16 -47 -20q-23 0 -45 14q-23 16 -23 41z" />
    <glyph glyph-name="Ecircumflex" unicode="&#xca;" horiz-adv-x="2600" 
d="M512 -317q-346 15 -428 368q-12 59 -12 139q6 181 24 263q22 84 47 163h-47q-8 -2 -20 -2q-139 6 -139 82q0 32 24 56q19 22 62 28q128 20 184 54q27 24 106 190q94 194 232 416q121 198 360 532q105 132 105 160q0 10 -11 10q-24 0 -110 -28q-323 -104 -475 -232
q-70 -67 -123 -67q-47 3 -88 36q-45 36 -45 74q3 59 102 82q613 188 852 248l57 80q109 148 146 233q24 55 53 84q23 23 68 23q70 -3 96 -39q29 -40 29 -78q-3 -36 -31 -61t-72 -25h-22q-28 0 -47 -16q-24 -20 -62 -70q-72 -81 -72 -94l7 -4q16 0 75 12q341 52 521 72
q204 26 385 26q233 0 337 -37q109 -41 109 -125q0 -54 -27 -96q-27 -35 -61 -35q-20 0 -33 19q-14 14 -14 45q4 25 12 39q10 17 10 26q0 80 -503 80q-219 0 -424 -30q-187 -28 -496 -99q-290 -378 -387 -512q-261 -361 -434 -719q-33 -62 -33 -75h6q31 0 101 28
q694 246 1017 246q142 -6 211 -47q62 -38 62 -84q0 -15 -15 -45q-9 -12 -32 -12q-41 0 -86 45q-39 39 -97 39q-82 4 -123 4q-212 0 -479 -66q-280 -67 -489 -162q-72 -34 -99 -55q-36 -25 -53 -63q-17 -33 -47 -121q-78 -233 -84 -414q0 -417 445 -432q265 0 661 174
q420 185 946 483q268 146 295 146q22 -6 35 -23q12 -18 12 -37q0 -16 -8 -24q-23 -23 -227 -129q-228 -118 -457 -226q-249 -117 -436 -196q-539 -238 -795 -227zM1782 2822q0 25 41 90q38 56 172 216.5t153 179.5q52 55 90 55q16 0 25 -6q34 -29 37 -123q3 -146 8 -224
t10 -98.5t13 -27.5q20 -17 20 -37q0 -33 -45 -33q-32 0 -41 25q-10 27 -10 368q0 101 -10 101q-5 0 -25 -17q-24 -24 -68 -73.5t-101 -118t-97.5 -134.5t-40.5 -100q0 -53 -41 -74q-24 -12 -39 -12q-17 0 -35 12q-16 13 -16 31z" />
    <glyph glyph-name="Edieresis" unicode="&#xcb;" horiz-adv-x="2600" 
d="M512 -317q-346 15 -428 368q-12 59 -12 139q6 181 24 263q22 84 47 163h-47q-8 -2 -20 -2q-139 6 -139 82q0 32 24 56q19 22 62 28q128 20 184 54q27 24 106 190q94 194 232 416q121 198 360 532q105 132 105 160q0 10 -11 10q-24 0 -110 -28q-323 -104 -475 -232
q-70 -67 -123 -67q-47 3 -88 36q-45 36 -45 74q3 59 102 82q613 188 852 248l57 80q109 148 146 233q24 55 53 84q23 23 68 23q70 -3 96 -39q29 -40 29 -78q-3 -36 -31 -61t-72 -25h-22q-28 0 -47 -16q-24 -20 -62 -70q-72 -81 -72 -94l7 -4q16 0 75 12q341 52 521 72
q204 26 385 26q233 0 337 -37q109 -41 109 -125q0 -54 -27 -96q-27 -35 -61 -35q-20 0 -33 19q-14 14 -14 45q4 25 12 39q10 17 10 26q0 80 -503 80q-219 0 -424 -30q-187 -28 -496 -99q-290 -378 -387 -512q-261 -361 -434 -719q-33 -62 -33 -75h6q31 0 101 28
q694 246 1017 246q142 -6 211 -47q62 -38 62 -84q0 -15 -15 -45q-9 -12 -32 -12q-41 0 -86 45q-39 39 -97 39q-82 4 -123 4q-212 0 -479 -66q-280 -67 -489 -162q-72 -34 -99 -55q-36 -25 -53 -63q-17 -33 -47 -121q-78 -233 -84 -414q0 -417 445 -432q265 0 661 174
q420 185 946 483q268 146 295 146q22 -6 35 -23q12 -18 12 -37q0 -16 -8 -24q-23 -23 -227 -129q-228 -118 -457 -226q-249 -117 -436 -196q-539 -238 -795 -227zM1696 2935q0 38 41 88q44 41 104 41q38 0 74 -25q33 -26 33 -59q0 -45 -58 -90q-52 -37 -108 -37
q-37 0 -66 26q-20 26 -20 56zM2181 2955q0 39 43 88q41 41 103 41q46 0 73 -24q35 -28 35 -60q0 -46 -59 -90q-56 -37 -107 -37q-38 0 -65 27q-23 30 -23 55z" />
    <glyph glyph-name="Igrave" unicode="&#xcc;" horiz-adv-x="735" 
d="M78 -346q-20 4 -55 22q-57 23 -78 70q-21 44 -21 158q0 308 221 825q197 451 615 1165q298 512 301 543l-2 2q-2 0 -8 -6q-133 -148 -279 -344q-147 -201 -246 -365q-101 -168 -104 -225q-4 -34 -6 -45q-11 -45 -68 -72q-40 -18 -80 -18q-35 3 -63 25t-31 45
q15 70 320 479q295 391 518 620q114 117 149 129q24 4 37 4q36 -3 39 -43q-3 -50 -59 -145q-95 -167 -269 -444q-433 -690 -653 -1178q-244 -533 -244 -928q0 -74 15 -108q15 -35 53 -43q74 -12 74 -62q0 -49 -76 -61zM1040 3461q0 30 27 51q26 23 53 23q20 0 37 -14
q14 -14 14 -43q0 -14 -8 -25q-8 -16 -8 -25q0 -25 21.5 -77t108.5 -243q58 -126 95 -208q8 -18 20.5 -30.5t21 -18t8.5 -8.5q0 -15 -19 -31q-17 -14 -37 -14q-14 0 -22 8q-12 12 -56 123q-115 300 -149 378t-53 93q-38 30 -41 30q-6 0 -9 9q-4 6 -4 22z" />
    <glyph glyph-name="Iacute" unicode="&#xcd;" horiz-adv-x="735" 
d="M78 -346q-20 4 -55 22q-57 23 -78 70q-21 44 -21 158q0 308 221 825q197 451 615 1165q298 512 301 543l-2 2q-2 0 -8 -6q-133 -148 -279 -344q-147 -201 -246 -365q-101 -168 -104 -225q-4 -34 -6 -45q-11 -45 -68 -72q-40 -18 -80 -18q-35 3 -63 25t-31 45
q15 70 320 479q295 391 518 620q114 117 149 129q24 4 37 4q36 -3 39 -43q-3 -50 -59 -145q-95 -167 -269 -444q-433 -690 -653 -1178q-244 -533 -244 -928q0 -74 15 -108q15 -35 53 -43q74 -12 74 -62q0 -49 -76 -61zM1137 2929q0 26 30 47q25 15 166 164t195 221
q34 43 63 43q14 0 25 -8q12 -9 12 -23q0 -22 -45 -51q-62 -47 -190.5 -182.5t-128.5 -157.5q0 -10 6 -19t6 -24q0 -26 -25 -45q-24 -18 -47 -21q-21 0 -45 15q-22 16 -22 41z" />
    <glyph glyph-name="Icircumflex" unicode="&#xce;" horiz-adv-x="735" 
d="M78 -346q-20 4 -55 22q-57 23 -78 70q-21 44 -21 158q0 308 221 825q197 451 615 1165q298 512 301 543l-2 2q-2 0 -8 -6q-133 -148 -279 -344q-147 -201 -246 -365q-101 -168 -104 -225q-4 -34 -6 -45q-11 -45 -68 -72q-40 -18 -80 -18q-35 3 -63 25t-31 45
q15 70 320 479q295 391 518 620q114 117 149 129q24 4 37 4q36 -3 39 -43q-3 -50 -59 -145q-95 -167 -269 -444q-433 -690 -653 -1178q-244 -533 -244 -928q0 -74 15 -108q15 -35 53 -43q74 -12 74 -62q0 -49 -76 -61zM950 2879q0 26 41 91q38 56 172.5 216t153.5 179
q52 55 90 55q16 0 25 -6q33 -28 36 -123q3 -146 8 -224t10 -98.5t13 -27.5q21 -18 21 -37q0 -33 -45 -33q-32 0 -41 25q-11 29 -11 369q0 100 -10 100q-4 0 -24 -17q-25 -25 -68.5 -73.5t-101 -117.5t-98 -135t-40.5 -100q0 -52 -41 -73q-26 -13 -39 -13q-15 0 -34 13
q-17 14 -17 30z" />
    <glyph glyph-name="Idieresis" unicode="&#xcf;" horiz-adv-x="735" 
d="M78 -346q-20 4 -55 22q-57 23 -78 70q-21 44 -21 158q0 308 221 825q197 451 615 1165q298 512 301 543l-2 2q-2 0 -8 -6q-133 -148 -279 -344q-147 -201 -246 -365q-101 -168 -104 -225q-4 -34 -6 -45q-11 -45 -68 -72q-40 -18 -80 -18q-35 3 -63 25t-31 45
q15 70 320 479q295 391 518 620q114 117 149 129q24 4 37 4q36 -3 39 -43q-3 -50 -59 -145q-95 -167 -269 -444q-433 -690 -653 -1178q-244 -533 -244 -928q0 -74 15 -108q15 -35 53 -43q74 -12 74 -62q0 -49 -76 -61zM864 2992q0 38 41 88q44 41 105 41q38 0 73 -24
q33 -26 33 -60q0 -45 -57 -90q-52 -37 -109 -37q-35 0 -65 27q-21 27 -21 55zM1350 3013q0 39 43 88q41 41 102 41q46 0 74 -25q35 -28 35 -59q0 -45 -60 -90q-56 -37 -106 -37q-40 0 -66 26q-22 28 -22 56z" />
    <glyph glyph-name="Eth" unicode="&#xd0;" horiz-adv-x="2811" 
d="M616 -197q-33 0 -73 19q-41 20 -64 61q-29 57 -24 123l4 64q17 295 465 1054q-104 -3 -183 -24q-80 -25 -112 -25q-26 0 -47 15q-23 16 -23 40q0 49 43 76q43 29 98 29q26 0 50 -6q56 -15 227 -15q161 265 364 574q185 283 185 293q-29 0 -264 -113q-379 -186 -691 -475
q-233 -217 -333 -412q-43 -76 -43 -118t36 -68q35 -27 35 -59t-35 -56t-92 -24t-104 41t-47 86q6 136 139 327q141 203 395 414q288 243 520 363q173 91 607 272q123 215 123 274q0 49 34 76t78 27q50 0 86 -33q39 -33 39 -80q0 -51 -67 -78q-15 -6 -58 -41q-43 -37 -63 -63
q-31 -31 -31 -41v-2q40 4 152 29q272 59 479 59q279 0 444 -107q164 -105 164 -315q0 -232 -203 -573q-198 -338 -569 -721q-366 -372 -678 -561q-307 -183 -483 -183q-129 0 -185 103q-8 13 -8 43q3 103 41 190q43 91 158 209q426 423 938 561q111 27 168 27q50 0 71 -21
q23 -23 23 -39q0 -11 -14 -28q-10 -19 -47 -31q-47 -15 -123 -31q-338 -73 -674 -301q-216 -150 -342 -282q-141 -141 -141 -224q0 -47 43 -77q42 -33 114 -33q211 0 584 262q376 262 725 657q541 643 541 998q0 153 -105 248q-66 59 -133 84q-106 32 -293 32
q-177 0 -414 -47q-299 -62 -356 -98q-60 -48 -244 -320q-191 -282 -372 -594q250 0 280 -10q23 -16 23 -39q0 -21 -19 -43q-22 -22 -51 -22q-24 0 -65 8l-101 12q-58 6 -121 6q-442 -770 -442 -1079q0 -61 14 -86q15 -25 60 -37q63 -21 63 -67q0 -23 -22 -39
q-21 -15 -54 -15z" />
    <glyph glyph-name="Ntilde" unicode="&#xd1;" horiz-adv-x="2764" 
d="M131 -182q-54 0 -98 78q-41 80 -41 143q0 130 137 450q123 295 483 1000q362 705 451 958q46 131 82 176q35 41 112 41q86 0 95 -61q0 -46 -45 -100q-96 -112 -306 -478q-219 -380 -419 -772q-381 -738 -445 -1009q-25 -99 -28 -205q0 -10 4 -10q18 0 84 106l227 373
q698 1176 1192 1722q293 344 385 344q44 0 59 -6q63 -25 72 -166q0 -157 -121 -639q-227 -933 -227 -1243q0 -260 145 -260h10q206 35 605 504q168 198 209 201q18 0 34 -13q14 -11 17 -28q0 -39 -148 -199q-450 -480 -690 -520h-20q-167 0 -179 284l-4 86q-7 143 39.5 403
t147.5 677q51 231 90 422q37 179 37 280q-9 133 -45 133q-36 -6 -150 -114q-116 -110 -258 -283q-548 -625 -1085 -1610q-248 -441 -248 -514l6 -16q0 -30 -16 -59q-16 -28 -41 -44q-55 -32 -95 -32h-14zM1503 2988q0 6 8 104q10 77 113 80q83 0 307 -118q103 -56 123 -56
q4 0 4 4q0 2 -1.5 4.5t-5.5 6.5l-7.5 7.5t-11 10.5t-13.5 12q-51 51 -51 86q0 13 21 41q20 20 49 33q22 14 47 14q43 0 84 -36q51 -34 51 -74q0 -17 -14 -64q-9 -58 -47 -100q-27 -37 -64 -37q-28 0 -209 100q-177 100 -309 115q41 -71 41 -110q0 -72 -59 -72q-56 6 -56 49z
" />
    <glyph glyph-name="Ograve" unicode="&#xd2;" horiz-adv-x="2975" 
d="M1120 -33q-103 0 -155 37q-48 35 -91 115q-21 34 -26 74q-6 41 -6 135q0 158 10 207l14 65q-251 -8 -374 -10q-146 0 -220 14q-86 13 -143 45q-119 43 -119 207q0 133 129 303q125 161 342 332q412 323 979 530l142 52l57 79q216 303 313 388q34 30 82 30q73 0 111 -47
q41 -47 41 -94q0 -85 -115 -88l-61 4q-4 1 -19.5 3.5t-25.5 4.5l-80 -92q-31 -36 -45.5 -52.5t-31 -37t-22.5 -31t-6 -16.5t10 -6q17 0 41 8q27 9 119 12q88 6 189 6q131 0 170 -2q178 -6 348 -96q62 -29 127 -94q87 -87 123 -183q14 -38 14 -153q0 -79 -10 -131
q-8 -44 -31 -105q-44 -111 -98 -198q-61 -93 -144 -203h123q218 0 221 -88q0 -26 -14 -43q-12 -21 -43 -21q-24 0 -43 11q-4 2 -51 16q-50 10 -84 8l-203 -6l-149 -133q-638 -566 -1092 -727q-113 -29 -203 -29zM25 846q0 -72 88 -127q128 -78 362 -78q129 0 318 18l88 9
q120 339 227 563q128 279 346 610q68 109 68 117l-2 2q-18 0 -111 -37q-674 -267 -1094 -653q-278 -254 -290 -424zM895 281q0 -242 233 -242q247 0 676 280q294 194 525 414q84 81 84 94q0 7 -13 7q-79 0 -745 -105q-668 -102 -701 -115q-11 -8 -26 -67q-17 -67 -25 -131
q-8 -65 -8 -135zM975 688q0 -10 10 -10q38 15 96 18q8 1 29 5t64 12.5t81 15.5q962 183 1309 240q164 203 248 352q82 146 82 293q0 209 -195 336q-198 127 -518 127q-124 0 -262 -21q-124 -19 -180 -35q-64 -36 -211 -262q-161 -248 -303 -512q-154 -284 -224 -467
q-26 -68 -26 -92zM2392 3228q0 30 27 51q25 22 53 22q20 0 37 -14q14 -14 14 -43q0 -14 -8 -25q-8 -16 -8 -24q0 -26 19.5 -73.5t117.5 -261.5q54 -118 88 -194q8 -18 20.5 -30.5t20.5 -18t8 -8.5q0 -16 -18 -31q-17 -14 -37 -14q-15 0 -23 8q-10 10 -55 123
q-80 207 -120.5 306.5t-55 127t-27.5 37.5q-39 31 -41 31q-5 0 -8 8q-4 6 -4 23z" />
    <glyph glyph-name="Oacute" unicode="&#xd3;" horiz-adv-x="2975" 
d="M1120 -33q-103 0 -155 37q-48 35 -91 115q-21 34 -26 74q-6 41 -6 135q0 158 10 207l14 65q-251 -8 -374 -10q-146 0 -220 14q-86 13 -143 45q-119 43 -119 207q0 133 129 303q125 161 342 332q412 323 979 530l142 52l57 79q216 303 313 388q34 30 82 30q73 0 111 -47
q41 -47 41 -94q0 -85 -115 -88l-61 4q-4 1 -19.5 3.5t-25.5 4.5l-80 -92q-31 -36 -45.5 -52.5t-31 -37t-22.5 -31t-6 -16.5t10 -6q17 0 41 8q27 9 119 12q88 6 189 6q131 0 170 -2q178 -6 348 -96q62 -29 127 -94q87 -87 123 -183q14 -38 14 -153q0 -79 -10 -131
q-8 -44 -31 -105q-44 -111 -98 -198q-61 -93 -144 -203h123q218 0 221 -88q0 -26 -14 -43q-12 -21 -43 -21q-24 0 -43 11q-4 2 -51 16q-50 10 -84 8l-203 -6l-149 -133q-638 -566 -1092 -727q-113 -29 -203 -29zM25 846q0 -72 88 -127q128 -78 362 -78q129 0 318 18l88 9
q120 339 227 563q128 279 346 610q68 109 68 117l-2 2q-18 0 -111 -37q-674 -267 -1094 -653q-278 -254 -290 -424zM895 281q0 -242 233 -242q247 0 676 280q294 194 525 414q84 81 84 94q0 7 -13 7q-79 0 -745 -105q-668 -102 -701 -115q-11 -8 -26 -67q-17 -67 -25 -131
q-8 -65 -8 -135zM975 688q0 -10 10 -10q38 15 96 18q8 1 29 5t64 12.5t81 15.5q962 183 1309 240q164 203 248 352q82 146 82 293q0 209 -195 336q-198 127 -518 127q-124 0 -262 -21q-124 -19 -180 -35q-64 -36 -211 -262q-161 -248 -303 -512q-154 -284 -224 -467
q-26 -68 -26 -92zM2488 2695q0 25 31 47q25 14 165.5 163t194.5 222q34 43 64 43q14 0 25 -8q12 -9 12 -22q0 -23 -45 -52q-62 -47 -191 -182.5t-129 -157.5q0 -9 6 -18q7 -10 7 -25q0 -26 -25 -45q-22 -16 -47 -20q-23 0 -45 14q-23 16 -23 41z" />
    <glyph glyph-name="Ocircumflex" unicode="&#xd4;" horiz-adv-x="2975" 
d="M1120 -33q-103 0 -155 37q-48 35 -91 115q-21 34 -26 74q-6 41 -6 135q0 158 10 207l14 65q-251 -8 -374 -10q-146 0 -220 14q-86 13 -143 45q-119 43 -119 207q0 133 129 303q125 161 342 332q412 323 979 530l142 52l57 79q216 303 313 388q34 30 82 30q73 0 111 -47
q41 -47 41 -94q0 -85 -115 -88l-61 4q-4 1 -19.5 3.5t-25.5 4.5l-80 -92q-31 -36 -45.5 -52.5t-31 -37t-22.5 -31t-6 -16.5t10 -6q17 0 41 8q27 9 119 12q88 6 189 6q131 0 170 -2q178 -6 348 -96q62 -29 127 -94q87 -87 123 -183q14 -38 14 -153q0 -79 -10 -131
q-8 -44 -31 -105q-44 -111 -98 -198q-61 -93 -144 -203h123q218 0 221 -88q0 -26 -14 -43q-12 -21 -43 -21q-24 0 -43 11q-4 2 -51 16q-50 10 -84 8l-203 -6l-149 -133q-638 -566 -1092 -727q-113 -29 -203 -29zM25 846q0 -72 88 -127q128 -78 362 -78q129 0 318 18l88 9
q120 339 227 563q128 279 346 610q68 109 68 117l-2 2q-18 0 -111 -37q-674 -267 -1094 -653q-278 -254 -290 -424zM895 281q0 -242 233 -242q247 0 676 280q294 194 525 414q84 81 84 94q0 7 -13 7q-79 0 -745 -105q-668 -102 -701 -115q-11 -8 -26 -67q-17 -67 -25 -131
q-8 -65 -8 -135zM975 688q0 -10 10 -10q38 15 96 18q8 1 29 5t64 12.5t81 15.5q962 183 1309 240q164 203 248 352q82 146 82 293q0 209 -195 336q-198 127 -518 127q-124 0 -262 -21q-124 -19 -180 -35q-64 -36 -211 -262q-161 -248 -303 -512q-154 -284 -224 -467
q-26 -68 -26 -92zM2302 2646q0 25 41 90q38 56 172.5 216t153.5 179q53 56 90 56q15 0 24 -6q34 -29 37 -123q3 -146 8 -224.5t10 -99t13 -27.5q20 -17 20 -36q0 -33 -45 -33q-32 0 -41 24q-10 27 -10 369q0 100 -10 100q-6 0 -25 -16q-24 -24 -68 -73.5t-101 -118
t-97.5 -134.5t-40.5 -100q0 -53 -41 -74q-24 -12 -39 -12q-17 0 -35 12q-16 13 -16 31z" />
    <glyph glyph-name="Otilde" unicode="&#xd5;" horiz-adv-x="2975" 
d="M1120 -33q-103 0 -155 37q-48 35 -91 115q-21 34 -26 74q-6 41 -6 135q0 158 10 207l14 65q-251 -8 -374 -10q-146 0 -220 14q-86 13 -143 45q-119 43 -119 207q0 133 129 303q125 161 342 332q412 323 979 530l142 52l57 79q216 303 313 388q34 30 82 30q73 0 111 -47
q41 -47 41 -94q0 -85 -115 -88l-61 4q-4 1 -19.5 3.5t-25.5 4.5l-80 -92q-31 -36 -45.5 -52.5t-31 -37t-22.5 -31t-6 -16.5t10 -6q17 0 41 8q27 9 119 12q88 6 189 6q131 0 170 -2q178 -6 348 -96q62 -29 127 -94q87 -87 123 -183q14 -38 14 -153q0 -79 -10 -131
q-8 -44 -31 -105q-44 -111 -98 -198q-61 -93 -144 -203h123q218 0 221 -88q0 -26 -14 -43q-12 -21 -43 -21q-24 0 -43 11q-4 2 -51 16q-50 10 -84 8l-203 -6l-149 -133q-638 -566 -1092 -727q-113 -29 -203 -29zM25 846q0 -72 88 -127q128 -78 362 -78q129 0 318 18l88 9
q120 339 227 563q128 279 346 610q68 109 68 117l-2 2q-18 0 -111 -37q-674 -267 -1094 -653q-278 -254 -290 -424zM895 281q0 -242 233 -242q247 0 676 280q294 194 525 414q84 81 84 94q0 7 -13 7q-79 0 -745 -105q-668 -102 -701 -115q-11 -8 -26 -67q-17 -67 -25 -131
q-8 -65 -8 -135zM975 688q0 -10 10 -10q38 15 96 18q8 1 29 5t64 12.5t81 15.5q962 183 1309 240q164 203 248 352q82 146 82 293q0 209 -195 336q-198 127 -518 127q-124 0 -262 -21q-124 -19 -180 -35q-64 -36 -211 -262q-161 -248 -303 -512q-154 -284 -224 -467
q-26 -68 -26 -92zM2265 2808q0 6 8 104q10 77 113 80q81 0 307 -119q101 -55 123 -55q4 0 4 4q0 2 -1.5 4.5t-5.5 6.5l-7.5 7.5t-11 10.5t-13.5 12q-51 51 -51 86q0 14 20 41q19 19 50 33q22 14 47 14q42 0 84 -37q51 -34 51 -73q0 -17 -14 -64q-8 -57 -48 -100
q-27 -37 -63 -37q-28 0 -209 100q-177 100 -309 115q41 -71 41 -111q0 -71 -60 -71q-55 6 -55 49z" />
    <glyph glyph-name="Odieresis" unicode="&#xd6;" horiz-adv-x="2975" 
d="M1120 -33q-103 0 -155 37q-48 35 -91 115q-21 34 -26 74q-6 41 -6 135q0 158 10 207l14 65q-251 -8 -374 -10q-146 0 -220 14q-86 13 -143 45q-119 43 -119 207q0 133 129 303q125 161 342 332q412 323 979 530l142 52l57 79q216 303 313 388q34 30 82 30q73 0 111 -47
q41 -47 41 -94q0 -85 -115 -88l-61 4q-4 1 -19.5 3.5t-25.5 4.5l-80 -92q-31 -36 -45.5 -52.5t-31 -37t-22.5 -31t-6 -16.5t10 -6q17 0 41 8q27 9 119 12q88 6 189 6q131 0 170 -2q178 -6 348 -96q62 -29 127 -94q87 -87 123 -183q14 -38 14 -153q0 -79 -10 -131
q-8 -44 -31 -105q-44 -111 -98 -198q-61 -93 -144 -203h123q218 0 221 -88q0 -26 -14 -43q-12 -21 -43 -21q-24 0 -43 11q-4 2 -51 16q-50 10 -84 8l-203 -6l-149 -133q-638 -566 -1092 -727q-113 -29 -203 -29zM25 846q0 -72 88 -127q128 -78 362 -78q129 0 318 18l88 9
q120 339 227 563q128 279 346 610q68 109 68 117l-2 2q-18 0 -111 -37q-674 -267 -1094 -653q-278 -254 -290 -424zM895 281q0 -242 233 -242q247 0 676 280q294 194 525 414q84 81 84 94q0 7 -13 7q-79 0 -745 -105q-668 -102 -701 -115q-11 -8 -26 -67q-17 -67 -25 -131
q-8 -65 -8 -135zM975 688q0 -10 10 -10q38 15 96 18q8 1 29 5t64 12.5t81 15.5q962 183 1309 240q164 203 248 352q82 146 82 293q0 209 -195 336q-198 127 -518 127q-124 0 -262 -21q-124 -19 -180 -35q-64 -36 -211 -262q-161 -248 -303 -512q-154 -284 -224 -467
q-26 -68 -26 -92zM2216 2759q0 38 41 88q44 41 104 41q38 0 74 -25q33 -26 33 -59q0 -45 -58 -90q-52 -37 -108 -37q-37 0 -66 26q-20 26 -20 56zM2701 2779q0 39 43 88q41 41 103 41q46 0 73 -24q35 -28 35 -60q0 -46 -59 -90q-56 -37 -107 -37q-38 0 -65 27q-23 30 -23 55
z" />
    <glyph glyph-name="multiply" unicode="&#xd7;" horiz-adv-x="1021" 
d="M860 432q-26 0 -57 31l-326 368q-65 -71 -104 -153q-27 -56 -27 -80q0 -20 8 -39q8 -28 8 -39q0 -50 -75 -53q-80 0 -80 59q0 58 55 140q67 100 162 221q-60 72 -141 157q-57 60 -74 60q-18 0 -39 18q-22 19 -37 43q-14 22 -14 47q0 34 41 64q42 31 82 31q42 0 82 -27
q41 -27 41 -66l-3 -40q0 -33 23 -78q23 -48 53 -88q27 -37 43 -37l8 2q26 23 62 76q38 56 67 110q32 59 37 82q27 113 133 113q103 -6 103 -70q0 -50 -84 -113q-45 -31 -107 -90q-44 -42 -114 -120q-49 -58 -49 -78q6 -23 67 -84q141 -148 260 -238q49 -43 49 -65
q-3 -64 -53 -64z" />
    <glyph glyph-name="Oslash" unicode="&#xd8;" horiz-adv-x="2975" 
d="M1120 -33q-54 0 -90 8l-12 -24q-23 -48 -23 -66q0 -21 23 -37q16 -22 16 -41q3 -17 -12 -51q-17 -38 -55 -73q-40 -37 -58 -31q-5 5 -35 2l-8 2q-87 43 15 256q30 65 59 113q-37 37 -66 94q-21 34 -26 74q-6 41 -6 135q0 158 10 207l14 65q-251 -8 -374 -10
q-146 0 -220 14q-86 13 -143 45q-119 43 -119 207q0 133 129 303q125 161 342 332q412 323 979 530l142 52l57 79q216 303 313 388q34 30 82 30q73 0 111 -47q41 -47 41 -94q0 -85 -115 -88l-61 4q-4 1 -19.5 3.5t-25.5 4.5l-80 -92q-31 -36 -45.5 -52.5t-31 -37t-22.5 -31
t-6 -16.5t10 -6q17 0 41 8q27 9 119 12q88 6 189 6q131 0 170 -2q178 -6 348 -96l10 -4q57 60 106 121q58 67 68 90q9 22 12 35t13 34q24 57 86 119q83 86 147 58q45 -22 45 -93q0 -67 -33 -135q-36 -76 -96 -119q-58 -43 -115 -18q-14 7 -36 -10q-27 -15 -84 -72l-54 -49
q35 -28 58 -51q87 -87 123 -183q14 -38 14 -153q0 -79 -10 -131q-8 -44 -31 -105q-44 -111 -98 -198q-61 -93 -144 -203h123q218 0 221 -88q0 -26 -14 -43q-12 -21 -43 -21q-24 0 -43 11q-4 2 -51 16q-50 10 -84 8l-203 -6l-149 -133q-638 -566 -1092 -727
q-113 -29 -203 -29zM25 846q0 -72 88 -127q128 -78 362 -78q129 0 318 18l88 9q120 339 227 563q128 279 346 610q68 109 68 117l-2 2q-18 0 -111 -37q-674 -267 -1094 -653q-278 -254 -290 -424zM895 281q0 -140 80 -199q116 185 334 448q123 145 143 168
q-468 -73 -498 -84q-11 -8 -26 -67q-17 -67 -25 -131q-8 -65 -8 -135zM975 688q0 -10 10 -10q38 15 96 18q8 1 29 5t64 12.5t81 15.5l269 51q231 262 667 727q87 94 222.5 239.5t183.5 197.5l39 41q-182 92 -455 92q-124 0 -262 -21q-124 -19 -180 -35q-64 -36 -211 -262
q-161 -248 -303 -512q-154 -284 -224 -467q-26 -68 -26 -92zM1069 43q36 -4 59 -4q247 0 676 280q294 194 525 414q84 81 84 94q0 7 -13 7q-79 0 -745 -105l-111 -16q-29 -34 -121 -150q-89 -115 -239 -336q-90 -141 -115 -184zM1616 797q668 127 948 172q164 203 248 352
q82 146 82 293q0 209 -195 336l-4 2q-8 -9 -57 -58q-652 -658 -1022 -1097z" />
    <glyph glyph-name="Ugrave" unicode="&#xd9;" horiz-adv-x="1882" 
d="M1190 -178q-77 0 -123 104q-45 102 -45 277q0 235 57 483q60 261 172 612l-47 -61q-353 -460 -758 -870q-243 -246 -348 -246q-34 0 -63 33q-32 41 -47 82q-13 57 -13 124q0 197 84 490q78 287 232 633q117 250 227 432q111 185 178 231q45 31 95 31q55 0 98 -37
q41 -35 41 -74q0 -32 -29 -61q-34 -27 -82 -27l-51 7q-16 3 -35 -13q-17 -13 -43 -47q-188 -246 -387 -690q-189 -426 -254 -762q-16 -109 -16 -166q0 -64 16 -90q17 -27 49 -27q190 0 1028 1072q39 49 90 115.5t64 82.5q47 66 82 127q6 10 68 131q90 205 215 420
q117 208 231 363q113 149 166 149q42 0 45 -84q0 -110 -195 -397q-178 -263 -561 -774l-69 -207q-211 -628 -211 -1014q0 -309 123 -309q79 0 155 98q62 80 166 244l78 123q33 68 80 155q31 61 47 82q15 24 29 31q12 4 24 4q37 0 37 -33q0 -26 -29 -82q-333 -665 -571 -665z
M1239 3107q0 30 27 51q26 23 53 23q18 0 37 -15q14 -14 14 -43q0 -13 -8 -24q-8 -16 -8 -25q0 -25 21.5 -77t108.5 -243q58 -126 95 -208q8 -18 20.5 -30.5t20.5 -18.5t8 -9q0 -15 -18 -30t-37 -15q-15 0 -23 8q-10 10 -55 123q-80 207 -120.5 306.5t-55 127t-27.5 37.5
q-39 31 -41 31q-5 0 -8 8q-4 6 -4 23zM1483 1741q0 -4 2 -4q18 0 272 377t254 426q0 4 -4 4q-18 0 -147 -172q-94 -124 -211 -320q-166 -284 -166 -311z" />
    <glyph glyph-name="Uacute" unicode="&#xda;" horiz-adv-x="1882" 
d="M1190 -178q-77 0 -123 104q-45 102 -45 277q0 235 57 483q60 261 172 612l-47 -61q-353 -460 -758 -870q-243 -246 -348 -246q-34 0 -63 33q-32 41 -47 82q-13 57 -13 124q0 197 84 490q78 287 232 633q117 250 227 432q111 185 178 231q45 31 95 31q55 0 98 -37
q41 -35 41 -74q0 -32 -29 -61q-34 -27 -82 -27l-51 7q-16 3 -35 -13q-17 -13 -43 -47q-188 -246 -387 -690q-189 -426 -254 -762q-16 -109 -16 -166q0 -64 16 -90q17 -27 49 -27q190 0 1028 1072q39 49 90 115.5t64 82.5q47 66 82 127q6 10 68 131q90 205 215 420
q117 208 231 363q113 149 166 149q42 0 45 -84q0 -110 -195 -397q-178 -263 -561 -774l-69 -207q-211 -628 -211 -1014q0 -309 123 -309q79 0 155 98q62 80 166 244l78 123q33 68 80 155q31 61 47 82q15 24 29 31q12 4 24 4q37 0 37 -33q0 -26 -29 -82q-333 -665 -571 -665z
M1335 2574q0 25 31 47q25 14 165.5 163t194.5 222q34 43 64 43q14 0 25 -8q12 -9 12 -22q0 -22 -45 -51q-62 -47 -191 -182.5t-129 -157.5q0 -10 6 -19q7 -11 7 -24q0 -26 -25 -45q-24 -18 -47 -21q-23 0 -45 14q-23 16 -23 41zM1483 1741q0 -4 2 -4q18 0 272 377t254 426
q0 4 -4 4q-18 0 -147 -172q-94 -124 -211 -320q-166 -284 -166 -311z" />
    <glyph glyph-name="Ucircumflex" unicode="&#xdb;" horiz-adv-x="1882" 
d="M1190 -178q-77 0 -123 104q-45 102 -45 277q0 235 57 483q60 261 172 612l-47 -61q-353 -460 -758 -870q-243 -246 -348 -246q-34 0 -63 33q-32 41 -47 82q-13 57 -13 124q0 197 84 490q78 287 232 633q117 250 227 432q111 185 178 231q45 31 95 31q55 0 98 -37
q41 -35 41 -74q0 -32 -29 -61q-34 -27 -82 -27l-51 7q-16 3 -35 -13q-17 -13 -43 -47q-188 -246 -387 -690q-189 -426 -254 -762q-16 -109 -16 -166q0 -64 16 -90q17 -27 49 -27q190 0 1028 1072q39 49 90 115.5t64 82.5q47 66 82 127q6 10 68 131q90 205 215 420
q117 208 231 363q113 149 166 149q42 0 45 -84q0 -110 -195 -397q-178 -263 -561 -774l-69 -207q-211 -628 -211 -1014q0 -309 123 -309q79 0 155 98q62 80 166 244l78 123q33 68 80 155q31 61 47 82q15 24 29 31q12 4 24 4q37 0 37 -33q0 -26 -29 -82q-333 -665 -571 -665z
M1149 2525q0 25 41 90q38 56 172.5 216.5t153.5 179.5q52 55 90 55q15 0 24 -6q34 -29 37 -123q3 -146 8 -224t10 -98.5t13 -27.5q20 -17 20 -37q0 -33 -45 -33q-32 0 -41 25q-10 27 -10 368q0 101 -10 101q-5 0 -25 -17q-24 -24 -68 -73.5t-101 -118t-97.5 -134.5
t-40.5 -100q0 -53 -41 -74q-24 -12 -39 -12q-17 0 -35 12q-16 13 -16 31zM1483 1741q0 -4 2 -4q18 0 272 377t254 426q0 4 -4 4q-18 0 -147 -172q-94 -124 -211 -320q-166 -284 -166 -311z" />
    <glyph glyph-name="Udieresis" unicode="&#xdc;" horiz-adv-x="1882" 
d="M1190 -178q-77 0 -123 104q-45 102 -45 277q0 235 57 483q60 261 172 612l-47 -61q-353 -460 -758 -870q-243 -246 -348 -246q-34 0 -63 33q-32 41 -47 82q-13 57 -13 124q0 197 84 490q78 287 232 633q117 250 227 432q111 185 178 231q45 31 95 31q55 0 98 -37
q41 -35 41 -74q0 -32 -29 -61q-34 -27 -82 -27l-51 7q-16 3 -35 -13q-17 -13 -43 -47q-188 -246 -387 -690q-189 -426 -254 -762q-16 -109 -16 -166q0 -64 16 -90q17 -27 49 -27q190 0 1028 1072q39 49 90 115.5t64 82.5q47 66 82 127q6 10 68 131q90 205 215 420
q117 208 231 363q113 149 166 149q42 0 45 -84q0 -110 -195 -397q-178 -263 -561 -774l-69 -207q-211 -628 -211 -1014q0 -309 123 -309q79 0 155 98q62 80 166 244l78 123q33 68 80 155q31 61 47 82q15 24 29 31q12 4 24 4q37 0 37 -33q0 -26 -29 -82q-333 -665 -571 -665z
M1063 2638q0 38 41 88q44 41 104 41q38 0 74 -25q33 -26 33 -59q0 -45 -58 -90q-52 -37 -108 -37q-36 0 -66 27q-20 26 -20 55zM1483 1741q0 -4 2 -4q18 0 272 377t254 426q0 4 -4 4q-18 0 -147 -172q-94 -124 -211 -320q-166 -284 -166 -311zM1548 2658q0 39 43 88
q41 41 103 41q46 0 73 -24q35 -28 35 -60q0 -46 -59 -90q-56 -37 -107 -37q-38 0 -65 27q-23 30 -23 55z" />
    <glyph glyph-name="Yacute" unicode="&#xdd;" horiz-adv-x="1949" 
d="M561 -481q-61 0 -61 92q0 147 200 446q147 201 324 389q195 207 336 316q30 20 65 55q32 40 54 88q24 49 71 166q179 435 179 629q-3 54 -9 69q-7 17 -37 17q-96 0 -366 -285q-266 -278 -660 -799q-223 -296 -327 -403q-117 -117 -187 -117q-64 0 -106 70q-41 71 -41 203
q0 322 231 934q115 272 277 565q166 292 258 381q83 71 170 71q137 -6 137 -94q0 -41 -47 -59q-52 -19 -84 -19q-11 0 -39 -8q-88 -40 -281 -354q-320 -512 -468 -1041q-74 -260 -74 -409q0 -75 20 -111q19 -39 47 -39q50 0 140 93q122 129 385 479q223 300 368 475
q132 159 293 317q243 258 359 258q118 0 118 -184q0 -185 -131 -520q-44 -112 -84 -203q-24 -52 -24 -61l4 -2q5 0 141 65q66 29 105 29q51 0 88 -27q37 -24 37 -57q0 -26 -27 -47q-24 -21 -49 -21q-18 0 -37 11q-19 8 -41 8q-31 0 -100 -41q-141 -75 -201 -135
q-64 -67 -137 -205q-262 -467 -508 -756q-194 -229 -281 -229zM571 -369q0 -18 13 -18q6 0 88 70q59 56 162 178q224 279 407 600q47 75 47 90q-27 -3 -211 -184q-256 -253 -403 -508q-103 -177 -103 -228zM1526 2484q0 26 30 47q25 15 166 164t195 221q34 43 63 43
q14 0 25 -8q12 -9 12 -22q0 -23 -45 -52q-62 -47 -190.5 -182.5t-128.5 -157.5q0 -9 6 -18t6 -25q0 -26 -25 -45q-22 -16 -47 -20q-23 0 -45 14q-22 16 -22 41z" />
    <glyph glyph-name="Thorn" unicode="&#xde;" horiz-adv-x="2459" 
d="M817 -207q-136 0 -139 240q0 483 682 1784q151 281 151 307l-6 2q-29 -4 -104 -29q-74 -22 -176 -61q-92 -36 -166 -68q-608 -292 -828 -651l-36 -70q84 -41 84 -96q0 -33 -35 -57q-40 -22 -90 -25q-62 0 -109 27q-46 27 -49 71q0 79 164 258q171 187 370 330
q463 322 1016 469q17 3 33 23q20 17 43 61q19 30 70 131q47 92 84 154q40 67 55 82q39 28 86 28q44 0 74 -18q30 -16 34 -51q0 -26 -110 -142q-74 -79 -186 -229q215 21 274 21q149 0 289 -31q128 -28 213 -88q170 -120 170 -314q0 -327 -383 -725q-162 -171 -289 -260
q-443 -300 -709 -303q-153 0 -153 111q0 42 22 78q21 30 51 30q18 0 35 -14q19 -13 19 -29q0 -13 -8 -32q-9 -21 -9 -35q0 -12 13 -19q12 -6 47 -6q373 12 821 383q244 203 373 395q90 145 112 224q23 84 23 196q-12 234 -320 326q-82 24 -198 24q-413 -6 -443 -30
q-26 -18 -118 -168q-76 -124 -199 -348q-357 -660 -494 -1123q-88 -297 -88 -456q3 -141 72 -150q57 -12 57 -49q0 -18 -12 -45q-29 -33 -80 -33z" />
    <glyph glyph-name="germandbls" unicode="&#xdf;" horiz-adv-x="1101" 
d="M-348 16q-65 0 -68 60q0 48 45 131l189 393q414 900 889 1354q205 184 290 184q58 0 58 -76q0 -162 -525 -739q-268 -297 -268 -313q0 -6 117 -6l272 6q101 0 148 -15q46 -15 73 -49q27 -38 27 -80q0 -189 -608 -563q-152 -96 -201 -96q-33 0 -41 8q-12 6 -12 39
q0 26 10 39q8 11 41 24q492 219 686 410q92 89 92 143q0 82 -225 82l-188 -6q-82 -4 -115 -4q-72 0 -86 14q-19 16 -19 50q0 39 46 100q62 80 286 334q170 200 289 368q129 182 129 222q-3 5 -8 8q-24 0 -109 -70q-540 -433 -944 -1407q-119 -280 -119 -321q0 -20 21 -29
q18 -12 18 -53q0 -65 -65 -103q-65 -39 -125 -39z" />
    <glyph glyph-name="agrave" unicode="&#xe0;" horiz-adv-x="1529" 
d="M688 514q-178 0 -252 117q-51 80 -86 262q-18 117 -33 135q-26 0 -297 -235q-79 -70 -116 -70q-29 0 -35 51q0 44 61 129q64 89 142 170q86 86 149 121q51 23 101 23q89 0 159 -46q74 -47 74 -100q0 -39 -39 -65q-47 -32 -100 -29l-58 4q21 -183 64 -276q29 -68 94 -111
q45 -31 115 -31t125 10q46 8 131 50q148 74 309 172q182 111 250 168q75 63 127 63q42 0 45 -47q0 -11 -4 -31q-22 -51 -168 -139q-156 -92 -332 -170q-283 -125 -426 -125zM8 860q11 0 133 113q70 61 70 69h-4q-62 -47 -131 -110q-68 -68 -68 -72zM258 2118q0 30 27 51
q25 22 53 22q20 0 37 -14q14 -14 14 -43q0 -14 -8 -25q-8 -16 -8 -24q0 -26 19.5 -73.5t117.5 -261.5q17 -37 27 -59.5t27.5 -61t33.5 -73.5q8 -18 20.5 -30.5t20.5 -18t8 -8.5q0 -16 -18 -31q-17 -14 -37 -14q-15 0 -23 8q-10 10 -55 123q-80 207 -120.5 306.5t-55 127
t-27.5 37.5q-39 31 -41 31q-5 0 -8 8q-4 6 -4 23z" />
    <glyph glyph-name="aacute" unicode="&#xe1;" horiz-adv-x="1529" 
d="M688 514q-178 0 -252 117q-51 80 -86 262q-18 117 -33 135q-26 0 -297 -235q-79 -70 -116 -70q-29 0 -35 51q0 44 61 129q64 89 142 170q86 86 149 121q51 23 101 23q89 0 159 -46q74 -47 74 -100q0 -39 -39 -65q-47 -32 -100 -29l-58 4q21 -183 64 -276q29 -68 94 -111
q45 -31 115 -31t125 10q46 8 131 50q148 74 309 172q182 111 250 168q75 63 127 63q42 0 45 -47q0 -11 -4 -31q-22 -51 -168 -139q-156 -92 -332 -170q-283 -125 -426 -125zM8 860q11 0 133 113q70 61 70 69h-4q-62 -47 -131 -110q-68 -68 -68 -72zM354 1585q0 25 31 47
q25 14 165.5 163t194.5 222q34 43 64 43q14 0 25 -8q12 -9 12 -22q0 -23 -45 -52q-62 -47 -191 -182.5t-129 -157.5q0 -9 6 -18q7 -10 7 -25q0 -26 -25 -45q-22 -16 -47 -20q-23 0 -45 14q-23 16 -23 41z" />
    <glyph glyph-name="acircumflex" unicode="&#xe2;" horiz-adv-x="1529" 
d="M688 514q-178 0 -252 117q-51 80 -86 262q-18 117 -33 135q-26 0 -297 -235q-79 -70 -116 -70q-29 0 -35 51q0 44 61 129q64 89 142 170q86 86 149 121q51 23 101 23q89 0 159 -46q74 -47 74 -100q0 -39 -39 -65q-47 -32 -100 -29l-58 4q21 -183 64 -276q29 -68 94 -111
q45 -31 115 -31t125 10q46 8 131 50q148 74 309 172q182 111 250 168q75 63 127 63q42 0 45 -47q0 -11 -4 -31q-22 -51 -168 -139q-156 -92 -332 -170q-283 -125 -426 -125zM8 860q11 0 133 113q70 61 70 69h-4q-62 -47 -131 -110q-68 -68 -68 -72zM168 1536q0 25 41 90
q38 56 172.5 216t153.5 179q53 56 90 56q15 0 24 -6q34 -29 37 -123q3 -146 8 -224.5t10 -99t13 -27.5q20 -17 20 -36q0 -33 -45 -33q-32 0 -41 24q-10 27 -10 369q0 100 -10 100q-6 0 -25 -16q-24 -24 -68 -73.5t-101 -118t-97.5 -134.5t-40.5 -100q0 -53 -41 -74
q-24 -12 -39 -12q-17 0 -35 12q-16 13 -16 31z" />
    <glyph glyph-name="atilde" unicode="&#xe3;" horiz-adv-x="1529" 
d="M688 514q-178 0 -252 117q-51 80 -86 262q-18 117 -33 135q-26 0 -297 -235q-79 -70 -116 -70q-29 0 -35 51q0 44 61 129q64 89 142 170q86 86 149 121q51 23 101 23q89 0 159 -46q74 -47 74 -100q0 -39 -39 -65q-47 -32 -100 -29l-58 4q21 -183 64 -276q29 -68 94 -111
q45 -31 115 -31t125 10q46 8 131 50q148 74 309 172q182 111 250 168q75 63 127 63q42 0 45 -47q0 -11 -4 -31q-22 -51 -168 -139q-156 -92 -332 -170q-283 -125 -426 -125zM8 860q11 0 133 113q70 61 70 69h-4q-62 -47 -131 -110q-68 -68 -68 -72zM131 1698q0 6 8 104
q10 77 113 80q81 0 307 -119q101 -55 123 -55q4 0 4 4q0 2 -1.5 4.5t-5.5 6.5l-7.5 7.5t-11 10.5t-13.5 12q-51 51 -51 86q0 14 20 41q19 19 50 33q22 14 47 14q42 0 84 -37q51 -34 51 -73q0 -17 -14 -64q-8 -57 -48 -100q-27 -37 -63 -37q-28 0 -209 100q-177 100 -309 115
q41 -71 41 -111q0 -71 -60 -71q-55 6 -55 49z" />
    <glyph glyph-name="adieresis" unicode="&#xe4;" horiz-adv-x="1529" 
d="M688 514q-178 0 -252 117q-51 80 -86 262q-18 117 -33 135q-26 0 -297 -235q-79 -70 -116 -70q-29 0 -35 51q0 44 61 129q64 89 142 170q86 86 149 121q51 23 101 23q89 0 159 -46q74 -47 74 -100q0 -39 -39 -65q-47 -32 -100 -29l-58 4q21 -183 64 -276q29 -68 94 -111
q45 -31 115 -31t125 10q46 8 131 50q148 74 309 172q182 111 250 168q75 63 127 63q42 0 45 -47q0 -11 -4 -31q-22 -51 -168 -139q-156 -92 -332 -170q-283 -125 -426 -125zM8 860q11 0 133 113q70 61 70 69h-4q-62 -47 -131 -110q-68 -68 -68 -72zM82 1649q0 38 41 88
q44 41 104 41q38 0 74 -25q33 -26 33 -59q0 -45 -58 -90q-52 -37 -108 -37q-37 0 -66 26q-20 26 -20 56zM567 1669q0 39 43 88q41 41 103 41q46 0 73 -24q35 -28 35 -60q0 -46 -59 -90q-56 -37 -107 -37q-38 0 -65 27q-23 30 -23 55z" />
    <glyph glyph-name="aring" unicode="&#xe5;" horiz-adv-x="1529" 
d="M688 514q-178 0 -252 117q-51 80 -86 262q-18 117 -33 135q-26 0 -297 -235q-79 -70 -116 -70q-29 0 -35 51q0 44 61 129q64 89 142 170q86 86 149 121q51 23 101 23q89 0 159 -46q74 -47 74 -100q0 -39 -39 -65q-47 -32 -100 -29l-58 4q21 -183 64 -276q29 -68 94 -111
q45 -31 115 -31t125 10q46 8 131 50q148 74 309 172q182 111 250 168q75 63 127 63q42 0 45 -47q0 -11 -4 -31q-22 -51 -168 -139q-156 -92 -332 -170q-283 -125 -426 -125zM8 860q11 0 133 113q70 61 70 69h-4q-62 -47 -131 -110q-68 -68 -68 -72zM143 1827q0 171 265 233
q115 35 180 35q56 0 112 -37q60 -47 60 -125q-21 -121 -109 -209q-92 -86 -188 -100h-27q-45 0 -94 25q-59 29 -86 45q-38 20 -41 20t-27 17q-3 6 -14.5 21t-15.5 24q-15 24 -15 51zM340 1898q-15 -26 -17.5 -56.5t8.5 -59t44 -47.5t84 -19q48 0 133 64q127 90 127 174
q0 28 -27 45q-41 18 -71 18q-125 0 -182.5 -24.5t-98.5 -94.5z" />
    <glyph glyph-name="ae" unicode="&#xe6;" horiz-adv-x="1562" 
d="M8 860q15 4 133 113q70 61 70 69h-4q-67 -50 -129 -110q-70 -67 -70 -72zM-131 774q0 44 61 129q67 93 144 170q75 78 147 121q51 23 101 23q88 0 161 -46q26 -17 33 -26q53 39 88 39q27 0 47 -17q19 -19 19 -47q0 -36 -41 -104q-33 -58 -82 -121q-52 -82 -135 -82l-54 4
q-27 0 -41 -33q-18 -34 -18 -61q0 -65 113 -68q54 0 135 19q114 25 649 213q310 114 358 114q39 -3 39 -51q0 -24 -8 -35t-45 -24q-25 -11 -113 -35q-249 -68 -370 -100q-406 -108 -463 -121q-123 -33 -191 -33q-151 0 -151 133l2 33l63 260q-26 0 -297 -235
q-79 -70 -116 -70q-26 0 -35 51z" />
    <glyph glyph-name="ccedilla" unicode="&#xe7;" horiz-adv-x="1349" 
d="M31 305h-4q0 -12 -7 -26q0 -1 -17 -23.5t-40 -56.5t-47.5 -74.5t-46.5 -88.5t-31 -87q4 -13 23.5 -74t33.5 -110.5t15 -65.5q6 -50 -21 -98q-34 -58 -88 -27q-76 37 -157 211q-6 14 -14.5 30.5t-13 24.5t-9 19.5t-3.5 16.5l3 15q19 25 37 17q3 -2 5.5 -4.5t5 -6.5t4 -8
t4 -11t4 -11t4.5 -14t5 -15q66 -196 144 -239q18 -11 33 -11q20 -3 20 4q9 12 6 56q-6 41 -20 80q-7 25 -38 98t-40 82q-18 18 -21 33q0 17 11 36q3 5 57.5 127t77.5 162l28 56q-37 15 -59 43q-49 61 -49 153q0 173 147 440q49 92 117 162q79 88 146 88q56 0 102 -55
q45 -54 45 -131q0 -59 -49 -86q-53 -29 -82 -29q-39 0 -70 25q-32 22 -32 49q0 25 -5 25t-26 -21q-88 -88 -164 -231q-86 -165 -92 -265q0 -99 104 -120q8 4 15 4q12 3 22 -11h27q124 3 278 62q151 60 436 209q283 153 486 287q118 71 145 71q18 0 29 -14q14 -11 14 -31
q0 -36 -110 -100q-113 -69 -414 -217q-337 -167 -543 -246q-210 -78 -321 -78z" />
    <glyph glyph-name="egrave" unicode="&#xe8;" horiz-adv-x="1165" 
d="M6 602q-151 0 -151 133q0 51 24 121q23 68 88 145q60 71 133 129q73 54 107 54q25 0 49 -17q18 -18 18 -47q0 -64 -124 -225q-56 -88 -134 -82l-55 4q-25 3 -41 -33q-18 -34 -18 -61q0 -65 114 -68q53 0 134 19q110 24 649 213q311 114 360 114q37 -3 37 -43
q0 -32 -8 -43t-45 -24q-44 -17 -484 -135q-433 -115 -460 -121q-123 -33 -193 -33zM193 2132q0 31 26 51q26 23 53 23q18 0 37 -15q15 -15 15 -43q0 -12 -9 -24q-8 -16 -8 -25q0 -25 21.5 -77t108.5 -243q58 -126 95 -208q8 -18 20.5 -30.5t21 -18.5t8.5 -9q0 -14 -19 -30
q-18 -15 -37 -15q-13 0 -22 9q-11 11 -55 122q-80 208 -120.5 307t-55 127t-27.5 38q-37 30 -41 30q-5 0 -8 8q-4 6 -4 23z" />
    <glyph glyph-name="eacute" unicode="&#xe9;" horiz-adv-x="1165" 
d="M6 602q-151 0 -151 133q0 51 24 121q23 68 88 145q60 71 133 129q73 54 107 54q25 0 49 -17q18 -18 18 -47q0 -64 -124 -225q-56 -88 -134 -82l-55 4q-25 3 -41 -33q-18 -34 -18 -61q0 -65 114 -68q53 0 134 19q110 24 649 213q311 114 360 114q37 -3 37 -43
q0 -32 -8 -43t-45 -24q-44 -17 -484 -135q-433 -115 -460 -121q-123 -33 -193 -33zM289 1599q0 27 30 48q25 15 166 164t195 221q34 43 63 43q13 0 25 -9t12 -22q0 -22 -45 -51q-62 -47 -190.5 -182.5t-128.5 -157.5q0 -10 6 -19t6 -24q0 -26 -25 -45q-24 -18 -47 -21
q-21 0 -45 15q-22 16 -22 40z" />
    <glyph glyph-name="ecircumflex" unicode="&#xea;" horiz-adv-x="1165" 
d="M6 602q-151 0 -151 133q0 51 24 121q23 68 88 145q60 71 133 129q73 54 107 54q25 0 49 -17q18 -18 18 -47q0 -64 -124 -225q-56 -88 -134 -82l-55 4q-25 3 -41 -33q-18 -34 -18 -61q0 -65 114 -68q53 0 134 19q110 24 649 213q311 114 360 114q37 -3 37 -43
q0 -32 -8 -43t-45 -24q-44 -17 -484 -135q-433 -115 -460 -121q-123 -33 -193 -33zM102 1550q0 25 41 90q38 56 172.5 216.5t153.5 179.5q52 55 90 55q16 0 25 -6q34 -29 37 -123q3 -146 7.5 -224t9.5 -98.5t13 -27.5q21 -18 21 -37q0 -33 -45 -33q-32 0 -41 25
q-11 29 -11 368q0 101 -10 101q-4 0 -24 -17q-25 -25 -68.5 -73.5t-101 -117.5t-98 -135t-40.5 -100q0 -52 -40 -73q-26 -13 -39 -13q-16 0 -35 13q-17 14 -17 30z" />
    <glyph glyph-name="edieresis" unicode="&#xeb;" horiz-adv-x="1165" 
d="M6 602q-151 0 -151 133q0 51 24 121q23 68 88 145q60 71 133 129q73 54 107 54q25 0 49 -17q18 -18 18 -47q0 -64 -124 -225q-56 -88 -134 -82l-55 4q-25 3 -41 -33q-18 -34 -18 -61q0 -65 114 -68q53 0 134 19q110 24 649 213q311 114 360 114q37 -3 37 -43
q0 -32 -8 -43t-45 -24q-44 -17 -484 -135q-433 -115 -460 -121q-123 -33 -193 -33zM16 1663q0 38 41 88q44 41 105 41q38 0 74 -25q32 -26 32 -59q0 -45 -57 -90q-52 -37 -109 -37q-35 0 -65 27q-21 27 -21 55zM502 1683q0 40 43 89q40 40 102 40q47 0 74 -24q35 -28 35 -59
q0 -46 -60 -91q-55 -36 -106 -36q-40 0 -66 26q-22 28 -22 55z" />
    <glyph glyph-name="igrave" unicode="&#xec;" horiz-adv-x="909" 
d="M47 510q-41 -1 -66.5 32.5t-33.5 96.5q-6 49 -6 106q3 215 61 355q41 77 104 80l31 2q46 -3 74 -23q30 -21 39 -55q0 -79 -72 -107q-33 -11 -78 -88q-43 -76 -73 -161q-34 -84 -37 -130q6 -49 69 -49q84 3 187 47q79 42 346 201q237 153 299 168q45 -6 51 -41
q0 -46 -65 -70q-37 -15 -353 -172q-334 -172 -438 -190zM168 1896q0 31 27 52q25 22 53 22q20 0 37 -14q14 -14 14 -43q0 -14 -8 -25q-8 -16 -8 -24q0 -26 19.5 -73.5t117.5 -261.5q17 -37 27 -59.5t27.5 -61t33.5 -73.5q8 -18 20.5 -30.5t20.5 -18t8 -8.5q0 -16 -18 -31
q-17 -14 -37 -14q-15 0 -23 8q-10 10 -55 123q-80 207 -120.5 306.5t-55 127t-27.5 37.5q-39 31 -41 31q-5 0 -8 8q-4 6 -4 22z" />
    <glyph glyph-name="iacute" unicode="&#xed;" horiz-adv-x="909" 
d="M47 510q-41 -1 -66.5 32.5t-33.5 96.5q-6 49 -6 106q3 215 61 355q41 77 104 80l31 2q46 -3 74 -23q30 -21 39 -55q0 -79 -72 -107q-33 -11 -78 -88q-43 -76 -73 -161q-34 -84 -37 -130q6 -49 69 -49q84 3 187 47q79 42 346 201q237 153 299 168q45 -6 51 -41
q0 -46 -65 -70q-37 -15 -353 -172q-334 -172 -438 -190zM264 1364q0 25 31 47q25 14 165.5 163t194.5 222q34 43 64 43q13 0 24 -8q13 -10 13 -23q0 -22 -45 -51q-62 -47 -191 -182.5t-129 -157.5q0 -9 6 -18t6 -25q0 -27 -24 -45q-22 -16 -47 -20q-23 0 -45 14
q-23 16 -23 41z" />
    <glyph glyph-name="icircumflex" unicode="&#xee;" horiz-adv-x="909" 
d="M47 510q-41 -1 -66.5 32.5t-33.5 96.5q-6 49 -6 106q3 215 61 355q41 77 104 80l31 2q46 -3 74 -23q30 -21 39 -55q0 -79 -72 -107q-33 -11 -78 -88q-43 -76 -73 -161q-34 -84 -37 -130q6 -49 69 -49q84 3 187 47q79 42 346 201q237 153 299 168q45 -6 51 -41
q0 -46 -65 -70q-37 -15 -353 -172q-334 -172 -438 -190zM78 1315q0 25 41 90q38 56 172 216t153 179q52 55 91 55q15 0 24 -6q34 -29 37 -123q3 -146 8 -224t10 -98.5t13 -27.5q20 -17 20 -37q0 -32 -45 -32q-32 0 -41 24q-10 27 -10 369q0 100 -10 100q-6 0 -25 -16
q-24 -24 -68 -73.5t-101 -118t-97.5 -134.5t-40.5 -100q0 -53 -41 -74q-24 -12 -39 -12q-17 0 -35 12q-16 13 -16 31z" />
    <glyph glyph-name="idieresis" unicode="&#xef;" horiz-adv-x="909" 
d="M47 510q-41 -1 -66.5 32.5t-33.5 96.5q-6 49 -6 106q3 215 61 355q41 77 104 80l31 2q46 -3 74 -23q30 -21 39 -55q0 -79 -72 -107q-33 -11 -78 -88q-43 -76 -73 -161q-34 -84 -37 -130q6 -49 69 -49q84 3 187 47q79 42 346 201q237 153 299 168q45 -6 51 -41
q0 -46 -65 -70q-37 -15 -353 -172q-334 -172 -438 -190zM-8 1427q0 39 41 89q43 40 104 40q39 0 74 -24q33 -26 33 -59q0 -46 -58 -91q-50 -36 -108 -36q-37 0 -66 26q-20 26 -20 55zM477 1448q0 39 43 88q41 41 103 41q45 0 73 -25q35 -28 35 -59q0 -46 -59 -90
q-56 -37 -107 -37q-38 0 -65 27q-23 30 -23 55z" />
    <glyph glyph-name="eth" unicode="&#xf0;" horiz-adv-x="1081" 
d="M289 391q-45 18 -99 76q-118 139 -155 350q-43 224 24 371q21 43 45 65q28 29 41 31q18 7 41 -4l60 -27q146 -81 237 -243q92 -167 52 -250q-30 -68 -109 -29q-55 22 -61 146q-12 99 -80 188q-75 95 -125 115q-35 18 -49 -15q-30 -65 -7 -186q23 -141 68 -250
q70 -190 160 -231q122 -56 213 143l18 37q141 431 74 919q-88 -50 -131 -88q-62 -56 -92 -69q-23 -11 -49 -8q-29 6 -37 28q-21 43 6 86q25 44 76 68q18 9 49 16q40 8 164 62l-7 28q-20 120 -43 135q-22 14 -73 37q-80 37 -103 80q-36 54 -6 119q31 63 107 72q58 0 100 -19
q63 -28 102 -127q33 -87 50 -268q201 94 245 104q30 -8 37 -26q9 -17 2 -47q-14 -31 -37 -41q-28 -12 -63 -21q-44 -12 -96 -30q-23 -7 -82 -33q16 -296 -17 -535q-34 -303 -121 -497q-64 -137 -149 -195q-98 -76 -180 -37z" />
    <glyph glyph-name="ntilde" unicode="&#xf1;" horiz-adv-x="1345" 
d="M-250 233q-28 0 -39 11q-13 13 -16 41q-6 30 -6 65q0 72 47 178q58 122 192 349q185 314 232 450q17 60 57 100q41 35 82 35q30 0 66 -22q32 -19 32 -54q0 -59 -123 -206q-159 -208 -309 -447q-135 -221 -135 -270q0 -10 6 -10q8 0 43 30q35 31 74 78q70 78 199 207
q114 114 190 182q84 78 111 90q29 13 41 13q22 0 45 -33t32 -90q18 -94 33 -144q35 -96 170 -96q96 0 238 62q136 59 235 149q64 64 88 64q8 0 15 -7q30 -18 30 -43q0 -51 -106 -114q-107 -63 -244 -105q-134 -45 -239 -45q-111 0 -164 56q-52 55 -70 184q-4 31 -14 72
q-5 20 -13 32q-15 10 -18 11q-41 0 -172 -119q-135 -126 -258 -283q-122 -159 -148 -235q-8 -32 -53 -86q-62 -50 -131 -50zM352 1698q0 6 8 104q10 77 113 80q81 0 307 -119q101 -55 123 -55q4 0 4 4q0 2 -1.5 4.5t-5.5 6.5l-7.5 7.5t-11 10.5t-13.5 12q-51 51 -51 86
q0 13 21 41q20 20 49 33q22 14 47 14q42 0 84 -37q51 -34 51 -73q0 -17 -14 -64q-9 -58 -47 -100q-27 -37 -64 -37q-28 0 -209 100q-177 100 -309 115q41 -71 41 -111q0 -71 -59 -71q-56 6 -56 49z" />
    <glyph glyph-name="ograve" unicode="&#xf2;" horiz-adv-x="1046" 
d="M12 524q-32 0 -73 41q-39 45 -39 125q0 115 92 328q59 127 59 160q6 53 43 77q41 23 78 23q45 -6 70 -23q31 -15 49 -18q16 0 49 10q47 15 72 15q114 -9 114 -132q-6 -103 -77 -239q-26 -43 -29 -53l2 -2q15 0 104 24q68 16 197 53q57 16 180 56q92 32 139 32
q27 0 33 -12q8 -16 8 -49q-3 -28 -30 -37q-39 -13 -127 -29q-151 -31 -219 -43q-151 -26 -203 -34q-68 -11 -90 -17q-31 -7 -45 -18q-19 -13 -33 -35q-73 -85 -166 -143q-97 -60 -158 -60zM-8 655q0 -36 35 -39q53 0 123 48q93 72 133 106l-56 -4q-82 3 -188 45l-10 -33
q-5 -11 -23 -63q-14 -57 -14 -60zM70 860q0 -15 30 -24q48 -13 215 -19l45 57q44 55 76 134q34 75 37 125q0 30 -18 36q-21 7 -52 7q-39 0 -100 -21q-51 -20 -82 -59q-44 -61 -63 -90q-42 -59 -62 -95q-26 -47 -26 -51zM330 2118q0 31 26 51q25 22 54 22q18 0 36 -14
q15 -15 15 -43q0 -14 -8 -25q-9 -18 -9 -24q0 -25 21 -76t103 -230q61 -134 102 -223q8 -18 20.5 -30.5t20.5 -18t8 -8.5q0 -15 -19 -31q-17 -14 -36 -14q-15 0 -23 8q-10 10 -55 123q-80 207 -120.5 306.5t-55 127t-27.5 37.5q-39 31 -41 31q-5 0 -8 8q-4 6 -4 23z" />
    <glyph glyph-name="oacute" unicode="&#xf3;" horiz-adv-x="1046" 
d="M12 524q-32 0 -73 41q-39 45 -39 125q0 115 92 328q59 127 59 160q6 53 43 77q41 23 78 23q45 -6 70 -23q31 -15 49 -18q16 0 49 10q47 15 72 15q114 -9 114 -132q-6 -103 -77 -239q-26 -43 -29 -53l2 -2q15 0 104 24q68 16 197 53q57 16 180 56q92 32 139 32
q27 0 33 -12q8 -16 8 -49q-3 -28 -30 -37q-39 -13 -127 -29q-151 -31 -219 -43q-151 -26 -203 -34q-68 -11 -90 -17q-31 -7 -45 -18q-19 -13 -33 -35q-73 -85 -166 -143q-97 -60 -158 -60zM-8 655q0 -36 35 -39q53 0 123 48q93 72 133 106l-56 -4q-82 3 -188 45l-10 -33
q-5 -11 -23 -63q-14 -57 -14 -60zM70 860q0 -15 30 -24q48 -13 215 -19l45 57q44 55 76 134q34 75 37 125q0 30 -18 36q-21 7 -52 7q-39 0 -100 -21q-51 -20 -82 -59q-44 -61 -63 -90q-42 -59 -62 -95q-26 -47 -26 -51zM426 1585q0 25 31 47q25 14 165.5 163t194.5 222
q34 43 64 43q13 0 24 -8q13 -10 13 -22q0 -22 -46 -52q-62 -47 -190.5 -182.5t-128.5 -157.5q0 -9 6 -18t6 -25q0 -27 -24 -45q-22 -16 -47 -20q-23 0 -45 14q-23 16 -23 41z" />
    <glyph glyph-name="ocircumflex" unicode="&#xf4;" horiz-adv-x="1046" 
d="M12 524q-32 0 -73 41q-39 45 -39 125q0 115 92 328q59 127 59 160q6 53 43 77q41 23 78 23q45 -6 70 -23q31 -15 49 -18q16 0 49 10q47 15 72 15q114 -9 114 -132q-6 -103 -77 -239q-26 -43 -29 -53l2 -2q15 0 104 24q68 16 197 53q57 16 180 56q92 32 139 32
q27 0 33 -12q8 -16 8 -49q-3 -28 -30 -37q-39 -13 -127 -29q-151 -31 -219 -43q-151 -26 -203 -34q-68 -11 -90 -17q-31 -7 -45 -18q-19 -13 -33 -35q-73 -85 -166 -143q-97 -60 -158 -60zM-8 655q0 -36 35 -39q53 0 123 48q93 72 133 106l-56 -4q-82 3 -188 45l-10 -33
q-5 -11 -23 -63q-14 -57 -14 -60zM70 860q0 -15 30 -24q48 -13 215 -19l45 57q44 55 76 134q34 75 37 125q0 30 -18 36q-21 7 -52 7q-39 0 -100 -21q-51 -20 -82 -59q-44 -61 -63 -90q-42 -59 -62 -95q-26 -47 -26 -51zM240 1536q0 25 41 90q38 56 172 216t153 179
q53 56 90 56q16 0 25 -6q34 -29 37 -123q3 -146 7.5 -224.5t9.5 -99t13 -27.5q21 -18 21 -36q0 -33 -45 -33q-32 0 -41 24q-10 27 -10 369q0 100 -11 100q-5 0 -24 -16q-24 -24 -68 -73.5t-101 -118t-97.5 -134.5t-40.5 -100q0 -53 -41 -74q-24 -12 -39 -12q-17 0 -35 12
q-16 13 -16 31z" />
    <glyph glyph-name="otilde" unicode="&#xf5;" horiz-adv-x="1046" 
d="M12 524q-32 0 -73 41q-39 45 -39 125q0 115 92 328q59 127 59 160q6 53 43 77q41 23 78 23q45 -6 70 -23q31 -15 49 -18q16 0 49 10q47 15 72 15q114 -9 114 -132q-6 -103 -77 -239q-26 -43 -29 -53l2 -2q15 0 104 24q68 16 197 53q57 16 180 56q92 32 139 32
q27 0 33 -12q8 -16 8 -49q-3 -28 -30 -37q-39 -13 -127 -29q-151 -31 -219 -43q-151 -26 -203 -34q-68 -11 -90 -17q-31 -7 -45 -18q-19 -13 -33 -35q-73 -85 -166 -143q-97 -60 -158 -60zM-8 655q0 -36 35 -39q53 0 123 48q93 72 133 106l-56 -4q-82 3 -188 45l-10 -33
q-5 -11 -23 -63q-14 -57 -14 -60zM70 860q0 -15 30 -24q48 -13 215 -19l45 57q44 55 76 134q34 75 37 125q0 30 -18 36q-21 7 -52 7q-39 0 -100 -21q-51 -20 -82 -59q-44 -61 -63 -90q-42 -59 -62 -95q-26 -47 -26 -51zM203 1698q0 6 8 104q10 77 113 80q81 0 307 -119
q101 -55 123 -55q4 0 4 4q0 2 -1.5 4.5t-5.5 6.5l-7.5 7.5t-11 10.5t-13.5 12q-51 51 -51 86q0 14 20 41q20 20 49 33q22 14 47 14q42 0 84 -37q52 -34 52 -73q0 -13 -15 -64q-9 -58 -47 -100q-27 -37 -63 -37q-28 0 -209 100q-177 100 -310 115q41 -71 41 -111
q0 -71 -59 -71q-55 6 -55 49z" />
    <glyph glyph-name="odieresis" unicode="&#xf6;" horiz-adv-x="1046" 
d="M12 524q-32 0 -73 41q-39 45 -39 125q0 115 92 328q59 127 59 160q6 53 43 77q41 23 78 23q45 -6 70 -23q31 -15 49 -18q16 0 49 10q47 15 72 15q114 -9 114 -132q-6 -103 -77 -239q-26 -43 -29 -53l2 -2q15 0 104 24q68 16 197 53q57 16 180 56q92 32 139 32
q27 0 33 -12q8 -16 8 -49q-3 -28 -30 -37q-39 -13 -127 -29q-151 -31 -219 -43q-151 -26 -203 -34q-68 -11 -90 -17q-31 -7 -45 -18q-19 -13 -33 -35q-73 -85 -166 -143q-97 -60 -158 -60zM-8 655q0 -36 35 -39q53 0 123 48q93 72 133 106l-56 -4q-82 3 -188 45l-10 -33
q-5 -11 -23 -63q-14 -57 -14 -60zM70 860q0 -15 30 -24q48 -13 215 -19l45 57q44 55 76 134q34 75 37 125q0 30 -18 36q-21 7 -52 7q-39 0 -100 -21q-51 -20 -82 -59q-44 -61 -63 -90q-42 -59 -62 -95q-26 -47 -26 -51zM154 1649q0 38 41 88q44 41 104 41q38 0 74 -25
q33 -26 33 -59q0 -45 -58 -90q-52 -37 -108 -37q-37 0 -66 26q-20 26 -20 56zM639 1669q0 39 43 88q41 41 102 41q47 0 74 -24q35 -28 35 -60q0 -46 -59 -90q-56 -37 -107 -37q-38 0 -65 27q-23 30 -23 55z" />
    <glyph glyph-name="divide" unicode="&#xf7;" horiz-adv-x="1107" 
d="M510 1155q-47 0 -76 23q-31 25 -31 57q0 44 46 78q44 35 96 35q42 0 73 -25q31 -28 31 -66q-17 -102 -139 -102zM90 907q0 30 43 64q42 33 98 33q25 0 52 -9q27 -6 69 -6q50 0 248 25q167 22 227 22q80 0 113 -26q37 -27 37 -58q0 -25 -23 -45q-22 -22 -59 -22
q-22 0 -57 14q-64 31 -156 31q-142 0 -340 -66q-112 -41 -129 -41l-18 2l-50 13q-21 9 -36 30q-19 25 -19 39zM416 655q0 38 37 72q35 35 96 35q100 0 100 -88q-3 -97 -112 -103q-48 0 -84 25q-37 21 -37 59z" />
    <glyph glyph-name="oslash" unicode="&#xf8;" horiz-adv-x="1046" 
d="M315 817q149 190 158 316q0 30 -16 36q-21 7 -41 7q-101 -169 -195 -355zM-127 84q0 145 139 440q-32 0 -73 41q-39 45 -39 125q0 115 92 328q59 133 59 160q12 100 121 100q39 -3 72 -21q25 -17 47 -20q16 0 49 10q40 15 72 15l161 282q107 189 107 225q0 15 -2 21
q-4 12 -4 20q0 41 26 80q44 68 111 68q50 0 80 -37q29 -44 29 -78q0 -49 -37 -86t-97 -37q-27 0 -75 -69q-82 -117 -250 -400q65 -30 65 -121q-6 -103 -77 -239q-26 -43 -29 -53l2 -2q15 0 104 24q43 10 197 53q57 16 180 56q92 32 139 32q24 0 33 -12q8 -11 8 -49
q-3 -26 -30 -35q-33 -11 -127 -31q-283 -58 -422 -77q-67 -10 -88 -15q-51 -12 -80 -55q-107 -128 -246 -184q-32 -74 -72 -228q-34 -130 -34 -180q0 -31 8 -39q11 -11 33 -14q23 -3 34 -14t11 -33t-19 -51q-23 -29 -39 -29q-11 0 -32 -8h-11q-96 0 -96 137zM-8 655
q0 -36 35 -39q5 0 30 5l82 157q-42 9 -100 33l-10 -33q-2 -6 -6.5 -18t-8 -23.5t-6.5 -21.5q-13 -38 -16 -60zM70 860q0 -26 96 -35q135 247 194 346q-89 -15 -137 -75q-52 -70 -65 -90q-88 -128 -88 -146zM139 657q66 43 144 113l-56 -4l-34 2z" />
    <glyph glyph-name="ugrave" unicode="&#xf9;" horiz-adv-x="1171" 
d="M59 690q-29 0 -55 23q-55 46 -55 147q2 53 14 137q24 138 41 172q16 25 51 39q35 15 72 15q46 0 72 -23q26 -20 26 -49q0 -39 -41 -92q-42 -51 -67 -121q-28 -67 -31 -111v-20q4 -8 6 -8q18 0 232 190q153 135 163 135q6 0 15 -6q10 -7 16 -18q8 -11 8 -35
q-3 -37 -14 -84q-11 -46 -14 -86q0 -88 168 -94q79 0 204 35q132 41 181 75q56 39 98 39q26 0 39 -20q12 -18 12 -33q-3 -43 -88 -80q-83 -33 -203 -55q-115 -23 -221 -23h-8q-112 0 -170.5 53t-58.5 142v20q0 11 -5 11q-23 0 -139 -119q-163 -156 -248 -156zM145 2118
q0 30 27 51q25 22 53 22q20 0 37 -14q14 -14 14 -43q0 -14 -8 -25q-8 -16 -8 -24q0 -26 19.5 -73.5t117.5 -261.5q17 -37 27 -59.5t27.5 -61t33.5 -73.5q8 -18 20.5 -30.5t21 -18t8.5 -8.5q0 -15 -19 -31q-17 -14 -37 -14q-14 0 -22 8q-12 12 -56 123q-115 300 -149 378
t-53 93q-39 31 -41 31q-5 0 -8 8q-5 7 -5 23z" />
    <glyph glyph-name="uacute" unicode="&#xfa;" horiz-adv-x="1171" 
d="M59 690q-29 0 -55 23q-55 46 -55 147q2 53 14 137q24 138 41 172q16 25 51 39q35 15 72 15q46 0 72 -23q26 -20 26 -49q0 -39 -41 -92q-42 -51 -67 -121q-28 -67 -31 -111v-20q4 -8 6 -8q18 0 232 190q153 135 163 135q6 0 15 -6q10 -7 16 -18q8 -11 8 -35
q-3 -37 -14 -84q-11 -46 -14 -86q0 -88 168 -94q79 0 204 35q132 41 181 75q56 39 98 39q26 0 39 -20q12 -18 12 -33q-3 -43 -88 -80q-83 -33 -203 -55q-115 -23 -221 -23h-8q-112 0 -170.5 53t-58.5 142v20q0 11 -5 11q-23 0 -139 -119q-163 -156 -248 -156zM242 1585
q0 26 30 47q25 15 166 164t195 221q34 43 63 43q14 0 25 -8q12 -9 12 -22q0 -23 -45 -52q-62 -47 -190.5 -182.5t-128.5 -157.5q0 -9 6 -18t6 -25q0 -26 -25 -45q-22 -16 -47 -20q-23 0 -45 14q-22 16 -22 41z" />
    <glyph glyph-name="ucircumflex" unicode="&#xfb;" horiz-adv-x="1171" 
d="M59 690q-29 0 -55 23q-55 46 -55 147q2 53 14 137q24 138 41 172q16 25 51 39q35 15 72 15q46 0 72 -23q26 -20 26 -49q0 -39 -41 -92q-42 -51 -67 -121q-28 -67 -31 -111v-20q4 -8 6 -8q18 0 232 190q153 135 163 135q6 0 15 -6q10 -7 16 -18q8 -11 8 -35
q-3 -37 -14 -84q-11 -46 -14 -86q0 -88 168 -94q79 0 204 35q132 41 181 75q56 39 98 39q26 0 39 -20q12 -18 12 -33q-3 -43 -88 -80q-83 -33 -203 -55q-115 -23 -221 -23h-8q-112 0 -170.5 53t-58.5 142v20q0 11 -5 11q-23 0 -139 -119q-163 -156 -248 -156zM55 1536
q0 25 41 90q38 56 172.5 216t153.5 179q53 56 90 56q16 0 25 -6q33 -28 36 -123q3 -146 8 -224.5t10 -99t13 -27.5q21 -18 21 -36q0 -33 -45 -33q-32 0 -41 24q-11 29 -11 369q0 100 -10 100q-5 0 -24 -16q-25 -25 -68.5 -73.5t-101 -117.5t-98 -135t-40.5 -100
q0 -53 -41 -74q-24 -12 -39 -12q-16 0 -34 12q-17 14 -17 31z" />
    <glyph glyph-name="udieresis" unicode="&#xfc;" horiz-adv-x="1171" 
d="M59 690q-29 0 -55 23q-55 46 -55 147q2 53 14 137q24 138 41 172q16 25 51 39q35 15 72 15q46 0 72 -23q26 -20 26 -49q0 -39 -41 -92q-42 -51 -67 -121q-28 -67 -31 -111v-20q4 -8 6 -8q18 0 232 190q153 135 163 135q6 0 15 -6q10 -7 16 -18q8 -11 8 -35
q-3 -37 -14 -84q-11 -46 -14 -86q0 -88 168 -94q79 0 204 35q132 41 181 75q56 39 98 39q26 0 39 -20q12 -18 12 -33q-3 -43 -88 -80q-83 -33 -203 -55q-115 -23 -221 -23h-8q-112 0 -170.5 53t-58.5 142v20q0 11 -5 11q-23 0 -139 -119q-163 -156 -248 -156zM231 1546
q0 33 35 74q35 35 90 35q32 0 62 -21q26 -23 26 -51q0 -39 -47 -74q-53 -32 -94 -32q-32 0 -51 22q-21 21 -21 47zM510 1565q0 30 35 71q38 35 90 35q32 0 61 -20q27 -24 27 -49q0 -43 -47 -76q-51 -31 -92 -31q-34 0 -54 23q-20 20 -20 47z" />
    <glyph glyph-name="yacute" unicode="&#xfd;" horiz-adv-x="1525" 
d="M14 -598q-178 0 -178 188q0 224 279 568q277 341 688 610q73 46 104 74t31 57q0 25 -23 66q-38 86 -155 86q-170 0 -486 -199q-230 -133 -260 -133q-59 0 -59 84q0 115 92 344q35 87 74 104q46 17 80 17q42 0 80 -23q34 -21 34 -57q0 -33 -26 -62q-25 -32 -49 -32
q-23 0 -78 -64q-56 -62 -105 -135q-47 -71 -47 -100q0 -9 13 -9q41 0 200 99q364 219 527 219q64 0 106 -31t62 -72q26 -50 32 -73q11 -35 23 -41q25 0 121 47q107 50 190 74q88 26 143 26q46 -6 91 -39q41 -30 41 -59q0 -20 -17 -37q-15 -12 -37 -12q-23 0 -43 10
q-41 23 -92 23q-47 0 -145 -33q-119 -40 -191 -78q-48 -23 -55 -37q-12 -15 -12 -47q0 -137 -88 -373q-82 -228 -207 -426q-151 -235 -336 -381q-180 -143 -322 -143zM-137 -424q0 -47 8 -63q13 -21 27 -33q40 -37 96 -37q43 0 104 22q227 89 447 365q219 272 334 608
q69 210 69 305q0 15 -6 15q-15 0 -88 -43q-417 -244 -709 -596q-282 -341 -282 -543zM487 1329q0 25 31 47q44 28 158 180q30 43 63 43q14 0 25 -8q12 -9 12 -22q0 -20 -45 -51q-117 -88 -117 -136q0 -8 7 -18q6 -9 6 -25q0 -26 -25 -45q-22 -16 -47 -20q-23 0 -45 14
q-23 16 -23 41z" />
    <glyph glyph-name="thorn" unicode="&#xfe;" horiz-adv-x="1093" 
d="M-446 -508q-28 0 -46 21q-18 18 -18 100q0 311 281 893q90 194 106 268q14 48 35 80q29 50 29 76q0 40 96 127q94 94 225 264q36 48 194 265t298 408.5t159 211.5q67 73 101 73q47 -3 47 -47q0 -23 -30 -77t-155 -237.5t-378 -539.5q-90 -128 -90 -145q0 -2 2 -2
q121 47 196 47q142 0 142 -174q0 -12 -1.5 -27t-1.5 -16l-6 -33q87 29 135 43q48 10 95 10q71 0 114 -34q45 -51 45 -91q0 -49 -65 -49q-34 0 -53 29q-19 31 -70 31q-48 0 -154 -29q-53 -15 -84 -35q-24 -17 -38 -53q-78 -145 -240 -318q-259 -274 -393 -274q-33 0 -56 29
q-20 33 -20 61q0 37 35 105q60 122 217 256q155 132 362 239q133 68 138 68q4 8 4 39q0 79 -19 104q-22 25 -63 25q-63 0 -150 -37q-89 -41 -174 -105q-68 -56 -121 -133q-55 -76 -55 -108q0 -36 -33 -72q-30 -37 -73 -37l-54 4q-11 3 -43 6q-193 -382 -268 -593
q-74 -207 -80 -426q0 -30 6 -39q3 -9 15 -9q10 0 22 -12q17 -23 19 -26q8 -13 8 -27q0 -13 -15 -31q-20 -24 -36 -33q-20 -14 -43 -14zM-14 348q0 -26 45 -26q127 0 368 247q143 146 242 308q0 4 -6 4q-9 0 -70 -23q-196 -90 -344 -211q-152 -122 -213 -241q-22 -46 -22 -58
z" />
    <glyph glyph-name="ydieresis" unicode="&#xff;" horiz-adv-x="1525" 
d="M14 -598q-178 0 -178 188q0 224 279 568q277 341 688 610q73 46 104 74t31 57q0 25 -23 66q-38 86 -155 86q-170 0 -486 -199q-230 -133 -260 -133q-59 0 -59 84q0 115 92 344q35 87 74 104q46 17 80 17q42 0 80 -23q34 -21 34 -57q0 -33 -26 -62q-25 -32 -49 -32
q-23 0 -78 -64q-56 -62 -105 -135q-47 -71 -47 -100q0 -9 13 -9q41 0 200 99q364 219 527 219q64 0 106 -31t62 -72q26 -50 32 -73q11 -35 23 -41q25 0 121 47q107 50 190 74q88 26 143 26q46 -6 91 -39q41 -30 41 -59q0 -20 -17 -37q-15 -12 -37 -12q-23 0 -43 10
q-41 23 -92 23q-47 0 -145 -33q-119 -40 -191 -78q-48 -23 -55 -37q-12 -15 -12 -47q0 -137 -88 -373q-82 -228 -207 -426q-151 -235 -336 -381q-180 -143 -322 -143zM-137 -424q0 -47 8 -63q13 -21 27 -33q40 -37 96 -37q43 0 104 22q227 89 447 365q219 272 334 608
q69 210 69 305q0 15 -6 15q-15 0 -88 -43q-417 -244 -709 -596q-282 -341 -282 -543zM430 1548q0 33 35 74q35 35 90 35q31 0 61 -21q27 -24 27 -51q0 -39 -47 -74q-53 -32 -94 -32q-32 0 -51 22q-21 21 -21 47zM709 1567q0 31 34 71q38 35 91 35q32 0 61 -20q27 -24 27 -49
q0 -43 -48 -76q-51 -31 -92 -31q-33 0 -53 23q-20 20 -20 47z" />
    <glyph glyph-name="Amacron" unicode="&#x100;" horiz-adv-x="2230" 
d="M1825 -385q-30 0 -53 57q-73 122 -76 475q0 292 82 988q-13 5 -31 16q-20 8 -113 25q-87 18 -171 32t-169.5 25.5t-109.5 15.5l-13 2l-24 -6q-24 -16 -60 -71q-212 -324 -331 -572q-101 -206 -101 -283q0 -12 17 -32q22 -31 22 -60q0 -28 -14 -39q-12 -12 -31 -12
q-59 0 -71 113q0 103 90 278q78 157 274 463q123 188 123 217v2h-88q-761 -41 -1081 -274l-37 -27q12 -27 32 -57q15 -18 15 -37q0 -36 -43 -51q-76 25 -82 96q0 43 10 76q44 130 381 229q358 108 789 117l81 2q21 0 62 -8q9 0 26 20q12 12 56 70q29 38 98 141
q303 445 436 666q127 208 133 272q2 17 33 56q24 35 60 63t55 31l2 -2q33 0 39 -64q0 -37 -2 -41q-37 -146 -88 -477q-18 -114 -125 -858q209 -74 327 -160q111 -83 123 -192q0 -50 -10 -88q-9 -33 -41 -33q-62 0 -80 129q-15 96 -114 166q-101 69 -205 102
q-31 -245 -51 -510q-7 -182 -7 -303q0 -443 89 -543q30 -38 30 -65l-2 -6q0 -27 -18 -51q-19 -22 -39 -25zM1180 1313q175 -12 608 -103l6 29q39 182 113 784q22 193 22 279q0 22 -2 22q-23 -11 -151 -182q-106 -138 -299 -405q-152 -209 -297 -424zM1681 2972q0 48 43 75
q44 29 99 29q25 0 49 -6q52 -14 227 -14q318 0 355 -11q22 -16 22 -39q0 -22 -18 -43q-22 -22 -52 -22q-24 0 -65 8l-100 12q-68 7 -119 7q-150 0 -258 -27q-80 -25 -113 -25q-26 0 -47 15q-23 16 -23 41z" />
    <glyph glyph-name="amacron" unicode="&#x101;" horiz-adv-x="1529" 
d="M688 514q-178 0 -252 117q-51 80 -86 262q-18 117 -33 135q-26 0 -297 -235q-79 -70 -116 -70q-29 0 -35 51q0 44 61 129q64 89 142 170q86 86 149 121q51 23 101 23q89 0 159 -46q74 -47 74 -100q0 -39 -39 -65q-47 -32 -100 -29l-58 4q21 -183 64 -276q29 -68 94 -111
q45 -31 115 -31t125 10q46 8 131 50q148 74 309 172q182 111 250 168q75 63 127 63q42 0 45 -47q0 -11 -4 -31q-22 -51 -168 -139q-156 -92 -332 -170q-283 -125 -426 -125zM8 860q11 0 133 113q70 61 70 69h-4q-62 -47 -131 -110q-68 -68 -68 -72zM55 1651q0 48 43 75
q43 29 99 29q25 0 49 -6q52 -14 227 -14q317 0 354 -11q23 -16 23 -38t-19 -44q-22 -22 -51 -22q-24 0 -65 8l-101 12q-68 7 -118 7q-150 0 -258 -27q-80 -25 -113 -25q-26 0 -47 15q-23 16 -23 41z" />
    <glyph glyph-name="Abreve" unicode="&#x102;" horiz-adv-x="2230" 
d="M1825 -385q-30 0 -53 57q-73 122 -76 475q0 292 82 988q-13 5 -31 16q-20 8 -113 25q-87 18 -171 32t-169.5 25.5t-109.5 15.5l-13 2l-24 -6q-24 -16 -60 -71q-212 -324 -331 -572q-101 -206 -101 -283q0 -12 17 -32q22 -31 22 -60q0 -28 -14 -39q-12 -12 -31 -12
q-59 0 -71 113q0 103 90 278q78 157 274 463q123 188 123 217v2h-88q-761 -41 -1081 -274l-37 -27q12 -27 32 -57q15 -18 15 -37q0 -36 -43 -51q-76 25 -82 96q0 43 10 76q44 130 381 229q358 108 789 117l81 2q21 0 62 -8q9 0 26 20q12 12 56 70q29 38 98 141
q303 445 436 666q127 208 133 272q2 17 33 56q24 35 60 63t55 31l2 -2q33 0 39 -64q0 -37 -2 -41q-37 -146 -88 -477q-18 -114 -125 -858q209 -74 327 -160q111 -83 123 -192q0 -50 -10 -88q-9 -33 -41 -33q-62 0 -80 129q-15 96 -114 166q-101 69 -205 102
q-31 -245 -51 -510q-7 -182 -7 -303q0 -443 89 -543q30 -38 30 -65l-2 -6q0 -27 -18 -51q-19 -22 -39 -25zM1180 1313q175 -12 608 -103l6 29q39 182 113 784q22 193 22 279q0 22 -2 22q-23 -11 -151 -182q-106 -138 -299 -405q-152 -209 -297 -424zM1905 2888
q-33 35 -32 105.5t38 133.5q12 22 43.5 41t58.5 19q37 0 51 -17q9 -6 5 -27.5t-21 -33.5q-25 -18 -39 -34t-26.5 -41.5t-11.5 -61.5t16 -84q3 -10 24 -19.5t37 -9.5q19 0 45 16q21 13 47 39q110 125 115 183q3 19 20 36q22 19 35 19q23 0 37 -14q15 -18 12 -31
q-5 -50 -57 -119.5t-94 -105.5q-90 -78 -164 -78q-70 0 -139 84z" />
    <glyph glyph-name="abreve" unicode="&#x103;" horiz-adv-x="1529" 
d="M688 514q-178 0 -252 117q-51 80 -86 262q-18 117 -33 135q-26 0 -297 -235q-79 -70 -116 -70q-29 0 -35 51q0 44 61 129q64 89 142 170q86 86 149 121q51 23 101 23q89 0 159 -46q74 -47 74 -100q0 -39 -39 -65q-47 -32 -100 -29l-58 4q21 -183 64 -276q29 -68 94 -111
q45 -31 115 -31t125 10q46 8 131 50q148 74 309 172q182 111 250 168q75 63 127 63q42 0 45 -47q0 -11 -4 -31q-22 -51 -168 -139q-156 -92 -332 -170q-283 -125 -426 -125zM8 860q11 0 133 113q70 61 70 69h-4q-62 -47 -131 -110q-68 -68 -68 -72zM279 1567
q-33 35 -32 105.5t38 133.5q12 22 43.5 41t58.5 19q37 0 51 -17q9 -6 5 -27.5t-21 -33.5q-25 -18 -39.5 -34t-27 -41.5t-11.5 -61.5t16 -84q3 -10 24.5 -19.5t37.5 -9.5q19 0 45 16q21 13 47 39q110 125 115 183q3 19 20 36q22 19 35 19q23 0 37 -14q15 -18 12 -31
q-5 -50 -57 -119.5t-94 -105.5q-90 -78 -164 -78q-70 0 -139 84z" />
    <glyph glyph-name="Aogonek" unicode="&#x104;" horiz-adv-x="2230" 
d="M1825 -385q-22 0 -43 35q-38 -30 -84 -92q-72 -103 -72 -209q0 -36 6 -66q6 -20 47 -35q33 -20 74 -20q25 0 84 27q47 24 88 24q56 0 62 -57q0 -39 -58 -70q-56 -29 -119 -29q-101 0 -174 86q-65 94 -65 193q0 105 31 176q43 94 143 156q-46 125 -49 413q0 292 82 988
q-13 5 -31 16q-20 8 -113 25q-87 18 -171 32t-169.5 25.5t-109.5 15.5l-13 2l-24 -6q-24 -16 -60 -71q-212 -324 -331 -572q-101 -206 -101 -283q0 -12 17 -32q22 -31 22 -60q0 -28 -14 -39q-12 -12 -31 -12q-59 0 -71 113q0 103 90 278q78 157 274 463q123 188 123 217v2
h-88q-761 -41 -1081 -274l-37 -27q12 -27 32 -57q15 -18 15 -37q0 -36 -43 -51q-76 25 -82 96q0 43 10 76q44 130 381 229q358 108 789 117l81 2q21 0 62 -8q9 0 26 20q12 12 56 70q29 38 98 141q303 445 436 666q127 208 133 272q2 17 33 56q24 35 60 63t55 31l2 -2
q33 0 39 -64q0 -37 -2 -41q-37 -146 -88 -477q-18 -114 -125 -858q209 -74 327 -160q111 -83 123 -192q0 -50 -10 -88q-9 -33 -41 -33q-62 0 -80 129q-15 96 -114 166q-101 69 -205 102q-31 -245 -51 -510q-7 -182 -7 -303q0 -415 76 -528q28 4 41 4q48 0 67 -10t12 -24
t-28 -28t-49 -24l-2 -4q0 -27 -18 -51q-19 -22 -39 -25zM1180 1313q175 -12 608 -103l6 29q39 182 113 784q22 193 22 279q0 22 -2 22q-23 -11 -151 -182q-106 -138 -299 -405q-152 -209 -297 -424z" />
    <glyph glyph-name="aogonek" unicode="&#x105;" horiz-adv-x="1529" 
d="M688 514q-80 -17 -158 -127q-71 -101 -71 -209q0 -35 6 -65q6 -20 47 -35q34 -21 74 -21q25 0 84 27q49 25 88 25q55 0 61 -58q0 -38 -57 -69q-56 -29 -119 -29q-101 0 -174 86q-66 95 -66 192q0 106 31 177q30 67 109 133q-65 26 -107 90q-51 80 -86 262
q-18 117 -33 135q-26 0 -297 -235q-79 -70 -116 -70q-29 0 -35 51q0 44 61 129q64 89 142 170q86 86 149 121q51 23 101 23q89 0 159 -46q74 -47 74 -100q0 -39 -39 -65q-47 -32 -100 -29l-58 4q21 -183 64 -276q29 -68 94 -111q33 -22 68 -27q71 41 135 41q73 0 80 -22
q24 8 88 37q148 74 309 172q182 111 250 168q75 63 127 63q42 0 45 -47q0 -11 -4 -31q-22 -51 -168 -139q-156 -92 -332 -170q-283 -125 -426 -125zM8 860q11 0 133 113q70 61 70 69h-4q-62 -47 -131 -110q-68 -68 -68 -72z" />
    <glyph glyph-name="Cacute" unicode="&#x106;" horiz-adv-x="2441" 
d="M688 -207q-165 0 -282 60q-201 97 -293 262q-93 162 -93 405q0 170 35 316q131 415 477 823q310 343 701 600q393 258 598 258q43 -3 70 -12q26 -9 55 -41q26 -29 26 -86q0 -114 -36 -230q-37 -106 -154 -282q-131 -194 -326 -404q-201 -214 -374 -346
q-183 -143 -277 -143q-104 0 -104 76q0 35 28 57q24 19 111 55q205 81 547 426q326 320 458 590q66 126 66 178q0 76 -106 76q-176 0 -517 -209q-341 -207 -643 -512q-397 -415 -561 -883q-16 -50 -26 -94q-10 -47 -13 -90q-4 -70 -4 -141q0 -172 15 -219q7 -30 24 -66
q111 -224 367 -330q56 -22 102 -28q70 -4 148 -4q178 0 344 63q162 59 383 207q246 167 493 381q289 247 426 401q97 109 141 109q18 0 29 -17q14 -14 14 -34q0 -48 -145 -181q-241 -229 -541 -458q-304 -228 -520 -349q-359 -184 -643 -184zM1702 2693q0 25 31 47
q25 14 165.5 163t194.5 222q34 43 64 43q13 0 24 -8q12 -9 12 -22q0 -23 -45 -52q-62 -47 -190.5 -182.5t-128.5 -157.5q0 -9 6 -18t6 -25q0 -27 -24 -45q-22 -16 -48 -20q-23 0 -45 14q-22 16 -22 41z" />
    <glyph glyph-name="cacute" unicode="&#x107;" horiz-adv-x="1349" 
d="M31 305q-105 0 -156 60q-49 61 -49 153q0 173 147 440q49 92 117 162q79 88 146 88q56 0 102 -55q45 -54 45 -131q0 -59 -49 -86q-53 -29 -82 -29q-39 0 -70 25q-32 22 -32 49q0 25 -5 25t-26 -21q-88 -88 -164 -231q-86 -165 -92 -265q0 -127 168 -127q124 3 278 62
q151 60 436 209q283 153 486 287q118 71 145 71q18 0 29 -14q14 -11 14 -31q0 -36 -110 -100q-113 -69 -414 -217q-337 -167 -543 -246q-210 -78 -321 -78zM285 1665q0 26 30 47q25 15 166 164t195 221q34 43 63 43q14 0 25 -8q12 -9 12 -23q0 -22 -45 -51
q-62 -47 -190.5 -182.5t-128.5 -157.5q0 -9 6 -18t6 -25q0 -26 -25 -45q-22 -16 -47 -20q-23 0 -45 14q-22 16 -22 41z" />
    <glyph glyph-name="Ccircumflex" unicode="&#x108;" horiz-adv-x="2441" 
d="M688 -207q-165 0 -282 60q-201 97 -293 262q-93 162 -93 405q0 170 35 316q131 415 477 823q310 343 701 600q393 258 598 258q43 -3 70 -12q26 -9 55 -41q26 -29 26 -86q0 -114 -36 -230q-37 -106 -154 -282q-131 -194 -326 -404q-201 -214 -374 -346
q-183 -143 -277 -143q-104 0 -104 76q0 35 28 57q24 19 111 55q205 81 547 426q326 320 458 590q66 126 66 178q0 76 -106 76q-176 0 -517 -209q-341 -207 -643 -512q-397 -415 -561 -883q-16 -50 -26 -94q-10 -47 -13 -90q-4 -70 -4 -141q0 -172 15 -219q7 -30 24 -66
q111 -224 367 -330q56 -22 102 -28q70 -4 148 -4q178 0 344 63q162 59 383 207q246 167 493 381q289 247 426 401q97 109 141 109q18 0 29 -17q14 -14 14 -34q0 -48 -145 -181q-241 -229 -541 -458q-304 -228 -520 -349q-359 -184 -643 -184zM1516 2644q0 26 40 90
q38 56 172.5 216t153.5 179q53 56 90 56q14 0 25 -7q34 -29 37 -122q3 -146 7.5 -224.5t9.5 -99t13 -27.5q21 -18 21 -36q0 -33 -45 -33q-32 0 -41 24q-10 27 -10 369q0 100 -11 100q-5 0 -24 -16q-24 -24 -68 -73.5t-101 -118t-97.5 -134.5t-40.5 -100q0 -53 -41 -74
q-24 -12 -39 -12q-17 0 -35 12q-16 13 -16 31z" />
    <glyph glyph-name="ccircumflex" unicode="&#x109;" horiz-adv-x="1349" 
d="M31 305q-105 0 -156 60q-49 61 -49 153q0 173 147 440q49 92 117 162q79 88 146 88q56 0 102 -55q45 -54 45 -131q0 -59 -49 -86q-53 -29 -82 -29q-39 0 -70 25q-32 22 -32 49q0 25 -5 25t-26 -21q-88 -88 -164 -231q-86 -165 -92 -265q0 -127 168 -127q124 3 278 62
q151 60 436 209q283 153 486 287q118 71 145 71q18 0 29 -14q14 -11 14 -31q0 -36 -110 -100q-113 -69 -414 -217q-337 -167 -543 -246q-210 -78 -321 -78zM98 1616q0 25 41 90q38 56 172.5 216t153.5 179q53 56 90 56q15 0 25 -7q33 -28 36 -122q3 -146 8 -224.5t10 -99
t13 -27.5q21 -18 21 -37q0 -32 -45 -32q-32 0 -41 24q-11 29 -11 369q0 100 -10 100q-5 0 -24 -16q-25 -25 -68.5 -73.5t-101 -117.5t-98 -135t-40.5 -100q0 -53 -41 -74q-24 -12 -38 -12q-17 0 -35 12q-17 14 -17 31z" />
    <glyph glyph-name="Cdotaccent" unicode="&#x10a;" horiz-adv-x="2441" 
d="M688 -207q-165 0 -282 60q-201 97 -293 262q-93 162 -93 405q0 170 35 316q131 415 477 823q310 343 701 600q393 258 598 258q43 -3 70 -12q26 -9 55 -41q26 -29 26 -86q0 -114 -36 -230q-37 -106 -154 -282q-131 -194 -326 -404q-201 -214 -374 -346
q-183 -143 -277 -143q-104 0 -104 76q0 35 28 57q24 19 111 55q205 81 547 426q326 320 458 590q66 126 66 178q0 76 -106 76q-176 0 -517 -209q-341 -207 -643 -512q-397 -415 -561 -883q-16 -50 -26 -94q-10 -47 -13 -90q-4 -70 -4 -141q0 -172 15 -219q7 -30 24 -66
q111 -224 367 -330q56 -22 102 -28q70 -4 148 -4q178 0 344 63q162 59 383 207q246 167 493 381q289 247 426 401q97 109 141 109q18 0 29 -17q14 -14 14 -34q0 -48 -145 -181q-241 -229 -541 -458q-304 -228 -520 -349q-359 -184 -643 -184zM1704 2814q0 27 31 63
q29 33 80 33q28 0 55 -18q24 -21 24 -45q0 -38 -43 -68q-47 -29 -82 -29q-31 0 -49 21q-16 16 -16 43z" />
    <glyph glyph-name="cdotaccent" unicode="&#x10b;" horiz-adv-x="1349" 
d="M31 305q-105 0 -156 60q-49 61 -49 153q0 173 147 440q49 92 117 162q79 88 146 88q56 0 102 -55q45 -54 45 -131q0 -59 -49 -86q-53 -29 -82 -29q-39 0 -70 25q-32 22 -32 49q0 25 -5 25t-26 -21q-88 -88 -164 -231q-86 -165 -92 -265q0 -127 168 -127q124 3 278 62
q151 60 436 209q283 153 486 287q118 71 145 71q18 0 29 -14q14 -11 14 -31q0 -36 -110 -100q-113 -69 -414 -217q-337 -167 -543 -246q-210 -78 -321 -78zM287 1786q0 28 30 63q29 33 80 33q29 0 56 -18q24 -21 24 -45q0 -38 -43 -68q-47 -29 -82 -29q-31 0 -49 21
q-16 16 -16 43z" />
    <glyph glyph-name="Ccaron" unicode="&#x10c;" horiz-adv-x="2441" 
d="M688 -207q-165 0 -282 60q-201 97 -293 262q-93 162 -93 405q0 170 35 316q131 415 477 823q310 343 701 600q393 258 598 258q43 -3 70 -12q26 -9 55 -41q26 -29 26 -86q0 -114 -36 -230q-37 -106 -154 -282q-131 -194 -326 -404q-201 -214 -374 -346
q-183 -143 -277 -143q-104 0 -104 76q0 35 28 57q24 19 111 55q205 81 547 426q326 320 458 590q66 126 66 178q0 76 -106 76q-176 0 -517 -209q-341 -207 -643 -512q-397 -415 -561 -883q-16 -50 -26 -94q-10 -47 -13 -90q-4 -70 -4 -141q0 -172 15 -219q7 -30 24 -66
q111 -224 367 -330q56 -22 102 -28q70 -4 148 -4q178 0 344 63q162 59 383 207q246 167 493 381q289 247 426 401q97 109 141 109q18 0 29 -17q14 -14 14 -34q0 -48 -145 -181q-241 -229 -541 -458q-304 -228 -520 -349q-359 -184 -643 -184zM1511 3215q0 33 45 33
q34 0 43 -24q7 -20 25 -377q7 -97 10 -101q8 0 25 17q41 39 171 264.5t130 259.5q0 54 41 74q21 12 39 12q15 0 33 -12q16 -11 16 -31q0 -29 -41 -90q-2 -2 -54.5 -88t-101 -163.5t-98 -153.5t-61.5 -89q-55 -55 -93 -55q-13 0 -22 6q-22 16 -37 123q-2 15 -12 107
t-20.5 169t-16.5 82q-21 18 -21 37z" />
    <glyph glyph-name="ccaron" unicode="&#x10d;" horiz-adv-x="1349" 
d="M31 305q-105 0 -156 60q-49 61 -49 153q0 173 147 440q49 92 117 162q79 88 146 88q56 0 102 -55q45 -54 45 -131q0 -59 -49 -86q-53 -29 -82 -29q-39 0 -70 25q-32 22 -32 49q0 25 -5 25t-26 -21q-88 -88 -164 -231q-86 -165 -92 -265q0 -127 168 -127q124 3 278 62
q151 60 436 209q283 153 486 287q118 71 145 71q18 0 29 -14q14 -11 14 -31q0 -36 -110 -100q-113 -69 -414 -217q-337 -167 -543 -246q-210 -78 -321 -78zM94 2187q0 33 45 33q34 0 43 -25q7 -20 25 -376q7 -97 10 -101q8 0 25 17q41 39 171 264.5t130 259.5q0 54 41 74
q21 12 39 12q14 0 32 -12q17 -11 17 -31q0 -29 -41 -90q-3 -5 -39 -63t-75 -120.5t-82.5 -131.5t-76.5 -119t-43 -60q-55 -55 -92 -55q-13 0 -22 6q-22 16 -37 123q-2 15 -12 107t-20.5 169t-16.5 82q-21 18 -21 37z" />
    <glyph glyph-name="Dcaron" unicode="&#x10e;" horiz-adv-x="2811" 
d="M616 -197q-33 0 -73 19q-41 20 -64 61q-29 57 -24 123l4 64q27 421 882 1718q185 283 185 293q-29 0 -264 -113q-379 -186 -691 -475q-233 -217 -333 -412q-43 -76 -43 -118t36 -68q35 -27 35 -59t-35 -56t-92 -24t-104 41t-47 86q6 136 139 327q141 203 395 414
q288 243 520 363q173 91 607 272q123 215 123 274q0 49 34 76t78 27q50 0 86 -33q39 -33 39 -80q0 -51 -67 -78q-15 -6 -58 -41q-43 -37 -63 -63q-31 -31 -31 -41v-2q40 4 152 29q272 59 479 59q279 0 444 -107q164 -105 164 -315q0 -232 -203 -573q-198 -338 -569 -721
q-366 -372 -678 -561q-307 -183 -483 -183q-129 0 -185 103q-8 13 -8 43q3 103 41 190q43 91 158 209q426 423 938 561q111 27 168 27q50 0 71 -21q23 -23 23 -39q0 -11 -14 -28q-10 -19 -47 -31q-47 -15 -123 -31q-338 -73 -674 -301q-216 -150 -342 -282
q-141 -141 -141 -224q0 -47 43 -77q42 -33 114 -33q211 0 584 262q376 262 725 657q541 643 541 998q0 153 -105 248q-66 59 -133 84q-106 32 -293 32q-177 0 -414 -47q-299 -62 -356 -98q-60 -48 -244 -320q-174 -258 -374 -596q-494 -837 -494 -1165q0 -61 14 -86
q15 -25 60 -37q63 -21 63 -67q0 -23 -22 -39q-21 -15 -54 -15zM2148 3133q0 33 45 33q34 0 43 -24q7 -20 25 -377q7 -97 10 -101q8 0 25 17q41 39 171 264.5t130 259.5q0 54 41 74q21 12 39 12q15 0 33 -12q16 -11 16 -31q0 -29 -41 -90q-2 -2 -54.5 -88t-101 -163.5
t-98 -153.5t-61.5 -89q-55 -55 -93 -55q-13 0 -22 6q-22 16 -37 123q-2 15 -12 107t-20.5 169.5t-16.5 82.5q-21 18 -21 36z" />
    <glyph glyph-name="dcaron" unicode="&#x10f;" horiz-adv-x="878" 
d="M260 -545q-48 0 -86 47q-43 46 -43 160q6 354 186 834q172 446 537 1093l41 82h-2q-71 -60 -299 -311q-238 -256 -262 -295q-16 -34 -72 -80q-64 -59 -115 -115q-125 -137 -196 -137q-34 0 -55 27q-21 24 -21 67q0 62 94 205q154 238 262 238q33 0 58 -21l22 -10
q29 0 209 195q201 201 400 424q195 210 229 210q29 0 35 -24q-14 -52 -201 -358q-648 -1063 -739 -1754q-14 -133 -19 -219q0 -136 37 -139q11 0 37 16q41 23 55 23q20 0 39 -16q17 -17 17 -37q0 -42 -50 -72q-47 -33 -98 -33zM1257 1724q0 26 31 48q25 15 166 164t195 221
q34 43 63 43q13 0 25 -9t12 -22q0 -22 -45 -51q-62 -47 -191 -182.5t-129 -157.5q0 -9 7 -19q6 -9 6 -24q0 -26 -25 -45q-24 -18 -47 -21q-23 0 -45 14q-23 16 -23 41z" />
    <glyph glyph-name="Dcroat" unicode="&#x110;" horiz-adv-x="2811" 
d="M616 -197q-33 0 -73 19q-41 20 -64 61q-29 57 -24 123l4 64q17 295 465 1054q-104 -3 -183 -24q-80 -25 -112 -25q-26 0 -47 15q-23 16 -23 40q0 49 43 76q43 29 98 29q26 0 50 -6q56 -15 227 -15q161 265 364 574q185 283 185 293q-29 0 -264 -113q-379 -186 -691 -475
q-233 -217 -333 -412q-43 -76 -43 -118t36 -68q35 -27 35 -59t-35 -56t-92 -24t-104 41t-47 86q6 136 139 327q141 203 395 414q288 243 520 363q173 91 607 272q123 215 123 274q0 49 34 76t78 27q50 0 86 -33q39 -33 39 -80q0 -51 -67 -78q-15 -6 -58 -41q-43 -37 -63 -63
q-31 -31 -31 -41v-2q40 4 152 29q272 59 479 59q279 0 444 -107q164 -105 164 -315q0 -232 -203 -573q-198 -338 -569 -721q-366 -372 -678 -561q-307 -183 -483 -183q-129 0 -185 103q-8 13 -8 43q3 103 41 190q43 91 158 209q426 423 938 561q111 27 168 27q50 0 71 -21
q23 -23 23 -39q0 -11 -14 -28q-10 -19 -47 -31q-47 -15 -123 -31q-338 -73 -674 -301q-216 -150 -342 -282q-141 -141 -141 -224q0 -47 43 -77q42 -33 114 -33q211 0 584 262q376 262 725 657q541 643 541 998q0 153 -105 248q-66 59 -133 84q-106 32 -293 32
q-177 0 -414 -47q-299 -62 -356 -98q-60 -48 -244 -320q-191 -282 -372 -594q250 0 280 -10q23 -16 23 -39q0 -21 -19 -43q-22 -22 -51 -22q-24 0 -65 8l-101 12q-58 6 -121 6q-442 -770 -442 -1079q0 -61 14 -86q15 -25 60 -37q63 -21 63 -67q0 -23 -22 -39
q-21 -15 -54 -15z" />
    <glyph glyph-name="dcroat" unicode="&#x111;" horiz-adv-x="878" 
d="M260 -545q-48 0 -86 47q-43 46 -43 160q6 354 186 834q172 446 537 1093l41 82h-2q-71 -60 -299 -311q-238 -256 -262 -295q-16 -34 -72 -80q-64 -59 -115 -115q-125 -137 -196 -137q-34 0 -55 27q-21 24 -21 67q0 62 94 205q154 238 262 238q33 0 58 -21l22 -10
q29 0 209 195q136 136 283 295q-90 -7 -152 -23q-80 -25 -112 -25q-27 0 -48 15q-22 16 -22 41q0 48 43 75q44 29 98 29q25 0 49 -6q52 -14 228 -14l33 37q195 210 229 210q29 0 35 -24q-11 -40 -121 -225q147 0 178 -9q23 -16 23 -38q0 -21 -19 -43q-23 -23 -51 -23
q-25 0 -66 8l-100 12q-3 0 -9 1.5t-9 1.5l-27 -43q-648 -1063 -739 -1754q-14 -133 -19 -219q0 -136 37 -139q11 0 37 16q41 23 55 23q20 0 39 -16q17 -17 17 -37q0 -42 -50 -72q-47 -33 -98 -33z" />
    </font>
</defs>
</svg>
