<?xml version="1.0" standalone="no"?>
<!DOCTYPE svg PUBLIC "-//W3C//DTD SVG 1.1//EN" "http://www.w3.org/Graphics/SVG/1.1/DTD/svg11.dtd" >
<svg xmlns="http://www.w3.org/2000/svg" xmlns:xlink="http://www.w3.org/1999/xlink" version="1.1">
<metadata>
Created by FontForge 20170731 at Thu Jun 16 07:36:35 2022
 By Aleksey,,,
2021 (C) Copyright by Mans Greback AB 
</metadata>
<defs>
<font id="MonitaSignaturePERSONALUSE-RegularItalic" horiz-adv-x="0" >
  <font-face 
    font-family="Monita Signature PERSONAL USE"
    font-weight="400"
    font-style="italic"
    font-stretch="normal"
    units-per-em="2048"
    panose-1="0 0 0 0 0 0 0 0 0 0"
    ascent="1638"
    descent="-410"
    x-height="1223"
    cap-height="2666"
    bbox="-1726.08 -1059.8 20599.4 4168"
    underline-thickness="102"
    underline-position="-358"
    unicode-range="U+0020-FB02"
  />
<missing-glyph horiz-adv-x="2097" 
 />
    <glyph glyph-name="mn.sg" unicode="&#x30;&#x30;&#x30;&#x30;&#x30;&#x30;&#x30;&#x30;&#x30;&#x30;" horiz-adv-x="4591" 
d="M2466 2157q-65 0 -107.5 33t-46.5 94q-6 39 -6 116q0 21 -2.5 82.5t-1 105.5t9.5 81q21 96 148 100q128 0 159 -88q9 -28 12.5 -65.5t3.5 -65t-1.5 -69.5t-1.5 -58q0 -103 -6 -146q-13 -64 -51.5 -92t-108.5 -28zM162 174l8 692h113l84 -434l77 434h119l2 -692h-96
l-12 287l-47 -287h-82l-58 281l-6 -281h-102zM655 174v692h88l119 -331v331h109v-692h-86l-121 338v-338h-109zM719 -446q0 49 23.5 77t68.5 21q20 -1 34 -9t21 -17.5t10.5 -26t4 -26.5t0.5 -28h-37q0 38 -4 58q-10 19 -34 20.5t-36 -12.5q-8 -13 -9.5 -33t1 -45t2.5 -29
t-2.5 -33t0 -48.5t12.5 -30.5q9 -19 32.5 -16.5t33.5 26.5q4 14 4 49h37q0 -22 -2 -37t-9 -34t-24 -29t-43 -10q-23 0 -39 7.5t-25 22t-14.5 30t-6.5 38t-1 39.5t1 41t1 35zM913 -496q0 31 1 47.5t6 40.5t14.5 35.5t28.5 19.5t47 5q12 -1 22 -4t17.5 -7t13 -12.5t9.5 -14
t6.5 -17.5t4 -17.5t2 -20t0.5 -19v-19.5v-17v-25t-0.5 -24t-2 -25.5l-4.5 -22.5t-7 -22t-10.5 -17.5t-15 -15t-20.5 -8t-26 -3.5q-18 0 -32 4.5t-23 10.5t-15.5 19t-9.5 21t-4.5 26.5t-2 26t0 29t0.5 26.5zM922 2163v604h133q108 0 141 -70q31 -52 25.5 -120.5t-52.5 -110.5
q-14 -12 -37.5 -17.5t-39 -6.5t-51.5 0t-42 1v-280h-77zM924 1702v379h86v-408q0 -5 -0.5 -24.5t0 -28t2.5 -25t6.5 -25.5t14 -20t22.5 -18q41 -14 68 6t36.5 52.5t9.5 72.5v418h84v-279q0 -14 1 -48.5t1 -56.5t-2 -55t-8.5 -55.5t-17.5 -46.5t-30.5 -39.5t-45.5 -23.5
q-56 -21 -119 1t-88 81q-20 35 -20 143zM954 -473q0 -3 -1 -25t0 -36.5t3 -34.5t9 -33.5t18 -20.5q11 -5 20 -6.5t14.5 2t9.5 8.5t6 13.5t3 17t0.5 19t-1 19.5t-1 18.5t-0.5 15.5t4 44t1 61t-19 30q-27 9 -46.5 -8t-19.5 -47v-37zM999 2499q6 0 20.5 -0.5t23 -0.5t21.5 1.5
t23 5.5q34 14 44 34t10 54q0 28 -2 44t-14.5 34.5t-37.5 25.5q-13 4 -27.5 5t-34.5 0t-26 -1v-202zM1026 -276v309h125v-33h-70v-104h56v-29h-56v-143h-55zM1049 174v125h118v-125h-118zM1130 -655v307h44l55 -246l49 246h47v-307h-25v219l-55 -219h-37l-43 219v-219h-35z
M1174 -111q0 29 0.5 44.5t5.5 40.5t14.5 37.5t28.5 22.5t47 9q13 -2 23 -6t17 -12t12.5 -15.5t8.5 -20t5 -21t2.5 -24t0.5 -23v-23.5v-21q0 -26 -0.5 -38t-2.5 -35t-7 -34.5t-13 -25t-22.5 -19.5t-33.5 -6q-25 0 -42 11.5t-25.5 26t-13 41t-5 41.5t-0.5 42v8zM1210 416
l109 6q0 -84 27 -123q16 -32 43 -23q28 8 28 58q0 25 -13 52t-25 42.5t-38 43t-32 34.5q-8 11 -33 35t-29 39q-47 67 -28 159q2 75 72 115t143 6q90 -44 90 -221l-107 -6q-2 11 -4 38t-4 44.5t-11.5 33.5t-25.5 19q-24 1 -38 -16.5t-13.5 -38t4.5 -35.5q5 -14 14 -27
t13.5 -18t21 -19.5t17.5 -15.5l55 -63q95 -98 80 -230q-2 -48 -33.5 -87t-87.5 -52q-51 -8 -98 14t-68 68q-29 74 -29 168zM1221 -104q0 -5 -2.5 -31t-3 -45.5t6.5 -39t23 -24.5q20 -5 33 4.5t17.5 31t6 36t1.5 35.5q0 5 1 24t1 33t-2 31.5t-8.5 29.5t-16.5 17
q-23 16 -40 -3.5t-17 -47.5v-51zM1278 2163v604h231v-66h-151v-202h125v-56h-125v-221h153v-59h-233zM1315 1640l86 23q0 -28 0.5 -41t6.5 -32.5t19 -30.5q14 -30 43.5 -32t51.5 27q27 22 25.5 54t-21.5 59q-1 1 -5 7.5t-5 8l-5 7.5t-6 8t-6.5 7t-7 7.5t-7.5 6.5t-9 6
t-9.5 4.5t-11.5 3.5q-8 9 -53.5 50t-61.5 66q-18 42 -20 88t23 87.5t71 56.5q89 5 148 -23q49 -41 49 -131l-66 -26q-2 38 -18 71.5t-49 36.5q-26 11 -47 -1t-29 -38q-4 -14 -4.5 -26.5t2 -23t9 -22t12.5 -19t16.5 -18t18 -17t20 -16.5t18.5 -16q10 -9 32.5 -27.5t33 -28.5
t25 -27t21.5 -35.5t9 -40.5q18 -70 -22.5 -125t-114.5 -55q-70 0 -112 47t-50 120zM1378 -655v307h49l50 -246l57 246h41l2 -307h-29l-4 219l-51 -219h-39l-37 219l-4 -219h-35zM1391 -276v309q9 0 27 1.5t28.5 1.5t26 -3.5t28.5 -12.5q37 -18 39.5 -73.5t-39.5 -69.5
l47 -153h-47l-47 143h-27v-143h-36zM1421 1014v319h16.5h22.5t22.5 -1t25 -3.5t21 -6.5t19.5 -10.5t13 -15.5q12 -25 9 -62.5t-22 -53.5q-6 -4 -11.5 -7t-12.5 -5t-11.5 -3t-14 -1.5t-13.5 -0.5h-15.5h-15.5v-149h-33zM1427 -104q74 0 74 55q0 22 -12 33.5t-25.5 13.5
t-36.5 2v-104zM1454 1192q39 0 51 4q21 10 21 57q0 36 -15.5 45t-56.5 9v-115zM1577 2163v604q6 0 46.5 0.5t55 0t46 -2.5t53.5 -7.5t41 -13.5q40 -26 57 -87.5t2 -120t-59 -74.5l65 -299h-65l-88 280h-66v-280h-88zM1581 520q0 21 -1.5 65t-1 76t4.5 60q19 108 100 145
q99 23 154 -16q36 -20 54 -61.5t20 -71t2 -81.5v-15h-111q0 88 -6.5 111.5t-30.5 35.5q-36 4 -49.5 -22t-13.5 -72v-252q0 -5 -1.5 -27t-0.5 -37t3.5 -34.5t12 -31.5t25.5 -16q26 -10 42.5 2.5t20.5 38t6.5 53.5t-0.5 48v14h-69v103h178v-361h-90l-4 23q-33 -30 -84.5 -32.5
t-85.5 21.5q-59 30 -72 142q-4 30 -4.5 61t1 71t1.5 60zM1608 1014v319h28v-284h84v-35h-112zM1626 -655v307h125v-31h-82v-94h66v-33h-66v-125h82v-24h-125zM1647 0v33h161v-33h-57v-276h-49v276h-55zM1665 2499q55 0 88 6q26 18 36.5 46t0.5 58q0 71 -37 82
q-12 6 -25.5 8.5t-22 2.5t-22.5 -0.5t-18 -0.5v-202zM1688 1477v604h237v-72h-158v-197h121v-59h-121v-233h158v-43h-237zM1753 1014v319h113v-26h-80v-111h69v-33h-69v-114h80v-35h-113zM1780 -655v307q15 0 40.5 2t41.5 1t30 -7q39 -22 38.5 -77t-42.5 -67l49 -159h-45
l-32 149h-31v-149h-49zM1829 -473q16 0 23.5 0.5t17.5 4t14 11.5t4 21q0 20 -4 32t-13.5 17t-18 6.5t-23.5 1.5v-94zM1829 -276v309h37v-137h84v137h45v-309h-45v143h-84v-143h-37zM1884 1014l72 319h45l59 -319h-41l-18 80h-64l-10 -80h-43zM1944 86l184 868h108l-196 -868
h-96zM1944 1126h57l-29 142zM1944 2329l84 20q0 -73 20 -102q26 -23 54.5 -24.5t49.5 22.5q24 10 23 46.5t-23 61.5q-1 1 -23 29.5t-42 44.5q-72 46 -115 104q-24 39 -25.5 88.5t23.5 89t72 46.5q29 14 72.5 11t70.5 -22q9 -8 16 -18t11.5 -17.5t10.5 -23t7.5 -21.5t8 -27.5
t8.5 -27.5l-72 -16q-4 28 -9 46.5t-20 39.5t-39 28q-32 0 -54 -12.5t-25 -36.5q0 -14 -2.5 -23t3 -21.5t7.5 -20t11.5 -18.5t14 -17t15.5 -16.5t16.5 -15t16.5 -14t16 -13.5q4 -4 34.5 -32t40 -38.5t26 -35.5t24.5 -50q17 -72 -27 -129t-117 -57q-76 0 -118.5 49.5
t-44.5 122.5zM1972 -446q0 49 23.5 77t70.5 21q31 -2 47.5 -21.5t19.5 -38.5t3 -47h-47q0 4 2 16t1.5 22.5t-5.5 19.5q-4 19 -26.5 20.5t-32.5 -12.5q-9 -10 -13.5 -26.5t-5 -28.5t0.5 -30.5t1 -21.5q0 -4 -1 -25t-0.5 -33.5t5 -28.5t13.5 -25q7 -12 20 -16t24.5 3t14.5 23
q5 6 5.5 14t-1.5 19t-2 16h47q0 -110 -88 -110q-24 0 -40.5 11t-24.5 26.5t-11 41t-3 44.5t1.5 48.5t1.5 41.5zM2034 -276v309h118v-33h-71v-104h61v-29h-61v-115h71v-28h-118zM2081 1100l45 20q0 -22 0.5 -31t5.5 -21.5t16 -18.5q50 0 50 36q0 12 -4.5 23t-15 23t-16.5 18
t-20.5 18t-15.5 13q-21 22 -33 45.5t-10 47.5t24 40q17 14 42.5 17t37.5 -3q41 -24 41 -76l-30 -10q-17 65 -47 63q-17 -2 -25 -24q-7 -27 7 -50.5t36 -33.5q4 -6 31.5 -30.5t27.5 -45.5q18 -40 -1.5 -73t-57.5 -33q-37 0 -60 26t-28 60zM2148 1722q0 16 -0.5 60.5t-0.5 69
t3 62t9 66.5q33 101 137 101q132 0 164 -82q16 -37 18 -81.5t-3 -104t-5 -80.5q0 -16 2.5 -47t1.5 -53t-8 -42q-8 -118 -154 -118q-137 0 -160 120q-4 43 -4 129zM2181 -655v307h37v-307h-37zM2228 1663q0 -23 1 -36t4.5 -33t13.5 -33t26 -19q32 -37 76 0q39 19 39 78
q4 7 4 17.5t-2 23.5t-2 18v217q0 6 1 25.5t0.5 29.5t-4.5 24.5t-13 23.5q-60 26 -78 10q-24 0 -36 -9.5t-30 -39.5q-4 -26 -4 -59t2 -74.5t2 -63.5v-100zM2249 170l14 692h109l79 -436l80 436h123l4 -692h-104l-4 289l-58 -289h-77l-58 283v-283h-108zM2253 -655l59 307h51
l66 -307h-41l-6 77h-70l-18 -77h-41zM2273 1014v319h115v-26h-76v-111h70v-33h-70v-114h84v-35h-123zM2286 -276v309h114v-33h-88v-104h70v-29h-70v-143h-26zM2312 -557h60l-27 145zM2388 2345q0 -94 49 -121q39 -10 72 0q15 11 25.5 26t14.5 27t9 33v270q0 78 -31 101
q-26 31 -67 20q-53 -6 -64 -59q-5 -17 -7 -43t-2 -46t0.5 -54t0.5 -48v-106zM2429 -203v70v166h37v-137q0 -2 -1 -28t0 -40t4 -35t12.5 -31t23.5 -10q10 0 17.5 3.5t13 11t9.5 14.5t6.5 19.5l4 20t2 22t0.5 20v19v14.5v137h33v-142v-16v-18.5t-0.5 -18t-1.5 -20t-3 -19
t-5 -19.5t-8 -16.5t-10.5 -16t-13.5 -13t-18 -10.5q-43 -10 -69.5 10t-32.5 63zM2460 -655v307h43v-283h77v-24h-120zM2503 1333h39l49 -233l41 233h45l-70 -319h-39zM2564 1477v604h55l170 -408v408h78v-604h-61l-180 407v-407h-62zM2632 -276v309h53v-281h57v-28h-110z
M2685 -348h33l55 -230l43 230h35l-66 -307h-43zM2707 1014v319h35v-319h-35zM2718 418v192q0 70 4 105q3 48 29 88.5t71 58.5q94 20 152 -16q13 -8 23 -17t17.5 -23t12.5 -23t8.5 -28t5.5 -26.5t3 -30.5t1 -27v-29v-26v-198v-24v-26t-0.5 -24.5t-2 -26.5t-4 -24.5t-6 -25.5
t-9 -22.5t-12.5 -21.5t-16.5 -17t-20.5 -16q-60 -43 -152 -16q-45 16 -71 55t-29 86q-4 37 -4 103zM2718 2163v604h61l164 -406v406h74v-604h-58l-170 405v-405h-71zM2785 -276v309h37v-281h82v-28h-119zM2798 1100l32 20q0 -52 37 -71q14 0 25.5 9.5t11.5 26.5
q1 28 -20.5 53t-53.5 42q-66 93 -14 133q41 28 84 14q36 -24 43 -76l-39 -10q-11 65 -39 63q-17 -3 -26 -24q-6 -12 -6.5 -21.5t5.5 -19t11 -14.5t17 -15t16 -14q6 -8 22 -21t26.5 -26t12.5 -29q9 -42 -11.5 -74t-60.5 -32q-65 0 -73 86zM2832 432q0 -101 11 -135
q5 -12 20 -20t33 -5q3 2 10.5 5.5t10 5.5t7 6.5t6 10.5t1.5 15q4 15 4.5 31.5t-1 39t-1.5 32.5v198q0 10 1.5 32.5t1 39t-4.5 31.5q0 27 -35 43q-17 0 -32 -7.5t-21 -15.5q-11 -37 -11 -141v-166zM2884 -655v307h125v-31h-76v-94h61v-33h-61v-125h76v-24h-125zM2955 1477
v604h76v-561h150v-43h-226zM2982 1014v319h43v-319h-43zM3009 -276l59 309h51l62 -309h-43l-13 77h-65l-17 -77h-34zM3043 -655v307q10 0 36 2t45 1t34 -7q24 -14 32.5 -47t-2 -63.5t-36.5 -39.5l51 -153h-47l-37 149h-33v-149h-43zM3054 1307v26h149v-26h-55v-293h-33v293
h-61zM3068 -166h55l-31 137zM3076 2163l131 604h80l123 -604h-76l-33 147h-120l-29 -147h-76zM3086 -473q25 0 36 1.5t20.5 9.5t9.5 26q0 20 -4.5 32t-14.5 17t-19.5 6.5t-27.5 1.5v-94zM3105 170v692h84l121 -332v332h108v-692h-88l-117 338v-338h-108zM3195 2365h100
l-45 277zM3213 -276v309h27l90 -199v199h37v-309h-33l-80 210v-210h-41zM3213 2081h74l90 -297l94 297h78q-6 -18 -34 -113.5t-44 -144.5l-43 -121q-6 -10 -9 -21.5t-3 -18.5t1 -19.5t1 -18.5v-147h-80v116q0 10 0.5 31t0.5 38t-1 30q-4 18 -10.5 36t-16.5 40.5t-16 37.5z
M3234 -567l33 2q0 -11 8 -30t20 -28q24 -7 36.5 4t12.5 31q0 21 -24.5 46.5t-52.5 45.5q-27 27 -34 68t23 59q45 39 84 17q22 -11 29.5 -27.5t7.5 -44.5l-33 -16q-1 5 -2 14.5t-2 15.5t-3 13t-5 11.5t-8 6.5q-31 10 -47 -18q-5 -9 -5.5 -18t2 -15t8 -13t10.5 -11t13 -10
t11 -9q2 -2 13 -11.5t14.5 -13t12 -13.5t12 -16.5t6.5 -17t3 -20.5q14 -34 -4.5 -64t-60.5 -30q-78 0 -78 92zM3410 -276v309q6 0 30.5 1t38 0.5t34 -6.5t36.5 -18q11 -11 16.5 -29t6 -30t-0.5 -39.5t-1 -34.5q0 -5 1 -27t0 -32.5t-3.5 -27t-9.5 -26.5t-19 -16
q-13 -12 -32.5 -17.5t-29.5 -7t-38 -0.5t-29 1zM3418 -655v307h37v-307h-37zM3455 -248q21 0 31.5 1.5t22 12t16.5 31.5v160q0 13 -3.5 21t-8 12.5t-15.5 6.5t-18.5 2.5t-24.5 0.5v-248zM3478 2163v604h81v-545h154v-59h-235zM3502 -496q0 31 0.5 47t5.5 40.5t14.5 36
t28 19.5t45.5 5q16 -1 28.5 -6t21 -10.5t14 -18t8.5 -19.5t4.5 -24.5t1.5 -23.5v-25v-21v-12q0 -29 -0.5 -44t-5 -39t-13 -36t-26 -22t-43.5 -10q-21 0 -36.5 6t-24.5 22t-14 26t-7 37t-2 34.5v37.5zM3502 170v692h121v-692h-121zM3557 -473q0 -2 -3.5 -44t0 -69t18.5 -37
q13 -6 23 -6.5t17 3t12.5 10t8.5 15t5 18.5t2.5 21t0.5 20.5v18.5v3.5v3.5q0 3 0.5 25.5t0 34.5t-2 30t-7 29t-13.5 16q-62 16 -62 -55v-37zM3586 1477v84h88v-84h-88zM3586 2081h88l-27 -477h-28zM3697 743v119h313v-119h-96v-573h-119v573h-98zM3723 -655v307h33l82 -209
v209h37v-307h-37l-82 209v-209h-33zM4006 170l127 692h108l119 -692h-114l-23 164h-76l-22 -164h-119zM4166 432h36l-18 141z" />
    <glyph glyph-name="uniE216" unicode="ll" horiz-adv-x="2136" 
d="M313 1169q175 111 523 453l266 276q-179 -129 -350 -284q-168 -152 -476 -469zM-319 279q17 80 69 186q323 643 1215 1393q229 192 268 192q50 0 41 -49q-18 -83 -223 -313q-148 -164 -209 -230q-50 -52 -134.5 -142t-111.5 -118q-120 -123 -166 -166q-38 -35 -59 -43
q-27 -10 -64 -10q-46 0 -63 10q-19 19 -49 62q-435 -530 -496 -807q-30 -133 94 -133q238 0 1116 688q116 90 308 252q135 115 305 288q135 146 293 301q228 220 266 220q15 0 22 -13q5 -13 2 -30q-9 -42 -98 -144q-84 -97 -297 -319q-206 -216 -338 -361
q-114 -136 -151 -155q-26 -16 -54 -19q-37 -6 -120 -135q-99 -142 -152 -246q-47 -95 -72 -178q-6 -30 15 -57q23 -29 53 -29q131 0 665 369q126 90 500 354q115 74 139 74q50 0 41 -39q-2 -16 -20 -41q-16 -18 -37 -29q-10 -4 -303 -186q-540 -346 -711 -443
q-194 -108 -266 -108q-63 0 -80 51q-22 48 -6 131q36 162 199 406q51 76 57 102q1 3 1 6t-0.5 6t-0.5 4l-526 -362q-589 -414 -756 -414q-66 0 -96 56q-35 49 -10 168z" />
    <glyph glyph-name="uniE217" unicode="ss" horiz-adv-x="1671" 
d="M-561 -219q46 3 119 22q247 82 479 258q233 177 276 314q8 51 2 100q-8 43 -32 53q-44 -6 -197 -90q-326 -182 -543 -381q-150 -136 -190 -229q-6 -43 63 -49zM-664 -184q16 74 76 149q72 90 273 248q194 149 395 276l176 109q-45 45 -63 68q-151 171 -140 227
q26 126 117 227q80 89 152 107q70 0 110 -19q37 -19 25 -78q-9 -43 -125 -83q-191 -77 -221 -164q-3 -35 24 -72q4 -6 164 -190q487 309 651 356q23 45 70 98q58 70 98 88q42 17 78 17q61 0 100 -33q36 -23 27 -57q-15 -71 -133 -86q-187 -27 -203 -113q-7 -30 31 -68
q35 -38 139 -108q421 252 545 252q55 0 43 -54q-3 -18 -12 -30q-13 -13 -140 -37q-79 -15 -247 -90q-58 -24 -162 -82l14 -25q31 -54 19 -112q-21 -94 -89 -177q-60 -67 -165 -143q-119 -87 -220 -139q-201 -101 -303 -101q-44 0 -62 17.5t-11 52.5q30 144 409 424
q177 128 334 217q-167 111 -182 164q-55 -16 -172 -70q-312 -139 -420 -213l-2 -4q-3 -12 6 -49q7 -50 -6 -123q-27 -95 -86 -178q-96 -122 -295 -256q-313 -207 -545 -225q-78 6 -72 82zM389 55q-3 -17 10.5 -24.5t44.5 -7.5q106 0 318 108q135 69 217 131q190 150 211 252
q9 58 -16 107q-16 22 -33 22q-24 0 -156 -78q-318 -190 -491 -366q-96 -96 -105 -144z" />
    <glyph glyph-name="uniE218" unicode="tt" horiz-adv-x="1824" 
d="M-453 -530q-16 0 -43 18q-30 15 -45 53q-19 35 -10 92q56 245 193 492q131 234 471 709q-66 10 -93 26q-32 14 -26 58q11 41 115 118q244 189 852 815q-47 0 -281 -30q-302 -44 -481 -74q-394 -61 -463 -92q-30 -15 -51 -39q-18 -20 -39 -33q-19 -8 -88 -8q-59 0 -93 37
q-34 34 -28 61q6 34 57 60q48 25 156 28q82 3 717 80q625 73 665 86q513 531 527 531q19 -8 16 -41q-9 -39 -205 -250q-194 -209 -199 -223q2 -2 15 -2q25 0 127 10q144 16 358 35q120 141 150 182q70 97 104 119q42 28 88 28q54 0 82 -28q26 -29 19 -62q-6 -36 -109 -98
q-70 -46 -170 -127q404 28 709 31q131 0 217 -11t125 -32.5t32 -53.5q-3 -14 -18 -32q-19 -19 -45 -19q-30 0 -76 14q-137 41 -446 41q-292 -3 -590 -20q-138 -127 -266 -258q-691 -694 -1047 -1278q-158 -261 -184 -383q-24 -113 55 -113q61 0 203 86q100 62 524 379
q809 607 850 627q16 8 35 8q40 0 31 -53q-3 -21 -25 -43q-23 -23 -80 -51q-211 -131 -1044 -713q-398 -289 -506 -289q-49 0 -64 47q-12 47 0 117q39 165 203 434q167 279 444 617q28 35 390 454q125 143 348 406q-452 -27 -508 -47q-5 -4 -119 -121q-498 -525 -686 -758
q-149 -181 -346 -467q-194 -289 -283 -457q-101 -185 -131 -325q-19 -86 -10 -115q6 -31 39 -31l53 7q60 0 51 -54q-4 -18 -20 -32q-25 -21 -53 -31q-35 -12 -50 -12z" />
    <glyph glyph-name="fi" unicode="fi" horiz-adv-x="1818" 
d="M-485 -272q-52 0 -80 28q-9 15 -19 62q-12 70 -32 76q-31 12 -48 51q-20 36 -14 71q5 29 62 99q63 74 129 129q76 67 139 166q252 399 870 1097q122 137 162 176q46 49 82 80q28 19 45 19q27 0 45 -21q21 -21 14 -45q-9 -42 -215 -360l-108 -172q-42 -68 -74 -84
q-34 -15 -70 -15q-31 0 -55 9q-30 10 -37 22q-8 14 -18 14q-30 0 -293 -333t-272 -375q0 -2 4 -2q15 0 71 41q323 219 670 391q350 176 469 176q13 0 29 -4q6 14 41 76q57 77 123 80l30 2q44 -3 70 -23q24 -21 27 -55q-15 -79 -95 -107q-35 -11 -96 -88q-53 -66 -108 -161
q-55 -89 -66 -130q-3 -49 59 -49q85 3 197 47q102 48 389 201q271 154 336 168q44 -6 41 -41q-9 -46 -80 -70q-39 -15 -389 -172q-372 -173 -479 -190l-39 -2q-41 -1 -59.5 32.5t-12.5 96.5q2 33 17 106q18 88 45 160l-50 2q-143 0 -444 -139q-297 -140 -625 -365
q-42 -29 -106 -75q-34 -24 -55 -56q-31 -40 -43 -67q-51 -97 -66 -168q-9 -65 4 -70q14 -7 35 -10q134 -41 113 -129q-9 -55 -76 -80q-47 -20 -94 -20zM-633 6q-3 -13 4 -18q16 -11 17 -11q8 -2 18 -2q19 0 31 27q3 5 26 59q11 33 27 64q18 32 18 39q3 6 -2 6q-2 0 -6 -3.5
t-13.5 -12.5t-18.5 -17q-21 -19 -66 -71q-32 -40 -35 -60zM1323 1511q34 98 174 113q93 -6 84 -70q-12 -36 -53 -69q-41 -38 -121 -45q-47 3 -68.5 20.5t-15.5 50.5z" />
    <glyph glyph-name="fl" unicode="fl" horiz-adv-x="2000" 
d="M-485 -272q-52 0 -80 28q-9 15 -19 62q-12 70 -32 76q-31 12 -48 51q-20 36 -14 71q5 29 62 99q63 74 129 129q76 67 139 166q252 399 870 1097q122 137 162 176q46 49 82 80q28 19 45 19q27 0 45 -21q21 -21 14 -45q-9 -42 -215 -360l-108 -172q-42 -68 -74 -84
q-34 -15 -70 -15q-31 0 -55 9q-30 10 -37 22q-8 14 -18 14q-30 0 -293 -333t-272 -375q0 -2 4 -2q15 0 71 41q323 219 670 391q350 176 469 176q35 0 64 -20l6 -7q343 422 862 857q229 192 268 192q50 0 41 -49q-18 -83 -223 -313q-230 -255 -457 -490q-184 -193 -223 -209
q-23 -10 -63 -10q-49 0 -62 10q-10 8 -51 62l-78 -97q-10 -29 -31 -41q-340 -439 -387 -669q-30 -133 94 -133q239 0 1117 688q226 176 266 176q22 0 16 -37q-6 -25 -184 -147l-465 -322q-601 -414 -756 -414q-65 0 -96 54q-35 52 -10 170q17 80 69 186q98 201 277 438
l-64 4q-143 0 -444 -139q-297 -140 -625 -365q-42 -29 -106 -75q-34 -24 -55 -56q-31 -40 -43 -67q-51 -97 -66 -168q-9 -65 4 -70q14 -7 35 -10q134 -41 113 -129q-9 -55 -76 -80q-47 -20 -94 -20zM-633 6q-3 -13 4 -18q16 -11 17 -11q8 -2 18 -2q19 0 31 27q3 5 26 59
q11 33 27 64q18 32 18 39q3 6 -2 6q-2 0 -6 -3.5t-13.5 -12.5t-18.5 -17q-21 -19 -66 -71q-32 -40 -35 -60zM1186 1145l37 24q132 93 290 236q178 162 232 217l266 276q-179 -129 -350 -284q-165 -147 -475 -469z" />
    <glyph glyph-name="M_o_n_i_t_a_space_S_i_g_n_a_t_u_r_e" unicode="Monita&#x20;Signature" horiz-adv-x="19884" 
d="M2028 -256q-86 0 -123 100q-41 100 2 295q45 211 202 539q137 294 547 1018q174 304 230 409q54 102 106 226q26 61 49 153q6 21 2 29q-8 4 -16 4q-49 0 -309 -213q-157 -134 -355 -344q-155 -167 -481 -553q-177 -216 -291 -326q-106 -100 -161 -100q-76 0 -91 156
q-3 28 0 59q1 9 5 37.5t6 48.5q11 67 67 326q76 355 86 409q13 87 10 111q-3 26 -18 26q-14 0 -74 -51q-81 -66 -147 -127q-119 -110 -152 -143q-216 -230 -411 -479q-194 -247 -330 -467q-69 -120 -127 -240q-64 -137 -72 -182q-9 -41 17 -41q38 0 55 -15t12 -44
q-9 -43 -86 -84q-61 -25 -106 -25q-89 0 -74 80q9 44 47 135q166 380 498 823q322 433 733 817q169 152 248 152q116 0 63 -256q-25 -105 -57 -215q-51 -176 -92 -373q-49 -229 -43 -291q12 -69 47 -69q42 0 139 106q92 97 297 351q560 692 893 950q198 155 283 155
q40 0 57 -36q14 -38 2 -103q-16 -72 -88 -207q-71 -143 -242 -438q-358 -618 -551 -1008q-175 -353 -223 -585q-19 -91 -22 -162q-9 -105 8 -152q14 -50 63 -71q65 -24 56 -60q-3 -22 -31 -39q-26 -16 -57 -16zM2472 690q24 116 162 328q89 133 92 160q17 53 61 77
q44 23 82 23q44 -7 66 -23q28 -16 45 -18q13 0 51 10q51 15 74 15q113 -9 88 -132q-30 -103 -129 -239q-31 -36 -41 -53l2 -2q15 0 110 24q72 17 207 53q58 15 193 56q97 32 145 32h4q162 206 230 326q25 55 78 100q50 35 90 35q30 0 61 -22q28 -21 21 -54
q-12 -58 -166 -206q-196 -200 -406 -447q-179 -218 -192 -270q0 -10 4 -10q9 0 49 30q35 24 92 78q76 68 242 207q123 102 229 182q103 80 129 90q33 13 45 13q20 0 37 -33q17 -34 14 -90q-3 -101 2 -144q12 -96 150 -96q96 0 250 62q146 58 268 149q37 32 68 51
q41 95 73 148q57 77 123 80l31 2q44 -3 70 -23q23 -20 26 -55q-16 -79 -94 -107q-35 -11 -96 -88q-56 -70 -109 -161q-53 -86 -65 -130q-3 -49 59 -49q85 3 197 47q102 48 389 201q259 145 319 164q21 19 70 55q182 139 635 592q217 220 217 223q-64 0 -281 -32
q-835 -114 -944 -164q-30 -15 -51 -39q-25 -25 -41 -33q-28 -8 -86 -8q-56 0 -94 35q-32 40 -27 63q6 33 58 60q52 25 155 28q83 3 715 80q628 73 668 86q516 531 526 531q19 -8 16 -41q-9 -43 -204 -252q-195 -210 -199 -221q2 -2 14 -2q25 0 127 10q708 77 1231 80
q160 0 225 -11q81 -15 118.5 -36.5t31.5 -49.5q-3 -13 -19 -32q-19 -19 -45 -19q-29 0 -75 14q-137 41 -447 41q-389 -6 -868 -36q-319 -21 -363 -37q-11 -6 -119 -121q-497 -524 -686 -758q-154 -187 -346 -469q-162 -235 -284 -455q-99 -188 -129 -325q-19 -88 -11 -115
q6 -31 39 -31l53 7q61 0 52 -54q-3 -17 -21 -32q-19 -19 -53 -31q-30 -12 -49 -12q-13 0 -45 16q-27 18 -45 55q-17 36 -8 92q57 249 192 490q129 233 471 711q-58 9 -94 24q-1 1 -4 3t-5 4t-3 5q-76 -30 -379 -168q-372 -172 -480 -190l-38 -2q-41 -1 -59.5 32.5
t-12.5 96.5q2 40 16 106l15 64q-14 -7 -17 -8q-121 -63 -264 -105q-145 -45 -250 -45q-110 0 -151 56q-40 51 -31 184v72q0 20 -4 32q-15 10 -17 11q-42 0 -198 -119q-155 -120 -318 -283q-152 -155 -196 -235q-15 -29 -72 -86q-74 -50 -141 -50q-30 0 -37 11q-11 11 -8 41
q0 34 8 65q14 69 84 178q79 118 266 349l8 8q-5 -1 -57 -11q-145 -29 -227 -43q-167 -28 -211 -34q-68 -10 -95 -17q-33 -7 -49 -18q-22 -13 -39 -35q-94 -88 -196 -143q-111 -60 -170 -60q-36 0 -66 41q-30 46 -12 125zM2556 655q-6 -36 27 -39q54 0 133 48q91 59 155 106
l-55 -4q-82 3 -180 45l-17 -33q-6 -10 -18 -31.5t-18 -31.5q-5 -13 -14.5 -32.5t-12.5 -27.5zM2679 860q-6 -14 24 -24q44 -13 211 -19l58 57q52 52 104 134q49 76 64 125q6 29 -11 36q-21 7 -51 7q-39 0 -104 -21q-53 -20 -95 -59q-37 -38 -81 -90q-42 -44 -82 -95
q-37 -47 -37 -51zM6388 774q9 44 88 129q89 96 178 170q100 83 174 121q58 23 107 23q88 0 149 -46q63 -45 51 -100q-6 -39 -51 -65q-54 -32 -106 -29l-58 4q-16 -188 4 -276q18 -69 72 -111q39 -31 109 -31q68 0 126 10q49 9 142 50q170 77 346 172q213 116 285 168
q89 63 141 63q41 0 35 -47q-1 -7 -11 -31q-37 -54 -198 -139q-177 -93 -367 -170q-311 -125 -452 -125q-178 0 -228 117q-33 73 -30 262q6 118 -5 135q-26 0 -346 -235q-94 -70 -133 -70q-28 0 -22 51zM6136 -481q21 92 250 92q129 0 170 -27q31 -16 114 -16q168 0 688 26
q1141 54 2139 76q599 14 1253 19q49 153 215 358q196 236 477 461q275 223 602 399q129 71 152 103q23 41 35 92q18 98 -25 104q-21 0 -131 -49q-217 -94 -229 -147q-6 -27 -45 -52q-42 -22 -86 -22q-46 0 -203 -80q-150 -78 -211 -78q-34 0 -53 25q-11 16 -15 43
q-61 -26 -321 -144q-372 -173 -479 -190l-39 -2q-41 -1 -59.5 32.5t-12.5 96.5q2 40 16 106q46 208 135 355q57 77 123 80l31 2q44 -3 70 -23q23 -20 26 -55q-16 -79 -94 -107q-35 -11 -96 -88q-56 -70 -109 -161q-53 -86 -65 -130q-3 -49 59 -49q85 3 197 47
q102 48 389 201q232 134 315 162q29 29 84 74q107 89 191 135q71 39 143 39q49 0 84 -27q35 -24 41 -61q3 -6 10 -6q23 0 92 38q189 107 256 107q73 0 43 -139q-14 -53 -20 -70q-1 -4 -6.5 -21t-7.5 -26v-12q4 0 102 34q130 50 211 50q49 0 76 -21l10 -10q119 160 180 264
q25 55 78 100q50 35 90 35q31 0 62 -22q27 -21 20 -54q-12 -58 -166 -206q-188 -192 -405 -447q-181 -220 -193 -270q0 -10 4 -10q8 0 49 30q38 26 93 78q91 81 241 207q114 95 230 182q103 80 129 90q32 13 45 13q20 0 37 -33q17 -34 14 -90q-3 -101 2 -144q12 -96 149 -96
q96 0 250 62q148 58 269 149q33 29 69 51q56 56 131 121q100 83 174 121q58 23 107 23q88 0 149 -46q64 -46 52 -100q-6 -38 -52 -65q-54 -32 -106 -29l-57 4q-16 -188 4 -276q18 -70 71 -111q39 -31 109 -31q69 0 127 10q48 9 141 50q170 77 346 172q213 116 285 168
q42 28 72 43l49 30q97 59 253 192.5t449 399.5q96 87 202.5 187.5t117.5 111.5l114 107q-600 -4 -1060.5 -15.5t-715.5 -28t-383.5 -29.5t-195.5 -26q-233 -45 -305 -67q-47 -15 -63 -31q-16 -13 -19 -39q-6 -28 -22 -41q-15 -15 -50 -26q-45 -13 -86 -11q-50 3 -53 21
q-6 12 -18 24l-2 9q-2 48 48.5 88.5t162.5 76.5q109 37 285.5 64.5t401 43.5t440 26t479.5 13.5t436.5 4.5t395.5 0.5t277 -0.5l109 2q392 365 405 365q22 -8 19 -41q-9 -41 -223 -252l-72 -70q56 1 166.5 2t156.5 2q217 3 277 8q35 3 495.5 9t557.5 6q120 0 117 -41
q-4 -36 -92 -80q-42 -21 -93 -37q-21 -8 -227.5 8t-468 36t-373.5 20q-20 0 -89.5 4t-121.5 4h-365q-158 -158 -297 -291q-546 -524 -755 -758q-168 -188 -379 -469q-181 -242 -309 -455q-110 -197 -138 -325q-19 -87 -8 -115q9 -31 45 -31l60 7q35 0 49.5 -13.5t9.5 -40.5
q-4 -18 -20 -32q-22 -19 -60 -31q-37 -12 -55 -12q-13 0 -53 16q-32 19 -52 55q-21 37 -12 92q56 246 205 490q147 248 592 817q-38 -16 -83.5 -40.5t-47.5 -25.5q-25 -16 -113 -65q-181 -95 -366 -170q-311 -125 -453 -125q-177 0 -227 117q-34 75 -31 262q6 120 -4 135
q-26 0 -346 -235q-94 -70 -133 -70q-26 0 -23 43q-91 -40 -195 -70q-145 -45 -249 -45q-111 0 -152 56q-40 51 -31 184v72q0 20 -4 32q-2 1 -8 5.5t-8 5.5q-43 0 -199 -119q-151 -117 -317 -283q-155 -158 -197 -235q-15 -29 -72 -86q-74 -50 -141 -50q-30 0 -37 11
q-11 11 -8 41q0 34 8 65q14 69 84 178q74 111 267 349l79 98q-4 1 -11 3t-11 3q-6 2 -33 2q-69 0 -154 -31q-75 -27 -190 -80q-179 -329 -223 -407q-84 -138 -191 -291q-199 -289 -403 -481q454 4 711 4q1672 0 1746 14q8 2 25 2q52 0 86 -24q39 -24 39 -60q-6 -23 -37 -39
q-32 -16 -70 -16q-35 0 -73 20q-38 50 -1741 50l-741 -2q-6 -3 -14 -11t-11 -10q-247 -209 -408 -209q-73 0 -108 53q-38 56 -14 162l2 13q-941 -9 -1557 -21q-1068 -24 -2046 -98q-375 -29 -430 -37q-83 -9 -117 -33q-47 -33 -133 -33q-70 0 -159 17q-97 19 -142 37
q-22 22 -16 47zM6545 860q12 0 156 113q84 63 84 69h-4q-85 -56 -154 -110q-82 -67 -82 -72zM8464 1075q27 138 148 289q116 149 346 338q477 397 1118 680q385 173 709 266q321 92 524 92q162 0 227 -59q64 -60 43 -160q-47 -221 -452 -584t-1178 -829q-150 -86 -260 -158
q-51 -28 -106 -28q-56 0 -81.5 18.5t-19.5 56.5q7 33 17 45q19 24 174 97q217 100 508 264q691 394 1069 772q217 220 243 342q12 65 -35 97t-155 32q-243 0 -660 -127q-408 -126 -845 -342q-474 -247 -846 -543q-378 -301 -459 -528q-10 -51 10 -100q14 -53 51 -82
q67 -49 203 -76q145 -28 443 -43q288 -20 366 -37q98 -15 170 -53q74 -38 80 -70q6 -24 21 -24q17 0 94 24q116 39 151 39q34 0 45 -14q12 -16 9 -33q-3 -19 -17 -37q-29 -29 -211 -78q-135 -41 -137 -51q0 -10 -43 -47q-205 -193 -522 -330q-180 -80 -240 -80q-28 0 -22 31
q18 87 387 307q221 133 391 207q61 25 67 41q0 11 -10 21q-30 49 -180 79q-172 34 -492 54q-237 17 -372 41q-320 56 -271 280zM8968 63l12 3q80 11 136 32q237 86 417 207q124 86 218 170q-346 -144 -521 -235q-162 -83 -262 -177zM10785 1511q34 98 174 113q93 -6 84 -70
q-12 -36 -53 -69q-41 -38 -121 -45q-47 3 -68.5 20.5t-15.5 50.5zM10756 -379q-35 -157 96 -160q151 0 371 181l-463 -2q-1 -3 -2 -9.5t-2 -9.5zM10777 -311l507 4q328 284 648 819q184 307 194 350v2q-6 0 -59 -26q-15 -8 -56.5 -30t-68.5 -36q-74 -39 -137 -76l-107 -59
q-226 -139 -420 -313q-201 -180 -346 -369q-118 -153 -155 -266zM11358 874q0 -4 6 -4q17 0 140 60q61 27 79 45q21 15 27 43q2 8 6 24.5t6 24.5q-47 -23 -108 -63q-76 -53 -105 -76q-47 -36 -51 -54zM13908 866q12 7 145 107q84 63 84 69h-4q-79 -52 -153 -110l-50 -41
q-6 -12 -22 -25zM16079 860q11 50 43 137q54 138 78 172q18 24 59 39q37 15 74 15q44 0 67 -23t17 -49q-9 -39 -62 -92q-56 -56 -92 -121q-41 -61 -55 -111l-4 -20q1 -1 1 -3.5t0.5 -3.5t2.5 -1q18 0 272 190q182 135 193 135q6 0 12 -6q9 -6 12 -18q6 -8 2 -35
q-20 -59 -32 -84q-13 -28 -33 -86q-9 -44 27.5 -67.5t119.5 -26.5q82 0 213 35q140 41 197 75q65 39 104 39l74 99q111 146 133 211q18 46 53 81q50 41 103 41q46 0 76 -24q28 -28 20 -72q-6 -24 -37 -55q-28 -32 -65 -45q-21 -12 -60 -49q-96 -93 -213 -242
q-156 -200 -161 -233l2 -5q6 0 155 134q175 158 275 235q112 86 135 86q51 0 72 -59q6 -17 11.5 -47.5t11.5 -52.5t17 -33q36 -37 88 -52t101 -2q28 8 59 29q37 52 94 106q69 67 162 129q82 54 117 54q25 0 45 -17q13 -16 10 -47q-15 -62 -174 -225q-75 -88 -149 -82l-56 4
q-25 3 -47 -33q-26 -33 -32 -61q-12 -65 100 -68q53 0 137 19q119 24 694 213q334 114 385 114q38 -3 29 -43q-6 -31 -18 -43t-49 -24q-55 -19 -512 -135q-444 -111 -488 -121q-129 -33 -199 -33q-152 0 -122 133q7 37 20 66q-40 -6 -86 -6q-52 0 -91.5 16t-62.5 42
t-37.5 64.5t-19.5 76t-6 83.5q-277 -202 -463 -434q-52 -67 -57 -100q-1 -3 -6 -47q-12 -51 -68 -86q-62 -35 -123 -35q-26 0 -39 10q-9 21 -18 70q-6 50 0 80q9 41 172 268q-88 -28 -170 -41q-118 -23 -225 -23h-9q-112 0 -159.5 53t-28.5 142l4 20q4 11 -2 11
q-24 0 -164 -119q-197 -156 -280 -156q-29 0 -52 23q-43 43 -22 147zM19767 1067q6 30 45 63q36 33 86 33q28 0 52 -18q20 -20 14 -45q-6 -39 -57 -68q-51 -28 -89 -28q-32 0 -43 20q-14 17 -8 43z" />
    <glyph glyph-name=".notdef" horiz-adv-x="2097" 
 />
    <glyph glyph-name=".null" 
 />
    <glyph glyph-name="nonmarkingreturn" horiz-adv-x="1040" 
 />
    <glyph glyph-name="space" unicode=" " horiz-adv-x="716" 
 />
    <glyph glyph-name="space" unicode="&#xa0;" horiz-adv-x="716" 
 />
    <glyph glyph-name="exclam" unicode="!" horiz-adv-x="1187" 
d="M141 72q-37 0 -59 14q-25 16 -19 49q6 25 33 55q22 28 68 50q40 18 76 18q38 0 55 -20q18 -24 12 -62q-10 -48 -61 -74q-52 -30 -105 -30zM152 539q11 51 47 137q69 179 204 403q128 208 455 672q79 110 275 391q87 132 127 199q34 61 40 94l3 8q21 107 147 119
q99 0 90 -98q-9 -42 -31 -64q-17 -20 -67 -41q-51 -26 -223 -235q-128 -153 -408 -533q-265 -370 -379 -579q-114 -211 -172 -428q-9 -38 21 -68q25 -40 20 -67q-6 -27 -35 -43q-27 -15 -47 -15q-31 0 -55 37q-27 40 -12 111z" />
    <glyph glyph-name="quotedbl" unicode="&#x22;" horiz-adv-x="600" 
d="M666 1872q-21 0 -35 14q-13 16 -10 33q5 15 47 57q44 38 47 56q6 24 -27 41q-40 25 -65 53q-22 29 -19 45q3 27 41 57q39 31 94 37q49 0 58 -55q5 -48 -23 -187l-12 -59q-6 -36 -39 -66q-29 -26 -57 -26zM371 2140q9 38 45 64q42 28 84 28q60 0 80 -71q21 -69 2 -160
q-16 -73 -54 -133q-18 -35 -32 -49q-18 -14 -50 -17q-33 0 -47 13t-8 38q9 54 58 54l32 -6q13 0 29 16t29 39q10 18 14 37q6 34 -23 51q-29 20 -57 20q-37 0 -82 31q-26 17 -20 45z" />
    <glyph glyph-name="numbersign" unicode="#" horiz-adv-x="1513" 
d="M762 143q-30 0 -51 41q-17 41 -2 109q11 49 28 113.5t19 74.5q24 86 26 92q11 32 21 50q1 3 -2.5 5t-11.5 3.5t-19 1.5q-77 0 -303 -64q-9 -35 -14 -65q-7 -18 -11 -35q-2 -5 -10 -41q-9 -39 -4 -53q3 -20 21 -35q24 -30 18 -61q-9 -50 -74 -50q-46 3 -61 37
q-15 33 6 133l29 133q-99 -43 -115 -57q-19 -16 -25 -47q-6 -32 -30 -47q-26 -16 -50 -16q-63 0 -57 77q22 97 266 176q36 9 54 27q33 28 84 156q22 35 26 53l-2 2q-18 0 -119 -49q-153 -72 -217 -72q-45 0 -61 25q-15 24 -12 51q6 28 47 66q17 15 39 28q16 8 55 8l47 -2
q113 0 203 33q55 18 86 27l76 143q95 170 104 217q12 46 61 86q53 41 97 41q39 0 65 -26q26 -29 17 -64q-9 -44 -78 -92q-30 -21 -43 -21q-49 0 -137 -129q-74 -108 -76 -120q-2 -2 0 -2q17 0 188 47q167 48 176 53q14 14 31 47q43 90 51 141q18 74 68 121q48 45 114 45
q83 0 74 -47q-13 -52 -125 -182q-62 -71 -65 -86q-1 -5 4.5 -9t18.5 -6t32 -2q108 0 102 -67q-4 -20 -20 -33q-19 -16 -45 -16q-15 0 -23 8q-29 20 -86 20h-69q-87 -134 -156 -256q7 2 19.5 6t19.5 5l12 4t15 4q10 2 39 2q59 0 92 -39q30 -40 24 -76q-9 -34 -61 -61
q-31 -17 -45 -17q-5 0 -121 29q-24 6 -39 6q-44 -3 -82 -188q-14 -66 -16 -107q-6 -49 32 -49q64 0 52 -61q-5 -30 -52 -70q-41 -27 -69 -27zM492 651l190 49q89 26 121 31q37 8 65 43q3 4 119 232q0 4 -10 4q-20 0 -98 -19q-187 -52 -254 -90q-40 -19 -97 -137
q-24 -50 -36 -113z" />
    <glyph glyph-name="dollar" unicode="$" horiz-adv-x="960" 
d="M176 -233q-29 3 -43 36q-15 33 23 215l41 181l-58 14q-117 18 -147 96q-13 42 -8 68q6 27 39 47q35 18 59 18q34 0 43 -12q12 -12 18 -45q5 -30 19 -47q13 -13 76 -19l217 588l-47 66q-54 68 -35 157q18 96 108 193q69 76 244 231q106 293 121 310q50 59 131 59
q41 0 72 -22q23 -20 14 -50q-3 -16 -43 -65q-68 -87 -141 -217q53 -59 65 -80q17 -30 8 -64q-18 -88 -139 -88l-16 2q-24 0 -35 -8q-18 -14 -31 -43q-22 -40 -74 -158q-69 -139 -79 -182q-5 -23 2 -41q6 -14 28 -30q147 -129 113 -293q-18 -86 -117 -185q-95 -95 -213 -143
l-55 -23q-42 -202 -49 -325q0 -24 -6 -66q-6 -23 -15 -32q-52 -43 -90 -43zM410 1102q-12 -47 39 -101q17 -20 36 -20q5 5 17 29q130 322 139 352l-2 4q-19 0 -119 -109q-101 -110 -110 -155zM373 365q-6 -37 6 -37q17 0 76 30q96 54 163 129q69 78 84 142q9 52 -20 106
q-39 54 -86 90l-51 35q-142 -353 -172 -495z" />
    <glyph glyph-name="percent" unicode="%" horiz-adv-x="1048" 
d="M457 100q-36 0 -58 11q-22 9 -41 41q-25 28 -28 53q-6 17 4 76l8 36q14 56 66 95q46 32 108 32q45 0 84 -20q40 -19 66 -66q25 -45 16 -84q-15 -66 -84 -120t-141 -54zM-90 47q48 229 620 989l197 260q81 110 92 131q28 39 31 54q3 16 -2 26q-8 8 -4 27q13 52 71 102
q63 54 115 54q45 0 60 -27q15 -24 6 -61q-6 -40 -43 -80q-39 -43 -92 -56q-33 -7 -230 -241q-618 -760 -694 -1088q-10 -37 18 -45q27 -14 19 -45q-9 -40 -47 -65q-38 -27 -70 -27q-65 0 -47 92zM266 1427q10 43 72 91q61 49 117 49q54 0 102 -45t33 -117q-9 -44 -43 -90
q-36 -45 -86 -78q-53 -33 -84 -33q-36 0 -60 58q-9 23 -6 34q2 8 -18 47q-32 59 -27 84zM358 1294q-9 -30 17 -30q25 0 76 26q44 24 77 66q37 40 43 78q6 28 -6 28q-10 0 -37 -35q-22 -36 -86 -51q-49 -11 -65 -37q-16 -25 -19 -45zM522 223l17 13q59 53 65 77q2 9 -5 15.5
t-24 9.5q-13 0 -22 -41q-5 -21 -31 -74z" />
    <glyph glyph-name="ampersand" unicode="&#x26;" horiz-adv-x="1234" 
d="M733 283q-47 0 -71 47q-20 45 -11 114q9 37 6 58q3 20 -18 20q-25 0 -92 -37q-248 -112 -389 -112q-133 0 -121 92q24 125 164 262q111 111 407 291q195 116 199 127l-160 -8q-156 0 -180 53q-6 22 0 47q21 106 209 219q159 90 258 90q74 0 110 -39q20 -28 25 -73
q3 -44 -2 -68q-10 -44 -63 -70q-45 -20 -74 -20q-50 0 -86 45q-22 37 -17 63l4 15q3 10 -8 10q-21 0 -80 -27q-71 -31 -125 -65q-64 -37 -67 -62q-3 -14 13 -23t51.5 -13.5t89.5 -4.5q7 0 110 5q33 4 82 4q36 0 54 -6t16 -17q-8 -36 -209 -145q-270 -143 -467 -299
q-201 -158 -223 -256q-9 -42 14 -63t78 -21q108 0 303 94q116 58 178 111q62 59 84 129q35 89 94 127q49 30 92 30q40 0 57 -16.5t11 -48.5q-12 -50 -78 -105q-54 -44 -100 -104q-63 -74 -76 -137q-15 -71 45 -86q69 -9 57 -62q-6 -32 -43 -51q-25 -14 -51 -14z" />
    <glyph glyph-name="quotesingle" unicode="'" horiz-adv-x="284" 
d="M291 1247q-17 0 -31 17q-12 12 -8 32q3 18 47 74q48 54 51 76q5 20 -10.5 35t-50.5 22q-53 9 -76 29t-16 51q4 22 18 45q16 28 61 47q49 19 86 19q98 0 68 -166q-16 -69 -55 -180q-27 -73 -49 -86q-21 -15 -35 -15z" />
    <glyph glyph-name="parenleft" unicode="(" horiz-adv-x="1292" 
d="M229 -295q-49 0 -94 66q-40 62 -57 180q-28 205 14 389q16 82 88 295q81 240 129 340q172 351 482 754q236 314 466 530q180 171 283 235q82 48 150 48q52 0 86 -17q16 -7 30 -41q25 -45 17 -76q-9 -46 -64 -73q-51 -21 -80 -21q-39 0 -59 13q-8 4 -47 40l-111 -79
q-264 -194 -534 -516q-272 -325 -475 -682q-50 -87 -82 -172q-33 -79 -92 -256q-65 -193 -80 -265q-17 -70 -17 -143q-12 -357 99 -416q45 -34 36 -69q-7 -31 -38 -50q-22 -14 -50 -14z" />
    <glyph glyph-name="parenright" unicode=")" horiz-adv-x="1495" 
d="M-55 -274q-60 0 -88 14q-21 14 -29 41q-25 45 -16 78q9 48 63 71q43 21 78 21q43 0 61 -12t47 -41l111 79q264 195 535 519q279 332 473 680q49 80 84 174q27 62 92 254q66 194 80 264q8 33 16 143q12 359 -100 416q-43 37 -35 72q6 29 37 47q29 16 51 16q48 0 92 -65
q41 -60 59 -181q27 -197 -14 -389q-17 -89 -90 -297q-68 -210 -129 -340q-162 -337 -479 -753q-237 -311 -467 -531q-184 -176 -285 -235q-77 -45 -147 -45z" />
    <glyph glyph-name="asterisk" unicode="*" horiz-adv-x="923" 
d="M438 1104q-29 0 -45 22q-15 18 -8 52q13 52 68 116q40 52 43 66q4 4 -2 4q-5 0 -43 -23q-45 -36 -109 -36q-38 0 -53.5 15t-9.5 44q15 78 163 84q38 0 62 4l37 6q4 1 13 3t13 3l-16 33q-18 37 -51 43q-29 6 -45 29q-16 28 -11 49q43 98 129 98q36 0 54 -18q20 -18 14 -58
q-8 -24 -10 -28q-4 -8 -17 -21q-8 -16 -10 -26q-4 -20 -4 -27t4 -31q0 -4 1 -18t1 -23q100 97 164 168q85 88 156 88q32 0 53 -18q20 -17 14 -45q-3 -26 -39 -57q-29 -29 -77 -35q-43 -8 -158 -97q147 25 213 25q45 0 64.5 -12.5t13.5 -38.5q-3 -16 -31 -35q-30 -18 -51 -18
q-16 0 -43 6q-59 16 -144 16q-103 0 -106 -16q-3 -17 37 -72q26 -41 39 -51q15 -12 43 -12q46 0 55 -15q12 -12 6 -35q-6 -29 -35 -51q-29 -20 -51 -20q-24 0 -43 28q-5 6 -84 207q-9 0 -29 -26q-15 -17 -45 -60q-21 -30 -30 -51q-3 -19 18 -25q26 -17 23 -45
q-5 -21 -39 -45q-33 -20 -62 -20z" />
    <glyph glyph-name="plus" unicode="+" horiz-adv-x="983" 
d="M393 270q-58 0 -43 64q5 26 189 575q3 25 -25 25q-43 0 -188 -43q-89 -25 -129 -25q-69 0 -54 62q8 46 66 88q51 39 102 39q10 0 47 -11q48 -22 154 -22l74 2q39 141 41 152q14 64 2 102q-6 17 -2 39q10 42 43 80q56 65 121 65q41 0 63 -32q17 -23 8 -68q-13 -56 -74 -92
q-58 -38 -106 -133l-53 -105q0 -8 20 -8q45 0 191 14q68 6 108 6q45 0 64.5 -14t13.5 -43q-6 -30 -41 -57q-27 -21 -55 -21l-17 2q-101 39 -235 39q-58 0 -80 -16q-29 -25 -90 -307q-29 -143 -33 -205q-3 -51 -10 -88q-15 -64 -72 -64z" />
    <glyph glyph-name="comma" unicode="," horiz-adv-x="227" 
d="M-14 63q-29 0 -23 31q8 27 33 56q33 43 47 65q21 41 23 51q4 23 -9 35.5t-45 17.5q-41 12 -59 29.5t-12 40.5q3 26 43 55q42 33 82 33q49 0 55 -43q7 -58 -39 -260q-8 -41 -16 -65q-9 -18 -33 -33q-23 -13 -47 -13z" />
    <glyph glyph-name="hyphen" unicode="-" horiz-adv-x="937" 
d="M207 866q-25 0 -43 15q-19 16 -14 41q9 48 59 75q50 29 104 29q26 0 47 -6q49 -14 226 -14q315 0 352 -11q17 -14 14 -39q-7 -25 -28 -43q-25 -22 -56 -22q-24 0 -63 8l-98 12q-68 7 -117 7q-150 0 -264 -27q-86 -25 -119 -25z" />
    <glyph glyph-name="hyphen" unicode="&#xad;" horiz-adv-x="937" 
d="M207 866q-25 0 -43 15q-19 16 -14 41q9 48 59 75q50 29 104 29q26 0 47 -6q49 -14 226 -14q315 0 352 -11q17 -14 14 -39q-7 -25 -28 -43q-25 -22 -56 -22q-24 0 -63 8l-98 12q-68 7 -117 7q-150 0 -264 -27q-86 -25 -119 -25z" />
    <glyph glyph-name="period" unicode="." horiz-adv-x="526" 
d="M246 782q-31 0 -43 21q-14 17 -8 43q6 30 45 63q36 33 86 33q27 0 51 -18q20 -20 14 -45q-6 -39 -57 -68q-50 -29 -88 -29z" />
    <glyph glyph-name="slash" unicode="/" horiz-adv-x="1071" 
d="M53 201q-94 0 -67 135q29 141 217 422q174 256 538 717l254 323q93 120 119 160q34 46 37 63q3 12 0 21v20q8 37 47 82q51 66 123 66q48 0 72 -37q19 -33 12 -78q-9 -47 -55 -84t-105 -37q-16 0 -33 -14q-28 -23 -57 -57q-37 -40 -106 -121q-513 -609 -746 -979
q-53 -86 -123 -232q-65 -136 -74 -182q-7 -32 0 -39q5 -11 31 -14q23 -6 29 -17q10 -10 4 -30q-3 -21 -29 -51q-29 -29 -45 -29q-11 0 -35 -8h-8z" />
    <glyph glyph-name="colon" unicode=":" horiz-adv-x="387" 
d="M188 549q-26 0 -57 16t-51 49q-15 26 -8 60q8 32 37 55q27 21 67 21q57 0 90 -39q38 -41 29 -76q-6 -30 -43 -57q-33 -29 -64 -29zM203 1219q6 37 39 63q37 29 84 29q41 0 80 -31q34 -34 26 -68q-6 -28 -51 -61q-46 -35 -84 -35q-55 0 -76 35q-27 34 -18 68z" />
    <glyph glyph-name="semicolon" unicode=";" horiz-adv-x="372" 
d="M291 1128q-38 0 -64 29q-25 28 -16 62q6 36 51 65q44 29 100 29q91 -6 76 -76q-9 -40 -57 -76q-44 -33 -90 -33zM78 766q7 33 49 59q43 27 90 27q35 0 62 -21q22 -22 28 -88q5 -58 -8 -133q-13 -61 -47 -112q-53 -84 -125 -84q-30 0 -41 14q-14 11 -10 29q6 27 78 84
q72 52 79 82q3 17 -13.5 31t-53.5 26q-100 35 -88 86z" />
    <glyph glyph-name="semicolon" unicode="&#x37e;" horiz-adv-x="372" 
d="M291 1128q-38 0 -64 29q-25 28 -16 62q6 36 51 65q44 29 100 29q91 -6 76 -76q-9 -40 -57 -76q-44 -33 -90 -33zM78 766q7 33 49 59q43 27 90 27q35 0 62 -21q22 -22 28 -88q5 -58 -8 -133q-13 -61 -47 -112q-53 -84 -125 -84q-30 0 -41 14q-14 11 -10 29q6 27 78 84
q72 52 79 82q3 17 -13.5 31t-53.5 26q-100 35 -88 86z" />
    <glyph glyph-name="less" unicode="&#x3c;" horiz-adv-x="886" 
d="M629 412q-21 0 -27 24q-6 49 -94 107q-80 53 -225 106q-85 27 -127 47q-44 18 -50 39q-9 21 0 62q9 46 230 293q231 270 254 315q46 80 76 117q39 45 108 45q32 0 60 -25q47 -18 40 -51q-6 -32 -75 -92q-78 -71 -224 -189q-435 -352 -450 -422q0 -15 16 -28
q11 -11 68 -35q23 -10 147 -53q50 -19 119 -51q56 -26 111 -58q45 -23 65 -43q24 -15 27 -28q5 -11 2 -31q-7 -28 -16 -35q-7 -10 -35 -14z" />
    <glyph glyph-name="equal" unicode="=" horiz-adv-x="956" 
d="M182 590q-50 0 -76 20q-28 20 -22 52q21 94 149 94q32 0 111 -11q91 -16 164 -16q78 0 215 21q35 6 59 6q43 0 61.5 -15.5t12.5 -44.5q-15 -37 -33 -49q-15 -12 -116 -12l-101 2q-195 0 -293 -25q-86 -22 -131 -22zM225 1112q7 24 47 51t82 27h29q161 -37 266 -37
q41 0 94 6q66 4 84 4q63 0 74 -14q10 -17 2 -49q-12 -56 -100 -56l-189 17q-43 0 -194 -23q-63 -14 -105 -14q-51 0 -73 21.5t-17 66.5z" />
    <glyph glyph-name="greater" unicode="&#x3e;" horiz-adv-x="880" 
d="M188 336q-32 0 -59 24q-47 21 -41 54q7 29 76 90q76 69 223 188q436 353 451 422q0 15 -17 29q-17 17 -67 35q-67 29 -148 53q-67 27 -119 51q-59 28 -110 57q-31 18 -66 43q-22 14 -26 29q-5 11 -2 31q7 28 16 35q5 10 35 14q20 0 26 -25q6 -47 95 -106q83 -55 225 -107
q96 -30 129 -45q40 -18 47 -41q9 -21 0 -61q-9 -48 -229 -293q-231 -270 -254 -315q-46 -80 -76 -117q-42 -45 -109 -45z" />
    <glyph glyph-name="question" unicode="?" horiz-adv-x="1761" 
d="M225 29q-46 6 -65 22q-16 14 -10 53q9 47 53 68q51 23 84 23q51 0 75 -27q26 -26 21 -43q-3 -23 -55 -59q-49 -37 -103 -37zM358 1479q21 98 226 297q305 296 676 510q409 233 659 233q46 0 57 -8q13 -10 29 -35q26 -45 20 -82q-28 -97 -94 -203q-67 -103 -245 -293
q-192 -202 -523 -524q-390 -380 -504 -497q-246 -267 -301 -404q-3 -22 35 -37q44 -18 35 -63q-9 -47 -78 -47q-49 3 -76 30q-25 28 -16 76q18 89 211 297q204 217 655 653q353 342 510 506q307 322 334 451q18 80 -84 92h-10q-104 0 -313 -90q-198 -88 -439 -252
q-198 -142 -366 -313q-173 -170 -189 -224q0 -16 37 -32q44 -28 37 -72q-13 -37 -55 -64q-44 -18 -90 -18q-71 0 -113 31q-38 27 -25 82z" />
    <glyph glyph-name="at" unicode="@" horiz-adv-x="1456" 
d="M434 313q-127 0 -194 49q-69 49 -88 134q-20 78 2 188q68 309 411 602q312 268 545 268q143 0 186 -124q40 -124 -4 -338q-30 -132 -59 -187q-29 -61 -84 -139l61 2q23 0 32.5 -9t4.5 -26q-9 -53 -110 -147t-230 -158q-269 -115 -473 -115zM197 651q-37 -166 84 -237
q46 -17 118 -17q351 0 621 228q87 74 90 88q0 2 -4 2q-6 0 -39 -23q-83 -47 -152 -47q-29 0 -49 10q-16 9 -32 39q-18 32 -23 62q-9 34 -6 53q6 17 -8 20q-20 0 -101 -63q-151 -109 -204 -109q-54 9 -39 86q22 98 145 242q159 178 248 178q24 0 61 -30q15 -21 37 -21
q4 0 14 -10q6 -9 3 -27q0 -21 18 -59q25 -73 20 -96q-9 -30 -47 -60q-44 -30 -88 -33q-36 -3 -39 -18q-3 -59 27 -92q28 -31 68 -31q51 0 131 47q78 46 137 154q62 109 92 252q68 344 -166 344q-159 0 -383 -152q-223 -152 -387 -379q-120 -170 -147 -301zM502 739
q-6 -24 6 -24q17 0 84 39q99 54 137 108q34 53 51 142q9 40 4 43q-25 0 -149 -136q-125 -137 -133 -172z" />
    <glyph glyph-name="A" unicode="A" horiz-adv-x="2230" 
d="M1610 -385q-29 0 -41 57q-47 124 26 475q57 280 291 988q-10 4 -26 16q-20 8 -109 25q-82 18 -163.5 32t-164 25.5t-106.5 15.5l-12 2l-25 -6q-30 -17 -76 -71q-270 -312 -452 -572q-142 -201 -162 -283q-3 -13 10 -32q16 -32 10 -60q-6 -29 -22 -39q-15 -12 -33 -12
q-61 0 -49 113q24 106 149 278q109 153 373 463q164 188 170 217v2h-88q-771 -41 -1141 -274l-41 -27q6 -27 21 -57q9 -18 6 -37q-9 -37 -53 -51q-71 24 -62 96q8 42 25 76q71 130 430 229q381 108 813 117l84 2q18 0 59 -8q8 0 31 20q22 19 70 70q46 49 129 141
q396 445 577 666q172 207 191 272q8 19 45 56q28 32 71 63q42 28 64 31v-2q33 0 27 -64q-10 -40 -11 -41q-61 -121 -190 -477q-48 -130 -307 -858q196 -75 293 -160q93 -81 81 -192q-8 -50 -28 -88q-14 -33 -47 -33q-63 0 -54 129q6 96 -79 166q-84 68 -183 102
q-91 -276 -159 -510q-38 -147 -70 -303q-95 -447 -29 -543q24 -38 19 -65l-4 -6q-5 -24 -29 -51q-25 -22 -45 -25zM1327 1313q170 -12 586 -103l12 29q60 136 279 784q66 198 82 279q6 22 4 22q-26 -11 -191 -182q-158 -161 -385 -405q-175 -185 -387 -424z" />
    <glyph glyph-name="B" unicode="B" horiz-adv-x="2811" 
d="M514 -348q-66 0 -92 38.5t-12 108.5q31 122 180 318q49 60 74 96q22 31 30 63q3 10 0 19q-2 23 8 76q87 376 621 1020q133 160 713 831q-47 6 -86 6q-75 0 -166 -16q-105 -15 -189 -39q-403 -111 -751 -371q-351 -259 -545 -594q-62 -103 -90 -229q-28 -138 20 -164
q24 -11 68 -14q43 0 63 -23q19 -22 13 -49q-9 -49 -78 -80q-41 -14 -100 -14q-100 3 -134 78q-31 67 -6 194q79 340 469 733q334 322 715 502q381 183 737 189l152 2q120 156 149 182q47 41 121 41q78 -6 60 -90q-13 -35 -45 -72q-38 -35 -62 -35q-25 0 -96 -65
q75 -63 94 -94q25 -43 8 -119q-35 -143 -168 -297q-136 -159 -430 -402q-195 -168 -198 -184q6 -16 59 -16q86 0 281 26q198 19 358 19q276 0 367 -39q105 -51 81 -168q-41 -173 -335 -412q-273 -226 -650 -446q-380 -222 -708 -365q-340 -145 -490 -145h-10zM440 -215
q-8 -35 17 -53.5t80 -18.5q171 0 612 203q678 315 1143 672q368 281 395 409q8 37 -27 78q-36 39 -100 60q-88 31 -332 34q-94 0 -323 -16q-247 -25 -308 -25q-47 0 -57 13q-11 11 -8 37q9 37 27 61q21 35 198 186q496 419 533 592l2 15q21 95 -70 147q-26 23 -37 23
q-30 0 -299 -287q-957 -987 -1052 -1430l-29 -131q340 304 637 461q82 43 104 43q22 -3 37 -18q15 -18 12 -35q-6 -26 -49 -55q-54 -38 -164 -95q-80 -45 -202 -129q-100 -67 -219 -159q-98 -76 -109 -101q-3 -11 4 -28q6 -17 2 -31q-10 -24 -31 -37q-26 -16 -55 -16
q-12 2 -16 6h-11q-35 0 -102 -76q-81 -92 -129 -162q-66 -96 -74 -137z" />
    <glyph glyph-name="C" unicode="C" horiz-adv-x="2441" 
d="M512 -207q-165 0 -270 60q-181 98 -238 262q-58 159 -6 405q39 174 102 316q219 416 652 823q387 346 829 600q449 258 653 258q42 -3 66 -12q24 -8 47 -41q20 -29 8 -86q-22 -108 -86 -230q-54 -99 -213 -282q-180 -201 -411 -404q-244 -212 -449 -346
q-213 -143 -307 -143q-52 0 -74 19t-14 57q8 34 41 57q37 23 123 55q218 79 637 426q398 324 583 590q94 126 105 178q15 76 -90 76q-177 0 -562 -209q-379 -203 -751 -512q-489 -417 -750 -883q-29 -54 -47 -94q-27 -72 -31 -90q-3 -11 -34 -141q-37 -171 -31 -219
q0 -35 10 -66q61 -224 297 -330q50 -22 96 -28q66 -4 146 -4q178 0 358 63q172 58 426 207q288 171 576 381q330 238 510 401q121 109 165 109q16 0 25 -17q12 -15 6 -34q-9 -49 -182 -181q-285 -225 -639 -458q-346 -225 -594 -349q-398 -184 -682 -184z" />
    <glyph glyph-name="D" unicode="D" horiz-adv-x="2811" 
d="M442 -197q-33 0 -69 19q-37 19 -51 61q-17 53 2 123l18 64q115 420 1247 1718q246 285 246 293q-31 0 -287 -113q-414 -184 -792 -475q-284 -222 -420 -412q-61 -76 -70 -118q-9 -39 23 -68q28 -28 22 -59q-6 -32 -47 -56q-38 -24 -96 -24t-96 41t-29 86q34 134 209 327
q183 202 483 414q334 239 596 363q181 86 666 272q167 212 180 274q12 50 51 76q40 27 84 27q52 0 78 -33q32 -32 23 -80q-9 -51 -84 -78q-14 -5 -66 -41q-49 -36 -78 -63q-35 -28 -39 -41v-2q34 4 158 29q284 59 492 59q278 0 421 -107q143 -106 97 -315
q-49 -229 -324 -573q-269 -335 -723 -721q-437 -366 -797 -561q-346 -183 -522 -183q-129 0 -164 103q-5 12 2 43q22 95 80 190q59 86 203 209q513 422 1057 561q117 27 174 27q52 0 67 -21q18 -21 15 -39q-4 -11 -21 -28q-13 -19 -53 -31q-51 -15 -129 -31
q-352 -72 -739 -301q-249 -152 -402 -282q-172 -141 -188 -224q-9 -48 27 -77q33 -33 106 -33q212 0 641 262q421 256 864 657q679 645 752 998q35 153 -51 248q-53 59 -115 84q-100 32 -287 32q-175 0 -424 -47q-310 -61 -376 -98q-70 -48 -312 -320q-239 -269 -501 -596
q-670 -835 -742 -1165q-12 -61 -4 -86q13 -26 51 -37q61 -21 49 -67q-3 -22 -30 -39q-24 -15 -56 -15z" />
    <glyph glyph-name="E" unicode="E" horiz-adv-x="2600" 
d="M311 -317q-342 15 -348 368q0 61 17 139q43 178 79 263q22 50 82 163h-47q-8 -2 -20 -2q-70 3 -100 24t-21 58q6 30 35 56q24 22 67 28q134 20 197 54q31 25 147 190q135 197 320 416q144 176 473 532q133 133 139 160q0 10 -8 10q-25 0 -117 -28q-345 -104 -524 -232
q-85 -67 -137 -67q-46 3 -82 36q-35 35 -29 74q16 59 121 82q668 192 903 248l76 80q143 153 195 233q38 57 71 84q26 23 72 23q68 -3 88 -39q20 -42 12 -78q-12 -38 -45 -61q-31 -25 -76 -25h-22q-30 0 -51 -16q-24 -18 -76 -70q-89 -80 -92 -94l6 -4q16 0 78 12
q350 51 534 72q209 26 391 26q237 0 330 -37q100 -40 82 -125q-11 -57 -47 -96q-35 -35 -68 -35q-22 0 -28 19q-13 16 -6 45q13 30 20 39q14 17 16 26q18 80 -487 80q-219 0 -430 -30q-189 -27 -516 -99q-329 -335 -496 -512q-343 -366 -588 -719q-46 -64 -49 -75h6
q34 0 107 28q747 246 1071 246q140 -6 201 -47q54 -37 43 -84q-2 -11 -23 -45q-12 -12 -37 -12q-39 0 -75 45q-28 39 -89 39q-82 4 -120 4q-215 0 -494 -66q-291 -66 -524 -162q-75 -32 -111 -55q-43 -25 -65 -63q-15 -21 -74 -121q-126 -228 -172 -414q-88 -417 352 -432
q266 0 699 174q458 184 1050 483q300 146 326 146q18 -6 28 -23q10 -21 5 -37q-3 -17 -13 -24q-33 -26 -256 -129q-252 -118 -504 -226q-252 -109 -477 -196q-591 -238 -844 -227z" />
    <glyph glyph-name="F" unicode="F" horiz-adv-x="1839" 
d="M47 -334q-95 12 -80 82q9 40 64 98q48 51 96 148q2 4 3.5 8.5t2.5 9t2 6.5q5 7 8 29q9 47 -24 86q-21 29 -99 92q-78 60 -102 103q-9 30 0 71q15 68 59 121q71 87 230 189q156 103 352 188q88 36 117 86q84 135 266 393q205 291 375 520q245 331 252 357l-13 2
q-96 0 -536 -123q-304 -85 -375 -127q-26 -16 -29 -37q-14 -45 -59 -65q-45 -23 -98 -23h-15q-126 3 -108 109q3 23 20 34q68 43 650 183q267 67 636 135q243 349 281 379q39 20 78 20q55 0 86 -28q29 -26 20 -64q-15 -62 -100 -92q-29 -13 -74 -49q-58 -50 -82 -76
q-39 -39 -45 -57q-3 -9 4 -9q3 0 177 23q594 74 1007 74q267 0 383 -29q60 -17 96 -59q32 -46 21 -88q-8 -29 -35 -60q-24 -24 -53 -24q-25 3 -39 20q-12 18 -6 51q9 33 -4 43q-94 54 -518 54q-496 0 -1121 -86q-6 0 -88 -101q-39 -46 -196 -241q-47 -59 -224 -289
q-95 -121 -180 -240q-86 -121 -135 -196q-98 -144 -113 -168q-36 -53 -47 -74l2 -2q18 0 97 28q173 60 346 95q178 39 293 39q102 -1 146 -36t30 -102l-2 -8q-37 -104 -82 -104q-43 0 -37 84q4 44 0 49q-14 20 -152 26q-281 0 -692 -139q-27 -45 -223 -393
q-109 -207 -191 -397q-44 -93 -53 -142q-13 -52 -4 -102q3 -56 -6 -100q-24 -105 -148 -105h-12zM-66 416q-5 -31 23 -70q29 -36 119 -108q80 -73 82 -78q9 -27 22 -27q6 0 88 156q130 248 332 583q-432 -184 -600 -364q-55 -55 -66 -92z" />
    <glyph glyph-name="G" unicode="G" horiz-adv-x="2729" 
d="M1640 -457q-14 0 -36 11q-19 15 -29 30q-11 16 -14 39t8 72q52 209 141 397q92 198 277 537q159 296 186 350q-4 0 -457 -266q-669 -399 -1024 -563t-542 -164q-310 6 -240 325q114 502 897 1239q164 151 422 353q237 186 416 303q231 146 434 235q207 92 327 92
q165 -3 209 -139q6 -27 0 -147q-4 -64 0 -133q9 -25 6 -41q-7 -26 -41 -50q-36 -26 -71 -26q-64 3 -101 33q-39 29 -24 94q11 49 43 114q29 74 35 91q11 52 -13 73q-25 19 -77 19q-124 0 -363 -103q-252 -113 -500 -278q-346 -232 -675 -537q-344 -319 -586 -624
q-253 -329 -322 -555l-4 -19q-27 -133 41 -207q27 -30 66 -39q65 -14 143 -14q173 0 442 121q278 126 725 407q874 546 877 566h-6q-20 0 -90 -15q-21 -4 -45.5 -10t-55.5 -13t-49 -11q-68 -19 -119 -37q-61 -23 -88 -23q-47 0 -86 45q-36 44 -26 90q14 40 37 56
q25 22 65 22q27 0 45 -6q11 -6 55 -10q75 0 234 20q321 35 463 35q135 -6 180 -20q85 -36 115 -117q19 -54 10 -96q-12 -62 -74 -62q-84 0 -90 84q-3 28 -12 43q-14 14 -49 25q-50 16 -82 16q-37 0 -62 -14q-30 -16 -71 -45q-43 -34 -88 -82q-37 -42 -105 -140
q-396 -556 -504 -995l-30 -125q-8 -41 -7 -49q-3 -16 19 -41q30 -34 24 -63q-15 -58 -84 -58z" />
    <glyph glyph-name="H" unicode="H" horiz-adv-x="3239" 
d="M1874 -502q-52 0 -70 66q-20 63 -8 123q34 163 -227 336q-118 63 -293 118q-245 77 -406 90q-18 0 -26 -8q-4 -6 -15 -35q-23 -58 -28 -88q-15 -60 12 -73q48 -25 39 -64q-3 -23 -33 -47q-30 -18 -61 -18q-53 0 -76 41q-27 41 -6 131q7 47 63 176q-186 22 -315 33
q-426 43 -490 79q-32 22 -26 56q24 112 403 250q250 93 527 165l333 86l269 347q127 164 592 696q418 469 434 530q6 41 55 66q57 26 100 26q41 0 72 -22q29 -23 21 -51q-9 -48 -127 -140q-483 -406 -1012 -1054q-283 -348 -285 -365h2q23 0 301 56q521 98 873 133
q20 0 37 10q28 16 112 145q67 103 187 277q632 920 667 1091q12 49 62 84t102 35q39 0 66 -18q29 -17 20 -51q-8 -48 -123 -191q-301 -387 -528 -702q-297 -412 -465 -666h236q258 0 325 -37q68 -38 47 -139q-3 -26 -28 -45t-50 -19q-38 0 -41 60q4 29 -13.5 46t-59.5 25
q-53 10 -287 17l-190 6q-343 -578 -414 -725q-113 -219 -182 -494q-15 -72 0 -102q15 -37 51 -57q60 -51 51 -93q-6 -29 -39 -49q-31 -22 -72 -34q-41 -13 -63 -13zM-68 432q-2 -10 18 -19.5t63 -19.5t106 -19.5t151 -19.5q388 -43 463 -43q13 0 31 11q24 13 96 133
q68 110 273 403q-202 -43 -570 -151q-350 -103 -526 -201q-102 -57 -105 -74zM889 315q-3 -22 14 -22q16 0 121 -21q286 -57 381 -88q123 -40 227 -94q86 -47 154 -115l59 -57q5 0 60 125q58 144 150 317.5t235 421.5l157 269q1 3 -1 3.5t-11 0.5q-24 0 -231 -19
q-538 -54 -967 -153q-334 -495 -348 -568z" />
    <glyph glyph-name="I" unicode="I" horiz-adv-x="735" 
d="M-129 -346q-22 5 -49 22q-52 22 -64 70q-11 42 13 158q68 313 397 825q311 476 862 1165q408 517 416 543l-2 2q-2 0 -8 -6q-160 -142 -353 -344q-176 -184 -323 -365q-138 -173 -152 -225q-10 -30 -16 -45q-20 -45 -82 -72q-46 -18 -84 -18q-34 3 -59 25q-24 24 -21 45
q29 68 422 479q359 374 649 620q136 116 178 129q24 4 37 4q34 -3 31 -43q-15 -50 -92 -145q-147 -190 -363 -444q-580 -693 -903 -1178q-356 -531 -440 -928q-16 -79 -8 -108q6 -34 43 -43q70 -12 61 -62q-12 -49 -90 -61z" />
    <glyph glyph-name="J" unicode="J" horiz-adv-x="2183" 
d="M121 -342q-52 0 -43 63q30 137 397 451q411 338 950 610q111 55 162 92q97 69 348 379q483 592 555 936q50 219 -82 312q-53 34 -84 39q-36 7 -147 10q-184 0 -422 -96q-219 -87 -465 -240q-238 -149 -432 -311q-186 -153 -332 -312q-129 -147 -147 -235q-8 -41 33 -101
q23 -33 18 -49q-5 -31 -45 -53q-38 -18 -86 -18q-44 0 -72 14q-32 13 -55 63q-19 42 -6 103q38 189 326 457q297 277 679 514q384 236 756 346q144 39 277 39q443 0 370 -433q-48 -214 -243 -524q-199 -319 -521 -686q-67 -69 -79 -94l-2 -2h4q11 0 73 16q140 41 201 41
q57 0 82 -16.5t18 -48.5q-7 -38 -36 -50q-24 -13 -117 -26q-160 -26 -381 -127q-71 -26 -250 -199q-517 -496 -942 -749q-195 -115 -260 -115zM121 -256q-3 -16 18 -16q95 0 428 235q325 229 672 549q78 72 78 78q2 2 0 2q-68 -30 -189 -96q-297 -167 -481 -293
q-173 -121 -352 -273q-165 -143 -174 -186z" />
    <glyph glyph-name="K" unicode="K" horiz-adv-x="1886" 
d="M-4 -446q-51 0 -100 49q-48 48 -66 125q-13 92 29 305q18 101 51 176q6 18 12.5 36t10 27.5t4.5 12.5q0 23 -27 39q-26 17 -14 92q12 47 51 100q44 57 137 150q68 74 92 112q17 27 49 56q41 44 209 270q190 259 531 694q490 629 538 735q46 101 152 101h8q40 0 70 -23
q23 -21 20 -59q-3 -22 -133 -152q-389 -374 -905 -1036q-271 -344 -277 -373q9 0 144 111q303 261 872 690q238 177 367 279q156 122 503 428q102 -8 138 -23q32 -13 20 -66q-3 -23 -35 -49q-21 -21 -112 -77q-490 -318 -1010 -705q-535 -399 -829 -659q-59 -56 -70 -70
q-15 -31 -20 -57q-28 -148 49 -267q120 -196 376 -196q129 9 318 67q192 60 305 125q125 83 158 88q17 0 33 -16q14 -17 8 -39q-6 -28 -47 -63q-95 -85 -287 -148q-211 -64 -426 -70q-175 0 -297 70q-121 68 -260 219q-81 90 -107 90q-28 -3 -82 -112q-48 -92 -55 -119
q0 -26 10 -43q9 -27 9 -37q-6 -30 -58 -51q-25 -11 -47 -56.5t-35 -119.5l-22 -123q-22 -124 -4 -205q12 -69 73 -100q69 -28 58 -72q-3 -20 -27 -41q-20 -20 -53 -20z" />
    <glyph glyph-name="L" unicode="L" horiz-adv-x="2455" 
d="M-244 -61q-52 0 -82 30q-33 28 -26 62q7 21 26 37q57 41 709 294q181 295 356 541q139 186 142 205q0 4 -2 4l-35 -20q-6 -3 -27 -17q-12 -4 -22 -4q-17 0 -27 16q-13 16 -10 31q9 39 119 103q137 91 161 110q56 49 226 254q168 203 366 455q185 239 289 387
q66 101 96 123q36 28 90 28q21 0 45 -12t37 -31q16 -19 13 -32q-2 -7 -48 -84q-123 -203 -182 -285q-210 -284 -639 -653q-108 -90 -233 -232q-165 -192 -402 -549q-170 -253 -176 -282q0 -2 4 -2q12 0 97 20q344 111 667 168q334 62 557 62q170 0 260 -41q95 -42 107 -103
q13 -41 8 -59q-6 -27 -22 -33q-16 -8 -52 -8q-31 0 -45 39q-27 104 -325 104q-169 0 -381 -26q-305 -36 -637 -125q-251 -70 -277 -88q-27 -31 -49 -109q-3 -13 4 -16q6 -2 31 -2q35 0 49.5 -12t11.5 -37q-8 -30 -45 -58q-43 -24 -84 -24q-39 0 -69 24q-17 17 -17 35
q0 24 11 72q8 41 10 56.5t0 18.5q-18 0 -170 -73q-146 -70 -207 -105q-71 -41 -80 -76q-15 -75 -121 -81zM1395 1608q158 137 360 368q27 34 57 78q45 66 54 80q26 46 26 47q0 2 -2 2q-26 -16 -362 -411q-64 -74 -133 -164z" />
    <glyph glyph-name="M" unicode="M" horiz-adv-x="2467" 
d="M1937 -256q-85 0 -122 100q-41 100 2 295q45 211 202 539q137 294 547 1018q174 304 230 409q54 102 106 226q26 61 49 153q6 21 2 29q-8 4 -16 4q-49 0 -309 -213q-157 -134 -355 -344q-155 -167 -481 -553q-177 -216 -291 -326q-106 -100 -162 -100q-75 0 -90 156
q-3 28 0 59q1 9 5 37.5t6 48.5q11 67 67 326q76 355 86 409q13 87 10 111q-3 26 -18 26q-14 0 -74 -51q-81 -66 -147 -127q-119 -110 -152 -143q-216 -230 -411 -479q-194 -247 -330 -467q-69 -120 -127 -240q-64 -137 -72 -182q-9 -41 17 -41q38 0 55 -15t12 -44
q-9 -43 -86 -84q-61 -25 -106 -25q-89 0 -74 80q9 44 47 135q166 380 498 823q322 433 733 817q169 152 248 152q116 0 63 -256q-25 -105 -57 -215q-51 -176 -92 -373q-49 -229 -43 -291q12 -69 47 -69q42 0 139 106q92 97 297 351q560 692 893 950q198 155 283 155
q40 0 57 -36q14 -38 2 -103q-16 -72 -88 -207q-71 -143 -242 -438q-358 -618 -551 -1008q-175 -353 -223 -585q-20 -97 -23 -162q-9 -102 9 -152q14 -50 63 -71q64 -24 55 -60q-3 -22 -30 -39q-26 -16 -58 -16z" />
    <glyph glyph-name="N" unicode="N" horiz-adv-x="2764" 
d="M-41 -182q-54 0 -82 78q-21 81 -10 143q26 126 233 450q177 281 697 1000q510 702 653 958q69 124 121 176q41 41 121 41q86 0 80 -61q-9 -46 -66 -100q-123 -117 -408 -478q-305 -390 -583 -772q-542 -745 -658 -1009q-46 -96 -73 -205q0 -10 2 -10q19 0 106 106
l307 373q947 1174 1559 1722q367 344 457 344q44 0 59 -6q55 -24 37 -166q-32 -150 -258 -639q-423 -927 -492 -1243q-55 -260 90 -260h11q210 34 712 504q207 198 250 201q20 0 33 -13q10 -10 10 -28q-9 -43 -188 -199q-555 -480 -801 -520h-20q-168 0 -119 284l14 86
q24 144 126.5 406.5t289.5 673.5q137 319 180 422q77 190 96 280q18 133 -16 133q-39 -6 -174 -114q-133 -104 -318 -283q-670 -612 -1429 -1610q-341 -443 -356 -514l2 -16q-6 -29 -29 -59t-49 -44q-62 -32 -103 -32h-14z" />
    <glyph glyph-name="O" unicode="O" horiz-adv-x="2975" 
d="M981 -33q-104 0 -147 37q-44 36 -66 115q-15 36 -12 74q2 32 22 135q29 140 56 207l28 65q-256 -8 -379 -10q-144 0 -215 14q-85 13 -133 45q-111 43 -76 207q26 131 195 303q156 158 412 332q478 322 1091 530l152 52l76 79q281 305 395 388q40 30 88 30q73 0 100 -47
q32 -49 21 -94q-18 -85 -133 -88l-60 4q-4 1 -18.5 3.5t-24.5 4.5l-100 -92q-41 -38 -56.5 -53t-38 -36.5t-30 -31.5t-8.5 -16q-1 -3 1 -4.5t7 -1.5q16 0 43 8q30 9 121 12q91 6 190 6q131 0 170 -2q179 -6 328 -96q53 -28 106 -94q68 -85 84 -183q6 -40 -18 -153
q-19 -86 -39 -131q-12 -33 -51 -105q-61 -101 -142 -198q-92 -107 -186 -203h123q218 0 203 -88q-7 -27 -25 -43q-15 -21 -47 -21q-24 0 -41 11q-1 1 -47 16q-49 10 -82 8l-205 -6l-178 -133q-756 -565 -1245 -727q-119 -29 -209 -29zM72 846q-15 -72 61 -127
q113 -78 346 -78q129 0 322 18l90 9q197 347 346 563q190 282 475 610q92 109 92 117v2q-17 0 -118 -37q-730 -267 -1233 -653q-331 -252 -381 -424zM821 281q-49 -242 183 -242q247 0 735 280q327 189 612 414q102 80 105 94q1 3 -2 5t-9 2q-79 0 -768 -105
q-685 -101 -725 -115q-14 -8 -41 -67q-24 -52 -53 -131q-16 -49 -37 -135zM989 688q-3 -10 8 -10q38 15 101 18q8 1 30 5t66 12.5t84 15.5q1020 187 1360 240q204 201 321 352q115 145 146 293q44 210 -123 336q-174 127 -492 127q-125 0 -266 -21q-127 -18 -188 -35
q-73 -37 -267 -262q-211 -244 -411 -512q-206 -271 -324 -467q-41 -67 -45 -92z" />
    <glyph glyph-name="P" unicode="P" horiz-adv-x="2459" 
d="M641 -207q-137 0 -88 240q102 481 1061 1784q212 283 217 307l-6 2q-32 -4 -111 -29q-80 -23 -188 -61q-74 -26 -180 -68q-668 -290 -967 -651l-51 -70q74 -41 63 -96q-8 -32 -47 -57q-46 -22 -96 -25q-62 0 -103 27q-40 27 -34 71q18 79 219 258q214 189 440 330
q534 322 1116 469q17 4 37 23q22 14 57 61q17 19 97 131q46 65 116 154q53 65 74 82q45 28 92 28q43 0 70 -18q28 -17 25 -51q-7 -25 -142 -142q-90 -78 -235 -229q219 21 278 21q150 0 283 -31q121 -28 194 -88q146 -122 103 -314q-68 -327 -537 -725q-194 -168 -344 -260
q-507 -300 -772 -303q-76 0 -109 27.5t-22 83.5q7 37 39 78q27 30 57 30q19 0 33 -14q15 -12 12 -29q-3 -13 -14 -32q-12 -17 -16 -35q-3 -12 8 -19q12 -6 45 -6q378 12 903 383q291 206 457 395q119 142 159 224q43 81 66 196q37 234 -250 326q-80 24 -194 24
q-412 -6 -449 -30q-17 -10 -50.5 -47t-103.5 -121q-119 -142 -274 -348q-493 -654 -731 -1123q-147 -288 -184 -456q-28 -141 38 -150q54 -12 48 -49q-2 -14 -23 -45q-36 -33 -86 -33z" />
    <glyph glyph-name="Q" unicode="Q" horiz-adv-x="1853" 
d="M592 127q-27 0 -47 10q-25 11 -39 33q-19 34 -25 100q-3 65 11 129l16 58q3 24 -21 24q-66 0 -356 -84q-291 -86 -309 -129q-15 -73 -109 -73q-64 0 -102 47q-24 29 -17 59q2 13 23 33q51 45 84 45q23 0 219 45q205 44 604 127l41 156q88 299 307 649q225 361 531 708
q64 77 102 125q145 176 158 209q3 7 45 21q50 16 64 16q23 0 92 41q95 59 161 59q195 0 183 -364q0 -38 -15 -115q-13 -61 -53 -186q-78 -236 -168 -397q-181 -330 -649 -830l125 -16q136 -20 197 -64.5t47 -113.5q-15 -51 -45 -89q-33 -36 -66 -36q-32 3 -45 16t-8 35
q9 28 22 47q17 23 19 33q5 12 -6 26q-20 27 -152 56q-63 14 -174 22q-158 -143 -307 -256q-225 -176 -338 -176zM543 348q-10 -48 -2 -84q3 -41 12 -53q11 -7 35 -10q64 0 196 78q123 73 291 221q46 34 49 47q0 5 -41 8q-176 0 -471 -53q16 -40 35 -62q16 -16 55 -16
q24 0 54 6q40 4 49 4q47 0 35 -47q-9 -36 -52 -57q-48 -23 -98 -23q-70 0 -108 35q-28 25 -29 25q-4 0 -10 -19zM616 565q342 46 605 66l108 114q421 445 660 918q92 194 155 483q20 97 17 138q-12 184 -127 184q-65 0 -144 -43q-44 -18 -47 -37q-3 -8 4 -35q3 -25 0 -47
q-11 -32 -47 -65q-42 -33 -90 -33q-17 0 -80 -84l-219 -289q-551 -734 -772 -1214zM723 971q8 5 137 217q64 112 203 325q156 241 166 263q-8 -3 -113 -150q-271 -377 -391 -647z" />
    <glyph glyph-name="R" unicode="R" horiz-adv-x="2076" 
d="M-57 -121q-32 0 -56 27q-23 26 -26 110q0 58 6 99q96 445 930 1702q342 516 401 649q22 46 55 69q47 33 103 33q52 0 80 -22q24 -21 24 -45q-3 -18 -43 -58q-577 -655 -948 -1267q-200 -334 -314.5 -566t-150.5 -403l-2 -6q8 0 100 164l52 90q707 1228 1540 1876
q314 247 479 262q149 0 111 -258q-76 -349 -414 -789q-346 -442 -750 -704q-207 -130 -340 -133l-73 -2l-2 -54q-3 -113 98 -188q89 -74 211 -74q124 0 282 88q158 87 422 289q166 119 193 125q2 2 22 2q27 0 37 -16q13 -16 10 -41q-6 -35 -225 -176q-276 -185 -416 -250
q-141 -66 -258 -66q-138 0 -215 23q-72 23 -125 104q-20 39 -49 115q-38 108 -51 155q-20 73 -20 97q3 20 -31 63l-29 51q-10 20 -10 43q5 31 55 72q50 38 105 41q42 0 60.5 -14t14.5 -43q-56 -184 -57 -189q-15 -70 -2 -86q21 -12 68 -12q87 3 190 47q304 147 635 490
q326 338 522 718q98 187 123 306q19 102 -12 155q-26 51 -76 51q-161 -18 -412 -202q-250 -184 -548 -494q-363 -378 -670 -817q-374 -542 -438 -846q-6 -49 -3 -94q-4 -65 -8 -78q-5 -36 -28 -59q-17 -20 -58 -41q-35 -20 -69 -23z" />
    <glyph glyph-name="S" unicode="S" horiz-adv-x="2050" 
d="M645 14q-28 0 -22 31q18 87 387 307q221 133 391 207q61 25 67 41q0 11 -10 21q-30 49 -180 79q-172 34 -492 54q-237 17 -372 41q-320 56 -271 280q27 138 148 289q116 149 346 338q477 397 1118 680q385 173 709 266q321 92 524 92q162 0 227 -59q64 -60 43 -160
q-47 -221 -452 -584t-1178 -829q-150 -86 -260 -158q-51 -28 -106 -28q-56 0 -81.5 18.5t-19.5 56.5q7 33 17 45q19 24 174 97q217 100 508 264q691 394 1069 772q217 220 243 342q12 65 -35 97t-155 32q-243 0 -660 -127q-408 -126 -845 -342q-474 -247 -846 -543
q-378 -301 -459 -528q-10 -51 10 -100q14 -53 51 -82q67 -49 203 -76q145 -28 443 -43q288 -20 366 -37q98 -15 170 -53q74 -38 80 -70q6 -24 21 -24q18 0 94 24q116 39 151 39q34 0 45 -14q12 -16 9 -33q-3 -19 -17 -37q-29 -29 -211 -78q-135 -41 -137 -51q0 -10 -43 -47
q-205 -193 -522 -330q-180 -80 -240 -80zM647 63l12 3q80 11 136 32q237 86 417 207q124 86 218 170q-346 -144 -521 -235q-162 -83 -262 -177z" />
    <glyph glyph-name="T" unicode="T" horiz-adv-x="1957" 
d="M934 -47q-100 0 -88 88q2 16 31 76q18 28 61 127q42 96 121 225q82 138 182 281q81 118 88 139q5 24 -29 80q-37 49 -88 75q-116 74 -460 113q-342 44 -437 60q-142 26 -206.5 65t-53.5 92q28 141 510 355q497 225 1266 436q317 88 473 123q28 6 67 16l39 10q64 18 70 53
q7 34 49 54q48 20 86 20q41 0 56 -12q13 -11 36 -51q472 72 562 82q106 14 249 14q215 0 313 -55.5t81 -167.5q-12 -59 -68 -137q-32 -40 -43 -48q-15 -12 -41 -12q-27 0 -38.5 10t-6.5 29q3 21 47 84q43 65 45 78q15 65 -82 108q-98 45 -307 45q-96 0 -266 -18
q-401 -44 -479 -82q-38 -28 -179 -178q-645 -683 -972 -1108q-125 -162 -148 -209q-16 -35 -20 -55q-10 -50 -168 -398q-92 -199 -96 -221q-7 -29 14 -41q24 -15 18 -39q-15 -46 -65 -75q-57 -31 -123 -31zM82 1386q-6 -29 26 -52.5t103 -43.5q139 -36 471 -71
q446 -49 555 -119q63 -34 113 -111q19 -28 16 -55q2 0 109 131q130 169 469 584q278 335 489 616q-318 -44 -1067 -276q-512 -160 -893 -334q-370 -168 -391 -269zM1104 395q0 -2 2 -2q11 0 102 152q89 150 92 170q-8 -3 -100 -154q-93 -153 -96 -166z" />
    <glyph glyph-name="U" unicode="U" horiz-adv-x="1882" 
d="M1020 -178q-79 0 -100 104q-25 108 12 277q50 230 160 483q122 272 303 612l-60 -61q-456 -464 -944 -870q-295 -246 -399 -246q-35 0 -58 33q-24 45 -28 82q-2 43 14 124q42 198 186 490q140 287 367 633q161 236 320 432q150 184 227 231q51 31 100 31q56 0 90 -37
q36 -36 27 -74q-9 -34 -43 -61q-39 -27 -86 -27l-51 7q-14 2 -37 -13q-18 -12 -53 -47q-243 -248 -535 -690q-284 -439 -416 -762q-34 -92 -51 -166q-12 -64 -2 -90q10 -27 43 -27q190 0 1256 1072q48 48 112.5 113.5t83.5 84.5q39 42 109 127q16 20 96 131q128 198 303 420
q167 215 309 363q143 149 197 149q41 0 29 -84q-24 -109 -281 -397q-234 -263 -725 -774l-113 -207q-344 -627 -428 -1014q-64 -309 58 -309q82 0 176 98q73 73 219 244l102 123q74 103 115 155q52 70 64 82q22 25 34 31q16 4 27 4q38 0 29 -33q-6 -28 -45 -82
q-474 -665 -713 -665zM1720 1741q0 -4 2 -4q16 0 353 377q332 375 344 426q0 4 -4 4q-19 0 -185 -172q-123 -128 -278 -320q-224 -280 -232 -311z" />
    <glyph glyph-name="V" unicode="V" horiz-adv-x="1601" 
d="M258 -242q-123 0 -188 146q-69 144 -72 385q-6 235 57 540q117 544 373 1006q182 344 311 344q51 0 86 -35q31 -39 23 -76q-9 -40 -45 -69q-42 -31 -96 -31q-25 0 -45 -4q-15 -6 -74 -92q-162 -233 -293 -549q-131 -315 -191 -604q-57 -264 -51 -471q6 -201 64 -311
q55 -111 147 -111q77 0 180 80q107 81 240 254q128 167 426 608q601 877 940 1323q379 501 500 571q38 17 65 17q56 0 47 -47q-6 -26 -84 -92q-369 -333 -1388 -1772q-410 -582 -510 -705q-249 -305 -422 -305z" />
    <glyph glyph-name="W" unicode="W" horiz-adv-x="2353" 
d="M1290 -193q-59 0 -110 31q-83 49 -138 158q-58 122 -102 336q-44 190 -84 276q-55 119 -156 119q-180 -15 -495 -453q-61 -78 -105 -129q-26 -29 -30 -45q-3 -10 -29 -30q-27 -18 -55 -21q-9 0 -27 12q-77 51 -59 156q38 186 250 522q124 205 448 670q419 601 500 793
q68 129 92 151q38 24 98 27q77 0 68 -62q-12 -49 -117 -178q-295 -381 -500 -670q-252 -353 -413 -608q-96 -152 -181 -315q-87 -176 -94 -213l-2 -8l2 -2q22 11 193 182q52 54 166 162q181 156 319 159q137 0 201 -168q13 -30 53 -260q29 -195 61 -295q38 -105 82 -151
q82 -94 181 -94q115 3 249 131q207 211 414 585q274 499 373 967q39 190 49 266q49 335 25 500q-7 45 -4 68q7 34 24 41q15 10 53 16q21 0 35 -20q10 -23 10 -95q-3 -165 -69 -477q-50 -243 -131 -483q-233 -672 -545 -1129q-286 -422 -479 -422h-21z" />
    <glyph glyph-name="X" unicode="X" horiz-adv-x="1636" 
d="M-197 -188q-23 0 -34 8q-60 21 -48 86q16 61 105 196q375 600 1014 1184l172 154q83 747 84 758q14 160 -6 212q-17 54 -13 76q10 38 51 66q42 28 86 28q52 0 86 -34q23 -32 17 -64q-6 -33 -29 -53q-14 -19 -74 -64l-69 -317q-43 -211 -49 -246q-25 -137 -39 -223
q-13 -93 -8 -100q4 0 84 65q1016 846 1380 846q103 -3 143 -61q34 -52 25 -93q-5 -25 -25 -41q-20 -14 -43 -14q-48 3 -88 49q-24 41 -61 41q-44 0 -168 -47q-316 -112 -699 -385q-403 -287 -567 -448q-36 -405 -33 -648q6 -327 117 -514q74 -127 96 -133q7 0 41 17
q61 28 84 28q49 -3 37 -63q-12 -49 -69 -86q-52 -37 -107 -37l-37 6q-62 24 -112 152q-52 128 -70 303q-22 416 24 958l-157 -147q-641 -601 -867 -1075q-27 -52 -38 -103q-12 -60 26 -74q29 -23 21 -51q-5 -34 -52 -74q-40 -30 -102 -40z" />
    <glyph glyph-name="Y" unicode="Y" horiz-adv-x="1949" 
d="M326 -481q-59 0 -41 92q29 142 295 446q198 208 407 389q242 209 402 316q26 15 77 55q36 36 72 88q43 59 107 166q270 433 313 629q7 63 6 69q-3 17 -33 17q-97 0 -428 -285q-320 -274 -829 -799q-281 -291 -414 -403q-141 -117 -211 -117q-64 0 -92 70q-25 73 2 203
q71 323 430 934q173 271 397 565q231 296 340 381q95 71 185 71q68 -3 96.5 -27t19.5 -67q-9 -41 -59 -59q-55 -19 -88 -19q-9 0 -41 -8q-95 -40 -354 -354q-430 -512 -690 -1041q-134 -267 -162 -409q-16 -77 -2 -111q9 -39 39 -39q47 0 157 93q165 144 488 479
q292 306 469 475q179 170 360 317q299 258 414 258q120 0 80 -184t-242 -520q-70 -115 -127 -203q-35 -49 -39 -61l4 -2q5 0 156 65q72 29 111 29q51 0 81 -27q31 -25 25 -57q-3 -26 -37 -47q-27 -21 -53 -21q-19 0 -35 11q-16 8 -39 8q-30 0 -108 -41q-161 -77 -230 -135
q-76 -66 -180 -205q-366 -472 -670 -756q-244 -229 -329 -229zM360 -369q-3 -18 9 -18q7 0 102 70q74 57 201 178q288 285 534 600q66 78 66 90q-25 -3 -250 -184q-314 -257 -510 -508q-140 -174 -152 -228z" />
    <glyph glyph-name="Z" unicode="Z" horiz-adv-x="2027" 
d="M309 20q-31 0 -42.5 9.5t-6.5 31.5q53 155 524 361q257 116 519 196q38 12 118 39q55 17 107 72q67 64 92 135q8 34 -19.5 60t-87.5 39q-131 32 -423 32h-56q-111 0 -153 11q-32 11 -29 32q22 57 221 168q427 248 727 498q355 297 393 473q12 49 -6 96q-9 40 -35 56
q-24 15 -88 30q-61 17 -137 17q-243 0 -569 -146q-333 -149 -641 -399q-143 -117 -266 -256q-150 -173 -168 -254q-9 -54 45 -68q25 -8 49 -43q20 -28 16 -59q-9 -28 -53 -43q-51 -14 -86 -14q-27 0 -51 6q-136 43 -109 182q7 29 23 61q91 196 387 451q296 256 651 442
q453 236 789 248q69 0 157 -20q118 -30 164 -88q39 -70 19 -164q-15 -62 -37 -107q-22 -55 -68 -116q-126 -169 -418 -394q-301 -230 -661 -432q-122 -73 -125 -84l2 -4h190q274 0 381 -26q172 -43 146 -164q-11 -58 -99 -178q-3 -6 4 -9q15 0 89 19q166 39 276 39
q119 0 154 -56q20 -33 14 -59q-15 -43 -78 -43q-26 0 -59 8q-38 10 -84 10q-109 0 -344 -49q-61 -12 -125 -28q-46 -12 -78 -31q-24 -11 -76 -45q-114 -79 -323 -193q-188 -105 -334 -166q-227 -84 -322 -84zM315 94q0 -5 23 -8q46 0 135 29q363 121 741 368l-67 -20
q-198 -59 -363 -125q-191 -76 -315 -141q-132 -63 -154 -103z" />
    <glyph glyph-name="bracketleft" unicode="[" horiz-adv-x="1226" 
d="M145 -246q-79 0 -127 39q-122 110 -63 389q65 299 285 701q191 354 641 1038q229 351 241 397q4 18 -2 21q-14 27 -8 49q12 49 76 92q62 41 106 41t62 -24q2 -2 43 -89q112 3 205 9q122 4 190 4q43 -3 61 -27q18 -26 13 -45q-5 -31 -47 -53q-34 -17 -52 -17q-26 4 -61 15
q-37 16 -119 16q-18 0 -96 -4q-245 -15 -283 -27q-27 -27 -163 -219q-931 -1334 -1041 -1855q-52 -232 62 -305q44 -27 77 -27q41 0 84 37q53 39 90 39q50 0 41 -66q-9 -31 -51 -67q-48 -41 -86 -52q-48 -10 -78 -10z" />
    <glyph glyph-name="backslash" unicode="\" horiz-adv-x="1171" 
d="M897 201q-19 8 -31 8q-17 0 -30 29q-14 26 -11 51q5 18 17 30q10 10 37 17q29 4 39 14q9 9 16 39q7 37 4 182q-9 128 -25 232q-80 382 -331 979q-16 42 -54 121q-15 35 -32 57q-11 14 -29 14q-61 0 -88 37q-28 39 -19 84q6 38 46 78q37 37 88 37q67 0 96 -66
q16 -46 8 -82q-3 -13 -8 -20q-1 -2 -4 -9t-4 -12q-2 -12 8 -63q10 -40 53 -160l115 -323q161 -429 235 -717q67 -276 37 -422q-27 -135 -123 -135h-10z" />
    <glyph glyph-name="bracketright" unicode="]" horiz-adv-x="1544" 
d="M371 -254q-42 0 -64 25q-14 18 -41 88q-110 -3 -205 -9q-122 -4 -190 -4q-45 3 -61 25q-18 29 -13 47q5 31 47 53q31 17 52 17q20 -3 61 -15q32 -16 119 -16q18 0 96 4q245 15 283 27q27 27 163 219q931 1333 1041 1853q49 236 -62 307q-49 27 -77 27q-44 0 -84 -37
q-53 -39 -90 -39q-50 0 -41 66q9 31 51 67q44 41 86 50q43 12 78 12q79 0 127 -39q121 -112 63 -389q-65 -299 -285 -701q-191 -354 -641 -1038q-229 -351 -241 -397q-4 -18 2 -21q11 -23 8 -49q-12 -49 -76 -92q-65 -41 -106 -41z" />
    <glyph glyph-name="asciicircum" unicode="^" horiz-adv-x="968" 
d="M276 958q-36 0 -52 14t-11 42q6 21 195 237q191 215 260 281q80 74 118 74q30 0 39 -47q11 -45 11 -148q-3 -266 71 -319q29 -23 23 -52q-2 -20 -27 -34q-26 -13 -49 -13q-45 0 -59 47q-10 38 -7 220q7 165 7 198q-3 60 -15 60q-20 0 -96 -82q-184 -212 -262 -369
q-57 -109 -146 -109z" />
    <glyph glyph-name="underscore" unicode="_" horiz-adv-x="1187" 
d="M4 221q-49 0 -86 29q-31 28 -22 69q12 35 41 54q24 16 94 16q15 0 73 -4q40 -6 97 -6q89 0 280 18q220 19 324 19q145 0 196 -29q56 -26 50 -61q-12 -59 -76 -62q-27 0 -60 23q-35 32 -96 41q-52 8 -164 8q-99 0 -249 -25q-149 -27 -265 -61q-89 -29 -137 -29z" />
    <glyph glyph-name="grave" unicode="`" horiz-adv-x="430" 
d="M467 1518q-16 0 -21 8q-10 10 -30 123q-35 204 -55 306t-28.5 128t-19.5 37q-30 30 -34 30t-7 9q-2 6 2 22q6 32 37 51q30 23 58 23q20 0 34 -14q11 -14 5 -43q-4 -16 -13 -25q-12 -15 -14 -25q-4 -24 5 -71.5t48 -207.5q11 -45 17.5 -72.5t19 -78t23.5 -98.5
q4 -18 13.5 -30.5t16.5 -18t6 -8.5q-3 -16 -24 -31q-20 -14 -39 -14z" />
    <glyph glyph-name="a" unicode="a" horiz-adv-x="1529" 
d="M666 514q-178 0 -228 117q-33 73 -30 262q6 118 -5 135q-26 0 -346 -235q-94 -70 -133 -70q-28 0 -22 51q9 44 88 129q89 96 178 170q100 83 174 121q57 23 107 23q88 0 149 -46q63 -45 51 -100q-6 -39 -51 -65q-54 -32 -106 -29l-58 4q-16 -188 4 -276q18 -69 72 -111
q39 -31 108 -31t127 10q49 9 142 50q170 77 346 172q213 116 285 168q89 63 141 63q41 0 35 -47q-1 -7 -11 -31q-37 -54 -198 -139q-177 -93 -367 -170q-311 -125 -452 -125zM59 860q12 0 156 113q84 63 84 69h-4q-85 -56 -154 -110q-82 -67 -82 -72z" />
    <glyph glyph-name="b" unicode="b" horiz-adv-x="1288" 
d="M-457 -145q-41 0 -55 26q-18 24 -8 64q3 17 24 51q35 57 88 166q115 239 342 569q103 149 109 174q3 12 -2 17q-17 17 -14 43q13 49 120 106q65 29 224 217q176 198 428 453q212 209 397 364q178 146 236 146q11 0 30 -15q18 -22 21 -32q7 -20 4 -29q-9 -44 -172 -225
q-371 -411 -983 -918q-127 -109 -158 -123q-30 -15 -55 -43q-39 -47 -166 -250q-111 -183 -113 -192q14 5 131 119q186 174 363 286q180 109 274 109q59 0 68 -35q6 -28 0 -121l149 76q138 68 252 105q125 41 185 41q57 -9 81.5 -29.5t18.5 -52.5q-6 -29 -41 -48
q-12 -8 -29 -8q-5 0 -37 8q-26 13 -67 13q-82 0 -199 -47q-86 -35 -368 -164l-78 -105q-93 -118 -230 -252q-128 -128 -252 -225q-122 -94 -163 -94q-24 0 -31 14q-4 11 2 54q7 30 27 59q23 33 75 94q92 103 262 244q162 138 287 219q51 28 82 55q28 25 43 60q17 39 21 53
q0 12 -4 20q-4 7 -31 7q-53 0 -146 -43q-164 -77 -346 -236q-185 -162 -315 -344q-45 -62 -62 -92q-22 -43 -30 -88l-19 -113q-6 -40 -63 -76q-54 -32 -107 -32zM-109 49q0 -10 7 -10q32 0 170 111q150 121 321 303q123 129 129 147q0 4 -4 4q-6 0 -59 -29
q-156 -97 -375 -303q-173 -154 -189 -223zM455 1292q341 260 841 781q-163 -98 -403 -330q-206 -194 -438 -451z" />
    <glyph glyph-name="c" unicode="c" horiz-adv-x="1349" 
d="M-37 305q-105 0 -143 60q-36 58 -17 153q38 175 242 440q64 87 152 162q98 88 163 88q57 0 91 -55t16 -131q-12 -59 -68 -86q-56 -29 -88 -29q-38 0 -63 25q-29 26 -23 49q2 8 3 13.5t0.5 8.5t-1.5 3q-6 0 -30 -21q-102 -83 -215 -231q-122 -166 -148 -265
q-14 -63 21.5 -95t119.5 -32q125 3 291 62q161 59 482 209q300 145 546 287q133 71 160 71q19 0 27 -14q12 -12 6 -31q-6 -36 -131 -100q-128 -69 -459 -217q-391 -173 -596 -246q-225 -78 -338 -78z" />
    <glyph glyph-name="d" unicode="d" horiz-adv-x="878" 
d="M12 -545q-51 0 -75 47q-35 47 -11 160q80 348 365 834q260 437 768 1093l59 82h-2q-70 -49 -366 -311q-295 -258 -324 -295q-23 -31 -88 -80q-76 -59 -139 -115q-155 -137 -228 -137q-34 0 -49 27q-15 24 -6 67q13 63 137 205q206 238 314 238q32 0 53 -21l20 -10
q31 0 250 195q244 201 490 424q241 210 274 210q29 0 29 -24q-24 -54 -277 -358q-872 -1062 -1112 -1754q-45 -144 -63 -219q-30 -136 6 -139q12 0 41 16q44 23 59 23q19 0 35 -16q13 -16 10 -37q-9 -42 -65 -72q-53 -33 -105 -33z" />
    <glyph glyph-name="e" unicode="e" horiz-adv-x="1165" 
d="M2 602q-153 0 -123 133q9 51 49 121q39 68 119 145q69 67 162 129q82 54 117 54q25 0 45 -17q13 -16 10 -47q-15 -62 -174 -225q-75 -88 -150 -82l-55 4q-25 3 -47 -33q-27 -35 -33 -61q-6 -32 19.5 -49t81.5 -19q53 0 137 19q119 24 694 213q334 114 385 114
q38 -3 29 -43q-6 -30 -19 -43q-12 -12 -49 -24q-55 -19 -512 -135q-454 -114 -487 -121q-129 -33 -199 -33z" />
    <glyph glyph-name="f" unicode="f" horiz-adv-x="909" 
d="M-485 -272q-52 0 -80 28q-9 15 -19 62q-12 70 -32 76q-31 12 -48 51q-20 36 -14 71q5 29 62 99q63 74 129 129q76 67 139 166q252 399 870 1097q122 137 162 176q46 49 82 80q28 19 45 19q27 0 45 -21q21 -21 14 -45q-9 -42 -215 -360l-108 -172q-42 -68 -74 -84
q-34 -15 -70 -15q-31 0 -55 9q-30 10 -37 22q-8 14 -18 14q-30 0 -293 -333t-272 -375q0 -2 4 -2q15 0 71 41q323 219 670 391q350 176 469 176q35 0 64 -20q28 -22 22 -47q-12 -58 -84 -58l-72 4q-143 0 -444 -139q-297 -140 -625 -365q-42 -29 -106 -75q-34 -24 -55 -56
q-31 -40 -43 -67q-51 -97 -66 -168q-9 -65 4 -70q14 -7 35 -10q134 -41 113 -129q-9 -55 -76 -80q-47 -20 -94 -20zM-633 6q-3 -13 4 -18q16 -11 17 -11q8 -2 18 -2q19 0 31 27q3 5 26 59q11 33 27 64q18 32 18 39q3 6 -2 6q-2 0 -6 -3.5t-13.5 -12.5t-18.5 -17
q-21 -19 -66 -71q-32 -40 -35 -60z" />
    <glyph glyph-name="g" unicode="g" horiz-adv-x="1224" 
d="M-418 -588q-73 0 -108 53q-38 57 -15 162q40 184 232 420q196 236 477 461q275 223 602 399q129 71 152 103q21 38 34 92q18 99 -24 104q-21 0 -131 -49q-218 -95 -230 -147q-6 -27 -45 -52q-42 -22 -86 -22q-45 0 -202 -80q-150 -78 -211 -78q-35 0 -54 25
q-19 28 -10 57q12 69 166 193q109 90 190 135q71 39 144 39q49 0 84 -27q35 -24 41 -61q3 -6 10 -6q23 0 92 38q189 107 256 107q73 0 43 -139q-14 -53 -20 -70q-2 -6 -7.5 -22t-7.5 -25v-12q5 0 103 34q130 50 211 50q48 0 75 -21q27 -20 21 -47q-7 -23 -27 -35
q-22 -16 -51 -16l-22 6q-6 2 -33 2q-69 0 -154 -31q-75 -27 -190 -80q-179 -329 -223 -407q-84 -138 -191 -291q-242 -349 -483 -553q-247 -209 -408 -209zM-518 -379q-35 -157 96 -160q164 0 424 224q334 287 655 827q185 310 195 350v2q-6 0 -59 -26q-15 -8 -56.5 -30
t-68.5 -36q-86 -45 -138 -76l-106 -59q-226 -139 -420 -313q-201 -180 -346 -369q-147 -191 -176 -334zM84 874q0 -4 6 -4q16 0 139 60q62 27 80 45q21 15 27 43q2 8 6 24.5t6 24.5q-47 -23 -108 -63q-76 -53 -105 -76q-47 -36 -51 -54z" />
    <glyph glyph-name="h" unicode="h" horiz-adv-x="1265" 
d="M-252 -131q-16 0 -45 16q-26 14 -29 45q-3 105 17 199q53 250 405 745q-44 24 -61 41q-8 11 -2 39q7 22 14 33q10 12 39 35q32 25 84 53q78 51 102 68q43 32 68 57l86 103q68 74 149 167q309 356 568 607q272 266 330 266q23 0 32 -21q11 -20 8 -45q-15 -69 -421 -497
q-607 -659 -840 -838q-49 -36 -94 -84q-109 -121 -240 -369q-111 -203 -135 -321q-9 -33 2 -33q16 0 98 113q144 189 291 358q159 182 279 299q127 121 157 121q58 0 17 -207q-12 -91 0 -137q15 -68 90 -68q67 0 219 101q149 96 276 194q104 78 142 78q36 0 30 -45
q-3 -14 -79 -72q-51 -37 -191 -125q-276 -171 -393 -174q-70 0 -98 60q-27 59 -9 203q18 146 7 149q-12 0 -68 -47q-37 -31 -119 -113q-47 -49 -119 -129q-156 -189 -254 -336q-84 -128 -161 -276q36 -25 39 -35q5 -5 2 -35q-10 -34 -43 -67q-36 -36 -91 -58
q-47 -18 -59 -18zM627 1446q21 9 317 317q260 272 260 279q-32 -10 -366 -363q-208 -217 -211 -233z" />
    <glyph glyph-name="i" unicode="i" horiz-adv-x="909" 
d="M23 510q-41 -1 -59.5 32.5t-12.5 96.5q2 40 16 106q46 208 135 355q57 77 123 80l31 2q44 -3 70 -23q23 -20 26 -55q-16 -79 -94 -107q-35 -11 -96 -88q-56 -70 -109 -161q-53 -86 -65 -130q-3 -49 59 -49q85 3 197 47q102 48 389 201q271 154 336 168q44 -6 41 -41
q-9 -46 -80 -70q-39 -15 -389 -172q-372 -172 -480 -190zM414 1511q34 98 174 113q93 -6 84 -70q-11 -35 -54 -69q-41 -39 -120 -45q-47 3 -68.5 20.5t-15.5 50.5z" />
    <glyph glyph-name="j" unicode="j" horiz-adv-x="1034" 
d="M805 1636q-12 0 -41 13q-23 9 -41 30q-17 17 -14 47q10 38 53 66q47 33 104 33q49 0 71.5 -18.5t20.5 -57.5q-6 -31 -32 -57q-56 -56 -121 -56zM-739 -399q74 344 762 878q322 249 526 367l172 100l2 58q5 136 -27.5 202t-109.5 66q-86 0 -193 -64q-78 -44 -143 -102
q-57 -60 -60 -78q-1 -6 5 -9t18 -3q22 0 43 -12q25 -21 33 -31q13 -16 10 -31q-10 -46 -63 -72q-61 -28 -136 -28q-48 0 -80 32q-35 30 -26 64q6 37 65 106q49 57 136 127q236 175 389 175q52 0 96 -29q35 -23 61 -100q17 -86 7 -175q-6 -81 4 -81q273 126 315 126
q39 0 74 -30q31 -31 22 -64q-9 -50 -57 -53q-23 0 -41 12q-23 13 -47 13q-25 0 -115 -35q-56 -22 -131 -58q-38 -17 -63 -49q-24 -31 -35 -71q-58 -162 -205 -390q-156 -237 -319 -417q-139 -146 -297 -277q-164 -137 -277 -200q-100 -50 -178 -56l-49 -4q-40 -3 -66 37
q-44 59 -22 156zM-721 -412q-16 -68 19 -100q35 -35 75 -35q35 0 111 29q134 48 336 209q208 166 381 362q280 322 420 623q42 79 49 115q6 18 -8 18q-25 0 -119 -55q-491 -278 -856 -621q-363 -335 -408 -545z" />
    <glyph glyph-name="k" unicode="k" horiz-adv-x="1087" 
d="M-440 -229q-95 0 -74 149q35 155 207 436q124 203 334 471l79 101l-24 24q-7 7 -19 23q-7 11 -4 29q6 20 50 55q41 32 137 98q54 36 96 72q83 73 324 340q227 247 309 325q64 61 96 64q29 0 45 -23q20 -20 14 -49q-7 -33 -133 -180q-125 -149 -297 -330
q-173 -185 -317 -315q-144 -135 -195 -135q-19 0 -145 -156q-367 -471 -451 -760l-30 -108q16 -9 30.5 -18t24 -16t12.5 -9q9 -12 6 -37q-6 -19 -26 -37q-17 -14 -49 -14zM20 614q22 97 392 377q72 57 110 82q39 27 60 33q21 8 47 8q63 0 92 -39q36 -39 27 -76
q-3 -15 -13 -28q-8 -14 -41 -27q-39 -13 -92 -18q-148 -18 -377 -152q-157 -90 -166 -135q-5 -15 15.5 -24t62.5 -9q95 0 287 58q193 56 375 133q179 71 272 139q65 45 98 45q31 0 25 -41q-6 -25 -41 -47q-47 -28 -133 -62q-91 -35 -281 -102q-474 -168 -639 -168
q-43 0 -63.5 13.5t-16.5 39.5z" />
    <glyph glyph-name="l" unicode="l" horiz-adv-x="1091" 
d="M-213 55q-65 0 -96 54q-35 52 -10 170q17 80 69 186q323 643 1215 1393q229 192 268 192q50 0 41 -49q-18 -83 -223 -313q-230 -255 -457 -490q-184 -193 -223 -209q-23 -10 -64 -10q-48 0 -61 10q-10 8 -51 62q-439 -535 -496 -807q-30 -133 94 -133q238 0 1116 688
q226 176 267 176q22 0 16 -37q-6 -25 -184 -147l-465 -322q-601 -414 -756 -414zM276 1145l37 24q136 96 291 236q178 162 232 217l266 276q-179 -129 -350 -284q-172 -153 -476 -469z" />
    <glyph glyph-name="m" unicode="m" horiz-adv-x="1597" 
d="M-297 246q-93 0 -84 73q7 31 86 154q23 34 60.5 86.5t103 143.5t113.5 159q272 380 284 438q24 66 72 107q50 41 106 41q45 0 65 -17t15 -51q-12 -47 -82 -102q-99 -80 -258 -270q-175 -210 -254 -334q-22 -39 -22 -45l16 16q230 211 359 309q185 137 247 146
q49 0 19 -180q-13 -54 -17 -93q-3 -30 23 -30q41 0 283 161q110 70 135 70q33 0 96 -84q56 -71 96 -80q21 -8 70 -8q58 0 244 76q142 59 176 59q29 0 39 -16q11 -14 8 -37q-6 -21 -25 -37q-16 -12 -237 -65q-138 -32 -191 -37q-98 0 -186 98q-59 74 -88 74q-31 0 -279 -154
q-103 -65 -145 -65q-34 0 -37 41q-8 34 12 127q23 120 6 120q-29 -6 -67 -30q-183 -121 -352 -299q-175 -184 -232 -322q-64 -143 -178 -143z" />
    <glyph glyph-name="n" unicode="n" horiz-adv-x="1345" 
d="M-332 233q-30 0 -37 11q-11 11 -8 41q0 34 8 65q14 69 84 178q74 111 267 349q247 305 327 450q25 55 78 100q50 35 90 35q31 0 62 -22q27 -21 20 -54q-12 -58 -166 -206q-188 -192 -405 -447q-181 -220 -193 -270q0 -10 4 -10q9 0 49 30q38 26 93 78q91 81 241 207
q114 95 230 182q103 80 129 90q32 13 45 13q20 0 37 -33q17 -34 14 -90q-3 -101 2 -144q12 -96 149 -96q96 0 250 62q148 58 269 149q76 64 100 64q7 0 14 -7q27 -20 21 -43q-9 -50 -131 -114q-121 -63 -264 -105q-145 -45 -250 -45q-111 0 -152 56q-40 51 -31 184v72
q0 20 -4 32q-2 1 -8 5.5t-8 5.5q-43 0 -199 -119q-151 -117 -317 -283q-155 -158 -197 -235q-16 -31 -71 -86q-74 -50 -142 -50z" />
    <glyph glyph-name="o" unicode="o" horiz-adv-x="1046" 
d="M-8 524q-36 0 -66 41q-30 46 -12 125q24 116 162 328q89 133 92 160q17 53 61 77q44 23 82 23q44 -7 66 -23q28 -16 45 -18q13 0 51 10q51 15 74 15q113 -9 88 -132q-30 -103 -129 -239q-31 -36 -41 -53l2 -2q17 0 111 24q66 15 206 53q58 15 193 56q97 32 145 32
q28 0 31 -12q4 -14 -2 -49q-9 -28 -39 -37q-45 -13 -133 -29q-145 -29 -227 -43q-167 -28 -211 -34q-68 -10 -95 -17q-33 -7 -49 -18q-22 -13 -39 -35q-94 -88 -196 -143q-111 -60 -170 -60zM-2 655q-6 -36 27 -39q54 0 133 48q91 59 155 106l-55 -4q-82 3 -180 45l-17 -33
q-6 -10 -18 -31.5t-18 -31.5q-5 -13 -14.5 -32.5t-12.5 -27.5zM121 860q-6 -14 24 -24q44 -13 211 -19l58 57q52 52 104 134q49 76 64 125q6 29 -11 36q-21 7 -51 7q-39 0 -104 -21q-51 -19 -94 -59q-43 -43 -82 -90q-42 -44 -82 -95q-37 -47 -37 -51z" />
    <glyph glyph-name="p" unicode="p" horiz-adv-x="1093" 
d="M-686 -508q-29 0 -41 21q-14 17 2 100q67 312 471 893q136 203 164 268q21 47 51 80q40 49 45 76q9 42 123 127q125 104 281 264q202 205 266 262q83 74 115 74q45 -3 36 -47q-12 -60 -170 -232q-113 -125 -120 -145q0 -2 2 -2q130 47 206 47q142 0 105 -174
q-4 -17 -12 -43l-13 -33q33 10 63.5 19t53.5 16t27 8q52 10 98 10q70 0 107 -34q33 -55 26 -91q-12 -49 -78 -49q-31 0 -47 29q-9 31 -61 31q-47 0 -160 -29q-56 -15 -92 -35q-28 -18 -51 -53q-107 -144 -305 -318q-318 -274 -453 -274q-33 0 -49 29q-13 34 -8 61
q8 34 57 105q91 128 272 256q186 134 414 239q145 68 152 68q5 6 12 39q15 81 4 104q-19 25 -59 25q-60 0 -158 -37q-96 -41 -197 -105q-82 -60 -147 -133q-71 -74 -80 -108q-6 -34 -47 -72q-40 -37 -82 -37l-51 4q-11 3 -43 6q-276 -386 -394 -593q-114 -195 -172 -426
q-6 -28 -2 -39q3 -9 13 -9q11 0 20 -12q8 -16 12 -26q5 -13 5 -27q-4 -14 -23 -31q-23 -23 -43 -33q-22 -14 -45 -14zM-74 348q-2 -12 8 -19t33 -7q126 0 420 247q170 141 307 308q2 4 -4 4q-9 0 -76 -23q-211 -88 -389 -211q-175 -121 -264 -241q-33 -48 -35 -58z" />
    <glyph glyph-name="q" unicode="q" horiz-adv-x="956" 
d="M-129 -657q-44 0 -78 34q-17 17 -22 33q-6 17 0 51q0 2 5.5 36.5t10.5 58.5q35 165 178 395q152 238 477 649q468 592 486 682q3 12 -2 12q-18 0 -76 -30l-272 -158q-30 -142 -50 -170q-15 -34 -57 -53q-46 -21 -86 -21q-35 0 -66 21q-5 8 -18 8q-16 0 -104 -55
q-125 -82 -185 -82q-63 0 -51 80q12 59 121 184q112 125 235 219q126 100 201 100q40 0 70 -24q28 -25 22 -56q-3 -17 6 -20q12 0 86 47q198 127 279 127q30 0 43 -16q14 -17 2 -82q-15 -69 -113 -205q-75 -113 -344 -442q-279 -348 -401 -519q-138 -186 -199 -315
q-56 -107 -90 -246q-13 -72 0 -90q13 -25 58 -28q35 -5 51 -17.5t12 -32.5q-3 -11 -25 -30t-49 -31q-28 -14 -55 -14zM154 926q227 137 239 200q3 7 -4 7q-31 0 -235 -207z" />
    <glyph glyph-name="r" unicode="r" horiz-adv-x="942" 
d="M-178 375q-26 0 -39 10q-11 25 -19 70q-6 50 0 80q11 55 355 514q111 146 133 211q18 46 53 81q50 41 103 41q45 0 75 -24q29 -29 21 -72q-6 -24 -37 -55q-27 -32 -66 -45q-18 -11 -59 -49q-96 -93 -213 -242q-157 -202 -162 -233l2 -5q7 0 156 134q182 163 274 235
q112 86 136 86q50 0 71 -59q6 -17 11.5 -47.5t12 -52.5t17.5 -33q36 -37 88 -52t101 -2q46 12 108 70q51 45 74 45q16 0 33 -20q13 -22 10 -39q-9 -37 -98 -82q-86 -45 -207 -45q-52 0 -91.5 16t-62.5 42t-37.5 64.5t-19.5 76t-6 83.5q-277 -202 -463 -434q-53 -69 -58 -100
q-1 -3 -6 -47q-12 -52 -67 -86q-62 -35 -123 -35z" />
    <glyph glyph-name="s" unicode="s" horiz-adv-x="948" 
d="M-592 -266q-78 6 -72 82q16 74 76 149q72 90 273 248q214 165 395 276l176 109q-45 45 -63 68q-152 172 -140 227q26 126 117 227q80 89 152 107q70 0 110 -19q37 -19 25 -78q-9 -43 -125 -83q-191 -77 -221 -164q-3 -35 24 -72q4 -6 164 -190q571 364 698 364
q77 0 68 -53q-9 -47 -119 -74q-36 -9 -190 -76q-126 -56 -254 -123q-124 -62 -166 -90l-2 -4q-3 -12 6 -49q7 -46 -6 -123q-27 -95 -86 -178q-96 -122 -295 -256q-313 -207 -545 -225zM-647 -172q-6 -46 63 -49l23 2q32 2 119 22q247 82 479 258q227 170 276 314
q10 61 2 100q-8 43 -32 53q-44 -6 -197 -90q-326 -182 -543 -381q-145 -131 -190 -229z" />
    <glyph glyph-name="t" unicode="t" horiz-adv-x="626" 
d="M-453 -530q-13 0 -45 16q-27 18 -45 55q-17 36 -8 92q56 246 193 490q129 233 471 711q-60 9 -95 24q-30 18 -24 60q9 41 115 118q178 136 634 592q218 221 218 223q-64 0 -281 -32q-835 -114 -944 -164q-30 -15 -51 -39q-25 -25 -41 -33q-28 -8 -86 -8q-57 0 -95 35
q-31 39 -26 63q6 34 57 60q52 25 156 28q83 3 715 80q627 73 667 86q516 531 527 531q19 -8 16 -41q-9 -41 -205 -252q-195 -210 -199 -221q2 -2 15 -2q25 0 127 10q708 77 1231 80q160 0 225 -11q81 -15 118 -36.5t31 -49.5q-4 -15 -18 -32q-19 -19 -45 -19q-30 0 -76 14
q-137 41 -446 41q-391 -6 -869 -36q-318 -21 -362 -37q-10 -6 -119 -121q-497 -524 -686 -758q-154 -187 -346 -469q-167 -242 -285 -455q-99 -188 -129 -325q-19 -86 -10 -115q6 -31 39 -31l53 7q60 0 51 -54q-4 -18 -20 -32q-19 -19 -53 -31q-30 -12 -50 -12z" />
    <glyph glyph-name="u" unicode="u" horiz-adv-x="1171" 
d="M74 690q-28 0 -51 23q-44 44 -23 147q11 50 43 137q54 138 78 172q18 24 59 39q38 15 74 15q45 0 68 -23q22 -22 16 -49q-9 -39 -62 -92q-56 -56 -92 -121q-41 -61 -55 -111l-4 -20q1 -1 1 -3.5t0.5 -3.5t2.5 -1q18 0 272 190q182 135 193 135q6 0 12 -6q9 -6 12 -18
q7 -9 3 -35q-17 -49 -33 -84q-13 -28 -33 -86q-9 -44 27.5 -67.5t119.5 -26.5q82 0 213 35q140 41 197 75q65 39 107 39q24 0 34 -20q8 -16 4 -33q-12 -43 -104 -80q-89 -33 -215 -55q-118 -23 -225 -23h-8q-112 0 -160 53t-29 142l4 20q4 11 -2 11q-24 0 -164 -119
q-196 -156 -280 -156z" />
    <glyph glyph-name="v" unicode="v" horiz-adv-x="1124" 
d="M57 399q-111 3 -28 449q34 190 37 239l6 37q13 58 63 84q56 29 94 29q37 -3 62 -31q26 -26 20 -57q-6 -27 -49 -82q-35 -54 -112 -274q-45 -117 -66 -211q-16 -68 -2 -76q3 -6 12 -6q26 0 273 215q680 596 825 596q41 0 58.5 -16t11.5 -48q-15 -65 -91 -65
q-78 0 -331 -174q-275 -189 -478 -373q-159 -145 -206 -182q-69 -54 -99 -54z" />
    <glyph glyph-name="w" unicode="w" horiz-adv-x="1486" 
d="M25 426q-50 0 -68 49q-21 46 -2 135q15 83 55 185q13 38 80 227q41 102 53 127q9 24 58 49q48 25 90 25q38 0 74 -31q33 -29 24 -64q-7 -30 -29 -47q-22 -19 -79 -47q-49 -24 -113 -106q-71 -87 -125 -183q-62 -108 -72 -163q-9 -44 9 -78q15 -35 49 -35q28 0 92 37
q76 40 340 307q224 233 301 274q40 19 74 19q50 0 75 -31q25 -32 17 -63q-8 -40 -72 -94q-107 -79 -145 -252q-9 -57 -2 -62q12 -4 24 -4q165 0 527 416q100 115 159 170q57 51 84 51q17 0 33 -16q11 -17 8 -37q-12 -57 -155 -191q-487 -461 -650 -461q-27 0 -47 17
q-39 26 -39 92q0 68 31 270q-490 -405 -596 -471q-32 -14 -63 -14z" />
    <glyph glyph-name="x" unicode="x" horiz-adv-x="1335" 
d="M-117 51q-43 0 -67 41q-19 32 -17 47q0 4 8 54q12 50 29 100q24 58 139 219q121 164 123 178q0 22 -10 117q-14 98 -29 168q-11 79 -22 108q-14 22 -10 50q18 85 137 112l29 2q90 -3 81 -84q-9 -40 -26 -51q-24 -31 -70 -242q-12 -58 -14.5 -84.5t4.5 -27.5q11 0 86 78
q358 332 416 366q37 19 82 25q41 -3 71 -33q31 -34 31 -72q-18 -90 -162 -90q-65 0 -104 -20q-65 -35 -205 -142q-205 -160 -221 -219q-3 -78 55 -133t148 -55h18q246 0 864 409q134 91 156 97q46 0 49 -51q-12 -35 -53 -52q-56 -20 -346 -180q-226 -123 -371 -188
q-118 -55 -199 -68q-52 -8 -131 -8q-97 0 -141 41q-36 39 -74 129l-18 39q-7 -6 -16 -16.5t-13 -14.5q-7 -6 -20 -20.5t-19 -20.5q-24 -31 -65 -86q-50 -70 -62 -98q-19 -41 -37 -115q-2 -10 -4 -22.5t-3 -19.5t-1 -11q-3 -16 6 -25q5 -5 27 -16q47 -23 47 -57
q-12 -46 -59 -58h-17z" />
    <glyph glyph-name="y" unicode="y" horiz-adv-x="1525" 
d="M-246 -598q-178 0 -137 188q46 224 399 568q345 340 818 610q79 45 120 74q36 26 43 57q6 26 -10 66q-18 86 -137 86q-167 0 -526 -199q-257 -133 -289 -133q-59 0 -41 84q23 110 164 344q53 86 96 104q49 17 84 17q43 0 76 -23q28 -22 22 -57q-7 -33 -41 -62
q-32 -32 -55 -32q-22 0 -92 -64q-72 -66 -133 -135q-61 -70 -68 -100q-3 -9 10 -9q41 0 222 99q408 219 573 219q64 0 100 -31q33 -29 45 -72q18 -60 19 -73q3 -35 12 -41q25 0 131 47q116 50 207 74q95 26 150 26q42 -5 81 -39q33 -33 27 -59q-3 -21 -22 -37
q-18 -12 -41 -12q-21 0 -41 10q-33 23 -86 23q-48 0 -154 -33q-128 -41 -207 -78q-52 -23 -63 -37q-16 -16 -21 -47q-30 -137 -168 -373q-135 -232 -297 -426q-204 -235 -418 -381q-210 -143 -352 -143zM-360 -424q-10 -49 -5 -63q9 -23 19 -33q34 -37 88 -37q43 0 111 22
q245 89 524 365q277 271 463 608q114 209 133 305q3 15 -2 15q-17 0 -99 -43q-470 -245 -833 -596q-355 -339 -399 -543z" />
    <glyph glyph-name="z" unicode="z" horiz-adv-x="1118" 
d="M-518 -406q-42 6 -70 31q-66 60 -45 176q52 177 373 457q119 103 313 234q200 135 336 198l123 60q-209 47 -215 53q-12 9 -6 28q15 51 108 152q61 60 113 125q50 62 57 92q-18 0 -94 -29q-186 -77 -215 -139l-12 -61q-27 -64 -131 -64q-87 9 -99 88q0 10 5 45
q21 58 135 121q107 60 248 109q131 45 200 45q77 -3 62 -88q-18 -80 -189 -228q-130 -121 -133 -133q0 -2 2.5 -4t9.5 -3.5t17 -3.5t24 -3.5t30.5 -3.5t37.5 -4q34 -6 92 -23q40 -12 64 -12q26 0 131 31q171 55 268 55q51 -8 84 -31q26 -26 20 -45q-12 -55 -147 -61
q-105 -3 -295 -60q-3 -11 -7.5 -26.5t-7 -25.5t-3.5 -17q-3 -8 -8.5 -24.5t-8.5 -24.5l-26 -78q-143 -419 -605 -717q-313 -193 -497 -193zM-598 -197q-12 -54 12 -94q13 -31 33 -43q31 -17 115 -20q50 0 112 18q220 64 435 217q210 150 356 346q121 170 162 344
q15 84 -11 93q-21 0 -178 -62q-422 -191 -702 -412q-279 -223 -334 -387z" />
    <glyph glyph-name="braceleft" unicode="{" horiz-adv-x="1218" 
d="M12 -287q-81 0 -112 60q-23 48 -9 123q34 144 263 583q152 297 172 363l-39 -23q-59 -41 -92 -41q-25 0 -35 23q-5 19 -2 47q8 35 57 98q105 117 182 117l37 -4q11 0 23 6q19 19 35 37q8 9 30 36.5t37 45.5q301 382 557 903q76 154 129 235q60 86 90 105q41 24 68 24
q61 0 82 -69q20 -57 10 -113q-21 -96 -139 -96h-31q-23 0 -31 -2q-14 -3 -30 -29l-95 -170q-227 -425 -598 -872q-111 -138 -141 -223q-30 -87 -168 -322q-288 -474 -319 -627q-24 -112 69 -112q75 0 193 80q89 59 137 59q32 0 41 -21q12 -18 8 -36q-9 -42 -94 -88
q-76 -45 -162 -72q-77 -25 -123 -25z" />
    <glyph glyph-name="bar" unicode="|" horiz-adv-x="1355" 
d="M6 -180q-105 0 -65 184q68 329 1009 1638l244 338q145 205 162 263q35 90 102 151q69 60 123 60q19 0 37 -21q31 -44 22 -86l-6 -14q-59 -148 -145 -174q-46 -9 -320 -367q-449 -573 -714 -985q-333 -514 -389 -782q-6 -32 22 -60q29 -29 21 -63q-6 -35 -48 -62
q-33 -20 -55 -20z" />
    <glyph glyph-name="braceright" unicode="}" horiz-adv-x="1267" 
d="M-14 -287q-61 0 -82 72q-22 63 -13 111q21 98 142 98l28 -2q17 0 33 4q14 3 33 29l92 170q222 412 598 872q112 140 141 223q31 91 170 322q287 482 320 626q21 113 -74 113q-72 0 -190 -80q-88 -59 -137 -59q-32 0 -41 20q-12 18 -9 37q8 37 97 88q67 40 159 72
q74 22 123 22q86 0 115 -57q20 -43 4 -123q-30 -149 -260 -583q-154 -304 -170 -363l37 23q59 41 92 41q26 0 33 -23q11 -19 4 -49q-6 -32 -57 -96q-102 -117 -183 -117l-39 4q-9 0 -20 -8q-5 -3 -33 -35q-48 -55 -70 -82q-304 -388 -555 -903q-80 -162 -131 -236
q-52 -78 -92 -104q-39 -27 -65 -27z" />
    <glyph glyph-name="asciitilde" unicode="~" horiz-adv-x="1376" 
d="M412 725q-45 0 -60 27q-36 51 -18 135q15 63 57 139q21 44 68 68q44 24 92 24t84 -31q33 -26 24 -65q-6 -34 -43 -61q-38 -31 -92 -39q-90 -12 -108 -95q-6 -25 24 -28q51 0 240 80q358 139 506 139q42 0 59 -14q18 -15 21 -62q2 -35 -9 -96q-12 -53 -34 -84
q-22 -19 -49 -19q-24 0 -34 8t-7 25q6 31 49 74q42 42 49 72q4 22 -12 32.5t-52 10.5q-128 0 -516 -162q-176 -78 -239 -78z" />
    <glyph glyph-name="exclamdown" unicode="&#xa1;" horiz-adv-x="1267" 
d="M1374 2374q-38 0 -57 22q-18 18 -12 62q9 42 63 73q51 31 102 31q38 0 60 -14q24 -15 18 -49q-7 -30 -30 -56q-23 -29 -68 -49q-48 -20 -76 -20zM72 170q8 38 28 61q30 26 70 43q50 24 225 236q186 225 404 532q247 337 383 580q112 213 170 426q9 40 -21 70
q-25 40 -20 67q7 30 35 41q31 17 49 17q30 0 55 -39t10 -109q-13 -61 -49 -137q-61 -173 -203 -404q-128 -214 -454 -671q-137 -193 -275 -394q-103 -156 -127 -198q-34 -58 -41 -92v-9q-21 -106 -149 -118q-99 0 -90 98z" />
    <glyph glyph-name="cent" unicode="&#xa2;" horiz-adv-x="925" 
d="M244 -164q-81 0 -72 195q5 81 33 229q8 38 11.5 63t2.5 37.5t-6 12.5q-12 0 -61 49q-86 115 -43 305q44 205 215 449q40 52 98 110q144 141 182 141q20 0 37 33q98 224 135 344q17 56 41 109q21 40 51 61q53 33 105 33q48 0 74 -29q22 -25 16 -57q-12 -49 -123 -117
q-49 -43 -164 -250q-43 -71 -47 -94q-3 -13 4 -18q2 -1 23 -8q20 -4 43 -37q33 -33 53 -72q22 -43 25 -68l-5 -28q-16 -67 -81 -105q-51 -26 -86 -26q-76 0 -52 131l13 51q3 15 4 25.5t0.5 15t-2.5 4.5q-24 0 -162 -332q-29 -70 -68 -176q-37 -95 -76 -213
q-34 -101 -40 -135q-3 -12 6 -18.5t30 -6.5q40 0 99 41q59 43 90 90q47 56 86 56q55 0 43 -64q-7 -35 -64 -92q-64 -64 -116 -92q-69 -34 -205 -43q-25 -241 -25 -287q0 -73 25 -108q24 -37 18 -60q-3 -18 -22 -32q-20 -17 -43 -17zM152 690q-34 -162 57 -217l41 -29l49 142
q83 247 178 481q82 209 84 223l2 4q-5 0 -28 -20q-10 -7 -60 -51q-122 -116 -207 -254q-89 -145 -116 -279z" />
    <glyph glyph-name="sterling" unicode="&#xa3;" horiz-adv-x="919" 
d="M-29 211q-11 0 -20 12q-7 10 -4 25q7 26 96 123q165 173 223 303q2 8 -4.5 11t-23.5 3q-48 0 -84 31t-33 67q4 22 43 48q26 26 59 26q31 0 43 -2q49 -7 64 -8q49 0 61 65q3 17 -53 23q-48 9 -74 35t-20 55q4 12 18 29q15 18 39 35q20 14 45 14q27 0 39 -2q15 -3 55 -6
q23 0 35 6q9 9 14 22q185 433 234 490q45 57 106 57q45 0 74 -39q32 -43 43 -92q14 -49 8 -84q-9 -42 -47 -67q-33 -33 -73 -33q-22 0 -46 6q-5 1 -27 4t-36 4q-32 0 -137 -242l57 -14q74 -25 62 -82t-115 -57q-48 0 -60 -2q-15 -3 -24 -12t-23 -37q-13 -22 -20 -45
q-3 -5 -6 -10.5t-4 -8.5t-2 -4q0 -2 51 -2l69 4q42 0 60 -14t12 -43q-21 -72 -113 -72h-12q-148 0 -172 -61q-162 -266 -164 -279q25 0 166 33q203 51 271 51q57 0 45 -51q-6 -38 -39 -55q-43 -19 -113 -27q-346 -50 -440 -94q-75 -37 -103 -37z" />
    <glyph glyph-name="currency" unicode="&#xa4;" horiz-adv-x="1345" 
 />
    <glyph glyph-name="yen" unicode="&#xa5;" horiz-adv-x="1005" 
d="M379 45q-66 0 -51 78q27 128 176 452l20 46q0 6 -6 6q-17 0 -78 -27q-84 -35 -129 -35q-45 3 -65 29q-23 23 -19 51q12 61 80 82q74 23 252 49l39 8q154 305 320 613q-5 -2 -123 -123q-310 -322 -459 -322q-102 0 -105 162q7 80 60 326q3 17 39 178q10 29 53 57
q50 29 76 29q34 0 76 -39q39 -39 30 -84q-9 -57 -82 -82q-16 -5 -30 -16q-22 -19 -52 -107q-45 -111 -59 -184q-30 -139 33 -139q47 0 168 100q133 110 274 264q132 140 154 162q46 49 82 80q26 20 41 20q12 -6 16 -10q5 -8 8 -16q0 -18 -2 -23q-8 -32 -110 -198
q-136 -216 -222 -375q-95 -177 -110 -234q-6 -20 2 -20q123 20 180 20t80.5 -17t15.5 -52q-10 -32 -47 -56q-40 -24 -88 -24l-37 2q-161 0 -196 -53q-26 -45 -78 -217q-35 -140 -43 -177q-9 -48 -12 -75q0 -27 -7 -48q-12 -61 -65 -61z" />
    <glyph glyph-name="brokenbar" unicode="&#xa6;" horiz-adv-x="565" 
 />
    <glyph glyph-name="section" unicode="&#xa7;" horiz-adv-x="20527" 
d="M2075 -346q-86 0 -125 104q-42 98 2 303q44 215 207 557q189 390 569 1051q67 118 235 424q79 152 111 231q32 88 49 160q6 21 2 29q-8 4 -16 4q-52 0 -318 -219q-157 -132 -368 -356q-154 -166 -498 -572q-202 -245 -299 -336q-108 -102 -166 -102q-80 0 -92 160
q-6 25 -2 61q0 26 10 88q2 16 70 338q72 330 88 422q15 86 12 115q-3 26 -18 26q-16 0 -78 -53q-67 -52 -152 -131q-82 -73 -157 -148q-219 -232 -424 -493q-192 -242 -340 -483q-77 -133 -131 -248q-70 -153 -76 -189q-9 -41 18 -41q39 0 57 -15.5t13 -45.5q-9 -45 -88 -88
q-67 -25 -113 -25q-92 0 -73 82q9 49 47 142q169 386 514 849q339 452 758 844q176 156 256 156q121 0 65 -264q-26 -116 -59 -222q-50 -169 -97 -385q-52 -240 -41 -301q9 -71 48 -71q45 0 143 110q99 108 305 361q579 716 924 981q204 162 293 162q40 0 57 -39
q14 -39 2 -105q-16 -73 -88 -215q-80 -151 -252 -452q-377 -652 -567 -1041q-184 -371 -234 -604q-18 -88 -24 -168q-6 -103 10 -156q17 -53 65 -73q67 -27 58 -62q-3 -24 -31 -41q-26 -16 -61 -16zM2535 631q23 114 168 338q93 145 97 166q18 55 59 79q51 23 86 23
q46 -6 68 -23q27 -15 45 -18q20 0 53 10q54 15 78 15q115 -9 90 -136q-30 -109 -133 -247q-42 -53 -43 -56l2 -2q15 0 114 27q101 22 215 55q55 14 199 56q98 34 150 34h6q176 229 235 336q33 65 82 105q46 34 90 34q36 0 64 -22q29 -18 22 -55q-12 -62 -172 -213
q-223 -229 -417 -461q-186 -226 -199 -281q0 -10 4 -10q9 0 51 33q35 24 94 80q99 89 250 213q127 106 238 188q105 82 133 94q32 13 45 13q25 0 39 -35q17 -34 14 -92q0 -115 2 -148q12 -100 156 -100q103 0 258 63q152 62 274 154q19 15 46 34l26 19q36 86 78 154
q59 79 125 82l31 2q49 -3 71 -25q29 -23 29 -55q-16 -83 -96 -111q-38 -11 -103 -92q-51 -67 -110 -166q-55 -92 -66 -133q-3 -26 13 -38.5t49 -12.5q90 3 202 49q97 45 400 207q263 149 334 170q30 30 69 57q198 152 656 610q225 228 225 230q-59 0 -291 -33
q-860 -117 -975 -170q-30 -13 -53 -39q-24 -27 -45 -35q-24 -8 -86 -8q-59 0 -96 37q-35 38 -29 66q9 34 61 61q50 26 160 29q64 2 737 82q648 76 688 90q534 547 545 547q20 -10 17 -43q-9 -41 -211 -261q-201 -216 -205 -227q2 -2 14 -2q26 0 131 10q720 79 1270 82
q173 0 234 -10q83 -15 121 -37.5t32 -50.5q-5 -19 -18 -35q-18 -18 -45 -18q-31 0 -80 14q-136 43 -461 43q-429 -6 -897 -39q-329 -21 -373 -37q-11 -6 -123 -125q-493 -517 -708 -782q-162 -196 -359 -485q-171 -248 -293 -469q-106 -196 -133 -336q-18 -87 -12 -119
q6 -31 41 -31l55 6q63 0 54 -55q-4 -22 -23 -35q-18 -18 -53 -30q-37 -13 -51 -13q-9 0 -48 17q-27 18 -47 57q-15 31 -8 94q61 261 199 506q133 239 485 733q-49 8 -94 27q-2 1 -8 4.5t-8 5.5q-56 -21 -390 -172q-382 -179 -493 -197l-41 -2q-43 -1 -62.5 34t-13.5 100
q7 60 19 110l16 66q-4 -1 -9.5 -5t-6.5 -4q-112 -59 -277 -108q-155 -47 -258 -47q-110 0 -158 57q-39 57 -30 191q2 17 2 73q0 26 -6 35q-5 5 -15 10q-46 0 -205 -122q-167 -128 -327 -291q-151 -152 -207 -244q-15 -34 -72 -88q-71 -51 -147 -51q-30 0 -37 10
q-11 14 -8 43q0 31 6 68q12 61 88 182q80 116 276 360l7 8q-18 -2 -58 -10q-11 -2 -98 -19.5t-137 -25.5q-205 -33 -217 -35q-79 -12 -99 -18q-33 -7 -49 -18q-26 -15 -41 -35q-100 -93 -205 -150q-116 -61 -174 -61q-30 0 -67 43q-31 48 -13 129zM2623 594q-6 -36 27 -39
q58 0 137 49q98 64 160 109l-57 -4q-89 3 -185 47l-18 -35l-37 -66q-5 -12 -14.5 -31.5t-12.5 -29.5zM2748 807q-3 -17 25 -27q43 -12 219 -18l60 59q45 45 108 137q54 86 64 129q7 33 -11 39q-18 7 -51 7q-44 0 -108 -23q-54 -20 -99 -61q-68 -74 -84 -93l-84 -96
q-36 -45 -39 -53zM6578 717q8 42 90 133q95 98 185 176q114 93 182 125q54 23 106 23q95 0 156 -46q66 -49 55 -104q-10 -41 -53 -68q-56 -31 -111 -28l-59 4q-18 -185 4 -287q14 -68 74 -115q37 -30 111 -30q76 0 131 10q60 10 147 51q199 92 356 178q220 119 295 172
q92 66 146 66q43 0 37 -47q0 -1 -13 -33q-32 -53 -205 -143q-182 -97 -378 -176q-322 -129 -467 -129q-183 0 -236 120q-34 84 -31 271q9 123 -4 139q-23 0 -356 -242q-96 -71 -137 -71q-31 0 -25 51zM6318 -580q22 97 258 97q134 0 176 -29q33 -16 117 -16q192 0 711 28
q1264 58 2207 78q623 14 1295 19q57 166 225 370q200 244 492 475q294 239 622 412q133 74 156 107q23 45 35 96q21 100 -25 106q-25 0 -133 -51q-229 -98 -240 -151q-6 -27 -47 -54q-42 -22 -86 -22q-48 0 -209 -82t-221 -82q-33 0 -53 27q-15 18 -12 45q-65 -28 -334 -150
q-386 -180 -494 -197l-43 -2q-43 -1 -62.5 34t-13.5 100q7 60 19 110q49 214 141 367q62 79 125 82l31 2q48 -3 73 -25q27 -24 27 -55q-16 -84 -96 -111q-41 -13 -101 -92q-56 -70 -110 -166q-56 -89 -68 -133q-3 -26 13 -38.5t49 -12.5q91 3 203 49q77 36 401 207
q247 141 328 168q27 29 84 76q99 84 196 139q77 41 148 41q49 0 86 -29q39 -23 45 -63q0 -7 8 -7q24 0 96 41q193 109 264 109q77 0 47 -143q-13 -50 -24 -72q-1 -4 -4 -14t-5.5 -18.5t-4.5 -16.5v-12q8 0 106 36q133 50 217 50q51 0 78 -21l12 -10q136 180 187 272
q33 65 82 105q46 34 90 34q32 0 63 -22q28 -20 21 -55q-13 -67 -172 -213q-228 -237 -418 -461q-188 -231 -199 -281q0 -10 4 -10q11 0 53 33q50 37 93 80q110 99 249 213q128 105 238 188q98 77 133 94q37 13 47 13q22 0 39 -35q18 -36 12 -92q0 -65 5 -148
q12 -100 153 -100q106 0 258 63q153 61 277 154q50 40 73 53q36 38 136 125q109 92 180 125q54 23 108 23q93 0 154 -46q66 -49 55 -104q-10 -41 -53 -68q-56 -31 -111 -28l-59 4q-18 -185 4 -287q14 -68 74 -115q37 -30 110 -30q77 0 132 10q59 10 149 51q208 98 354 178
q220 119 295 172q54 36 70 43q14 10 55 35q101 61 267 202.5t458 407.5q117 107 330 310l117 108q-618 -4 -1093.5 -16t-738.5 -28.5t-395 -29.5t-202 -26q-240 -47 -316 -70q-49 -16 -65 -32q-19 -16 -19 -39q-9 -31 -24 -43q-16 -16 -51 -27q-40 -15 -89 -12q-52 3 -55 22
q0 11 -20 25v8q-2 50 50 92t167 80q113 38 296 66.5t414.5 44.5t455 26.5t495.5 14t451.5 4.5t408 0.5t285.5 -0.5l110 2q404 377 420 377q21 -9 18 -43q-8 -37 -229 -261l-74 -71q59 1 172 2t162 2q224 3 285 10q36 3 509 8.5t578 5.5q124 0 120 -42q-3 -37 -94 -82
q-43 -22 -97 -39q-21 -8 -234 8t-483.5 36.5t-386.5 20.5q-21 0 -92.5 4t-124.5 4h-377q-162 -162 -305 -299q-549 -526 -781 -782q-150 -164 -393 -485q-185 -249 -317 -469q-117 -203 -142 -336q-19 -90 -10 -119q9 -31 47 -31l62 6q35 0 50.5 -14t10.5 -41
q-4 -22 -22 -35q-20 -17 -60 -30q-47 -13 -57 -13q-9 0 -55 17q-35 21 -54 57q-19 33 -12 94q60 260 211 506q75 126 247 362.5t365 481.5q-53 -23 -139 -70q-79 -46 -115 -65q-182 -97 -378 -176q-322 -129 -467 -129q-183 0 -236 120q-34 84 -31 271q9 123 -4 139
q-23 0 -356 -242q-96 -71 -137 -71q-28 0 -25 43q-75 -33 -203 -72q-152 -47 -256 -47q-109 0 -157 57q-40 54 -31 191q2 17 2 73q0 27 -8 35q-5 5 -15 10q-42 0 -204 -122q-167 -130 -328 -291q-160 -165 -205 -244q-15 -35 -74 -88q-68 -51 -145 -51q-29 0 -39 10
q-11 14 -8 43q5 48 8 68q14 69 88 182q72 108 277 360l82 103q-20 5 -25 6q-6 2 -33 2q-66 0 -157 -33q-53 -19 -199 -82q-219 -404 -229 -422q-84 -135 -197 -299q-194 -285 -416 -497q462 4 731 4q1730 0 1807 14q6 2 22 2q52 0 90 -24q42 -26 39 -62q-6 -25 -37 -41
q-32 -16 -71 -16q-37 0 -76 22q-40 49 -1796 49l-768 -2q-4 -3 -12.5 -10t-12.5 -10q-253 -215 -420 -215q-73 0 -114 53q-38 60 -15 168l2 12q-1077 -10 -1607 -20q-1061 -23 -2114 -103q-398 -30 -442 -36q-86 -9 -119 -35q-47 -33 -139 -33q-75 0 -166 16q-95 17 -143 39
q-24 24 -19 47zM6740 807q13 0 164 115q86 67 88 73h-4q-98 -63 -162 -114q-86 -73 -86 -74zM8722 1028q29 141 154 299q129 160 356 348q495 410 1158 703q386 176 731 274q334 96 540 96q164 0 234 -61q66 -60 45 -166q-49 -228 -467 -602q-408 -366 -1215 -856
q-141 -78 -270 -164q-53 -29 -108 -29q-117 0 -105 78q7 33 19 47q15 22 178 99q235 110 522 272q713 406 1106 799q227 231 252 352q14 66 -36.5 99.5t-162.5 33.5q-243 0 -680 -131q-422 -130 -872 -352q-500 -261 -875 -561q-389 -311 -473 -545q-10 -53 10 -105
q13 -52 54 -84q63 -49 211 -77q141 -30 454 -45q282 -19 379 -39q101 -15 176 -56q74 -36 82 -71q3 -25 21 -25q12 0 98 25q116 41 156 41q35 0 47 -15t8 -35q-2 -15 -19 -36q-22 -28 -215 -82q-141 -41 -143 -51q0 -13 -43 -50q-210 -198 -541 -340q-188 -84 -247 -84
q-32 0 -23 33q18 87 401 318q221 134 404 213q64 26 67 43q2 7 -10 20q-32 52 -184 82q-186 36 -506 55q-259 17 -387 43q-331 56 -281 289zM9245 -16l12 2q79 11 139 34q243 89 432 213q129 90 224 177q-341 -143 -539 -244q-163 -85 -268 -182zM11121 1479q34 101 178 116
q48 -3 70 -21t16 -50q-7 -33 -53 -72q-44 -41 -127 -47q-47 3 -68.5 21t-15.5 53zM11090 -473q-34 -163 100 -166q148 0 381 186l-477 -2q-1 -3 -2 -9t-2 -9zM11110 -403l527 4q338 295 667 845q188 313 199 363v2q-2 0 -61 -29q-13 -7 -56.5 -29.5t-70.5 -37.5
q-44 -23 -144 -78q-21 -12 -57.5 -33.5t-50.5 -28.5q-234 -144 -434 -323q-220 -197 -359 -381q-117 -150 -160 -274zM11713 821q-4 -4 4 -4q19 0 143 62q68 29 84 47q24 20 29 43q2 8 6 25.5t6 25.5q-29 -13 -113 -66q-74 -51 -108 -77q-47 -36 -51 -56zM14342 811
q27 14 154 111q86 67 88 73h-4q-99 -64 -160 -114l-53 -43q-13 -18 -25 -27zM16585 807q13 51 45 141q59 146 80 178q21 24 61 39q37 15 78 15q47 0 67 -23q25 -20 19 -51q-9 -39 -64 -94q-57 -57 -96 -125q-43 -72 -57 -115l-4 -20q1 -1 1 -4t1 -4t4 -1q15 0 280 197
q189 139 199 139q5 0 14 -6q11 -11 13 -18q4 -10 0 -37q-8 -32 -33 -86q-26 -59 -33 -90q-10 -46 28 -70t126 -27q83 0 217 35q150 46 205 80q62 39 106 39l76 102q105 138 139 218q16 44 51 84q55 43 109 43q47 0 78 -25q28 -31 20 -76q-6 -24 -37 -55q-33 -36 -67 -47
q-16 -8 -62 -51q-102 -99 -219 -250q-163 -207 -168 -240v-6q10 0 164 139q189 171 283 242q116 90 139 90q52 0 74 -61q6 -18 12 -50t12.5 -54.5t16.5 -33.5q37 -38 91 -53.5t105 -1.5q31 9 62 31q30 42 96 108q60 58 166 133q86 56 123 56q27 0 47 -17q14 -24 8 -49
q-15 -64 -178 -233q-74 -90 -156 -84l-57 4q-24 3 -49 -35q-27 -35 -33 -61q-6 -34 20 -52.5t84 -19.5q50 0 142 20q119 24 717 220q349 118 397 118q38 -3 29 -45q-7 -33 -17 -43q-10 -12 -53 -26q-75 -26 -528 -140q-484 -121 -502 -125q-131 -32 -207 -32
q-157 0 -127 137q5 26 25 67q-46 -6 -93 -6q-67 0 -112.5 24t-68.5 68t-32 91t-10 108q-285 -208 -477 -448q-50 -58 -61 -103l-7 -49q-12 -54 -67 -88q-64 -37 -127 -37q-31 0 -41 10q-9 15 -19 72q-8 48 -2 84q9 41 181 274q-83 -25 -177 -40q-124 -23 -233 -23h-8
q-117 0 -165.5 54.5t-29.5 146.5l4 20q3 10 -2 10q-28 0 -170 -122q-204 -160 -288 -160q-32 0 -54 22q-45 48 -24 154zM20394 1020q6 30 47 65q38 35 90 35q28 0 51 -20q20 -20 17 -45q-8 -38 -60 -72q-56 -29 -92 -29q-30 0 -45 21q-14 20 -8 45z" />
    <glyph glyph-name="dieresis" unicode="&#xa8;" horiz-adv-x="520" 
d="M383 1581q-35 0 -59 27q-15 26 -9 55q7 35 60 88q53 41 112 41q39 0 70 -25q27 -27 21 -59q-10 -44 -78 -90q-58 -37 -117 -37zM805 1683q8 39 61 89q49 40 111 40q49 0 70 -24q27 -27 22 -59q-11 -46 -80 -91q-61 -36 -115 -36q-36 0 -59 26q-15 28 -10 55z" />
    <glyph glyph-name="copyright" unicode="&#xa9;" horiz-adv-x="1212" 
d="M444 205q-174 0 -223 258q-11 49 -4 129q5 57 35 211q83 391 280 579l13 11q60 63 358 63q162 0 227 -39q38 -46 58 -104q13 -55 -14 -176q-15 -77 -74 -228q-61 -149 -113 -247q-126 -214 -270 -332q-146 -125 -273 -125zM299 715q-36 -169 -4 -299q30 -123 147 -123
q30 0 60 6q31 5 57 16q73 36 166 123q100 93 170 191q76 110 152 266q68 145 92 262l16 66q9 42 2 59q-3 15 -27 43q-22 26 -47 31q-19 8 -88 8q-193 0 -219 -57q-6 -31 -59 -66q-52 -37 -101 -37q-45 0 -65 -26q-16 -26 -59 -35q-42 -9 -101 -144q-55 -125 -92 -284z
M496 836q23 117 112 215q90 96 166 96q35 0 68 -39q38 -41 51 -88q21 -50 12 -88q-15 -49 -59 -76q-42 -25 -92 -25q-45 0 -68 23q-29 20 -22 47q3 12 34 66q36 56 39 75q3 10 -8 13q-25 0 -72 -47q-45 -42 -94 -107q-44 -63 -53 -102q-9 -54 18 -84q29 -33 74 -33
q47 0 98 45q60 57 105 57q43 0 37 -57q-12 -54 -80 -92q-64 -37 -133 -37q-86 0 -121 72q-32 75 -12 166z" />
    <glyph glyph-name="ordfeminine" unicode="&#xaa;" horiz-adv-x="555" 
d="M487 1223q-10 0 -26 16q-12 19 -6 47q6 29 -6 29q-14 0 -52 -12q-81 -23 -104 -23q-93 0 -84 100q9 52 59 111q49 58 119 100q53 26 109 43q70 17 96 17l22 -4q9 0 19 20q9 13 20 47q10 25 17 53q6 41 -13 41q-35 0 -102 -79q-69 -87 -145 -87q-44 0 -74 21
q-31 27 -23 57q12 57 123 125q109 64 232 82q39 0 57 -37q22 -35 10 -102q-5 -29 -28 -80q-24 -53 -29 -84q0 -4 -1 -11.5t-1 -10.5v-37q-4 -39 -14 -86q-13 -54 -48 -80q-23 -27 -26 -43l-6 -62q-9 -34 -41 -51q-29 -20 -54 -20zM309 1386q0 -6 8 -6q16 0 86 37
q69 37 72 45q0 6 -20 6q-49 0 -107 -43q-34 -25 -39 -39z" />
    <glyph glyph-name="guillemotleft" unicode="&#xab;" horiz-adv-x="1343" 
d="M639 487q-20 0 -29 25q-3 46 -94 106q-79 54 -223 107q-74 23 -129 47q-40 18 -49 39q-7 23 2 61q9 48 229 293q230 269 254 316q44 76 76 116q39 45 108 45q33 0 60 -24q48 -18 41 -51q-6 -31 -76 -92q-61 -56 -223 -189q-436 -353 -451 -422q0 -14 17 -28
q10 -10 65 -35q14 -6 150 -53q44 -18 118 -52q80 -39 111 -57q40 -21 66 -43q22 -14 26 -29q5 -11 2 -30q-7 -28 -16 -35q-8 -12 -35 -15zM711 928q6 37 123 145q185 170 206 260q6 35 47 70q40 37 76 37q38 0 86 -31q42 -31 33 -74q-6 -29 -41 -53q-41 -32 -182 -117
q-311 -179 -320 -227q-6 -17 90 -70q87 -48 228 -100q141 -60 157 -76q17 -20 11 -49q-3 -18 -25 -37q-16 -16 -35 -16q-24 0 -57 41q-47 53 -295 192q-43 22 -84 54q-24 24 -18 51z" />
    <glyph glyph-name="logicalnot" unicode="&#xac;" horiz-adv-x="1298" 
d="M1079 457q-29 0 -59 41q-28 45 -23 71q12 56 129 197q99 126 101 133q3 15 -22 23.5t-79 9.5q-70 0 -233 -17q-107 -11 -272 -38q-110 -18 -179 -46q-62 -26 -116 -26q-62 0 -90 31q-31 31 -25 61q9 33 49 57q48 23 107 23q79 0 278 20q346 29 428 29q93 0 139 -12
q43 -8 60 -29q10 -23 4 -43q-5 -33 -94 -145q-90 -112 -95 -146q-9 -49 46 -73q33 -21 26 -60q-7 -28 -31 -43q-30 -18 -49 -18z" />
    <glyph glyph-name="registered" unicode="&#xae;" horiz-adv-x="813" 
d="M469 1221q-71 0 -123 55q-53 56 -65 166q-4 56 2 94q3 48 65 344l45 31q39 28 84 28l35 -2q52 0 141 13q74 14 127 14q212 0 168 -225q-9 -42 -45 -131q-76 -172 -201 -279q-123 -108 -233 -108zM332 1501q-21 -109 14 -170q43 -61 139 -61q39 0 66 8q16 5 61 27
q119 71 203 194q90 129 113 240q34 165 -125 168q-8 0 -88 -13q-49 -11 -103 -28q-48 -15 -57 -29q-1 -2 2 -4t11 -4t17.5 -3.5t24.5 -4.5q55 -6 76 -27q18 -18 12 -65q-6 -29 -55 -99q-31 -47 -33 -55q-3 -6 6 -6q12 0 56 18q90 43 133 43q29 0 37 -8q7 -13 4 -35
q-18 -84 -250 -102q-39 0 -53 14q-13 13 -4 45l18 62q3 10 -2 10q-6 0 -25 -25q-15 -33 -22 -71q-7 -36 -10 -64q-3 -30 4 -51q9 -22 4 -35q-3 -17 -31 -35q-29 -16 -55 -16q-27 0 -45 18q-17 17 -10 49q10 48 81 209q-40 64 -57 64q-1 -1 -2.5 -4.5t-5 -11t-6.5 -13.5
l-25 -61q-3 -11 -9.5 -34t-8.5 -34z" />
    <glyph glyph-name="macron" unicode="&#xaf;" horiz-adv-x="937" 
d="M369 1624q-28 0 -45 14q-19 16 -13 41q9 48 58 76q50 29 104 29q25 0 49 -6q52 -15 223 -15q323 0 353 -10q20 -16 14 -39q-3 -19 -27 -43q-28 -22 -57 -22q-22 0 -63 8l-97 12q-58 6 -118 6q-155 0 -265 -26q-83 -25 -116 -25z" />
    <glyph glyph-name="degree" unicode="&#xb0;" horiz-adv-x="475" 
d="M373 1442q-23 0 -47 18q-64 42 -27 209q18 94 74 121q38 20 65 20q16 0 33 -10q11 -4 29 -18q6 -4 16.5 -11.5t13.5 -9.5q32 -19 43 -59q11 -39 2 -84q-24 -117 -147 -162q-32 -14 -55 -14zM362 1559q-9 -48 29 -48q27 0 64 21q32 14 65 51q28 41 33 64q6 29 -12 47
q-16 16 -33 16q-8 0 -23 -6q-12 -8 -20 -16q-10 -7 -10 -15v-8q2 -2 2 -8q-3 -15 -19 -31t-35 -22q-34 -12 -41 -45z" />
    <glyph glyph-name="plusminus" unicode="&#xb1;" horiz-adv-x="983" 
d="M393 270q-58 0 -43 64q5 26 189 575q3 25 -25 25q-43 0 -188 -43q-89 -25 -129 -25q-69 0 -54 62q8 46 66 88q51 39 102 39q10 0 47 -11q48 -22 154 -22l74 2q39 141 41 152q14 64 2 102q-6 17 -2 39q10 42 43 80q56 65 121 65q41 0 63 -32q17 -23 8 -68q-13 -56 -74 -92
q-58 -38 -106 -133l-53 -105q0 -8 20 -8q45 0 191 14q68 6 108 6q45 0 64.5 -14t13.5 -43q-6 -30 -41 -57q-27 -21 -55 -21l-17 2q-101 39 -235 39q-58 0 -80 -16q-29 -25 -90 -307q-29 -143 -33 -205q-3 -51 -10 -88q-15 -64 -72 -64zM-29 82q9 48 60 76q48 28 104 28
q23 0 47 -6q49 -14 224 -14q322 0 352 -10q20 -16 14 -39q-3 -19 -27 -43q-30 -23 -55 -23q-24 0 -65 8l-97 13q-58 6 -118 6q-149 0 -263 -27q-83 -24 -118 -24q-29 0 -43 14q-20 17 -15 41z" />
    <glyph glyph-name="uni00B2" unicode="&#xb2;" horiz-adv-x="585" 
d="M510 1278q-58 0 -107 14q-65 18 -65 51q0 17 2 27q14 59 78 139q135 167 147 193v2q-7 0 -71 -31q-55 -22 -91 -22q-66 0 -90 53q-13 31 -10 49q6 29 68 53q88 39 172 39q40 0 67 -8q85 -25 70 -92q-2 -12 -10 -31q-22 -48 -213 -239q-63 -66 -68 -76q-2 -9 10.5 -14
t38.5 -5q21 0 105 15q59 16 86 16q35 0 47 -31q5 -13 2 -30q-9 -45 -96 -66q-38 -6 -72 -6z" />
    <glyph glyph-name="uni00B3" unicode="&#xb3;" horiz-adv-x="514" 
d="M317 1217q-12 0 -16 2q-31 12 -25 38q21 64 97 64l33 -2q44 0 104 31l41 16l-2 2q-72 72 -86 94q-16 26 -10 58q8 43 94 116q50 44 53 62q3 10 -4.5 16t-22.5 6q-29 0 -47 -24q-39 -31 -86 -31q-82 0 -118 53q-19 25 -13 49q0 9 8 21q34 63 136 63q79 0 137 -22
q79 -27 63 -94q-10 -47 -112 -152q-52 -49 -52 -57q-5 -15 41 -51q65 -53 56 -86q-5 -33 -78 -84q-68 -45 -121 -68q-44 -20 -70 -20z" />
    <glyph glyph-name="acute" unicode="&#xb4;" horiz-adv-x="385" 
d="M279 1464q-20 0 -41 15q-21 17 -15 41q7 28 41 47q28 14 200.5 163t242.5 222q43 43 71 43q15 0 23 -8q12 -9 8 -23q-3 -21 -55 -51q-72 -47 -230 -182.5t-162 -157.5q-3 -10 3 -19q3 -9 0 -24q-7 -28 -35 -45q-26 -17 -51 -21z" />
    <glyph glyph-name="uni00B5" unicode="&#xb5;" horiz-adv-x="835" 
d="M-6 35q-62 0 -41 108q11 55 51 150q38 90 47 141q7 27 4 41q-5 31 4 80q16 82 113 285q84 183 117 293q10 50 28 92q22 36 54 71q76 82 121 82q38 0 53 -47q16 -42 10 -110q-7 -40 -145 -236q-209 -297 -238 -438q-15 -78 14 -78q56 0 252 276q303 415 400 508
q28 25 47 25q39 0 30 -51q-8 -32 -71 -137q-153 -255 -187 -420q-41 -186 17 -189q32 0 41 -18q14 -20 8 -43q-6 -35 -47 -62q-39 -20 -82 -20q-62 0 -68 59q-9 59 15 164q12 64 100 307q-7 0 -147 -198q-178 -255 -254 -285q-37 -15 -123 -23l-21 -98q-21 -94 -12 -137
q6 -17 2 -31q-4 -18 -33 -33q-39 -28 -59 -28z" />
    <glyph glyph-name="paragraph" unicode="&#xb6;" horiz-adv-x="1345" 
 />
    <glyph glyph-name="periodcentered" unicode="&#xb7;" horiz-adv-x="276" 
d="M160 840q-32 0 -43 20q-14 17 -8 43q6 31 45 64q35 32 86 32q27 0 51 -18q20 -20 14 -45q-6 -39 -57 -68q-51 -28 -88 -28z" />
    <glyph glyph-name="periodcentered" unicode="&#x2219;" horiz-adv-x="276" 
d="M160 840q-32 0 -43 20q-14 17 -8 43q6 31 45 64q35 32 86 32q27 0 51 -18q20 -20 14 -45q-6 -39 -57 -68q-51 -28 -88 -28z" />
    <glyph glyph-name="cedilla" unicode="&#xb8;" horiz-adv-x="477" 
d="M-301 -549q-70 42 -113 211q-3 17 -9 36.5t-8.5 29.5t-2.5 21t6 20q24 24 41 16q11 -7 18 -70q22 -194 93 -239q15 -11 30 -11q6 -1 10.5 0t7.5 2.5t3 2.5q12 12 18 55q2 36 -4 80q-2 24 -17 97t-22 83q-14 17 -14 33q3 16 18 37q5 6 43 63t84.5 126t69.5 99
q7 10 17 24.5t15 21t12 16.5t11 14.5t9 10.5t8.5 8.5t8 5.5t8.5 4t9 2q15 3 22 -11t9 -34q6 -28 -12 -49q-1 -1 -21.5 -23t-51 -56.5t-64 -75t-65.5 -88.5t-50 -87q1 -8 7.5 -72.5t10 -112.5t0.5 -65q-3 -50 -41 -98q-46 -58 -94 -27z" />
    <glyph glyph-name="uni00B9" unicode="&#xb9;" horiz-adv-x="301" 
d="M291 1280q-66 0 -51 80q3 12 22 82l43 166q9 43 6 57q-3 16 -14 27q-25 31 -16 69q11 49 61 90q56 41 98 41q36 0 62 -32q25 -31 18 -64q-9 -40 -63 -82q-30 -26 -37 -35q-18 -18 -23 -39q-9 -24 -18 -73q-15 -69 -12 -99q0 -29 16 -55q15 -30 8 -63q-6 -34 -41 -52
q-34 -18 -59 -18z" />
    <glyph glyph-name="ordmasculine" unicode="&#xba;" horiz-adv-x="555" 
d="M393 1278q-32 0 -67 27q-93 60 -41 301q27 137 108 174q52 30 94 30q27 0 48 -12l43 -29q15 -13 45 -30q42 -25 59 -84q19 -61 4 -121q-34 -169 -211 -236q-47 -20 -82 -20zM379 1446q-4 -16 -4 -29q0 -19 10 -26q10 -13 33 -13q34 0 94 29q54 29 92 76q41 50 49 90
q9 45 -18 69q-28 25 -49 25q-12 0 -29 -10q-9 -5 -31 -23q-14 -11 -14 -22q-3 -7 0 -10q4 -8 2 -15q-2 -12 -25 -43q-30 -26 -53 -33q-45 -17 -57 -65z" />
    <glyph glyph-name="guillemotright" unicode="&#xbb;" horiz-adv-x="1343" 
d="M588 487q-23 3 -31 15q-6 10 0 35q3 19 14 30q11 15 39 29q30 20 86 43q72 33 135 57q96 38 140 52q167 52 170 53q66 24 82 35q20 13 28 28q14 65 -270 422q-75 90 -145 189q-41 62 -35 92q6 32 61 51q40 24 72 24q68 0 88 -45q17 -41 27 -116q6 -55 118 -316
q116 -245 107 -293q-9 -40 -27 -61q-16 -22 -65 -39q-52 -20 -146 -47q-154 -48 -272 -107q-113 -58 -139 -106q-16 -25 -37 -25zM68 643q6 28 30 49q19 14 191 76q171 55 268 100q117 51 123 70q9 51 -225 227q-111 88 -133 117q-23 26 -17 53q10 45 66 74q60 31 98 31
q32 0 59 -37q25 -38 19 -70q-20 -84 96 -260q68 -109 62 -145q-6 -27 -43 -51q-51 -31 -105 -54q-314 -141 -377 -192q-49 -41 -78 -41q-15 0 -26 16q-11 14 -8 37z" />
    <glyph glyph-name="onequarter" unicode="&#xbc;" horiz-adv-x="1726" 
d="M252 668q-33 0 -51 30q-12 49 12 154q15 81 55 184q32 85 160 361q180 390 203 497l8 35q0 15 2 23q0 5 4 37q3 18 12 30q54 66 136 66q49 0 70 -18.5t16 -57.5q-9 -34 -48 -76q-36 -33 -114 -161q-67 -113 -144 -265q-59 -113 -118 -254q-89 -253 -109 -346
q-8 -54 -8 -71l6 -62q2 -21 -2 -43q-3 -16 -25 -35q-36 -28 -65 -28zM178 88q29 141 217 422q184 270 541 717l252 323q105 136 121 160q31 49 34 64q3 11 0 20q0 9 3 21q5 35 45 81q54 66 122 66q51 0 72 -37q22 -34 12 -78q-9 -47 -55 -84q-43 -37 -104 -37q-16 0 -33 -14
q-28 -23 -57 -57q-48 -52 -107 -121q-509 -605 -745 -979q-55 -89 -123 -231q-67 -147 -74 -183q-7 -29 0 -39q5 -10 31 -14q25 -6 30 -16q8 -12 5 -31q-6 -22 -31 -51q-29 -29 -45 -29q-11 0 -35 -8h-8q-95 0 -68 135zM688 295q15 68 45 178q32 107 45 156q12 60 8 82
q-3 21 0 39q12 51 56 86q40 32 90 32q44 0 69 -28q32 -25 25 -64q-10 -37 -53 -80q-23 -26 -82 -135q-43 -80 -111 -219q-54 -118 -59 -145q-12 -60 39 -60q69 0 264 107q85 45 113 69q35 26 73 90q31 52 90 177q61 125 76 202l17 78q9 47 28 76q21 27 66 49q50 29 82 29
q34 0 49 -27q15 -24 12 -49q-7 -26 -51 -86q-58 -78 -145 -229q-104 -164 -131 -222q0 -4 4 -4q5 0 26 9q29 11 47 16q24 8 45 8q66 0 54 -59q-9 -45 -74 -60q-117 -27 -176 -63q-36 -24 -137 -228q-95 -204 -101 -233q-3 -19 17 -35q16 -25 10 -49q-6 -36 -53 -72
q-46 -34 -84 -34q-71 0 -56 73q14 70 185 381q57 111 59 117q0 2 -2 2q-4 0 -68 -23q-172 -64 -258 -73q-18 0 -30 8q-58 49 -23 213z" />
    <glyph glyph-name="onehalf" unicode="&#xbd;" horiz-adv-x="1712" 
d="M283 815q-33 0 -52 31q-10 40 13 153q23 103 55 185q52 128 162 360q179 393 201 498l8 35q1 4 1 11t1 11q0 5 4 37q3 19 12 31q56 65 135 65q49 0 70 -18.5t16 -56.5q-5 -31 -47 -76q-27 -25 -102 -144l-12 -18q-70 -120 -144 -264q-70 -135 -117 -254
q-94 -267 -108 -346q-6 -28 -10 -72l6 -61q3 -30 -2 -43q-3 -16 -25 -35q-37 -29 -65 -29zM109 88q29 141 217 422q189 278 540 717l252 323q105 136 121 160q33 51 35 64q3 11 0 20q0 13 2 21q5 35 45 81q54 66 123 66q51 0 72 -37q22 -34 12 -78q-9 -47 -55 -84
q-43 -37 -105 -37q-16 0 -33 -14q-28 -23 -57 -57q-48 -52 -107 -121q-509 -605 -745 -979q-55 -89 -123 -231q-67 -147 -74 -183q-7 -29 0 -39q5 -10 31 -14q26 -7 31 -16q7 -10 4 -31q-6 -22 -31 -51q-29 -29 -45 -29q-11 0 -35 -8h-8q-94 0 -67 135zM659 715
q15 70 170 166q136 84 312 141q118 39 227 39q137 0 197 -42t41 -128q-18 -84 -148 -223q-114 -124 -395 -357q-149 -123 -307 -260q-114 -102 -119 -133q-3 -14 8.5 -21.5t38.5 -7.5q108 0 285 54q85 30 121 30q32 0 47 -24q10 -17 4 -35q-18 -87 -254 -121
q-107 -14 -166 -14l-43 2q-90 12 -100 22q-11 11 -17 33q-15 40 -8 64q12 57 297 297q337 277 506 432q161 152 176 229q21 98 -152 98q-198 0 -397 -106q-82 -46 -92 -72q-3 -8 14 -24q36 -33 27 -76q-9 -45 -68 -62q-30 -10 -61 -10q-69 0 -121 43q-29 29 -23 66z" />
    <glyph glyph-name="threequarters" unicode="&#xbe;" horiz-adv-x="2029" 
d="M250 762q-20 0 -35 18q-13 19 -10 33q3 23 57 57q47 31 172 95q389 200 412 311q3 27 -17 53q-16 21 -88 66q-73 44 -96 78q-27 41 -16 94q14 66 174 284q93 124 100 152q3 18 -12 18q-32 0 -78 -22q-37 -17 -82 -49q-40 -26 -43 -43q0 -12 8 -23l15 -26q2 -8 2 -25
q-8 -32 -47 -57q-44 -27 -99 -27q-57 6 -96 37q-40 30 -31 74q6 17 62 67q41 35 125 96q79 54 116 70q101 40 211 43q42 0 58 -31q11 -26 4 -67q-18 -84 -189 -273q-125 -144 -131 -182q-8 -26 17 -51q32 -28 73 -49q80 -43 103 -78q23 -39 14 -92q-16 -64 -41 -101
q-29 -44 -88 -94q-64 -55 -178 -135q-123 -89 -221 -152q-106 -69 -125 -69zM428 88q29 141 217 422q184 270 541 717l252 323q105 136 121 160q31 49 34 64q3 11 0 20q0 13 2 21q5 35 45 81q54 66 123 66q51 0 72 -37q22 -34 12 -78q-9 -47 -55 -84q-43 -37 -104 -37
q-16 0 -33 -14q-31 -26 -58 -57q-37 -40 -106 -121q-513 -609 -746 -979q-51 -82 -122 -231q-67 -147 -74 -183q-7 -29 0 -39q5 -10 31 -14q25 -6 30 -16q7 -10 4 -31q-6 -24 -30 -51q-29 -29 -45 -29q-11 0 -35 -8h-8q-95 0 -68 135zM1016 412q15 68 45 178q41 135 45 155
q12 60 8 82q-3 21 0 39q12 52 55 86q42 33 93 33q40 0 69 -29q29 -26 23 -63q-5 -31 -54 -80q-20 -23 -81 -135q-43 -80 -111 -219q-54 -117 -59 -146q-12 -59 38 -59q72 0 265 106q85 45 112 70q37 28 74 90q26 45 92 176q57 123 76 203l14 78q9 47 31 76q18 27 64 49
q51 28 83 28q34 0 48 -26q15 -24 12 -49q-7 -26 -51 -86q-60 -81 -146 -230q-106 -166 -131 -221q0 -4 4 -4q8 0 27 8q40 15 47 17q24 8 45 8q65 0 53 -60q-9 -44 -73 -59q-119 -27 -177 -63q-39 -26 -135 -228q-94 -192 -102 -233q-3 -19 16 -35q16 -25 13 -49
q-9 -36 -56 -72q-47 -35 -82 -35q-72 0 -57 74q14 73 184 381q60 116 60 117q0 2 -2 2q-4 0 -68 -23q-175 -66 -258 -74q-17 0 -31 9q-57 48 -22 213z" />
    <glyph glyph-name="questiondown" unicode="&#xbf;" horiz-adv-x="1761" 
d="M1815 2353q-52 0 -76 27q-27 26 -21 43q3 21 56 61q50 35 102 35q50 -6 63 -22q19 -14 13 -54q-9 -45 -54 -67q-51 -23 -83 -23zM76 154q27 95 94 202q69 106 246 295q192 201 522 523q390 380 504 497q246 267 301 404q3 25 -35 36q-44 18 -35 64q9 47 78 47
q48 -3 76 -31q26 -26 16 -75q-18 -86 -213 -297q-200 -216 -653 -654q-353 -342 -510 -506q-307 -322 -334 -450q-18 -80 84 -92h10q107 0 314 92q191 82 438 250q202 145 369 315q170 167 186 221q0 17 -37 33q-44 28 -37 72q12 35 56 63q46 19 90 19q68 0 112 -29
q38 -30 25 -82q-21 -101 -225 -299q-307 -298 -678 -510q-406 -233 -658 -233q-40 0 -57 10q-16 12 -29 35q-26 42 -20 80z" />
    <glyph glyph-name="Agrave" unicode="&#xc0;" horiz-adv-x="2230" 
d="M1610 -385q-29 0 -41 57q-47 124 26 475q57 280 291 988q-10 4 -26 16q-20 8 -109 25q-82 18 -163.5 32t-164 25.5t-106.5 15.5l-12 2l-25 -6q-30 -17 -76 -71q-270 -312 -452 -572q-142 -201 -162 -283q-3 -13 10 -32q16 -32 10 -60q-6 -29 -22 -39q-15 -12 -33 -12
q-61 0 -49 113q24 106 149 278q109 153 373 463q164 188 170 217v2h-88q-771 -41 -1141 -274l-41 -27q6 -27 21 -57q9 -18 6 -37q-9 -37 -53 -51q-71 24 -62 96q8 42 25 76q71 130 430 229q381 108 813 117l84 2q18 0 59 -8q8 0 31 20q22 19 70 70q46 49 129 141
q396 445 577 666q172 207 191 272q8 19 45 56q28 32 71 63q42 28 64 31v-2q33 0 27 -64q-10 -40 -11 -41q-61 -121 -190 -477q-48 -130 -307 -858q196 -75 293 -160q93 -81 81 -192q-8 -50 -28 -88q-14 -33 -47 -33q-63 0 -54 129q6 96 -79 166q-84 68 -183 102
q-91 -276 -159 -510q-38 -147 -70 -303q-95 -447 -29 -543q24 -38 19 -65l-4 -6q-5 -24 -29 -51q-25 -22 -45 -25zM1327 1313q170 -12 586 -103l12 29q60 136 279 784q66 198 82 279q6 22 4 22q-26 -11 -191 -182q-158 -161 -385 -405q-175 -185 -387 -424zM2482 3439
q6 29 37 51t59 22q19 0 33 -14q12 -15 6 -43q-4 -15 -14 -25q-9 -12 -12 -24q-6 -26 4 -76t61 -259q29 -118 47 -194q4 -18 14 -30.5t17 -18t6 -8.5q-3 -16 -24 -31q-20 -14 -41 -14q-13 0 -21 8q-8 12 -28 123q-35 204 -55 306t-28.5 128t-19.5 37q-31 31 -35 31q-6 0 -6 8
q-4 6 0 23z" />
    <glyph glyph-name="Aacute" unicode="&#xc1;" horiz-adv-x="2230" 
d="M1610 -385q-29 0 -41 57q-47 124 26 475q57 280 291 988q-10 4 -26 16q-20 8 -109 25q-82 18 -163.5 32t-164 25.5t-106.5 15.5l-12 2l-25 -6q-30 -17 -76 -71q-270 -312 -452 -572q-142 -201 -162 -283q-3 -13 10 -32q16 -32 10 -60q-6 -29 -22 -39q-15 -12 -33 -12
q-61 0 -49 113q24 106 149 278q109 153 373 463q164 188 170 217v2h-88q-771 -41 -1141 -274l-41 -27q6 -27 21 -57q9 -18 6 -37q-9 -37 -53 -51q-71 24 -62 96q8 42 25 76q71 130 430 229q381 108 813 117l84 2q18 0 59 -8q8 0 31 20q22 19 70 70q46 49 129 141
q396 445 577 666q172 207 191 272q8 19 45 56q28 32 71 63q42 28 64 31v-2q33 0 27 -64q-10 -40 -11 -41q-61 -121 -190 -477q-48 -130 -307 -858q196 -75 293 -160q93 -81 81 -192q-8 -50 -28 -88q-14 -33 -47 -33q-63 0 -54 129q6 96 -79 166q-84 68 -183 102
q-91 -276 -159 -510q-38 -147 -70 -303q-95 -447 -29 -543q24 -38 19 -65l-4 -6q-5 -24 -29 -51q-25 -22 -45 -25zM1327 1313q170 -12 586 -103l12 29q60 136 279 784q66 198 82 279q6 22 4 22q-26 -11 -191 -182q-158 -161 -385 -405q-175 -185 -387 -424zM2466 2906
q7 28 41 47q28 14 200 163t242 222q43 43 72 43q14 0 22 -8q12 -9 9 -22q-3 -22 -56 -52q-71 -47 -229 -182.5t-164 -157.5q0 -12 4 -18q3 -9 0 -25q-7 -28 -35 -45q-24 -16 -51 -20q-21 0 -41 14q-20 17 -14 41z" />
    <glyph glyph-name="Acircumflex" unicode="&#xc2;" horiz-adv-x="2230" 
d="M1610 -385q-29 0 -41 57q-47 124 26 475q57 280 291 988q-10 4 -26 16q-20 8 -109 25q-82 18 -163.5 32t-164 25.5t-106.5 15.5l-12 2l-25 -6q-30 -17 -76 -71q-270 -312 -452 -572q-142 -201 -162 -283q-3 -13 10 -32q16 -32 10 -60q-6 -29 -22 -39q-15 -12 -33 -12
q-61 0 -49 113q24 106 149 278q109 153 373 463q164 188 170 217v2h-88q-771 -41 -1141 -274l-41 -27q6 -27 21 -57q9 -18 6 -37q-9 -37 -53 -51q-71 24 -62 96q8 42 25 76q71 130 430 229q381 108 813 117l84 2q18 0 59 -8q8 0 31 20q22 19 70 70q46 49 129 141
q396 445 577 666q172 207 191 272q8 19 45 56q28 32 71 63q42 28 64 31v-2q33 0 27 -64q-10 -40 -11 -41q-61 -121 -190 -477q-48 -130 -307 -858q196 -75 293 -160q93 -81 81 -192q-8 -50 -28 -88q-14 -33 -47 -33q-63 0 -54 129q6 96 -79 166q-84 68 -183 102
q-91 -276 -159 -510q-38 -147 -70 -303q-95 -447 -29 -543q24 -38 19 -65l-4 -6q-5 -24 -29 -51q-25 -22 -45 -25zM1327 1313q170 -12 586 -103l12 29q60 136 279 784q66 198 82 279q6 22 4 22q-26 -11 -191 -182q-158 -161 -385 -405q-175 -185 -387 -424zM2269 2857
q5 22 60 90q50 56 216 214t193 181q65 56 103 56q15 0 22 -7q27 -27 12 -122q-28 -148 -40.5 -225t-11.5 -98t7 -28q19 -19 13 -36q-6 -33 -52 -33q-30 0 -36 24q-4 31 69 369q11 53 13.5 75.5t-3.5 24.5q-2 0 -28 -16q-35 -30 -84.5 -74.5t-124.5 -116t-128.5 -136.5
t-60.5 -99q-9 -52 -55 -74q-27 -12 -43 -12t-31 12q-13 11 -10 31z" />
    <glyph glyph-name="Atilde" unicode="&#xc3;" horiz-adv-x="2230" 
d="M1610 -385q-29 0 -41 57q-47 124 26 475q57 280 291 988q-10 4 -26 16q-20 8 -109 25q-82 18 -163.5 32t-164 25.5t-106.5 15.5l-12 2l-25 -6q-30 -17 -76 -71q-270 -312 -452 -572q-142 -201 -162 -283q-3 -13 10 -32q16 -32 10 -60q-6 -29 -22 -39q-15 -12 -33 -12
q-61 0 -49 113q24 106 149 278q109 153 373 463q164 188 170 217v2h-88q-771 -41 -1141 -274l-41 -27q6 -27 21 -57q9 -18 6 -37q-9 -37 -53 -51q-71 24 -62 96q8 42 25 76q71 130 430 229q381 108 813 117l84 2q18 0 59 -8q8 0 31 20q22 19 70 70q46 49 129 141
q396 445 577 666q172 207 191 272q8 19 45 56q28 32 71 63q42 28 64 31v-2q33 0 27 -64q-10 -40 -11 -41q-61 -121 -190 -477q-48 -130 -307 -858q196 -75 293 -160q93 -81 81 -192q-8 -50 -28 -88q-14 -33 -47 -33q-63 0 -54 129q6 96 -79 166q-84 68 -183 102
q-91 -276 -159 -510q-38 -147 -70 -303q-95 -447 -29 -543q24 -38 19 -65l-4 -6q-5 -24 -29 -51q-25 -22 -45 -25zM1327 1313q170 -12 586 -103l12 29q60 136 279 784q66 198 82 279q6 22 4 22q-26 -11 -191 -182q-158 -161 -385 -405q-175 -185 -387 -424zM2267 3019
q1 6 29 104q26 77 131 80q82 0 280 -119q91 -55 113 -55q4 0 4 4q1 2 0 5t-4 6.5t-6.5 7t-9.5 10t-11 12.5q-40 52 -32 86q4 15 30 41q22 20 56 33q25 14 49 14q41 0 78 -37q44 -35 35 -73q-5 -18 -29 -64q-20 -58 -68 -100q-37 -37 -71 -37q-29 0 -189 100
q-152 99 -285 115q26 -68 19 -111q-16 -71 -76 -71q-53 6 -43 49z" />
    <glyph glyph-name="Adieresis" unicode="&#xc4;" horiz-adv-x="2230" 
d="M1610 -385q-29 0 -41 57q-47 124 26 475q57 280 291 988q-10 4 -26 16q-20 8 -109 25q-82 18 -163.5 32t-164 25.5t-106.5 15.5l-12 2l-25 -6q-30 -17 -76 -71q-270 -312 -452 -572q-142 -201 -162 -283q-3 -13 10 -32q16 -32 10 -60q-6 -29 -22 -39q-15 -12 -33 -12
q-61 0 -49 113q24 106 149 278q109 153 373 463q164 188 170 217v2h-88q-771 -41 -1141 -274l-41 -27q6 -27 21 -57q9 -18 6 -37q-9 -37 -53 -51q-71 24 -62 96q8 42 25 76q71 130 430 229q381 108 813 117l84 2q18 0 59 -8q8 0 31 20q22 19 70 70q46 49 129 141
q396 445 577 666q172 207 191 272q8 19 45 56q28 32 71 63q42 28 64 31v-2q33 0 27 -64q-10 -40 -11 -41q-61 -121 -190 -477q-48 -130 -307 -858q196 -75 293 -160q93 -81 81 -192q-8 -50 -28 -88q-14 -33 -47 -33q-63 0 -54 129q6 96 -79 166q-84 68 -183 102
q-91 -276 -159 -510q-38 -147 -70 -303q-95 -447 -29 -543q24 -38 19 -65l-4 -6q-5 -24 -29 -51q-25 -22 -45 -25zM1327 1313q170 -12 586 -103l12 29q60 136 279 784q66 198 82 279q6 22 4 22q-26 -11 -191 -182q-158 -161 -385 -405q-175 -185 -387 -424zM2206 2970
q8 38 61 88q50 41 113 41q39 0 67 -25t21 -59q-8 -44 -76 -90q-61 -37 -117 -37q-36 0 -59 26q-16 28 -10 56zM2697 2990q8 40 62 88q50 41 110 41q47 0 68 -24q31 -27 22 -60q-8 -45 -77 -90q-63 -37 -115 -37q-40 0 -60 27q-17 31 -10 55z" />
    <glyph glyph-name="Aring" unicode="&#xc5;" horiz-adv-x="2230" 
d="M1610 -385q-29 0 -41 57q-47 124 26 475q57 280 291 988q-10 4 -26 16q-20 8 -109 25q-82 18 -163.5 32t-164 25.5t-106.5 15.5l-12 2l-25 -6q-30 -17 -76 -71q-270 -312 -452 -572q-142 -201 -162 -283q-3 -13 10 -32q16 -32 10 -60q-6 -29 -22 -39q-15 -12 -33 -12
q-61 0 -49 113q24 106 149 278q109 153 373 463q164 188 170 217v2h-88q-771 -41 -1141 -274l-41 -27q6 -27 21 -57q9 -18 6 -37q-9 -37 -53 -51q-71 24 -62 96q8 42 25 76q71 130 430 229q381 108 813 117l84 2q18 0 59 -8q8 0 31 20q22 19 70 70q46 49 129 141
q396 445 577 666q172 207 191 272q8 19 45 56q28 32 71 63q42 28 64 31v-2q33 0 27 -64q-10 -40 -11 -41q-61 -121 -190 -477q-48 -130 -307 -858q196 -75 293 -160q93 -81 81 -192q-8 -50 -28 -88q-14 -33 -47 -33q-63 0 -54 129q6 96 -79 166q-84 68 -183 102
q-91 -276 -159 -510q-38 -147 -70 -303q-95 -447 -29 -543q24 -38 19 -65l-4 -6q-5 -24 -29 -51q-25 -22 -45 -25zM1327 1313q170 -12 586 -103l12 29q60 136 279 784q66 198 82 279q6 22 4 22q-26 -11 -191 -182q-158 -161 -385 -405q-175 -185 -387 -424zM2306 3148
q37 171 313 233q123 35 189 35q54 0 104 -37q50 -47 33 -125q-46 -121 -154 -209q-109 -86 -208 -100h-27q-44 0 -90 25q-55 31 -76 45q-33 20 -37 20q-2 0 -22 17q-1 3 -10 19.5t-11 25.5q-11 22 -4 51zM2517 3219q-28 -36 -35 -76.5t20.5 -73t94.5 -32.5q49 0 147 64
q146 91 164 174q6 29 -16 45q-36 18 -68 18q-125 0 -187.5 -24.5t-119.5 -94.5z" />
    <glyph glyph-name="AE" unicode="&#xc6;" horiz-adv-x="4589" 
d="M2337 950q196 281 370 490q142 171 476 532q47 48 125 133t126 136q-27 -15 -241 -173q-393 -297 -545 -417q-182 -141 -903 -733q33 -9 235 -33.5t287 -50.5q57 89 70 116zM-111 723q20 53 48 88q114 147 559 193q448 48 991 -31l98 -15q16 -2 70 -22q14 -3 258 191
t414 337q458 372 829 697q255 228 285 295q10 20 67 61q119 84 178 84l2 -2q23 -3 23 -39l6 8q41 62 72 84q30 23 71 23q71 0 89 -37q20 -45 12 -80q-12 -41 -45 -61q-31 -25 -78 -25q-44 0 -70 -16q-32 -24 -78 -70q-89 -80 -92 -94l6 -4q16 0 78 12q331 48 539 74
q215 24 389 24q234 0 332 -37q96 -39 78 -127q-16 -63 -47 -94q-35 -35 -66 -35q-49 0 -37 64q9 22 23 39q11 14 14 26q18 80 -485 80q-222 0 -430 -30q-192 -27 -519 -99q-311 -317 -495 -512q-353 -380 -588 -719q-45 -62 -49 -75q5 0 7.5 -1.5t3 -3.5t0 -4.5t0 -4.5
t2.5 -3t8 0t16 4q748 183 1069 156q128 -17 192 -66q49 -40 33 -88q-14 -56 -61 -53q-39 3 -72 53q-14 24 -29 33q-7 7 -49 14q-34 3 -55 9q-24 0 -68 6q-200 18 -487 -23q-284 -41 -529 -121l-20 -9q5 0 2 -2q-2 -2 -8 -5q-40 -24 -66 -63q-11 -14 -73 -121
q-126 -228 -172 -414q-89 -417 354 -432q263 0 696 174q463 186 1051 483q300 146 325 146q45 -12 33 -60q-4 -18 -12 -24q-32 -29 -256 -129q-252 -118 -504 -226q-252 -109 -477 -196q-590 -238 -844 -227l-51 2q-342 15 -348 368q4 74 18 139q42 172 80 263q5 13 80 163
q23 36 55 88.5t35 57.5q-82 25 -275 47.5t-225 32.5l-14 4q-8 0 -18.5 -1t-12.5 -1q-24 -5 -106 -74q-405 -341 -658 -606q-216 -219 -252 -314q-6 -15 5 -40q14 -39 -2 -78q-23 -58 -76 -49q-73 12 -31 147q46 127 233 311q218 215 541 490q239 201 250 235
q-253 44 -367 52q-734 47 -1151 -127l-57 -25q12 -66 14 -74q9 -25 0 -47q-20 -42 -73 -53q-75 44 -56 131z" />
    <glyph glyph-name="Ccedilla" unicode="&#xc7;" horiz-adv-x="2441" 
d="M197 -938q-71 37 -113 211q-4 17 -10 36.5t-8.5 29t-2 20.5t6.5 20q24 24 41 17q3 -2 4.5 -4.5t3 -6.5t2.5 -8t2 -10.5t1.5 -11.5t1 -14t1.5 -15q26 -197 92 -239q18 -11 31 -11q6 -1 11 -0.5t8 2t3 2.5q13 13 19 56q2 36 -4 80q-2 24 -17 97t-22 83q-15 18 -15 33
q4 18 19 36l82 123q83 124 115 166l28 39q-143 6 -235 60q-181 98 -238 262q-58 159 -6 405q39 174 102 316q219 416 652 823q387 346 829 600q449 258 653 258q42 -3 66 -12q24 -8 47 -41q20 -29 8 -86q-22 -108 -86 -230q-54 -99 -213 -282q-180 -201 -411 -404
q-244 -212 -449 -346q-213 -143 -307 -143q-52 0 -74 19t-14 57q8 34 41 57q37 23 123 55q218 79 637 426q398 324 583 590q94 126 105 178q15 76 -90 76q-177 0 -562 -209q-379 -203 -751 -512q-489 -417 -750 -883q-29 -54 -47 -94q-27 -72 -31 -90q-3 -11 -34 -141
q-37 -171 -31 -219q0 -35 10 -66q61 -224 297 -330q50 -22 96 -28q62 -4 131 -4q9 6 19 6q7 3 16 -6q170 3 338 63q172 58 426 207q288 171 576 381q330 238 510 401q121 109 165 109q16 0 25 -17q12 -15 6 -34q-9 -49 -182 -181q-285 -225 -639 -458q-346 -225 -594 -349
q-356 -164 -616 -182q-3 -15 -13 -28l-22 -23q-22 -23 -52 -57t-64 -75t-65.5 -88.5t-48.5 -86.5q1 -10 7.5 -73t10.5 -112t1 -65q-6 -54 -41 -98q-46 -58 -94 -27z" />
    <glyph glyph-name="Egrave" unicode="&#xc8;" horiz-adv-x="2600" 
d="M311 -317q-342 15 -348 368q0 61 17 139q43 178 79 263q22 50 82 163h-47q-8 -2 -20 -2q-70 3 -100 24t-21 58q6 30 35 56q24 22 67 28q134 20 197 54q31 25 147 190q135 197 320 416q144 176 473 532q133 133 139 160q0 10 -8 10q-25 0 -117 -28q-345 -104 -524 -232
q-85 -67 -137 -67q-46 3 -82 36q-35 35 -29 74q16 59 121 82q668 192 903 248l76 80q143 153 195 233q38 57 71 84q26 23 72 23q68 -3 88 -39q20 -42 12 -78q-12 -38 -45 -61q-31 -25 -76 -25h-22q-30 0 -51 -16q-24 -18 -76 -70q-89 -80 -92 -94l6 -4q16 0 78 12
q350 51 534 72q209 26 391 26q237 0 330 -37q100 -40 82 -125q-11 -57 -47 -96q-35 -35 -68 -35q-22 0 -28 19q-13 16 -6 45q13 30 20 39q14 17 16 26q18 80 -487 80q-219 0 -430 -30q-189 -27 -516 -99q-329 -335 -496 -512q-343 -366 -588 -719q-46 -64 -49 -75h6
q34 0 107 28q747 246 1071 246q140 -6 201 -47q54 -37 43 -84q-2 -11 -23 -45q-12 -12 -37 -12q-39 0 -75 45q-28 39 -89 39q-82 4 -120 4q-215 0 -494 -66q-291 -66 -524 -162q-75 -32 -111 -55q-43 -25 -65 -63q-15 -21 -74 -121q-126 -228 -172 -414q-88 -417 352 -432
q266 0 699 174q458 184 1050 483q300 146 326 146q18 -6 28 -23q10 -21 5 -37q-3 -17 -13 -24q-33 -26 -256 -129q-252 -118 -504 -226q-252 -109 -477 -196q-591 -238 -844 -227zM2464 3404q6 32 37 51q30 23 57 23q20 0 35 -15q11 -13 4 -43q-4 -16 -12 -24
q-13 -18 -15 -25q-4 -24 5 -71.5t48 -207.5q36 -146 60 -249q4 -18 14 -31t17 -18.5t6 -8.5q-3 -14 -25 -30q-21 -15 -39 -15q-15 0 -20 8q-11 11 -31 123q-35 205 -55 306t-28.5 128t-18.5 37q-31 31 -35 31q-3 0 -6 8q-2 6 2 23z" />
    <glyph glyph-name="Eacute" unicode="&#xc9;" horiz-adv-x="2600" 
d="M311 -317q-342 15 -348 368q0 61 17 139q43 178 79 263q22 50 82 163h-47q-8 -2 -20 -2q-70 3 -100 24t-21 58q6 30 35 56q24 22 67 28q134 20 197 54q31 25 147 190q135 197 320 416q144 176 473 532q133 133 139 160q0 10 -8 10q-25 0 -117 -28q-345 -104 -524 -232
q-85 -67 -137 -67q-46 3 -82 36q-35 35 -29 74q16 59 121 82q668 192 903 248l76 80q143 153 195 233q38 57 71 84q26 23 72 23q68 -3 88 -39q20 -42 12 -78q-12 -38 -45 -61q-31 -25 -76 -25h-22q-30 0 -51 -16q-24 -18 -76 -70q-89 -80 -92 -94l6 -4q16 0 78 12
q350 51 534 72q209 26 391 26q237 0 330 -37q100 -40 82 -125q-11 -57 -47 -96q-35 -35 -68 -35q-22 0 -28 19q-13 16 -6 45q13 30 20 39q14 17 16 26q18 80 -487 80q-219 0 -430 -30q-189 -27 -516 -99q-329 -335 -496 -512q-343 -366 -588 -719q-46 -64 -49 -75h6
q34 0 107 28q747 246 1071 246q140 -6 201 -47q54 -37 43 -84q-2 -11 -23 -45q-12 -12 -37 -12q-39 0 -75 45q-28 39 -89 39q-82 4 -120 4q-215 0 -494 -66q-291 -66 -524 -162q-75 -32 -111 -55q-43 -25 -65 -63q-15 -21 -74 -121q-126 -228 -172 -414q-88 -417 352 -432
q266 0 699 174q458 184 1050 483q300 146 326 146q18 -6 28 -23q10 -21 5 -37q-3 -17 -13 -24q-33 -26 -256 -129q-252 -118 -504 -226q-252 -109 -477 -196q-591 -238 -844 -227zM2445 2871q7 26 41 47q29 15 202 164t241 221q43 43 73 43q12 0 23 -8q9 -9 6 -22
q-3 -21 -55 -51q-72 -47 -229.5 -182.5t-161.5 -157.5q-2 -7 2 -19q3 -9 0 -24q-3 -26 -33 -46q-28 -17 -51 -20q-23 0 -43 14q-18 15 -15 41z" />
    <glyph glyph-name="Ecircumflex" unicode="&#xca;" horiz-adv-x="2600" 
d="M311 -317q-342 15 -348 368q0 61 17 139q43 178 79 263q22 50 82 163h-47q-8 -2 -20 -2q-70 3 -100 24t-21 58q6 30 35 56q24 22 67 28q134 20 197 54q31 25 147 190q135 197 320 416q144 176 473 532q133 133 139 160q0 10 -8 10q-25 0 -117 -28q-345 -104 -524 -232
q-85 -67 -137 -67q-46 3 -82 36q-35 35 -29 74q16 59 121 82q668 192 903 248l76 80q143 153 195 233q38 57 71 84q26 23 72 23q68 -3 88 -39q20 -42 12 -78q-12 -38 -45 -61q-31 -25 -76 -25h-22q-30 0 -51 -16q-24 -18 -76 -70q-89 -80 -92 -94l6 -4q16 0 78 12
q350 51 534 72q209 26 391 26q237 0 330 -37q100 -40 82 -125q-11 -57 -47 -96q-35 -35 -68 -35q-22 0 -28 19q-13 16 -6 45q13 30 20 39q14 17 16 26q18 80 -487 80q-219 0 -430 -30q-189 -27 -516 -99q-329 -335 -496 -512q-343 -366 -588 -719q-46 -64 -49 -75h6
q34 0 107 28q747 246 1071 246q140 -6 201 -47q54 -37 43 -84q-2 -11 -23 -45q-12 -12 -37 -12q-39 0 -75 45q-28 39 -89 39q-82 4 -120 4q-215 0 -494 -66q-291 -66 -524 -162q-75 -32 -111 -55q-43 -25 -65 -63q-15 -21 -74 -121q-126 -228 -172 -414q-88 -417 352 -432
q266 0 699 174q458 184 1050 483q300 146 326 146q18 -6 28 -23q10 -21 5 -37q-3 -17 -13 -24q-33 -26 -256 -129q-252 -118 -504 -226q-252 -109 -477 -196q-591 -238 -844 -227zM2249 2822q6 26 61 90q51 58 221.5 220t188.5 176q61 55 100 55q16 0 25 -6q10 -10 14 -37.5
t-4 -85.5q-28 -146 -39.5 -224t-11 -98.5t7.5 -27.5q15 -18 12 -37q-9 -33 -53 -33q-32 0 -35 25q-4 34 68 368q12 56 14.5 76t-2.5 25q-5 0 -29 -17q-29 -24 -84 -73.5t-126.5 -118t-125.5 -134.5t-61 -100q-12 -52 -57 -74q-27 -12 -41 -12q-18 0 -33 12q-13 13 -10 31z
" />
    <glyph glyph-name="Edieresis" unicode="&#xcb;" horiz-adv-x="2600" 
d="M311 -317q-342 15 -348 368q0 61 17 139q43 178 79 263q22 50 82 163h-47q-8 -2 -20 -2q-70 3 -100 24t-21 58q6 30 35 56q24 22 67 28q134 20 197 54q31 25 147 190q135 197 320 416q144 176 473 532q133 133 139 160q0 10 -8 10q-25 0 -117 -28q-345 -104 -524 -232
q-85 -67 -137 -67q-46 3 -82 36q-35 35 -29 74q16 59 121 82q668 192 903 248l76 80q143 153 195 233q38 57 71 84q26 23 72 23q68 -3 88 -39q20 -42 12 -78q-12 -38 -45 -61q-31 -25 -76 -25h-22q-30 0 -51 -16q-24 -18 -76 -70q-89 -80 -92 -94l6 -4q16 0 78 12
q350 51 534 72q209 26 391 26q237 0 330 -37q100 -40 82 -125q-11 -57 -47 -96q-35 -35 -68 -35q-22 0 -28 19q-13 16 -6 45q13 30 20 39q14 17 16 26q18 80 -487 80q-219 0 -430 -30q-189 -27 -516 -99q-329 -335 -496 -512q-343 -366 -588 -719q-46 -64 -49 -75h6
q34 0 107 28q747 246 1071 246q140 -6 201 -47q54 -37 43 -84q-2 -11 -23 -45q-12 -12 -37 -12q-39 0 -75 45q-28 39 -89 39q-82 4 -120 4q-215 0 -494 -66q-291 -66 -524 -162q-75 -32 -111 -55q-43 -25 -65 -63q-15 -21 -74 -121q-126 -228 -172 -414q-88 -417 352 -432
q266 0 699 174q458 184 1050 483q300 146 326 146q18 -6 28 -23q10 -21 5 -37q-3 -17 -13 -24q-33 -26 -256 -129q-252 -118 -504 -226q-252 -109 -477 -196q-591 -238 -844 -227zM2187 2935q7 35 60 88q53 41 112 41q39 0 70 -25q27 -27 20 -59q-10 -45 -77 -90
q-58 -37 -117 -37q-37 0 -60 26q-14 25 -8 56zM2677 2955q8 38 61 88q50 41 111 41q48 0 69 -24q28 -28 23 -60q-10 -45 -80 -90q-63 -37 -115 -37q-35 0 -59 27q-15 28 -10 55z" />
    <glyph glyph-name="Igrave" unicode="&#xcc;" horiz-adv-x="735" 
d="M-129 -346q-22 5 -49 22q-52 22 -64 70q-11 42 13 158q68 313 397 825q311 476 862 1165q408 517 416 543l-2 2q-2 0 -8 -6q-160 -142 -353 -344q-176 -184 -323 -365q-138 -173 -152 -225q-10 -30 -16 -45q-20 -45 -82 -72q-46 -18 -84 -18q-34 3 -59 25q-24 24 -21 45
q29 68 422 479q359 374 649 620q136 116 178 129q24 4 37 4q34 -3 31 -43q-15 -50 -92 -145q-147 -190 -363 -444q-580 -693 -903 -1178q-356 -531 -440 -928q-16 -79 -8 -108q6 -34 43 -43q70 -12 61 -62q-12 -49 -90 -61zM1642 3461q10 33 39 51q30 23 58 23q21 0 35 -14
q11 -13 4 -43q-3 -12 -13 -25q-12 -15 -14 -25q-4 -24 5 -71.5t48 -207.5q36 -146 60 -249q4 -18 14 -30.5t17 -18t6 -8.5q-3 -15 -25 -31q-20 -14 -39 -14q-14 0 -22 8q-9 14 -29 123q-35 204 -55 306t-28.5 128t-19.5 37q-30 30 -34 30t-7 9q-1 3 -1 6.5t0.5 8t0.5 7.5z
" />
    <glyph glyph-name="Iacute" unicode="&#xcd;" horiz-adv-x="735" 
d="M-129 -346q-22 5 -49 22q-52 22 -64 70q-11 42 13 158q68 313 397 825q311 476 862 1165q408 517 416 543l-2 2q-2 0 -8 -6q-160 -142 -353 -344q-176 -184 -323 -365q-138 -173 -152 -225q-10 -30 -16 -45q-20 -45 -82 -72q-46 -18 -84 -18q-34 3 -59 25q-24 24 -21 45
q29 68 422 479q359 374 649 620q136 116 178 129q24 4 37 4q34 -3 31 -43q-15 -50 -92 -145q-147 -190 -363 -444q-580 -693 -903 -1178q-356 -531 -440 -928q-16 -79 -8 -108q6 -34 43 -43q70 -12 61 -62q-12 -49 -90 -61zM1626 2929q6 26 41 47q28 14 200 163t242 222
q43 43 74 43q12 0 23 -8q9 -9 6 -23q-3 -21 -55 -51q-72 -47 -230 -182.5t-162 -157.5q-4 -11 2 -19q3 -9 0 -24q-3 -26 -32 -45q-30 -18 -54 -21q-20 0 -41 15q-17 14 -14 41z" />
    <glyph glyph-name="Icircumflex" unicode="&#xce;" horiz-adv-x="735" 
d="M-129 -346q-22 5 -49 22q-52 22 -64 70q-11 42 13 158q68 313 397 825q311 476 862 1165q408 517 416 543l-2 2q-2 0 -8 -6q-160 -142 -353 -344q-176 -184 -323 -365q-138 -173 -152 -225q-10 -30 -16 -45q-20 -45 -82 -72q-46 -18 -84 -18q-34 3 -59 25q-24 24 -21 45
q29 68 422 479q359 374 649 620q136 116 178 129q24 4 37 4q34 -3 31 -43q-15 -50 -92 -145q-147 -190 -363 -444q-580 -693 -903 -1178q-356 -531 -440 -928q-16 -79 -8 -108q6 -34 43 -43q70 -12 61 -62q-12 -49 -90 -61zM1430 2879q6 25 59 91q53 58 223.5 220t188.5 175
q61 55 100 55q15 0 24 -6q10 -10 14.5 -37.5t-3.5 -85.5q-28 -146 -39.5 -224t-11 -98.5t7.5 -27.5q15 -18 12 -37q-9 -33 -53 -33q-32 0 -35 25q-4 34 68 369q12 57 14.5 75.5t-2.5 24.5q-5 0 -29 -17q-29 -24 -84 -73.5t-126.5 -118t-125.5 -134.5t-61 -100
q-12 -51 -58 -73q-29 -13 -40 -13q-17 0 -33 13q-13 13 -10 30z" />
    <glyph glyph-name="Idieresis" unicode="&#xcf;" horiz-adv-x="735" 
d="M-129 -346q-22 5 -49 22q-52 22 -64 70q-11 42 13 158q68 313 397 825q311 476 862 1165q408 517 416 543l-2 2q-2 0 -8 -6q-160 -142 -353 -344q-176 -184 -323 -365q-138 -173 -152 -225q-10 -30 -16 -45q-20 -45 -82 -72q-46 -18 -84 -18q-34 3 -59 25q-24 24 -21 45
q29 68 422 479q359 374 649 620q136 116 178 129q24 4 37 4q34 -3 31 -43q-15 -50 -92 -145q-147 -190 -363 -444q-580 -693 -903 -1178q-356 -531 -440 -928q-16 -79 -8 -108q6 -34 43 -43q70 -12 61 -62q-12 -49 -90 -61zM1368 2992q8 37 59 88q53 41 113 41q40 0 70 -24
q28 -28 18 -60q-8 -44 -76 -90q-58 -37 -116 -37q-36 0 -60 27q-14 25 -8 55zM1858 3013q8 38 61 88q50 41 111 41q47 0 69 -25q28 -28 23 -59q-10 -45 -80 -90q-63 -37 -115 -37q-36 0 -59 26q-16 28 -10 56z" />
    <glyph glyph-name="Eth" unicode="&#xd0;" horiz-adv-x="2811" 
d="M442 -197q-33 0 -69 19q-37 19 -51 61q-17 53 2 123l18 64q79 295 688 1054q-103 -3 -188 -24q-83 -25 -117 -25q-27 0 -45 15t-12 40q9 48 57 76q50 29 104 29q26 0 50 -6q52 -15 225 -15q199 246 485 574q246 285 246 293q-31 0 -287 -113q-414 -184 -792 -475
q-284 -222 -420 -412q-61 -76 -70 -118q-9 -39 23 -68q28 -28 22 -59q-6 -32 -47 -56q-38 -24 -96 -24t-96 41t-29 86q34 134 209 327q183 202 483 414q334 239 596 363q181 86 666 272q167 212 180 274q12 50 51 76q40 27 84 27q52 0 78 -33q32 -32 23 -80q-9 -51 -84 -78
q-14 -5 -66 -41q-49 -36 -78 -63q-35 -28 -39 -41v-2q34 4 158 29q284 59 492 59q278 0 421 -107q143 -106 97 -315q-49 -229 -324 -573q-269 -335 -723 -721q-437 -366 -797 -561q-346 -183 -522 -183q-129 0 -164 103q-5 12 2 43q22 95 80 190q59 86 203 209
q513 422 1057 561q117 27 174 27q52 0 67 -21q18 -21 15 -39q-4 -11 -21 -28q-13 -19 -53 -31q-51 -15 -129 -31q-352 -72 -739 -301q-249 -152 -402 -282q-172 -141 -188 -224q-9 -48 27 -77q33 -33 106 -33q212 0 641 262q421 256 864 657q679 645 752 998q35 153 -51 248
q-53 59 -115 84q-100 32 -287 32q-175 0 -424 -47q-310 -61 -376 -98q-70 -48 -312 -320q-235 -264 -499 -594q251 0 278 -10q20 -16 14 -39q-3 -20 -26 -43q-28 -22 -58 -22q-22 0 -63 8l-96 12q-59 6 -119 6q-610 -772 -674 -1079q-12 -61 -4 -86q13 -26 51 -37
q61 -21 49 -67q-3 -22 -30 -39q-24 -15 -56 -15z" />
    <glyph glyph-name="Ntilde" unicode="&#xd1;" horiz-adv-x="2764" 
d="M-41 -182q-54 0 -82 78q-21 81 -10 143q26 126 233 450q177 281 697 1000q510 702 653 958q69 124 121 176q41 41 121 41q86 0 80 -61q-9 -46 -66 -100q-123 -117 -408 -478q-305 -390 -583 -772q-542 -745 -658 -1009q-46 -96 -73 -205q0 -10 2 -10q19 0 106 106
l307 373q947 1174 1559 1722q367 344 457 344q44 0 59 -6q55 -24 37 -166q-32 -150 -258 -639q-423 -927 -492 -1243q-55 -260 90 -260h11q210 34 712 504q207 198 250 201q20 0 33 -13q10 -10 10 -28q-9 -43 -188 -199q-555 -480 -801 -520h-20q-168 0 -119 284l14 86
q24 144 126.5 406.5t289.5 673.5q137 319 180 422q77 190 96 280q18 133 -16 133q-39 -6 -174 -114q-133 -104 -318 -283q-670 -612 -1429 -1610q-341 -443 -356 -514l2 -16q-6 -29 -29 -59t-49 -44q-62 -32 -103 -32h-14zM2005 2988q3 11 13.5 45t17.5 59q26 77 131 80
q81 0 280 -118q89 -56 111 -56q4 0 6 4q1 2 0 5t-4 6.5t-6.5 7t-9.5 10t-11 12.5q-40 52 -32 86q4 13 28 41q26 20 58 33q25 14 49 14q43 0 76 -36q42 -31 36 -74q-6 -22 -28 -64q-18 -54 -68 -100q-37 -37 -72 -37q-28 0 -188 100q-155 100 -285 115q25 -73 19 -110
q-16 -72 -76 -72q-51 6 -45 49z" />
    <glyph glyph-name="Ograve" unicode="&#xd2;" horiz-adv-x="2975" 
d="M981 -33q-104 0 -147 37q-44 36 -66 115q-15 36 -12 74q2 32 22 135q29 140 56 207l28 65q-256 -8 -379 -10q-144 0 -215 14q-85 13 -133 45q-111 43 -76 207q26 131 195 303q156 158 412 332q478 322 1091 530l152 52l76 79q281 305 395 388q40 30 88 30q73 0 100 -47
q32 -49 21 -94q-18 -85 -133 -88l-60 4q-4 1 -18.5 3.5t-24.5 4.5l-100 -92q-41 -38 -56.5 -53t-38 -36.5t-30 -31.5t-8.5 -16q-1 -3 1 -4.5t7 -1.5q16 0 43 8q30 9 121 12q91 6 190 6q131 0 170 -2q179 -6 328 -96q53 -28 106 -94q68 -85 84 -183q6 -40 -18 -153
q-19 -86 -39 -131q-12 -33 -51 -105q-61 -101 -142 -198q-92 -107 -186 -203h123q218 0 203 -88q-7 -27 -25 -43q-15 -21 -47 -21q-24 0 -41 11q-1 1 -47 16q-49 10 -82 8l-205 -6l-178 -133q-756 -565 -1245 -727q-119 -29 -209 -29zM72 846q-15 -72 61 -127
q113 -78 346 -78q129 0 322 18l90 9q197 347 346 563q190 282 475 610q92 109 92 117v2q-17 0 -118 -37q-730 -267 -1233 -653q-331 -252 -381 -424zM821 281q-49 -242 183 -242q247 0 735 280q327 189 612 414q102 80 105 94q1 3 -2 5t-9 2q-79 0 -768 -105
q-685 -101 -725 -115q-14 -8 -41 -67q-24 -52 -53 -131q-16 -49 -37 -135zM989 688q-3 -10 8 -10q38 15 101 18q8 1 30 5t66 12.5t84 15.5q1020 187 1360 240q204 201 321 352q115 145 146 293q44 210 -123 336q-174 127 -492 127q-125 0 -266 -21q-127 -18 -188 -35
q-73 -37 -267 -262q-211 -244 -411 -512q-206 -271 -324 -467q-41 -67 -45 -92zM2945 3228q6 31 39 51q28 22 57 22q19 0 33 -14q12 -15 6 -43q-4 -15 -14 -25l-12 -24q-8 -33 52 -277q11 -46 17.5 -73.5t19 -79t23.5 -99.5q4 -18 14 -30.5t17 -18t6 -8.5q-3 -15 -25 -31
q-20 -14 -40 -14q-13 0 -21 8q-9 14 -29 123q-35 205 -55 306t-28.5 128t-18.5 37q-31 31 -35 31q-6 0 -6 8q-3 10 0 23z" />
    <glyph glyph-name="Oacute" unicode="&#xd3;" horiz-adv-x="2975" 
d="M981 -33q-104 0 -147 37q-44 36 -66 115q-15 36 -12 74q2 32 22 135q29 140 56 207l28 65q-256 -8 -379 -10q-144 0 -215 14q-85 13 -133 45q-111 43 -76 207q26 131 195 303q156 158 412 332q478 322 1091 530l152 52l76 79q281 305 395 388q40 30 88 30q73 0 100 -47
q32 -49 21 -94q-18 -85 -133 -88l-60 4q-4 1 -18.5 3.5t-24.5 4.5l-100 -92q-41 -38 -56.5 -53t-38 -36.5t-30 -31.5t-8.5 -16q-1 -3 1 -4.5t7 -1.5q16 0 43 8q30 9 121 12q91 6 190 6q131 0 170 -2q179 -6 328 -96q53 -28 106 -94q68 -85 84 -183q6 -40 -18 -153
q-19 -86 -39 -131q-12 -33 -51 -105q-61 -101 -142 -198q-92 -107 -186 -203h123q218 0 203 -88q-7 -27 -25 -43q-15 -21 -47 -21q-24 0 -41 11q-1 1 -47 16q-49 10 -82 8l-205 -6l-178 -133q-756 -565 -1245 -727q-119 -29 -209 -29zM72 846q-15 -72 61 -127
q113 -78 346 -78q129 0 322 18l90 9q197 347 346 563q190 282 475 610q92 109 92 117v2q-17 0 -118 -37q-730 -267 -1233 -653q-331 -252 -381 -424zM821 281q-49 -242 183 -242q247 0 735 280q327 189 612 414q102 80 105 94q1 3 -2 5t-9 2q-79 0 -768 -105
q-685 -101 -725 -115q-14 -8 -41 -67q-24 -52 -53 -131q-16 -49 -37 -135zM989 688q-3 -10 8 -10q38 15 101 18q8 1 30 5t66 12.5t84 15.5q1020 187 1360 240q204 201 321 352q115 145 146 293q44 210 -123 336q-174 127 -492 127q-125 0 -266 -21q-127 -18 -188 -35
q-73 -37 -267 -262q-211 -244 -411 -512q-206 -271 -324 -467q-41 -67 -45 -92zM2929 2695q7 28 41 47q28 14 200 163t242 222q43 43 72 43q14 0 22 -8q11 -9 8 -22q-3 -22 -55 -52q-72 -47 -229.5 -182.5t-161.5 -157.5q-3 -10 2 -18q3 -9 0 -25q-7 -28 -35 -45
q-24 -16 -51 -20q-21 0 -41 14q-20 17 -14 41z" />
    <glyph glyph-name="Ocircumflex" unicode="&#xd4;" horiz-adv-x="2975" 
d="M981 -33q-104 0 -147 37q-44 36 -66 115q-15 36 -12 74q2 32 22 135q29 140 56 207l28 65q-256 -8 -379 -10q-144 0 -215 14q-85 13 -133 45q-111 43 -76 207q26 131 195 303q156 158 412 332q478 322 1091 530l152 52l76 79q281 305 395 388q40 30 88 30q73 0 100 -47
q32 -49 21 -94q-18 -85 -133 -88l-60 4q-4 1 -18.5 3.5t-24.5 4.5l-100 -92q-41 -38 -56.5 -53t-38 -36.5t-30 -31.5t-8.5 -16q-1 -3 1 -4.5t7 -1.5q16 0 43 8q30 9 121 12q91 6 190 6q131 0 170 -2q179 -6 328 -96q53 -28 106 -94q68 -85 84 -183q6 -40 -18 -153
q-19 -86 -39 -131q-12 -33 -51 -105q-61 -101 -142 -198q-92 -107 -186 -203h123q218 0 203 -88q-7 -27 -25 -43q-15 -21 -47 -21q-24 0 -41 11q-1 1 -47 16q-49 10 -82 8l-205 -6l-178 -133q-756 -565 -1245 -727q-119 -29 -209 -29zM72 846q-15 -72 61 -127
q113 -78 346 -78q129 0 322 18l90 9q197 347 346 563q190 282 475 610q92 109 92 117v2q-17 0 -118 -37q-730 -267 -1233 -653q-331 -252 -381 -424zM821 281q-49 -242 183 -242q247 0 735 280q327 189 612 414q102 80 105 94q1 3 -2 5t-9 2q-79 0 -768 -105
q-685 -101 -725 -115q-14 -8 -41 -67q-24 -52 -53 -131q-16 -49 -37 -135zM989 688q-3 -10 8 -10q38 15 101 18q8 1 30 5t66 12.5t84 15.5q1020 187 1360 240q204 201 321 352q115 145 146 293q44 210 -123 336q-174 127 -492 127q-125 0 -266 -21q-127 -18 -188 -35
q-73 -37 -267 -262q-211 -244 -411 -512q-206 -271 -324 -467q-41 -67 -45 -92zM2732 2646q5 24 59 90q50 56 216 213.5t194 181.5q65 56 102 56q17 0 23 -6q10 -10 14.5 -37.5t-2.5 -85.5q-17 -89 -28 -153t-16 -100t-6 -57.5t0 -29t5 -11.5q18 -18 12 -36q-6 -33 -51 -33
q-32 0 -35 24q-6 25 68 369q11 53 13.5 75.5t-3.5 24.5q-4 0 -26 -16q-45 -37 -124.5 -109t-172.5 -172.5t-103 -144.5q-9 -52 -55 -74q-27 -12 -43 -12t-31 12q-13 13 -10 31z" />
    <glyph glyph-name="Otilde" unicode="&#xd5;" horiz-adv-x="2975" 
d="M981 -33q-104 0 -147 37q-44 36 -66 115q-15 36 -12 74q2 32 22 135q29 140 56 207l28 65q-256 -8 -379 -10q-144 0 -215 14q-85 13 -133 45q-111 43 -76 207q26 131 195 303q156 158 412 332q478 322 1091 530l152 52l76 79q281 305 395 388q40 30 88 30q73 0 100 -47
q32 -49 21 -94q-18 -85 -133 -88l-60 4q-4 1 -18.5 3.5t-24.5 4.5l-100 -92q-41 -38 -56.5 -53t-38 -36.5t-30 -31.5t-8.5 -16q-1 -3 1 -4.5t7 -1.5q16 0 43 8q30 9 121 12q91 6 190 6q131 0 170 -2q179 -6 328 -96q53 -28 106 -94q68 -85 84 -183q6 -40 -18 -153
q-19 -86 -39 -131q-12 -33 -51 -105q-61 -101 -142 -198q-92 -107 -186 -203h123q218 0 203 -88q-7 -27 -25 -43q-15 -21 -47 -21q-24 0 -41 11q-1 1 -47 16q-49 10 -82 8l-205 -6l-178 -133q-756 -565 -1245 -727q-119 -29 -209 -29zM72 846q-15 -72 61 -127
q113 -78 346 -78q129 0 322 18l90 9q197 347 346 563q190 282 475 610q92 109 92 117v2q-17 0 -118 -37q-730 -267 -1233 -653q-331 -252 -381 -424zM821 281q-49 -242 183 -242q247 0 735 280q327 189 612 414q102 80 105 94q1 3 -2 5t-9 2q-79 0 -768 -105
q-685 -101 -725 -115q-14 -8 -41 -67q-24 -52 -53 -131q-16 -49 -37 -135zM989 688q-3 -10 8 -10q38 15 101 18q8 1 30 5t66 12.5t84 15.5q1020 187 1360 240q204 201 321 352q115 145 146 293q44 210 -123 336q-174 127 -492 127q-125 0 -266 -21q-127 -18 -188 -35
q-73 -37 -267 -262q-211 -244 -411 -512q-206 -271 -324 -467q-41 -67 -45 -92zM2730 2808q3 19 31 104q11 36 44 57.5t85 22.5q82 0 280 -119q91 -55 113 -55q4 0 4 4q1 2 0 5t-4 6.5t-6.5 7t-9.5 10t-11 12.5q-37 49 -32 86q4 15 30 41q22 20 56 33q25 14 49 14
q41 0 78 -37q43 -34 34 -73q-2 -14 -28 -64q-20 -58 -68 -100q-37 -37 -72 -37q-26 0 -186 100q-154 99 -285 115q26 -75 17 -111q-16 -71 -74 -71q-55 6 -45 49z" />
    <glyph glyph-name="Odieresis" unicode="&#xd6;" horiz-adv-x="2975" 
d="M981 -33q-104 0 -147 37q-44 36 -66 115q-15 36 -12 74q2 32 22 135q29 140 56 207l28 65q-256 -8 -379 -10q-144 0 -215 14q-85 13 -133 45q-111 43 -76 207q26 131 195 303q156 158 412 332q478 322 1091 530l152 52l76 79q281 305 395 388q40 30 88 30q73 0 100 -47
q32 -49 21 -94q-18 -85 -133 -88l-60 4q-4 1 -18.5 3.5t-24.5 4.5l-100 -92q-41 -38 -56.5 -53t-38 -36.5t-30 -31.5t-8.5 -16q-1 -3 1 -4.5t7 -1.5q16 0 43 8q30 9 121 12q91 6 190 6q131 0 170 -2q179 -6 328 -96q53 -28 106 -94q68 -85 84 -183q6 -40 -18 -153
q-19 -86 -39 -131q-12 -33 -51 -105q-61 -101 -142 -198q-92 -107 -186 -203h123q218 0 203 -88q-7 -27 -25 -43q-15 -21 -47 -21q-24 0 -41 11q-1 1 -47 16q-49 10 -82 8l-205 -6l-178 -133q-756 -565 -1245 -727q-119 -29 -209 -29zM72 846q-15 -72 61 -127
q113 -78 346 -78q129 0 322 18l90 9q197 347 346 563q190 282 475 610q92 109 92 117v2q-17 0 -118 -37q-730 -267 -1233 -653q-331 -252 -381 -424zM821 281q-49 -242 183 -242q247 0 735 280q327 189 612 414q102 80 105 94q1 3 -2 5t-9 2q-79 0 -768 -105
q-685 -101 -725 -115q-14 -8 -41 -67q-24 -52 -53 -131q-16 -49 -37 -135zM989 688q-3 -10 8 -10q38 15 101 18q8 1 30 5t66 12.5t84 15.5q1020 187 1360 240q204 201 321 352q115 145 146 293q44 210 -123 336q-174 127 -492 127q-125 0 -266 -21q-127 -18 -188 -35
q-73 -37 -267 -262q-211 -244 -411 -512q-206 -271 -324 -467q-41 -67 -45 -92zM2671 2759q8 40 59 88q50 41 113 41q39 0 67 -25t21 -59q-8 -44 -76 -90q-61 -37 -117 -37q-36 0 -59 26q-16 29 -8 56zM3160 2779q8 40 62 88q50 41 110 41q46 0 70 -24q28 -28 20 -60
q-8 -45 -78 -90q-63 -37 -114 -37q-40 0 -60 27q-15 28 -10 55z" />
    <glyph glyph-name="multiply" unicode="&#xd7;" horiz-adv-x="1021" 
d="M819 432q-26 0 -51 31l-246 368q-83 -72 -137 -153q-38 -52 -45 -80q-3 -18 0 -39q4 -27 0 -39q-9 -50 -86 -53q-40 0 -57 15t-11 44q11 55 84 140q73 82 209 221q-61 97 -106 157t-62 60q-20 0 -35 18q-13 13 -28 43q-8 21 -4 47q6 32 55 64q48 31 88 31q42 0 76 -27
q35 -27 26 -66l-10 -40q-7 -37 6 -78q15 -49 35 -88q18 -37 35 -37l8 2q27 19 78 76q48 53 92 110q42 58 53 82q52 113 158 113q100 -6 88 -70q-11 -50 -108 -113q-50 -30 -125 -90q-66 -51 -142 -120q-62 -59 -65 -78q0 -23 49 -84q112 -149 211 -238q38 -41 35 -65
q-18 -64 -68 -64z" />
    <glyph glyph-name="Oslash" unicode="&#xd8;" horiz-adv-x="2975" 
d="M981 -33q-55 0 -88 8l-19 -24q-27 -39 -36 -66q-3 -21 16 -37q10 -24 6 -41q0 -15 -22 -51q-26 -39 -72 -73q-46 -37 -64 -31q-3 5 -34 2l-6 2q-79 43 67 256q55 77 84 113q-26 33 -45 94q-15 36 -12 74q2 32 22 135q29 140 56 207l28 65q-256 -8 -379 -10
q-144 0 -215 14q-85 13 -133 45q-111 43 -76 207q26 131 195 303q156 158 412 332q478 322 1091 530l152 52l76 79q281 305 395 388q40 30 88 30q73 0 100 -47q32 -49 21 -94q-18 -85 -133 -88l-60 4q-4 1 -18.5 3.5t-24.5 4.5l-100 -92q-41 -38 -56.5 -53t-38 -36.5
t-30 -31.5t-8.5 -16q-1 -3 1 -4.5t7 -1.5q16 0 43 8q30 9 121 12q91 6 190 6q131 0 170 -2q179 -6 328 -96l8 -4q73 61 133 121q72 68 86 90q16 22 21 35q7 18 18 34q39 57 113 119q102 86 159 58q40 -22 25 -93q-15 -70 -61 -135q-51 -76 -121 -119q-67 -43 -119 -18
q-14 7 -39 -10q-33 -17 -100 -72l-64 -49q33 -33 47 -51q68 -85 84 -183q6 -40 -18 -153q-19 -86 -39 -131q-12 -33 -51 -105q-61 -101 -142 -198q-92 -107 -186 -203h123q218 0 203 -88q-7 -27 -25 -43q-15 -21 -47 -21q-24 0 -41 11q-1 1 -47 16q-49 10 -82 8l-205 -6
l-178 -133q-756 -565 -1245 -727q-119 -29 -209 -29zM72 846q-15 -72 61 -127q113 -78 346 -78q129 0 322 18l90 9q197 347 346 563q190 282 475 610q92 109 92 117v2q-17 0 -118 -37q-730 -267 -1233 -653q-331 -252 -381 -424zM821 281q-27 -142 39 -199q158 190 428 448
q86 80 180 168q-481 -72 -516 -84q-14 -8 -41 -67q-24 -52 -53 -131q-16 -49 -37 -135zM989 688q-3 -10 8 -10q38 15 101 18q8 1 30 5t66 12.5t84 15.5l278 51q287 262 824 727q312 275 497 437l48 41q-160 92 -435 92q-125 0 -266 -21q-127 -18 -188 -35q-73 -37 -267 -262
q-211 -244 -411 -512q-206 -271 -324 -467q-41 -67 -45 -92zM946 43q36 -4 58 -4q247 0 735 280q327 189 612 414q102 80 105 94q1 3 -2 5t-9 2q-79 0 -768 -105l-114 -16q-53 -51 -152 -150q-98 -99 -311 -336q-116 -136 -154 -184zM1653 797q689 126 985 172
q204 201 321 352q115 145 146 293q44 210 -123 336l-4 2q-20 -18 -70 -58q-788 -654 -1255 -1097z" />
    <glyph glyph-name="Ugrave" unicode="&#xd9;" horiz-adv-x="1882" 
d="M1020 -178q-79 0 -100 104q-25 108 12 277q50 230 160 483q122 272 303 612l-60 -61q-456 -464 -944 -870q-295 -246 -399 -246q-35 0 -58 33q-24 45 -28 82q-2 43 14 124q42 198 186 490q140 287 367 633q161 236 320 432q150 184 227 231q51 31 100 31q56 0 90 -37
q36 -36 27 -74q-9 -34 -43 -61q-39 -27 -86 -27l-51 7q-14 2 -37 -13q-18 -12 -53 -47q-243 -248 -535 -690q-284 -439 -416 -762q-34 -92 -51 -166q-12 -64 -2 -90q10 -27 43 -27q190 0 1256 1072q48 48 112.5 113.5t83.5 84.5q39 42 109 127q16 20 96 131q128 198 303 420
q167 215 309 363q143 149 197 149q41 0 29 -84q-24 -109 -281 -397q-234 -263 -725 -774l-113 -207q-344 -627 -428 -1014q-64 -309 58 -309q82 0 176 98q73 73 219 244l102 123q74 103 115 155q52 70 64 82q22 25 34 31q16 4 27 4q38 0 29 -33q-6 -28 -45 -82
q-474 -665 -713 -665zM1767 3107q6 29 37 51q33 23 58 23q19 0 34 -15q11 -14 5 -43q0 -11 -13 -24q-12 -15 -14 -25q-4 -24 5 -71.5t48 -207.5q36 -146 60 -249q4 -18 13.5 -30.5t17 -18.5t7.5 -9q-6 -16 -26 -30q-21 -15 -39 -15q-16 0 -21 8q-10 10 -30 123
q-35 204 -55 306t-28.5 128t-19.5 37q-31 31 -32 31q-6 0 -9 8q-2 6 2 23zM1720 1741q0 -4 2 -4q16 0 353 377q332 375 344 426q0 4 -4 4q-19 0 -185 -172q-123 -128 -278 -320q-224 -280 -232 -311z" />
    <glyph glyph-name="Uacute" unicode="&#xda;" horiz-adv-x="1882" 
d="M1020 -178q-79 0 -100 104q-25 108 12 277q50 230 160 483q122 272 303 612l-60 -61q-456 -464 -944 -870q-295 -246 -399 -246q-35 0 -58 33q-24 45 -28 82q-2 43 14 124q42 198 186 490q140 287 367 633q161 236 320 432q150 184 227 231q51 31 100 31q56 0 90 -37
q36 -36 27 -74q-9 -34 -43 -61q-39 -27 -86 -27l-51 7q-14 2 -37 -13q-18 -12 -53 -47q-243 -248 -535 -690q-284 -439 -416 -762q-34 -92 -51 -166q-12 -64 -2 -90q10 -27 43 -27q190 0 1256 1072q48 48 112.5 113.5t83.5 84.5q39 42 109 127q16 20 96 131q128 198 303 420
q167 215 309 363q143 149 197 149q41 0 29 -84q-24 -109 -281 -397q-234 -263 -725 -774l-113 -207q-344 -627 -428 -1014q-64 -309 58 -309q82 0 176 98q73 73 219 244l102 123q74 103 115 155q52 70 64 82q22 25 34 31q16 4 27 4q38 0 29 -33q-6 -28 -45 -82
q-474 -665 -713 -665zM1749 2574q7 26 41 47q29 15 201.5 164t240.5 221q43 43 74 43q15 0 23 -8t8 -22q-6 -21 -58 -51q-72 -47 -229.5 -182.5t-161.5 -157.5q-2 -6 2 -19t2 -24q-7 -27 -34 -45q-26 -17 -52 -21q-23 0 -43 14q-17 14 -14 41zM1720 1741q0 -4 2 -4
q16 0 353 377q332 375 344 426q0 4 -4 4q-19 0 -185 -172q-123 -128 -278 -320q-224 -280 -232 -311z" />
    <glyph glyph-name="Ucircumflex" unicode="&#xdb;" horiz-adv-x="1882" 
d="M1020 -178q-79 0 -100 104q-25 108 12 277q50 230 160 483q122 272 303 612l-60 -61q-456 -464 -944 -870q-295 -246 -399 -246q-35 0 -58 33q-24 45 -28 82q-2 43 14 124q42 198 186 490q140 287 367 633q161 236 320 432q150 184 227 231q51 31 100 31q56 0 90 -37
q36 -36 27 -74q-9 -34 -43 -61q-39 -27 -86 -27l-51 7q-14 2 -37 -13q-18 -12 -53 -47q-243 -248 -535 -690q-284 -439 -416 -762q-34 -92 -51 -166q-12 -64 -2 -90q10 -27 43 -27q190 0 1256 1072q48 48 112.5 113.5t83.5 84.5q39 42 109 127q16 20 96 131q128 198 303 420
q167 215 309 363q143 149 197 149q41 0 29 -84q-24 -109 -281 -397q-234 -263 -725 -774l-113 -207q-344 -627 -428 -1014q-64 -309 58 -309q82 0 176 98q73 73 219 244l102 123q74 103 115 155q52 70 64 82q22 25 34 31q16 4 27 4q38 0 29 -33q-6 -28 -45 -82
q-474 -665 -713 -665zM1552 2525q5 24 62 90q51 58 221 220t188 176q64 55 101 55q15 0 24 -6q10 -10 14.5 -37.5t-3.5 -85.5q-28 -146 -39.5 -224t-11 -98.5t7.5 -27.5q15 -18 12 -37q-6 -33 -51 -33q-34 0 -37 25q-4 30 67 368q19 98 13 101q-5 0 -29 -17
q-29 -24 -84 -73.5t-126.5 -118t-125.5 -134.5t-61 -100q-12 -53 -58 -74q-27 -12 -41 -12q-17 0 -32 12q-14 14 -11 31zM1720 1741q0 -4 2 -4q16 0 353 377q332 375 344 426q0 4 -4 4q-19 0 -185 -172q-123 -128 -278 -320q-224 -280 -232 -311z" />
    <glyph glyph-name="Udieresis" unicode="&#xdc;" horiz-adv-x="1882" 
d="M1020 -178q-79 0 -100 104q-25 108 12 277q50 230 160 483q122 272 303 612l-60 -61q-456 -464 -944 -870q-295 -246 -399 -246q-35 0 -58 33q-24 45 -28 82q-2 43 14 124q42 198 186 490q140 287 367 633q161 236 320 432q150 184 227 231q51 31 100 31q56 0 90 -37
q36 -36 27 -74q-9 -34 -43 -61q-39 -27 -86 -27l-51 7q-14 2 -37 -13q-18 -12 -53 -47q-243 -248 -535 -690q-284 -439 -416 -762q-34 -92 -51 -166q-12 -64 -2 -90q10 -27 43 -27q190 0 1256 1072q48 48 112.5 113.5t83.5 84.5q39 42 109 127q16 20 96 131q128 198 303 420
q167 215 309 363q143 149 197 149q41 0 29 -84q-24 -109 -281 -397q-234 -263 -725 -774l-113 -207q-344 -627 -428 -1014q-64 -309 58 -309q82 0 176 98q73 73 219 244l102 123q74 103 115 155q52 70 64 82q22 25 34 31q16 4 27 4q38 0 29 -33q-6 -28 -45 -82
q-474 -665 -713 -665zM1491 2638q8 37 59 88q53 41 113 41q42 0 70 -25q27 -26 20 -59q-10 -44 -78 -90q-58 -37 -114 -37q-35 0 -62 27q-14 25 -8 55zM1720 1741q0 -4 2 -4q16 0 353 377q332 375 344 426q0 4 -4 4q-19 0 -185 -172q-123 -128 -278 -320
q-224 -280 -232 -311zM1980 2658q8 37 62 88q50 41 112 41q47 0 68 -24q28 -28 23 -60q-10 -45 -80 -90q-63 -37 -113 -37q-37 0 -61 27q-16 29 -11 55z" />
    <glyph glyph-name="Yacute" unicode="&#xdd;" horiz-adv-x="1949" 
d="M326 -481q-59 0 -41 92q29 142 295 446q198 208 407 389q242 209 402 316q26 15 77 55q36 36 72 88q43 59 107 166q270 433 313 629q7 63 6 69q-3 17 -33 17q-97 0 -428 -285q-320 -274 -829 -799q-281 -291 -414 -403q-141 -117 -211 -117q-64 0 -92 70q-25 73 2 203
q71 323 430 934q173 271 397 565q231 296 340 381q95 71 185 71q68 -3 96.5 -27t19.5 -67q-9 -41 -59 -59q-55 -19 -88 -19q-9 0 -41 -8q-95 -40 -354 -354q-430 -512 -690 -1041q-134 -267 -162 -409q-16 -77 -2 -111q9 -39 39 -39q47 0 157 93q165 144 488 479
q292 306 469 475q179 170 360 317q299 258 414 258q120 0 80 -184t-242 -520q-70 -115 -127 -203q-35 -49 -39 -61l4 -2q5 0 156 65q72 29 111 29q51 0 81 -27q31 -25 25 -57q-3 -26 -37 -47q-27 -21 -53 -21q-19 0 -35 11q-16 8 -39 8q-30 0 -108 -41q-161 -77 -230 -135
q-76 -66 -180 -205q-366 -472 -670 -756q-244 -229 -329 -229zM360 -369q-3 -18 9 -18q7 0 102 70q74 57 201 178q288 285 534 600q66 78 66 90q-25 -3 -250 -184q-314 -257 -510 -508q-140 -174 -152 -228zM1921 2484q6 26 41 47q28 14 200 163t242 222q43 43 72 43
q14 0 25 -8q9 -9 6 -22q-3 -22 -56 -52q-72 -47 -229.5 -182.5t-161.5 -157.5q-3 -10 2 -18q3 -9 0 -25q-7 -29 -34 -45q-25 -17 -52 -20q-21 0 -41 14q-20 17 -14 41z" />
    <glyph glyph-name="Thorn" unicode="&#xde;" horiz-adv-x="2459" 
d="M641 -207q-137 0 -88 240q102 481 1061 1784q212 283 217 307l-6 2q-32 -4 -111 -29q-80 -23 -188 -61q-74 -26 -180 -68q-668 -290 -967 -651l-51 -70q74 -41 63 -96q-8 -32 -47 -57q-46 -22 -96 -25q-62 0 -103 27q-40 27 -34 71q18 79 219 258q214 189 440 330
q534 322 1116 469q17 4 37 23q22 14 57 61q17 19 97 131q46 65 116 154q53 65 74 82q45 28 92 28q43 0 70 -18q28 -17 25 -51q-7 -25 -142 -142q-90 -78 -235 -229q219 21 278 21q150 0 283 -31q121 -28 194 -88q146 -122 103 -314q-68 -327 -537 -725q-194 -168 -344 -260
q-507 -300 -772 -303q-76 0 -109 27.5t-22 83.5q7 37 39 78q27 30 57 30q19 0 33 -14q15 -12 12 -29q-3 -13 -14 -32q-12 -17 -16 -35q-3 -12 8 -19q12 -6 45 -6q378 12 903 383q291 206 457 395q119 142 159 224q43 81 66 196q37 234 -250 326q-80 24 -194 24
q-412 -6 -449 -30q-17 -10 -50.5 -47t-103.5 -121q-119 -142 -274 -348q-493 -654 -731 -1123q-147 -288 -184 -456q-28 -141 38 -150q54 -12 48 -49q-2 -14 -23 -45q-36 -33 -86 -33z" />
    <glyph glyph-name="germandbls" unicode="&#xdf;" horiz-adv-x="1101" 
d="M-477 16q-64 0 -55 60q9 46 73 131l273 393q605 901 1175 1354q245 184 330 184q59 0 41 -76q-35 -164 -680 -739q-333 -297 -336 -313q0 -6 115 -6l274 6q103 0 146 -15t61 -49q19 -35 10 -80q-41 -189 -727 -563q-175 -96 -221 -96q-34 0 -39 8q-13 6 -4 39q6 27 18 39
t46 24q537 219 774 410q110 88 123 143q7 41 -44.5 61.5t-164.5 20.5l-191 -6q-82 -4 -114 -4q-74 0 -82 14q-17 17 -9 50q5 36 66 100q97 97 358 334q191 179 367 368q166 178 176 222q-3 7 -6 8q-25 0 -123 -70q-632 -432 -1243 -1407q-180 -279 -189 -321q-3 -20 15 -29
q16 -13 8 -53q-15 -66 -88 -103q-74 -39 -133 -39z" />
    <glyph glyph-name="agrave" unicode="&#xe0;" horiz-adv-x="1529" 
d="M666 514q-178 0 -228 117q-33 73 -30 262q6 118 -5 135q-26 0 -346 -235q-94 -70 -133 -70q-28 0 -22 51q9 44 88 129q89 96 178 170q100 83 174 121q57 23 107 23q88 0 149 -46q63 -45 51 -100q-6 -39 -51 -65q-54 -32 -106 -29l-58 4q-16 -188 4 -276q18 -69 72 -111
q39 -31 108 -31t127 10q49 9 142 50q170 77 346 172q213 116 285 168q89 63 141 63q41 0 35 -47q-1 -7 -11 -31q-37 -54 -198 -139q-177 -93 -367 -170q-311 -125 -452 -125zM59 860q12 0 156 113q84 63 84 69h-4q-85 -56 -154 -110q-82 -67 -82 -72zM575 2118q6 29 37 51
t60 22q19 0 33 -14q12 -15 6 -43q-3 -13 -15 -25q-9 -12 -12 -24q-6 -25 3.5 -71.5t55.5 -235.5q32 -133 54 -222q4 -18 14 -30.5t17 -18t6 -8.5q-3 -15 -25 -31q-20 -14 -41 -14q-15 0 -20 8q-9 14 -29 123q-35 204 -55 306t-28.5 128t-19.5 37q-31 31 -34 31q-7 0 -7 8
q-4 6 0 23z" />
    <glyph glyph-name="aacute" unicode="&#xe1;" horiz-adv-x="1529" 
d="M666 514q-178 0 -228 117q-33 73 -30 262q6 118 -5 135q-26 0 -346 -235q-94 -70 -133 -70q-28 0 -22 51q9 44 88 129q89 96 178 170q100 83 174 121q57 23 107 23q88 0 149 -46q63 -45 51 -100q-6 -39 -51 -65q-54 -32 -106 -29l-58 4q-16 -188 4 -276q18 -69 72 -111
q39 -31 108 -31t127 10q49 9 142 50q170 77 346 172q213 116 285 168q89 63 141 63q41 0 35 -47q-1 -7 -11 -31q-37 -54 -198 -139q-177 -93 -367 -170q-311 -125 -452 -125zM59 860q12 0 156 113q84 63 84 69h-4q-85 -56 -154 -110q-82 -67 -82 -72zM559 1585q3 26 41 47
q28 14 200 163t242 222q43 43 72 43q15 0 23 -8q11 -9 8 -22q-7 -25 -55 -52q-71 -46 -229.5 -181.5t-164.5 -158.5q0 -12 2 -18q5 -8 2 -25q-7 -27 -34 -45q-24 -16 -52 -20q-24 0 -41 14q-20 17 -14 41z" />
    <glyph glyph-name="acircumflex" unicode="&#xe2;" horiz-adv-x="1529" 
d="M666 514q-178 0 -228 117q-33 73 -30 262q6 118 -5 135q-26 0 -346 -235q-94 -70 -133 -70q-28 0 -22 51q9 44 88 129q89 96 178 170q100 83 174 121q57 23 107 23q88 0 149 -46q63 -45 51 -100q-6 -39 -51 -65q-54 -32 -106 -29l-58 4q-16 -188 4 -276q18 -69 72 -111
q39 -31 108 -31t127 10q49 9 142 50q170 77 346 172q213 116 285 168q89 63 141 63q41 0 35 -47q-1 -7 -11 -31q-37 -54 -198 -139q-177 -93 -367 -170q-311 -125 -452 -125zM59 860q12 0 156 113q84 63 84 69h-4q-85 -56 -154 -110q-82 -67 -82 -72zM362 1536q5 22 60 90
q50 56 216 214t193 181q65 56 103 56q16 0 22 -6q10 -10 14.5 -37.5t-3.5 -85.5q-27 -148 -39 -225t-11 -98t7 -28q18 -18 12 -36q-6 -33 -51 -33q-31 0 -37 24q-4 28 70 369q11 53 13.5 75.5t-3.5 24.5q-7 0 -29 -16q-34 -29 -84 -74.5t-124.5 -116.5t-128 -136t-60.5 -99
q-9 -51 -56 -74q-27 -12 -43 -12q-15 0 -30 12q-17 13 -11 31z" />
    <glyph glyph-name="atilde" unicode="&#xe3;" horiz-adv-x="1529" 
d="M666 514q-178 0 -228 117q-33 73 -30 262q6 118 -5 135q-26 0 -346 -235q-94 -70 -133 -70q-28 0 -22 51q9 44 88 129q89 96 178 170q100 83 174 121q57 23 107 23q88 0 149 -46q63 -45 51 -100q-6 -39 -51 -65q-54 -32 -106 -29l-58 4q-16 -188 4 -276q18 -69 72 -111
q39 -31 108 -31t127 10q49 9 142 50q170 77 346 172q213 116 285 168q89 63 141 63q41 0 35 -47q-1 -7 -11 -31q-37 -54 -198 -139q-177 -93 -367 -170q-311 -125 -452 -125zM59 860q12 0 156 113q84 63 84 69h-4q-85 -56 -154 -110q-82 -67 -82 -72zM358 1698q3 11 13.5 45
t17.5 59q26 77 131 80q83 0 281 -119q88 -55 112 -55q5 0 5 4q1 2 0 5t-4 6.5t-6.5 7t-9.5 10t-11 12.5q-40 53 -33 86q3 12 29 41q27 21 57 33q25 14 49 14q42 0 76 -37q46 -34 37 -73q-5 -18 -29 -64q-20 -59 -67 -100q-37 -37 -72 -37q-29 0 -189 100q-155 100 -284 115
q24 -71 18 -111q-16 -71 -76 -71q-51 6 -45 49z" />
    <glyph glyph-name="adieresis" unicode="&#xe4;" horiz-adv-x="1529" 
d="M666 514q-178 0 -228 117q-33 73 -30 262q6 118 -5 135q-26 0 -346 -235q-94 -70 -133 -70q-28 0 -22 51q9 44 88 129q89 96 178 170q100 83 174 121q57 23 107 23q88 0 149 -46q63 -45 51 -100q-6 -39 -51 -65q-54 -32 -106 -29l-58 4q-16 -188 4 -276q18 -69 72 -111
q39 -31 108 -31t127 10q49 9 142 50q170 77 346 172q213 116 285 168q89 63 141 63q41 0 35 -47q-1 -7 -11 -31q-37 -54 -198 -139q-177 -93 -367 -170q-311 -125 -452 -125zM59 860q12 0 156 113q84 63 84 69h-4q-85 -56 -154 -110q-82 -67 -82 -72zM299 1649q8 38 61 88
q50 41 113 41q40 0 68 -25q27 -24 20 -59q-10 -46 -76 -90q-61 -37 -116 -37q-37 0 -60 26q-16 28 -10 56zM791 1669q5 38 61 88q47 41 111 41q46 0 67 -24q31 -28 23 -60q-8 -45 -78 -90q-66 -37 -115 -37q-39 0 -59 27q-17 31 -10 55z" />
    <glyph glyph-name="aring" unicode="&#xe5;" horiz-adv-x="1529" 
d="M666 514q-178 0 -228 117q-33 73 -30 262q6 118 -5 135q-26 0 -346 -235q-94 -70 -133 -70q-28 0 -22 51q9 44 88 129q89 96 178 170q100 83 174 121q57 23 107 23q88 0 149 -46q63 -45 51 -100q-6 -39 -51 -65q-54 -32 -106 -29l-58 4q-16 -188 4 -276q18 -69 72 -111
q39 -31 108 -31t127 10q49 9 142 50q170 77 346 172q213 116 285 168q89 63 141 63q41 0 35 -47q-1 -7 -11 -31q-37 -54 -198 -139q-177 -93 -367 -170q-311 -125 -452 -125zM59 860q12 0 156 113q84 63 84 69h-4q-85 -56 -154 -110q-82 -67 -82 -72zM399 1827
q37 171 314 233q123 35 188 35q55 0 105 -37q49 -46 32 -125q-51 -126 -153 -209q-109 -86 -209 -100h-27q-47 0 -90 25q-55 31 -76 45q-33 20 -37 20q-2 0 -22 17q-1 3 -10 19.5t-11 25.5q-11 22 -4 51zM610 1898q-28 -36 -35 -76.5t20.5 -73t94.5 -32.5q50 0 148 64
q145 90 163 174q6 29 -16 45q-36 18 -67 18q-125 0 -188 -24.5t-120 -94.5z" />
    <glyph glyph-name="ae" unicode="&#xe6;" horiz-adv-x="1562" 
d="M59 860q18 5 156 113q84 63 84 69h-4q-88 -58 -152 -110q-84 -66 -84 -72zM-98 774q9 44 88 129q92 98 180 170q87 76 172 121q57 23 107 23q87 0 151 -46q22 -18 27 -26q62 39 96 39q26 0 43 -17q13 -16 10 -47q-8 -33 -63 -104q-44 -56 -109 -121q-70 -82 -151 -82
l-54 4q-27 0 -47 -33q-27 -35 -33 -61q-12 -65 99 -68q55 0 139 19q123 26 694 213q335 114 383 114q38 -3 29 -51q-8 -27 -16 -35q-12 -12 -50 -24q-31 -12 -120 -35q-161 -43 -392 -100q-434 -109 -489 -121q-129 -33 -197 -33q-153 0 -123 133l9 33l118 260
q-26 0 -346 -235q-94 -70 -133 -70q-25 0 -22 51z" />
    <glyph glyph-name="ccedilla" unicode="&#xe7;" horiz-adv-x="1349" 
d="M-37 305h-4q-3 -14 -12 -26l-22 -23q-22 -23 -52 -57t-63.5 -75t-65 -88.5t-49.5 -86.5q1 -8 7.5 -72.5t10 -112.5t0.5 -65q-6 -54 -41 -98q-46 -58 -94 -27q-71 37 -113 211q-4 17 -10 36.5t-8.5 29t-2 20.5t6.5 20q24 24 41 17q3 -2 4.5 -4.5t3 -6.5t2.5 -8t2 -10.5
t1.5 -11.5t1 -14t1.5 -15q26 -198 95 -239q15 -11 30 -11q5 -1 10 -0.5t8 2t3 2.5q11 11 18 56q2 36 -4 80q-2 24 -17 97t-22 83q-14 17 -14 33q4 20 18 36q5 6 43 63t84.5 126.5t69.5 99.5l41 56q-36 16 -51 43q-36 58 -17 153q38 175 242 440q64 87 152 162q98 88 163 88
q57 0 91 -55t16 -131q-12 -59 -68 -86q-56 -29 -88 -29q-38 0 -63 25q-29 26 -23 49q2 8 3 13.5t0.5 8.5t-1.5 3q-6 0 -30 -21q-102 -83 -215 -231q-122 -166 -148 -265q-21 -99 80 -120q8 4 14 4q14 3 21 -11h26q125 3 291 62q161 59 482 209q300 145 546 287
q133 71 160 71q19 0 27 -14q12 -12 6 -31q-6 -36 -131 -100q-128 -69 -459 -217q-391 -173 -596 -246q-225 -78 -338 -78z" />
    <glyph glyph-name="egrave" unicode="&#xe8;" horiz-adv-x="1165" 
d="M2 602q-153 0 -123 133q9 51 49 121q39 68 119 145q69 67 162 129q82 54 117 54q25 0 45 -17q13 -16 10 -47q-15 -62 -174 -225q-75 -88 -150 -82l-55 4q-25 3 -47 -33q-27 -35 -33 -61q-6 -32 19.5 -49t81.5 -19q53 0 137 19q119 24 694 213q334 114 385 114
q38 -3 29 -43q-6 -30 -19 -43q-12 -12 -49 -24q-55 -19 -512 -135q-454 -114 -487 -121q-129 -33 -199 -33zM514 2132q6 32 37 51q30 23 57 23q20 0 35 -15q11 -13 4 -43q-4 -16 -12 -24q-12 -16 -14 -25q-5 -25 4 -69t55 -236q32 -133 53 -223q4 -18 14 -31t17 -18.5
t6 -8.5q-3 -14 -25 -30q-21 -15 -38 -15q-15 0 -21 9q-11 11 -31 122q-35 206 -55 307t-28.5 128t-18.5 37q-30 30 -35 30q-3 0 -6 8q-2 6 2 23z" />
    <glyph glyph-name="eacute" unicode="&#xe9;" horiz-adv-x="1165" 
d="M2 602q-153 0 -123 133q9 51 49 121q39 68 119 145q69 67 162 129q82 54 117 54q25 0 45 -17q13 -16 10 -47q-15 -62 -174 -225q-75 -88 -150 -82l-55 4q-25 3 -47 -33q-27 -35 -33 -61q-6 -32 19.5 -49t81.5 -19q53 0 137 19q119 24 694 213q334 114 385 114
q38 -3 29 -43q-6 -30 -19 -43q-12 -12 -49 -24q-55 -19 -512 -135q-454 -114 -487 -121q-129 -33 -199 -33zM496 1599q7 27 41 48q29 15 201.5 164t240.5 221q43 43 74 43q10 0 22 -9q9 -9 6 -22q-3 -21 -55 -51q-72 -47 -229.5 -182.5t-161.5 -157.5q-2 -7 2 -19
q3 -9 0 -24q-3 -25 -33 -45q-30 -18 -51 -21q-22 0 -43 15q-17 14 -14 40z" />
    <glyph glyph-name="ecircumflex" unicode="&#xea;" horiz-adv-x="1165" 
d="M2 602q-153 0 -123 133q9 51 49 121q39 68 119 145q69 67 162 129q82 54 117 54q25 0 45 -17q13 -16 10 -47q-15 -62 -174 -225q-75 -88 -150 -82l-55 4q-25 3 -47 -33q-27 -35 -33 -61q-6 -32 19.5 -49t81.5 -19q53 0 137 19q119 24 694 213q334 114 385 114
q38 -3 29 -43q-6 -30 -19 -43q-12 -12 -49 -24q-55 -19 -512 -135q-454 -114 -487 -121q-129 -33 -199 -33zM299 1550q6 26 61 90q51 58 221.5 220t188.5 176q61 55 100 55q16 0 25 -6q10 -10 14 -37.5t-4 -85.5q-28 -146 -39.5 -224t-11 -98.5t7.5 -27.5q15 -18 12 -37
q-9 -33 -53 -33q-32 0 -35 25q-4 34 68 368q12 56 14.5 76t-2.5 25q-4 0 -28 -17q-46 -38 -125 -109.5t-171.5 -172t-101.5 -144.5q-12 -51 -57 -73q-29 -13 -41 -13q-17 0 -33 13q-13 13 -10 30z" />
    <glyph glyph-name="edieresis" unicode="&#xeb;" horiz-adv-x="1165" 
d="M2 602q-153 0 -123 133q9 51 49 121q39 68 119 145q69 67 162 129q82 54 117 54q25 0 45 -17q13 -16 10 -47q-15 -62 -174 -225q-75 -88 -150 -82l-55 4q-25 3 -47 -33q-27 -35 -33 -61q-6 -32 19.5 -49t81.5 -19q53 0 137 19q119 24 694 213q334 114 385 114
q38 -3 29 -43q-6 -30 -19 -43q-12 -12 -49 -24q-55 -19 -512 -135q-454 -114 -487 -121q-129 -33 -199 -33zM238 1663q8 37 59 88q53 41 113 41q38 0 69 -25q27 -27 21 -59q-10 -44 -78 -90q-58 -37 -117 -37q-35 0 -59 27q-14 25 -8 55zM727 1683q8 39 61 89q49 40 111 40
q49 0 70 -24q27 -27 22 -59q-11 -46 -80 -91q-61 -36 -114 -36q-37 0 -60 26q-15 28 -10 55z" />
    <glyph glyph-name="igrave" unicode="&#xec;" horiz-adv-x="909" 
d="M23 510q-41 -1 -59.5 32.5t-12.5 96.5q2 40 16 106q46 208 135 355q57 77 123 80l31 2q44 -3 70 -23q23 -20 26 -55q-16 -79 -94 -107q-35 -11 -96 -88q-56 -70 -109 -161q-53 -86 -65 -130q-3 -49 59 -49q85 3 197 47q102 48 389 201q271 154 336 168q44 -6 41 -41
q-9 -46 -80 -70q-39 -15 -389 -172q-372 -172 -480 -190zM438 1896q6 30 37 52t60 22q18 0 32 -14q12 -15 6 -43q-4 -15 -14 -25q-9 -12 -12 -24q-6 -26 4 -76t61 -259q9 -37 14.5 -59.5t14.5 -61t18 -73.5q4 -18 14 -30.5t17 -18t6 -8.5q-3 -16 -24 -31q-20 -14 -41 -14
q-16 0 -21 8q-8 12 -28 123q-35 204 -55 306t-28.5 128t-19.5 37q-31 31 -35 31q-6 0 -6 8q-4 6 0 22z" />
    <glyph glyph-name="iacute" unicode="&#xed;" horiz-adv-x="909" 
d="M23 510q-41 -1 -59.5 32.5t-12.5 96.5q2 40 16 106q46 208 135 355q57 77 123 80l31 2q44 -3 70 -23q23 -20 26 -55q-16 -79 -94 -107q-35 -11 -96 -88q-56 -70 -109 -161q-53 -86 -65 -130q-3 -49 59 -49q85 3 197 47q102 48 389 201q271 154 336 168q44 -6 41 -41
q-9 -46 -80 -70q-39 -15 -389 -172q-372 -172 -480 -190zM422 1364q7 28 41 47q28 14 200 163t242 222q43 43 72 43q14 0 22 -8q12 -9 9 -23q-6 -23 -56 -51q-71 -46 -229 -181.5t-164 -158.5q0 -12 2 -18q5 -8 2 -25q-7 -28 -35 -45q-24 -16 -51 -20q-21 0 -41 14
q-20 17 -14 41z" />
    <glyph glyph-name="icircumflex" unicode="&#xee;" horiz-adv-x="909" 
d="M23 510q-41 -1 -59.5 32.5t-12.5 96.5q2 40 16 106q46 208 135 355q57 77 123 80l31 2q44 -3 70 -23q23 -20 26 -55q-16 -79 -94 -107q-35 -11 -96 -88q-56 -70 -109 -161q-53 -86 -65 -130q-3 -49 59 -49q85 3 197 47q102 48 389 201q271 154 336 168q44 -6 41 -41
q-9 -46 -80 -70q-39 -15 -389 -172q-372 -172 -480 -190zM225 1315q5 22 60 90q50 56 216 214t193 181q64 55 103 55q16 0 22 -6q10 -10 14 -37.5t-4 -85.5q-27 -148 -39 -224.5t-11 -97.5t7 -28q19 -19 13 -37q-6 -32 -51 -32q-31 0 -37 24q-4 31 69 369q11 54 13.5 75.5
t-2.5 24.5q-7 0 -29 -16q-34 -29 -84 -74.5t-124.5 -116.5t-128 -136t-60.5 -99q-9 -51 -56 -74q-27 -12 -43 -12q-15 0 -30 12q-17 13 -11 31z" />
    <glyph glyph-name="idieresis" unicode="&#xef;" horiz-adv-x="909" 
d="M23 510q-41 -1 -59.5 32.5t-12.5 96.5q2 40 16 106q46 208 135 355q57 77 123 80l31 2q44 -3 70 -23q23 -20 26 -55q-16 -79 -94 -107q-35 -11 -96 -88q-56 -70 -109 -161q-53 -86 -65 -130q-3 -49 59 -49q85 3 197 47q102 48 389 201q271 154 336 168q44 -6 41 -41
q-9 -46 -80 -70q-39 -15 -389 -172q-372 -172 -480 -190zM162 1427q8 39 61 89q49 40 113 40q40 0 67 -24q28 -25 21 -59q-11 -47 -76 -91q-59 -36 -117 -36q-36 0 -59 26q-15 28 -10 55zM653 1448q8 40 62 88q47 41 110 41q46 0 68 -25q30 -27 22 -59q-8 -45 -77 -90
q-63 -37 -115 -37q-39 0 -59 27q-18 32 -11 55z" />
    <glyph glyph-name="eth" unicode="&#xf0;" horiz-adv-x="1081" 
d="M240 391q-39 17 -82 76q-91 142 -82 350q6 230 104 371q28 43 58 65q36 29 49 31q19 8 39 -4l53 -27q127 -78 186 -243q57 -163 -2 -250q-45 -66 -114 -29q-50 23 -31 146q9 102 -39 188q-56 95 -100 115q-31 18 -54 -15q-42 -61 -45 -186q-7 -142 15 -250
q30 -190 110 -231q109 -56 244 143l26 37q232 432 269 919q-103 -52 -150 -88q-75 -57 -106 -69q-25 -11 -51 -8q-28 6 -31 28q-12 44 24 86q36 45 91 68q21 9 51 16q41 7 178 62v28q3 121 -14 135q-15 11 -66 37q-70 36 -86 80q-24 56 18 119q48 64 123 72q58 0 97 -19
q56 -27 75 -127q12 -82 -8 -268q224 95 268 104q29 -8 31 -26q6 -17 -8 -47q-21 -31 -45 -41q-30 -11 -68 -21q-40 -10 -104 -30q-29 -9 -88 -33q-50 -301 -129 -535q-101 -305 -228 -497q-95 -139 -190 -195q-116 -76 -188 -37z" />
    <glyph glyph-name="ntilde" unicode="&#xf1;" horiz-adv-x="1345" 
d="M-332 233q-30 0 -37 11q-11 11 -8 41q0 34 8 65q14 69 84 178q74 111 267 349q247 305 327 450q25 55 78 100q50 35 90 35q31 0 62 -22q27 -21 20 -54q-12 -58 -166 -206q-188 -192 -405 -447q-181 -220 -193 -270q0 -10 4 -10q9 0 49 30q38 26 93 78q91 81 241 207
q114 95 230 182q103 80 129 90q32 13 45 13q20 0 37 -33q17 -34 14 -90q-3 -101 2 -144q12 -96 149 -96q96 0 250 62q148 58 269 149q76 64 100 64q7 0 14 -7q27 -20 21 -43q-9 -50 -131 -114q-121 -63 -264 -105q-145 -45 -250 -45q-111 0 -152 56q-40 51 -31 184v72
q0 20 -4 32q-2 1 -8 5.5t-8 5.5q-43 0 -199 -119q-151 -117 -317 -283q-155 -158 -197 -235q-16 -31 -71 -86q-74 -50 -142 -50zM580 1698q3 10 7 24.5t11 37.5t12 42q26 77 131 80q83 0 281 -119q88 -55 113 -55q4 0 4 4q1 2 0 5t-4 6.5t-6.5 7t-9.5 10t-11 12.5
q-40 53 -33 86q3 12 29 41q27 21 57 33q25 14 49 14q42 0 76 -37q46 -34 37 -73q-5 -18 -29 -64q-20 -59 -67 -100q-37 -37 -72 -37q-28 0 -188 100q-155 100 -285 115q24 -71 18 -111q-16 -71 -75 -71q-51 6 -45 49z" />
    <glyph glyph-name="ograve" unicode="&#xf2;" horiz-adv-x="1046" 
d="M-8 524q-36 0 -66 41q-30 46 -12 125q24 116 162 328q89 133 92 160q17 53 61 77q44 23 82 23q44 -7 66 -23q28 -16 45 -18q13 0 51 10q51 15 74 15q113 -9 88 -132q-30 -103 -129 -239q-31 -36 -41 -53l2 -2q17 0 111 24q66 15 206 53q58 15 193 56q97 32 145 32
q28 0 31 -12q4 -14 -2 -49q-9 -28 -39 -37q-45 -13 -133 -29q-145 -29 -227 -43q-167 -28 -211 -34q-68 -10 -95 -17q-33 -7 -49 -18q-22 -13 -39 -35q-94 -88 -196 -143q-111 -60 -170 -60zM-2 655q-6 -36 27 -39q54 0 133 48q91 59 155 106l-55 -4q-82 3 -180 45l-17 -33
q-6 -10 -18 -31.5t-18 -31.5q-5 -13 -14.5 -32.5t-12.5 -27.5zM121 860q-6 -14 24 -24q44 -13 211 -19l58 57q52 52 104 134q49 76 64 125q6 29 -11 36q-21 7 -51 7q-39 0 -104 -21q-51 -19 -94 -59q-43 -43 -82 -90q-42 -44 -82 -95q-37 -47 -37 -51zM647 2118q6 29 37 51
t59 22q19 0 33 -14q12 -15 6 -43q-4 -15 -14 -25q-9 -12 -12 -24q-6 -26 4 -76t61 -259q9 -37 14.5 -59.5t14.5 -61t18 -73.5q4 -18 14 -30.5t17 -18t6 -8.5q-3 -16 -24 -31q-20 -14 -41 -14q-16 0 -21 8q-8 12 -28 123q-35 204 -55 306t-28.5 128t-19.5 37q-31 31 -35 31
q-6 0 -6 8q-4 6 0 23z" />
    <glyph glyph-name="oacute" unicode="&#xf3;" horiz-adv-x="1046" 
d="M-8 524q-36 0 -66 41q-30 46 -12 125q24 116 162 328q89 133 92 160q17 53 61 77q44 23 82 23q44 -7 66 -23q28 -16 45 -18q13 0 51 10q51 15 74 15q113 -9 88 -132q-30 -103 -129 -239q-31 -36 -41 -53l2 -2q17 0 111 24q66 15 206 53q58 15 193 56q97 32 145 32
q28 0 31 -12q4 -14 -2 -49q-9 -28 -39 -37q-45 -13 -133 -29q-145 -29 -227 -43q-167 -28 -211 -34q-68 -10 -95 -17q-33 -7 -49 -18q-22 -13 -39 -35q-94 -88 -196 -143q-111 -60 -170 -60zM-2 655q-6 -36 27 -39q54 0 133 48q91 59 155 106l-55 -4q-82 3 -180 45l-17 -33
q-6 -10 -18 -31.5t-18 -31.5q-5 -13 -14.5 -32.5t-12.5 -27.5zM121 860q-6 -14 24 -24q44 -13 211 -19l58 57q52 52 104 134q49 76 64 125q6 29 -11 36q-21 7 -51 7q-39 0 -104 -21q-51 -19 -94 -59q-43 -43 -82 -90q-42 -44 -82 -95q-37 -47 -37 -51zM631 1585q3 26 41 47
q28 14 200 163t242 222q43 43 72 43q14 0 22 -8q12 -9 9 -22q-7 -24 -56 -52q-71 -46 -229 -181.5t-164 -158.5q0 -12 2 -18q5 -8 2 -25q-7 -26 -35 -45q-24 -16 -51 -20q-24 0 -41 14q-20 17 -14 41z" />
    <glyph glyph-name="ocircumflex" unicode="&#xf4;" horiz-adv-x="1046" 
d="M-8 524q-36 0 -66 41q-30 46 -12 125q24 116 162 328q89 133 92 160q17 53 61 77q44 23 82 23q44 -7 66 -23q28 -16 45 -18q13 0 51 10q51 15 74 15q113 -9 88 -132q-30 -103 -129 -239q-31 -36 -41 -53l2 -2q17 0 111 24q66 15 206 53q58 15 193 56q97 32 145 32
q28 0 31 -12q4 -14 -2 -49q-9 -28 -39 -37q-45 -13 -133 -29q-145 -29 -227 -43q-167 -28 -211 -34q-68 -10 -95 -17q-33 -7 -49 -18q-22 -13 -39 -35q-94 -88 -196 -143q-111 -60 -170 -60zM-2 655q-6 -36 27 -39q54 0 133 48q91 59 155 106l-55 -4q-82 3 -180 45l-17 -33
q-6 -10 -18 -31.5t-18 -31.5q-5 -13 -14.5 -32.5t-12.5 -27.5zM121 860q-6 -14 24 -24q44 -13 211 -19l58 57q52 52 104 134q49 76 64 125q6 29 -11 36q-21 7 -51 7q-39 0 -104 -21q-51 -19 -94 -59q-43 -43 -82 -90q-42 -44 -82 -95q-37 -47 -37 -51zM434 1536q5 22 60 90
q50 56 216 214t193 181q65 56 103 56q16 0 22 -6q10 -10 14 -37.5t-4 -85.5q-27 -148 -39 -225t-11 -98t7 -28q19 -19 13 -36q-6 -33 -52 -33q-30 0 -36 24q-4 31 69 369q11 53 13.5 75.5t-3.5 24.5q-6 0 -28 -16q-35 -30 -84.5 -74.5t-124.5 -116t-128.5 -136.5t-60.5 -99
q-9 -52 -55 -74q-27 -12 -43 -12t-31 12q-16 13 -10 31z" />
    <glyph glyph-name="otilde" unicode="&#xf5;" horiz-adv-x="1046" 
d="M-8 524q-36 0 -66 41q-30 46 -12 125q24 116 162 328q89 133 92 160q17 53 61 77q44 23 82 23q44 -7 66 -23q28 -16 45 -18q13 0 51 10q51 15 74 15q113 -9 88 -132q-30 -103 -129 -239q-31 -36 -41 -53l2 -2q17 0 111 24q66 15 206 53q58 15 193 56q97 32 145 32
q28 0 31 -12q4 -14 -2 -49q-9 -28 -39 -37q-45 -13 -133 -29q-145 -29 -227 -43q-167 -28 -211 -34q-68 -10 -95 -17q-33 -7 -49 -18q-22 -13 -39 -35q-94 -88 -196 -143q-111 -60 -170 -60zM-2 655q-6 -36 27 -39q54 0 133 48q91 59 155 106l-55 -4q-82 3 -180 45l-17 -33
q-6 -10 -18 -31.5t-18 -31.5q-5 -13 -14.5 -32.5t-12.5 -27.5zM121 860q-6 -14 24 -24q44 -13 211 -19l58 57q52 52 104 134q49 76 64 125q6 29 -11 36q-21 7 -51 7q-39 0 -104 -21q-51 -19 -94 -59q-43 -43 -82 -90q-42 -44 -82 -95q-37 -47 -37 -51zM430 1698
q3 11 13.5 45t17.5 59q26 77 131 80q82 0 280 -119q88 -55 113 -55q4 0 4 4q1 2 0 5t-4 6.5t-6.5 7t-9.5 10t-11 12.5q-40 52 -32 86q4 13 28 41q26 20 58 33q25 14 49 14q42 0 76 -37q46 -34 37 -73q-5 -18 -29 -64q-20 -58 -68 -100q-37 -37 -71 -37q-29 0 -189 100
q-155 100 -285 115q25 -73 19 -111q-16 -71 -76 -71q-51 6 -45 49z" />
    <glyph glyph-name="odieresis" unicode="&#xf6;" horiz-adv-x="1046" 
d="M-8 524q-36 0 -66 41q-30 46 -12 125q24 116 162 328q89 133 92 160q17 53 61 77q44 23 82 23q44 -7 66 -23q28 -16 45 -18q13 0 51 10q51 15 74 15q113 -9 88 -132q-30 -103 -129 -239q-31 -36 -41 -53l2 -2q17 0 111 24q66 15 206 53q58 15 193 56q97 32 145 32
q28 0 31 -12q4 -14 -2 -49q-9 -28 -39 -37q-45 -13 -133 -29q-145 -29 -227 -43q-167 -28 -211 -34q-68 -10 -95 -17q-33 -7 -49 -18q-22 -13 -39 -35q-94 -88 -196 -143q-111 -60 -170 -60zM-2 655q-6 -36 27 -39q54 0 133 48q91 59 155 106l-55 -4q-82 3 -180 45l-17 -33
q-6 -10 -18 -31.5t-18 -31.5q-5 -13 -14.5 -32.5t-12.5 -27.5zM121 860q-6 -14 24 -24q44 -13 211 -19l58 57q52 52 104 134q49 76 64 125q6 29 -11 36q-21 7 -51 7q-39 0 -104 -21q-51 -19 -94 -59q-43 -43 -82 -90q-42 -44 -82 -95q-37 -47 -37 -51zM371 1649q8 38 61 88
q50 41 113 41q39 0 67 -25t21 -59q-10 -46 -76 -90q-61 -37 -117 -37q-36 0 -59 26q-16 28 -10 56zM862 1669q5 37 62 88q47 41 110 41q47 0 68 -24q31 -27 22 -60q-8 -45 -77 -90q-66 -37 -115 -37q-40 0 -60 27q-17 31 -10 55z" />
    <glyph glyph-name="divide" unicode="&#xf7;" horiz-adv-x="1107" 
d="M623 1155q-46 0 -72 23q-25 25 -19 57q9 44 64 78q50 35 102 35q42 0 70 -25q25 -28 16 -66q-39 -102 -161 -102zM150 907q6 29 57 64q47 33 104 33q24 0 51 -9q24 -6 68 -6q50 0 252 25q174 22 233 22q81 0 107 -26q31 -28 25 -58q-7 -28 -33 -45q-25 -22 -64 -22
q-22 0 -53 14q-57 31 -149 31q-142 0 -355 -66q-121 -41 -137 -41l-18 2l-48 13q-18 9 -30 30q-13 25 -10 39zM422 655q10 40 53 72q41 35 103 35q99 0 81 -88q-22 -97 -133 -103q-52 0 -80 25q-30 21 -24 59z" />
    <glyph glyph-name="oslash" unicode="&#xf8;" horiz-adv-x="1046" 
d="M356 817q189 189 226 316q6 29 -9 36q-21 7 -41 7q-128 -159 -268 -355zM-242 84q30 145 234 440q-36 0 -66 41q-28 43 -12 125q24 116 162 328q90 138 92 160q37 100 143 100q39 -3 68 -21q23 -17 43 -20q13 0 51 10q43 15 74 15l223 282q145 188 154 225q2 6 2 21v20
q9 40 43 80q59 68 125 68q49 0 73 -37q18 -41 13 -78q-12 -48 -56 -86q-46 -37 -104 -37q-30 0 -90 -69q-80 -85 -336 -400q59 -30 41 -121q-30 -103 -129 -239q-31 -36 -41 -53l2 -2q17 0 111 24q36 8 206 53q58 15 193 56q97 32 145 32q25 0 31 -12q4 -9 -2 -49
q-9 -26 -39 -35q-33 -11 -133 -31q-294 -57 -438 -77q-63 -9 -92 -15q-51 -12 -91 -55q-133 -127 -284 -184q-52 -80 -121 -228q-67 -144 -74 -180q-7 -29 0 -39q12 -12 31 -14q24 -3 31 -14q8 -8 4 -33q-5 -20 -29 -51q-29 -29 -45 -29q-14 0 -35 -8h-10q-98 0 -68 137z
M-2 655q-6 -36 27 -39q2 0 32 5l115 157q-41 9 -94 33l-17 -33q-19 -33 -34 -63q-23 -44 -29 -60zM121 860q-6 -26 88 -35q220 286 268 346q-93 -15 -153 -75q-55 -55 -84 -90q-115 -127 -119 -146zM147 657q72 43 166 113l-55 -4l-35 2z" />
    <glyph glyph-name="ugrave" unicode="&#xf9;" horiz-adv-x="1171" 
d="M74 690q-28 0 -51 23q-44 44 -23 147q11 50 43 137q54 138 78 172q18 24 59 39q38 15 74 15q45 0 68 -23q22 -22 16 -49q-9 -39 -62 -92q-56 -56 -92 -121q-41 -61 -55 -111l-4 -20q1 -1 1 -3.5t0.5 -3.5t2.5 -1q18 0 272 190q182 135 193 135q6 0 12 -6q9 -6 12 -18
q7 -9 3 -35q-17 -49 -33 -84q-13 -28 -33 -86q-9 -44 27.5 -67.5t119.5 -26.5q82 0 213 35q140 41 197 75q65 39 107 39q24 0 34 -20q8 -16 4 -33q-12 -43 -104 -80q-89 -33 -215 -55q-118 -23 -225 -23h-8q-112 0 -160 53t-29 142l4 20q4 11 -2 11q-24 0 -164 -119
q-196 -156 -280 -156zM463 2118q6 29 37 51t59 22q19 0 33 -14q12 -15 6 -43q-4 -15 -14 -25q-10 -14 -13 -24q-6 -25 3.5 -71.5t55.5 -235.5q32 -133 54 -222q4 -18 14 -30.5t17 -18t6 -8.5q-3 -15 -25 -31q-20 -14 -41 -14q-15 0 -20 8q-9 14 -29 123q-35 205 -55 306
t-28.5 128t-18.5 37q-31 31 -35 31q-6 0 -6 8q-4 6 0 23z" />
    <glyph glyph-name="uacute" unicode="&#xfa;" horiz-adv-x="1171" 
d="M74 690q-28 0 -51 23q-44 44 -23 147q11 50 43 137q54 138 78 172q18 24 59 39q38 15 74 15q45 0 68 -23q22 -22 16 -49q-9 -39 -62 -92q-56 -56 -92 -121q-41 -61 -55 -111l-4 -20q1 -1 1 -3.5t0.5 -3.5t2.5 -1q18 0 272 190q182 135 193 135q6 0 12 -6q9 -6 12 -18
q7 -9 3 -35q-17 -49 -33 -84q-13 -28 -33 -86q-9 -44 27.5 -67.5t119.5 -26.5q82 0 213 35q140 41 197 75q65 39 107 39q24 0 34 -20q8 -16 4 -33q-12 -43 -104 -80q-89 -33 -215 -55q-118 -23 -225 -23h-8q-112 0 -160 53t-29 142l4 20q4 11 -2 11q-24 0 -164 -119
q-196 -156 -280 -156zM446 1585q3 26 41 47q28 14 200.5 163t242.5 222q43 43 71 43q15 0 23 -8q11 -9 8 -22q-7 -25 -55 -52q-71 -46 -229 -181.5t-164 -158.5q0 -12 2 -18q5 -8 2 -25q-6 -26 -35 -45q-24 -16 -51 -20q-24 0 -41 14q-21 17 -15 41z" />
    <glyph glyph-name="ucircumflex" unicode="&#xfb;" horiz-adv-x="1171" 
d="M74 690q-28 0 -51 23q-44 44 -23 147q11 50 43 137q54 138 78 172q18 24 59 39q38 15 74 15q45 0 68 -23q22 -22 16 -49q-9 -39 -62 -92q-56 -56 -92 -121q-41 -61 -55 -111l-4 -20q1 -1 1 -3.5t0.5 -3.5t2.5 -1q18 0 272 190q182 135 193 135q6 0 12 -6q9 -6 12 -18
q7 -9 3 -35q-17 -49 -33 -84q-13 -28 -33 -86q-9 -44 27.5 -67.5t119.5 -26.5q82 0 213 35q140 41 197 75q65 39 107 39q24 0 34 -20q8 -16 4 -33q-12 -43 -104 -80q-89 -33 -215 -55q-118 -23 -225 -23h-8q-112 0 -160 53t-29 142l4 20q4 11 -2 11q-24 0 -164 -119
q-196 -156 -280 -156zM250 1536q5 24 59 90q50 56 216 213.5t194 181.5q65 56 102 56q17 0 23 -6q10 -10 14 -37.5t-4 -85.5q-27 -148 -39 -225t-11 -98t7 -28q18 -18 12 -36q-6 -33 -51 -33q-31 0 -37 24q-4 28 70 369q11 53 13.5 75.5t-3.5 24.5q-7 0 -29 -16
q-34 -29 -84 -74.5t-124.5 -116.5t-128 -136t-60.5 -99q-9 -52 -55 -74q-27 -12 -43 -12t-31 12q-16 13 -10 31z" />
    <glyph glyph-name="udieresis" unicode="&#xfc;" horiz-adv-x="1171" 
d="M74 690q-28 0 -51 23q-44 44 -23 147q11 50 43 137q54 138 78 172q18 24 59 39q38 15 74 15q45 0 68 -23q22 -22 16 -49q-9 -39 -62 -92q-56 -56 -92 -121q-41 -61 -55 -111l-4 -20q1 -1 1 -3.5t0.5 -3.5t2.5 -1q18 0 272 190q182 135 193 135q6 0 12 -6q9 -6 12 -18
q7 -9 3 -35q-17 -49 -33 -84q-13 -28 -33 -86q-9 -44 27.5 -67.5t119.5 -26.5q82 0 213 35q140 41 197 75q65 39 107 39q24 0 34 -20q8 -16 4 -33q-12 -43 -104 -80q-89 -33 -215 -55q-118 -23 -225 -23h-8q-112 0 -160 53t-29 142l4 20q4 11 -2 11q-24 0 -164 -119
q-196 -156 -280 -156zM428 1546q5 30 49 74q44 35 98 35q31 0 58 -21q19 -22 16 -51q-8 -38 -63 -74q-59 -32 -101 -32q-34 0 -47 22q-17 20 -10 47zM711 1565q5 30 49 71q44 35 98 35q31 0 57 -20q21 -24 15 -49q-6 -41 -62 -76q-57 -31 -100 -31q-34 0 -47 23
q-16 19 -10 47z" />
    <glyph glyph-name="yacute" unicode="&#xfd;" horiz-adv-x="1525" 
d="M-246 -598q-178 0 -137 188q46 224 399 568q345 340 818 610q79 45 120 74q36 26 43 57q6 26 -10 66q-18 86 -137 86q-167 0 -526 -199q-257 -133 -289 -133q-59 0 -41 84q23 110 164 344q53 86 96 104q49 17 84 17q43 0 76 -23q28 -22 22 -57q-7 -33 -41 -62
q-32 -32 -55 -32q-22 0 -92 -64q-72 -66 -133 -135q-61 -70 -68 -100q-3 -9 10 -9q41 0 222 99q408 219 573 219q64 0 100 -31q33 -29 45 -72q18 -60 19 -73q3 -35 12 -41q25 0 131 47q116 50 207 74q95 26 150 26q42 -5 81 -39q33 -33 27 -59q-3 -21 -22 -37
q-18 -12 -41 -12q-21 0 -41 10q-33 23 -86 23q-48 0 -154 -33q-128 -41 -207 -78q-52 -23 -63 -37q-16 -16 -21 -47q-30 -137 -168 -373q-135 -232 -297 -426q-204 -235 -418 -381q-210 -143 -352 -143zM-360 -424q-10 -49 -5 -63q9 -23 19 -33q34 -37 88 -37q43 0 111 22
q245 89 524 365q277 271 463 608q114 209 133 305q3 15 -2 15q-17 0 -99 -43q-470 -245 -833 -596q-355 -339 -399 -543zM637 1329q7 26 41 47q48 26 196 180q40 43 72 43q15 0 23 -8q11 -9 8 -22q-3 -19 -55 -51q-137 -90 -146 -136q-3 -10 2 -18q3 -9 0 -25
q-3 -25 -33 -45q-28 -17 -53 -20q-21 0 -41 14q-17 14 -14 41z" />
    <glyph glyph-name="thorn" unicode="&#xfe;" horiz-adv-x="1093" 
d="M-686 -508q-29 0 -41 21q-14 17 2 100q67 312 471 893q136 203 164 268q21 47 51 80q40 49 45 76q9 42 123 127q125 104 281 264q50 51 252 265.5t383 407t204 212.5q82 73 117 73q46 -3 37 -47q-5 -23 -46.5 -77t-205.5 -237t-494 -540q-113 -125 -120 -145q0 -2 2 -2
q130 47 206 47q142 0 105 -174q-4 -17 -12 -43l-13 -33q33 10 63.5 19t53.5 16t27 8q52 10 98 10q70 0 107 -34q33 -55 26 -91q-12 -49 -78 -49q-31 0 -47 29q-9 31 -61 31q-47 0 -160 -29q-56 -15 -92 -35q-28 -18 -51 -53q-107 -144 -305 -318q-318 -274 -453 -274
q-33 0 -49 29q-13 34 -8 61q8 34 57 105q91 128 272 256q186 134 414 239q145 68 152 68q5 6 12 39q15 81 4 104q-19 25 -59 25q-60 0 -158 -37q-96 -41 -197 -105q-82 -60 -147 -133q-71 -74 -80 -108q-6 -34 -47 -72q-40 -37 -82 -37l-51 4q-11 3 -43 6
q-276 -386 -394 -593q-114 -195 -172 -426q-6 -28 -2 -39q3 -9 13 -9q11 0 20 -12q8 -16 12 -26q5 -13 5 -27q-4 -14 -23 -31q-23 -23 -43 -33q-22 -14 -45 -14zM-74 348q-2 -12 8 -19t33 -7q126 0 420 247q170 141 307 308q2 4 -4 4q-9 0 -76 -23q-211 -88 -389 -211
q-175 -121 -264 -241q-33 -48 -35 -58z" />
    <glyph glyph-name="ydieresis" unicode="&#xff;" horiz-adv-x="1525" 
d="M-246 -598q-178 0 -137 188q46 224 399 568q345 340 818 610q79 45 120 74q36 26 43 57q6 26 -10 66q-18 86 -137 86q-167 0 -526 -199q-257 -133 -289 -133q-59 0 -41 84q23 110 164 344q53 86 96 104q49 17 84 17q43 0 76 -23q28 -22 22 -57q-7 -33 -41 -62
q-32 -32 -55 -32q-22 0 -92 -64q-72 -66 -133 -135q-61 -70 -68 -100q-3 -9 10 -9q41 0 222 99q408 219 573 219q64 0 100 -31q33 -29 45 -72q18 -60 19 -73q3 -35 12 -41q25 0 131 47q116 50 207 74q95 26 150 26q42 -5 81 -39q33 -33 27 -59q-3 -21 -22 -37
q-18 -12 -41 -12q-21 0 -41 10q-33 23 -86 23q-48 0 -154 -33q-128 -41 -207 -78q-52 -23 -63 -37q-16 -16 -21 -47q-30 -137 -168 -373q-135 -232 -297 -426q-204 -235 -418 -381q-210 -143 -352 -143zM-360 -424q-10 -49 -5 -63q9 -23 19 -33q34 -37 88 -37q43 0 111 22
q245 89 524 365q277 271 463 608q114 209 133 305q3 15 -2 15q-17 0 -99 -43q-470 -245 -833 -596q-355 -339 -399 -543zM627 1548q6 32 51 74q41 35 96 35q33 0 57 -21q23 -23 17 -51q-8 -37 -64 -74q-59 -32 -100 -32q-31 0 -47 22q-16 23 -10 47zM909 1567q5 27 49 71
q47 35 99 35q31 0 57 -20q21 -25 16 -49q-9 -42 -63 -76q-57 -31 -98 -31q-33 0 -49 23q-17 20 -11 47z" />
    <glyph glyph-name="Amacron" unicode="&#x100;" horiz-adv-x="2230" 
d="M1610 -385q-29 0 -41 57q-47 124 26 475q57 280 291 988q-10 4 -26 16q-20 8 -109 25q-82 18 -163.5 32t-164 25.5t-106.5 15.5l-12 2l-25 -6q-30 -17 -76 -71q-270 -312 -452 -572q-142 -201 -162 -283q-3 -13 10 -32q16 -32 10 -60q-6 -29 -22 -39q-15 -12 -33 -12
q-61 0 -49 113q24 106 149 278q109 153 373 463q164 188 170 217v2h-88q-771 -41 -1141 -274l-41 -27q6 -27 21 -57q9 -18 6 -37q-9 -37 -53 -51q-71 24 -62 96q8 42 25 76q71 130 430 229q381 108 813 117l84 2q18 0 59 -8q8 0 31 20q22 19 70 70q46 49 129 141
q396 445 577 666q172 207 191 272q8 19 45 56q28 32 71 63q42 28 64 31v-2q33 0 27 -64q-10 -40 -11 -41q-61 -121 -190 -477q-48 -130 -307 -858q196 -75 293 -160q93 -81 81 -192q-8 -50 -28 -88q-14 -33 -47 -33q-63 0 -54 129q6 96 -79 166q-84 68 -183 102
q-91 -276 -159 -510q-38 -147 -70 -303q-95 -447 -29 -543q24 -38 19 -65l-4 -6q-5 -24 -29 -51q-25 -22 -45 -25zM1327 1313q170 -12 586 -103l12 29q60 136 279 784q66 198 82 279q6 22 4 22q-26 -11 -191 -182q-158 -161 -385 -405q-175 -185 -387 -424zM2181 2972
q9 47 60 75q47 29 104 29q23 0 47 -6q49 -14 223 -14q320 0 353 -11q20 -16 14 -39q-3 -19 -27 -43q-28 -22 -55 -22q-25 0 -66 8l-96 12q-68 7 -119 7q-151 0 -262 -27q-86 -25 -119 -25q-27 0 -45 15q-17 17 -12 41z" />
    <glyph glyph-name="amacron" unicode="&#x101;" horiz-adv-x="1529" 
d="M666 514q-178 0 -228 117q-33 73 -30 262q6 118 -5 135q-26 0 -346 -235q-94 -70 -133 -70q-28 0 -22 51q9 44 88 129q89 96 178 170q100 83 174 121q57 23 107 23q88 0 149 -46q63 -45 51 -100q-6 -39 -51 -65q-54 -32 -106 -29l-58 4q-16 -188 4 -276q18 -69 72 -111
q39 -31 108 -31t127 10q49 9 142 50q170 77 346 172q213 116 285 168q89 63 141 63q41 0 35 -47q-1 -7 -11 -31q-37 -54 -198 -139q-177 -93 -367 -170q-311 -125 -452 -125zM59 860q12 0 156 113q84 63 84 69h-4q-85 -56 -154 -110q-82 -67 -82 -72zM274 1651q9 47 58 75
q50 29 104 29q25 0 49 -6q49 -14 224 -14q319 0 352 -11q19 -16 14 -38q-3 -21 -26 -44q-28 -22 -58 -22q-22 0 -63 8l-97 12q-68 7 -118 7q-150 0 -264 -27q-83 -25 -117 -25q-27 0 -45 15q-19 16 -13 41z" />
    <glyph glyph-name="Abreve" unicode="&#x102;" horiz-adv-x="2230" 
d="M1610 -385q-29 0 -41 57q-47 124 26 475q57 280 291 988q-10 4 -26 16q-20 8 -109 25q-82 18 -163.5 32t-164 25.5t-106.5 15.5l-12 2l-25 -6q-30 -17 -76 -71q-270 -312 -452 -572q-142 -201 -162 -283q-3 -13 10 -32q16 -32 10 -60q-6 -29 -22 -39q-15 -12 -33 -12
q-61 0 -49 113q24 106 149 278q109 153 373 463q164 188 170 217v2h-88q-771 -41 -1141 -274l-41 -27q6 -27 21 -57q9 -18 6 -37q-9 -37 -53 -51q-71 24 -62 96q8 42 25 76q71 130 430 229q381 108 813 117l84 2q18 0 59 -8q8 0 31 20q22 19 70 70q46 49 129 141
q396 445 577 666q172 207 191 272q8 19 45 56q28 32 71 63q42 28 64 31v-2q33 0 27 -64q-10 -40 -11 -41q-61 -121 -190 -477q-48 -130 -307 -858q196 -75 293 -160q93 -81 81 -192q-8 -50 -28 -88q-14 -33 -47 -33q-63 0 -54 129q6 96 -79 166q-84 68 -183 102
q-91 -276 -159 -510q-38 -147 -70 -303q-95 -447 -29 -543q24 -38 19 -65l-4 -6q-5 -24 -29 -51q-25 -22 -45 -25zM1327 1313q170 -12 586 -103l12 29q60 136 279 784q66 198 82 279q6 22 4 22q-26 -11 -191 -182q-158 -161 -385 -405q-175 -185 -387 -424zM2386 2888
q-26 35 -10 105.5t67 133.5q18 22 53 41t62 19q38 0 47 -17q7 -9 -1 -29t-28 -32q-59 -38 -87.5 -84.5t-20.5 -136.5q0 -10 19.5 -19.5t35.5 -9.5q20 0 49 16q20 11 56 39q1 1 19.5 18t36 35t39 41t37 46.5t21.5 42.5q6 18 27 36q28 19 39 19q24 0 35 -14q11 -18 6 -31
q-17 -50 -84 -119.5t-117 -105.5q-107 -78 -180 -78q-71 0 -121 84z" />
    <glyph glyph-name="abreve" unicode="&#x103;" horiz-adv-x="1529" 
d="M666 514q-178 0 -228 117q-33 73 -30 262q6 118 -5 135q-26 0 -346 -235q-94 -70 -133 -70q-28 0 -22 51q9 44 88 129q89 96 178 170q100 83 174 121q57 23 107 23q88 0 149 -46q63 -45 51 -100q-6 -39 -51 -65q-54 -32 -106 -29l-58 4q-16 -188 4 -276q18 -69 72 -111
q39 -31 108 -31t127 10q49 9 142 50q170 77 346 172q213 116 285 168q89 63 141 63q41 0 35 -47q-1 -7 -11 -31q-37 -54 -198 -139q-177 -93 -367 -170q-311 -125 -452 -125zM59 860q12 0 156 113q84 63 84 69h-4q-85 -56 -154 -110q-82 -67 -82 -72zM479 1567
q-26 35 -9.5 105.5t67.5 133.5q18 23 52.5 41.5t61.5 18.5q36 0 47 -17q7 -9 -0.5 -29t-27.5 -32q-29 -19 -46.5 -34t-35.5 -41t-24.5 -62t-2.5 -84q0 -10 19.5 -19.5t35.5 -9.5q21 0 50 16q17 9 55 39q1 1 19.5 18t36 35t39 41t37 46.5t21.5 42.5q6 18 27 36q28 19 39 19
q24 0 35 -14q11 -18 6 -31q-17 -50 -84 -119.5t-117 -105.5q-107 -78 -180 -78q-71 0 -121 84z" />
    <glyph glyph-name="Aogonek" unicode="&#x104;" horiz-adv-x="2230" 
d="M1610 -385q-20 0 -35 35q-52 -36 -105 -92q-93 -103 -114 -209q-8 -35 -8 -66q0 -20 38 -35q29 -20 70 -20q24 0 90 27q52 24 92 24q55 0 52 -57q-8 -38 -74 -70q-63 -29 -125 -29q-101 0 -156 86q-44 91 -24 193q19 99 67 176q63 94 178 156q-20 130 39 413
q57 280 291 988q-10 4 -26 16q-20 8 -109 25q-82 18 -163.5 32t-164 25.5t-106.5 15.5l-12 2l-25 -6q-30 -17 -76 -71q-270 -312 -452 -572q-142 -201 -162 -283q-3 -13 10 -32q16 -32 10 -60q-6 -29 -22 -39q-15 -12 -33 -12q-61 0 -49 113q24 106 149 278q109 153 373 463
q164 188 170 217v2h-88q-771 -41 -1141 -274l-41 -27q6 -27 21 -57q9 -18 6 -37q-9 -37 -53 -51q-71 24 -62 96q8 42 25 76q71 130 430 229q381 108 813 117l84 2q18 0 59 -8q8 0 31 20q22 19 70 70q46 49 129 141q396 445 577 666q172 207 191 272q8 19 45 56q28 32 71 63
q42 28 64 31v-2q33 0 27 -64q-10 -40 -11 -41q-61 -121 -190 -477q-48 -130 -307 -858q196 -75 293 -160q93 -81 81 -192q-8 -50 -28 -88q-14 -33 -47 -33q-63 0 -54 129q6 96 -79 166q-84 68 -183 102q-91 -276 -159 -510q-38 -147 -70 -303q-89 -415 -37 -528q28 4 41 4
q80 0 75 -26q-5 -24 -65 -50q-13 -6 -26 -10l-2 -4q-5 -24 -29 -51q-25 -22 -45 -25zM1327 1313q170 -12 586 -103l12 29q60 136 279 784q66 198 82 279q6 22 4 22q-26 -11 -191 -182q-158 -161 -385 -405q-175 -185 -387 -424z" />
    <glyph glyph-name="aogonek" unicode="&#x105;" horiz-adv-x="1529" 
d="M666 514q-82 -16 -187 -127q-93 -103 -114 -209q-9 -39 -9 -65q0 -19 39 -35q30 -21 70 -21q24 0 90 27q54 25 94 25q52 0 49 -58q-8 -37 -73 -69q-63 -29 -125 -29q-98 0 -156 86q-45 92 -25 192q1 2 4 15.5t4.5 19t5 19t6.5 22t8.5 22.5t11 25.5t13.5 25.5t17 28
q44 69 135 133q-61 27 -86 90q-33 73 -30 262q6 118 -5 135q-26 0 -346 -235q-94 -70 -133 -70q-28 0 -22 51q9 44 88 129q89 96 178 170q100 83 174 121q57 23 107 23q88 0 149 -46q63 -45 51 -100q-6 -39 -51 -65q-54 -32 -106 -29l-58 4q-16 -188 4 -276q18 -69 72 -111
q29 -22 61 -27q80 41 144 41q72 0 76 -22q21 6 96 37q170 77 346 172q213 116 285 168q89 63 141 63q41 0 35 -47q-1 -7 -11 -31q-37 -54 -198 -139q-177 -93 -367 -170q-311 -125 -452 -125zM59 860q12 0 156 113q84 63 84 69h-4q-85 -56 -154 -110q-82 -67 -82 -72z" />
    <glyph glyph-name="Cacute" unicode="&#x106;" horiz-adv-x="2441" 
d="M512 -207q-165 0 -270 60q-181 98 -238 262q-58 159 -6 405q39 174 102 316q219 416 652 823q387 346 829 600q449 258 653 258q42 -3 66 -12q24 -8 47 -41q20 -29 8 -86q-22 -108 -86 -230q-54 -99 -213 -282q-180 -201 -411 -404q-244 -212 -449 -346
q-213 -143 -307 -143q-52 0 -74 19t-14 57q8 34 41 57q37 23 123 55q218 79 637 426q398 324 583 590q94 126 105 178q15 76 -90 76q-177 0 -562 -209q-379 -203 -751 -512q-489 -417 -750 -883q-29 -54 -47 -94q-27 -72 -31 -90q-3 -11 -34 -141q-37 -171 -31 -219
q0 -35 10 -66q61 -224 297 -330q50 -22 96 -28q66 -4 146 -4q178 0 358 63q172 58 426 207q288 171 576 381q330 238 510 401q121 109 165 109q16 0 25 -17q12 -15 6 -34q-9 -49 -182 -181q-285 -225 -639 -458q-346 -225 -594 -349q-398 -184 -682 -184zM2142 2693
q3 26 41 47q28 14 200.5 163t242.5 222q43 43 71 43q15 0 23 -8q11 -9 8 -22q-7 -25 -55 -52q-71 -46 -229.5 -181.5t-164.5 -158.5q0 -12 2 -18q6 -9 3 -25q-6 -26 -35 -45q-24 -16 -51 -20q-24 0 -41 14q-21 17 -15 41z" />
    <glyph glyph-name="cacute" unicode="&#x107;" horiz-adv-x="1349" 
d="M-37 305q-105 0 -143 60q-36 58 -17 153q38 175 242 440q64 87 152 162q98 88 163 88q57 0 91 -55t16 -131q-12 -59 -68 -86q-56 -29 -88 -29q-38 0 -63 25q-29 26 -23 49q2 8 3 13.5t0.5 8.5t-1.5 3q-6 0 -30 -21q-102 -83 -215 -231q-122 -166 -148 -265
q-14 -63 21.5 -95t119.5 -32q125 3 291 62q161 59 482 209q300 145 546 287q133 71 160 71q19 0 27 -14q12 -12 6 -31q-6 -36 -131 -100q-128 -69 -459 -217q-391 -173 -596 -246q-225 -78 -338 -78zM506 1665q7 28 41 47q28 14 200 163t242 222q43 43 72 43q13 0 24 -8
q10 -10 7 -23q-3 -21 -56 -51q-72 -47 -229.5 -182.5t-161.5 -157.5q-3 -10 2 -18q3 -9 0 -25q-7 -28 -35 -45q-25 -17 -51 -20q-21 0 -41 14q-20 17 -14 41z" />
    <glyph glyph-name="Ccircumflex" unicode="&#x108;" horiz-adv-x="2441" 
d="M512 -207q-165 0 -270 60q-181 98 -238 262q-58 159 -6 405q39 174 102 316q219 416 652 823q387 346 829 600q449 258 653 258q42 -3 66 -12q24 -8 47 -41q20 -29 8 -86q-22 -108 -86 -230q-54 -99 -213 -282q-180 -201 -411 -404q-244 -212 -449 -346
q-213 -143 -307 -143q-52 0 -74 19t-14 57q8 34 41 57q37 23 123 55q218 79 637 426q398 324 583 590q94 126 105 178q15 76 -90 76q-177 0 -562 -209q-379 -203 -751 -512q-489 -417 -750 -883q-29 -54 -47 -94q-27 -72 -31 -90q-3 -11 -34 -141q-37 -171 -31 -219
q0 -35 10 -66q61 -224 297 -330q50 -22 96 -28q66 -4 146 -4q178 0 358 63q172 58 426 207q288 171 576 381q330 238 510 401q121 109 165 109q16 0 25 -17q12 -15 6 -34q-9 -49 -182 -181q-285 -225 -639 -458q-346 -225 -594 -349q-398 -184 -682 -184zM1946 2644
q5 24 59 90q50 56 216 213.5t194 181.5q65 56 102 56q16 0 23 -7q10 -10 14 -37t-4 -85q-27 -148 -39 -225t-11 -98t7 -28q18 -18 12 -36q-6 -33 -51 -33q-31 0 -37 24q-4 28 70 369q11 53 13.5 75.5t-3.5 24.5q-7 0 -29 -16q-34 -29 -84 -74.5t-124.5 -116.5t-128 -136
t-60.5 -99q-9 -52 -57 -74q-24 -12 -41 -12q-15 0 -33 12q-14 14 -8 31z" />
    <glyph glyph-name="ccircumflex" unicode="&#x109;" horiz-adv-x="1349" 
d="M-37 305q-105 0 -143 60q-36 58 -17 153q38 175 242 440q64 87 152 162q98 88 163 88q57 0 91 -55t16 -131q-12 -59 -68 -86q-56 -29 -88 -29q-38 0 -63 25q-29 26 -23 49q2 8 3 13.5t0.5 8.5t-1.5 3q-6 0 -30 -21q-102 -83 -215 -231q-122 -166 -148 -265
q-14 -63 21.5 -95t119.5 -32q125 3 291 62q161 59 482 209q300 145 546 287q133 71 160 71q19 0 27 -14q12 -12 6 -31q-6 -36 -131 -100q-128 -69 -459 -217q-391 -173 -596 -246q-225 -78 -338 -78zM309 1616q5 22 60 90q50 56 216 214t193 181q65 56 103 56q15 0 22 -7
q27 -27 12 -122q-17 -89 -28 -153t-16 -100t-6 -57.5t0 -29t5 -11.5q18 -18 15 -37q-8 -32 -54 -32q-31 0 -34 24q-7 27 67 369q11 53 13.5 75.5t-3.5 24.5q-4 0 -26 -16q-29 -23 -84 -73t-126 -118.5t-126 -134.5t-63 -100q-9 -51 -56 -74q-27 -12 -41 -12q-18 0 -33 12
q-13 13 -10 31z" />
    <glyph glyph-name="Cdotaccent" unicode="&#x10a;" horiz-adv-x="2441" 
d="M512 -207q-165 0 -270 60q-181 98 -238 262q-58 159 -6 405q39 174 102 316q219 416 652 823q387 346 829 600q449 258 653 258q42 -3 66 -12q24 -8 47 -41q20 -29 8 -86q-22 -108 -86 -230q-54 -99 -213 -282q-180 -201 -411 -404q-244 -212 -449 -346
q-213 -143 -307 -143q-52 0 -74 19t-14 57q8 34 41 57q37 23 123 55q218 79 637 426q398 324 583 590q94 126 105 178q15 76 -90 76q-177 0 -562 -209q-379 -203 -751 -512q-489 -417 -750 -883q-29 -54 -47 -94q-27 -72 -31 -90q-3 -11 -34 -141q-37 -171 -31 -219
q0 -35 10 -66q61 -224 297 -330q50 -22 96 -28q66 -4 146 -4q178 0 358 63q172 58 426 207q288 171 576 381q330 238 510 401q121 109 165 109q16 0 25 -17q12 -15 6 -34q-9 -49 -182 -181q-285 -225 -639 -458q-346 -225 -594 -349q-398 -184 -682 -184zM2169 2814
q5 26 45 63q36 33 86 33q30 0 51 -18q19 -19 16 -45q-9 -39 -57 -68q-53 -29 -88 -29q-33 0 -45 21q-12 14 -8 43z" />
    <glyph glyph-name="cdotaccent" unicode="&#x10b;" horiz-adv-x="1349" 
d="M-37 305q-105 0 -143 60q-36 58 -17 153q38 175 242 440q64 87 152 162q98 88 163 88q57 0 91 -55t16 -131q-12 -59 -68 -86q-56 -29 -88 -29q-38 0 -63 25q-29 26 -23 49q2 8 3 13.5t0.5 8.5t-1.5 3q-6 0 -30 -21q-102 -83 -215 -231q-122 -166 -148 -265
q-14 -63 21.5 -95t119.5 -32q125 3 291 62q161 59 482 209q300 145 546 287q133 71 160 71q19 0 27 -14q12 -12 6 -31q-6 -36 -131 -100q-128 -69 -459 -217q-391 -173 -596 -246q-225 -78 -338 -78zM535 1786q6 29 43 63q39 33 88 33q27 0 51 -18q20 -23 14 -45
q-9 -39 -57 -68q-53 -29 -88 -29q-30 0 -45 21q-13 15 -6 43z" />
    <glyph glyph-name="Ccaron" unicode="&#x10c;" horiz-adv-x="2441" 
d="M512 -207q-165 0 -270 60q-181 98 -238 262q-58 159 -6 405q39 174 102 316q219 416 652 823q387 346 829 600q449 258 653 258q42 -3 66 -12q24 -8 47 -41q20 -29 8 -86q-22 -108 -86 -230q-54 -99 -213 -282q-180 -201 -411 -404q-244 -212 -449 -346
q-213 -143 -307 -143q-52 0 -74 19t-14 57q8 34 41 57q37 23 123 55q218 79 637 426q398 324 583 590q94 126 105 178q15 76 -90 76q-177 0 -562 -209q-379 -203 -751 -512q-489 -417 -750 -883q-29 -54 -47 -94q-27 -72 -31 -90q-3 -11 -34 -141q-37 -171 -31 -219
q0 -35 10 -66q61 -224 297 -330q50 -22 96 -28q66 -4 146 -4q178 0 358 63q172 58 426 207q288 171 576 381q330 238 510 401q121 109 165 109q16 0 25 -17q12 -15 6 -34q-9 -49 -182 -181q-285 -225 -639 -458q-346 -225 -594 -349q-398 -184 -682 -184zM2062 3215
q6 33 52 33q35 0 38 -24q2 -15 -55 -377q-2 -17 -5.5 -36t-5 -29t-2.5 -19.5t-1 -13t2 -3.5q9 0 29 17q49 40 227 265t184 259q12 53 58 74q24 12 40 12t31 -12q13 -11 10 -31q-6 -29 -59 -90q-5 -5 -109.5 -130.5t-199 -236.5t-113.5 -127q-67 -55 -102 -55q-14 0 -23 6
q-16 13 -10 123q1 16 10.5 107t15.5 168.5t1 82.5q-16 16 -13 37z" />
    <glyph glyph-name="ccaron" unicode="&#x10d;" horiz-adv-x="1349" 
d="M-37 305q-105 0 -143 60q-36 58 -17 153q38 175 242 440q64 87 152 162q98 88 163 88q57 0 91 -55t16 -131q-12 -59 -68 -86q-56 -29 -88 -29q-38 0 -63 25q-29 26 -23 49q2 8 3 13.5t0.5 8.5t-1.5 3q-6 0 -30 -21q-102 -83 -215 -231q-122 -166 -148 -265
q-14 -63 21.5 -95t119.5 -32q125 3 291 62q161 59 482 209q300 145 546 287q133 71 160 71q19 0 27 -14q12 -12 6 -31q-6 -36 -131 -100q-128 -69 -459 -217q-391 -173 -596 -246q-225 -78 -338 -78zM426 2187q9 33 53 33q34 0 37 -25q3 -23 -55 -376q-14 -99 -10 -101
q6 0 26 17q50 39 228.5 264t185.5 260q9 53 55 74q24 12 43 12q14 0 29 -12q14 -9 10 -31q-6 -29 -59 -90q-7 -8 -110 -131.5t-197.5 -235t-112.5 -127.5q-67 -55 -105 -55q-14 0 -20 6q-18 15 -12 123q1 16 10 107.5t15 168.5t1 82q-15 18 -12 37z" />
    </font>
</defs>
</svg>
