<?xml version="1.0" standalone="no"?>
<!DOCTYPE svg PUBLIC "-//W3C//DTD SVG 1.1//EN" "http://www.w3.org/Graphics/SVG/1.1/DTD/svg11.dtd" >
<svg xmlns="http://www.w3.org/2000/svg" xmlns:xlink="http://www.w3.org/1999/xlink" version="1.1">
<metadata>
Created by FontForge 20170731 at Thu Jun 16 07:36:32 2022
 By Aleksey,,,
2021 (C) Copyright by Mans Greback AB 
</metadata>
<defs>
<font id="MonitaSignaturePERSONALUSE-Bold" horiz-adv-x="0" >
  <font-face 
    font-family="Monita Signature PERSONAL USE Bd"
    font-weight="700"
    font-stretch="normal"
    units-per-em="2048"
    panose-1="0 0 0 0 0 0 0 0 0 0"
    ascent="1638"
    descent="-410"
    x-height="1243"
    cap-height="2687"
    bbox="-1994.61 -1080.91 20527 4188"
    underline-thickness="102"
    underline-position="-358"
    unicode-range="U+0020-FB02"
  />
<missing-glyph horiz-adv-x="2097" 
 />
    <glyph glyph-name="mn.sg" unicode="&#x30;&#x30;&#x30;&#x30;&#x30;&#x30;&#x30;&#x30;&#x30;&#x30;" horiz-adv-x="4591" 
d="M2466 2157q-65 0 -107.5 33t-46.5 94q-6 39 -6 116q0 21 -2.5 82.5t-1 105.5t9.5 81q21 96 148 100q128 0 159 -88q9 -28 12.5 -65.5t3.5 -65t-1.5 -69.5t-1.5 -58q0 -103 -6 -146q-13 -64 -51.5 -92t-108.5 -28zM162 174l8 692h113l84 -434l77 434h119l2 -692h-96
l-12 287l-47 -287h-82l-58 281l-6 -281h-102zM655 174v692h88l119 -331v331h109v-692h-86l-121 338v-338h-109zM719 -446q0 49 23.5 77t68.5 21q20 -1 34 -9t21 -17.5t10.5 -26t4 -26.5t0.5 -28h-37q0 38 -4 58q-10 19 -34 20.5t-36 -12.5q-8 -13 -9.5 -33t1 -45t2.5 -29
t-2.5 -33t0 -48.5t12.5 -30.5q9 -19 32.5 -16.5t33.5 26.5q4 14 4 49h37q0 -22 -2 -37t-9 -34t-24 -29t-43 -10q-23 0 -39 7.5t-25 22t-14.5 30t-6.5 38t-1 39.5t1 41t1 35zM913 -496q0 31 1 47.5t6 40.5t14.5 35.5t28.5 19.5t47 5q12 -1 22 -4t17.5 -7t13 -12.5t9.5 -14
t6.5 -17.5t4 -17.5t2 -20t0.5 -19v-19.5v-17v-25t-0.5 -24t-2 -25.5l-4.5 -22.5t-7 -22t-10.5 -17.5t-15 -15t-20.5 -8t-26 -3.5q-18 0 -32 4.5t-23 10.5t-15.5 19t-9.5 21t-4.5 26.5t-2 26t0 29t0.5 26.5zM922 2163v604h133q108 0 141 -70q31 -52 25.5 -120.5t-52.5 -110.5
q-14 -12 -37.5 -17.5t-39 -6.5t-51.5 0t-42 1v-280h-77zM924 1702v379h86v-408q0 -5 -0.5 -24.5t0 -28t2.5 -25t6.5 -25.5t14 -20t22.5 -18q41 -14 68 6t36.5 52.5t9.5 72.5v418h84v-279q0 -14 1 -48.5t1 -56.5t-2 -55t-8.5 -55.5t-17.5 -46.5t-30.5 -39.5t-45.5 -23.5
q-56 -21 -119 1t-88 81q-20 35 -20 143zM954 -473q0 -3 -1 -25t0 -36.5t3 -34.5t9 -33.5t18 -20.5q11 -5 20 -6.5t14.5 2t9.5 8.5t6 13.5t3 17t0.5 19t-1 19.5t-1 18.5t-0.5 15.5t4 44t1 61t-19 30q-27 9 -46.5 -8t-19.5 -47v-37zM999 2499q6 0 20.5 -0.5t23 -0.5t21.5 1.5
t23 5.5q34 14 44 34t10 54q0 28 -2 44t-14.5 34.5t-37.5 25.5q-13 4 -27.5 5t-34.5 0t-26 -1v-202zM1026 -276v309h125v-33h-70v-104h56v-29h-56v-143h-55zM1049 174v125h118v-125h-118zM1130 -655v307h44l55 -246l49 246h47v-307h-25v219l-55 -219h-37l-43 219v-219h-35z
M1174 -111q0 29 0.5 44.5t5.5 40.5t14.5 37.5t28.5 22.5t47 9q13 -2 23 -6t17 -12t12.5 -15.5t8.5 -20t5 -21t2.5 -24t0.5 -23v-23.5v-21q0 -26 -0.5 -38t-2.5 -35t-7 -34.5t-13 -25t-22.5 -19.5t-33.5 -6q-25 0 -42 11.5t-25.5 26t-13 41t-5 41.5t-0.5 42v8zM1210 416
l109 6q0 -84 27 -123q16 -32 43 -23q28 8 28 58q0 25 -13 52t-25 42.5t-38 43t-32 34.5q-8 11 -33 35t-29 39q-47 67 -28 159q2 75 72 115t143 6q90 -44 90 -221l-107 -6q-2 11 -4 38t-4 44.5t-11.5 33.5t-25.5 19q-24 1 -38 -16.5t-13.5 -38t4.5 -35.5q5 -14 14 -27
t13.5 -18t21 -19.5t17.5 -15.5l55 -63q95 -98 80 -230q-2 -48 -33.5 -87t-87.5 -52q-51 -8 -98 14t-68 68q-29 74 -29 168zM1221 -104q0 -5 -2.5 -31t-3 -45.5t6.5 -39t23 -24.5q20 -5 33 4.5t17.5 31t6 36t1.5 35.5q0 5 1 24t1 33t-2 31.5t-8.5 29.5t-16.5 17
q-23 16 -40 -3.5t-17 -47.5v-51zM1278 2163v604h231v-66h-151v-202h125v-56h-125v-221h153v-59h-233zM1315 1640l86 23q0 -28 0.5 -41t6.5 -32.5t19 -30.5q14 -30 43.5 -32t51.5 27q27 22 25.5 54t-21.5 59q-1 1 -5 7.5t-5 8l-5 7.5t-6 8t-6.5 7t-7 7.5t-7.5 6.5t-9 6
t-9.5 4.5t-11.5 3.5q-8 9 -53.5 50t-61.5 66q-18 42 -20 88t23 87.5t71 56.5q89 5 148 -23q49 -41 49 -131l-66 -26q-2 38 -18 71.5t-49 36.5q-26 11 -47 -1t-29 -38q-4 -14 -4.5 -26.5t2 -23t9 -22t12.5 -19t16.5 -18t18 -17t20 -16.5t18.5 -16q10 -9 32.5 -27.5t33 -28.5
t25 -27t21.5 -35.5t9 -40.5q18 -70 -22.5 -125t-114.5 -55q-70 0 -112 47t-50 120zM1378 -655v307h49l50 -246l57 246h41l2 -307h-29l-4 219l-51 -219h-39l-37 219l-4 -219h-35zM1391 -276v309q9 0 27 1.5t28.5 1.5t26 -3.5t28.5 -12.5q37 -18 39.5 -73.5t-39.5 -69.5
l47 -153h-47l-47 143h-27v-143h-36zM1421 1014v319h16.5h22.5t22.5 -1t25 -3.5t21 -6.5t19.5 -10.5t13 -15.5q12 -25 9 -62.5t-22 -53.5q-6 -4 -11.5 -7t-12.5 -5t-11.5 -3t-14 -1.5t-13.5 -0.5h-15.5h-15.5v-149h-33zM1427 -104q74 0 74 55q0 22 -12 33.5t-25.5 13.5
t-36.5 2v-104zM1454 1192q39 0 51 4q21 10 21 57q0 36 -15.5 45t-56.5 9v-115zM1577 2163v604q6 0 46.5 0.5t55 0t46 -2.5t53.5 -7.5t41 -13.5q40 -26 57 -87.5t2 -120t-59 -74.5l65 -299h-65l-88 280h-66v-280h-88zM1581 520q0 21 -1.5 65t-1 76t4.5 60q19 108 100 145
q99 23 154 -16q36 -20 54 -61.5t20 -71t2 -81.5v-15h-111q0 88 -6.5 111.5t-30.5 35.5q-36 4 -49.5 -22t-13.5 -72v-252q0 -5 -1.5 -27t-0.5 -37t3.5 -34.5t12 -31.5t25.5 -16q26 -10 42.5 2.5t20.5 38t6.5 53.5t-0.5 48v14h-69v103h178v-361h-90l-4 23q-33 -30 -84.5 -32.5
t-85.5 21.5q-59 30 -72 142q-4 30 -4.5 61t1 71t1.5 60zM1608 1014v319h28v-284h84v-35h-112zM1626 -655v307h125v-31h-82v-94h66v-33h-66v-125h82v-24h-125zM1647 0v33h161v-33h-57v-276h-49v276h-55zM1665 2499q55 0 88 6q26 18 36.5 46t0.5 58q0 71 -37 82
q-12 6 -25.5 8.5t-22 2.5t-22.5 -0.5t-18 -0.5v-202zM1688 1477v604h237v-72h-158v-197h121v-59h-121v-233h158v-43h-237zM1753 1014v319h113v-26h-80v-111h69v-33h-69v-114h80v-35h-113zM1780 -655v307q15 0 40.5 2t41.5 1t30 -7q39 -22 38.5 -77t-42.5 -67l49 -159h-45
l-32 149h-31v-149h-49zM1829 -473q16 0 23.5 0.5t17.5 4t14 11.5t4 21q0 20 -4 32t-13.5 17t-18 6.5t-23.5 1.5v-94zM1829 -276v309h37v-137h84v137h45v-309h-45v143h-84v-143h-37zM1884 1014l72 319h45l59 -319h-41l-18 80h-64l-10 -80h-43zM1944 86l184 868h108l-196 -868
h-96zM1944 1126h57l-29 142zM1944 2329l84 20q0 -73 20 -102q26 -23 54.5 -24.5t49.5 22.5q24 10 23 46.5t-23 61.5q-1 1 -23 29.5t-42 44.5q-72 46 -115 104q-24 39 -25.5 88.5t23.5 89t72 46.5q29 14 72.5 11t70.5 -22q9 -8 16 -18t11.5 -17.5t10.5 -23t7.5 -21.5t8 -27.5
t8.5 -27.5l-72 -16q-4 28 -9 46.5t-20 39.5t-39 28q-32 0 -54 -12.5t-25 -36.5q0 -14 -2.5 -23t3 -21.5t7.5 -20t11.5 -18.5t14 -17t15.5 -16.5t16.5 -15t16.5 -14t16 -13.5q4 -4 34.5 -32t40 -38.5t26 -35.5t24.5 -50q17 -72 -27 -129t-117 -57q-76 0 -118.5 49.5
t-44.5 122.5zM1972 -446q0 49 23.5 77t70.5 21q31 -2 47.5 -21.5t19.5 -38.5t3 -47h-47q0 4 2 16t1.5 22.5t-5.5 19.5q-4 19 -26.5 20.5t-32.5 -12.5q-9 -10 -13.5 -26.5t-5 -28.5t0.5 -30.5t1 -21.5q0 -4 -1 -25t-0.5 -33.5t5 -28.5t13.5 -25q7 -12 20 -16t24.5 3t14.5 23
q5 6 5.5 14t-1.5 19t-2 16h47q0 -110 -88 -110q-24 0 -40.5 11t-24.5 26.5t-11 41t-3 44.5t1.5 48.5t1.5 41.5zM2034 -276v309h118v-33h-71v-104h61v-29h-61v-115h71v-28h-118zM2081 1100l45 20q0 -22 0.5 -31t5.5 -21.5t16 -18.5q50 0 50 36q0 12 -4.5 23t-15 23t-16.5 18
t-20.5 18t-15.5 13q-21 22 -33 45.5t-10 47.5t24 40q17 14 42.5 17t37.5 -3q41 -24 41 -76l-30 -10q-17 65 -47 63q-17 -2 -25 -24q-7 -27 7 -50.5t36 -33.5q4 -6 31.5 -30.5t27.5 -45.5q18 -40 -1.5 -73t-57.5 -33q-37 0 -60 26t-28 60zM2148 1722q0 16 -0.5 60.5t-0.5 69
t3 62t9 66.5q33 101 137 101q132 0 164 -82q16 -37 18 -81.5t-3 -104t-5 -80.5q0 -16 2.5 -47t1.5 -53t-8 -42q-8 -118 -154 -118q-137 0 -160 120q-4 43 -4 129zM2181 -655v307h37v-307h-37zM2228 1663q0 -23 1 -36t4.5 -33t13.5 -33t26 -19q32 -37 76 0q39 19 39 78
q4 7 4 17.5t-2 23.5t-2 18v217q0 6 1 25.5t0.5 29.5t-4.5 24.5t-13 23.5q-60 26 -78 10q-24 0 -36 -9.5t-30 -39.5q-4 -26 -4 -59t2 -74.5t2 -63.5v-100zM2249 170l14 692h109l79 -436l80 436h123l4 -692h-104l-4 289l-58 -289h-77l-58 283v-283h-108zM2253 -655l59 307h51
l66 -307h-41l-6 77h-70l-18 -77h-41zM2273 1014v319h115v-26h-76v-111h70v-33h-70v-114h84v-35h-123zM2286 -276v309h114v-33h-88v-104h70v-29h-70v-143h-26zM2312 -557h60l-27 145zM2388 2345q0 -94 49 -121q39 -10 72 0q15 11 25.5 26t14.5 27t9 33v270q0 78 -31 101
q-26 31 -67 20q-53 -6 -64 -59q-5 -17 -7 -43t-2 -46t0.5 -54t0.5 -48v-106zM2429 -203v70v166h37v-137q0 -2 -1 -28t0 -40t4 -35t12.5 -31t23.5 -10q10 0 17.5 3.5t13 11t9.5 14.5t6.5 19.5l4 20t2 22t0.5 20v19v14.5v137h33v-142v-16v-18.5t-0.5 -18t-1.5 -20t-3 -19
t-5 -19.5t-8 -16.5t-10.5 -16t-13.5 -13t-18 -10.5q-43 -10 -69.5 10t-32.5 63zM2460 -655v307h43v-283h77v-24h-120zM2503 1333h39l49 -233l41 233h45l-70 -319h-39zM2564 1477v604h55l170 -408v408h78v-604h-61l-180 407v-407h-62zM2632 -276v309h53v-281h57v-28h-110z
M2685 -348h33l55 -230l43 230h35l-66 -307h-43zM2707 1014v319h35v-319h-35zM2718 418v192q0 70 4 105q3 48 29 88.5t71 58.5q94 20 152 -16q13 -8 23 -17t17.5 -23t12.5 -23t8.5 -28t5.5 -26.5t3 -30.5t1 -27v-29v-26v-198v-24v-26t-0.5 -24.5t-2 -26.5t-4 -24.5t-6 -25.5
t-9 -22.5t-12.5 -21.5t-16.5 -17t-20.5 -16q-60 -43 -152 -16q-45 16 -71 55t-29 86q-4 37 -4 103zM2718 2163v604h61l164 -406v406h74v-604h-58l-170 405v-405h-71zM2785 -276v309h37v-281h82v-28h-119zM2798 1100l32 20q0 -52 37 -71q14 0 25.5 9.5t11.5 26.5
q1 28 -20.5 53t-53.5 42q-66 93 -14 133q41 28 84 14q36 -24 43 -76l-39 -10q-11 65 -39 63q-17 -3 -26 -24q-6 -12 -6.5 -21.5t5.5 -19t11 -14.5t17 -15t16 -14q6 -8 22 -21t26.5 -26t12.5 -29q9 -42 -11.5 -74t-60.5 -32q-65 0 -73 86zM2832 432q0 -101 11 -135
q5 -12 20 -20t33 -5q3 2 10.5 5.5t10 5.5t7 6.5t6 10.5t1.5 15q4 15 4.5 31.5t-1 39t-1.5 32.5v198q0 10 1.5 32.5t1 39t-4.5 31.5q0 27 -35 43q-17 0 -32 -7.5t-21 -15.5q-11 -37 -11 -141v-166zM2884 -655v307h125v-31h-76v-94h61v-33h-61v-125h76v-24h-125zM2955 1477
v604h76v-561h150v-43h-226zM2982 1014v319h43v-319h-43zM3009 -276l59 309h51l62 -309h-43l-13 77h-65l-17 -77h-34zM3043 -655v307q10 0 36 2t45 1t34 -7q24 -14 32.5 -47t-2 -63.5t-36.5 -39.5l51 -153h-47l-37 149h-33v-149h-43zM3054 1307v26h149v-26h-55v-293h-33v293
h-61zM3068 -166h55l-31 137zM3076 2163l131 604h80l123 -604h-76l-33 147h-120l-29 -147h-76zM3086 -473q25 0 36 1.5t20.5 9.5t9.5 26q0 20 -4.5 32t-14.5 17t-19.5 6.5t-27.5 1.5v-94zM3105 170v692h84l121 -332v332h108v-692h-88l-117 338v-338h-108zM3195 2365h100
l-45 277zM3213 -276v309h27l90 -199v199h37v-309h-33l-80 210v-210h-41zM3213 2081h74l90 -297l94 297h78q-6 -18 -34 -113.5t-44 -144.5l-43 -121q-6 -10 -9 -21.5t-3 -18.5t1 -19.5t1 -18.5v-147h-80v116q0 10 0.5 31t0.5 38t-1 30q-4 18 -10.5 36t-16.5 40.5t-16 37.5z
M3234 -567l33 2q0 -11 8 -30t20 -28q24 -7 36.5 4t12.5 31q0 21 -24.5 46.5t-52.5 45.5q-27 27 -34 68t23 59q45 39 84 17q22 -11 29.5 -27.5t7.5 -44.5l-33 -16q-1 5 -2 14.5t-2 15.5t-3 13t-5 11.5t-8 6.5q-31 10 -47 -18q-5 -9 -5.5 -18t2 -15t8 -13t10.5 -11t13 -10
t11 -9q2 -2 13 -11.5t14.5 -13t12 -13.5t12 -16.5t6.5 -17t3 -20.5q14 -34 -4.5 -64t-60.5 -30q-78 0 -78 92zM3410 -276v309q6 0 30.5 1t38 0.5t34 -6.5t36.5 -18q11 -11 16.5 -29t6 -30t-0.5 -39.5t-1 -34.5q0 -5 1 -27t0 -32.5t-3.5 -27t-9.5 -26.5t-19 -16
q-13 -12 -32.5 -17.5t-29.5 -7t-38 -0.5t-29 1zM3418 -655v307h37v-307h-37zM3455 -248q21 0 31.5 1.5t22 12t16.5 31.5v160q0 13 -3.5 21t-8 12.5t-15.5 6.5t-18.5 2.5t-24.5 0.5v-248zM3478 2163v604h81v-545h154v-59h-235zM3502 -496q0 31 0.5 47t5.5 40.5t14.5 36
t28 19.5t45.5 5q16 -1 28.5 -6t21 -10.5t14 -18t8.5 -19.5t4.5 -24.5t1.5 -23.5v-25v-21v-12q0 -29 -0.5 -44t-5 -39t-13 -36t-26 -22t-43.5 -10q-21 0 -36.5 6t-24.5 22t-14 26t-7 37t-2 34.5v37.5zM3502 170v692h121v-692h-121zM3557 -473q0 -2 -3.5 -44t0 -69t18.5 -37
q13 -6 23 -6.5t17 3t12.5 10t8.5 15t5 18.5t2.5 21t0.5 20.5v18.5v3.5v3.5q0 3 0.5 25.5t0 34.5t-2 30t-7 29t-13.5 16q-62 16 -62 -55v-37zM3586 1477v84h88v-84h-88zM3586 2081h88l-27 -477h-28zM3697 743v119h313v-119h-96v-573h-119v573h-98zM3723 -655v307h33l82 -209
v209h37v-307h-37l-82 209v-209h-33zM4006 170l127 692h108l119 -692h-114l-23 164h-76l-22 -164h-119zM4166 432h36l-18 141z" />
    <glyph glyph-name="uniE216" unicode="ll" horiz-adv-x="2136" 
d="M184 1186q154 116 422 448l209 277l31 -29q-158 -133 -291 -283q-144 -164 -274 -335zM-266 279q0 83 28 192q194 652 926 1401q196 199 242 199q34 0 52.5 -18.5t18.5 -51.5q0 -92 -159 -326q-114 -164 -162 -229q-37 -50 -101.5 -137.5t-89.5 -122.5
q-90 -121 -131 -168q-33 -38 -57 -47q-26 -13 -70 -13q-49 0 -75 15q-28 21 -47 43q-307 -506 -310 -772q0 -60 24 -86.5t79 -26.5q229 0 956 682q79 74 254 252q103 108 242 287q124 174 227 301q97 118 153 172.5t85 54.5q28 0 41 -20q12 -21 12 -43q0 -49 -72 -156
q-85 -128 -229 -320q-136 -181 -260 -360q-85 -135 -123 -160q-25 -18 -60 -22q-22 -3 -75 -123q-80 -166 -99 -244q-22 -79 -32 -172q0 -20 20 -43q22 -22 45 -22q126 0 574 364q251 212 426 354q104 78 135 78q69 0 69 -59q0 -23 -14 -51q-11 -20 -41 -37q-6 -3 -258 -185
q-464 -343 -621 -442q-173 -113 -251 -113q-73 0 -111 62q-35 56 -35 141q0 160 115 414q33 70 33 94q0 3 3 -3q3 -4 7 -13l-430 -346q-503 -418 -680 -418q-74 0 -125 63q-49 55 -49 181z" />
    <glyph glyph-name="uniE217" unicode="ss" horiz-adv-x="1671" 
d="M-385 -199q41 3 111 23q222 78 415 252q190 172 205 299q-3 48 -18 92q-12 30 -27 41q-42 -9 -166 -86q-285 -183 -457 -379q-120 -132 -135 -215q2 -14 13.5 -20t40.5 -9zM-512 -186q0 79 45 161q58 95 225 252q163 153 338 279l131 94q-40 32 -57 51q-195 177 -195 242
q0 133 72 240q65 96 143 114q84 0 125 -20q54 -25 54 -97q0 -57 -119 -102q-162 -70 -174 -145q3 -26 35 -58q20 -24 190 -178q397 291 557 346q24 59 49 92q45 76 88 97q45 18 82 18q67 0 119 -37q49 -27 49 -73q0 -88 -133 -107q-162 -25 -162 -92q0 -17 39 -51
q41 -38 150 -101q363 248 489 248q35 0 55.5 -20t20.5 -54q0 -21 -8 -41q-12 -19 -146 -47q-80 -17 -225 -88q-62 -30 -121 -69l4 -6q47 -56 47 -125q0 -102 -55 -187q-41 -62 -137 -149q-108 -90 -193 -142q-184 -102 -292 -102q-109 0 -109 90q0 152 326 440
q137 116 262 201q-144 88 -187 139q-57 -20 -137 -63q-285 -140 -368 -207l2 4q7 -22 14 -37q19 -46 22 -131q-6 -100 -51 -188q-71 -125 -246 -262q-275 -212 -509 -230q-47 3 -76 29t-33 72zM530 55q0 -8 7 -10t34 -2q102 0 285 107q113 62 186 126q150 144 150 238
q0 48 -35 94q-15 15 -20 15q-15 0 -127 -74q-277 -190 -410 -363q-70 -91 -70 -131z" />
    <glyph glyph-name="uniE218" unicode="tt" horiz-adv-x="1824" 
d="M-207 -551q-17 0 -57 21q-38 18 -64 59q-29 42 -32 104q3 253 90 498q81 238 307 686q-42 8 -76 25q-47 17 -51 76q6 52 96 133q188 173 651 778q-27 -2 -229 -29q-290 -44 -465 -74q-376 -61 -436 -90q-21 -10 -37 -30q-11 -22 -39 -41q-22 -11 -96 -11q-66 0 -113 41
q-49 40 -49 78q0 42 55 78q46 28 160 31q78 3 698 80q591 72 637 84q309 410 369 480q52 59 62 52q37 -12 40 -61q0 -46 -155 -263q-37 -51 -89 -126q-58 -83 -61 -83q-1 -1 2 7l-5 5q-7 5 -1 5q25 0 123 10q130 16 342 35q93 145 105 172q49 99 84 125q41 33 94 33
q57 0 102 -33q39 -39 39 -78q0 -47 -96 -115q-47 -35 -101 -86q347 24 648 27q207 0 311 -28t104 -89q0 -23 -16 -45q-17 -26 -57 -26q-32 0 -84 14q-143 41 -451 41q-265 -3 -573 -21q-108 -124 -207 -249q-542 -696 -772 -1274q-101 -260 -101 -375q0 -52 13.5 -72
t44.5 -20q53 0 172 82q73 52 442 377q675 604 721 630q16 11 43 11q29 0 45 -20t18 -54q0 -32 -20 -55q-18 -24 -74 -56q-192 -139 -891 -712q-342 -293 -456 -293q-61 0 -92 57q-27 59 -27 127q0 166 111 442q115 291 313 619q98 153 295 455q131 201 239 372
q-390 -24 -446 -43q-13 -13 -88 -114q-382 -514 -524 -756q-123 -205 -246 -465q-138 -295 -185 -455q-61 -183 -61 -319q0 -80 12 -107q8 -18 25 -18l51 6q40 0 62 -19.5t24 -54.5q0 -27 -20 -47q-20 -24 -52 -35q-35 -14 -55 -14z" />
    <glyph glyph-name="fi" unicode="fi" horiz-adv-x="1818" 
d="M-295 -293q-62 0 -100 35q-21 29 -35 68q-24 60 -37 63q-43 16 -70 59q-32 43 -32 84t43 109q48 74 104 133q55 58 100 160q167 394 639 1102q88 129 125 176q41 55 68 82q27 24 55 24q34 0 64 -24q30 -30 30 -62q0 -45 -141 -368l-72 -172q-27 -73 -63 -95
q-33 -16 -78 -16q-38 0 -63 10q-37 11 -52 29q-4 6 -6 6q-17 0 -202 -324q-191 -330 -191 -364q0 -9 -12 9q-6 9 -4 9q9 0 51 37q279 222 588 393q323 179 442 179q10 0 14 -2q3 10 23 61q45 89 121 92l33 2q50 -3 86 -26q37 -24 47 -70q0 -96 -84 -127q-30 -13 -68 -80
q-47 -82 -74 -160q-31 -86 -34 -121q3 -15 14 -21.5t35 -6.5q83 3 178 45q45 24 344 199q244 160 307 172q65 -6 74 -60q0 -61 -78 -90q-38 -15 -350 -172q-341 -174 -447 -192l-41 -3q-50 -1 -80.5 38t-39.5 110q-7 58 -7 108q0 75 9 140l-25 2q-143 0 -405 -137
q-275 -145 -545 -363q-49 -39 -88 -74q-28 -25 -41 -51q-21 -38 -27 -63q-29 -98 -29 -162q3 -51 7 -51q16 -6 32 -9q158 -45 158 -149q0 -69 -72 -98q-47 -23 -98 -23zM-481 6l-1 -2h1q9 -6 12 -6q4 -2 12 -2q2 0 6 12q7 26 13 58q6 34 14 65q10 30 10 33q0 -7 17 -14
q9 0 2 -7q-1 -2 -6 -6q-8 -7 -13 -12q-29 -36 -49 -70q-18 -30 -18 -49zM1114 1511q6 58 49.5 92t120.5 42q116 -6 119 -91q-3 -44 -43 -84q-42 -45 -127 -51q-116 7 -119 92z" />
    <glyph glyph-name="fl" unicode="fl" horiz-adv-x="2000" 
d="M-295 -293q-62 0 -100 35q-21 29 -35 68q-24 60 -37 63q-43 16 -70 59q-32 43 -32 84t43 109q48 74 104 133q55 58 100 160q167 394 639 1102q88 129 125 176q41 55 68 82q27 24 55 24q34 0 64 -24q30 -30 30 -62q0 -45 -141 -368l-72 -172q-27 -73 -63 -95
q-33 -16 -78 -16q-38 0 -63 10q-37 11 -52 29q-4 6 -6 6q-17 0 -202 -324q-191 -330 -191 -364q0 -9 -12 9q-6 9 -4 9q9 0 51 37q279 222 588 393q323 179 442 179q38 0 80 -25l-10 6q245 410 671 842q196 199 242 199q34 0 53 -19t19 -51q0 -91 -160 -326
q-177 -255 -354 -489q-139 -195 -187 -215q-23 -13 -69 -13q-56 0 -74 15q-17 9 -49 45l-41 -72q-6 -26 -27 -47q-241 -423 -241 -655q0 -60 23.5 -86.5t78.5 -26.5q229 0 956 682q194 182 244 182q43 0 43 -57q0 -21 -35.5 -56t-124.5 -108l-397 -321
q-266 -213 -430 -315.5t-250 -102.5q-73 0 -125 61q-49 61 -49 183q0 79 29 192q55 192 172 414l-31 2q-143 0 -405 -137q-275 -145 -545 -363q-49 -39 -88 -74q-28 -25 -41 -51q-21 -38 -27 -63q-29 -98 -29 -162q3 -51 7 -51q16 -6 32 -9q158 -45 158 -149q0 -69 -72 -98
q-47 -23 -98 -23zM-481 6l-1 -2h1q9 -6 12 -6q4 -2 12 -2q2 0 6 12q7 26 13 58q6 34 14 65q10 30 10 33q0 -7 17 -14q9 0 2 -7q-1 -2 -6 -6q-8 -7 -13 -12q-29 -36 -49 -70q-18 -30 -18 -49zM1186 1260l-92 -74q125 104 239 233q140 156 183 215l208 277l31 -29
q-158 -133 -291 -283q-147 -163 -278 -339z" />
    <glyph glyph-name="M_o_n_i_t_a_space_S_i_g_n_a_t_u_r_e" unicode="Monita&#x20;Signature" horiz-adv-x="19884" 
d="M2214 -276q-98 0 -162 110q-63 104 -63 305q0 212 88 545q82 317 333 1018q112 317 140 409q42 130 59 224q14 69 17 149v13h-3q-40 0 -247 -207q-138 -144 -281 -342q-153 -215 -362 -551q-142 -230 -224 -328q-89 -108 -155 -108q-91 0 -144 169q-8 24 -12 64
q-5 23 -8 86q-2 39 -2 328q0 354 -2 409q-3 77 -10 105l-7 12q-14 -10 -49 -45q-60 -60 -116 -127q-110 -126 -123 -141q-157 -216 -308 -478q-149 -261 -229 -464q-35 -92 -74 -236q-34 -130 -34 -178q0 -21 6 -21q46 0 72.5 -20.5t27.5 -58.5q0 -54 -78 -103
q-63 -26 -112 -26q-53 0 -82 25.5t-29 74.5q0 50 18 139q80 371 324 830q232 433 563 821q143 158 232 158q137 0 137 -277q0 -64 -10 -217q-15 -190 -15 -371q0 -222 19 -284q12 -32 21.5 -44t21.5 -12q31 0 100 99q78 110 219 348q422 704 696 954q173 162 265 162
q53 0 80 -47q28 -45 28 -113q0 -74 -43 -213q-43 -140 -151 -438q-215 -587 -334 -1008q-101 -354 -101 -579q0 -77 13 -160q12 -96 39 -143q22 -45 67 -64q82 -29 82 -78q0 -34 -31 -55q-30 -20 -67 -20zM2437 690q0 116 94 336q58 127 58 152q6 67 53 94q44 26 90 26
q49 -7 78 -24q26 -15 41 -17q8 0 41 11q44 14 78 14q65 -4 100 -44t35 -108q-6 -103 -80 -249l-25 -37l-12 12q33 9 90 25q58 13 197 53q41 11 102 29.5t78 23.5q92 35 145 35h-8q117 207 152 311q21 67 63 109q47 41 96 41q37 0 76 -27q43 -24 43 -70q0 -64 -127 -219
q-175 -228 -307 -444q-133 -217 -133 -260q0 -5 -13 6q-4 4 -1 4q8 7 28 25q40 35 72 77q76 82 201 207q124 123 190 183q84 81 117 94q31 14 49 14q33 0 61 -41q29 -41 37 -98q12 -61 31 -141q30 -82 152 -82q97 0 229 59q135 60 229 145q26 26 54 50q14 70 43 143
q45 89 120 92l33 2q50 -3 86 -26q37 -24 47 -70q0 -96 -84 -127q-28 -13 -67 -80q-47 -82 -74 -160q-33 -90 -35 -121q3 -15 14 -21.5t35 -6.5q84 3 179 45q45 24 344 199q201 132 282 165q16 16 56 52q152 140 507 589q111 143 148 189q-49 -4 -234 -31
q-806 -114 -901 -162q-22 -11 -37 -32q-25 -32 -43 -39q-26 -11 -92 -11q-64 0 -112 39q-49 46 -49 80q0 42 55 78q54 28 160 31q79 3 696 80q592 72 639 84q312 411 363 472q58 68 67 60q38 -12 41 -61q0 -46 -156 -265q-147 -206 -149 -207q-1 0 2 7l-5 5q-7 5 -1 5
q25 0 123 10q693 77 1216 80q167 0 231 -10q185 -32 185 -107q0 -18 -17 -45q-16 -26 -57 -26q-32 0 -84 14q-143 41 -450 41q-366 -6 -859 -37q-306 -21 -346 -35q-14 -14 -86 -114q-379 -509 -524 -756q-125 -208 -246 -467q-123 -255 -186 -453q-60 -189 -60 -319
q0 -78 13 -107q5 -11 9.5 -14.5t14.5 -3.5l52 6q40 0 62 -19.5t24 -54.5q0 -26 -19 -45q-17 -23 -53 -37q-32 -14 -55 -14q-13 0 -60 19q-32 20 -63 61q-28 45 -31 104q3 254 90 496q80 239 307 688q-40 8 -78 23q-4 4 -8 6q-122 -57 -329 -162q-341 -174 -447 -192l-41 -3
q-50 -1 -81 38t-40 110q-6 49 -6 108v25l21 13q-1 -1 -2 -1q-95 -55 -248 -106q-136 -45 -246 -45q-120 0 -178 61t-76 197q-2 14 -14 69q-4 18 -6 23q-1 1 -4.5 2t-4.5 2q-34 -6 -153 -113q-136 -127 -256 -280q-121 -158 -144 -230q-12 -38 -59 -94q-67 -55 -145 -55
q-38 0 -54 16q-18 15 -22 52q-6 35 -6 69q0 73 49 187q53 115 192 350l-16 -29q28 4 2 -2q-5 -1 -12 -2q-151 -31 -219 -43q-185 -32 -203 -35q-71 -10 -88 -16q-27 -6 -39 -15q-18 -12 -29 -30q-73 -88 -172 -150q-103 -61 -168 -61q-41 0 -88 47q-45 51 -45 139zM2570 653
q0 -9 3 -11.5t12 -4.5q46 0 110 43q31 23 84 65h6q-77 3 -176 39l-4 -14q-3 -9 -20 -61q-3 -11 -8.5 -29.5t-6.5 -26.5zM2648 860l16 -4q37 -12 199 -18l39 49q44 55 74 129q32 67 35 117q0 15 -5 18q-20 4 -45 4q-33 0 -92 -18q-46 -20 -73 -54q-56 -77 -64 -90
q-36 -51 -59 -92zM6334 772q0 52 66 143q67 93 143 172q86 86 154 125q63 25 111 25q97 0 170 -49q84 -52 84 -117q0 -51 -48 -82q-52 -36 -114 -33l-33 2q22 -167 59 -245q27 -61 88 -103q36 -26 103 -26q69 0 121 10t127 47q153 78 307 172q171 101 248 166q80 68 139 68
q30 0 46.5 -18t18.5 -50q0 -17 -4 -37q-24 -56 -178 -151q-150 -89 -334 -170q-292 -127 -434 -127q-191 0 -268 127q-54 84 -90 268q-10 74 -23 112q-51 -32 -272 -225q-87 -74 -131 -74q-47 0 -56 70zM6351 -481q0 112 250 112q137 0 186 -28q30 -15 109 -15q148 0 682 27
q1132 55 2121 76q521 12 1231 18q24 159 139 348q144 235 383 465q228 225 523 404q103 64 120 92q13 44 13 84q0 78 -27 84q-24 -5 -110 -47q-187 -90 -187 -129t-43 -68q-46 -27 -92 -27q-45 0 -176 -77q-141 -80 -205 -80q-44 0 -74 30q-4 6 -11 16t-9 13
q-25 -12 -63.5 -31t-99.5 -49.5l-105 -52.5q-341 -174 -447 -192l-41 -3q-50 -1 -81 38t-40 110q-6 49 -6 108q3 220 64 363q45 89 121 92l32 2q50 -3 86 -26q37 -24 47 -70q0 -96 -84 -127q-28 -13 -67 -80q-47 -82 -74 -160q-33 -90 -35 -121q3 -15 14 -21.5t35 -6.5
q84 3 179 45q45 24 344 199q193 128 278 161q22 28 66 72q90 90 166 139q71 41 145 41q56 0 100 -30q45 -23 64 -70q-6 6 -8 6q13 0 73 35q168 110 244 110q94 0 94 -159q-3 -47 -6 -72q-4 -28 -4 -43l-2 12q24 10 70 27q119 51 209 51q54 0 92 -24l-6 4q80 155 110 239
q20 65 64 109q47 41 96 41q37 0 76 -27q43 -24 43 -70q0 -64 -127 -219q-175 -228 -307 -444q-134 -219 -134 -260q0 -5 -13 6q-4 4 -1 4q9 7 29 25q37 32 71 77q76 82 201 207q115 115 191 183q84 81 116 94q31 14 50 14q33 0 61 -41q29 -41 37 -98q12 -61 31 -141
q30 -82 151 -82q97 0 229 59q137 61 230 145q34 35 59 52q49 61 105 120q87 87 153 125q63 25 111 25q97 0 170 -49q84 -52 84 -117q0 -52 -47 -82q-52 -36 -115 -33l-33 2q22 -164 60 -245q27 -61 88 -103q36 -26 102 -26q69 0 121 10t127 47q153 78 307 172
q171 101 248 166q41 32 63 43l41 31q85 60 218 198.5t358 390.5q56 64 102.5 119t89 106.5t62.5 74.5l63 71q-587 -4 -1035 -16t-694 -28t-370 -28.5t-186 -25.5q-205 -41 -289 -66q-41 -14 -47 -26q-8 -6 -6 -23q0 -35 -19 -57q-21 -21 -53 -31q-40 -15 -92 -12
q-62 3 -74 33q-13 13 -24 20l-5 16q-30 115 189 189q118 43 345 73.5t452 46t553 24t520 9.5t489 0.5t332 -0.5l98 3q191 222 260.5 297t81.5 67q40 -12 43 -61q0 -45 -174 -265l-28 -36q49 1 143.5 2t134.5 2q211 3 272 8q36 3 494.5 8.5t558.5 5.5q143 0 147 -55
q3 -42 -74 -92q-45 -29 -102 -49q-23 -10 -233.5 5t-478.5 35.5t-377 20.5q-22 0 -92 4t-121 4h-354q-43 -57 -228 -282q-432 -519 -596 -758q-120 -175 -276 -467q-131 -241 -213 -451q-66 -201 -66 -319q0 -81 15 -105q10 -20 30 -20l58 6q44 0 68 -19.5t26 -54.5
q0 -26 -21 -47q-19 -22 -59 -35q-35 -14 -59 -14q-15 0 -66 19q-34 16 -72 61q-31 42 -34 104q3 257 102 498q92 242 385 760q-10 -6 -28 -17.5t-25 -15.5q-46 -32 -101 -67q-153 -91 -333 -170q-292 -127 -435 -127q-191 0 -268 127q-54 84 -90 268q-11 79 -22 112
q-55 -34 -273 -225q-87 -74 -131 -74q-33 0 -47 35q-68 -32 -160 -61q-136 -45 -246 -45q-120 0 -178 61q-57 60 -75 197q0 4 -15 69q-4 18 -6 23l-8 4q-35 -6 -154 -113q-136 -127 -256 -280q-120 -156 -143 -230q-12 -36 -60 -94q-67 -55 -145 -55q-37 0 -53 16
q-19 16 -23 52q-6 35 -6 69q0 73 49 187q49 107 193 350l45 76q2 0 2 -2q-4 2 -27 2q-60 0 -139 -29q-84 -34 -166 -76q-113 -339 -135 -401q-52 -134 -127 -291q-124 -263 -276 -453q426 4 665 4q1659 0 1741 15q6 2 27 2q53 0 102 -27q55 -32 61 -76q0 -36 -39 -59
q-36 -18 -75 -18q-42 0 -92 24q-6 45 -1737 45l-733 -2q-12 -12 -15 -14q-206 -215 -377 -215q-85 0 -135 59q-55 61 -55 176v-10q-928 -6 -1532 -18q-1041 -23 -2023 -99q-369 -29 -422 -37q-76 -9 -98 -28q-49 -37 -140 -37q-75 0 -168 16q-89 16 -153 39q-37 27 -37 66z
M6521 903q8 7 38.5 35t53.5 49q12 11 31 31q24 26 29 21q3 -3 3 -17h23q-48 -36 -123 -104q-7 -7 -47 -54q-14 -17 -14 -5q0 10 6 44zM8348 1075q0 142 88 299q88 152 278 342q400 403 981 684q339 170 654 269q306 92 509 92q166 0 252 -64q86 -67 86 -176
q0 -230 -333 -598q-329 -363 -1004 -831q-126 -82 -227 -158q-54 -33 -113 -33q-128 0 -137 96q0 39 10 56q17 30 162 104q185 96 450 262q606 394 900 768q165 209 165 330q0 56 -46.5 82.5t-149.5 26.5q-234 0 -627 -127q-383 -125 -768 -340q-420 -244 -727 -539
q-306 -294 -340 -516q0 -40 29 -88q21 -46 63 -76q67 -45 211 -72q148 -28 449 -43q297 -21 377 -37q101 -15 186 -55q89 -44 104 -80q4 -12 7 -12t84 23q105 41 149 41q40 0 61 -21q23 -23 23 -47q0 -26 -14 -47q-13 -20 -59.5 -39.5t-143.5 -48.5q-21 -7 -42 -15
t-32.5 -13.5t-21.5 -9t-13.5 -2t-3.5 8.5q0 -19 -39 -61q-170 -198 -458 -334q-169 -82 -232 -82q-49 0 -49 51q0 96 330 324q212 143 352 209q15 7 28 14.5t13.5 7.5h3.5l-8 6q-36 45 -187 74q-173 33 -499 53q-237 16 -385 41q-346 59 -346 301zM9140 92l-45 -6
q67 9 125 31q220 87 369 205q71 58 102 88q-244 -113 -369 -189q-66 -38 -118.5 -76.5t-63.5 -52.5zM10576 1511q6 58 49.5 92t120.5 42q116 -6 119 -91q-3 -44 -43 -84q-42 -45 -127 -51q-116 7 -119 92zM10990 -379q0 -72 26 -105t84 -34q124 0 281 139l-391 -2v2z
M11000 -291l473 4q264 282 465 807q117 303 117 342v-18q15 0 14 -3q0 -2 -37 -22q-15 -8 -51.5 -30t-59.5 -35q-71 -41 -122 -74l-91 -59q-186 -131 -352 -312q-170 -190 -264 -364q-76 -140 -92 -236zM11325 874l-1 1q-7 15 -13 16q12 0 117 57q51 25 67 41q11 11 11 29
v12q-10 -6 -30 -21t-30 -22q-48 -37 -88 -74q-33 -33 -33 -39zM13844 883q23 15 121 104q11 10 30 30q25 27 30 22q4 -3 4 -17h22q-48 -36 -123 -104l-36 -37q-5 -13 -21 -29zM16007 860q2 41 15 141q25 142 43 179q23 33 61 47q33 16 80 16q55 0 84 -26q35 -27 35 -66
q0 -47 -45 -104q-43 -52 -66 -117q-25 -58 -29 -103v-16q1 -4 -1 -5q-5 -1 -13 10q-2 3 0 3q5 0 217 185q90 80 128 110.5t50 30.5q10 0 27 -10q12 -8 22 -25q11 -18 11 -45q-3 -34 -15 -88q-10 -45 -14 -82q0 -36 34 -53.5t113 -20.5q77 0 199 35q117 34 174 72
q55 37 96 43l48 88q76 141 86 205q8 46 38 92q53 47 111 47q47 0 94 -29q43 -37 43 -88q0 -31 -28 -67q-26 -36 -62 -52q-21 -16 -43 -43q-89 -107 -160 -239q-103 -176 -110 -219l-6 12q-20 0 4 26q8 9 31 32q42 42 67 69q129 147 223 235q99 93 131 93q63 0 103 -70
q10 -18 22 -48.5t22 -50.5t21 -28q40 -35 90 -48.5t91 -0.5q20 6 43 22q20 43 71 105q69 81 137 133q75 57 119 57q35 0 62 -20q26 -23 26 -64q0 -70 -129 -237q-60 -96 -151 -90l-56 4q-6 1 -10 -3t-10 -18q-16 -31 -16 -53q0 -24 21 -35t73 -12q53 0 129 18
q124 27 647 211q319 117 367 117q27 -1 42 -18.5t15 -45.5q0 -40 -12 -55q-16 -20 -54 -31q-73 -27 -485 -137q-406 -108 -463 -121q-120 -32 -196 -32q-84 0 -128.5 39t-44.5 114q0 20 3 41q-18 -2 -60 -2q-52 0 -95.5 15t-73.5 39.5t-54 60t-39 71.5t-27 80
q-213 -194 -340 -407q-34 -56 -34 -90q0 -9 4 -45q0 -63 -58 -105q-61 -39 -127 -39q-38 0 -55 17q-21 28 -37 75q-20 50 -20 89t96 233q-55 -15 -117 -27q-113 -22 -225 -22h-8q-120 0 -185 59t-65 156v20q0 3 14 -7q4 -3 2 -3q-15 0 -125 -113q-169 -161 -262 -161
q-38 0 -67 26q-64 52 -64 164zM19653 1067q0 39 36 78q33 39 95 39q34 0 67 -23q33 -26 33 -61q0 -48 -51 -84q-51 -33 -94 -33t-64 27q-22 22 -22 57z" />
    <glyph glyph-name=".notdef" horiz-adv-x="2097" 
 />
    <glyph glyph-name=".null" 
 />
    <glyph glyph-name="nonmarkingreturn" horiz-adv-x="1040" 
 />
    <glyph glyph-name="space" unicode=" " horiz-adv-x="716" 
 />
    <glyph glyph-name="space" unicode="&#xa0;" horiz-adv-x="716" 
 />
    <glyph glyph-name="exclam" unicode="!" horiz-adv-x="1187" 
d="M258 51q-33 0 -72 17q-39 22 -39 67q0 34 25 66q13 27 64 57q51 21 81 21q47 0 74 -27q31 -31 31 -76q0 -60 -55 -90q-50 -35 -109 -35zM150 539q0 59 18 141q27 166 121 407q78 197 311 672q127 256 191 391q60 129 86 197q18 61 18 88v8q0 125 143 140q57 0 91 -30
t40 -87q0 -48 -20 -78q-15 -22 -66 -47q-42 -25 -165 -227q-108 -174 -293 -533q-190 -371 -254 -575q-70 -211 -82 -422q0 -32 28 -54q41 -44 41 -81q0 -42 -34 -60q-27 -18 -56 -18q-37 0 -80 43q-38 47 -38 125z" />
    <glyph glyph-name="quotedbl" unicode="&#x22;" horiz-adv-x="600" 
d="M399 1851q-27 0 -51 21q-22 22 -22 47q0 24 39 72q30 30 30 41q0 12 -24 22q-44 24 -82 57q-35 35 -35 60q0 42 35 72q37 37 100 43q66 0 88 -70q21 -55 21 -193v-59q0 -44 -31 -80q-26 -33 -68 -33zM29 2140q0 43 37 80q45 33 92 33q70 0 112 -82q39 -80 39 -170
q0 -77 -26 -139q-7 -29 -25 -58q-23 -19 -61 -22q-41 0 -64.5 18.5t-23.5 52.5t18.5 54t50.5 20l33 -6l8 8q15 25 19 33q4 24 4 31q0 12 -4.5 18t-18.5 14q-31 19 -53 19q-40 0 -98 33q-39 23 -39 63z" />
    <glyph glyph-name="numbersign" unicode="#" horiz-adv-x="1513" 
d="M864 123q-42 0 -76 49q-30 50 -30 121q1 47 8 188q3 67 6 94q4 25 6 37h-10q-79 0 -268 -59q-2 -23 -2 -51q-2 -14 -2 -35q-2 -8 -2 -39q0 -36 6 -45q7 -19 20 -27q41 -38 41 -77q0 -34 -22 -52t-62 -18q-62 3 -86 47q-26 36 -26 143v101q-60 -31 -68 -39t-8 -33
q0 -43 -29 -63q-28 -21 -57 -21q-41 0 -65 25.5t-29 70.5q0 112 243 199q24 5 37 18q23 26 47 150l15 39l10 -10l-1 -1l-6 -3l-9 -4.5l-13 -6.5t-17 -9t-20.5 -11t-23.5 -13q-143 -73 -213 -73q-55 0 -82 30q-27 34 -27 66q0 38 39 80q17 19 37 33q18 10 63 10l48 -2
q99 0 190 31q31 13 70 24l43 133q57 174 57 211q0 55 49 101q50 47 100 47q44 0 86 -31q37 -34 37 -80q0 -53 -67 -108q-28 -25 -51 -25q-37 0 -91 -117q-43 -89 -54 -102q-7 -8 -15 -10l2 18q11 0 172 47q139 40 156 49q9 13 14 37q22 86 22 135q0 81 45 135q46 52 121 52
q48 0 76.5 -17t28.5 -51q0 -58 -90 -192q-43 -70 -43 -76q0 4 39 4q125 0 137 -86q0 -28 -21 -49q-23 -23 -55 -23q-19 0 -37 12q-25 17 -78 17h-55q-30 -68 -82 -205h-2q3 0 12 3.5t15 4.5q10 2 41 2q69 0 114 -45q47 -47 47 -90t-57 -80q-29 -18 -53 -18q-13 0 -131 28
q-28 7 -35 7q-23 0 -23 -168q0 -47 7 -105q3 -20 7 -25t15 -5q40 0 63 -21.5t23 -60.5q0 -41 -43 -84q-39 -33 -78 -33zM506 678l153 43q80 25 117 31q28 6 41 32q7 12 68 224q1 -1 4 -5.5t5 -9t1 -4.5q-21 0 -88 -18q-179 -52 -232 -88q-28 -16 -57 -125q-9 -35 -12 -80z
" />
    <glyph glyph-name="dollar" unicode="$" horiz-adv-x="960" 
d="M358 -254q-41 3 -67 47q-27 41 -27 225l2 164l-43 11q-128 18 -182 106q-25 48 -25 78q0 40 37 63q38 23 68 23q40 0 59 -19q17 -14 33 -51q11 -28 25 -39q6 -6 49 -12l86 559l-54 57q-75 75 -75 172q0 105 71 205q65 90 193 228q40 285 55 311q45 70 137 70q44 0 86 -27
q37 -21 37 -66q0 -24 -32 -75q-45 -77 -89 -201q65 -62 74 -74q27 -34 27 -76q0 -108 -144 -108l-16 2q-16 0 -16 -2q-10 -6 -17 -35q-20 -62 -41 -156q-37 -129 -41 -178q0 -16 9 -28q7 -14 30 -27q183 -136 183 -309q0 -92 -82 -197q-78 -100 -191 -149l-39 -17
q3 -194 21 -309q8 -39 8 -70q0 -33 -14 -47q-49 -49 -95 -49zM328 1102q0 -37 55 -86q6 -6 14 -10q0 1 1 3.5t1 4.5q56 285 64 344l6 -12q5 0 -27 -45l-41 -56q-73 -107 -73 -143zM449 365q0 -12 -1 -14.5t-6 -2.5q9 0 60 29q74 46 129 123q49 73 49 129q0 43 -39 94
q-45 51 -98 84l-35 20q-59 -328 -59 -462z" />
    <glyph glyph-name="percent" unicode="%" horiz-adv-x="1048" 
d="M567 80q-43 0 -67 12q-32 12 -56 45q-36 32 -45 60q-12 24 -12 84v36q3 64 53 111q46 37 115 37q49 0 96 -23q50 -24 88 -71q37 -46 37 -97q0 -78 -63 -135q-65 -59 -146 -59zM12 47q0 234 412 1000l141 260q58 107 66 129q16 33 16 45q0 10 -4 14q-12 15 -12 39
q0 59 55 117q56 59 117 59q57 0 82 -35q24 -27 24 -73t-30 -93q-31 -45 -93 -63q-23 -4 -163 -232q-454 -755 -463 -1077q0 -14 2.5 -18.5t11.5 -7.5q43 -16 43 -64q0 -46 -39 -82q-39 -31 -80 -31t-63.5 29.5t-22.5 83.5zM76 1427q0 51 57 105q58 55 121 55t125 -49
q65 -51 65 -133q0 -46 -26 -100q-27 -47 -76 -84t-88 -37q-46 0 -88 67q-19 24 -19 45q0 4 -24 35q-47 59 -47 96zM236 1294q0 -10 4 -10q17 0 59 23q37 26 57 59q23 36 23 68q0 6 1 7t7 1t1 -7q-1 -2 -2 -2.5t-2 -2.5t-2 -3.5t-2.5 -3.5t-2.5 -4q-19 -45 -90 -63
q-36 -7 -43 -25q-8 -19 -8 -37zM645 291l-39 -41q43 49 43 63q0 2 -8 2q2 -2 2 -18q0 -8 -2 -23q0 -4 1 1q0 1 1 4z" />
    <glyph glyph-name="ampersand" unicode="&#x26;" horiz-adv-x="1234" 
d="M805 262q-57 0 -96 55q-36 50 -39 127q0 36 -6 54q0 4 -2 4q-19 0 -76 -35q-233 -115 -375 -115q-150 0 -162 113q0 134 113 274q90 112 350 295q30 20 124 95q38 30 40 18q2 -6 -4 -25l-133 -6q-168 0 -211 64q-13 35 -13 57q0 118 172 236q142 94 250 94q85 0 133 -45
q27 -27 45 -82q15 -43 15 -74q0 -53 -60 -88q-52 -23 -79 -23q-60 0 -109 52q-37 40 -37 79v5q6 -2 10 -2q-17 0 -63 -25q-70 -34 -109 -64q-47 -34 -47 -45q0 -20 144 -20q24 0 106 4q33 4 84 4q94 0 94 -43q0 -28 -45.5 -66.5t-142.5 -97.5q-244 -145 -400 -295
q-161 -151 -161 -241q0 -34 20 -49t70 -15q101 0 272 92q91 48 150 107q42 48 51 117q15 99 76 141q47 35 98 35q47 0 73.5 -22.5t26.5 -63.5q0 -58 -61 -119q-45 -49 -74 -100q-45 -70 -45 -127q0 -31 10.5 -45.5t36.5 -20.5q88 -13 88 -82q0 -43 -43 -67q-28 -19 -59 -19z
" />
    <glyph glyph-name="quotesingle" unicode="'" horiz-adv-x="284" 
d="M158 1227q-25 0 -47 22q-23 17 -23 47q0 26 37 84q31 54 31 66q0 27 -58 37q-127 22 -127 100q0 30 13 53q13 36 61 58q44 20 90 20q120 0 123 -186q-3 -97 -16 -185q-14 -80 -39 -98q-21 -18 -45 -18z" />
    <glyph glyph-name="parenleft" unicode="(" horiz-adv-x="1292" 
d="M424 -315q-58 0 -123 71q-55 64 -98 189q-72 192 -72 395q0 80 27 297q25 220 57 344q97 349 322 758q167 307 356 532q151 179 237 240q79 51 152 51q60 0 98 -18q26 -11 47 -47q37 -46 37 -89q0 -57 -59 -92q-50 -22 -84 -22q-46 0 -74 14q-3 2 -9.5 6.5t-16.5 12
t-19 14.5l-80 -70q-218 -189 -422 -510q-200 -322 -327 -678q-30 -93 -45 -170q-19 -106 -37 -254q-25 -198 -25 -262q0 -62 15 -139q63 -349 178 -401q61 -42 61 -88q0 -37 -37 -66q-27 -18 -59 -18z" />
    <glyph glyph-name="parenright" unicode=")" horiz-adv-x="1495" 
d="M135 -295q-64 0 -100 16q-26 16 -45 48q-37 46 -37 90q0 60 59 90q42 22 84 22q46 0 74 -14q19 -13 45 -33l80 70q220 190 422 512q202 325 327 676q32 97 46 172q15 80 36 252q25 198 25 262q0 50 -14 139q-63 349 -179 401q-61 45 -61 91q0 40 37 63q28 21 59 21
q55 0 121 -72q56 -62 100 -189q72 -195 72 -395q0 -90 -26 -299q-23 -206 -58 -344q-98 -353 -321 -758q-170 -309 -357 -532q-151 -179 -237 -240q-76 -49 -152 -49z" />
    <glyph glyph-name="asterisk" unicode="*" horiz-adv-x="923" 
d="M336 1083q-39 0 -64 29q-24 24 -24 66q0 57 43 127q28 49 28 55q0 3 14 -12q5 -5 3 -5q1 0 0 -0.5t-3 -2t-5 -3t-8.5 -5t-10.5 -7.5q-41 -41 -112 -41q-46 0 -71.5 21t-25.5 59q0 98 166 104q33 0 58 5l34 6l-4 -2l-6 8q-19 32 -47 35q-38 9 -63 34q-25 32 -25 66
q25 117 129 117q37 0 70 -23q32 -22 32 -74q0 -26 -6 -34q-4 -16 -10 -25q-4 -6 -4 -16q0 -17 2 -23q8 -24 10 -31v-2q42 51 103 138q72 96 153 96q40 0 70 -23q33 -26 33 -61q0 -25 -31 -70q-32 -37 -84 -43q-26 -6 -74 -43q93 13 142 13q108 0 108 -72q0 -28 -33 -51
q-30 -23 -59 -23q-20 0 -47 6q-66 17 -144 17q-29 0 -60 -4q-13 -2 -17 -1t-4 9q0 -10 45 -58q34 -37 49 -49q11 -8 32 -8q55 0 72 -20q21 -18 21 -50q0 -39 -31 -67q-31 -25 -62 -25q-33 0 -65 37q-6 8 -115 184v-2q-14 -21 -32 -57q-16 -36 -19 -45q1 0 2 -0.5t4 -1.5
l6 -2q40 -19 43 -62q0 -38 -36 -63q-31 -25 -70 -25z" />
    <glyph glyph-name="plus" unicode="+" horiz-adv-x="983" 
d="M469 250q-38 0 -58 22t-20 62q0 24 66 577q0 2 -8 2q-39 0 -175 -43q-82 -24 -129 -24q-42 0 -65 21.5t-23 60.5q0 53 54 104q52 43 108 43q25 0 55 -12q55 -21 154 -21l53 2q2 33 4 65t3 47.5t1 19.5q0 58 -18 92q-12 28 -12 49q0 43 30 90q45 76 123 76q50 0 84 -39
q29 -29 29 -82q0 -69 -61 -109q-50 -41 -70 -123l-31 -100v14q34 0 187 15q68 6 108 6q111 0 111 -78q0 -37 -35 -72q-26 -26 -68 -26l-18 2q-110 39 -240 39q-48 0 -61 -10q-19 -19 -19 -293q0 -125 11 -203q8 -52 8 -90q0 -40 -20 -62t-58 -22z" />
    <glyph glyph-name="comma" unicode="," horiz-adv-x="227" 
d="M104 43q-49 0 -49 51q0 27 25 66q28 54 31 61q10 38 10 45q0 16 -9.5 23t-37.5 10q-105 29 -105 90q0 34 39 70q39 39 88 39q64 0 86 -58q17 -63 17 -266q0 -42 -4 -70q-3 -22 -33 -45q-26 -16 -58 -16z" />
    <glyph glyph-name="hyphen" unicode="-" horiz-adv-x="937" 
d="M156 846q-33 0 -60 18q-30 20 -30 58q0 61 51 92q51 33 110 33q25 0 56 -7q49 -14 221 -14q347 0 362 -12q35 -21 35 -58q0 -30 -24 -57q-26 -29 -66 -29q-21 0 -70 9l-98 12q-59 6 -117 6q-147 0 -252 -27q-76 -24 -118 -24z" />
    <glyph glyph-name="hyphen" unicode="&#xad;" horiz-adv-x="937" 
d="M156 846q-33 0 -60 18q-30 20 -30 58q0 61 51 92q51 33 110 33q25 0 56 -7q49 -14 221 -14q347 0 362 -12q35 -21 35 -58q0 -30 -24 -57q-26 -29 -66 -29q-21 0 -70 9l-98 12q-59 6 -117 6q-147 0 -252 -27q-76 -24 -118 -24z" />
    <glyph glyph-name="period" unicode="." horiz-adv-x="526" 
d="M213 762q-43 0 -63 26q-23 23 -23 58q0 38 37 78q33 39 94 39q35 0 68 -23q32 -26 32 -61q0 -48 -51 -84q-51 -33 -94 -33z" />
    <glyph glyph-name="slash" unicode="/" horiz-adv-x="1071" 
d="M143 180q-116 0 -116 156q0 147 129 430q123 267 387 719l184 323q73 128 86 158q21 46 21 55q0 6 -3 15q-6 18 -6 26q0 42 31 92q46 76 127 76q57 0 96 -45q33 -39 33 -90q0 -55 -43 -98t-111 -43q-5 0 -16 -8q-22 -22 -43 -56q-67 -97 -80 -118q-384 -613 -536 -977
q-25 -61 -72 -230q-35 -134 -35 -176l2 -24q7 -7 25 -9q33 -10 45 -22q14 -23 14 -45q0 -33 -22 -64q-27 -37 -56 -37q-7 0 -28 -8h-13z" />
    <glyph glyph-name="colon" unicode=":" horiz-adv-x="387" 
d="M205 528q-33 0 -70 19q-44 23 -69 55q-25 31 -25 72t31 69q30 27 78 27q64 0 112 -45q51 -45 51 -90q0 -40 -37 -72q-32 -35 -71 -35zM55 1219q0 44 33 77q35 35 92 35q52 0 99 -35q49 -40 49 -84q0 -36 -45 -75q-44 -41 -90 -41q-64 0 -99 41q-39 36 -39 82z" />
    <glyph glyph-name="semicolon" unicode=";" horiz-adv-x="372" 
d="M184 1108q-46 0 -84 35q-37 32 -37 76q0 41 46 81q48 33 106 33q54 -3 83.5 -27.5t29.5 -68.5q0 -48 -47 -92q-43 -37 -97 -37zM27 766q0 40 45 76q44 30 96 30q40 0 78 -24q31 -22 57 -98q19 -71 19 -140q0 -67 -25 -121q-19 -46 -51.5 -71t-73.5 -25q-35 0 -57 19
q-25 16 -25 45q0 35 68 100q55 44 55 66q0 18 -66 36q-120 39 -120 107z" />
    <glyph glyph-name="semicolon" unicode="&#x37e;" horiz-adv-x="372" 
d="M184 1108q-46 0 -84 35q-37 32 -37 76q0 41 46 81q48 33 106 33q54 -3 83.5 -27.5t29.5 -68.5q0 -48 -47 -92q-43 -37 -97 -37zM27 766q0 40 45 76q44 30 96 30q40 0 78 -24q31 -22 57 -98q19 -71 19 -140q0 -67 -25 -121q-19 -46 -51.5 -71t-73.5 -25q-35 0 -57 19
q-25 16 -25 45q0 35 68 100q55 44 55 66q0 18 -66 36q-120 39 -120 107z" />
    <glyph glyph-name="less" unicode="&#x3c;" horiz-adv-x="886" 
d="M676 391q-37 0 -53 37q-12 43 -109 96q-98 58 -244 105q-72 21 -139 49q-48 18 -68 47q-14 28 -14 72q0 57 172 305q168 258 185 309q30 88 53 121q37 55 114 55q35 0 76 -26q62 -23 62 -70q0 -39 -62 -107q-63 -70 -184 -188q-348 -342 -354 -405q5 -9 14 -15
q13 -10 70 -33q18 -7 70.5 -24t86.5 -29q56 -19 131 -51q71 -30 123 -57q56 -25 78 -45q31 -16 41 -35q10 -17 10 -41q0 -32 -12 -47q-16 -20 -47 -23z" />
    <glyph glyph-name="equal" unicode="=" horiz-adv-x="956" 
d="M190 569q-53 0 -92 25q-43 24 -43 68q0 114 150 114q42 0 117 -10q91 -16 163 -16q84 0 207 20q38 6 62 6q51 0 78.5 -21t27.5 -61q-6 -46 -29 -63q-20 -17 -126 -17l-101 2q-196 0 -282 -24q-87 -23 -132 -23zM100 1112q3 32 45 68q37 30 88 30h31q166 -36 273 -36
q41 0 90 6q66 4 86 4q69 0 90 -21q20 -20 20 -63q-3 -76 -110 -76l-191 16q-51 0 -186 -22q-60 -14 -107 -14q-120 0 -129 108z" />
    <glyph glyph-name="greater" unicode="&#x3e;" horiz-adv-x="880" 
d="M250 315q-34 0 -76 27q-61 26 -61 72q0 37 61 104q71 78 184 189q348 341 355 405q-2 3 -15 14q-20 16 -67 33q-9 3 -160 53q-45 15 -131 52q-63 27 -125 57q-41 21 -76 43q-27 16 -41 37q-10 17 -10 41q0 32 12 47q13 19 47 22q38 0 54 -36q13 -44 108 -97
q94 -56 244 -104q74 -22 139 -47q51 -19 68 -49q14 -28 14 -72q0 -57 -172 -305q-166 -255 -184 -309q-30 -88 -53 -121q-40 -56 -115 -56z" />
    <glyph glyph-name="question" unicode="?" horiz-adv-x="1761" 
d="M350 8q-50 6 -82 27q-28 20 -28 69q0 59 49 86q52 25 90 25q56 0 92 -31q39 -33 39 -59q0 -37 -51 -76q-47 -41 -109 -41zM156 1479q0 107 166 309q251 304 575 514q362 238 619 238q50 0 69 -11q16 -11 43 -41q41 -50 41 -94q-6 -106 -53 -211q-42 -99 -184 -297
q-144 -195 -412 -524q-286 -350 -397 -498q-188 -265 -211 -393q0 -6 28 -16q62 -22 62 -82q0 -32 -23.5 -50t-64.5 -18q-54 3 -97 35q-38 35 -38 92q0 96 151 309q170 232 516 654q305 374 404 506q233 311 233 438q0 32 -19.5 48.5t-66.5 22.5h-8q-99 0 -285 -88
q-182 -90 -381 -249q-153 -129 -297 -310q-132 -168 -135 -211q0 5 6 1q1 -1 2 -1.5t2 -1.5t2.5 -2l3 -2l3 -2t3.5 -2t4.5 -2t4.5 -2q63 -37 63 -90q-3 -46 -51 -82q-48 -20 -96 -20q-80 0 -129 34q-53 30 -53 99z" />
    <glyph glyph-name="at" unicode="@" horiz-adv-x="1456" 
d="M500 293q-130 0 -215 51q-85 52 -125 143q-39 82 -39 197q0 315 289 616q263 275 501 275q159 0 232 -135q69 -129 69 -348q0 -125 -18 -193q-13 -47 -43 -111h29q65 0 65 -55q0 -61 -84 -162q-86 -95 -203 -161q-256 -117 -458 -117zM211 651q0 -153 123 -219
q47 -14 112 -14q342 0 560 221l65 74q0 8 12 -9q7 -10 4 -10q-4 -2 -22 -18q-79 -51 -154 -51q-31 0 -59 12q-27 13 -49 45q-26 33 -39 66q-19 44 -19 61q1 8 7 0q-22 -9 -72 -59q-134 -113 -199 -113q-73 12 -73 106q0 100 96 252q129 189 227 189q32 0 82 -35
q13 -16 27 -16q13 0 30 -17q15 -15 15 -37q8 -24 28 -53q43 -75 43 -106q-3 -41 -41 -74q-39 -36 -92 -39h-16q8 -48 39 -76q27 -24 61 -24q42 0 109 43q60 41 98 143q37 113 37 246q-3 167 -56.5 245t-162.5 78q-154 0 -338 -147q-190 -149 -301 -371q-82 -168 -82 -293z
M498 739q0 -4 -9 -4q7 0 66 35q86 57 104 100q21 51 21 134v12q-36 -41 -90 -117q-92 -129 -92 -160z" />
    <glyph glyph-name="A" unicode="A" horiz-adv-x="2230" 
d="M1819 -406q-40 6 -66 68q-75 126 -78 485q0 282 80 975q-15 10 -16 11q-9 3 -109 22q-88 18 -168.5 32t-174 27t-107.5 15l-9 2l-16 -4q-12 -10 -51 -64q-217 -337 -330 -569q-98 -200 -98 -275q0 -6 12 -20q27 -39 27 -72q0 -38 -21 -53q-18 -18 -45 -18q-79 0 -92 131
q0 109 92 291q65 132 277 462q118 184 118 207v-18h-67q-755 -41 -1069 -271l-23 -16q2 -4 23 -39q18 -24 18 -49q0 -55 -63 -74q-45 14 -72.5 45t-30.5 74q0 40 11 82q50 141 395 244q357 107 795 116l81 2q21 0 60 -8l4 5l10 10q25 30 53 67q32 42 99 142q324 476 434 663
q125 204 131 264q2 21 37 66q26 37 63 67q48 38 76 35l2 -2q17 0 32 -21.5t19 -62.5q0 -37 -2 -47q-37 -139 -88 -475q-37 -222 -123 -840q214 -80 318 -157q119 -87 131 -207q0 -55 -10 -97q-12 -47 -62 -47q-78 0 -100 146q-15 87 -107 153q-87 59 -176 93
q-27 -241 -47 -486q-6 -153 -6 -301q0 -438 84 -528q38 -48 35 -84l-2 -6q0 -30 -23 -60q-24 -30 -59 -33zM1217 1331q192 -20 555 -96l2 8q37 173 112 782q23 202 23 277q0 13 22 2q-22 -22 -139 -174q-92 -120 -299 -406q-99 -136 -276 -393z" />
    <glyph glyph-name="B" unicode="B" horiz-adv-x="2811" 
d="M721 -369q-75 0 -115.5 45t-40.5 123q3 127 115 328q18 30 53 94q12 27 15 55v5q-13 30 -13 90q9 389 408 1030q123 199 518 805q-18 2 -53 2q-69 0 -158 -17q-98 -15 -178 -39q-375 -108 -664 -366q-290 -251 -415 -584q-36 -103 -39 -223q0 -124 43 -145q32 -11 63 -13
q51 0 82 -28q29 -26 29 -64q0 -62 -74 -98q-44 -17 -104 -17q-114 3 -166 88q-52 76 -52 205q6 350 316 746q268 324 614 508q348 184 709 190l139 2q82 146 109 176q41 47 125 47q100 -6 100 -112q-6 -41 -35 -82q-32 -43 -70 -43q-13 0 -51 -41q76 -57 99 -86
q38 -44 38 -131q-3 -148 -108 -307q-99 -157 -348 -406q-134 -143 -150 -164q2 0 15 -1t24 -1q77 0 273 27q184 18 356 18q281 0 383 -41q131 -56 131 -186q-3 -178 -254 -426q-241 -238 -557 -449q-346 -229 -635 -366q-316 -148 -467 -148h-10zM639 -215q0 -28 20 -39.5
t70 -11.5q171 0 559 200q612 314 998 668q301 276 301 395q0 30 -37 64q-41 35 -105 53q-95 32 -334 35q-91 0 -317 -16q-241 -25 -303 -25q-55 0 -76 18q-20 14 -20 52q0 44 14 69q12 34 164 193q399 411 399 577v15q0 85 -90 129q-29 20 -33 20q-21 0 -221 -278
q-745 -984 -745 -1418v-77q253 270 508 426q79 45 108 45q29 -4 53 -25q25 -25 25 -49q0 -33 -45 -72q-27 -22 -146 -96q-72 -44 -174 -127q-97 -76 -182 -158q-70 -65 -82 -88q1 -1 2 -4t2.5 -6t3.5 -6q11 -22 11 -43q-3 -29 -31 -51q-32 -21 -66 -21q-16 4 -20 6h-6
q-22 0 -70 -67q-46 -65 -92 -158q-43 -87 -43 -129z" />
    <glyph glyph-name="C" unicode="C" horiz-adv-x="2441" 
d="M688 -227q-175 0 -291 61q-206 101 -303 270q-94 168 -94 416q0 173 35 322q134 419 481 831q318 348 707 602q395 262 608 262q49 -3 76 -14q29 -8 63 -45q33 -36 33 -100q0 -114 -37 -236q-43 -118 -158 -289q-139 -205 -327 -405q-200 -213 -377 -348
q-189 -148 -289 -148q-125 0 -125 97q0 44 37 73q26 21 115 58q202 81 540 422q325 319 455 585q64 119 64 168q0 31 -19.5 43t-66.5 12q-170 0 -506 -206q-338 -204 -639 -508q-394 -412 -557 -875q-4 -13 -9.5 -32.5t-9 -33.5l-6.5 -26q-9 -41 -12 -88q-4 -70 -4 -139
q0 -175 14 -213q2 -21 23 -64q107 -215 356 -319q49 -21 96 -27q70 -4 146 -4q166 0 337 62q159 59 377 204q254 173 492 381q281 237 426 400q102 114 155 114q28 0 46 -24q18 -21 18 -47q0 -55 -152 -195q-253 -241 -542 -461q-300 -226 -523 -350q-366 -186 -653 -186z
" />
    <glyph glyph-name="D" unicode="D" horiz-adv-x="2811" 
d="M616 -217q-36 0 -81 20q-46 22 -74 70q-32 66 -27 135l4 64q26 425 887 1726q32 49 68 106t57.5 90.5t34.5 51.5q-67 -25 -215 -96q-376 -187 -684 -471q-237 -220 -330 -408q-41 -69 -41 -108q0 -29 29 -52q43 -37 43 -75q0 -43 -43 -72q-44 -29 -105 -29q-65 0 -119 45
q-53 50 -53 103q6 144 144 340q140 201 399 417q291 245 522 365q172 91 602 270q117 203 117 258q0 56 43 93q38 30 90 30q58 0 101 -37q45 -42 45 -96q0 -65 -80 -96q-17 -8 -52 -39q-39 -31 -63 -61l-25 -27v20q15 2 127 27q272 59 484 59q286 0 454 -110
q174 -109 174 -332q0 -238 -204 -584t-574 -725q-367 -373 -682 -565q-312 -184 -493 -184q-141 0 -203 112q-10 18 -10 54q3 111 43 198q43 94 161 215q430 427 947 568q110 26 174 26q60 0 86 -26q28 -25 28 -54q0 -20 -18 -41q-12 -24 -57 -36q-35 -14 -125 -33
q-331 -72 -666 -297q-213 -148 -340 -281q-135 -135 -135 -209q0 -36 35 -61q39 -29 102 -29q203 0 572 258q373 260 720 656q537 635 537 983q0 145 -98 233q-60 54 -125 80q-115 31 -287 31t-409 -47q-295 -61 -349 -95q-56 -47 -239 -315q-163 -239 -373 -594
q-492 -833 -492 -1155q0 -53 13 -76q9 -17 47 -26q78 -28 78 -88q0 -35 -31 -56q-27 -18 -66 -18z" />
    <glyph glyph-name="E" unicode="E" horiz-adv-x="2600" 
d="M512 -338q-181 7 -294 106t-155 279q-12 61 -12 143q6 180 25 267q20 72 39 139h-17q-8 -2 -22 -2q-76 3 -118 29t-42 73q0 39 31 70q23 28 71 35q128 20 177 49q24 24 100 182q95 200 231 418q137 219 363 535q100 126 100 147q0 -3 3.5 -6.5t6.5 -3.5q-15 0 -104 -29
q-323 -102 -467 -225q-77 -74 -137 -74q-54 3 -101 41q-53 44 -53 90q3 75 117 103q609 186 846 245l53 74q101 138 143 229q23 55 58 90q29 29 82 29q80 -3 112 -47q33 -45 33 -90q-3 -45 -37 -76q-36 -31 -86 -31h-22q-21 0 -33 -12q-22 -16 -60 -65q-15 -17 -37 -42
q-30 -35 -30 -30l-8 6q50 8 65 12q352 53 522 72q211 27 388 27q240 0 344 -39q123 -45 123 -144q0 -58 -31 -108q-37 -43 -78 -43q-32 0 -49 26q-19 19 -19 60q3 23 15 47q8 13 8 16q0 18 -50 31t-160.5 21t-272.5 8q-210 0 -422 -31q-227 -35 -486 -96
q-268 -348 -383 -506q-256 -355 -432 -715q-28 -52 -29.5 -52.5t-1.5 5.5h-14q27 0 92 27q695 248 1026 248q145 -6 222 -50q71 -46 71 -102q0 -23 -16 -55q-16 -23 -51 -23q-53 0 -101 51q-33 33 -82 33q-86 4 -123 4q-212 0 -475 -65q-284 -69 -485 -160q-66 -31 -94 -53
q-33 -23 -47 -56q-20 -39 -47 -118q-76 -237 -82 -408q0 -203 103.5 -304t320.5 -108q265 0 653 172q404 178 944 484q280 152 307 147t49 -31q17 -27 17 -49q0 -24 -15 -39q-27 -27 -231 -133q-188 -97 -459 -225q-269 -127 -436 -197q-544 -240 -803 -229z" />
    <glyph glyph-name="F" unicode="F" horiz-adv-x="1839" 
d="M248 -354q-55 6 -85 32t-30 70q0 49 47 111q39 53 60 139q1 3 3 13.5t3 13.5v22q0 38 -37 72q-41 37 -117 90q-89 57 -127 108q-20 38 -20 82q3 78 39 131q55 95 192 195q144 110 318 190q72 34 88 76q47 117 182 393q157 321 264 523q46 87 94 178.5l64 122t16 28.5
l6 -2q-95 0 -503 -123q-276 -79 -340 -122q-15 -10 -15 -21q-3 -59 -55 -84q-44 -24 -102 -24h-15q-72 1 -111 34t-42 95q0 35 22 51q68 48 617 186q271 69 600 133q174 357 200 377q42 25 86 25q60 0 105 -33q43 -32 43 -80q-3 -76 -94 -111q-19 -8 -56 -45
q-42 -42 -65 -73q-27 -38 -29 -47q2 3 -3 8.5t-11 5.5q7 0 170 22q578 74 993 74q275 0 393 -28q74 -21 119 -66q47 -50 47 -102q-3 -37 -27 -72q-30 -33 -67 -33q-31 3 -55 27q-23 26 -23 65q0 21 -4 25q-97 51 -518 51q-497 0 -1102 -86q-1 1 -2.5 -1.5t-5 -9.5t-8 -16.5
t-13.5 -26.5t-20 -36q-76 -122 -146 -242q-40 -69 -161 -289q-68 -121 -129 -237q-41 -81 -95 -197q-58 -123 -75 -168q-27 -61 -25 -61l-14 14q28 9 73 27q167 62 330 96q169 39 289 39q110 -2 167.5 -42t57.5 -116v-10q-16 -123 -80 -123q-59 0 -75 103q-1 11 -2 20
t-1.5 12.5t-0.5 4.5q-11 14 -144 20q-276 0 -645 -135q-73 -194 -137 -383q-59 -189 -105 -395q-24 -91 -24 -138q0 -43 18 -96q17 -66 17 -106q-1 -61 -39.5 -93t-108.5 -32h-14zM0 416q0 -25 31 -56q51 -47 139 -106q96 -74 102 -84q11 -16 13 -16q1 0 3 12t10 48t21 81
q69 217 191 536q-347 -169 -469 -335q-38 -46 -41 -80z" />
    <glyph glyph-name="G" unicode="G" horiz-adv-x="2729" 
d="M1870 -477q-17 0 -49 12q-32 27 -41 37q-20 25 -25 45q-10 20 -10 78q6 200 57 401q59 231 164 539q25 80 57 178.5t39 122.5q-19 -14 -352 -240q-611 -413 -907 -565q-327 -166 -518 -166q-164 3 -247 90.5t-83 255.5q9 507 639 1252q118 137 348 354q199 188 354 305
q206 151 387 238q193 94 318 94q178 -3 256 -152q13 -26 35 -151q12 -83 24 -129q19 -34 19 -51q-3 -32 -37 -62q-36 -33 -82 -33q-70 3 -119 37q-53 38 -53 111q3 58 18 119q15 67 17 86q0 42 -21 57q-20 14 -69 14q-122 0 -332 -100q-220 -111 -436 -277
q-312 -245 -557 -534q-277 -316 -451 -621q-180 -316 -203 -546v-17q0 -124 80 -192q31 -28 64 -33q65 -14 141 -14q171 0 410 118q246 126 632 406q647 465 712 508q38 25 38 20h14q-21 0 -84 -14q-15 -3 -139 -35q-92 -27 -111 -35q-60 -24 -90 -24q-56 0 -110 51
q-51 48 -51 104q3 46 30 70q26 29 76 29q32 0 53 -9q10 -5 49 -8q69 0 228 21q315 35 458 35q141 -6 191 -23q99 -36 152 -125q32 -59 32 -106q0 -38 -22 -60t-60 -22q-102 0 -127 98q-6 22 -16 35q-13 10 -45 18q-56 17 -80 17q-30 0 -49 -11q-29 -21 -57 -45
q-31 -25 -68 -78q-32 -50 -74 -135q-276 -556 -291 -987l-4 -125q0 -33 4 -45q0 -11 23 -31q43 -40 43 -77q-3 -78 -92 -78z" />
    <glyph glyph-name="H" unicode="H" horiz-adv-x="3239" 
d="M2114 -522q-64 0 -103 76q-37 72 -37 133q0 152 -288 317q-136 68 -314 117q-257 77 -418 90h-8q0 -1 -0.5 -3.5t-1.5 -8.5t-2 -13q-10 -62 -10 -86q0 -45 16 -55q66 -29 66 -82q0 -33 -33 -63q-30 -23 -70 -23q-62 0 -100 49q-39 42 -39 144q0 45 23 157
q-103 13 -299 31q-438 43 -514 82q-50 31 -50 74q0 125 363 268q247 100 493 168l308 84l190 338q38 67 114.5 188t128.5 200t204 310q315 463 315 518q0 54 53 84q60 29 105 29q44 0 86 -27q43 -24 43 -67q0 -57 -105 -154q-397 -409 -784 -1050q-192 -321 -202 -332
q-3 -4 -3 -2h-18q21 0 286 55q501 98 848 133q14 0 25 8q18 9 74 135q63 143 127 277q434 916 434 1083q0 59 51 101q48 39 106 39q40 0 80 -21q43 -24 43 -69q0 -54 -86 -201q-194 -342 -379 -703q-178 -348 -309 -635h203q270 0 342 -38q90 -44 90 -158q0 -38 -27 -62
q-28 -22 -59 -22q-54 0 -74 78q0 23 -15.5 34t-55.5 19q-49 9 -287 16l-178 6q-211 -550 -254 -710q-67 -227 -76 -488q0 -68 16 -92q21 -31 58 -49q82 -59 82 -111q0 -36 -37 -65q-34 -26 -70 -37q-35 -14 -67 -14zM-6 432q0 -18 336 -57q397 -43 469 -43q7 0 16 6
q19 13 64 125q53 127 168 366q-204 -49 -496 -143q-315 -97 -479 -197q-78 -52 -78 -57zM975 315l-3 -5q-3 3 1 3q26 0 129 -20q296 -57 403 -88q158 -53 248 -96q94 -45 182 -117l62 -49q0 59 10 104q47 244 231 741l93 248q4 -2 12 -2q-31 0 -225 -18q-529 -55 -922 -152
q-221 -484 -221 -549z" />
    <glyph glyph-name="I" unicode="I" horiz-adv-x="735" 
d="M78 -367q-16 0 -64 25q-64 27 -88 80q-22 43 -22 166q0 308 223 833q205 470 614 1168q291 500 299 524l11 -10l15 5q5 1 -1 -5q-131 -146 -277 -342q-153 -208 -243 -363q-100 -166 -103 -217q-4 -38 -6 -47q-14 -54 -80 -86q-44 -21 -88 -21q-43 3 -75 29
q-36 28 -39 62q9 68 323 491q298 395 520 623q120 123 160 135q24 4 41 4q27 -1 42 -18.5t17 -45.5q-3 -51 -61 -155q-116 -204 -270 -445q-442 -709 -652 -1175q-241 -523 -241 -920q0 -70 12 -100q11 -25 39 -31q90 -16 90 -82q0 -69 -96 -82z" />
    <glyph glyph-name="J" unicode="J" horiz-adv-x="2183" 
d="M326 -362q-35 0 -54.5 22t-21.5 61q0 143 307 465q330 333 825 615q102 57 140 90q84 71 262 373q354 588 354 925q0 209 -139 293q-56 32 -86 37q-32 7 -146 10q-179 0 -393 -94q-213 -94 -409 -237q-201 -146 -365 -310q-155 -155 -262 -309q-94 -143 -94 -223
q0 -33 47 -86q37 -37 37 -64q0 -41 -45 -71q-44 -21 -93 -21q-48 0 -84 16q-40 15 -75 70q-33 50 -33 115q0 197 233 469q239 278 576 518q330 235 688 350q139 39 274 39q229 0 351 -114t131 -339q0 -217 -133 -532q-138 -333 -377 -690q-34 -46 -43 -64h-31q1 0 64 17
q134 41 198 41q135 0 135 -86q0 -51 -36 -68q-26 -16 -117 -29q-157 -28 -350 -125q-67 -30 -199 -192q-421 -504 -789 -754q-174 -118 -247 -118zM328 -256q-6 4 2 4q86 0 366 232q279 233 551 546q31 36 47 49.5t31 14.5l43 2q-81 -39 -203 -113q-273 -178 -415 -293
q-178 -150 -293 -270q-129 -138 -129 -172z" />
    <glyph glyph-name="K" unicode="K" horiz-adv-x="1886" 
d="M223 -467q-61 0 -123 53q-64 55 -98 133q-33 87 -39 314q0 103 14 180q2 15 5 32.5t4.5 25.5t1.5 12q-2 9 -25 22q-40 25 -43 111q0 43 31 110q65 99 108 152q42 58 66 108q11 28 39 60q27 37 149 268q150 285 383 694q361 637 381 729q27 117 150 117h8q47 0 88 -26
q38 -30 41 -76q0 -30 -104 -164q-308 -369 -685 -1034q-34 -58 -65 -114t-58 -105t-36 -66q14 12 49 47q248 260 727 690q220 197 307 279q126 118 418 434q118 -9 158 -25q49 -15 49 -84q0 -35 -31 -63q-23 -27 -98 -80q-413 -309 -858 -702q-446 -394 -691 -660
q-39 -45 -49 -63q-8 -28 -8 -49q3 -136 103 -254q155 -189 403 -189q112 8 295 66q171 58 274 123q110 86 148 92q22 0 53 -23q23 -20 23 -53q0 -36 -39 -78q-78 -87 -265 -151q-199 -66 -417 -72q-175 0 -322 72q-129 65 -311 223q-90 81 -109 84q-15 -4 -39 -98
q-30 -91 -30 -111q3 -16 14 -33q17 -24 20 -47q0 -47 -57 -72q-39 -19 -33 -157l4 -123q3 -115 37 -197q27 -63 84 -90q86 -32 86 -90q0 -27 -22 -55q-24 -27 -66 -27z" />
    <glyph glyph-name="L" unicode="L" horiz-adv-x="2455" 
d="M-98 -82q-60 0 -101 35q-47 38 -47 78q0 29 25 51q58 49 643 297q130 313 240 534q96 179 96 195q0 -2 12 -23l-16 -10q-20 -15 -25 -18q-18 -6 -29 -6q-28 0 -45 22q-22 22 -22 45q0 48 104 119q104 80 137 109q50 53 166 249q140 224 271 455q146 260 207 385
q45 104 73 129q35 35 99 35q24 0 55 -14q27 -11 51 -35q25 -25 25 -47q0 -11 -31 -93q-73 -185 -123 -286q-155 -295 -504 -658q-96 -99 -182 -227q-124 -197 -283 -547q-105 -232 -114 -266q-10 10 -15 10q2 0 84 21q321 110 635 168q317 61 549 61q176 0 277 -43
q109 -42 139 -113q22 -46 22 -67q0 -41 -28 -51q-17 -11 -58 -11q-39 0 -71 50q-43 94 -330 94q-158 0 -373 -27q-295 -36 -606 -125q-226 -66 -250 -82q-14 -22 -20 -94q-1 -4 -4 2h22q89 0 92 -69q0 -36 -41 -74q-44 -29 -90 -29q-45 0 -88 29q-26 22 -31 47q-6 21 -6 76
q0 28 27 49q7 5 2 6h-14q-9 0 -144 -72q-101 -54 -184 -102q-53 -37 -53 -60q0 -47 -32.5 -73t-92.5 -29zM1171 1622q137 150 279 365q6 11 20 36t21 39q26 53 35 80q6 15 9.5 21.5t9.5 11.5t16 6l30 2q-16 -6 -82.5 -103t-208.5 -319q-46 -71 -96 -164z" />
    <glyph glyph-name="M" unicode="M" horiz-adv-x="2467" 
d="M2124 -276q-98 0 -162 110q-64 106 -64 305q0 209 89 545q82 317 333 1018q112 317 140 409q42 130 59 224q12 63 16 149v13h-2q-40 0 -247 -207q-138 -144 -281 -342q-161 -226 -363 -551q-145 -234 -223 -328q-89 -108 -155 -108q-91 0 -144 169q-8 24 -12 64
q-5 23 -8 86q-2 39 -2 328q0 354 -2 409q-3 72 -11 105l-6 12q-14 -10 -49 -45q-66 -66 -117 -127q-92 -105 -122 -141q-157 -216 -308 -478q-149 -261 -229 -464q-35 -92 -74 -236q-35 -134 -35 -178q0 -15 1 -18t6 -3q46 0 72.5 -20.5t27.5 -58.5q0 -54 -78 -103
q-63 -26 -113 -26q-53 0 -81.5 25.5t-28.5 74.5q0 50 18 139q80 371 324 830q232 433 563 821q143 158 231 158q138 0 138 -277q0 -48 -11 -217q-14 -178 -14 -371q0 -222 19 -284q12 -32 21.5 -44t21.5 -12q31 0 100 99q78 110 219 348q422 704 696 954q173 162 265 162
q52 0 79 -47q29 -47 29 -113q0 -74 -43 -213q-43 -140 -151 -438q-215 -587 -334 -1008q-101 -354 -101 -579q0 -77 13 -160q12 -96 39 -143q22 -45 67 -64q82 -29 82 -78q0 -34 -31 -55q-30 -20 -67 -20z" />
    <glyph glyph-name="N" unicode="N" horiz-adv-x="2764" 
d="M131 -203q-64 0 -117 88q-43 88 -43 154q0 129 140 459q118 283 483 1001q355 689 450 955q47 136 84 182q40 49 129 49q103 0 115 -80q0 -57 -49 -115q-92 -108 -303 -475q-228 -395 -420 -772q-375 -721 -442 -1003q-26 -104 -29 -201q0 -3 -14 7q-4 3 -2 3
q22 26 65 96l228 373q709 1189 1193 1727q298 350 402 350q48 0 67 -8q75 -31 84 -185q0 -164 -120 -643q-228 -937 -228 -1239q0 -125 30.5 -182t94.5 -57h8q197 35 590 495q91 107 144 157.5t82 51.5q28 0 47 -16q19 -14 24 -43q3 -46 -153 -215q-455 -487 -703 -527h-22
q-187 0 -199 305l-4 86q-7 145 39.5 407.5t146.5 676.5q51 231 90 422q37 179 37 276q-8 110 -22 113q-33 -10 -138 -109q-106 -101 -256 -280q-546 -622 -1083 -1608q-240 -424 -246 -500l6 -16q0 -39 -18 -74q-18 -31 -49 -51q-60 -35 -105 -35h-14z" />
    <glyph glyph-name="O" unicode="O" horiz-adv-x="2975" 
d="M1120 -53q-109 0 -168 41q-52 38 -96 121q-24 40 -29 81q-6 41 -6 138q0 160 10 211l9 41q-286 -10 -348 -11q-142 0 -224 15q-82 12 -147 47q-131 49 -131 225q0 141 133 315q133 170 346 336q422 329 985 533l135 49l53 76q213 299 316 389q40 37 96 37q83 0 127 -56
q45 -51 45 -106q0 -52 -35 -79.5t-100 -29.5l-66 4q-8 4 -32 7l-72 -84q-100 -115 -100 -123q0 -5 -8 7q-4 6 -3 7q11 0 35 6q30 12 123 15q89 6 191 6q131 0 170 -2q179 -6 358 -99q67 -31 131 -98q92 -92 127 -188q16 -41 16 -162q0 -80 -10 -135q-6 -35 -33 -109
q-48 -122 -100 -201q-61 -94 -119 -172h82q239 0 242 -108q0 -30 -19 -55q-16 -29 -59 -29q-31 0 -53 12l-45 15q-49 10 -80 8l-195 -6l-143 -127q-643 -571 -1100 -734q-112 -28 -209 -28zM45 846q0 -62 78 -109q121 -75 352 -75q127 0 316 18l75 6q111 316 224 553
q129 283 348 612l63 107q0 6 14 -10q9 -9 5 -9q-20 0 -103 -34q-667 -264 -1087 -650q-273 -252 -285 -409zM915 281q0 -115 51.5 -168.5t161.5 -53.5q237 0 666 277q281 188 520 412q78 75 78 79q0 5 7 -5q7 -9 1 -9q-84 0 -741 -104q-645 -99 -694 -113q-8 -16 -17 -55
q-15 -55 -24 -127q-9 -74 -9 -133zM995 688q0 5 -5 8t-9 2q48 17 98 19q7 1 28 5t63 12.5t81 15.5q969 184 1303 237q165 211 239 344q80 140 80 283q0 198 -184 319q-193 123 -508 123q-129 0 -258 -20q-133 -20 -176 -33q-62 -39 -203 -254q-150 -230 -301 -512
q-153 -282 -223 -465q-25 -70 -25 -84z" />
    <glyph glyph-name="P" unicode="P" horiz-adv-x="2459" 
d="M817 -227q-157 0 -160 260q0 486 684 1794l150 282l12 -4q-62 -15 -96 -28q-68 -18 -174 -60q-127 -50 -166 -67q-600 -291 -817 -643l-27 -52q76 -44 76 -104q0 -46 -45 -74q-43 -25 -100 -28q-68 0 -119 28q-57 35 -60 90q0 88 170 273q171 187 373 332
q460 321 1024 473q10 0 23 16q16 13 39 57q19 30 69 129q43 89 84 156q38 62 60 88q48 33 100 33q44 0 84 -21q42 -23 45 -69q0 -33 -117 -156q-64 -70 -155 -190q157 16 229 16q153 0 293 -31q132 -29 221 -92q178 -128 178 -330q0 -335 -389 -739q-163 -172 -291 -262
q-448 -304 -721 -307q-174 0 -174 131q0 44 27 90q25 39 67 39q26 0 48 -19q26 -17 26 -45q0 -21 -10 -41q-6 -18 -6 -26q12 -4 39 -4q365 12 809 379q236 196 368 389q93 155 109 219q22 77 22 190q-6 111 -80.5 186t-224.5 119q-83 25 -192 25q-402 -6 -430 -27
q-29 -19 -113 -161q-71 -116 -199 -349q-358 -658 -491 -1118q-88 -294 -88 -450q1 -66 14 -96t41 -33q74 -16 74 -70q0 -21 -17 -55q-34 -43 -96 -43z" />
    <glyph glyph-name="Q" unicode="Q" horiz-adv-x="1853" 
d="M698 106q-33 0 -59 13q-31 12 -53 39q-26 35 -49 106q-19 68 -19 135l4 58q0 4 -4 4q-59 0 -334 -84q-252 -80 -266 -111q-3 -92 -113 -92q-74 0 -127 53q-36 33 -36 74q0 17 20 47q51 51 90 51q20 0 207 45q186 43 561 123l6 142q24 298 172 655q149 364 381 711
q20 31 76 125q104 169 111 200q2 19 55 37q55 19 65 19q17 0 72 36q89 64 162 64q209 0 278 -381q11 -54 11 -119q0 -61 -13 -188q-26 -232 -86 -402q-110 -332 -454 -807l94 -12q299 -44 299 -198q-3 -56 -31 -101t-73 -45q-40 3 -62 23t-22 51q3 27 14 53q2 7 5.5 16
t4.5 11q0 4 -6 10q-20 20 -154 49q-71 15 -165 23q-136 -149 -248 -250q-192 -183 -314 -183zM623 348q0 -38 12 -78q12 -33 18 -43q3 -2 27 -6q57 0 166 74q105 70 241 219q33 28 33 33q0 -9 -10 -11q-5 -2 -12 -1q-158 0 -424 -48q15 -21 26 -32q15 -11 45 -11q20 0 48 7
q46 4 53 4q32 0 48.5 -18.5t16.5 -49.5q-3 -49 -49 -76q-50 -24 -104 -24q-74 0 -129 39q-7 5 -21 20q-10 0 -2 8q10 10 15 2q2 -3 2 -8zM653 590q324 43 555 61l78 107q332 454 461 911q53 198 53 477q0 88 -12 131q-47 170 -146 170q-60 0 -124 -41q-29 -12 -29 -18
q0 -8 8 -27q12 -27 12 -55q-3 -41 -39 -80q-39 -39 -96 -39q-16 -20 -45 -73l-158 -289q-390 -724 -512 -1209zM670 1010q-14 -9 -13 7q3 22 64 179q60 159 135 326q50 113 82 190q58 52 58 45q0 -4 -41 -78q-18 -32 -33 -61q-189 -376 -252 -641v33z" />
    <glyph glyph-name="R" unicode="R" horiz-adv-x="2076" 
d="M100 -141q-41 0 -73 32q-34 31 -58 121q-10 51 -14 103q0 446 569 1710q233 513 262 645q17 55 50 82q43 37 106 37q56 0 98 -27q38 -27 41 -59q0 -27 -34 -72q-439 -658 -676 -1264q-127 -326 -192.5 -558t-65.5 -402v14q-28 0 -22 26q2 9 34 88q8 19 14 36l33 90
q446 1230 1145 1884q268 253 438 268q169 0 184 -278q0 -355 -247 -799q-255 -448 -607 -711q-184 -134 -323 -137l-49 -2l6 -29q16 -100 129 -176q100 -69 215 -69q118 0 254 84q137 87 356 288q142 120 172 127q10 4 31 4q33 0 55 -22t25 -53q1 -26 -47.5 -73t-149.5 -122
q-246 -192 -364 -252q-134 -67 -254 -67q-145 0 -228 22q-81 27 -155 113q-30 38 -76 117q-44 73 -84 157q-40 75 -43 103q-4 17 -41 51l-39 53q-20 26 -24 53q0 41 47 88q47 44 110 47q104 0 107 -77q-4 -49 -8.5 -96t-6.5 -68t-2 -25q0 -51 9 -69q21 -9 57 -9q87 3 172 45
q268 144 524 484q252 339 365 713q57 180 57 299q0 91 -41 143q-35 43 -67 43q-156 -19 -357 -199q-211 -181 -442 -489q-283 -378 -494 -813q-256 -536 -256 -838q2 -32 17 -90q10 -52 10 -82q0 -40 -21 -72q-18 -24 -55 -45q-36 -23 -76 -26z" />
    <glyph glyph-name="S" unicode="S" horiz-adv-x="2050" 
d="M774 -6q-49 0 -49 51q0 96 330 324q212 143 352 209q15 7 28 14.5t13.5 7.5h3.5l-8 6q-36 45 -187 74q-173 33 -499 53q-237 16 -385 41q-346 59 -346 301q0 142 88 299q88 152 278 342q400 403 981 684q339 170 654 269q306 92 509 92q166 0 252 -64q86 -67 86 -176
q0 -230 -333 -598q-329 -363 -1004 -831q-126 -82 -227 -158q-54 -33 -113 -33q-128 0 -137 96q0 39 10 56q17 30 162 104q185 96 450 262q606 394 900 768q165 209 165 330q0 56 -46.5 82.5t-149.5 26.5q-234 0 -627 -127q-383 -125 -768 -340q-420 -244 -727 -539
q-306 -294 -340 -516q0 -40 29 -88q21 -46 63 -76q67 -45 211 -72q148 -28 449 -43q297 -21 377 -37q101 -15 186 -55q89 -44 104 -80q4 -12 7 -12q2 0 83 23q105 41 150 41q40 0 61 -21q23 -23 23 -47q0 -26 -14 -47q-13 -20 -59.5 -39.5t-143.5 -48.5q-21 -7 -42 -15
t-32.5 -13.5t-21.5 -9t-13.5 -2t-3.5 8.5q0 -19 -39 -61q-170 -198 -458 -334q-169 -82 -232 -82zM819 92l-45 -6q67 9 125 31q220 87 369 205q71 58 102 88q-244 -113 -369 -189q-66 -38 -118.5 -76.5t-63.5 -52.5z" />
    <glyph glyph-name="T" unicode="T" horiz-adv-x="1957" 
d="M1077 -68q-59 0 -92.5 28.5t-36.5 80.5q0 30 19 82q15 48 30 125q18 84 76 229q59 153 123 281q55 113 55 131q0 20 -39 65q-48 48 -100 72q-124 71 -475 111q-367 46 -453 59q-309 54 -309 178q0 155 447 373q443 221 1175 438q277 82 449 123q24 6 57.5 15.5t42.5 11.5
q25 7 34 14t9 18q0 45 47 72q56 23 92 23q45 0 72 -17q9 -7 43 -45q478 74 532 80q104 14 250 14q449 0 461 -243q0 -68 -41 -148q-19 -36 -37 -51q-22 -18 -51 -18q-35 0 -55.5 15t-20.5 44q0 24 33 92q27 61 27 70q0 52 -95 90q-108 43 -307 43q-97 0 -260 -18
q-388 -44 -452 -78q-25 -25 -136 -174q-498 -678 -735 -1106q-92 -164 -102 -205q-8 -32 -8 -49q0 -59 -84 -402q-50 -208 -50 -217q0 -15 15 -22q37 -21 37 -60q-6 -54 -60 -90q-53 -35 -127 -35zM-59 1386q0 -40 133 -75q151 -38 483 -72q458 -49 590 -121
q71 -35 141 -114q10 -12 21 -31q24 55 53 102q120 213 346 584q199 324 340 579q-319 -54 -967 -268q-479 -161 -817 -334q-323 -161 -323 -250zM1153 395q0 1 2 19q-15 0 -3 26q4 7 13 24q26 52 41 89q7 19 43 117q41 30 44.5 24t-18.5 -46q-4 -7 -6 -11t-5.5 -11.5t-6 -13
t-6.5 -13.5t-7 -15t-6.5 -15t-6.5 -16q-50 -128 -64 -147q-8 -9 -14 -11z" />
    <glyph glyph-name="U" unicode="U" horiz-adv-x="1882" 
d="M1190 -199q-90 0 -141 117q-48 105 -48 285q0 234 58 487q51 219 139 504l23 31q-349 -457 -760 -873q-249 -252 -363 -252q-44 0 -80 39q-34 47 -51 90q-12 55 -12 131q0 200 84 496q78 286 233 635q118 251 228 434q115 190 184 238q50 35 107 35q63 0 110 -41
q49 -43 49 -91q0 -40 -35 -75q-41 -33 -98 -33l-51 6q-10 3 -21 -8q-11 -8 -38 -43q-184 -239 -385 -686q-185 -419 -252 -758q-17 -112 -17 -162q0 -57 13 -80q11 -16 32 -16q179 0 1012 1063q39 49 90 115.5t64 83.5q41 57 79 124q12 20 68 129q94 213 215 422
q112 200 234 365q120 158 182 158t65 -105q0 -117 -198 -409q-190 -281 -559 -773l-70 -202q-209 -632 -209 -1008q0 -289 103 -289q67 0 139 90q69 89 166 242l75 123q38 78 80 156q23 45 49 84q15 27 37 36q14 7 33 7q57 0 57 -54q0 -30 -30 -92q-340 -676 -590 -676z
M1503 1741q0 -4 -15 8q-9 8 -3 8q7 0 256 369q250 368 250 414q0 6 13 -9q5 -7 3 -8q-8 0 -131 -164q-107 -140 -209 -317q-164 -281 -164 -301z" />
    <glyph glyph-name="V" unicode="V" horiz-adv-x="1601" 
d="M442 -262q-134 0 -235 153q-101 143 -158 394q-57 237 -57 544q0 543 158 1012q113 359 260 359q59 0 106 -41q45 -42 45 -91t-37 -83q-40 -37 -104 -37q-17 0 -37 -4q-10 -10 -43 -80q-107 -225 -174 -545q-62 -310 -62 -600q0 -265 50 -467q48 -195 125 -303
q73 -103 155 -103q70 0 150 74q94 91 180 250q98 174 297 606q402 855 659 1325q278 510 385 580q41 18 74 18q75 0 78 -67q0 -35 -72 -107q-296 -331 -1007 -1765q-277 -568 -361 -707q-193 -315 -375 -315z" />
    <glyph glyph-name="W" unicode="W" horiz-adv-x="2353" 
d="M1464 -213q-63 0 -127 33q-100 53 -178 164q-83 120 -176 340q-79 184 -139 272q-75 111 -166 111q-166 -15 -381 -443q-20 -36 -47 -80t-31 -51q-18 -27 -18 -33q0 -18 -29 -47q-26 -21 -61 -24q-18 0 -43 14q-100 59 -103 174q0 195 141 531q76 192 306 669
q283 576 329 791q44 137 66 159q41 30 108 33q46 0 73 -21.5t28 -60.5q0 -50 -80 -188q-197 -346 -358 -668q-171 -342 -285 -608q-62 -151 -111 -313q-49 -165 -49 -207l-14 14l3 6q6 8 41 53q52 64 89 111q55 73 133 164q157 163 301 166q150 0 252 -178q24 -32 111 -262
q77 -210 125 -293q51 -97 110 -148q95 -88 184 -88q104 3 207 123q158 205 287 580q166 494 166 960q0 147 -8 264q-20 319 -80 496q-17 39 -21 72q0 47 27 59q13 13 57 21q35 0 58 -29q18 -24 34 -103q33 -168 33 -481q0 -252 -28 -485q-88 -662 -308 -1135
q-204 -434 -407 -434h-21z" />
    <glyph glyph-name="X" unicode="X" horiz-adv-x="1636" 
d="M-25 -209q-30 0 -45 10q-75 24 -75 105q0 64 63 205q246 598 766 1189l133 146q-62 628 -76 749q-20 158 -49 205q-30 52 -30 86q0 43 45 82q41 33 92 33q58 0 108 -41q35 -40 35 -78t-20 -65q-10 -17 -58 -62l-2 -307q0 -160 4 -246q4 -155 8 -221q1 -9 2 -22t2 -22
t1 -15q36 30 43 37q842 851 1216 851q115 -3 170 -67q51 -57 51 -107q0 -36 -22 -55q-23 -20 -56 -20q-57 3 -112 55q-28 35 -55 35q-43 0 -150 -45q-287 -110 -612 -383q-335 -281 -465 -439q51 -397 106 -636q73 -320 221 -506q88 -110 111 -125q4 2 25 14q64 31 88 31
q35 -1 53 -24t18 -60q-3 -62 -59 -103q-50 -41 -115 -41l-41 7q-77 28 -157 161q-73 118 -136 308q-105 400 -174 917l-96 -115q-513 -599 -633 -1067q-16 -46 -16 -96q0 -26 6 -37.5t23 -17.5q45 -28 45 -70q0 -48 -43 -88q-40 -37 -109 -47z" />
    <glyph glyph-name="Y" unicode="Y" horiz-adv-x="1949" 
d="M561 -502q-40 0 -61 29.5t-21 83.5q0 154 205 459q156 213 326 391q193 205 338 317q30 20 63 53q24 31 49 82q30 61 72 166q176 424 176 621q-3 53 -6 61q-2 4 -19 4q-89 0 -352 -278q-259 -271 -657 -797q-219 -291 -330 -405q-123 -123 -201 -123q-74 0 -125 80
q-43 78 -43 213q0 327 234 942q122 288 276 567q172 297 263 385q90 78 184 78q76 -3 117 -32.5t41 -82.5q0 -55 -60 -78q-50 -20 -92 -20q-12 0 -33 -6q-78 -40 -270 -346q-324 -524 -465 -1037q-74 -257 -74 -403q0 -68 19 -100q13 -29 28 -29q42 0 125 86
q133 144 383 477q214 289 369 475q124 153 295 320q249 264 373 264q139 0 139 -205q0 -193 -133 -528q-44 -112 -84 -203q-20 -44 -22 -44q-1 0 -1 3l-14 8l77 36l1 1h1l1 1h1h1l1 1h1l1 1l1 1h1h1l1 1h1l1 1h1l1 1h1h1v1h1l1 1h1l1 1h1l1 1h1h1l1 1h1l1 1h1l1 1h1l1 1h1v1
h1l1 1h1h1l1 1h1l1 1h1l1 1h1l1 1h1l1 1h1l1 1h1l1 1h1l2 1q72 30 113 30q57 0 100 -30q45 -28 45 -74q0 -37 -35 -64q-27 -24 -61 -24q-26 0 -45 12q-18 6 -33 6q-27 0 -90 -39q-141 -75 -197 -131q-61 -64 -133 -200q-261 -466 -510 -758q-200 -238 -297 -238zM592 -369
q0 -4 -6 1q-1 1 -2 1l39 35q14 12 34 29q42 40 160 176q234 292 406 598q8 12 10 14q-38 -34 -141 -133q-257 -254 -400 -504q-100 -172 -100 -217z" />
    <glyph glyph-name="Z" unicode="Z" horiz-adv-x="2027" 
d="M438 0q-80 0 -80 63q21 167 461 377q242 120 479 197q63 22 109 39q49 18 82 65q50 62 59 125q0 53 -110 76q-142 33 -428 33h-56q-116 0 -161 10q-50 18 -50 55q9 67 197 183q378 254 616 495q287 293 287 459q0 47 -24 86q-14 34 -39 47q-22 14 -88 29q-60 16 -138 16
q-240 0 -530 -143q-301 -150 -549 -395q-118 -115 -211 -254q-108 -165 -108 -242q0 -21 9.5 -31t35.5 -16q32 -11 65 -49q35 -38 35 -76q-3 -40 -57 -59q-46 -17 -90 -17q-31 0 -58 6q-162 50 -162 203q0 30 9 68q57 204 299 458q241 256 561 447q407 238 745 250
q70 0 166 -21q133 -35 195 -94q57 -75 57 -178q0 -59 -14 -111q-10 -51 -45 -123q-91 -171 -338 -397q-249 -228 -572 -434q-19 -13 -77 -62q-21 -17 -21 -7v5l-6 13h178q271 0 391 -27q197 -47 197 -184q0 -68 -62 -183q3 13 -10 17q38 6 74 18q163 39 274 39
q129 0 183 -63q30 -38 30 -74q-9 -61 -88 -61q-32 0 -65 8q-42 10 -82 10q-107 0 -330 -49q-41 -8 -117 -29q-45 -12 -67 -29q-21 -9 -64 -43q-94 -74 -284 -192q-172 -110 -301 -168q-208 -86 -312 -86zM449 90q-8 16 6 16q34 0 120 27q286 104 553 291l60 18
q-160 -48 -334 -123q-163 -71 -285 -141q-103 -54 -120 -88z" />
    <glyph glyph-name="bracketleft" unicode="[" horiz-adv-x="1226" 
d="M330 -266q-84 0 -148 43q-153 117 -153 405q0 308 137 707q122 369 420 1040q152 347 155 389q0 4 2 4q-26 33 -26 66q0 58 63 109q61 45 111 45q51 0 82 -31q12 -12 57 -82q129 4 193 8q122 4 188 4q58 -3 82 -33q29 -26 29 -59q0 -43 -47 -72q-32 -18 -60 -18
q-35 5 -67 16q-47 15 -117 15q-16 0 -94 -4q-233 -16 -267 -25q-27 -39 -110 -209q-645 -1327 -645 -1847q0 -223 116 -287q41 -24 74 -24q36 0 62 30q51 45 96 45q33 0 53 -23t23 -63q-3 -39 -43 -82q-34 -40 -84 -57q-48 -10 -82 -10z" />
    <glyph glyph-name="backslash" unicode="\" horiz-adv-x="1171" 
d="M983 180q-21 8 -29 8q-29 0 -53 37q-24 30 -24 64q0 22 14 45q12 12 45 22q18 2 25 9q2 4 2 24q0 42 -35 176q-47 169 -72 230q-150 359 -537 977q-22 36 -79 118q-21 34 -43 56q-11 8 -17 8q-67 0 -110 43t-43 98q0 47 32 90q39 45 97 45q80 0 129 -76q28 -54 28 -92
q0 -8 -6 -26q-2 -6 -2 -15t21 -55q13 -30 86 -158l184 -323q264 -452 387 -719q129 -283 129 -430q0 -156 -115 -156h-14z" />
    <glyph glyph-name="bracketright" unicode="]" horiz-adv-x="1544" 
d="M557 -274q-52 0 -82 30q-12 12 -57 82q-129 -4 -193 -8q-122 -4 -188 -4q-54 3 -82 31q-29 32 -29 61q0 43 47 72q32 18 60 18q35 -5 67 -16q47 -15 117 -15q11 0 25 1t34.5 2t34.5 2q237 16 267 24q27 39 110 209q645 1327 645 1845q0 225 -116 289q-48 25 -74 25
q-35 0 -62 -31q-51 -45 -96 -45q-70 0 -76 86q3 39 43 82q36 42 84 55q43 12 82 12q84 0 148 -43q153 -117 153 -405q0 -308 -137 -707q-122 -369 -420 -1040q-152 -347 -155 -389q0 -4 -2 -4q26 -33 26 -66q0 -57 -63 -108q-61 -45 -111 -45z" />
    <glyph glyph-name="asciicircum" unicode="^" horiz-adv-x="968" 
d="M205 938q-45 0 -69.5 19.5t-24.5 56.5q0 28 147 250q137 205 201 282q74 80 119 80q44 0 67 -59q23 -57 43 -152q54 -256 129 -307q45 -26 45 -68q0 -34 -31 -53q-28 -14 -55 -14q-59 0 -88 57q-17 36 -55 225q-19 109 -37 199q-4 16 -10 33q0 10 4 10q-10 0 -62 -74
q-137 -210 -180 -362q-40 -123 -143 -123z" />
    <glyph glyph-name="underscore" unicode="_" horiz-adv-x="1187" 
d="M90 201q-58 0 -104 32q-45 36 -45 86q3 44 36 70q26 21 103 21q20 0 78 -4q47 -7 94 -7q79 0 274 19q205 18 324 18q155 0 211 -30q74 -31 74 -80q0 -37 -21.5 -59t-62.5 -23q-32 0 -76 26q-38 28 -94 37q-55 8 -164 8q-104 0 -242 -24q-98 -18 -248 -60
q-77 -30 -137 -30z" />
    <glyph glyph-name="grave" unicode="`" horiz-adv-x="430" 
d="M276 1497q-22 0 -36 14t-60 129q-78 203 -119 304t-53.5 125.5t-23.5 33.5q-29 24 -29 27q-18 0 -27 20q-6 8 -6 31q0 41 35 68q29 26 66 26q27 0 51 -20q20 -20 20 -57q0 -18 -10 -35q-6 -12 -6 -15q0 -21 18.5 -66t101.5 -227q19 -42 30.5 -67.5t32.5 -71t40 -88.5
q7 -15 29 -35t22 -30q0 -24 -26 -47q-22 -19 -50 -19z" />
    <glyph glyph-name="a" unicode="a" horiz-adv-x="1529" 
d="M688 494q-191 0 -268 127q-54 84 -90 268q-10 74 -23 112q-51 -32 -272 -225q-87 -74 -131 -74q-47 0 -56 70q0 52 66 143q67 93 143 172q86 86 154 125q63 25 111 25q97 0 170 -49q83 -52 83 -117q0 -52 -47 -82q-52 -36 -114 -33l-33 2q22 -167 59 -245q27 -61 88 -103
q36 -26 103 -26q69 0 121 10t127 47q153 78 307 172q171 101 248 166q80 68 139 68q30 0 46.5 -18t18.5 -50q0 -17 -4 -37q-24 -56 -178 -151q-150 -89 -334 -170q-292 -127 -434 -127zM35 903q8 7 38.5 35t53.5 49q12 11 31 31q24 26 29 21q3 -5 3 -17h23
q-48 -36 -123 -104q-7 -7 -47 -54q-14 -17 -14 -5q0 10 6 44z" />
    <glyph glyph-name="b" unicode="b" horiz-adv-x="1288" 
d="M-293 -166q-49 0 -78 33q-26 33 -26 78q0 26 16 59q13 29 51 164q61 225 224 571q69 144 69 166v2q-29 25 -29 58q0 58 109 125q52 25 170 208q144 215 332 455q180 223 321 367q151 151 219 151q19 0 48 -18q23 -23 32 -41q13 -23 13 -37q0 -53 -129 -238
q-285 -412 -789 -919q-108 -111 -137 -127q-21 -11 -39 -37q-35 -57 -111 -246l-36 -96q18 21 34 43q153 179 308 291q157 112 262 112q73 0 94 -47q8 -15 22 -96l109 62q114 63 233 104q116 43 185 43q135 -19 135 -102q0 -39 -39 -64q-16 -12 -39 -12q-5 0 -45 10
q-27 10 -63 10q-76 0 -181 -45q-95 -43 -327 -162l-54 -98q-74 -125 -176 -254q-107 -135 -207 -227q-106 -100 -157 -100q-36 0 -51 22q-13 18 -13 66q0 34 17 67q8 20 57 98q72 104 211 246q140 143 244 221q45 27 65 54q21 21 27 49q8 40 8 47q-3 9 -4 10q0 -2 -14 -2
q-49 0 -127 -41q-148 -74 -293 -231q-149 -161 -238 -338q-34 -70 -41 -90q-12 -47 -10 -80l6 -113q3 -54 -57 -94q-55 -37 -111 -37zM35 49q-4 10 -12 10q20 0 131 105q119 113 256 301q92 126 92 135q0 5 12 -8q8 -8 4 -8q-14 -9 -41 -25q-132 -94 -307 -301
q-135 -149 -135 -209zM299 1307q286 261 674 778l28 -29q-140 -96 -329 -325q-167 -197 -342 -451z" />
    <glyph glyph-name="c" unicode="c" horiz-adv-x="1349" 
d="M31 285q-117 0 -172 67q-54 66 -54 166q0 175 150 451q57 99 121 166q85 94 160 94q63 0 118 -64q49 -58 49 -143q0 -69 -59 -104q-60 -31 -92 -31q-46 0 -82 28q-41 27 -41 66q2 11 16 4q6 0 3 -3q-1 0 -3 -2l-12 -9q-93 -96 -160 -228q-84 -156 -90 -254
q0 -56 34.5 -81t113.5 -25q119 3 270 59q142 57 434 209q300 162 486 285q124 76 155 76q25 0 43 -21q21 -18 21 -45q0 -49 -121 -119q-117 -71 -416 -217q-328 -162 -543 -245q-210 -80 -329 -80z" />
    <glyph glyph-name="d" unicode="d" horiz-adv-x="878" 
d="M260 -565q-55 0 -102 53t-47 174q6 362 188 842q175 453 537 1095l26 52h39q-61 -50 -293 -305q-234 -252 -258 -291q-18 -35 -76 -86q-48 -41 -114 -113q-131 -143 -211 -143q-47 0 -72 35q-24 27 -24 79q0 72 98 215q159 248 278 248q39 0 68 -22l14 -8q30 13 193 188
q192 192 399 424q106 114 162.5 165.5t81.5 51.5q49 0 55 -45q0 -34 -203 -369q-645 -1059 -737 -1745q-12 -113 -18 -217q0 -119 16 -119q3 0 27 15q43 24 65 24q29 0 54 -22q22 -19 22 -51q0 -53 -59 -88q-52 -37 -109 -37z" />
    <glyph glyph-name="e" unicode="e" horiz-adv-x="1165" 
d="M6 582q-84 0 -128 39t-44 114q0 56 27 127q24 74 90 152q69 81 137 133q75 57 119 57q34 0 61 -20q27 -24 27 -64q0 -70 -129 -237q-60 -96 -152 -90l-55 4q-6 1 -10 -3t-10 -18q-17 -33 -17 -53q0 -24 21 -35t73 -12q52 0 129 18q127 28 648 211q319 117 366 117
q27 -1 42.5 -18.5t15.5 -45.5q0 -39 -13 -55q-16 -20 -53 -31q-73 -27 -485 -137q-406 -108 -463 -121q-120 -32 -197 -32z" />
    <glyph glyph-name="f" unicode="f" horiz-adv-x="909" 
d="M-295 -293q-62 0 -100 35q-21 29 -35 68q-24 60 -37 63q-43 16 -70 59q-32 43 -32 84t43 109q48 74 104 133q55 58 100 160q167 394 639 1102q88 129 125 176q41 55 68 82q27 24 55 24q34 0 64 -24q30 -30 30 -62q0 -45 -141 -368l-72 -172q-27 -73 -63 -95
q-33 -16 -78 -16q-38 0 -63 10q-37 11 -52 29q-4 6 -6 6q-17 0 -202 -324q-191 -330 -191 -364q0 -9 -12 9q-6 9 -4 9q9 0 51 37q279 222 588 393q323 179 442 179q39 0 78 -25q43 -24 43 -63q0 -38 -24.5 -58t-67.5 -20l-72 4q-143 0 -405 -137q-275 -145 -545 -363
q-49 -39 -88 -74q-28 -25 -41 -51q-21 -38 -27 -63q-29 -98 -29 -162q3 -51 7 -51q16 -6 32 -9q158 -45 158 -149q0 -69 -72 -98q-47 -23 -98 -23zM-481 6l-1 -2h1q9 -6 12 -6q4 -2 12 -2q2 0 6 12q7 26 13 58q6 34 14 65q10 30 10 33q0 -7 17 -14q9 0 2 -7q-1 -2 -6 -6
q-8 -7 -13 -12q-29 -36 -49 -70q-18 -30 -18 -49z" />
    <glyph glyph-name="g" unicode="g" horiz-adv-x="1224" 
d="M-160 -608q-85 0 -135 59q-55 61 -55 176q0 186 145 430q144 235 383 465q230 227 522 404q104 65 121 92q13 44 13 84q0 78 -27 84q-26 -5 -111 -47q-186 -89 -186 -129q0 -39 -43 -68q-46 -27 -92 -27q-45 0 -176 -77q-141 -80 -205 -80q-44 0 -74 30q-29 33 -29 72
q0 78 132 207q92 92 165 139q71 41 146 41q56 0 100 -30q45 -23 64 -70q-7 6 -9 6q14 0 74 35q168 110 244 110q94 0 94 -159q-3 -47 -6 -72q-4 -28 -4 -43l-2 12q29 13 69 27q119 51 209 51q55 0 90 -24q41 -21 41 -64q0 -32 -26 -51q-28 -21 -62 -21l-28 7q-4 2 -27 2
q-60 0 -139 -29q-84 -34 -166 -76q-113 -339 -135 -401q-52 -134 -127 -291q-166 -347 -371 -559q-206 -215 -377 -215zM-285 -379q0 -72 26 -104.5t85 -34.5q155 0 360 217q272 284 478 821q116 300 116 342v-18q14 0 14.5 -2.5t-13.5 -9.5q-3 -2 -10 -6q-8 -4 -13 -7
q-15 -8 -51.5 -30t-59.5 -35q-81 -47 -123 -74l-90 -59q-186 -131 -352 -312q-170 -190 -264 -364q-103 -181 -103 -324zM51 874l-1 1q-6 16 -13 16q12 0 117 57q51 25 67 41q10 10 10 29v12q-9 -6 -28.5 -20.5t-30.5 -22.5q-48 -37 -88 -74q-33 -33 -33 -39z" />
    <glyph glyph-name="h" unicode="h" horiz-adv-x="1265" 
d="M-92 -152q-17 0 -55 19q-39 17 -52 57q-26 113 -26 205q0 252 241 737q-43 21 -57 35q-16 16 -16 53q0 25 8 41q10 17 37 41q22 25 73 56q70 52 89 67q31 25 51 53l65 103q4 6 113 168q225 345 438 606q224 274 291 274q31 0 53 -28q21 -28 21 -58q0 -76 -320 -510
q-468 -658 -663 -839q-44 -38 -74 -82q-87 -130 -158 -363q-67 -201 -67 -315q0 -9 -1.5 -10.5t-9.5 -1.5q17 26 56 102q94 172 217 360q126 192 215 300q104 129 147 129q76 0 82 -228q5 -76 27 -129q25 -55 86 -55t186 96q124 93 232 193q94 84 139 84q27 0 43.5 -17
t17.5 -49q0 -14 -15.5 -31.5t-55.5 -54.5q-53 -47 -166 -127q-245 -175 -369 -178q-82 0 -127 67q-43 63 -55 213q-2 32 -10.5 71.5t-8.5 47.5l-28 -28q-20 -20 -94 -111q-55 -75 -91 -127q-127 -214 -180 -334q-56 -124 -98 -260q30 -20 39 -29q12 -18 12 -49
q0 -39 -33 -80q-30 -41 -86 -63q-47 -21 -63 -21zM473 1479q24 48 213 297q59 80 137 188q54 75 58 79q3 2 -2 -10q-7 -14 -49 -92v-1l-1 -1v-1l-1 -1v-1l-1 -1v-1l-1 -1v-1l-1 -1v-1l-1 -1v-1l-1 -1v-1l-1 -1v-1l-1 -1q-128 -168 -192 -256q-9 -12 -23.5 -31.5t-22 -30
t-19.5 -26.5t-18.5 -24.5t-16 -20.5t-16 -19t-14 -14.5t-14 -12.5t-12.5 -9z" />
    <glyph glyph-name="i" unicode="i" horiz-adv-x="909" 
d="M47 489q-50 -1 -81 38t-40 110q-6 49 -6 108q3 220 64 363q45 89 120 92l33 2q50 -3 86 -26q37 -24 47 -70q0 -96 -84 -127q-28 -13 -67 -80q-47 -82 -74 -160q-33 -90 -35 -121q3 -15 14 -21.5t35 -6.5q84 3 179 45q45 24 344 199q244 160 307 172q65 -6 74 -60
q0 -61 -78 -90q-38 -15 -350 -172q-341 -174 -447 -192zM205 1511q6 58 49.5 92t120.5 42q116 -6 119 -91q-3 -44 -43 -84q-42 -45 -127 -51q-116 7 -119 92z" />
    <glyph glyph-name="j" unicode="j" horiz-adv-x="1034" 
d="M590 1616q-16 0 -51 14q-20 6 -56 33q-28 25 -28 63q0 44 47 82q43 37 108 37q114 0 129 -94q0 -37 -24 -72q-51 -63 -125 -63zM-543 -399q0 352 582 893q270 250 450 368l142 94l-8 43q-24 132 -64 192t-110 60q-79 0 -170 -59q-71 -48 -115 -98q-39 -50 -39 -66
q0 8 4 8q25 0 57 -14q5 -4 20.5 -16t22.5 -19q23 -23 23 -45q0 -55 -59 -90q-64 -31 -140 -31q-55 0 -98 37q-49 36 -49 80q0 49 47 117q44 68 110 131q204 180 367 180q56 0 113 -31q43 -25 90 -110q39 -86 47 -181q4 -31 10 -55q235 119 279 119q48 0 92 -35
q45 -39 45 -80q0 -34 -18 -52.5t-50 -20.5q-25 0 -53 14q-15 10 -39 10q-21 0 -100 -33q-43 -19 -117 -57q-32 -15 -45 -41q-13 -21 -16 -63q-23 -162 -125 -396q-108 -241 -234 -422q-99 -135 -239 -278q-135 -138 -238 -205q-91 -50 -174 -57l-49 -4q-48 -3 -90 43
q-62 65 -62 170zM-481 -412q0 -61 32 -84q37 -30 70 -30q36 0 98 26q121 49 285 205q166 159 301 361q212 321 285 616q24 79 24 109q2 2 9 -3q-17 0 -97 -51q-437 -283 -719 -618q-288 -329 -288 -531z" />
    <glyph glyph-name="k" unicode="k" horiz-adv-x="1087" 
d="M-258 -250q-118 0 -127 170q0 160 117 445q82 207 233 473l49 86l-14 12q-14 10 -27 27q-14 19 -14 41q0 32 43 69q36 37 119 101q53 42 78 69q61 64 250 338q180 254 239 326q56 68 100 71q39 0 64 -28q31 -28 31 -64q0 -40 -99 -190q-94 -152 -227 -332
q-126 -175 -250 -317q-127 -142 -182 -142q-2 0 -12.5 -13.5t-32.5 -48.5t-49 -83q-266 -468 -287 -752l-8 -94q17 -9 32 -17.5t23.5 -14.5t11.5 -7q23 -19 23 -53q0 -26 -25 -51q-21 -21 -59 -21zM2 614q0 107 317 392q58 55 95 84q36 29 59 34q22 11 51 11q70 0 115 -45
q49 -43 49 -91q0 -23 -8 -36q-9 -21 -45 -37q-40 -16 -94 -21q-143 -18 -336 -147q-129 -86 -129 -119q0 -12 65 -12q92 0 269 57q164 48 344 131q161 71 239 137q58 49 101 49q47 0 53 -61q0 -35 -39 -63q-37 -27 -125 -64q-89 -37 -258 -102q-439 -170 -612 -170
q-51 0 -80.5 18.5t-30.5 54.5z" />
    <glyph glyph-name="l" unicode="l" horiz-adv-x="1091" 
d="M-92 35q-73 0 -125 61q-49 61 -49 183q0 83 28 192q194 652 926 1401q196 199 242 199q34 0 52.5 -18.5t18.5 -51.5q0 -92 -159 -326q-166 -239 -355 -489q-139 -195 -186 -215q-23 -13 -70 -13q-55 0 -73 15q-17 9 -49 45q-310 -514 -310 -774q0 -60 24 -86.5t79 -26.5
q229 0 956 682q194 182 244 182q43 0 43 -57q0 -21 -35.5 -56t-124.5 -108l-397 -321q-266 -213 -430 -315.5t-250 -102.5zM276 1260l-92 -74q129 107 240 233q135 150 182 215l209 277l31 -29q-158 -133 -291 -283q-153 -170 -279 -339z" />
    <glyph glyph-name="m" unicode="m" horiz-adv-x="1597" 
d="M-217 225q-110 0 -119 94q0 43 55 162q29 63 193 391q193 378 190 431q10 72 56 118q44 47 110 47q53 0 83.5 -23t31.5 -65q0 -53 -66 -116q-81 -84 -198 -267q-127 -207 -180 -331q-1 -1 -2 -4q-6 -15 -8 -15q-3 1 -3 37l-22 -25q173 200 295 310q157 142 229 151
q38 1 56.5 -47.5t21.5 -152.5q0 -51 4 -91q2 -12 8 -12q35 0 236 158q100 74 133 74q41 0 129 -91q67 -67 104 -73q21 -8 66 -8q54 0 219 73q137 62 172 62q34 0 57 -23q21 -21 21 -51q0 -31 -23 -51q-25 -20 -233 -72q-131 -32 -187 -37q-107 0 -221 105q-67 67 -90 67
q-27 0 -233 -149q-95 -70 -144 -70t-65 55q-17 41 -17 134q0 28 -2.5 54t-3.5 30.5t2 13.5q-21 -6 -43 -25q-162 -127 -284 -295q-135 -187 -160 -313q-38 -160 -168 -160z" />
    <glyph glyph-name="n" unicode="n" horiz-adv-x="1345" 
d="M-250 213q-37 0 -53 16q-19 16 -23 52q-6 35 -6 69q0 73 49 187q49 107 193 350q186 315 229 446q20 65 64 109q47 41 96 41q37 0 76 -27q43 -24 43 -70q0 -64 -127 -219q-175 -228 -307 -444q-134 -219 -134 -260q0 -5 -13 6q-4 4 -1 4q9 7 29 25q40 35 72 77
q88 95 200 207q115 115 191 183q84 81 116 94q31 14 50 14q33 0 61 -41q29 -41 37 -98q12 -61 31 -141q30 -82 151 -82q98 0 230 59q135 60 229 145q70 70 102 70q14 0 27 -10q39 -22 39 -60q0 -61 -117 -133q-95 -55 -248 -106q-136 -45 -245 -45q-121 0 -179 61
q-57 60 -75 197q0 4 -15 69q-4 18 -6 23l-8 4q-35 -6 -154 -113q-136 -127 -256 -280q-120 -156 -143 -230q-12 -38 -59 -94q-67 -55 -146 -55z" />
    <glyph glyph-name="o" unicode="o" horiz-adv-x="1046" 
d="M12 504q-41 0 -88 47q-45 51 -45 139q0 116 94 336q58 127 58 152q6 67 53 94q44 26 90 26q49 -7 78 -24q26 -15 41 -17q8 0 41 11q44 14 78 14q65 -4 100 -44t35 -108q-6 -103 -80 -249l-25 -37l-12 12q33 9 90 25q58 13 197 53q41 11 102 29.5t78 23.5q92 35 145 35
q41 0 52 -25q10 -25 10 -59q-3 -41 -45 -53q-29 -13 -129 -31q-151 -31 -219 -43q-185 -32 -203 -35q-71 -10 -88 -16q-27 -6 -39 -15q-18 -12 -29 -30q-73 -88 -172 -150q-103 -61 -168 -61zM12 653q0 -9 3 -11.5t12 -4.5q46 0 110 43q31 23 84 65h6q-77 3 -176 39l-4 -14
q-3 -9 -20 -61q-3 -11 -8.5 -29.5t-6.5 -26.5zM90 860l16 -4q37 -12 199 -18l39 49q44 55 74 129q32 67 35 117q0 16 -4 18q-20 4 -46 4q-33 0 -92 -18q-46 -20 -73 -54q-56 -77 -64 -90q-36 -51 -59 -92z" />
    <glyph glyph-name="p" unicode="p" horiz-adv-x="1093" 
d="M-446 -528q-40 0 -60 26q-24 24 -24 115q0 317 282 901q89 190 105 264q18 59 39 86q24 47 24 66q0 49 103 141q92 92 223 262q146 194 211 264q74 80 114 80q32 -1 50 -19t18 -48q0 -69 -125 -244q-8 -11 -18.5 -26t-16.5 -24t-14 -20.5t-13 -18t-11 -14t-10 -12
t-8.5 -9t-8 -6.5t-6.5 -3q-1 0 -56 -2q159 67 254 67q80 0 121 -49.5t41 -144.5q0 -14 -1 -29t-1 -16q85 27 104 33q48 10 99 10q79 0 129 -41q51 -58 51 -105q0 -33 -23.5 -51t-62.5 -18q-48 0 -70 39q-14 20 -53 20q-49 0 -147 -28q-43 -11 -78 -31q-19 -13 -33 -45
q-77 -145 -244 -324q-265 -280 -407 -280q-47 0 -72 36q-25 41 -25 74q0 41 37 113q65 130 224 264q161 137 364 242q115 57 131 63v25q0 75 -14 92q-13 16 -47 16q-55 0 -142 -35q-94 -44 -170 -102q-62 -51 -116 -129q-51 -71 -51 -96q0 -43 -37 -86q-40 -43 -90 -43
l-58 4q-8 4 -26 4q-186 -369 -263 -578q-71 -207 -77 -419q0 -27 4 -31q-2 5 -4 4q17 0 39 -18q6 -10 20 -31q10 -20 10 -37q0 -22 -18 -43q-23 -27 -43 -37q-24 -18 -53 -18zM6 348q0 -4 3 -5t22 -1q118 0 354 242q137 140 236 299q1 -2 5.5 -8t7.5 -10.5t1 -4.5
q-9 0 -62 -20q-196 -91 -340 -209q-147 -117 -206 -236q-21 -41 -21 -47z" />
    <glyph glyph-name="q" unicode="q" horiz-adv-x="956" 
d="M143 -678q-50 0 -98 39q-25 22 -35 41q-12 28 -12 59q-4 40 -4 95q0 176 96 403q113 263 338 651q340 583 340 672q0 7 11 -2q4 -5 3 -6q-8 0 -57 -27l-229 -151q0 -129 -13 -166q-12 -43 -57 -66q-46 -22 -92 -22q-43 0 -82 24q-4 4 -8 4q-10 0 -80 -51
q-112 -86 -178 -86q-40 0 -63.5 27t-26.5 74q0 65 86 196q87 127 190 221q113 107 195 107q43 0 86 -29t43 -72l-1 -5l-1 2q-4 3 -5 3q31 21 60 43q180 132 264 132q38 0 61 -23q25 -25 25 -96q0 -70 -70 -213q-64 -139 -249 -445q-201 -338 -293 -518q-99 -187 -129 -311
q-34 -108 -37 -240q0 -61 14 -78q15 -17 49 -20q92 -13 92 -70q0 -21 -24 -45q-14 -17 -47 -35q-27 -16 -62 -16zM78 942q188 134 188 184q0 -4 5 -9t10 -5q-24 0 -175 -199z" />
    <glyph glyph-name="r" unicode="r" horiz-adv-x="942" 
d="M-125 354q-38 0 -55 17q-21 28 -37 75q-21 52 -21 89q0 63 248 524q76 141 86 205q8 43 39 92q53 47 111 47q47 0 94 -29q43 -37 43 -88q0 -30 -29 -67q-27 -37 -61 -52q-21 -16 -43 -43q-89 -107 -160 -239q-103 -176 -110 -219l-7 12q-19 0 3 25l31 31q44 43 69 71
q129 147 223 235q99 93 131 93q62 0 102 -70q10 -18 22.5 -48.5t22.5 -50.5t21 -28q40 -35 89.5 -48.5t90.5 -0.5q41 10 84 63q48 51 80 51q25 0 51 -26q25 -28 25 -53q0 -49 -90 -101q-83 -47 -209 -47q-52 0 -95.5 15t-73.5 39.5t-54 60t-39 71.5t-27 80
q-213 -194 -340 -407q-35 -57 -35 -90q0 -9 4 -45q0 -63 -57 -105q-61 -39 -127 -39z" />
    <glyph glyph-name="s" unicode="s" horiz-adv-x="948" 
d="M-403 -287q-47 3 -76 29t-33 72q0 79 45 161q58 95 225 252q176 165 338 279l131 94q-40 32 -57 51q-195 177 -195 242q0 133 72 240q65 96 143 114q84 0 125 -20q54 -25 54 -97q0 -57 -119 -102q-162 -70 -174 -145q3 -26 35 -58q20 -24 190 -178q492 359 619 359
q45 0 72 -19t28 -55q0 -62 -117 -94q-36 -8 -172 -74q-110 -55 -227 -123q-114 -64 -139 -84l2 4q7 -22 14 -37q19 -43 22 -131q-6 -100 -51 -188q-71 -125 -246 -262q-275 -212 -509 -230zM-457 -174q2 -14 13.5 -20t40.5 -7l18 2q25 2 111 23q222 78 415 252
q186 166 205 299q-3 51 -18 92q-12 30 -27 41q-42 -9 -166 -86q-285 -183 -457 -379q-116 -128 -135 -217z" />
    <glyph glyph-name="t" unicode="t" horiz-adv-x="626" 
d="M-207 -551q-11 0 -59 19q-34 21 -64 61q-27 44 -30 104q3 254 90 496q80 239 307 688q-36 7 -76 23q-48 23 -51 78q3 52 96 133q156 144 508 589q111 143 148 189q-49 -4 -234 -31q-806 -114 -901 -162q-22 -11 -37 -32q-25 -32 -43 -39q-26 -11 -92 -11q-65 0 -113 39
q-49 46 -49 80q0 42 55 78q54 28 160 31q79 3 696 80q592 72 639 84q313 413 369 478q53 62 62 54q37 -12 40 -61q0 -48 -155 -265q-147 -207 -150 -207q-1 0 2 7l-5 5q-7 5 -1 5q25 0 123 10q693 77 1217 80q167 0 231 -10q184 -32 184 -107q0 -19 -16 -45t-57 -26
q-32 0 -84 14q-143 41 -451 41q-364 -6 -858 -37q-306 -21 -346 -35q-14 -14 -86 -114q-379 -509 -524 -756q-125 -208 -246 -467q-126 -261 -187 -453q-59 -186 -59 -319q0 -80 12 -107q8 -18 25 -18l51 6q40 0 62 -19.5t24 -54.5q0 -27 -18 -45q-16 -22 -54 -37
q-32 -14 -55 -14z" />
    <glyph glyph-name="u" unicode="u" horiz-adv-x="1171" 
d="M59 670q-38 0 -67 26q-64 52 -64 164q2 41 15 141q25 142 43 179q23 33 61 47q33 16 80 16q55 0 84 -26q35 -27 35 -66q0 -47 -45 -104q-43 -52 -66 -117q-25 -58 -29 -103v-16q1 -4 -1 -5q-5 -1 -13 10q-2 3 0 3q5 0 217 185q90 80 128 110.5t50 30.5q10 0 27 -10
q13 -9 23 -25q10 -17 10 -45q-3 -34 -15 -88q-10 -45 -14 -82q0 -36 34.5 -53.5t113.5 -20.5q76 0 198 35q117 34 174 72q64 43 111 43q37 0 55 -29q17 -27 17 -45q-3 -55 -101 -98q-85 -36 -207 -58q-113 -22 -225 -22h-8q-120 0 -185 59t-65 156v20q0 3 14 -7q4 -3 2 -3
q-14 0 -124 -113q-169 -161 -263 -161z" />
    <glyph glyph-name="v" unicode="v" horiz-adv-x="1124" 
d="M104 379q-69 1 -103 119t-40 350q-9 201 -14 237l-2 39q0 69 55 103q55 30 98 30q48 -3 84 -36q37 -32 37 -72q0 -29 -33 -90q-24 -57 -53 -268q-18 -123 -20 -209q0 -58 4 -58l4 -4q16 0 213 209q282 305 456.5 453.5t256.5 148.5q102 0 102 -84q0 -41 -25 -63.5
t-71 -22.5q-72 0 -283 -170q-239 -195 -395 -370q-130 -147 -168 -183q-65 -59 -103 -59z" />
    <glyph glyph-name="w" unicode="w" horiz-adv-x="1486" 
d="M68 406q-62 0 -97 59q-34 49 -34 145q0 80 16 187q6 49 19 136.5t14 92.5q19 105 24 127q8 35 58 64q50 26 96 26q48 0 92 -35q47 -38 47 -80q0 -37 -27 -61q-19 -21 -73 -51q-37 -21 -82 -98q-44 -74 -86 -179q-35 -103 -35 -157q0 -37 20 -66q21 -27 41 -27q21 0 74 33
q67 42 268 303q180 239 250 281q42 20 80 20q60 0 96 -36q37 -34 37 -78q0 -50 -59 -109q-84 -78 -84 -237q0 -15 3 -29.5t3 -15.5h8q157 0 422 407q70 105 125 172q54 57 88 57q25 0 51 -22q23 -27 23 -51q0 -62 -119 -203q-392 -469 -569 -469q-33 0 -62 20
q-47 27 -67 105q-12 58 -23 227q-385 -382 -469 -442q-37 -16 -69 -16z" />
    <glyph glyph-name="x" unicode="x" horiz-adv-x="1335" 
d="M4 31q-49 0 -92 49q-28 35 -31 55q-2 14 -2 58q0 42 6 102q10 52 97 227q77 145 81 166q-2 10 -32 113q-28 81 -64 166q-23 65 -45 104q-20 26 -24 59q0 105 129 136l32 2q53 -2 85 -29t36 -74q0 -45 -20 -65q-12 -41 -15 -230q0 -30 3 -65q3 -16 1.5 -21.5t-10.5 -5.5
q-13 0 4 17q41 41 50 53q291 339 344 371q36 22 86 28q48 -3 94 -37q43 -43 51 -86q1 -55 -41 -83.5t-121 -28.5q-58 0 -90 -19q-40 -22 -172 -137q-159 -149 -168 -205q12 -67 76 -116q67 -52 147 -52h19q242 0 764 406q124 100 143 100q69 3 84 -69q-3 -49 -53 -72
q-47 -19 -305 -180q-205 -125 -332 -189q-111 -55 -191 -69q-59 -9 -133 -9q-108 0 -162 45q-50 44 -106 136l-10 12q-4 -4 -6 -8q-5 -5 -29 -37q-5 -10 -20 -38t-25 -48q-32 -62 -39 -94q-12 -34 -12 -109q0 -43 2 -51q0 -6 6 -12t24 -13q64 -28 70 -73q0 -64 -65 -80h-19z
" />
    <glyph glyph-name="y" unicode="y" horiz-adv-x="1525" 
d="M14 -618q-98 0 -148 53t-50 155q0 233 282 580q281 345 695 614q74 49 100 72q25 22 25 43q0 19 -21 57q-18 39 -49.5 56.5t-87.5 17.5q-164 0 -475 -196q-238 -136 -271 -136q-80 0 -80 105q0 112 95 352q37 95 84 115q43 18 88 18q49 0 90 -26q45 -25 45 -74
q0 -37 -31 -76q-36 -39 -65 -39q-16 0 -62 -57q-50 -52 -104 -133q-43 -67 -43 -88q0 5 -8 12q36 0 190 96q367 221 537 221q72 0 118 -34q47 -37 68 -78q26 -51 35 -78q7 -26 8 -27q29 7 106 45q97 45 193 76q94 27 152 27q53 -6 100 -43q49 -36 49 -76q0 -28 -23 -51
q-22 -19 -51 -19q-27 0 -53 13q-33 20 -82 20q-34 0 -139 -31q-120 -41 -187 -77q-47 -23 -47 -29q-10 -10 -10 -37q0 -146 -90 -379q-84 -237 -209 -430q-150 -236 -340 -387q-185 -147 -334 -147zM-117 -424q0 -41 6 -53q5 -13 23 -27q33 -33 82 -33q31 0 96 21
q225 90 438 358q218 269 332 602q68 216 68 299q0 14 11 2q7 -8 3 -8q-9 0 -78 -41q-412 -240 -702 -590q-279 -337 -279 -530z" />
    <glyph glyph-name="z" unicode="z" horiz-adv-x="1118" 
d="M-301 -426q-48 6 -86 35q-89 66 -92 192q15 186 282 471q93 101 267 236q182 142 295 201l61 32q-165 35 -180 45q-21 14 -21 48q7 60 82 161q47 59 84 123q17 28 29 56q-7 -2 -24.5 -9.5t-28.5 -11.5q-157 -71 -172 -123v-61q-18 -82 -140 -82q-102 9 -137 104
q-4 32 -4 51q9 67 119 136q91 60 229 110q120 47 197 47q49 -1 74.5 -29.5t25.5 -78.5q0 -88 -145 -242q-99 -114 -99 -119q0 14 35 8q39 -7 72 -10q54 -8 100 -22q44 -13 62 -13q16 0 118 29q159 57 265 57q61 -9 100 -34q39 -29 39 -62q0 -75 -156 -82q-101 -3 -262 -53
q-4 -50 -4 -57q-1 -7 -2 -24t-2 -25l-10 -78q-55 -430 -461 -731q-277 -197 -469 -197zM-403 -199q0 -48 28 -80q16 -26 35 -36q32 -16 109 -19q45 0 104 19q195 59 381 213q176 148 276 340q83 162 86 333q0 63 -12 72q-31 -8 -153 -59q-378 -190 -609 -408
q-224 -213 -245 -375z" />
    <glyph glyph-name="braceleft" unicode="{" horiz-adv-x="1218" 
d="M205 -307q-91 0 -142 67q-36 52 -36 136q0 146 137 589q68 221 86 314l8 4q-57 -45 -96 -45q-38 0 -58 33q-14 28 -14 57q0 38 39 108q83 127 176 127l37 -4q6 0 8 2q3 3 23 33q5 7 12 18.5t17.5 29.5t19.5 32q224 385 362 899q44 157 82 238q40 87 74 112q40 29 74 29
q72 0 116 -80q35 -65 35 -123q0 -57 -35.5 -87t-103.5 -30h-31q-20 0 -26 -2q-3 -2 -11 -16l-57 -168q-134 -421 -412 -876q-79 -133 -92 -216q-11 -83 -102 -327q-184 -464 -184 -619q0 -51 16.5 -71.5t56.5 -20.5q66 0 164 76q81 63 135 63q44 0 64 -28q18 -21 18 -49
q0 -53 -86 -105q-64 -46 -149 -74q-65 -26 -125 -26z" />
    <glyph glyph-name="bar" unicode="|" horiz-adv-x="1355" 
d="M176 -201q-125 0 -125 205q0 330 664 1649l172 336q98 197 104 256q15 96 76 163q63 66 125 66q28 0 55 -27q47 -50 47 -102l-2 -16q-31 -163 -125 -191q-33 -4 -227 -356q-332 -580 -506 -983q-221 -504 -221 -774q0 -19 27 -43q43 -37 43 -80q0 -46 -43 -78
q-31 -25 -64 -25z" />
    <glyph glyph-name="braceright" unicode="}" horiz-adv-x="1267" 
d="M178 -307q-72 0 -115 82q-36 67 -36 121q0 58 36 88t103 30l31 -2q10 0 26 4q5 0 13 17l57 168q134 418 412 876q80 136 92 215q11 85 102 328q184 468 184 618q0 49 -17.5 71t-57.5 22q-68 0 -162 -76q-82 -64 -137 -64q-42 0 -62 29q-20 23 -20 49q0 49 88 105
q53 38 149 73q67 25 123 25q95 0 143 -66q35 -53 35 -135q0 -153 -135 -590q-68 -221 -86 -311l-8 -6q54 45 96 45q36 0 53 -33q19 -25 19 -59q0 -42 -41 -107q-80 -127 -176 -127l-37 4q-2 0 -6 -4q-5 0 -23 -30q-30 -46 -49 -80q-224 -388 -362 -899q-44 -157 -82 -238
q-37 -82 -76 -112q-40 -31 -74 -31z" />
    <glyph glyph-name="asciitilde" unicode="~" horiz-adv-x="1376" 
d="M389 705q-56 0 -80 34q-51 54 -51 148q0 56 27 145q16 53 63 80q49 27 98 27q59 0 103 -35q47 -30 47 -82q0 -44 -37 -76q-36 -36 -94 -45q-39 -4 -55.5 -21t-16.5 -53q0 -5 1 -6t9 -2q46 0 215 78q334 141 484 141q53 0 76 -18q24 -16 41 -72q12 -52 12 -102
q0 -56 -21 -96q-27 -27 -61 -27q-67 0 -70 53q0 38 39 86q29 39 29 60q0 12 -10.5 17t-40.5 5q-126 0 -475 -160q-158 -79 -232 -79z" />
    <glyph glyph-name="exclamdown" unicode="&#xa1;" horiz-adv-x="1267" 
d="M1001 2353q-41 0 -75 27q-31 28 -31 78q0 54 55 90q50 35 109 35q32 0 71 -17q39 -22 39 -67q0 -35 -22 -66q-15 -30 -66 -57q-48 -23 -80 -23zM147 168q0 44 21 76q27 31 65 49q44 24 168 227q138 228 291 533q182 350 256 575q68 210 80 420q0 32 -29 55q-41 44 -41 82
q0 42 37 60q32 18 56 18q35 0 77 -45q39 -42 39 -123q0 -61 -18 -141q-24 -161 -121 -408q-82 -215 -311 -672q-135 -274 -191 -393q-71 -152 -84 -196q-20 -62 -20 -84l2 -8q3 -127 -145 -142q-57 0 -91.5 30t-40.5 87z" />
    <glyph glyph-name="cent" unicode="&#xa2;" horiz-adv-x="925" 
d="M412 -184q-97 0 -133 211q-17 119 -17 233q0 32 -4 67q-2 15 -1 20t9 5q-21 0 -86 56q-114 117 -114 319q0 206 122 459q24 46 76 112q119 150 170 150q4 0 8 16q54 239 62 342q10 73 18 113q18 52 47 72q52 37 109 37q56 0 94 -35q35 -28 35 -72q0 -60 -105 -133
q-34 -37 -106 -240q-25 -80 -25 -88v-2q2 0 4.5 -0.5t6.5 -1.5l8 -2q26 -8 59 -43q37 -30 70 -74q33 -42 43 -75l2 -33q0 -78 -70 -121q-51 -31 -90 -31q-97 0 -100 152l2 51q0 24 12 25q6 0 -0.5 -28t-28.5 -113.5t-40 -174.5q-17 -74 -31 -176q-23 -144 -31 -211
q-12 -102 -12 -133q0 -3 2.5 -3.5t19.5 -0.5q34 0 76 37q50 40 66 84q40 65 92 65q38 0 58 -22.5t20 -61.5q0 -42 -50 -104q-48 -62 -102 -98q-63 -34 -184 -43q20 -198 35 -265q15 -69 41 -98q38 -41 38 -74q0 -31 -22 -47q-22 -22 -53 -22zM158 690q0 -149 94 -198l20 -13
l15 109q41 312 75 483q37 200 37 219v-16q15 0 17.5 -2t-4.5 -12q-19 -16 -47 -52q-94 -108 -152 -247q-55 -140 -55 -271z" />
    <glyph glyph-name="sterling" unicode="&#xa3;" horiz-adv-x="919" 
d="M59 190q-23 0 -39 19q-14 17 -14 39q0 32 74 135q118 153 153 285h-10q-59 0 -102 34q-49 36 -55 82q0 32 38 64q26 33 68 33q33 0 47 -2q2 0 24.5 -4t39.5 -5q15 0 20.5 9t5.5 36q0 -6 -6 -4q-4 1 -7.5 2t-12 2.5t-17.5 2.5q-52 10 -88 38q-41 35 -41 72q0 18 17 41
q15 23 34 39q21 18 56 18q29 0 43 -2q10 -3 53 -6q16 0 20 2l1 3q1 3 1 7q91 429 132 496q41 68 112 68q54 0 96 -45q44 -44 68 -99q27 -59 27 -92q0 -49 -39 -82q-29 -39 -80 -39q-21 0 -51 6q-7 1 -28 4.5t-34 4.5q-12 0 -61 -207l43 -8q92 -32 92 -103q0 -78 -123 -78
q-45 0 -53 -2t-10 -4q-6 -8 -11 -30q-6 -14 -12 -43q-2 -5 -4 -15l-2 -5v1q0 13 17 18l14 1l67 4q49 0 77 -19.5t28 -58.5q-3 -92 -117 -92h-12q-134 0 -140 -47q-84 -210 -96 -248q28 4 127 28q195 52 262 52q37 0 57.5 -18.5t20.5 -53.5q0 -52 -39 -74q-39 -19 -115 -28
q-336 -51 -411 -93q-73 -39 -105 -39z" />
    <glyph glyph-name="currency" unicode="&#xa4;" horiz-adv-x="1345" 
 />
    <glyph glyph-name="yen" unicode="&#xa5;" horiz-adv-x="1005" 
d="M502 25q-42 0 -65 26t-23 72q0 129 80 457l10 43q0 -6 4.5 -11.5t9.5 -5.5q-13 0 -65 -24q-79 -37 -129 -37q-54 3 -86 35q-35 25 -35 65q0 75 76 100q69 26 243 52l25 4q67 231 153 495q-3 -4 -11.5 -15.5t-14.5 -18.5q-247 -330 -408 -330q-119 0 -160 178
q-10 78 -10 330q0 133 2 180q3 38 49 72q46 32 82 32q42 0 97 -43q57 -48 57 -100q0 -71 -78 -100q-12 -5 -20 -13q-12 -12 -23 -96q-20 -100 -20 -180q0 -119 41 -119q39 0 133 94q101 101 217 263q66 95 119 161q44 59 67 82q30 30 53 27q16 -4 29 -17q15 -15 17 -24
q6 -18 6 -29q-3 -36 -72 -207q-88 -212 -141 -372q-57 -181 -60 -228q0 -20 -9 -21q-9 -2 -14 10q-4 10 7 11q126 21 178 21q133 0 133 -90q-3 -44 -45 -72q-43 -29 -94 -29l-37 2q-153 0 -168 -41q-15 -47 -29 -211q-6 -117 -6 -174q0 -35 4 -71q4 -20 4 -52q0 -81 -73 -81
z" />
    <glyph glyph-name="brokenbar" unicode="&#xa6;" horiz-adv-x="565" 
 />
    <glyph glyph-name="section" unicode="&#xa7;" horiz-adv-x="20527" 
d="M2281 -367q-99 0 -165 115q-66 107 -66 313q0 223 90 564q85 323 346 1050q93 258 144 424q46 147 61 230q12 65 16 155v13h-2q-43 0 -256 -213q-138 -147 -290 -355q-161 -229 -375 -569q-147 -239 -230 -338q-92 -111 -159 -111q-95 0 -148 174q-11 34 -14 66
q-4 22 -8 88q-2 41 -2 340q0 365 -2 422q-3 75 -11 108l-6 13q-7 0 -51 -47q-65 -62 -121 -131q-63 -66 -127 -146q-161 -219 -317 -491q-151 -263 -238 -482q-44 -116 -76 -243q-36 -141 -36 -185q0 -15 1 -17.5t7 -2.5q47 0 73.5 -22t28.5 -60q0 -55 -80 -107
q-67 -26 -116 -26q-54 0 -83.5 26.5t-29.5 75.5q0 54 18 146q82 378 334 856q243 450 582 848q149 161 239 161q142 0 142 -284q0 -71 -13 -224q-14 -183 -14 -383q0 -232 21 -294q12 -33 21.5 -45.5t23.5 -12.5q31 0 102 103q71 100 227 358q430 720 719 985
q177 168 273 168q54 0 84 -49q26 -47 26 -115q0 -76 -43 -221q-47 -145 -158 -453q-226 -623 -344 -1040q-104 -365 -104 -598q0 -86 12 -166q15 -102 41 -147q21 -45 70 -66q84 -32 84 -80q0 -33 -31 -57q-31 -21 -70 -21zM2513 631q0 117 98 346q60 138 60 158q6 68 53 98
q50 24 92 24q47 -6 82 -24q24 -13 41 -16q13 0 43 10q47 14 80 14q67 -4 103 -45t36 -111q-6 -109 -82 -258q-7 -11 -14 -20.5t-10 -13.5t-3 -5l-12 13q6 0 94 26q91 20 203 56q41 11 104 29.5t83 23.5q93 37 149 37h-6q124 223 156 321q20 68 65 113q47 41 98 41
q37 0 78 -25q45 -26 45 -73q0 -70 -131 -226q-193 -253 -317 -458q-137 -224 -137 -271q0 -4 -12 6q-6 5 -3 5q9 6 29 26q37 30 76 80q115 122 206 213q108 109 197 188q84 81 121 99q32 14 49 14q37 0 64 -43q26 -37 38 -100q17 -93 33 -146q27 -86 156 -86q99 0 237 62
q144 66 236 149q34 34 55 49q13 72 45 152q46 91 125 94l33 2q52 -3 88 -29q39 -23 49 -69q0 -46 -23 -81t-65 -50q-26 -12 -69 -84q-35 -60 -76 -164q-32 -89 -35 -125q3 -18 13.5 -24.5t37.5 -6.5q88 3 184 47q30 16 355 205q220 144 295 170q24 31 55 58q157 142 524 606
q45 59 154 194q-65 -6 -244 -30q-833 -117 -930 -168q-21 -9 -39 -31q-19 -31 -45 -43q-27 -10 -94 -10t-117 41q-49 43 -49 82q0 40 58 79q48 28 163 31q61 2 719 82q603 74 660 88q323 422 358 465q75 92 86 84q38 -12 41 -63q0 -47 -160 -273l-85 -120q-66 -93 -68 -94
q-1 0 2 7q-7 10 -6 11q25 0 127 10q705 79 1255 82q167 0 240 -11q188 -31 188 -108q0 -21 -16 -47q-17 -27 -58 -27q-30 0 -88 15q-142 43 -465 43q-423 -6 -886 -39q-317 -21 -357 -35q-12 -12 -90 -119q-395 -533 -540 -780q-133 -222 -254 -484q-130 -272 -193 -467
q-61 -189 -61 -329q0 -84 12 -111q8 -18 27 -18l53 6q40 0 63 -20.5t25 -55.5q0 -28 -21 -49q-16 -22 -53 -35q-32 -14 -57 -14q-15 0 -60 18q-29 16 -67 64q-28 45 -31 106q3 264 92 512q78 232 318 711q-51 12 -80 24q-4 4 -10 7q-241 -118 -340 -168q-352 -181 -461 -199
l-41 -2q-51 -1 -83.5 39t-41.5 112q-6 52 -6 113v29l20 11q-1 -1 -2 -1q-91 -54 -256 -111q-146 -47 -254 -47q-120 0 -184 64q-60 66 -78 203q-2 18 -14 71q-3 19 -6 25q-2 1 -5 2t-4 2q-36 -6 -159 -117q-130 -119 -264 -289q-124 -161 -150 -237q-13 -41 -59 -96
q-70 -58 -152 -58q-36 0 -53 17q-20 20 -23 53q-8 31 -8 72q0 68 51 190q48 104 199 363l-16 -29q25 4 0 -1q-4 -1 -13 -3q-23 -5 -67 -14t-83 -17t-75 -14q-182 -31 -211 -35q-67 -10 -90 -19q-29 -6 -39 -14q-18 -10 -31 -31q-74 -89 -178 -155q-108 -64 -172 -64
q-41 0 -90 49q-47 50 -47 144zM2650 592q0 -9 2.5 -12.5t11.5 -4.5q48 0 115 46q51 35 88 67h4q-84 3 -180 41l-6 -14q-3 -10 -11 -34t-10 -32q-2 -9 -5.5 -21t-5.5 -20.5t-3 -15.5zM2730 807q0 -2 16 -6q45 -13 207 -19l39 52q41 51 78 133q32 70 35 120q0 19 -4 21
q-20 4 -47 4q-40 0 -95 -20q-47 -19 -77 -56q-62 -87 -66 -92l-61 -94zM6537 715q0 51 68 147q76 105 147 178q92 92 162 129q59 25 111 25q100 0 176 -49q86 -55 86 -121q0 -49 -47 -84q-55 -36 -119 -33l-35 2q21 -166 62 -256q28 -63 92 -106q38 -27 104 -27q73 0 125 10
q56 10 129 50q164 82 320 178q180 106 256 170q81 69 143 69q32 0 49 -18t19 -49q0 -14 -5 -39q-25 -57 -184 -156q-150 -90 -344 -176q-303 -131 -448 -131q-196 0 -277 131q-58 93 -92 277q-11 81 -23 118q-67 -46 -282 -233q-88 -76 -135 -76q-49 0 -58 70zM6554 -580
q0 117 258 117q142 0 192 -31q32 -14 111 -14q173 0 702 29q1255 58 2194 78q540 12 1271 18q26 162 146 360q151 248 395 480q231 231 539 415q107 68 125 97q12 44 12 88q0 80 -29 86q-14 0 -112 -49q-195 -94 -195 -133q0 -36 -43 -70q-46 -27 -94 -27q-43 0 -182 -80
q-146 -84 -213 -84q-44 0 -74 33q-14 14 -21 31l-122 -61l-156 -78q-356 -182 -461 -199l-43 -2q-51 -1 -83.5 39t-41.5 112q-6 53 -6 113q3 221 66 375q52 91 124 94l33 2q51 -3 90 -29q38 -24 47 -69q0 -101 -88 -131q-29 -14 -67 -84q-46 -76 -76 -164q-34 -84 -37 -125
q3 -18 13.5 -24.5t37.5 -6.5q89 3 185 47q35 18 85.5 47t131 76.5t139.5 81.5q204 137 289 168q23 32 65 74q87 87 172 143q75 43 150 43q56 0 102 -32q51 -25 66 -72q-6 6 -8 6q15 0 77 37q169 112 250 112q99 0 99 -163q-3 -50 -9 -76q-4 -24 -4 -43l-2 12q7 3 32 12.5
t42 16.5q122 51 215 51q55 0 94 -25l-6 5q90 167 117 247q20 68 65 113q47 41 99 41q29 0 77 -25q43 -27 43 -73q0 -71 -131 -226q-182 -243 -317 -458q-137 -229 -137 -271q0 -4 -12 6q-6 5 -3 5q5 0 31 26q44 38 74 78q88 96 207 215q133 130 196 188q89 83 121 99
q35 14 51 14q32 0 64 -43q28 -41 37 -100q14 -76 35 -146q27 -86 153 -86q96 0 238 62q143 64 237 149q31 34 62 53q46 59 108 125q87 91 160 129q59 25 113 25q98 0 174 -49q86 -55 86 -121q0 -49 -47 -84q-55 -36 -119 -33l-35 2q21 -169 61 -256q27 -62 93 -106
q38 -27 104 -27q73 0 125 10q55 10 131 50q169 86 318 178q180 106 256 170q31 28 61 43q8 7 26.5 20t20.5 15q87 61 225 204t369 404q39 45 262 307l66 76q-605 -4 -1068.5 -16.5t-717.5 -29t-381.5 -29.5t-192.5 -26q-225 -46 -299 -67q-42 -16 -49 -29q-8 -6 -6 -22
q0 -39 -18 -60q-17 -17 -54 -30q-41 -18 -96 -15q-63 3 -76 35q-11 11 -26 21l-4 16q-30 118 194 194q122 44 356.5 76t466.5 47.5t571.5 24.5t537 10t505 0.5t342.5 -0.5l101 2q194 224 268.5 304.5t85.5 72.5q40 -12 43 -63q0 -25 -42 -87.5t-136 -185.5l-31 -39
q51 1 149 2t140 2q210 3 280 11q37 3 510.5 8.5t577.5 5.5q145 0 150 -56q4 -44 -74 -95q-47 -31 -107 -52q-22 -10 -240 6t-494.5 37t-389.5 21q-23 0 -95 4t-124 4h-367q-83 -109 -235 -291q-451 -546 -615 -782q-118 -169 -287 -484q-135 -251 -219 -465
q-67 -201 -67 -329q0 -87 14 -109q10 -20 35 -20l57 6q44 0 69.5 -20.5t27.5 -55.5q0 -28 -21 -49q-23 -23 -61 -35q-38 -14 -62 -14q-15 0 -67 18q-38 18 -74 64q-32 43 -35 106q3 266 104 514q92 245 400 787q-30 -16 -60 -37q-8 -5 -27.5 -18t-38 -25.5t-36.5 -24.5
q-150 -90 -344 -176q-303 -131 -449 -131q-195 0 -276 131q-58 93 -92 277q-11 81 -23 118q-67 -46 -282 -233q-88 -76 -136 -76q-32 0 -47 35q-72 -33 -168 -64q-143 -47 -251 -47q-121 0 -185 64q-60 63 -78 203q-2 18 -14 71q-3 20 -8 23q-1 1 -4 3t-4 3
q-34 -6 -160 -117q-125 -117 -264 -289q-128 -170 -148 -237q-14 -43 -61 -96q-67 -58 -150 -58q-32 0 -55 15q-19 23 -22 57q-7 35 -7 70q0 73 52 190q54 121 198 363l47 77q-2 2 -26 2q-62 0 -144 -30q-36 -14 -172 -78q-104 -315 -139 -416q-48 -120 -131 -299
q-129 -272 -287 -469q438 4 688 4q1713 0 1799 15q6 2 26 2q55 0 107 -27q58 -36 61 -80q0 -36 -39 -59q-38 -19 -78 -19q-43 0 -92 27q-19 45 -1796 45l-758 -2q-1 -1 -3.5 -4t-5 -5.5t-5.5 -4.5q-213 -222 -389 -222q-85 0 -139 60q-58 67 -58 182v-10q-882 -6 -1583 -19
q-1075 -23 -2089 -102q-378 -29 -436 -37q-78 -9 -98 -29q-46 -38 -146 -38q-78 0 -174 16q-95 16 -157 41q-39 31 -39 65zM6728 848q6 5 22.5 20t36 32.5t39.5 35.5q53 48 61 49q5 0 5 -10h22q-57 -43 -129 -109q-6 -6 -42 -53q-20 -26 -21 -8q0 12 6 43zM8616 1028
q0 144 92 309q94 160 287 353q413 416 1014 706q337 170 673 277q318 96 527 96q168 0 260 -66q88 -69 88 -182q0 -234 -344 -616q-339 -373 -1036 -858q-133 -86 -236 -164q-54 -33 -115 -33q-132 0 -141 98q0 38 10 58q10 17 48 40.5t118 65.5q189 98 465 270
q627 409 930 795q172 216 172 340q0 58 -49.5 85.5t-155.5 27.5q-239 0 -647 -131q-389 -126 -793 -351q-435 -253 -751 -557q-317 -305 -351 -532q0 -41 29 -92q21 -48 66 -78q70 -47 219 -74q143 -30 463 -45q290 -20 389 -39q107 -15 192 -57q91 -40 107 -82q4 -12 8 -12
q6 0 86 22q105 43 154 43q43 0 63 -20q23 -23 23 -50q0 -21 -13 -47q-14 -22 -61.5 -41.5t-149.5 -50.5q-21 -7 -43 -15t-33.5 -13t-21.5 -8.5t-14 -2t-4 8.5q0 -22 -39 -64q-176 -204 -475 -344q-174 -86 -238 -86q-24 0 -37.5 14.5t-13.5 38.5q0 52 83.5 132.5
t258.5 201.5q212 145 362 215q47 22 47 25l-8 6q-41 47 -192 76q-198 36 -516 55q-265 18 -398 43q-358 59 -358 309zM9433 12l-43 -6q68 10 127 33q226 90 381 211q84 70 109 94q-265 -125 -385 -197q-68 -39 -122.5 -79t-66.5 -56zM10918 1479q12 121 174 137
q120 -6 123 -92q-3 -44 -45 -86q-42 -48 -131 -54q-118 7 -121 95zM11344 -473q0 -76 26.5 -109.5t88.5 -35.5q124 0 288 145l-403 -2v2zM11354 -383l490 4q273 292 479 834q121 307 121 354v-18q14 0 14 -3q-1 -3 -39 -24q-62 -36 -113 -68q-73 -40 -127 -78
q-19 -11 -51 -31.5t-45 -27.5q-194 -138 -360 -321q-177 -196 -275 -377q-78 -144 -94 -244zM11690 821l-1 1q-7 15 -13 16q14 0 120 59q59 26 68 41q14 14 14 31v14q-7 -5 -28 -20.5t-35 -24.5q-47 -37 -90 -76q-35 -35 -35 -41zM14291 827q21 14 127 109q52 47 59 49
q5 -3 6 -10h23q-62 -47 -127 -109l-41 -41q-8 -16 -20 -28zM16525 807q2 40 15 145q27 142 45 185q18 30 63 47q33 16 82 16q54 0 86 -26q37 -27 37 -68q0 -47 -47 -107q-48 -61 -68 -120q-27 -64 -30 -107v-14q-12 6 -13 6q9 0 224 192q18 16 43 37t38.5 32.5t30.5 25.5
t26.5 21.5t19.5 14.5t16 10t10 3q9 0 26 -10q13 -9 23 -25q10 -15 10 -47q-4 -44 -14 -90q-11 -50 -14 -86q0 -37 35.5 -55t117.5 -21q80 0 205 35q125 38 180 76q55 37 98 43l50 92q76 138 90 211q8 45 39 94q55 49 114 49q53 0 97 -29q43 -40 43 -92q0 -30 -29 -67
q-22 -38 -66 -54q-5 -4 -43 -45q-90 -112 -163 -248q-108 -183 -115 -227l-4 12q-22 0 3 28q9 11 37 39q41 41 64 67q142 158 232 241q55 51 85.5 73.5t49.5 22.5q63 0 104 -71q10 -18 23 -49.5t23.5 -52t21.5 -29.5q41 -37 92 -51t94 0q21 5 45 22q28 54 74 109
q65 76 141 137q77 59 123 59q38 0 66 -22q24 -24 24 -64q0 -72 -133 -246q-59 -98 -155 -92l-58 4q-6 2 -10.5 -2.5t-11.5 -21.5q-17 -28 -17 -51q0 -25 23 -38t76 -14q40 0 133 21q132 28 667 217q334 121 379 121q29 -1 44.5 -18.5t15.5 -47.5q0 -35 -13 -55
q-11 -19 -57 -33q-51 -22 -500 -141q-416 -111 -477 -125q-126 -33 -203 -33q-87 0 -132.5 40t-45.5 118q0 15 4 43q-20 -2 -63 -2q-67 0 -119 22.5t-86 63.5t-55.5 86t-36.5 102q-223 -202 -352 -422q-37 -56 -37 -92q0 -11 4 -47q0 -64 -58 -106q-62 -41 -131 -41
q-41 0 -57 16q-17 22 -37 78q-22 51 -22 92q0 42 100 240q-53 -14 -121 -27q-118 -22 -233 -22h-8q-124 0 -191.5 60.5t-67.5 160.5v20q0 3 15 -8q4 -2 2 -2q-18 0 -129 -117q-175 -166 -271 -166q-39 0 -71 29q-64 55 -64 168zM20290 1020q0 45 38 80q35 41 97 41
q33 0 69 -25q33 -26 33 -61q0 -49 -51 -88q-54 -33 -98 -33q-43 0 -64 27q-24 24 -24 59z" />
    <glyph glyph-name="dieresis" unicode="&#xa8;" horiz-adv-x="520" 
d="M180 1561q-44 0 -80 32q-26 33 -26 70q0 45 47 102q47 47 119 47q47 0 86 -28q41 -33 41 -76q0 -54 -66 -106q-59 -41 -121 -41zM559 1683q0 48 49 103q47 47 117 47q53 0 86 -29q43 -31 43 -75q0 -56 -68 -107q-61 -41 -118 -41q-45 0 -82 33q-27 39 -27 69z" />
    <glyph glyph-name="copyright" unicode="&#xa9;" horiz-adv-x="1212" 
d="M532 184q-184 0 -294 271q-26 56 -35 135q-6 51 -10 213q0 401 163 594l9 10q59 70 362 70q169 0 248 -43q53 -53 84 -113q26 -53 26 -184q0 -85 -26 -232q-27 -149 -62 -250q-78 -216 -202 -340q-128 -131 -263 -131zM301 715q0 -168 57 -291q51 -111 154 -111
q28 0 55 6q31 5 47 15q59 29 134 119q70 78 126 184q49 101 95 264q37 139 37 256l2 66q0 37 -9 49q-7 16 -32 39q-25 21 -45 24q-16 8 -84 8q-175 0 -187 -40q-3 -40 -53 -78q-50 -41 -104 -41q-32 0 -41 -17q-16 -32 -68 -45q-26 -6 -53 -127q-31 -136 -31 -280zM430 836
q0 126 72 227q72 104 162 104q42 0 90 -45q47 -43 73 -92q33 -58 33 -100q-6 -54 -51 -90q-44 -29 -100 -29q-47 0 -84 27q-41 24 -41 63q0 13 22 74q23 56 23 67q0 -4 6 -8q-17 -4 -43 -39q-33 -38 -70 -104q-28 -55 -28 -92q0 -47 30 -68q29 -29 66 -29q38 0 74 39
q55 64 106 64q30 0 48.5 -20t21.5 -56q0 -69 -70 -111q-61 -40 -135 -40q-100 0 -154 79q-51 79 -51 179z" />
    <glyph glyph-name="ordfeminine" unicode="&#xaa;" horiz-adv-x="555" 
d="M360 1202q-18 0 -45 23q-22 22 -22 61q0 6 1 7t7 1q-3 0 -41 -10q-70 -24 -106 -24q-115 0 -127 118q0 61 41 123q40 66 104 109q53 28 102 45q66 16 101 16l18 -2q-4 0 0 4q0 2 3.5 18t4.5 27q5 22 5 49v21q-23 0 -68 -70q-56 -96 -145 -96q-47 0 -89 25q-45 28 -45 73
q0 67 105 142q106 68 225 86q48 0 84 -45q35 -41 35 -115q0 -38 -12 -84q-11 -53 -11 -78q1 -3 1.5 -7.5t1 -7t1.5 -3.5q5 -25 7 -41q4 -36 4 -88q0 -59 -33 -95q-14 -17 -14 -28l6 -62q0 -44 -37 -67q-31 -25 -62 -25zM168 1386q0 4 -4.5 9.5t-7.5 5.5q9 0 69 35
q15 9 34 23q16 9 17 3q0 3 2 -2q6 -12 -4 -12q-39 0 -81 -37z" />
    <glyph glyph-name="guillemotleft" unicode="&#xab;" horiz-adv-x="1343" 
d="M670 467q-38 0 -54 37q-12 44 -108 96q-98 58 -244 105q-72 21 -139 49q-48 18 -68 47q-14 28 -14 71q0 58 172 306q166 255 184 309q29 85 54 121q37 55 114 55q34 0 76 -27q62 -23 62 -69q0 -39 -62 -107q-63 -70 -184 -188q-349 -343 -355 -406q4 -7 15 -14
q14 -11 69 -33q18 -7 70.5 -24t87.5 -29q56 -19 131 -51q59 -25 123 -58q56 -25 78 -45q32 -16 41 -34q10 -17 10 -41q0 -33 -12 -48q-15 -19 -47 -22zM625 928q0 39 96 159q147 166 147 246q0 42 39 84q40 43 82 43t103 -33q59 -38 59 -92q0 -35 -35 -67q-22 -24 -160 -119
q-264 -173 -264 -211q0 -4 94 -51q105 -53 246 -101q164 -64 182 -79q27 -27 27 -64q0 -32 -22 -51q-17 -23 -45 -23q-35 0 -82 47q-51 48 -330 189q-28 13 -98 55q-39 31 -39 68z" />
    <glyph glyph-name="logicalnot" unicode="&#xac;" horiz-adv-x="1298" 
d="M1114 436q-35 0 -82 47q-43 49 -43 86q0 59 88 207q70 119 70 123q0 9 -86 12q-77 0 -227 -16q-92 -10 -263 -39q-112 -19 -165 -43q-59 -29 -119 -29q-70 0 -111 35q-43 40 -43 78q0 47 47 74q44 26 111 26q69 0 272 21q340 29 424 29q94 0 148 -13q53 -12 75 -37
q19 -25 19 -55q0 -42 -66 -156q-61 -105 -61 -135q0 -19 11 -32t38 -23q51 -29 51 -78q0 -35 -31 -59q-30 -23 -57 -23z" />
    <glyph glyph-name="registered" unicode="&#xae;" horiz-adv-x="813" 
d="M342 1200q-77 0 -149 60q-64 56 -107 176q-16 53 -18 98q-7 65 -7 356l43 37q41 33 93 33l36 -2q57 0 134 12q79 15 129 15q115 0 174 -62.5t61 -183.5q0 -57 -16 -135q-45 -180 -148 -289q-109 -115 -225 -115zM166 1501q0 -100 47 -158q47 -53 135 -53q34 0 58 6
q7 3 51 25q98 70 153 186q60 117 60 232q0 76 -33 110.5t-107 36.5q-11 0 -81 -12q-56 -14 -95 -27q-32 -11 -37 -16q0 -5 3 -2q2 2 3 3.5t5 4t7.5 3.5t10 2t12.5 -1q61 -6 93 -31q29 -23 32 -81q0 -37 -34 -109q-21 -38 -21 -45q0 4 -4.5 9t-7.5 5q5 0 43 17q85 45 133 45
q39 0 53 -17t17 -45q3 -106 -248 -125q-47 0 -70 19q-22 19 -22 61l6 62q1 -1 3 -2t5.5 -3.5t6 -4t1.5 -1.5l1 -1q3 -3 -1 -11q-6 -21 -6 -63t4 -62q3 -28 12 -43q15 -30 15 -45q0 -28 -33 -51q-35 -21 -64 -21q-33 0 -63 23q-27 24 -27 65q0 45 35 203q-19 27 -35 39v-2
l-12 -59q-4 -50 -4 -66z" />
    <glyph glyph-name="macron" unicode="&#xaf;" horiz-adv-x="937" 
d="M156 1604q-33 0 -60 18q-30 20 -30 57q0 62 51 93q50 32 110 32q29 0 56 -6q49 -14 221 -14q347 0 362 -12q35 -21 35 -58q0 -30 -24 -57q-26 -29 -66 -29q-26 0 -70 8l-98 13q-58 6 -117 6q-147 0 -252 -27q-76 -24 -118 -24z" />
    <glyph glyph-name="degree" unicode="&#xb0;" horiz-adv-x="475" 
d="M199 1421q-27 0 -62 21q-82 49 -82 227q0 105 60 139q44 23 71 23q19 0 43 -12l35 -21q30 -15 35 -18q39 -22 63 -68q23 -51 23 -94q0 -130 -125 -180q-39 -17 -61 -17zM184 1559q0 -18 3.5 -22.5t15.5 -4.5q23 0 49 18q29 15 45 43q18 30 18 54q0 19 -16 30
q-13 13 -23 13q-4 0 -10 -4q-5 -2 -12 -13q-2 -2 -2 0q0 -4 -3 1l-1 5q10 -10 10 -22q0 -24 -16 -43q-20 -24 -41 -29q-17 -9 -17 -26z" />
    <glyph glyph-name="plusminus" unicode="&#xb1;" horiz-adv-x="983" 
d="M469 250q-38 0 -58 22t-20 62q0 24 66 577q0 2 -8 2q-39 0 -175 -43q-82 -24 -129 -24q-42 0 -65 21.5t-23 60.5q0 53 54 104q52 43 108 43q25 0 55 -12q55 -21 154 -21l53 2q2 33 4 65t3 47.5t1 19.5q0 58 -18 92q-12 28 -12 49q0 43 30 90q45 76 123 76q50 0 84 -39
q29 -29 29 -82q0 -69 -61 -109q-50 -41 -70 -123l-31 -100v14q34 0 187 15q68 6 108 6q111 0 111 -78q0 -37 -35 -72q-26 -26 -68 -26l-18 2q-110 39 -240 39q-48 0 -61 -10q-19 -19 -19 -293q0 -125 11 -203q8 -52 8 -90q0 -40 -20 -62t-58 -22zM66 82q0 61 51 92
q51 33 110 33q29 0 56 -6q52 -15 221 -15q347 0 362 -12q35 -21 35 -57q0 -31 -24 -58q-25 -28 -66 -28q-26 0 -70 8l-98 12q-59 6 -117 6q-151 0 -252 -26q-80 -25 -118 -25q-32 0 -60 19q-30 20 -30 57z" />
    <glyph glyph-name="uni00B2" unicode="&#xb2;" horiz-adv-x="585" 
d="M371 1257q-57 0 -115 15q-78 21 -92 65q-2 12 -2 33q0 66 49 150q92 147 104 184v-21q15 0 -4 -11q-6 -4 -30 -17q-59 -25 -97 -25q-77 0 -116 64q-25 36 -25 59q0 42 68 72q81 41 172 41q42 0 75 -8q105 -29 105 -113q0 -15 -4 -35q-18 -60 -166 -248q-17 -21 -35 -52
q-9 -14 -11 -14q-1 -1 -1 3q0 2 3.5 2h26.5q24 0 99 14q59 17 86 17q47 0 69 -39q15 -17 15 -43q0 -62 -101 -86q-44 -7 -73 -7z" />
    <glyph glyph-name="uni00B3" unicode="&#xb3;" horiz-adv-x="514" 
d="M190 1196q-18 0 -24 4q-45 16 -45 60q12 81 104 81l33 -2q40 0 88 29l12 4l19 -18q-84 69 -107 94q-28 31 -28 72q0 53 75 131q35 38 35 47q0 2 -12 2q-18 0 -25 -17q-38 -38 -96 -38q-95 0 -145 59q-29 32 -29 63q0 18 6 27q24 78 142 78q83 0 147 -25q98 -30 98 -112
q0 -52 -86 -164l-35 -45q0 -5 45 -35q82 -59 82 -102q0 -47 -69 -101q-56 -43 -109 -69q-48 -23 -76 -23z" />
    <glyph glyph-name="acute" unicode="&#xb4;" horiz-adv-x="385" 
d="M102 1444q-29 0 -59 18q-31 21 -31 58q0 39 41 63q24 15 163 162.5t192 218.5q39 51 79 51q19 0 37 -12q21 -17 21 -39q0 -32 -53 -68q-58 -43 -185 -174.5t-127 -148.5q0 -4 2 -6q11 -15 11 -37q0 -36 -33 -62q-26 -20 -58 -24z" />
    <glyph glyph-name="uni00B5" unicode="&#xb5;" horiz-adv-x="835" 
d="M119 14q-84 0 -84 129q0 66 18 154q19 93 19 137q0 17 -4 33q-15 41 -15 88q0 97 53 289q44 183 54 289q0 56 10 98q13 37 41 78q67 90 121 90q44 0 82 -58q29 -54 35 -120q0 -48 -99 -244q-141 -293 -141 -430q0 -58 10 -58q41 0 174 267q216 417 295 512q27 30 57 30
q29 0 45.5 -19t16.5 -52q0 -35 -43 -146q-96 -250 -96 -411q0 -165 37 -168q40 0 61 -27q20 -23 20 -55q0 -48 -41 -78q-45 -25 -90 -25q-75 0 -100 74q-23 59 -23 170q0 53 19 189q-47 -84 -49 -88q-124 -261 -203 -295q-33 -15 -106 -23v-80q0 -86 16 -129q10 -18 10 -39
q0 -29 -35 -49q-42 -33 -65 -33z" />
    <glyph glyph-name="paragraph" unicode="&#xb6;" horiz-adv-x="1345" 
 />
    <glyph glyph-name="periodcentered" unicode="&#xb7;" horiz-adv-x="276" 
d="M115 819q-43 0 -64 27q-22 22 -22 57q0 38 37 78q33 39 94 39q34 0 67 -23q33 -26 33 -61q0 -48 -51 -84q-51 -33 -94 -33z" />
    <glyph glyph-name="periodcentered" unicode="&#x2219;" horiz-adv-x="276" 
d="M115 819q-43 0 -64 27q-22 22 -22 57q0 38 37 78q33 39 94 39q34 0 67 -23q33 -26 33 -61q0 -48 -51 -84q-51 -33 -94 -33z" />
    <glyph glyph-name="cedilla" unicode="&#xb8;" horiz-adv-x="477" 
d="M-61 -567q-83 40 -166 221q-7 16 -16.5 34.5t-14.5 28.5t-9 21.5t-3 21t6 19.5q27 40 63 24q14 -8 22 -23.5t18 -47.5q2 -7 3 -11q66 -191 135 -227q13 -8 25 -8q2 0 4 -2q3 5 0 39q-5 30 -18 76q-6 22 -36.5 92.5t-37.5 79.5q-24 24 -27 45q0 26 13 49q4 6 29.5 63
t57 126t48.5 100q5 10 12.5 24t11 20.5t9 17t8 15t7 11.5t7.5 9.5t7.5 6.5t8.5 6t8.5 3.5t10.5 2.5q42 8 61 -59q15 -35 0 -66q-149 -199 -180 -319q3 -9 23.5 -74t34 -111t14.5 -63q6 -60 -23 -110q-44 -75 -116 -35z" />
    <glyph glyph-name="uni00B9" unicode="&#xb9;" horiz-adv-x="301" 
d="M152 1260q-43 0 -66 26.5t-23 73.5q0 12 5 84l8 164q0 37 -4 49q-5 11 -17 20q-37 37 -37 84q0 58 50 105q53 47 102 47q45 0 84 -39q37 -34 37 -78q0 -48 -51 -96q-17 -17 -29 -33q-7 -10 -10 -29q-2 -16 -2 -71q0 -73 8 -92q3 -26 24 -50q27 -41 27 -75q0 -46 -41 -70
q-38 -20 -65 -20z" />
    <glyph glyph-name="ordmasculine" unicode="&#xba;" horiz-adv-x="555" 
d="M254 1257q-42 0 -84 31q-115 63 -115 318q0 147 82 192q54 33 99 33q24 0 59 -14l51 -31q21 -15 49 -29q52 -28 86 -92q33 -68 33 -131q0 -183 -174 -254q-54 -23 -86 -23zM225 1446q0 -17 2 -25q2 -12 9 -14q5 -8 22 -8q33 0 78 26q43 25 67 68q27 47 27 80q0 34 -24 53
q-27 21 -41 21q-5 0 -15 -7q-10 -6 -24 -20q-4 -4 -4 -8q0 -5 -3 -3q-7 4 -8 10q-1 4 8 -3q11 -6 11 -29t-21 -55q-22 -30 -53 -39q-31 -13 -31 -47z" />
    <glyph glyph-name="guillemotright" unicode="&#xbb;" horiz-adv-x="1343" 
d="M614 467q-32 3 -47 22q-12 15 -12 48q0 24 10 41q9 18 41 34q22 20 78 45q64 33 123 58q75 32 131 51q35 12 87.5 29t70.5 24q55 22 69 33q11 7 15 14q-6 63 -355 406q-121 118 -184 188q-61 67 -61 107q0 46 61 69q42 27 76 27q77 0 114 -55q25 -36 54 -121
q18 -54 184 -309q172 -248 172 -306q0 -43 -14 -71q-20 -29 -68 -47q-67 -28 -139 -49q-146 -47 -244 -105q-96 -52 -108 -96q-16 -37 -54 -37zM43 643q0 37 27 64q18 15 182 79q141 48 246 101q94 47 94 51q0 38 -264 211q-138 95 -160 119q-35 32 -35 67q0 54 60 92
q61 33 102 33q42 0 82 -43q39 -42 39 -84q0 -80 147 -246q96 -120 96 -159q0 -38 -38 -68q-67 -41 -99 -55q-277 -140 -329 -189q-47 -47 -82 -47q-28 0 -45 23q-23 20 -23 51z" />
    <glyph glyph-name="onequarter" unicode="&#xbc;" horiz-adv-x="1726" 
d="M242 647q-46 0 -76 41q-23 50 -23 164q0 86 17 188q16 94 84 361q96 387 96 493v35q0 1 -1 8t-1 13q-1 5 -2 18t-2 19q0 27 8 43q47 75 139 75q117 0 123 -96q0 -41 -35 -88q-24 -31 -77 -158q-29 -72 -86 -262q-42 -137 -64 -252q-35 -241 -35 -342q0 -33 6 -67l19 -60
q8 -27 8 -49q0 -24 -25 -49q-30 -35 -73 -35zM272 88q0 147 129 430q123 267 387 719l185 324q75 132 86 157q20 44 20 56q0 8 -2 14q-6 18 -6 27q0 42 31 92q46 75 127 75q57 0 96 -45q33 -39 33 -90q0 -55 -43 -98t-111 -43q-5 0 -16 -8q-22 -22 -43 -56q-67 -97 -80 -118
q-387 -618 -537 -977q-22 -54 -71 -230q-35 -134 -35 -176l2 -24q6 -6 25 -8q31 -9 45 -23q14 -23 14 -45q0 -31 -23 -64q-26 -36 -55 -36q-5 0 -29 -9h-12q-117 0 -117 156zM737 295q0 84 8 180q11 121 11 154q0 49 -6 73q-11 22 -11 48q0 63 43 100q42 39 99 39
q49 0 88 -33q45 -36 45 -80q0 -42 -41 -92q-14 -22 -51 -129q-9 -31 -30 -104t-32 -113q-29 -122 -29 -141q0 -23 6 -31t25 -8q66 0 232 104q67 39 94 66q30 27 51 82q21 57 51 176q33 118 33 196l-2 78q0 55 16 86q20 33 62 58q48 30 88 30q44 0 69 -35q27 -30 27 -61
q0 -24 -35 -96q-36 -65 -96 -228q-75 -186 -82 -215q-5 0 -15 13q-4 6 -1 6l18 6q22 9 45 16q25 11 49 11q41 0 63.5 -21.5t22.5 -58.5q0 -61 -77 -80q-106 -26 -154 -60q-25 -19 -80 -217q-51 -194 -51 -227q0 -9 16 -20q29 -33 29 -64q0 -44 -45 -86q-47 -41 -90 -41
t-67.5 25t-24.5 69q0 80 102 387q20 63 30.5 86.5t24.5 24.5l-2 -18q-18 -7 -55 -21q-157 -67 -248 -76q-25 0 -45 10q-78 57 -78 232z" />
    <glyph glyph-name="onehalf" unicode="&#xbd;" horiz-adv-x="1712" 
d="M242 795q-46 0 -76 41q-23 50 -23 163q0 87 17 189q15 91 84 360q96 387 96 494v35q0 1 -1 7.5t-1 12.5q-1 5 -2 18t-2 19q0 27 8 43q48 76 139 76q117 0 123 -96q0 -42 -35 -89q-25 -32 -77 -157q-29 -72 -86 -262q-42 -137 -64 -252q-35 -241 -35 -342q0 -33 6 -68
l19 -59q8 -27 8 -49q0 -25 -25 -50q-30 -34 -73 -34zM203 88q0 147 129 430q123 267 387 719l184 324q75 132 86 157q21 46 21 56q0 8 -2 14q-7 21 -7 27q0 42 31 92q46 75 127 75q57 0 96 -45q33 -39 33 -90q0 -55 -43 -98t-110 -43q-6 0 -17 -8q-22 -22 -43 -56
q-67 -97 -80 -118q-384 -613 -536 -977q-25 -61 -72 -230q-35 -134 -35 -176l2 -24q6 -6 25 -8q31 -9 45 -23q14 -23 14 -45q0 -33 -22 -64q-26 -36 -56 -36q-4 0 -28 -9h-13q-116 0 -116 156zM621 715q0 79 141 182q121 87 289 143q110 41 225 41q293 0 293 -190
q0 -95 -105 -236q-81 -118 -321 -358q-142 -142 -252 -260q-84 -94 -84 -119q0 -3 2 -4.5t9 -2.5t22 -1q100 0 268 51q76 33 119 33t69 -33q17 -20 17 -47q0 -105 -248 -141q-111 -15 -164 -15l-47 2q-99 13 -115 27q-17 14 -28 39q-25 45 -25 74q0 36 58.5 110.5
t181.5 200.5q285 282 411 432q125 142 125 215q0 40 -36 59t-117 19q-192 0 -363 -105q-61 -38 -67 -53q1 0 12 -8q49 -40 49 -92q0 -59 -68 -80q-27 -12 -65 -12q-78 0 -143 47q-43 37 -43 82z" />
    <glyph glyph-name="threequarters" unicode="&#xbe;" horiz-adv-x="2029" 
d="M221 741q-31 0 -53 25q-25 25 -25 47q0 35 54 74q45 33 155 96q334 193 334 293q0 19 -20 39q-14 14 -99 61q-83 44 -116 82q-43 46 -43 109q0 77 116 295q66 120 66 141q0 4 4 1q3 -3 0 -3q-26 0 -64 -21q-42 -22 -67 -47q-27 -19 -27 -26q0 -3 8 -9l21 -30
q10 -17 10 -35q0 -45 -43 -74q-44 -30 -104 -30q-72 6 -117 40q-53 35 -53 91q0 26 53 82q51 51 106 98q69 55 105 71q98 43 211 46q53 0 80 -41q22 -36 22 -78q0 -94 -135 -285q-88 -137 -88 -170q0 -18 20 -35q28 -22 80 -47q89 -41 127 -82q37 -46 37 -106
q0 -68 -20 -109q-18 -42 -72 -100q-74 -74 -152 -137q-124 -103 -190 -152q-100 -74 -121 -74zM522 88q0 147 129 430q123 267 387 719l185 324q75 132 86 157q20 44 20 56q0 8 -2 14q-6 18 -6 27q0 42 31 92q46 75 127 75q57 0 96 -45q33 -39 33 -90q0 -55 -43 -98
t-111 -43q-5 0 -16 -8q-22 -22 -43 -56q-67 -97 -80 -118q-387 -618 -537 -977q-22 -54 -71 -230q-35 -134 -35 -176l2 -24q6 -6 24 -8q31 -9 45 -23q15 -25 15 -45q0 -31 -23 -64q-26 -36 -55 -36q-5 0 -29 -9h-12q-117 0 -117 156zM1040 412q0 72 9 180q10 110 10 153
q0 50 -6 74q-11 22 -11 47q0 64 43 101q42 39 99 39q49 0 88 -33q45 -36 45 -80q0 -42 -41 -92q-14 -22 -51 -129q-9 -31 -30 -104t-32 -113q-28 -118 -28 -142t5.5 -31.5t24.5 -7.5q64 0 232 105q69 40 94 65q30 27 51 82q21 57 51 176q33 118 33 197l-2 78q0 55 16 86
q19 31 62 57q50 31 88 31q45 0 70 -35q26 -29 26 -61q0 -25 -35 -97q-37 -67 -96 -227q-75 -186 -82 -215q-5 0 -15 13q-4 6 -1 6q1 0 2.5 0.5l6 2t9.5 3.5q22 9 45 16q23 10 49 10q41 0 63.5 -21.5t22.5 -58.5q0 -60 -77 -79q-106 -26 -154 -60q-25 -19 -80 -217
q-51 -194 -51 -227q0 -10 16 -21q29 -33 29 -63q0 -44 -45 -86q-47 -41 -90 -41t-67.5 25t-24.5 69q0 79 102 387q20 63 30.5 86.5t24.5 24.5q0 -1 -2 -19q-18 -6 -55 -20q-157 -67 -248 -76q-25 0 -45 10q-78 57 -78 232z" />
    <glyph glyph-name="questiondown" unicode="&#xbf;" horiz-adv-x="1761" 
d="M1446 2333q-58 0 -92 30q-39 33 -39 60q0 33 51 78q48 39 109 39q52 -6 79 -27q31 -19 31 -70q0 -59 -49 -86q-50 -24 -90 -24zM156 154q6 106 53 211q44 104 184 299q129 175 412 522q295 362 397 497q188 265 211 394q0 5 -27 16q-63 22 -63 82q0 32 23.5 50t64.5 18
q54 -3 94 -35q41 -33 41 -92q0 -98 -153 -310q-151 -212 -514 -653q-305 -374 -404 -506q-233 -311 -233 -438q0 -33 19.5 -49.5t66.5 -22.5h8q101 0 285 90q173 83 380 248q158 133 297 311q133 166 136 209q0 -5 -4 -2q-15 12 -27 17q-64 37 -64 90q3 45 52 82
q48 20 96 20q75 0 129 -33q53 -38 53 -98q0 -109 -166 -311q-251 -304 -575 -514q-362 -238 -619 -238q-45 0 -69 12q-22 15 -43 41q-41 47 -41 93z" />
    <glyph glyph-name="Agrave" unicode="&#xc0;" horiz-adv-x="2230" 
d="M1819 -406q-40 6 -66 68q-75 126 -78 485q0 282 80 975q-15 10 -16 11q-9 3 -109 22q-88 18 -168.5 32t-174 27t-107.5 15l-9 2l-16 -4q-12 -10 -51 -64q-217 -337 -330 -569q-98 -200 -98 -275q0 -6 12 -20q27 -39 27 -72q0 -38 -21 -53q-18 -18 -45 -18q-79 0 -92 131
q0 109 92 291q65 132 277 462q118 184 118 207v-18h-67q-755 -41 -1069 -271l-23 -16q2 -4 23 -39q18 -24 18 -49q0 -55 -63 -74q-45 14 -72.5 45t-30.5 74q0 40 11 82q50 141 395 244q357 107 795 116l81 2q21 0 60 -8l4 5l10 10q25 30 53 67q32 42 99 142q324 476 434 663
q125 204 131 264q2 21 37 66q26 37 63 67q48 38 76 35l2 -2q17 0 32 -21.5t19 -62.5q0 -37 -2 -47q-37 -139 -88 -475q-37 -222 -123 -840q214 -80 318 -157q119 -87 131 -207q0 -55 -10 -97q-12 -47 -62 -47q-78 0 -100 146q-15 87 -107 153q-87 59 -176 93
q-27 -241 -47 -486q-6 -153 -6 -301q0 -438 84 -528q38 -48 35 -84l-2 -6q0 -30 -23 -60q-24 -30 -59 -33zM1217 1331q192 -20 555 -96l2 8q37 173 112 782q23 202 23 277q0 13 22 2q-22 -22 -139 -174q-92 -120 -299 -406q-99 -136 -276 -393zM1864 3439q0 40 34 67
q30 27 66 27q26 0 51 -21q21 -21 21 -57q0 -17 -11 -35q-6 -12 -6 -14q0 -20 17.5 -62.5t90.5 -202.5q68 -149 116 -255q7 -15 29 -35.5t22 -30.5q0 -23 -27 -47q-21 -18 -49 -18q-23 0 -37 14q-13 13 -59 129q-77 201 -119 303.5t-54.5 126t-23.5 33.5q-29 24 -29 26
q-17 0 -26 21q-6 8 -6 31z" />
    <glyph glyph-name="Aacute" unicode="&#xc1;" horiz-adv-x="2230" 
d="M1819 -406q-40 6 -66 68q-75 126 -78 485q0 282 80 975q-15 10 -16 11q-9 3 -109 22q-88 18 -168.5 32t-174 27t-107.5 15l-9 2l-16 -4q-12 -10 -51 -64q-217 -337 -330 -569q-98 -200 -98 -275q0 -6 12 -20q27 -39 27 -72q0 -38 -21 -53q-18 -18 -45 -18q-79 0 -92 131
q0 109 92 291q65 132 277 462q118 184 118 207v-18h-67q-755 -41 -1069 -271l-23 -16q2 -4 23 -39q18 -24 18 -49q0 -55 -63 -74q-45 14 -72.5 45t-30.5 74q0 40 11 82q50 141 395 244q357 107 795 116l81 2q21 0 60 -8l4 5l10 10q25 30 53 67q32 42 99 142q324 476 434 663
q125 204 131 264q2 21 37 66q26 37 63 67q48 38 76 35l2 -2q17 0 32 -21.5t19 -62.5q0 -37 -2 -47q-37 -139 -88 -475q-37 -222 -123 -840q214 -80 318 -157q119 -87 131 -207q0 -55 -10 -97q-12 -47 -62 -47q-78 0 -100 146q-15 87 -107 153q-87 59 -176 93
q-27 -241 -47 -486q-6 -153 -6 -301q0 -438 84 -528q38 -48 35 -84l-2 -6q0 -30 -23 -60q-24 -30 -59 -33zM1217 1331q192 -20 555 -96l2 8q37 173 112 782q23 202 23 277q0 13 22 2q-22 -22 -139 -174q-92 -120 -299 -406q-99 -136 -276 -393zM1960 2906q0 40 41 64
q24 15 162.5 162t191.5 219q39 51 80 51q17 0 37 -13q20 -17 20 -38q0 -32 -53 -68q-57 -43 -184 -175t-127 -149q0 -4 2 -6q10 -13 10 -37q0 -35 -33 -61q-27 -21 -57 -25q-27 0 -59 19q-31 21 -31 57z" />
    <glyph glyph-name="Acircumflex" unicode="&#xc2;" horiz-adv-x="2230" 
d="M1819 -406q-40 6 -66 68q-75 126 -78 485q0 282 80 975q-15 10 -16 11q-9 3 -109 22q-88 18 -168.5 32t-174 27t-107.5 15l-9 2l-16 -4q-12 -10 -51 -64q-217 -337 -330 -569q-98 -200 -98 -275q0 -6 12 -20q27 -39 27 -72q0 -38 -21 -53q-18 -18 -45 -18q-79 0 -92 131
q0 109 92 291q65 132 277 462q118 184 118 207v-18h-67q-755 -41 -1069 -271l-23 -16q2 -4 23 -39q18 -24 18 -49q0 -55 -63 -74q-45 14 -72.5 45t-30.5 74q0 40 11 82q50 141 395 244q357 107 795 116l81 2q21 0 60 -8l4 5l10 10q25 30 53 67q32 42 99 142q324 476 434 663
q125 204 131 264q2 21 37 66q26 37 63 67q48 38 76 35l2 -2q17 0 32 -21.5t19 -62.5q0 -37 -2 -47q-37 -139 -88 -475q-37 -222 -123 -840q214 -80 318 -157q119 -87 131 -207q0 -55 -10 -97q-12 -47 -62 -47q-78 0 -100 146q-15 87 -107 153q-87 59 -176 93
q-27 -241 -47 -486q-6 -153 -6 -301q0 -438 84 -528q38 -48 35 -84l-2 -6q0 -30 -23 -60q-24 -30 -59 -33zM1217 1331q192 -20 555 -96l2 8q37 173 112 782q23 202 23 277q0 13 22 2q-22 -22 -139 -174q-92 -120 -299 -406q-99 -136 -276 -393zM1774 2857q0 33 45 100
q38 58 172.5 219t154.5 181q58 61 105 61q24 0 37 -10q15 -11 29.5 -47.5t15.5 -91.5q3 -143 7 -218.5t7.5 -93t9.5 -22.5q27 -27 27 -53q0 -24 -16.5 -39t-49.5 -15q-46 0 -59 37q-12 30 -12 377q0 25 -3 54q-2 17 0 21.5t13 4.5h4l-3 -3q-7 -4 -11 -7
q-37 -37 -99.5 -107.5t-132 -167t-69.5 -137.5q0 -64 -52 -92q-34 -15 -49 -15q-23 0 -47 17q-24 21 -24 47z" />
    <glyph glyph-name="Atilde" unicode="&#xc3;" horiz-adv-x="2230" 
d="M1819 -406q-40 6 -66 68q-75 126 -78 485q0 282 80 975q-15 10 -16 11q-9 3 -109 22q-88 18 -168.5 32t-174 27t-107.5 15l-9 2l-16 -4q-12 -10 -51 -64q-217 -337 -330 -569q-98 -200 -98 -275q0 -6 12 -20q27 -39 27 -72q0 -38 -21 -53q-18 -18 -45 -18q-79 0 -92 131
q0 109 92 291q65 132 277 462q118 184 118 207v-18h-67q-755 -41 -1069 -271l-23 -16q2 -4 23 -39q18 -24 18 -49q0 -55 -63 -74q-45 14 -72.5 45t-30.5 74q0 40 11 82q50 141 395 244q357 107 795 116l81 2q21 0 60 -8l4 5l10 10q25 30 53 67q32 42 99 142q324 476 434 663
q125 204 131 264q2 21 37 66q26 37 63 67q48 38 76 35l2 -2q17 0 32 -21.5t19 -62.5q0 -37 -2 -47q-37 -139 -88 -475q-37 -222 -123 -840q214 -80 318 -157q119 -87 131 -207q0 -55 -10 -97q-12 -47 -62 -47q-78 0 -100 146q-15 87 -107 153q-87 59 -176 93
q-27 -241 -47 -486q-6 -153 -6 -301q0 -438 84 -528q38 -48 35 -84l-2 -6q0 -30 -23 -60q-24 -30 -59 -33zM1217 1331q192 -20 555 -96l2 8q37 173 112 782q23 202 23 277q0 13 22 2q-22 -22 -139 -174q-92 -120 -299 -406q-99 -136 -276 -393zM1737 3019q0 8 8 106
q6 44 40.5 71t92.5 28q84 0 317 -121q96 -54 113 -54q4 0 -10 -13q-6 -5 -6 -3q0 -4 -33 27q-57 57 -57 100q0 19 24 55q20 18 55 37q28 17 58 17q49 0 96 -41q59 -38 59 -90q0 -21 -14 -68q-13 -67 -51 -109q-36 -45 -80 -45q-30 0 -219 103q-150 85 -262 106
q24 -50 24 -84q0 -42 -21.5 -67t-60.5 -25q-34 3 -53.5 22t-19.5 48z" />
    <glyph glyph-name="Adieresis" unicode="&#xc4;" horiz-adv-x="2230" 
d="M1819 -406q-40 6 -66 68q-75 126 -78 485q0 282 80 975q-15 10 -16 11q-9 3 -109 22q-88 18 -168.5 32t-174 27t-107.5 15l-9 2l-16 -4q-12 -10 -51 -64q-217 -337 -330 -569q-98 -200 -98 -275q0 -6 12 -20q27 -39 27 -72q0 -38 -21 -53q-18 -18 -45 -18q-79 0 -92 131
q0 109 92 291q65 132 277 462q118 184 118 207v-18h-67q-755 -41 -1069 -271l-23 -16q2 -4 23 -39q18 -24 18 -49q0 -55 -63 -74q-45 14 -72.5 45t-30.5 74q0 40 11 82q50 141 395 244q357 107 795 116l81 2q21 0 60 -8l4 5l10 10q25 30 53 67q32 42 99 142q324 476 434 663
q125 204 131 264q2 21 37 66q26 37 63 67q48 38 76 35l2 -2q17 0 32 -21.5t19 -62.5q0 -37 -2 -47q-37 -139 -88 -475q-37 -222 -123 -840q214 -80 318 -157q119 -87 131 -207q0 -55 -10 -97q-12 -47 -62 -47q-78 0 -100 146q-15 87 -107 153q-87 59 -176 93
q-27 -241 -47 -486q-6 -153 -6 -301q0 -438 84 -528q38 -48 35 -84l-2 -6q0 -30 -23 -60q-24 -30 -59 -33zM1217 1331q192 -20 555 -96l2 8q37 173 112 782q23 202 23 277q0 13 22 2q-22 -22 -139 -174q-92 -120 -299 -406q-99 -136 -276 -393zM1688 2970q0 45 47 102
q47 47 118 47q46 0 86 -29q41 -33 41 -75q0 -55 -65 -107q-59 -41 -121 -41q-43 0 -80 33q-26 33 -26 70zM2173 2990q0 47 49 102q48 48 117 48q53 0 86 -29q43 -31 43 -76q0 -55 -68 -106q-61 -41 -119 -41q-45 0 -81 32q-27 39 -27 70z" />
    <glyph glyph-name="Aring" unicode="&#xc5;" horiz-adv-x="2230" 
d="M1819 -406q-40 6 -66 68q-75 126 -78 485q0 282 80 975q-15 10 -16 11q-9 3 -109 22q-88 18 -168.5 32t-174 27t-107.5 15l-9 2l-16 -4q-12 -10 -51 -64q-217 -337 -330 -569q-98 -200 -98 -275q0 -6 12 -20q27 -39 27 -72q0 -38 -21 -53q-18 -18 -45 -18q-79 0 -92 131
q0 109 92 291q65 132 277 462q118 184 118 207v-18h-67q-755 -41 -1069 -271l-23 -16q2 -4 23 -39q18 -24 18 -49q0 -55 -63 -74q-45 14 -72.5 45t-30.5 74q0 40 11 82q50 141 395 244q357 107 795 116l81 2q21 0 60 -8l4 5l10 10q25 30 53 67q32 42 99 142q324 476 434 663
q125 204 131 264q2 21 37 66q26 37 63 67q48 38 76 35l2 -2q17 0 32 -21.5t19 -62.5q0 -37 -2 -47q-37 -139 -88 -475q-37 -222 -123 -840q214 -80 318 -157q119 -87 131 -207q0 -55 -10 -97q-12 -47 -62 -47q-78 0 -100 146q-15 87 -107 153q-87 59 -176 93
q-27 -241 -47 -486q-6 -153 -6 -301q0 -438 84 -528q38 -48 35 -84l-2 -6q0 -30 -23 -60q-24 -30 -59 -33zM1217 1331q192 -20 555 -96l2 8q37 173 112 782q23 202 23 277q0 13 22 2q-22 -22 -139 -174q-92 -120 -299 -406q-99 -136 -276 -393zM1749 3148q0 187 279 254
q118 35 186 35q64 0 125 -41q67 -54 67 -144q-21 -128 -114 -221q-98 -92 -201 -106h-29q-53 0 -104 26q-79 41 -86 45q-11 6 -18.5 10.5t-10.5 6.5t-2 2q-10 0 -43 22q-2 6 -15 22.5t-18 26.5q-16 29 -16 62zM1985 3209q-14 -23 -17 -48.5t6 -49t37.5 -38.5t73.5 -15
q42 0 121 59q118 83 118 158q0 18 -16 26q-34 17 -61 17q-121 0 -172.5 -21.5t-89.5 -87.5z" />
    <glyph glyph-name="AE" unicode="&#xc6;" horiz-adv-x="4589" 
d="M2249 956q136 285 268 494q144 230 362 535q6 8 107 145q-10 -9 -86 -76q-386 -351 -457 -418q-124 -116 -721 -706q1 0 200.5 -24.5t287.5 -47.5q30 68 39 98zM-152 725q8 52 31 96q84 156 535 203q441 48 1001 -31l101 -14q16 -2 77 -23q11 3 210 196t331 327
q438 432 680 696q205 223 217 285q7 26 61 73q114 94 183 88l4 -4q5 -1 15 -6t13.5 -3t0.5 15l-23 -47q28 67 57 93q33 26 82 26q80 0 113 -45q33 -48 33 -92q-3 -50 -39 -78q-32 -29 -86 -29q-39 0 -54 -12q-18 -15 -59 -65q-15 -17 -37 -42q-30 -35 -30 -30l-9 6
q53 9 66 12q344 51 524 74q220 25 387 25q239 0 346 -39q119 -44 119 -146q-3 -64 -31 -106q-32 -43 -75 -43q-34 0 -52 22.5t-18 63.5q2 20 16 47q7 9 7 16q0 18 -50 31t-160.5 21t-271.5 8q-213 0 -422 -31q-224 -34 -487 -96q-212 -274 -383 -506q-274 -382 -432 -715
q-22 -44 -23 -47q30 2 30 -2q0 -3 -24 -9q-1 -1 -2 -1q709 183 1045 155q136 -18 215 -69q64 -46 61 -107q-1 -36 -20.5 -54.5t-52.5 -16.5q-48 3 -97 61q-21 25 -32 29q-4 4 -41 10q-43 4 -58 8q-26 0 -69 6q-204 18 -478 -22q-273 -40 -495 -119l-21 -14q-29 -20 -47 -58
q-19 -35 -47 -116q-76 -237 -82 -408q0 -201 105 -303t321 -109q263 0 651 172q408 179 945 484q279 152 307 147q65 -16 65 -80q0 -25 -14 -39q-27 -30 -231 -133q-188 -97 -459 -225q-269 -127 -436 -197q-543 -240 -803 -229l-51 2q-180 7 -294 105.5t-155 279.5
q-10 68 -10 143q6 185 24 267q8 41 48 166q20 57 49 125q-87 23 -274.5 43.5t-221.5 29.5l-10 4q-5 0 -14 -1t-13 -1q-21 -7 -78 -67q-337 -346 -526 -604q-166 -212 -182 -306q-3 -6 10 -26q24 -45 18 -92q-15 -78 -90 -66q-92 15 -80 170q17 126 172 322q176 217 439 491
q136 136 184 205q-220 38 -350 47q-736 47 -1112 -125l-35 -16q19 -47 23 -54q16 -27 12 -61q-15 -58 -86 -70q-104 48 -101 154z" />
    <glyph glyph-name="Ccedilla" unicode="&#xc7;" horiz-adv-x="2441" 
d="M518 -956q-83 40 -166 221q-7 16 -16.5 34.5t-14.5 28.5t-9 21.5t-3 21t6 19.5q27 40 64 24q14 -8 22 -23.5t18 -47.5q2 -7 3 -11q66 -191 135 -227q13 -8 25 -8q2 0 4 -2q3 5 0 39q-3 22 -19 75q-7 22 -36.5 93.5t-36.5 79.5q-24 24 -27 45q0 27 12 49q4 6 29.5 62.5
t57 125.5t48.5 100l7 11q-124 9 -224 59q-206 101 -303 270q-94 168 -94 416q0 173 35 322q134 419 481 831q318 348 707 602q395 262 608 262q49 -3 76 -14q29 -8 63 -45q33 -36 33 -100q0 -114 -37 -236q-43 -118 -158 -289q-139 -205 -327 -405q-200 -213 -377 -348
q-189 -148 -289 -148q-125 0 -125 97q0 44 37 73q26 21 115 58q202 81 540 422q325 319 455 585q64 119 64 168q0 31 -19.5 43t-66.5 12q-170 0 -506 -206q-338 -204 -639 -508q-394 -412 -557 -875q-4 -13 -9.5 -32.5t-9 -33.5l-6.5 -26q-9 -41 -12 -88q-4 -70 -4 -139
q0 -175 14 -213q2 -21 23 -64q107 -215 356 -319q49 -21 96 -27q62 -4 125 -4q9 6 21 6q11 3 26 -6q154 3 309 62q160 58 379 204q254 173 492 381q281 237 426 400q102 114 155 114q28 0 46 -24q18 -21 18 -47q0 -55 -152 -195q-253 -241 -542 -461q-300 -226 -523 -350
q-319 -162 -569 -182q-4 -14 -6 -19l-17 -23q-17 -23 -39 -55.5t-46.5 -72.5t-46 -86t-31.5 -84q1 -4 23 -72.5t34.5 -113.5t13.5 -62q6 -62 -22 -111q-21 -36 -52.5 -44.5t-64.5 10.5z" />
    <glyph glyph-name="Egrave" unicode="&#xc8;" horiz-adv-x="2600" 
d="M512 -338q-181 7 -294 106t-155 279q-12 61 -12 143q6 180 25 267q20 72 39 139h-17q-8 -2 -22 -2q-76 3 -118 29t-42 73q0 39 31 70q23 28 71 35q128 20 177 49q24 24 100 182q95 200 231 418q137 219 363 535q100 126 100 147q0 -3 3.5 -6.5t6.5 -3.5q-15 0 -104 -29
q-323 -102 -467 -225q-77 -74 -137 -74q-54 3 -101 41q-53 44 -53 90q3 75 117 103q609 186 846 245l53 74q101 138 143 229q23 55 58 90q29 29 82 29q80 -3 112 -47q33 -45 33 -90q-3 -45 -37 -76q-36 -31 -86 -31h-22q-21 0 -33 -12q-22 -16 -60 -65q-15 -17 -37 -42
q-30 -35 -30 -30l-8 6q50 8 65 12q352 53 522 72q211 27 388 27q240 0 344 -39q123 -45 123 -144q0 -58 -31 -108q-37 -43 -78 -43q-32 0 -49 26q-19 19 -19 60q3 23 15 47q8 13 8 16q0 18 -50 31t-160.5 21t-272.5 8q-210 0 -422 -31q-227 -35 -486 -96
q-268 -348 -383 -506q-256 -355 -432 -715q-28 -52 -29.5 -52.5t-1.5 5.5h-14q27 0 92 27q695 248 1026 248q145 -6 222 -50q71 -46 71 -102q0 -23 -16 -55q-16 -23 -51 -23q-53 0 -101 51q-33 33 -82 33q-86 4 -123 4q-212 0 -475 -65q-284 -69 -485 -160q-66 -31 -94 -53
q-33 -23 -47 -56q-20 -39 -47 -118q-76 -237 -82 -408q0 -203 103.5 -304t320.5 -108q265 0 653 172q404 178 944 484q280 152 307 147t49 -31q17 -27 17 -49q0 -24 -15 -39q-27 -27 -231 -133q-188 -97 -459 -225q-269 -127 -436 -197q-544 -240 -803 -229zM1851 3404
q0 40 35 67q30 27 66 27q27 0 51 -20q20 -20 20 -58q0 -18 -10 -35q-6 -12 -6 -14q0 -21 18.5 -66t101.5 -227q19 -42 30.5 -67.5t32.5 -71t40 -88.5q7 -15 29 -35.5t22 -30.5q0 -24 -26 -47q-21 -18 -49 -18q-23 0 -37 14t-60 129q-78 203 -119 304t-53.5 125.5t-23.5 33.5
q-29 24 -29 27q-17 0 -26 20q-7 9 -7 31z" />
    <glyph glyph-name="Eacute" unicode="&#xc9;" horiz-adv-x="2600" 
d="M512 -338q-181 7 -294 106t-155 279q-12 61 -12 143q6 180 25 267q20 72 39 139h-17q-8 -2 -22 -2q-76 3 -118 29t-42 73q0 39 31 70q23 28 71 35q128 20 177 49q24 24 100 182q95 200 231 418q137 219 363 535q100 126 100 147q0 -3 3.5 -6.5t6.5 -3.5q-15 0 -104 -29
q-323 -102 -467 -225q-77 -74 -137 -74q-54 3 -101 41q-53 44 -53 90q3 75 117 103q609 186 846 245l53 74q101 138 143 229q23 55 58 90q29 29 82 29q80 -3 112 -47q33 -45 33 -90q-3 -45 -37 -76q-36 -31 -86 -31h-22q-21 0 -33 -12q-22 -16 -60 -65q-15 -17 -37 -42
q-30 -35 -30 -30l-8 6q50 8 65 12q352 53 522 72q211 27 388 27q240 0 344 -39q123 -45 123 -144q0 -58 -31 -108q-37 -43 -78 -43q-32 0 -49 26q-19 19 -19 60q3 23 15 47q8 13 8 16q0 18 -50 31t-160.5 21t-272.5 8q-210 0 -422 -31q-227 -35 -486 -96
q-268 -348 -383 -506q-256 -355 -432 -715q-28 -52 -29.5 -52.5t-1.5 5.5h-14q27 0 92 27q695 248 1026 248q145 -6 222 -50q71 -46 71 -102q0 -23 -16 -55q-16 -23 -51 -23q-53 0 -101 51q-33 33 -82 33q-86 4 -123 4q-212 0 -475 -65q-284 -69 -485 -160q-66 -31 -94 -53
q-33 -23 -47 -56q-20 -39 -47 -118q-76 -237 -82 -408q0 -203 103.5 -304t320.5 -108q265 0 653 172q404 178 944 484q280 152 307 147t49 -31q17 -27 17 -49q0 -24 -15 -39q-27 -27 -231 -133q-188 -97 -459 -225q-269 -127 -436 -197q-544 -240 -803 -229zM1948 2871
q0 40 41 64q24 15 162.5 162t191.5 219q39 51 80 51q19 0 37 -12q20 -17 20 -39q0 -32 -53 -68q-58 -43 -184.5 -174.5t-126.5 -148.5q0 -5 2 -7q10 -13 10 -36q0 -36 -33 -62q-26 -20 -57 -24q-30 0 -60 18q-30 20 -30 57z" />
    <glyph glyph-name="Ecircumflex" unicode="&#xca;" horiz-adv-x="2600" 
d="M512 -338q-181 7 -294 106t-155 279q-12 61 -12 143q6 180 25 267q20 72 39 139h-17q-8 -2 -22 -2q-76 3 -118 29t-42 73q0 39 31 70q23 28 71 35q128 20 177 49q24 24 100 182q95 200 231 418q137 219 363 535q100 126 100 147q0 -3 3.5 -6.5t6.5 -3.5q-15 0 -104 -29
q-323 -102 -467 -225q-77 -74 -137 -74q-54 3 -101 41q-53 44 -53 90q3 75 117 103q609 186 846 245l53 74q101 138 143 229q23 55 58 90q29 29 82 29q80 -3 112 -47q33 -45 33 -90q-3 -45 -37 -76q-36 -31 -86 -31h-22q-21 0 -33 -12q-22 -16 -60 -65q-15 -17 -37 -42
q-30 -35 -30 -30l-8 6q50 8 65 12q352 53 522 72q211 27 388 27q240 0 344 -39q123 -45 123 -144q0 -58 -31 -108q-37 -43 -78 -43q-32 0 -49 26q-19 19 -19 60q3 23 15 47q8 13 8 16q0 18 -50 31t-160.5 21t-272.5 8q-210 0 -422 -31q-227 -35 -486 -96
q-268 -348 -383 -506q-256 -355 -432 -715q-28 -52 -29.5 -52.5t-1.5 5.5h-14q27 0 92 27q695 248 1026 248q145 -6 222 -50q71 -46 71 -102q0 -23 -16 -55q-16 -23 -51 -23q-53 0 -101 51q-33 33 -82 33q-86 4 -123 4q-212 0 -475 -65q-284 -69 -485 -160q-66 -31 -94 -53
q-33 -23 -47 -56q-20 -39 -47 -118q-76 -237 -82 -408q0 -203 103.5 -304t320.5 -108q265 0 653 172q404 178 944 484q280 152 307 147t49 -31q17 -27 17 -49q0 -24 -15 -39q-27 -27 -231 -133q-188 -97 -459 -225q-269 -127 -436 -197q-544 -240 -803 -229zM1761 2822
q0 33 45 100q38 58 173 219t155 181q58 61 104 61q24 0 37 -10q15 -11 29.5 -47.5t15.5 -91.5q3 -143 7.5 -219t8 -93t9.5 -22q27 -27 27 -53q0 -24 -16.5 -39t-49.5 -15q-46 0 -59 37q-13 32 -13 377q0 24 -2 52q-2 19 0 23.5t13 4.5q6 0 1 -2q-8 -5 -12 -8
q-37 -37 -99.5 -107.5t-132 -167t-69.5 -137.5q0 -64 -51 -92q-32 -14 -49 -14q-25 0 -47 16q-25 21 -25 47z" />
    <glyph glyph-name="Edieresis" unicode="&#xcb;" horiz-adv-x="2600" 
d="M512 -338q-181 7 -294 106t-155 279q-12 61 -12 143q6 180 25 267q20 72 39 139h-17q-8 -2 -22 -2q-76 3 -118 29t-42 73q0 39 31 70q23 28 71 35q128 20 177 49q24 24 100 182q95 200 231 418q137 219 363 535q100 126 100 147q0 -3 3.5 -6.5t6.5 -3.5q-15 0 -104 -29
q-323 -102 -467 -225q-77 -74 -137 -74q-54 3 -101 41q-53 44 -53 90q3 75 117 103q609 186 846 245l53 74q101 138 143 229q23 55 58 90q29 29 82 29q80 -3 112 -47q33 -45 33 -90q-3 -45 -37 -76q-36 -31 -86 -31h-22q-21 0 -33 -12q-22 -16 -60 -65q-15 -17 -37 -42
q-30 -35 -30 -30l-8 6q50 8 65 12q352 53 522 72q211 27 388 27q240 0 344 -39q123 -45 123 -144q0 -58 -31 -108q-37 -43 -78 -43q-32 0 -49 26q-19 19 -19 60q3 23 15 47q8 13 8 16q0 18 -50 31t-160.5 21t-272.5 8q-210 0 -422 -31q-227 -35 -486 -96
q-268 -348 -383 -506q-256 -355 -432 -715q-28 -52 -29.5 -52.5t-1.5 5.5h-14q27 0 92 27q695 248 1026 248q145 -6 222 -50q71 -46 71 -102q0 -23 -16 -55q-16 -23 -51 -23q-53 0 -101 51q-33 33 -82 33q-86 4 -123 4q-212 0 -475 -65q-284 -69 -485 -160q-66 -31 -94 -53
q-33 -23 -47 -56q-20 -39 -47 -118q-76 -237 -82 -408q0 -203 103.5 -304t320.5 -108q265 0 653 172q404 178 944 484q280 152 307 147t49 -31q17 -27 17 -49q0 -24 -15 -39q-27 -27 -231 -133q-188 -97 -459 -225q-269 -127 -436 -197q-544 -240 -803 -229zM1675 2935
q0 45 47 102q47 47 119 47q47 0 86 -28q41 -33 41 -76q0 -55 -65 -107q-59 -41 -121 -41q-43 0 -80 33q-27 35 -27 70zM2161 2955q0 48 49 103q47 47 117 47q53 0 86 -29q43 -31 43 -76q0 -55 -68 -106q-61 -41 -119 -41q-45 0 -82 33q-26 37 -26 69z" />
    <glyph glyph-name="Igrave" unicode="&#xcc;" horiz-adv-x="735" 
d="M78 -367q-16 0 -64 25q-64 27 -88 80q-22 43 -22 166q0 308 223 833q205 470 614 1168q291 500 299 524l11 -10l15 5q5 1 -1 -5q-131 -146 -277 -342q-153 -208 -243 -363q-100 -166 -103 -217q-4 -38 -6 -47q-14 -54 -80 -86q-44 -21 -88 -21q-43 3 -75 29
q-36 28 -39 62q9 68 323 491q298 395 520 623q120 123 160 135q24 4 41 4q27 -1 42 -18.5t17 -45.5q-3 -51 -61 -155q-116 -204 -270 -445q-442 -709 -652 -1175q-241 -523 -241 -920q0 -70 12 -100q11 -25 39 -31q90 -16 90 -82q0 -69 -96 -82zM1020 3461q0 41 35 68
q29 26 65 26q27 0 51 -20q21 -21 21 -57q0 -18 -10 -35q-6 -12 -6 -15q0 -21 18.5 -66t101.5 -227q19 -42 30.5 -67.5t32.5 -71t40 -88.5q7 -15 29 -35t22 -30q0 -23 -27 -47q-22 -19 -49 -19q-23 0 -37 14q-13 13 -59 129q-77 201 -119 303.5t-54.5 126t-23.5 33.5
q-28 24 -28 27q-18 0 -27 20q-6 8 -6 31z" />
    <glyph glyph-name="Iacute" unicode="&#xcd;" horiz-adv-x="735" 
d="M78 -367q-16 0 -64 25q-64 27 -88 80q-22 43 -22 166q0 308 223 833q205 470 614 1168q291 500 299 524l11 -10l15 5q5 1 -1 -5q-131 -146 -277 -342q-153 -208 -243 -363q-100 -166 -103 -217q-4 -38 -6 -47q-14 -54 -80 -86q-44 -21 -88 -21q-43 3 -75 29
q-36 28 -39 62q9 68 323 491q298 395 520 623q120 123 160 135q24 4 41 4q27 -1 42 -18.5t17 -45.5q-3 -51 -61 -155q-116 -204 -270 -445q-442 -709 -652 -1175q-241 -523 -241 -920q0 -70 12 -100q11 -25 39 -31q90 -16 90 -82q0 -69 -96 -82zM1116 2929q0 39 41 63
q24 15 162.5 162t191.5 219q39 51 80 51q19 0 37 -12q21 -18 21 -39q0 -32 -54 -68q-58 -43 -184.5 -174.5t-126.5 -148.5q0 -4 2 -6q10 -13 10 -37q0 -36 -32 -62q-26 -20 -58 -24q-29 0 -59 18q-31 21 -31 58z" />
    <glyph glyph-name="Icircumflex" unicode="&#xce;" horiz-adv-x="735" 
d="M78 -367q-16 0 -64 25q-64 27 -88 80q-22 43 -22 166q0 308 223 833q205 470 614 1168q291 500 299 524l11 -10l15 5q5 1 -1 -5q-131 -146 -277 -342q-153 -208 -243 -363q-100 -166 -103 -217q-4 -38 -6 -47q-14 -54 -80 -86q-44 -21 -88 -21q-43 3 -75 29
q-36 28 -39 62q9 68 323 491q298 395 520 623q120 123 160 135q24 4 41 4q27 -1 42 -18.5t17 -45.5q-3 -51 -61 -155q-116 -204 -270 -445q-442 -709 -652 -1175q-241 -523 -241 -920q0 -70 12 -100q11 -25 39 -31q90 -16 90 -82q0 -69 -96 -82zM930 2879q0 34 45 101
q38 58 172.5 218t155.5 181q59 62 104 62q22 0 37 -11t29.5 -47.5t15.5 -91.5q3 -143 7 -218.5t7.5 -93t9.5 -22.5q27 -27 27 -53q0 -53 -65 -53q-47 0 -60 37q-12 30 -12 377q0 25 -3 54q-2 17 0 21t13 4h4l-3 -3l-11 -7q-37 -37 -99.5 -107.5t-132 -167t-69.5 -137.5
q0 -64 -51 -92q-31 -14 -50 -14q-25 0 -47 16q-24 21 -24 47z" />
    <glyph glyph-name="Idieresis" unicode="&#xcf;" horiz-adv-x="735" 
d="M78 -367q-16 0 -64 25q-64 27 -88 80q-22 43 -22 166q0 308 223 833q205 470 614 1168q291 500 299 524l11 -10l15 5q5 1 -1 -5q-131 -146 -277 -342q-153 -208 -243 -363q-100 -166 -103 -217q-4 -38 -6 -47q-14 -54 -80 -86q-44 -21 -88 -21q-43 3 -75 29
q-36 28 -39 62q9 68 323 491q298 395 520 623q120 123 160 135q24 4 41 4q27 -1 42 -18.5t17 -45.5q-3 -51 -61 -155q-116 -204 -270 -445q-442 -709 -652 -1175q-241 -523 -241 -920q0 -70 12 -100q11 -25 39 -31q90 -16 90 -82q0 -69 -96 -82zM844 2992q0 46 47 103
q47 47 119 47q46 0 86 -29q41 -33 41 -76q0 -54 -66 -106q-59 -41 -121 -41q-44 0 -80 32q-26 33 -26 70zM1329 3013q0 47 49 102q47 47 117 47q53 0 86 -29q43 -31 43 -75q0 -56 -68 -107q-61 -41 -118 -41q-45 0 -82 33q-27 39 -27 70z" />
    <glyph glyph-name="Eth" unicode="&#xd0;" horiz-adv-x="2811" 
d="M616 -217q-36 0 -81 20q-46 22 -74 70q-32 66 -27 135l4 64q17 293 449 1030q-83 -6 -139 -23q-77 -24 -119 -24q-33 0 -60 18q-30 20 -30 57q0 62 51 93q50 32 110 32q29 0 56 -6q46 -14 211 -14q143 237 358 563q32 49 68 106t57.5 90.5t34.5 51.5q-67 -25 -215 -96
q-376 -187 -684 -471q-237 -220 -330 -408q-41 -69 -41 -108q0 -29 29 -52q43 -37 43 -75q0 -43 -43 -72q-44 -29 -105 -29q-65 0 -119 45q-53 50 -53 103q6 144 144 340q140 201 399 417q291 245 522 365q172 91 602 270q117 203 117 258q0 56 43 93q38 30 90 30
q58 0 101 -37q45 -42 45 -96q0 -65 -80 -96q-17 -8 -52 -39q-39 -31 -63 -61l-25 -27v20q15 2 127 27q272 59 484 59q286 0 454 -110q174 -109 174 -332q0 -238 -204 -584t-574 -725q-367 -373 -682 -565q-312 -184 -493 -184q-141 0 -203 112q-10 18 -10 54q3 111 43 198
q43 94 161 215q430 427 947 568q110 26 174 26q60 0 86 -26q28 -25 28 -54q0 -20 -18 -41q-12 -24 -57 -36q-35 -14 -125 -33q-331 -72 -666 -297q-213 -148 -340 -281q-135 -135 -135 -209q0 -36 35 -61q39 -29 102 -29q203 0 572 258q373 260 720 656q537 635 537 983
q0 145 -98 233q-60 54 -125 80q-115 31 -287 31t-409 -47q-295 -61 -349 -95q-56 -47 -239 -315q-189 -278 -355 -561q228 0 256 -12q33 -22 33 -58q0 -30 -24 -57q-26 -29 -66 -29q-26 0 -70 8l-98 13q-52 6 -106 6q-435 -759 -435 -1059q0 -53 13 -76q9 -17 47 -26
q78 -28 78 -88q0 -35 -31 -56q-27 -18 -66 -18z" />
    <glyph glyph-name="Ntilde" unicode="&#xd1;" horiz-adv-x="2764" 
d="M131 -203q-64 0 -117 88q-43 88 -43 154q0 129 140 459q118 283 483 1001q355 689 450 955q47 136 84 182q40 49 129 49q103 0 115 -80q0 -57 -49 -115q-92 -108 -303 -475q-228 -395 -420 -772q-375 -721 -442 -1003q-26 -104 -29 -201q0 -3 -14 7q-4 3 -2 3
q22 26 65 96l228 373q709 1189 1193 1727q298 350 402 350q48 0 67 -8q75 -31 84 -185q0 -164 -120 -643q-228 -937 -228 -1239q0 -125 30.5 -182t94.5 -57h8q197 35 590 495q91 107 144 157.5t82 51.5q28 0 47 -16q19 -14 24 -43q3 -46 -153 -215q-455 -487 -703 -527h-22
q-187 0 -199 305l-4 86q-7 145 39.5 407.5t146.5 676.5q51 231 90 422q37 179 37 276q-8 110 -22 113q-33 -10 -138 -109q-106 -101 -256 -280q-546 -622 -1083 -1608q-240 -424 -246 -500l6 -16q0 -39 -18 -74q-18 -31 -49 -51q-60 -35 -105 -35h-14zM1483 2988q0 9 8 107
q6 44 40 70.5t93 27.5q85 0 318 -121q95 -53 112 -53q5 0 -10 -14l-6 -3q0 -4 -33 27q-57 57 -57 100q0 20 24 56q18 16 56 37q27 16 57 16q49 0 96 -41q60 -38 60 -90q0 -17 -15 -68q-12 -66 -51 -108q-36 -45 -80 -45q-31 0 -219 102q-152 87 -262 107q24 -49 24 -84
q0 -42 -21.5 -67.5t-60.5 -25.5q-34 3 -53.5 22.5t-19.5 47.5z" />
    <glyph glyph-name="Ograve" unicode="&#xd2;" horiz-adv-x="2975" 
d="M1120 -53q-109 0 -168 41q-52 38 -96 121q-24 40 -29 81q-6 41 -6 138q0 160 10 211l9 41q-286 -10 -348 -11q-142 0 -224 15q-82 12 -147 47q-131 49 -131 225q0 141 133 315q133 170 346 336q422 329 985 533l135 49l53 76q213 299 316 389q40 37 96 37q83 0 127 -56
q45 -51 45 -106q0 -52 -35 -79.5t-100 -29.5l-66 4q-8 4 -32 7l-72 -84q-100 -115 -100 -123q0 -5 -8 7q-4 6 -3 7q11 0 35 6q30 12 123 15q89 6 191 6q131 0 170 -2q179 -6 358 -99q67 -31 131 -98q92 -92 127 -188q16 -41 16 -162q0 -80 -10 -135q-6 -35 -33 -109
q-48 -122 -100 -201q-61 -94 -119 -172h82q239 0 242 -108q0 -30 -19 -55q-16 -29 -59 -29q-31 0 -53 12l-45 15q-49 10 -80 8l-195 -6l-143 -127q-643 -571 -1100 -734q-112 -28 -209 -28zM45 846q0 -62 78 -109q121 -75 352 -75q127 0 316 18l75 6q111 316 224 553
q129 283 348 612l63 107q0 6 14 -10q9 -9 5 -9q-20 0 -103 -34q-667 -264 -1087 -650q-273 -252 -285 -409zM915 281q0 -115 51.5 -168.5t161.5 -53.5q237 0 666 277q281 188 520 412q78 75 78 79q0 5 7 -5q7 -9 1 -9q-84 0 -741 -104q-645 -99 -694 -113q-8 -16 -17 -55
q-15 -55 -24 -127q-9 -74 -9 -133zM995 688q0 5 -5 8t-9 2q48 17 98 19q7 1 28 5t63 12.5t81 15.5q969 184 1303 237q165 211 239 344q80 140 80 283q0 198 -184 319q-193 123 -508 123q-129 0 -258 -20q-133 -20 -176 -33q-62 -39 -203 -254q-150 -230 -301 -512
q-153 -282 -223 -465q-25 -70 -25 -84zM2372 3228q0 40 34 67q30 27 66 27q26 0 51 -21q21 -21 21 -57q0 -17 -11 -35q-6 -12 -6 -14q0 -21 18.5 -66t101.5 -227q19 -42 30.5 -67.5t32.5 -71t40 -88.5q7 -15 29.5 -35.5t22.5 -30.5q0 -23 -27 -47q-21 -18 -49 -18
q-23 0 -37 14q-13 13 -59 129q-77 201 -119 303.5t-54.5 126t-23.5 33.5q-29 24 -29 26q-17 0 -26 21q-6 8 -6 31z" />
    <glyph glyph-name="Oacute" unicode="&#xd3;" horiz-adv-x="2975" 
d="M1120 -53q-109 0 -168 41q-52 38 -96 121q-24 40 -29 81q-6 41 -6 138q0 160 10 211l9 41q-286 -10 -348 -11q-142 0 -224 15q-82 12 -147 47q-131 49 -131 225q0 141 133 315q133 170 346 336q422 329 985 533l135 49l53 76q213 299 316 389q40 37 96 37q83 0 127 -56
q45 -51 45 -106q0 -52 -35 -79.5t-100 -29.5l-66 4q-8 4 -32 7l-72 -84q-100 -115 -100 -123q0 -5 -8 7q-4 6 -3 7q11 0 35 6q30 12 123 15q89 6 191 6q131 0 170 -2q179 -6 358 -99q67 -31 131 -98q92 -92 127 -188q16 -41 16 -162q0 -80 -10 -135q-6 -35 -33 -109
q-48 -122 -100 -201q-61 -94 -119 -172h82q239 0 242 -108q0 -30 -19 -55q-16 -29 -59 -29q-31 0 -53 12l-45 15q-49 10 -80 8l-195 -6l-143 -127q-643 -571 -1100 -734q-112 -28 -209 -28zM45 846q0 -62 78 -109q121 -75 352 -75q127 0 316 18l75 6q111 316 224 553
q129 283 348 612l63 107q0 6 14 -10q9 -9 5 -9q-20 0 -103 -34q-667 -264 -1087 -650q-273 -252 -285 -409zM915 281q0 -115 51.5 -168.5t161.5 -53.5q237 0 666 277q281 188 520 412q78 75 78 79q0 5 7 -5q7 -9 1 -9q-84 0 -741 -104q-645 -99 -694 -113q-8 -16 -17 -55
q-15 -55 -24 -127q-9 -74 -9 -133zM995 688q0 5 -5 8t-9 2q48 17 98 19q7 1 28 5t63 12.5t81 15.5q969 184 1303 237q165 211 239 344q80 140 80 283q0 198 -184 319q-193 123 -508 123q-129 0 -258 -20q-133 -20 -176 -33q-62 -39 -203 -254q-150 -230 -301 -512
q-153 -282 -223 -465q-25 -70 -25 -84zM2468 2695q0 40 41 64q24 15 162.5 162t191.5 219q39 51 80 51q17 0 37 -13q20 -17 20 -38q0 -32 -53 -68q-57 -43 -184 -175t-127 -149q0 -4 2 -6q10 -13 10 -37q0 -35 -33 -61q-27 -21 -57 -25q-27 0 -59 19q-31 21 -31 57z" />
    <glyph glyph-name="Ocircumflex" unicode="&#xd4;" horiz-adv-x="2975" 
d="M1120 -53q-109 0 -168 41q-52 38 -96 121q-24 40 -29 81q-6 41 -6 138q0 160 10 211l9 41q-286 -10 -348 -11q-142 0 -224 15q-82 12 -147 47q-131 49 -131 225q0 141 133 315q133 170 346 336q422 329 985 533l135 49l53 76q213 299 316 389q40 37 96 37q83 0 127 -56
q45 -51 45 -106q0 -52 -35 -79.5t-100 -29.5l-66 4q-8 4 -32 7l-72 -84q-100 -115 -100 -123q0 -5 -8 7q-4 6 -3 7q11 0 35 6q30 12 123 15q89 6 191 6q131 0 170 -2q179 -6 358 -99q67 -31 131 -98q92 -92 127 -188q16 -41 16 -162q0 -80 -10 -135q-6 -35 -33 -109
q-48 -122 -100 -201q-61 -94 -119 -172h82q239 0 242 -108q0 -30 -19 -55q-16 -29 -59 -29q-31 0 -53 12l-45 15q-49 10 -80 8l-195 -6l-143 -127q-643 -571 -1100 -734q-112 -28 -209 -28zM45 846q0 -62 78 -109q121 -75 352 -75q127 0 316 18l75 6q111 316 224 553
q129 283 348 612l63 107q0 6 14 -10q9 -9 5 -9q-20 0 -103 -34q-667 -264 -1087 -650q-273 -252 -285 -409zM915 281q0 -115 51.5 -168.5t161.5 -53.5q237 0 666 277q281 188 520 412q78 75 78 79q0 5 7 -5q7 -9 1 -9q-84 0 -741 -104q-645 -99 -694 -113q-8 -16 -17 -55
q-15 -55 -24 -127q-9 -74 -9 -133zM995 688q0 5 -5 8t-9 2q48 17 98 19q7 1 28 5t63 12.5t81 15.5q969 184 1303 237q165 211 239 344q80 140 80 283q0 198 -184 319q-193 123 -508 123q-129 0 -258 -20q-133 -20 -176 -33q-62 -39 -203 -254q-150 -230 -301 -512
q-153 -282 -223 -465q-25 -70 -25 -84zM2281 2646q0 32 46 100q38 58 172.5 219t154.5 181q58 61 105 61q24 0 37 -10q15 -11 29.5 -47.5t15.5 -91.5q3 -143 7 -218.5t7.5 -93t9.5 -22.5q27 -27 27 -53q0 -24 -16.5 -39t-49.5 -15q-46 0 -59 37q-12 30 -12 377q0 25 -3 54
q-2 17 0 21.5t13 4.5h4l-3 -3q-7 -4 -11 -7q-37 -37 -99.5 -107.5t-132 -167t-69.5 -137.5q0 -64 -52 -92q-32 -14 -49 -14q-25 0 -47 16q-25 21 -25 47z" />
    <glyph glyph-name="Otilde" unicode="&#xd5;" horiz-adv-x="2975" 
d="M1120 -53q-109 0 -168 41q-52 38 -96 121q-24 40 -29 81q-6 41 -6 138q0 160 10 211l9 41q-286 -10 -348 -11q-142 0 -224 15q-82 12 -147 47q-131 49 -131 225q0 141 133 315q133 170 346 336q422 329 985 533l135 49l53 76q213 299 316 389q40 37 96 37q83 0 127 -56
q45 -51 45 -106q0 -52 -35 -79.5t-100 -29.5l-66 4q-8 4 -32 7l-72 -84q-100 -115 -100 -123q0 -5 -8 7q-4 6 -3 7q11 0 35 6q30 12 123 15q89 6 191 6q131 0 170 -2q179 -6 358 -99q67 -31 131 -98q92 -92 127 -188q16 -41 16 -162q0 -80 -10 -135q-6 -35 -33 -109
q-48 -122 -100 -201q-61 -94 -119 -172h82q239 0 242 -108q0 -30 -19 -55q-16 -29 -59 -29q-31 0 -53 12l-45 15q-49 10 -80 8l-195 -6l-143 -127q-643 -571 -1100 -734q-112 -28 -209 -28zM45 846q0 -62 78 -109q121 -75 352 -75q127 0 316 18l75 6q111 316 224 553
q129 283 348 612l63 107q0 6 14 -10q9 -9 5 -9q-20 0 -103 -34q-667 -264 -1087 -650q-273 -252 -285 -409zM915 281q0 -115 51.5 -168.5t161.5 -53.5q237 0 666 277q281 188 520 412q78 75 78 79q0 5 7 -5q7 -9 1 -9q-84 0 -741 -104q-645 -99 -694 -113q-8 -16 -17 -55
q-15 -55 -24 -127q-9 -74 -9 -133zM995 688q0 5 -5 8t-9 2q48 17 98 19q7 1 28 5t63 12.5t81 15.5q969 184 1303 237q165 211 239 344q80 140 80 283q0 198 -184 319q-193 123 -508 123q-129 0 -258 -20q-133 -20 -176 -33q-62 -39 -203 -254q-150 -230 -301 -512
q-153 -282 -223 -465q-25 -70 -25 -84zM2245 2808q0 8 8 106q6 44 40.5 71t92.5 28q84 0 317 -121q95 -53 113 -53q5 0 -10 -14q-6 -5 -6 -3q0 -4 -33 27q-57 57 -57 100q0 19 24 55q20 18 55 37q28 17 58 17q49 0 96 -41q59 -38 59 -90q0 -21 -14 -68q-13 -67 -51 -109
q-36 -45 -80 -45q-30 0 -219 103q-150 85 -262 106q24 -50 24 -84q0 -42 -21.5 -67t-60.5 -25q-34 3 -53.5 22.5t-19.5 47.5z" />
    <glyph glyph-name="Odieresis" unicode="&#xd6;" horiz-adv-x="2975" 
d="M1120 -53q-109 0 -168 41q-52 38 -96 121q-24 40 -29 81q-6 41 -6 138q0 160 10 211l9 41q-286 -10 -348 -11q-142 0 -224 15q-82 12 -147 47q-131 49 -131 225q0 141 133 315q133 170 346 336q422 329 985 533l135 49l53 76q213 299 316 389q40 37 96 37q83 0 127 -56
q45 -51 45 -106q0 -52 -35 -79.5t-100 -29.5l-66 4q-8 4 -32 7l-72 -84q-100 -115 -100 -123q0 -5 -8 7q-4 6 -3 7q11 0 35 6q30 12 123 15q89 6 191 6q131 0 170 -2q179 -6 358 -99q67 -31 131 -98q92 -92 127 -188q16 -41 16 -162q0 -80 -10 -135q-6 -35 -33 -109
q-48 -122 -100 -201q-61 -94 -119 -172h82q239 0 242 -108q0 -30 -19 -55q-16 -29 -59 -29q-31 0 -53 12l-45 15q-49 10 -80 8l-195 -6l-143 -127q-643 -571 -1100 -734q-112 -28 -209 -28zM45 846q0 -62 78 -109q121 -75 352 -75q127 0 316 18l75 6q111 316 224 553
q129 283 348 612l63 107q0 6 14 -10q9 -9 5 -9q-20 0 -103 -34q-667 -264 -1087 -650q-273 -252 -285 -409zM915 281q0 -115 51.5 -168.5t161.5 -53.5q237 0 666 277q281 188 520 412q78 75 78 79q0 5 7 -5q7 -9 1 -9q-84 0 -741 -104q-645 -99 -694 -113q-8 -16 -17 -55
q-15 -55 -24 -127q-9 -74 -9 -133zM995 688q0 5 -5 8t-9 2q48 17 98 19q7 1 28 5t63 12.5t81 15.5q969 184 1303 237q165 211 239 344q80 140 80 283q0 198 -184 319q-193 123 -508 123q-129 0 -258 -20q-133 -20 -176 -33q-62 -39 -203 -254q-150 -230 -301 -512
q-153 -282 -223 -465q-25 -70 -25 -84zM2195 2759q0 44 48 102q47 47 118 47q46 0 86 -29q41 -33 41 -75q0 -55 -65 -107q-59 -41 -121 -41q-43 0 -80 33q-27 35 -27 70zM2681 2779q0 48 49 103q47 47 117 47q53 0 86 -29q43 -31 43 -76q0 -55 -68 -106q-61 -41 -119 -41
q-45 0 -82 33q-26 37 -26 69z" />
    <glyph glyph-name="multiply" unicode="&#xd7;" horiz-adv-x="1021" 
d="M860 412q-35 0 -72 37l-311 352q-57 -67 -86 -131q-24 -49 -24 -72q0 -12 6 -33q10 -35 10 -45q0 -71 -96 -74q-48 0 -74.5 21t-26.5 59q0 64 60 152q79 116 151 209q-48 57 -129 143q-50 53 -59 53q-23 0 -53 23q-27 26 -39 49q-19 29 -19 57q0 44 49 80q44 35 95 35
q46 0 94 -31q49 -32 49 -82l-2 -40q0 -32 20 -68q22 -46 52 -86q12 -17 24 -29q29 29 56 70q27 38 65 108q30 55 35 76q30 129 153 129q123 -6 123 -90q0 -62 -92 -129q-42 -29 -104 -88q-55 -52 -113 -121q-42 -47 -45 -61q11 -22 61 -72q134 -139 259 -235q57 -49 57 -82
q-2 -40 -21 -62t-53 -22z" />
    <glyph glyph-name="Oslash" unicode="&#xd8;" horiz-adv-x="2975" 
d="M1120 -53q-44 0 -78 6l-6 -10q-20 -41 -20 -58q0 -9 16 -22q23 -27 23 -53q3 -21 -15 -62q-17 -42 -59 -80q-52 -49 -84 -33q2 -2 -2 -2q-18 1 -23 0l-12 5q-109 49 2 282q24 56 53 103q-27 27 -59 86q-24 40 -29 81q-6 41 -6 138q0 160 10 211l9 41q-286 -10 -348 -11
q-142 0 -224 15q-82 12 -147 47q-131 49 -131 225q0 141 133 315q133 170 346 336q422 329 985 533l135 49l53 76q213 299 316 389q40 37 96 37q83 0 127 -56q45 -51 45 -106q0 -52 -35 -79.5t-100 -29.5l-66 4q-8 4 -32 7l-72 -84q-100 -115 -100 -123q0 -5 -8 7q-4 6 -3 7
q11 0 35 6q30 12 123 15q89 6 191 6q131 0 170 -2q179 -6 358 -99l-4 2q59 62 94 109q55 64 66 86q5 13 10 31q3 16 14 39q25 64 90 125q94 97 170 61q58 -28 58 -111q0 -71 -35 -143q-35 -78 -103 -127q-69 -51 -135 -20q-3 2 -18 -9q-29 -18 -80 -69l-35 -35
q6 -6 19.5 -18.5t19.5 -18.5q92 -92 127 -188q16 -41 16 -162q0 -80 -10 -135q-6 -35 -33 -109q-48 -122 -100 -201q-61 -94 -119 -172h82q239 0 242 -108q0 -30 -19 -55q-16 -29 -59 -29q-31 0 -53 12l-45 15q-49 10 -80 8l-195 -6l-143 -127q-643 -571 -1100 -734
q-112 -28 -209 -28zM45 846q0 -62 78 -109q121 -75 352 -75q127 0 316 18l75 6q111 316 224 553q129 283 348 612l63 107q0 6 14 -10q9 -9 5 -9q-20 0 -103 -34q-667 -264 -1087 -650q-273 -252 -285 -409zM915 281q0 -115 56 -168q128 198 321 430q99 116 109 127
q-384 -60 -436 -74q-8 -16 -17 -55q-15 -55 -24 -127q-9 -74 -9 -133zM995 688q0 5 -5 8t-9 2q48 17 98 19q7 1 28 5t63 12.5t81 15.5l260 49q211 240 666 723q91 99 226 243t180 193l18 20q-173 78 -420 78q-129 0 -258 -20q-133 -20 -176 -33q-62 -39 -203 -254
q-150 -230 -301 -512q-153 -282 -223 -465q-25 -70 -25 -84zM1104 59h24q237 0 666 277q281 188 520 412q78 75 78 79q0 5 7 -5q7 -9 1 -9q-84 0 -741 -104l-105 -17q-31 -35 -114 -141q-90 -116 -240 -334q-12 -20 -46.5 -76t-49.5 -82zM1669 827q608 118 885 160
q165 211 239 344q80 140 80 283q0 198 -184 319l10 -8q-1 -1 -18 -17t-29 -28q-618 -624 -983 -1053z" />
    <glyph glyph-name="Ugrave" unicode="&#xd9;" horiz-adv-x="1882" 
d="M1190 -199q-90 0 -141 117q-48 105 -48 285q0 234 58 487q51 219 139 504l23 31q-349 -457 -760 -873q-249 -252 -363 -252q-44 0 -80 39q-34 47 -51 90q-12 55 -12 131q0 200 84 496q78 286 233 635q118 251 228 434q115 190 184 238q50 35 107 35q63 0 110 -41
q49 -43 49 -91q0 -40 -35 -75q-41 -33 -98 -33l-51 6q-10 3 -21 -8q-11 -8 -38 -43q-184 -239 -385 -686q-185 -419 -252 -758q-17 -112 -17 -162q0 -57 13 -80q11 -16 32 -16q179 0 1012 1063q39 49 90 115.5t64 83.5q41 57 79 124q12 20 68 129q94 213 215 422
q112 200 234 365q120 158 182 158t65 -105q0 -117 -198 -409q-190 -281 -559 -773l-70 -202q-209 -632 -209 -1008q0 -289 103 -289q67 0 139 90q69 89 166 242l75 123q38 78 80 156q23 45 49 84q15 27 37 36q14 7 33 7q57 0 57 -54q0 -30 -30 -92q-340 -676 -590 -676z
M1219 3107q0 40 34 67q30 27 66 27q27 0 51 -20q21 -21 21 -58q0 -17 -11 -35q-6 -12 -6 -14q0 -21 18.5 -66t101.5 -227q19 -42 30.5 -67.5t32.5 -71t40 -88.5q7 -15 29.5 -35.5t22.5 -30.5q0 -23 -27 -47q-21 -18 -49 -18q-23 0 -37 14q-13 13 -59 129q-77 201 -119 303.5
t-54.5 126t-23.5 33.5q-29 24 -29 27q-17 0 -26 20q-6 8 -6 31zM1503 1741q0 -4 -15 8q-9 8 -3 8q7 0 256 369q250 368 250 414q0 6 13 -9q5 -7 3 -8q-8 0 -131 -164q-107 -140 -209 -317q-164 -281 -164 -301z" />
    <glyph glyph-name="Uacute" unicode="&#xda;" horiz-adv-x="1882" 
d="M1190 -199q-90 0 -141 117q-48 105 -48 285q0 234 58 487q51 219 139 504l23 31q-349 -457 -760 -873q-249 -252 -363 -252q-44 0 -80 39q-34 47 -51 90q-12 55 -12 131q0 200 84 496q78 286 233 635q118 251 228 434q115 190 184 238q50 35 107 35q63 0 110 -41
q49 -43 49 -91q0 -40 -35 -75q-41 -33 -98 -33l-51 6q-10 3 -21 -8q-11 -8 -38 -43q-184 -239 -385 -686q-185 -419 -252 -758q-17 -112 -17 -162q0 -57 13 -80q11 -16 32 -16q179 0 1012 1063q39 49 90 115.5t64 83.5q41 57 79 124q12 20 68 129q94 213 215 422
q112 200 234 365q120 158 182 158t65 -105q0 -117 -198 -409q-190 -281 -559 -773l-70 -202q-209 -632 -209 -1008q0 -289 103 -289q67 0 139 90q69 89 166 242l75 123q38 78 80 156q23 45 49 84q15 27 37 36q14 7 33 7q57 0 57 -54q0 -30 -30 -92q-340 -676 -590 -676z
M1315 2574q0 40 41 64q24 15 162.5 162t191.5 219q39 51 80 51q19 0 37 -12q20 -17 20 -39q0 -32 -53 -68q-58 -43 -184.5 -174.5t-126.5 -148.5q0 -5 2 -7q10 -13 10 -36q0 -36 -33 -62q-26 -20 -57 -24q-29 0 -59 18q-31 21 -31 57zM1503 1741q0 -4 -15 8q-9 8 -3 8
q7 0 256 369q250 368 250 414q0 6 13 -9q5 -7 3 -8q-8 0 -131 -164q-107 -140 -209 -317q-164 -281 -164 -301z" />
    <glyph glyph-name="Ucircumflex" unicode="&#xdb;" horiz-adv-x="1882" 
d="M1190 -199q-90 0 -141 117q-48 105 -48 285q0 234 58 487q51 219 139 504l23 31q-349 -457 -760 -873q-249 -252 -363 -252q-44 0 -80 39q-34 47 -51 90q-12 55 -12 131q0 200 84 496q78 286 233 635q118 251 228 434q115 190 184 238q50 35 107 35q63 0 110 -41
q49 -43 49 -91q0 -40 -35 -75q-41 -33 -98 -33l-51 6q-10 3 -21 -8q-11 -8 -38 -43q-184 -239 -385 -686q-185 -419 -252 -758q-17 -112 -17 -162q0 -57 13 -80q11 -16 32 -16q179 0 1012 1063q39 49 90 115.5t64 83.5q41 57 79 124q12 20 68 129q94 213 215 422
q112 200 234 365q120 158 182 158t65 -105q0 -117 -198 -409q-190 -281 -559 -773l-70 -202q-209 -632 -209 -1008q0 -289 103 -289q67 0 139 90q69 89 166 242l75 123q38 78 80 156q23 45 49 84q15 27 37 36q14 7 33 7q57 0 57 -54q0 -30 -30 -92q-340 -676 -590 -676z
M1128 2525q0 33 46 101q38 58 172.5 218.5t154.5 180.5q58 61 105 61q23 0 36 -10q16 -12 30.5 -48t15.5 -91q3 -143 7 -218.5t7.5 -93t9.5 -22.5q27 -27 27 -53q0 -24 -16.5 -38.5t-49.5 -14.5q-46 0 -59 36q-12 30 -12 377q0 25 -3 54q-2 17 0 21.5t13 4.5h4l-3 -3l-11 -7
q-38 -38 -100 -107.5t-132 -166.5t-70 -138q0 -64 -51 -92q-31 -14 -49 -14q-25 0 -47 16q-25 21 -25 47zM1503 1741q0 -4 -15 8q-9 8 -3 8q7 0 256 369q250 368 250 414q0 6 13 -9q5 -7 3 -8q-8 0 -131 -164q-107 -140 -209 -317q-164 -281 -164 -301z" />
    <glyph glyph-name="Udieresis" unicode="&#xdc;" horiz-adv-x="1882" 
d="M1190 -199q-90 0 -141 117q-48 105 -48 285q0 234 58 487q51 219 139 504l23 31q-349 -457 -760 -873q-249 -252 -363 -252q-44 0 -80 39q-34 47 -51 90q-12 55 -12 131q0 200 84 496q78 286 233 635q118 251 228 434q115 190 184 238q50 35 107 35q63 0 110 -41
q49 -43 49 -91q0 -40 -35 -75q-41 -33 -98 -33l-51 6q-10 3 -21 -8q-11 -8 -38 -43q-184 -239 -385 -686q-185 -419 -252 -758q-17 -112 -17 -162q0 -57 13 -80q11 -16 32 -16q179 0 1012 1063q39 49 90 115.5t64 83.5q41 57 79 124q12 20 68 129q94 213 215 422
q112 200 234 365q120 158 182 158t65 -105q0 -117 -198 -409q-190 -281 -559 -773l-70 -202q-209 -632 -209 -1008q0 -289 103 -289q67 0 139 90q69 89 166 242l75 123q38 78 80 156q23 45 49 84q15 27 37 36q14 7 33 7q57 0 57 -54q0 -30 -30 -92q-340 -676 -590 -676z
M1042 2638q0 44 48 102q47 47 118 47q47 0 86 -28q41 -33 41 -76q0 -55 -65 -107q-59 -41 -121 -41q-43 0 -80 33q-27 35 -27 70zM1503 1741q0 -4 -15 8q-9 8 -3 8q7 0 256 369q250 368 250 414q0 6 13 -9q5 -7 3 -8q-8 0 -131 -164q-107 -140 -209 -317
q-164 -281 -164 -301zM1528 2658q0 48 49 103q47 47 117 47q53 0 86 -29q43 -31 43 -76q0 -55 -68 -106q-61 -41 -119 -41q-45 0 -82 33q-26 37 -26 69z" />
    <glyph glyph-name="Yacute" unicode="&#xdd;" horiz-adv-x="1949" 
d="M561 -502q-40 0 -61 29.5t-21 83.5q0 154 205 459q156 213 326 391q193 205 338 317q30 20 63 53q24 31 49 82q30 61 72 166q176 424 176 621q-3 53 -6 61q-2 4 -19 4q-89 0 -352 -278q-259 -271 -657 -797q-219 -291 -330 -405q-123 -123 -201 -123q-74 0 -125 80
q-43 78 -43 213q0 327 234 942q122 288 276 567q172 297 263 385q90 78 184 78q76 -3 117 -32.5t41 -82.5q0 -55 -60 -78q-50 -20 -92 -20q-12 0 -33 -6q-78 -40 -270 -346q-324 -524 -465 -1037q-74 -257 -74 -403q0 -68 19 -100q13 -29 28 -29q42 0 125 86
q133 144 383 477q214 289 369 475q124 153 295 320q249 264 373 264q139 0 139 -205q0 -193 -133 -528q-44 -112 -84 -203q-20 -44 -22 -44q-1 0 -1 3l-14 8l77 36l1 1h1l1 1h1h1l1 1h1l1 1l1 1h1h1l1 1h1l1 1h1l1 1h1h1v1h1l1 1h1l1 1h1l1 1h1h1l1 1h1l1 1h1l1 1h1l1 1h1v1
h1l1 1h1h1l1 1h1l1 1h1l1 1h1l1 1h1l1 1h1l1 1h1l1 1h1l2 1q72 30 113 30q57 0 100 -30q45 -28 45 -74q0 -37 -35 -64q-27 -24 -61 -24q-26 0 -45 12q-18 6 -33 6q-27 0 -90 -39q-141 -75 -197 -131q-61 -64 -133 -200q-261 -466 -510 -758q-200 -238 -297 -238zM592 -369
q0 -4 -6 1q-1 1 -2 1l39 35q14 12 34 29q42 40 160 176q234 292 406 598q8 12 10 14q-38 -34 -141 -133q-257 -254 -400 -504q-100 -172 -100 -217zM1505 2484q0 40 41 64q24 15 163 162.5t192 218.5q39 51 79 51q19 0 37 -12q21 -17 21 -39q0 -32 -53 -68
q-58 -43 -185 -175t-127 -149q0 -4 2 -6q11 -15 11 -37q0 -35 -33 -61q-27 -21 -58 -25q-27 0 -59 19q-31 21 -31 57z" />
    <glyph glyph-name="Thorn" unicode="&#xde;" horiz-adv-x="2459" 
d="M817 -227q-157 0 -160 260q0 486 684 1794l150 282l12 -4q-62 -15 -96 -28q-68 -18 -174 -60q-127 -50 -166 -67q-600 -291 -817 -643l-27 -52q76 -44 76 -104q0 -46 -45 -74q-43 -25 -100 -28q-68 0 -119 28q-57 35 -60 90q0 88 170 273q171 187 373 332
q460 321 1024 473q10 0 23 16q16 13 39 57q19 30 69 129q43 89 84 156q38 62 60 88q48 33 100 33q44 0 84 -21q42 -23 45 -69q0 -33 -117 -156q-64 -70 -155 -190q157 16 229 16q153 0 293 -31q132 -29 221 -92q178 -128 178 -330q0 -335 -389 -739q-163 -172 -291 -262
q-448 -304 -721 -307q-174 0 -174 131q0 44 27 90q25 39 67 39q26 0 48 -19q26 -17 26 -45q0 -21 -10 -41q-6 -18 -6 -26q12 -4 39 -4q365 12 809 379q236 196 368 389q93 155 109 219q22 77 22 190q-6 111 -80.5 186t-224.5 119q-83 25 -192 25q-402 -6 -430 -27
q-29 -19 -113 -161q-71 -116 -199 -349q-358 -658 -491 -1118q-88 -294 -88 -450q1 -66 14 -96t41 -33q74 -16 74 -70q0 -21 -17 -55q-34 -43 -96 -43z" />
    <glyph glyph-name="germandbls" unicode="&#xdf;" horiz-adv-x="1101" 
d="M-348 -4q-40 0 -63.5 21t-24.5 59q0 52 47 141l188 391q413 901 893 1360q212 191 305 191q38 0 58 -25.5t20 -71.5q0 -170 -530 -753q-262 -290 -262 -299q0 -1 6.5 2t31 7.5t58.5 4.5l272 6q110 0 154 -16q52 -16 84 -56q31 -45 31 -92q0 -199 -619 -579
q-153 -101 -211 -101q-37 0 -53 13q-21 12 -21 55q0 32 15 51q10 16 49 31q493 220 680 405q86 83 86 129q0 62 -205 62l-188 -6q-78 -4 -115 -4q-80 0 -100 20q-25 19 -25 64q0 48 49 112q67 87 287 336q161 186 289 367q116 164 125 204q3 -5 8 -8q-36 -18 -92 -65
q-534 -427 -938 -1399q-117 -275 -117 -313q0 -7 10 -11q29 -18 29 -71q0 -76 -76 -121q-71 -41 -135 -41z" />
    <glyph glyph-name="agrave" unicode="&#xe0;" horiz-adv-x="1529" 
d="M688 494q-191 0 -268 127q-54 84 -90 268q-10 74 -23 112q-51 -32 -272 -225q-87 -74 -131 -74q-47 0 -56 70q0 52 66 143q67 93 143 172q86 86 154 125q63 25 111 25q97 0 170 -49q83 -52 83 -117q0 -52 -47 -82q-52 -36 -114 -33l-33 2q22 -167 59 -245q27 -61 88 -103
q36 -26 103 -26q69 0 121 10t127 47q153 78 307 172q171 101 248 166q80 68 139 68q30 0 46.5 -18t18.5 -50q0 -17 -4 -37q-24 -56 -178 -151q-150 -89 -334 -170q-292 -127 -434 -127zM35 903q8 7 38.5 35t53.5 49q12 11 31 31q24 26 29 21q3 -5 3 -17h23
q-48 -36 -123 -104q-7 -7 -47 -54q-14 -17 -14 -5q0 10 6 44zM238 2118q0 40 34 67q30 27 66 27q26 0 51 -21q21 -21 21 -57q0 -17 -11 -35q-6 -12 -6 -14q0 -21 18.5 -66t101.5 -227q19 -42 30.5 -67.5t32.5 -71t40 -88.5q7 -15 29.5 -35.5t22.5 -30.5q0 -23 -27 -47
q-21 -18 -49 -18q-23 0 -37 14q-13 13 -59 129q-77 201 -119 303.5t-54.5 126t-23.5 33.5q-29 24 -29 26q-17 0 -26 21q-6 8 -6 31z" />
    <glyph glyph-name="aacute" unicode="&#xe1;" horiz-adv-x="1529" 
d="M688 494q-191 0 -268 127q-54 84 -90 268q-10 74 -23 112q-51 -32 -272 -225q-87 -74 -131 -74q-47 0 -56 70q0 52 66 143q67 93 143 172q86 86 154 125q63 25 111 25q97 0 170 -49q83 -52 83 -117q0 -52 -47 -82q-52 -36 -114 -33l-33 2q22 -167 59 -245q27 -61 88 -103
q36 -26 103 -26q69 0 121 10t127 47q153 78 307 172q171 101 248 166q80 68 139 68q30 0 46.5 -18t18.5 -50q0 -17 -4 -37q-24 -56 -178 -151q-150 -89 -334 -170q-292 -127 -434 -127zM35 903q8 7 38.5 35t53.5 49q12 11 31 31q24 26 29 21q3 -5 3 -17h23
q-48 -36 -123 -104q-7 -7 -47 -54q-14 -17 -14 -5q0 10 6 44zM334 1585q0 40 41 64q24 15 162.5 162t191.5 219q39 51 80 51q17 0 37 -13q20 -17 20 -38q0 -32 -53 -68q-57 -43 -184 -175t-127 -149q0 -4 2 -6q10 -13 10 -37q0 -35 -33 -61q-27 -21 -57 -25q-27 0 -59 19
q-31 21 -31 57z" />
    <glyph glyph-name="acircumflex" unicode="&#xe2;" horiz-adv-x="1529" 
d="M688 494q-191 0 -268 127q-54 84 -90 268q-10 74 -23 112q-51 -32 -272 -225q-87 -74 -131 -74q-47 0 -56 70q0 52 66 143q67 93 143 172q86 86 154 125q63 25 111 25q97 0 170 -49q83 -52 83 -117q0 -52 -47 -82q-52 -36 -114 -33l-33 2q22 -167 59 -245q27 -61 88 -103
q36 -26 103 -26q69 0 121 10t127 47q153 78 307 172q171 101 248 166q80 68 139 68q30 0 46.5 -18t18.5 -50q0 -17 -4 -37q-24 -56 -178 -151q-150 -89 -334 -170q-292 -127 -434 -127zM35 903q8 7 38.5 35t53.5 49q12 11 31 31q24 26 29 21q3 -5 3 -17h23
q-48 -36 -123 -104q-7 -7 -47 -54q-14 -17 -14 -5q0 10 6 44zM147 1536q0 32 46 100q38 58 172.5 219t154.5 181q58 61 105 61q24 0 37 -10q15 -11 29.5 -47.5t15.5 -91.5q3 -143 7 -218.5t7.5 -93t9.5 -22.5q27 -27 27 -53q0 -24 -16.5 -39t-49.5 -15q-46 0 -59 37
q-12 30 -12 377q0 25 -3 54q-2 17 0 21.5t13 4.5h4l-3 -3l-11 -7q-38 -38 -100 -107.5t-132 -166.5t-70 -138q0 -64 -51 -92q-32 -14 -49 -14q-25 0 -47 16q-25 21 -25 47z" />
    <glyph glyph-name="atilde" unicode="&#xe3;" horiz-adv-x="1529" 
d="M688 494q-191 0 -268 127q-54 84 -90 268q-10 74 -23 112q-51 -32 -272 -225q-87 -74 -131 -74q-47 0 -56 70q0 52 66 143q67 93 143 172q86 86 154 125q63 25 111 25q97 0 170 -49q83 -52 83 -117q0 -52 -47 -82q-52 -36 -114 -33l-33 2q22 -167 59 -245q27 -61 88 -103
q36 -26 103 -26q69 0 121 10t127 47q153 78 307 172q171 101 248 166q80 68 139 68q30 0 46.5 -18t18.5 -50q0 -17 -4 -37q-24 -56 -178 -151q-150 -89 -334 -170q-292 -127 -434 -127zM35 903q8 7 38.5 35t53.5 49q12 11 31 31q24 26 29 21q3 -5 3 -17h23
q-48 -36 -123 -104q-7 -7 -47 -54q-14 -17 -14 -5q0 10 6 44zM111 1698q0 8 8 106q6 44 40.5 71t92.5 28q84 0 317 -121q95 -53 113 -53q5 0 -10 -14l-6 -3q0 -4 -33 27q-58 58 -58 100q0 17 25 55q20 18 55 37q28 17 58 17q49 0 96 -41q59 -38 59 -90q0 -21 -14 -68
q-13 -67 -51 -109q-36 -45 -80 -45q-30 0 -219 103q-150 85 -262 106q24 -50 24 -84q0 -42 -21.5 -67t-60.5 -25q-34 3 -53.5 22.5t-19.5 47.5z" />
    <glyph glyph-name="adieresis" unicode="&#xe4;" horiz-adv-x="1529" 
d="M688 494q-191 0 -268 127q-54 84 -90 268q-10 74 -23 112q-51 -32 -272 -225q-87 -74 -131 -74q-47 0 -56 70q0 52 66 143q67 93 143 172q86 86 154 125q63 25 111 25q97 0 170 -49q83 -52 83 -117q0 -52 -47 -82q-52 -36 -114 -33l-33 2q22 -167 59 -245q27 -61 88 -103
q36 -26 103 -26q69 0 121 10t127 47q153 78 307 172q171 101 248 166q80 68 139 68q30 0 46.5 -18t18.5 -50q0 -17 -4 -37q-24 -56 -178 -151q-150 -89 -334 -170q-292 -127 -434 -127zM35 903q8 7 38.5 35t53.5 49q12 11 31 31q24 26 29 21q3 -5 3 -17h23
q-48 -36 -123 -104q-7 -7 -47 -54q-14 -17 -14 -5q0 10 6 44zM61 1649q0 44 48 102q47 47 118 47q46 0 86 -29q41 -33 41 -75q0 -55 -65 -107q-59 -41 -121 -41q-43 0 -80 33q-27 35 -27 70zM547 1669q0 48 49 103q47 47 117 47q53 0 86 -29q43 -31 43 -76q0 -55 -68 -106
q-61 -41 -119 -41q-46 0 -82 32q-26 37 -26 70z" />
    <glyph glyph-name="aring" unicode="&#xe5;" horiz-adv-x="1529" 
d="M688 494q-191 0 -268 127q-54 84 -90 268q-10 74 -23 112q-51 -32 -272 -225q-87 -74 -131 -74q-47 0 -56 70q0 52 66 143q67 93 143 172q86 86 154 125q63 25 111 25q97 0 170 -49q83 -52 83 -117q0 -52 -47 -82q-52 -36 -114 -33l-33 2q22 -167 59 -245q27 -61 88 -103
q36 -26 103 -26q69 0 121 10t127 47q153 78 307 172q171 101 248 166q80 68 139 68q30 0 46.5 -18t18.5 -50q0 -17 -4 -37q-24 -56 -178 -151q-150 -89 -334 -170q-292 -127 -434 -127zM35 903q8 7 38.5 35t53.5 49q12 11 31 31q24 26 29 21q3 -5 3 -17h23
q-48 -36 -123 -104q-7 -7 -47 -54q-14 -17 -14 -5q0 10 6 44zM123 1827q0 188 278 254q118 35 187 35q64 0 125 -41q67 -54 67 -144q-21 -128 -114 -221q-98 -92 -201 -106h-29q-53 0 -104 26q-79 41 -86 45q-11 6 -18.5 10.5t-10.5 6.5t-2 2q-10 0 -43 22q-2 6 -15 22.5
t-18 26.5q-16 29 -16 62zM358 1888q-14 -23 -17 -48.5t6.5 -49t38 -38.5t73.5 -15q42 0 121 59q118 83 118 158q0 18 -16 26q-34 17 -61 17q-121 0 -173 -21.5t-90 -87.5z" />
    <glyph glyph-name="ae" unicode="&#xe6;" horiz-adv-x="1562" 
d="M29 887q3 7 9 15t17 19t19 18t26 23t27 25q12 11 31 31q24 26 29 21q3 -5 3 -17h23q-54 -40 -121 -104q-22 -22 -34.5 -29t-28.5 -2zM-152 772q0 49 66 143q69 96 145 172q74 77 152 125q63 25 111 25q96 0 172 -49q4 -2 24 -17q47 33 86 33q37 0 62 -22q24 -24 24 -62
q0 -39 -43 -114q-43 -70 -84 -123q-56 -90 -151 -90l-54 4q-12 0 -22 -21q-17 -33 -17 -53q0 -24 20.5 -35t72.5 -12q54 0 131 18q130 29 647 211q319 117 364 117q30 -1 45 -21t15 -51q0 -32 -12 -47q-16 -20 -54 -31q-38 -15 -114 -36q-306 -84 -371 -101
q-388 -103 -465 -121q-120 -32 -195 -32q-84 0 -128 39t-44 114l2 37l54 215q-106 -81 -252 -211q-87 -74 -131 -74q-45 0 -56 70z" />
    <glyph glyph-name="ccedilla" unicode="&#xe7;" horiz-adv-x="1349" 
d="M31 285h16q0 6 -3 -3q-1 -1 -2 -5q-2 -5 -3 -7l-17 -23q-17 -23 -39 -55.5t-46.5 -72.5t-46 -86t-31.5 -84q1 -4 23 -72.5t34.5 -113.5t13.5 -62q6 -62 -22 -111q-21 -36 -52.5 -44.5t-64.5 10.5q-83 40 -166 221q-7 16 -16.5 34.5t-14.5 28.5t-9 21.5t-3 21t6 19.5
q27 40 64 24q14 -8 22 -23.5t18 -47.5q2 -7 3 -11q66 -191 135 -227q13 -8 25 -8q2 0 4 -2q3 5 0 39q-3 22 -19 75q-7 22 -36.5 93.5t-36.5 79.5q-24 24 -27 45q0 27 12 49q4 6 29.5 62.5t57 125.5t48.5 100l19 37q-30 17 -47 39q-54 66 -54 166q0 175 150 451
q57 99 121 166q85 94 160 94q63 0 118 -64q49 -58 49 -143q0 -69 -59 -104q-60 -31 -92 -31q-46 0 -82 28q-41 27 -41 66q2 11 16 4q6 0 3 -3q-1 0 -3 -2l-12 -9q-93 -96 -160 -228q-84 -156 -90 -254q0 -80 82 -100q8 4 15 4q19 3 32 -10h19q119 3 270 59q142 57 434 209
q300 162 486 285q124 76 155 76q25 0 43 -21q21 -18 21 -45q0 -49 -121 -119q-117 -71 -416 -217q-328 -162 -543 -245q-210 -80 -329 -80z" />
    <glyph glyph-name="egrave" unicode="&#xe8;" horiz-adv-x="1165" 
d="M6 582q-84 0 -128 39t-44 114q0 56 27 127q24 74 90 152q69 81 137 133q75 57 119 57q34 0 61 -20q27 -24 27 -64q0 -70 -129 -237q-60 -96 -152 -90l-55 4q-6 1 -10 -3t-10 -18q-17 -33 -17 -53q0 -24 21 -35t73 -12q52 0 129 18q127 28 648 211q319 117 366 117
q27 -1 42.5 -18.5t15.5 -45.5q0 -39 -13 -55q-16 -20 -53 -31q-73 -27 -485 -137q-406 -108 -463 -121q-120 -32 -197 -32zM172 2132q0 41 35 68q29 26 65 26q28 0 52 -20q20 -20 20 -58q0 -17 -10 -34q-6 -12 -6 -15q0 -21 18.5 -66t101.5 -227q19 -42 30.5 -67.5t32.5 -71
t40 -88.5q7 -15 29 -35.5t22 -30.5q0 -23 -27 -47q-21 -18 -49 -18q-23 0 -37 14q-13 13 -59 129q-77 201 -119 303.5t-54.5 126t-23.5 33.5q-28 24 -28 27q-18 0 -27 20q-6 8 -6 31z" />
    <glyph glyph-name="eacute" unicode="&#xe9;" horiz-adv-x="1165" 
d="M6 582q-84 0 -128 39t-44 114q0 56 27 127q24 74 90 152q69 81 137 133q75 57 119 57q34 0 61 -20q27 -24 27 -64q0 -70 -129 -237q-60 -96 -152 -90l-55 4q-6 1 -10 -3t-10 -18q-17 -33 -17 -53q0 -24 21 -35t73 -12q52 0 129 18q127 28 648 211q319 117 366 117
q27 -1 42.5 -18.5t15.5 -45.5q0 -39 -13 -55q-16 -20 -53 -31q-73 -27 -485 -137q-406 -108 -463 -121q-120 -32 -197 -32zM268 1599q0 40 41 64q24 15 163 162.5t192 218.5q39 51 79 51q19 0 37 -12q21 -17 21 -39q0 -32 -53 -68q-58 -43 -185 -174.5t-127 -148.5
q0 -4 2 -6q11 -15 11 -37q0 -36 -33 -62q-26 -20 -58 -24q-29 0 -59 18q-31 21 -31 57z" />
    <glyph glyph-name="ecircumflex" unicode="&#xea;" horiz-adv-x="1165" 
d="M6 582q-84 0 -128 39t-44 114q0 56 27 127q24 74 90 152q69 81 137 133q75 57 119 57q34 0 61 -20q27 -24 27 -64q0 -70 -129 -237q-60 -96 -152 -90l-55 4q-6 1 -10 -3t-10 -18q-17 -33 -17 -53q0 -24 21 -35t73 -12q52 0 129 18q127 28 648 211q319 117 366 117
q27 -1 42.5 -18.5t15.5 -45.5q0 -39 -13 -55q-16 -20 -53 -31q-73 -27 -485 -137q-406 -108 -463 -121q-120 -32 -197 -32zM82 1550q0 34 45 101q38 58 172.5 218t155.5 181q58 61 104 61q24 0 37 -10q15 -11 29.5 -47.5t15.5 -91.5q3 -143 7.5 -219t8 -93t9.5 -22
q26 -26 26 -53q0 -53 -65 -53q-47 0 -60 37q-12 30 -12 376q0 25 -3 54q-2 17 0 21.5t13 4.5h4l-3 -3l-11 -7q-37 -37 -99.5 -107.5t-132 -167t-69.5 -137.5q0 -64 -51 -92q-32 -14 -49 -14q-26 0 -48 16q-24 21 -24 47z" />
    <glyph glyph-name="edieresis" unicode="&#xeb;" horiz-adv-x="1165" 
d="M6 582q-84 0 -128 39t-44 114q0 56 27 127q24 74 90 152q69 81 137 133q75 57 119 57q34 0 61 -20q27 -24 27 -64q0 -70 -129 -237q-60 -96 -152 -90l-55 4q-6 1 -10 -3t-10 -18q-17 -33 -17 -53q0 -24 21 -35t73 -12q52 0 129 18q127 28 648 211q319 117 366 117
q27 -1 42.5 -18.5t15.5 -45.5q0 -39 -13 -55q-16 -20 -53 -31q-73 -27 -485 -137q-406 -108 -463 -121q-120 -32 -197 -32zM-4 1663q0 45 47 102q47 47 119 47q47 0 86 -28q41 -33 41 -76q0 -54 -66 -106q-59 -41 -121 -41q-43 0 -79 32q-27 34 -27 70zM481 1683
q0 48 49 103q47 47 117 47q53 0 86 -29q43 -31 43 -75q0 -56 -67 -107q-61 -41 -119 -41q-45 0 -82 33q-27 39 -27 69z" />
    <glyph glyph-name="igrave" unicode="&#xec;" horiz-adv-x="909" 
d="M47 489q-50 -1 -81 38t-40 110q-6 49 -6 108q3 220 64 363q45 89 120 92l33 2q50 -3 86 -26q37 -24 47 -70q0 -96 -84 -127q-28 -13 -67 -80q-47 -82 -74 -160q-33 -90 -35 -121q3 -15 14 -21.5t35 -6.5q84 3 179 45q45 24 344 199q244 160 307 172q65 -6 74 -60
q0 -61 -78 -90q-38 -15 -350 -172q-341 -174 -447 -192zM147 1896q0 41 35 68q30 27 66 27q26 0 51 -21q20 -20 20 -57q0 -18 -10 -35q-6 -12 -6 -14q0 -30 127 -308q58 -128 96 -213q7 -15 29.5 -35t22.5 -30q0 -23 -27 -47q-22 -19 -49 -19q-22 0 -37 15q-13 13 -59 129
q-77 201 -119 303.5t-54.5 126t-23.5 33.5q-29 24 -29 26q-17 0 -26 21q-7 9 -7 30z" />
    <glyph glyph-name="iacute" unicode="&#xed;" horiz-adv-x="909" 
d="M47 489q-50 -1 -81 38t-40 110q-6 49 -6 108q3 220 64 363q45 89 120 92l33 2q50 -3 86 -26q37 -24 47 -70q0 -96 -84 -127q-28 -13 -67 -80q-47 -82 -74 -160q-33 -90 -35 -121q3 -15 14 -21.5t35 -6.5q84 3 179 45q45 24 344 199q244 160 307 172q65 -6 74 -60
q0 -61 -78 -90q-38 -15 -350 -172q-341 -174 -447 -192zM244 1364q0 39 41 63q24 15 162.5 162t191.5 219q39 52 80 52q17 0 37 -13q20 -17 20 -39q0 -31 -53 -67q-57 -43 -184 -175t-127 -149q0 -4 2 -6q10 -13 10 -37q0 -35 -33 -61q-27 -21 -57 -25q-28 0 -60 19
q-30 20 -30 57z" />
    <glyph glyph-name="icircumflex" unicode="&#xee;" horiz-adv-x="909" 
d="M47 489q-50 -1 -81 38t-40 110q-6 49 -6 108q3 220 64 363q45 89 120 92l33 2q50 -3 86 -26q37 -24 47 -70q0 -96 -84 -127q-28 -13 -67 -80q-47 -82 -74 -160q-33 -90 -35 -121q3 -15 14 -21.5t35 -6.5q84 3 179 45q45 24 344 199q244 160 307 172q65 -6 74 -60
q0 -61 -78 -90q-38 -15 -350 -172q-341 -174 -447 -192zM57 1315q0 33 45 100q38 58 173 219t155 181q58 61 105 61q23 0 36 -10q15 -11 29.5 -48t15.5 -92q3 -143 7.5 -218.5t8 -92.5t9.5 -22q27 -27 27 -54q0 -24 -16.5 -38.5t-49.5 -14.5q-46 0 -59 37q-13 33 -13 377
q0 24 -2 52q-2 19 0 23.5t13 4.5q6 0 1 -3l-12 -8q-38 -38 -100 -107.5t-131.5 -166t-69.5 -137.5q0 -64 -51 -92q-34 -15 -49 -15q-23 0 -47 17q-25 21 -25 47z" />
    <glyph glyph-name="idieresis" unicode="&#xef;" horiz-adv-x="909" 
d="M47 489q-50 -1 -81 38t-40 110q-6 49 -6 108q3 220 64 363q45 89 120 92l33 2q50 -3 86 -26q37 -24 47 -70q0 -96 -84 -127q-28 -13 -67 -80q-47 -82 -74 -160q-33 -90 -35 -121q3 -15 14 -21.5t35 -6.5q84 3 179 45q45 24 344 199q244 160 307 172q65 -6 74 -60
q0 -61 -78 -90q-38 -15 -350 -172q-341 -174 -447 -192zM-29 1427q0 46 47 103q47 47 119 47q46 0 86 -29q41 -33 41 -75q0 -55 -65 -107q-59 -41 -121 -41q-43 0 -80 33q-27 34 -27 69zM457 1448q0 47 49 102q47 47 117 47q54 0 86 -28q43 -31 43 -76q0 -56 -68 -107
q-59 -40 -119 -40q-46 0 -82 32q-26 37 -26 70z" />
    <glyph glyph-name="eth" unicode="&#xf0;" horiz-adv-x="1081" 
d="M281 373q-46 18 -105 80q-125 146 -162 360q-43 230 27 383q21 48 49 72q32 32 49 37q27 8 56 -7l59 -26q153 -84 248 -252q96 -176 51 -268q-18 -42 -54.5 -52t-80.5 13q-67 28 -74 161q-12 95 -76 179q-72 90 -116 108q-12 6 -15.5 5.5t-7.5 -9.5q-26 -60 -4 -174
q23 -140 65 -246q69 -183 150 -221q53 -25 97.5 6.5t88.5 126.5l19 37q135 409 76 879q-61 -36 -101 -70q-69 -62 -98 -74q-25 -14 -62 -10q-40 11 -51 41q-25 54 6 104q29 50 86 76q25 13 54 19q33 5 145 53l-4 12q-19 109 -33 123q-59 30 -71 35q-87 39 -113 88
q-41 62 -6 137q37 75 123 84q69 0 110 -20q73 -33 113 -138q32 -80 49 -245q211 99 227 94q45 -7 56 -39q11 -25 4 -61q-18 -42 -49 -54q-29 -12 -66 -22q-58 -16 -96 -29q-29 -10 -68 -27q16 -295 -16 -524q-33 -301 -123 -504q-63 -137 -156 -202q-108 -84 -200 -39z" />
    <glyph glyph-name="ntilde" unicode="&#xf1;" horiz-adv-x="1345" 
d="M-250 213q-37 0 -53 16q-19 16 -23 52q-6 35 -6 69q0 73 49 187q49 107 193 350q186 315 229 446q20 65 64 109q47 41 96 41q37 0 76 -27q43 -24 43 -70q0 -64 -127 -219q-175 -228 -307 -444q-134 -219 -134 -260q0 -5 -13 6q-4 4 -1 4q9 7 29 25q40 35 72 77
q88 95 200 207q115 115 191 183q84 81 116 94q31 14 50 14q33 0 61 -41q29 -41 37 -98q12 -61 31 -141q30 -82 151 -82q98 0 230 59q135 60 229 145q70 70 102 70q14 0 27 -10q39 -22 39 -60q0 -61 -117 -133q-95 -55 -248 -106q-136 -45 -245 -45q-121 0 -179 61
q-57 60 -75 197q0 4 -15 69q-4 18 -6 23l-8 4q-35 -6 -154 -113q-136 -127 -256 -280q-120 -156 -143 -230q-12 -38 -59 -94q-67 -55 -146 -55zM332 1698q0 8 8 106q6 44 40.5 71t92.5 28q85 0 318 -121q95 -53 112 -53q5 0 -10 -14l-6 -3q0 -4 -33 27q-57 57 -57 100
q0 19 24 55q18 16 56 37q28 17 57 17q49 0 96 -41q60 -38 60 -90q0 -17 -15 -68q-13 -67 -51 -109q-36 -45 -80 -45q-30 0 -219 103q-150 85 -262 106q24 -50 24 -84q0 -42 -21 -67t-60 -25q-35 3 -54.5 22.5t-19.5 47.5z" />
    <glyph glyph-name="ograve" unicode="&#xf2;" horiz-adv-x="1046" 
d="M12 504q-41 0 -88 47q-45 51 -45 139q0 116 94 336q58 127 58 152q6 67 53 94q44 26 90 26q49 -7 78 -24q26 -15 41 -17q8 0 41 11q44 14 78 14q65 -4 100 -44t35 -108q-6 -103 -80 -249l-25 -37l-12 12q33 9 90 25q58 13 197 53q41 11 102 29.5t78 23.5q92 35 145 35
q41 0 52 -25q10 -25 10 -59q-3 -41 -45 -53q-29 -13 -129 -31q-151 -31 -219 -43q-185 -32 -203 -35q-71 -10 -88 -16q-27 -6 -39 -15q-18 -12 -29 -30q-73 -88 -172 -150q-103 -61 -168 -61zM12 653q0 -9 3 -11.5t12 -4.5q46 0 110 43q31 23 84 65h6q-77 3 -176 39l-4 -14
q-3 -9 -20 -61q-3 -11 -8.5 -29.5t-6.5 -26.5zM90 860l16 -4q37 -12 199 -18l39 49q44 55 74 129q32 67 35 117q0 16 -4 18q-20 4 -46 4q-33 0 -92 -18q-46 -20 -73 -54q-56 -77 -64 -90q-36 -51 -59 -92zM309 2118q0 40 35 67q30 27 66 27q26 0 51 -21q20 -20 20 -57
q0 -18 -10 -35q-6 -12 -6 -14q0 -21 18.5 -66t101.5 -227q19 -42 30.5 -67.5t32.5 -71t40 -88.5q7 -15 29 -35.5t22 -30.5q0 -24 -26 -47q-21 -18 -49 -18q-23 0 -37 14t-60 129q-78 203 -119 304t-53.5 125.5t-23.5 33.5q-29 24 -29 26q-18 0 -27 21q-6 8 -6 31z" />
    <glyph glyph-name="oacute" unicode="&#xf3;" horiz-adv-x="1046" 
d="M12 504q-41 0 -88 47q-45 51 -45 139q0 116 94 336q58 127 58 152q6 67 53 94q44 26 90 26q49 -7 78 -24q26 -15 41 -17q8 0 41 11q44 14 78 14q65 -4 100 -44t35 -108q-6 -103 -80 -249l-25 -37l-12 12q33 9 90 25q58 13 197 53q41 11 102 29.5t78 23.5q92 35 145 35
q41 0 52 -25q10 -25 10 -59q-3 -41 -45 -53q-29 -13 -129 -31q-151 -31 -219 -43q-185 -32 -203 -35q-71 -10 -88 -16q-27 -6 -39 -15q-18 -12 -29 -30q-73 -88 -172 -150q-103 -61 -168 -61zM12 653q0 -9 3 -11.5t12 -4.5q46 0 110 43q31 23 84 65h6q-77 3 -176 39l-4 -14
q-3 -9 -20 -61q-3 -11 -8.5 -29.5t-6.5 -26.5zM90 860l16 -4q37 -12 199 -18l39 49q44 55 74 129q32 67 35 117q0 16 -4 18q-20 4 -46 4q-33 0 -92 -18q-46 -20 -73 -54q-56 -77 -64 -90q-36 -51 -59 -92zM406 1585q0 40 40 64q24 15 163 162.5t192 218.5q39 51 80 51
q17 0 37 -13q20 -17 20 -38q0 -32 -53 -68q-58 -43 -185 -175t-127 -149q0 -4 2 -6q11 -15 11 -37q0 -35 -33 -61q-27 -21 -57 -25q-28 0 -60 19q-30 20 -30 57z" />
    <glyph glyph-name="ocircumflex" unicode="&#xf4;" horiz-adv-x="1046" 
d="M12 504q-41 0 -88 47q-45 51 -45 139q0 116 94 336q58 127 58 152q6 67 53 94q44 26 90 26q49 -7 78 -24q26 -15 41 -17q8 0 41 11q44 14 78 14q65 -4 100 -44t35 -108q-6 -103 -80 -249l-25 -37l-12 12q33 9 90 25q58 13 197 53q41 11 102 29.5t78 23.5q92 35 145 35
q41 0 52 -25q10 -25 10 -59q-3 -41 -45 -53q-29 -13 -129 -31q-151 -31 -219 -43q-185 -32 -203 -35q-71 -10 -88 -16q-27 -6 -39 -15q-18 -12 -29 -30q-73 -88 -172 -150q-103 -61 -168 -61zM12 653q0 -9 3 -11.5t12 -4.5q46 0 110 43q31 23 84 65h6q-77 3 -176 39l-4 -14
q-3 -9 -20 -61q-3 -11 -8.5 -29.5t-6.5 -26.5zM90 860l16 -4q37 -12 199 -18l39 49q44 55 74 129q32 67 35 117q0 16 -4 18q-20 4 -46 4q-33 0 -92 -18q-46 -20 -73 -54q-56 -77 -64 -90q-36 -51 -59 -92zM219 1536q0 33 45 100q38 58 173 219t155 181q58 61 104 61
q24 0 37 -10q15 -11 29.5 -47.5t15.5 -91.5q3 -143 7.5 -219t8 -93t9.5 -22q26 -26 26 -53q0 -24 -16.5 -39t-48.5 -15q-46 0 -59 37q-13 32 -13 377q0 25 -3 54q-2 17 0 21.5t13 4.5h4l-3 -3l-11 -7q-37 -37 -99.5 -107.5t-132 -167t-69.5 -137.5q0 -64 -51 -92
q-32 -14 -49 -14q-25 0 -47 16q-25 21 -25 47z" />
    <glyph glyph-name="otilde" unicode="&#xf5;" horiz-adv-x="1046" 
d="M12 504q-41 0 -88 47q-45 51 -45 139q0 116 94 336q58 127 58 152q6 67 53 94q44 26 90 26q49 -7 78 -24q26 -15 41 -17q8 0 41 11q44 14 78 14q65 -4 100 -44t35 -108q-6 -103 -80 -249l-25 -37l-12 12q33 9 90 25q58 13 197 53q41 11 102 29.5t78 23.5q92 35 145 35
q41 0 52 -25q10 -25 10 -59q-3 -41 -45 -53q-29 -13 -129 -31q-151 -31 -219 -43q-185 -32 -203 -35q-71 -10 -88 -16q-27 -6 -39 -15q-18 -12 -29 -30q-73 -88 -172 -150q-103 -61 -168 -61zM12 653q0 -9 3 -11.5t12 -4.5q46 0 110 43q31 23 84 65h6q-77 3 -176 39l-4 -14
q-3 -9 -20 -61q-3 -11 -8.5 -29.5t-6.5 -26.5zM90 860l16 -4q37 -12 199 -18l39 49q44 55 74 129q32 67 35 117q0 16 -4 18q-20 4 -46 4q-33 0 -92 -18q-46 -20 -73 -54q-56 -77 -64 -90q-36 -51 -59 -92zM182 1698q0 8 8 106q6 44 40.5 71t93.5 28q84 0 317 -121
q95 -53 113 -53q5 0 -11 -14q-6 -5 -6 -3q0 -3 -32 27q-58 58 -58 100q0 17 25 55q20 18 55 37q28 17 57 17q50 0 97 -41q59 -38 59 -90q0 -21 -14 -68q-12 -66 -52 -109q-36 -45 -79 -45q-31 0 -220 103q-150 85 -262 106q25 -52 25 -84q0 -42 -21.5 -67t-60.5 -25
q-35 3 -54.5 22.5t-19.5 47.5z" />
    <glyph glyph-name="odieresis" unicode="&#xf6;" horiz-adv-x="1046" 
d="M12 504q-41 0 -88 47q-45 51 -45 139q0 116 94 336q58 127 58 152q6 67 53 94q44 26 90 26q49 -7 78 -24q26 -15 41 -17q8 0 41 11q44 14 78 14q65 -4 100 -44t35 -108q-6 -103 -80 -249l-25 -37l-12 12q33 9 90 25q58 13 197 53q41 11 102 29.5t78 23.5q92 35 145 35
q41 0 52 -25q10 -25 10 -59q-3 -41 -45 -53q-29 -13 -129 -31q-151 -31 -219 -43q-185 -32 -203 -35q-71 -10 -88 -16q-27 -6 -39 -15q-18 -12 -29 -30q-73 -88 -172 -150q-103 -61 -168 -61zM12 653q0 -9 3 -11.5t12 -4.5q46 0 110 43q31 23 84 65h6q-77 3 -176 39l-4 -14
q-3 -9 -20 -61q-3 -11 -8.5 -29.5t-6.5 -26.5zM90 860l16 -4q37 -12 199 -18l39 49q44 55 74 129q32 67 35 117q0 16 -4 18q-20 4 -46 4q-33 0 -92 -18q-46 -20 -73 -54q-56 -77 -64 -90q-36 -51 -59 -92zM133 1649q0 45 47 102q47 47 119 47q46 0 86 -29q41 -33 41 -75
q0 -55 -66 -107q-59 -41 -120 -41q-43 0 -80 33q-27 35 -27 70zM618 1669q0 47 50 103q47 47 116 47q53 0 86 -29q43 -31 43 -76q0 -55 -67 -106q-61 -41 -119 -41q-46 0 -82 32q-27 39 -27 70z" />
    <glyph glyph-name="divide" unicode="&#xf7;" horiz-adv-x="1107" 
d="M510 1135q-52 0 -88 26q-39 31 -39 74q0 53 53 94q48 39 109 39q49 0 86 -29q39 -33 39 -84q-20 -120 -160 -120zM70 907q0 38 51 80q46 37 110 37q31 0 58 -8q24 -6 63 -6q56 0 246 24q174 23 229 23q83 0 125 -31q45 -31 45 -74q0 -35 -28 -59q-29 -29 -74 -29
q-17 0 -66 17q-61 28 -147 28q-139 0 -334 -63q-118 -43 -137 -43l-21 2l-51 12q-27 12 -47 39q-22 28 -22 51zM395 655q0 46 43 86q41 41 111 41q121 0 121 -108q-1 -57 -35.5 -88.5t-97.5 -34.5q-55 0 -95 29q-47 24 -47 75z" />
    <glyph glyph-name="oslash" unicode="&#xf8;" horiz-adv-x="1046" 
d="M305 838q139 179 148 295q0 16 -2 18q-4 1 -11.5 2t-11.5 2q-98 -162 -174 -315zM-147 84q0 146 131 426q-32 13 -60 41q-45 51 -45 139q0 116 94 336q58 134 58 152q12 120 141 120q43 -3 82 -22q21 -16 39 -19q1 0 41 9q28 12 65 16l156 272q104 183 104 215v15
q-6 18 -6 26q0 45 31 93q47 75 127 75q57 0 96 -45q33 -48 33 -90q0 -57 -43 -100t-111 -43q-14 0 -59 -62q-91 -132 -238 -378q58 -42 58 -130q-6 -103 -80 -249l-25 -37l-12 12q33 9 90 25q43 10 197 53q41 11 102 29.5t78 23.5q92 35 145 35q32 0 50 -21q12 -18 12 -63
q-3 -37 -45 -51q-24 -11 -129 -33q-300 -61 -424 -78q-75 -12 -86 -14q-43 -9 -68 -47q-108 -129 -246 -189q-36 -85 -67 -215q-35 -134 -35 -176q0 -22 2 -24q7 -7 21 -9q30 -3 47 -20q16 -16 16 -47q0 -33 -22 -64q-27 -37 -56 -37q-7 0 -28 -8h-15q-57 0 -86.5 40.5
t-29.5 117.5zM12 653q0 -9 3 -11.5t12 -4.5q10 0 16 2l66 125q-40 12 -58 20l-2 -12q-9 -19 -20 -63q-15 -44 -17 -56zM90 860q0 -7 64 -12q111 199 163 291q-45 -17 -77 -56q-61 -82 -66 -90q-84 -120 -84 -133zM193 721q20 16 28 24h6l-22 3z" />
    <glyph glyph-name="ugrave" unicode="&#xf9;" horiz-adv-x="1171" 
d="M59 670q-38 0 -67 26q-64 52 -64 164q2 41 15 141q25 142 43 179q23 33 61 47q33 16 80 16q55 0 84 -26q35 -27 35 -66q0 -47 -45 -104q-43 -52 -66 -117q-25 -58 -29 -103v-16q1 -4 -1 -5q-5 -1 -13 10q-2 3 0 3q5 0 217 185q90 80 128 110.5t50 30.5q10 0 27 -10
q13 -9 23 -25q10 -17 10 -45q-3 -34 -15 -88q-10 -45 -14 -82q0 -36 34.5 -53.5t113.5 -20.5q76 0 198 35q117 34 174 72q64 43 111 43q37 0 55 -29q17 -27 17 -45q-3 -55 -101 -98q-85 -36 -207 -58q-113 -22 -225 -22h-8q-120 0 -185 59t-65 156v20q0 3 14 -7q4 -3 2 -3
q-14 0 -124 -113q-169 -161 -263 -161zM125 2118q0 40 35 67q30 27 65 27q26 0 51 -21q21 -21 21 -57q0 -18 -10 -35q-6 -12 -6 -14q0 -21 18.5 -66t101.5 -227q19 -42 30.5 -67.5t32.5 -71t40 -88.5q7 -15 29 -35.5t22 -30.5q0 -23 -27 -47q-21 -18 -49 -18q-23 0 -37 14
q-13 13 -59 129q-77 201 -119 303.5t-54.5 126t-23.5 33.5q-28 24 -28 26q-18 0 -27 21q-6 8 -6 31z" />
    <glyph glyph-name="uacute" unicode="&#xfa;" horiz-adv-x="1171" 
d="M59 670q-38 0 -67 26q-64 52 -64 164q2 41 15 141q25 142 43 179q23 33 61 47q33 16 80 16q55 0 84 -26q35 -27 35 -66q0 -47 -45 -104q-43 -52 -66 -117q-25 -58 -29 -103v-16q1 -4 -1 -5q-5 -1 -13 10q-2 3 0 3q5 0 217 185q90 80 128 110.5t50 30.5q10 0 27 -10
q13 -9 23 -25q10 -17 10 -45q-3 -34 -15 -88q-10 -45 -14 -82q0 -36 34.5 -53.5t113.5 -20.5q76 0 198 35q117 34 174 72q64 43 111 43q37 0 55 -29q17 -27 17 -45q-3 -55 -101 -98q-85 -36 -207 -58q-113 -22 -225 -22h-8q-120 0 -185 59t-65 156v20q0 3 14 -7q4 -3 2 -3
q-14 0 -124 -113q-169 -161 -263 -161zM221 1585q0 40 41 64q24 15 162.5 162t191.5 219q39 51 80 51q18 0 37 -13q21 -18 21 -38q0 -32 -54 -68q-57 -43 -184 -175t-127 -149q0 -4 2 -6q10 -13 10 -37q0 -35 -32 -61q-27 -21 -58 -25q-27 0 -59 19q-31 21 -31 57z" />
    <glyph glyph-name="ucircumflex" unicode="&#xfb;" horiz-adv-x="1171" 
d="M59 670q-38 0 -67 26q-64 52 -64 164q2 41 15 141q25 142 43 179q23 33 61 47q33 16 80 16q55 0 84 -26q35 -27 35 -66q0 -47 -45 -104q-43 -52 -66 -117q-25 -58 -29 -103v-16q1 -4 -1 -5q-5 -1 -13 10q-2 3 0 3q5 0 217 185q90 80 128 110.5t50 30.5q10 0 27 -10
q13 -9 23 -25q10 -17 10 -45q-3 -34 -15 -88q-10 -45 -14 -82q0 -36 34.5 -53.5t113.5 -20.5q76 0 198 35q117 34 174 72q64 43 111 43q37 0 55 -29q17 -27 17 -45q-3 -55 -101 -98q-85 -36 -207 -58q-113 -22 -225 -22h-8q-120 0 -185 59t-65 156v20q0 3 14 -7q4 -3 2 -3
q-14 0 -124 -113q-169 -161 -263 -161zM35 1536q0 33 45 100q38 58 173 219t155 181q58 61 104 61q24 0 37 -10q15 -11 29.5 -47.5t15.5 -91.5q3 -143 7 -218.5t7.5 -93t9.5 -22.5q27 -27 27 -53q0 -24 -16.5 -39t-48.5 -15q-47 0 -60 37q-12 30 -12 377q0 25 -3 54
q-2 17 0 21.5t13 4.5h4l-3 -3l-11 -7q-37 -37 -99.5 -107.5t-132 -167t-69.5 -137.5q0 -64 -51 -92q-32 -14 -50 -14q-25 0 -47 16q-24 21 -24 47z" />
    <glyph glyph-name="udieresis" unicode="&#xfc;" horiz-adv-x="1171" 
d="M59 670q-38 0 -67 26q-64 52 -64 164q2 41 15 141q25 142 43 179q23 33 61 47q33 16 80 16q55 0 84 -26q35 -27 35 -66q0 -47 -45 -104q-43 -52 -66 -117q-25 -58 -29 -103v-16q1 -4 -1 -5q-5 -1 -13 10q-2 3 0 3q5 0 217 185q90 80 128 110.5t50 30.5q10 0 27 -10
q13 -9 23 -25q10 -17 10 -45q-3 -34 -15 -88q-10 -45 -14 -82q0 -36 34.5 -53.5t113.5 -20.5q76 0 198 35q117 34 174 72q64 43 111 43q37 0 55 -29q17 -27 17 -45q-3 -55 -101 -98q-85 -36 -207 -58q-113 -22 -225 -22h-8q-120 0 -185 59t-65 156v20q0 3 14 -7q4 -3 2 -3
q-14 0 -124 -113q-169 -161 -263 -161zM211 1546q0 41 41 88q41 41 104 41q40 0 74 -24q35 -32 35 -68q0 -51 -55 -90q-56 -37 -107 -37q-40 0 -65 29q-27 27 -27 61zM489 1565q0 38 41 86q44 41 105 41q38 0 74 -25q34 -27 34 -65q0 -56 -57 -93q-52 -34 -102 -34
q-44 0 -68 28q-27 27 -27 62z" />
    <glyph glyph-name="yacute" unicode="&#xfd;" horiz-adv-x="1525" 
d="M14 -618q-98 0 -148 53t-50 155q0 233 282 580q281 345 695 614q74 49 100 72q25 22 25 43q0 19 -21 57q-18 39 -49.5 56.5t-87.5 17.5q-164 0 -475 -196q-238 -136 -271 -136q-80 0 -80 105q0 112 95 352q37 95 84 115q43 18 88 18q49 0 90 -26q45 -25 45 -74
q0 -37 -31 -76q-36 -39 -65 -39q-16 0 -62 -57q-50 -52 -104 -133q-43 -67 -43 -88q0 5 -8 12q36 0 190 96q367 221 537 221q72 0 118 -34q47 -37 68 -78q26 -51 35 -78q7 -26 8 -27q29 7 106 45q97 45 193 76q94 27 152 27q53 -6 100 -43q49 -36 49 -76q0 -28 -23 -51
q-22 -19 -51 -19q-27 0 -53 13q-33 20 -82 20q-34 0 -139 -31q-120 -41 -187 -77q-47 -23 -47 -29q-10 -10 -10 -37q0 -146 -90 -379q-84 -237 -209 -430q-150 -236 -340 -387q-185 -147 -334 -147zM-117 -424q0 -41 6 -53q5 -13 23 -27q33 -33 82 -33q31 0 96 21
q225 90 438 358q218 269 332 602q68 216 68 299q0 14 11 2q7 -8 3 -8q-9 0 -78 -41q-412 -240 -702 -590q-279 -337 -279 -530zM467 1329q0 39 39 64q43 29 153 176q36 51 80 51q19 0 37 -12q21 -18 21 -39q0 -29 -54 -68q-108 -81 -108 -119q0 -4 2 -6q10 -13 10 -37
q0 -35 -33 -61q-27 -21 -57 -25q-27 0 -59 19q-31 21 -31 57z" />
    <glyph glyph-name="thorn" unicode="&#xfe;" horiz-adv-x="1093" 
d="M-446 -528q-40 0 -60 26q-24 24 -24 115q0 317 282 901q89 190 105 264q18 59 39 86q24 47 24 66q0 49 103 141q92 92 223 262q36 47 194.5 265t298.5 409.5t160 212.5q74 80 115 80q32 -1 49.5 -19.5t17.5 -48.5q0 -27 -32 -84.5t-154 -237t-381 -544.5
q-8 -11 -18.5 -26t-16.5 -24t-14 -20.5t-13 -18t-11 -14t-10 -12t-8.5 -9t-8 -6.5t-6.5 -3q-1 0 -56 -2q159 67 254 67q80 0 121 -49.5t41 -144.5q0 -14 -1 -29t-1 -16q85 27 104 33q48 10 99 10q79 0 129 -41q51 -58 51 -105q0 -33 -23.5 -51t-62.5 -18q-48 0 -70 39
q-14 20 -53 20q-49 0 -147 -28q-43 -11 -78 -31q-19 -13 -33 -45q-77 -145 -244 -324q-265 -280 -407 -280q-47 0 -72 36q-25 41 -25 74q0 41 37 113q65 130 224 264q161 137 364 242q115 57 131 63v25q0 75 -14 92q-13 16 -47 16q-55 0 -142 -35q-94 -44 -170 -102
q-62 -51 -116 -129q-51 -71 -51 -96q0 -43 -37 -86q-40 -43 -90 -43l-58 4q-8 4 -26 4q-186 -369 -263 -578q-71 -207 -77 -419q0 -27 4 -31q-2 5 -4 4q17 0 39 -18q6 -10 20 -31q10 -20 10 -37q0 -22 -18 -43q-23 -27 -43 -37q-24 -18 -53 -18zM6 348q0 -4 3 -5t22 -1
q118 0 354 242q137 140 236 299q1 -2 5.5 -8t7.5 -10.5t1 -4.5q-9 0 -62 -20q-196 -91 -340 -209q-147 -117 -206 -236q-21 -41 -21 -47z" />
    <glyph glyph-name="ydieresis" unicode="&#xff;" horiz-adv-x="1525" 
d="M14 -618q-98 0 -148 53t-50 155q0 233 282 580q281 345 695 614q74 49 100 72q25 22 25 43q0 19 -21 57q-18 39 -49.5 56.5t-87.5 17.5q-164 0 -475 -196q-238 -136 -271 -136q-80 0 -80 105q0 112 95 352q37 95 84 115q43 18 88 18q49 0 90 -26q45 -25 45 -74
q0 -37 -31 -76q-36 -39 -65 -39q-16 0 -62 -57q-50 -52 -104 -133q-43 -67 -43 -88q0 5 -8 12q36 0 190 96q367 221 537 221q72 0 118 -34q47 -37 68 -78q26 -51 35 -78q7 -26 8 -27q29 7 106 45q97 45 193 76q94 27 152 27q53 -6 100 -43q49 -36 49 -76q0 -28 -23 -51
q-22 -19 -51 -19q-27 0 -53 13q-33 20 -82 20q-34 0 -139 -31q-120 -41 -187 -77q-47 -23 -47 -29q-10 -10 -10 -37q0 -146 -90 -379q-84 -237 -209 -430q-150 -236 -340 -387q-185 -147 -334 -147zM-117 -424q0 -41 6 -53q5 -13 23 -27q33 -33 82 -33q31 0 96 21
q225 90 438 358q218 269 332 602q68 216 68 299q0 14 11 2q7 -8 3 -8q-9 0 -78 -41q-412 -240 -702 -590q-279 -337 -279 -530zM410 1548q0 41 41 88q41 41 104 41q39 0 74 -24q35 -31 35 -68q0 -50 -56 -90q-56 -37 -106 -37q-41 0 -66 29q-26 26 -26 61zM688 1567
q0 38 41 86q44 41 105 41q37 0 73 -25q35 -28 35 -65q0 -56 -57 -93q-52 -34 -103 -34q-42 0 -67 28q-27 27 -27 62z" />
    <glyph glyph-name="Amacron" unicode="&#x100;" horiz-adv-x="2230" 
d="M1819 -406q-40 6 -66 68q-75 126 -78 485q0 282 80 975q-15 10 -16 11q-9 3 -109 22q-88 18 -168.5 32t-174 27t-107.5 15l-9 2l-16 -4q-12 -10 -51 -64q-217 -337 -330 -569q-98 -200 -98 -275q0 -6 12 -20q27 -39 27 -72q0 -38 -21 -53q-18 -18 -45 -18q-79 0 -92 131
q0 109 92 291q65 132 277 462q118 184 118 207v-18h-67q-755 -41 -1069 -271l-23 -16q2 -4 23 -39q18 -24 18 -49q0 -55 -63 -74q-45 14 -72.5 45t-30.5 74q0 40 11 82q50 141 395 244q357 107 795 116l81 2q21 0 60 -8l4 5l10 10q25 30 53 67q32 42 99 142q324 476 434 663
q125 204 131 264q2 21 37 66q26 37 63 67q48 38 76 35l2 -2q17 0 32 -21.5t19 -62.5q0 -37 -2 -47q-37 -139 -88 -475q-37 -222 -123 -840q214 -80 318 -157q119 -87 131 -207q0 -55 -10 -97q-12 -47 -62 -47q-78 0 -100 146q-15 87 -107 153q-87 59 -176 93
q-27 -241 -47 -486q-6 -153 -6 -301q0 -438 84 -528q38 -48 35 -84l-2 -6q0 -30 -23 -60q-24 -30 -59 -33zM1217 1331q192 -20 555 -96l2 8q37 173 112 782q23 202 23 277q0 13 22 2q-22 -22 -139 -174q-92 -120 -299 -406q-99 -136 -276 -393zM1661 2972q0 61 51 92
q51 33 111 33q23 0 55 -7q49 -14 221 -14q348 0 363 -12q35 -21 35 -58q0 -29 -25 -57q-26 -29 -66 -29q-20 0 -69 9l-99 12q-59 6 -116 6q-147 0 -252 -27q-77 -24 -119 -24q-32 0 -59 18q-31 21 -31 58z" />
    <glyph glyph-name="amacron" unicode="&#x101;" horiz-adv-x="1529" 
d="M688 494q-191 0 -268 127q-54 84 -90 268q-10 74 -23 112q-51 -32 -272 -225q-87 -74 -131 -74q-47 0 -56 70q0 52 66 143q67 93 143 172q86 86 154 125q63 25 111 25q97 0 170 -49q83 -52 83 -117q0 -52 -47 -82q-52 -36 -114 -33l-33 2q22 -167 59 -245q27 -61 88 -103
q36 -26 103 -26q69 0 121 10t127 47q153 78 307 172q171 101 248 166q80 68 139 68q30 0 46.5 -18t18.5 -50q0 -17 -4 -37q-24 -56 -178 -151q-150 -89 -334 -170q-292 -127 -434 -127zM35 903q8 7 38.5 35t53.5 49q12 11 31 31q24 26 29 21q3 -5 3 -17h23
q-48 -36 -123 -104q-7 -7 -47 -54q-14 -17 -14 -5q0 10 6 44zM35 1651q0 61 51 92q51 33 111 33q23 0 55 -7q49 -14 221 -14q348 0 363 -12q34 -20 34 -57q0 -31 -24 -58q-26 -29 -66 -29q-20 0 -69 9l-99 12q-59 6 -116 6q-147 0 -252 -27q-77 -24 -119 -24q-32 0 -59 18
q-31 21 -31 58z" />
    <glyph glyph-name="Abreve" unicode="&#x102;" horiz-adv-x="2230" 
d="M1819 -406q-40 6 -66 68q-75 126 -78 485q0 282 80 975q-15 10 -16 11q-9 3 -109 22q-88 18 -168.5 32t-174 27t-107.5 15l-9 2l-16 -4q-12 -10 -51 -64q-217 -337 -330 -569q-98 -200 -98 -275q0 -6 12 -20q27 -39 27 -72q0 -38 -21 -53q-18 -18 -45 -18q-79 0 -92 131
q0 109 92 291q65 132 277 462q118 184 118 207v-18h-67q-755 -41 -1069 -271l-23 -16q2 -4 23 -39q18 -24 18 -49q0 -55 -63 -74q-45 14 -72.5 45t-30.5 74q0 40 11 82q50 141 395 244q357 107 795 116l81 2q21 0 60 -8l4 5l10 10q25 30 53 67q32 42 99 142q324 476 434 663
q125 204 131 264q2 21 37 66q26 37 63 67q48 38 76 35l2 -2q17 0 32 -21.5t19 -62.5q0 -37 -2 -47q-37 -139 -88 -475q-37 -222 -123 -840q214 -80 318 -157q119 -87 131 -207q0 -55 -10 -97q-12 -47 -62 -47q-78 0 -100 146q-15 87 -107 153q-87 59 -176 93
q-27 -241 -47 -486q-6 -153 -6 -301q0 -438 84 -528q38 -48 35 -84l-2 -6q0 -30 -23 -60q-24 -30 -59 -33zM1217 1331q192 -20 555 -96l2 8q37 173 112 782q23 202 23 277q0 13 22 2q-22 -22 -139 -174q-92 -120 -299 -406q-99 -136 -276 -393zM1888 2875q-37 40 -37 117.5
t41 145.5q15 27 51.5 48t69.5 21q47 0 66 -22q15 -12 11 -43t-30 -50q-24 -19 -36.5 -32t-23.5 -36t-9 -54.5t16 -75.5q0 -3 15 -9t26 -6q12 0 35 13q21 15 43 37q103 117 108 170q3 25 27 49q30 24 49 24q34 0 51 -20q22 -25 19 -49q-5 -54 -58.5 -125t-99.5 -113
q-97 -82 -178 -82q-80 0 -156 92z" />
    <glyph glyph-name="abreve" unicode="&#x103;" horiz-adv-x="1529" 
d="M688 494q-191 0 -268 127q-54 84 -90 268q-10 74 -23 112q-51 -32 -272 -225q-87 -74 -131 -74q-47 0 -56 70q0 52 66 143q67 93 143 172q86 86 154 125q63 25 111 25q97 0 170 -49q83 -52 83 -117q0 -52 -47 -82q-52 -36 -114 -33l-33 2q22 -167 59 -245q27 -61 88 -103
q36 -26 103 -26q69 0 121 10t127 47q153 78 307 172q171 101 248 166q80 68 139 68q30 0 46.5 -18t18.5 -50q0 -17 -4 -37q-24 -56 -178 -151q-150 -89 -334 -170q-292 -127 -434 -127zM35 903q8 7 38.5 35t53.5 49q12 11 31 31q24 26 29 21q3 -5 3 -17h23
q-48 -36 -123 -104q-7 -7 -47 -54q-14 -17 -14 -5q0 10 6 44zM262 1554q-37 40 -37 117.5t41 145.5q15 27 51.5 48t69.5 21q47 0 66 -22q15 -12 11 -42.5t-30 -49.5q-24 -19 -36.5 -32.5t-23.5 -36.5t-9 -54.5t16 -75.5q0 -3 15 -8.5t26 -5.5q14 0 35 12q21 15 43 37
q103 117 108 170q3 25 27 49q30 24 49 24q34 0 51 -20q22 -25 19 -49q-5 -54 -58.5 -125t-99.5 -113q-97 -82 -178 -82q-80 0 -156 92z" />
    <glyph glyph-name="Aogonek" unicode="&#x104;" horiz-adv-x="2230" 
d="M1819 -406q-19 3 -41 25q-27 -25 -64 -74q-67 -97 -67 -196q0 -32 6 -62q2 -7 37 -20q24 -19 63 -19q21 0 76 25q50 27 96 27q37 0 58 -20.5t24 -55.5q0 -52 -68 -90q-64 -31 -129 -31q-109 0 -190 94q-70 99 -70 205q0 109 33 184q42 92 137 156q-42 124 -45 405
q0 282 80 975q-15 10 -16 11q-9 3 -109 22q-88 18 -168.5 32t-174 27t-107.5 15l-9 2l-16 -4q-12 -10 -51 -64q-217 -337 -330 -569q-98 -200 -98 -275q0 -6 12 -20q27 -39 27 -72q0 -38 -21 -53q-18 -18 -45 -18q-79 0 -92 131q0 109 92 291q65 132 277 462
q118 184 118 207v-18h-67q-755 -41 -1069 -271l-23 -16q2 -4 23 -39q18 -24 18 -49q0 -55 -63 -74q-45 14 -72.5 45t-30.5 74q0 40 11 82q50 141 395 244q357 107 795 116l81 2q21 0 60 -8l4 5l10 10q25 30 53 67q32 42 99 142q324 476 434 663q125 204 131 264q2 21 37 66
q26 37 63 67q48 38 76 35l2 -2q17 0 32 -21.5t19 -62.5q0 -37 -2 -47q-37 -139 -88 -475q-37 -222 -123 -840q214 -80 318 -157q119 -87 131 -207q0 -55 -10 -97q-12 -47 -62 -47q-78 0 -100 146q-15 87 -107 153q-87 59 -176 93q-27 -241 -47 -486q-6 -153 -6 -301
q0 -388 65 -506q5 0 15.5 1t15.5 1q64 0 89 -16t14.5 -37t-35 -41t-51.5 -29l4 9q-3 -29 -23 -60q-24 -30 -59 -33zM1217 1331q192 -20 555 -96l2 8q37 173 112 782q23 202 23 277q0 13 22 2q-22 -22 -139 -174q-92 -120 -299 -406q-99 -136 -276 -393z" />
    <glyph glyph-name="aogonek" unicode="&#x105;" horiz-adv-x="1529" 
d="M690 494q-71 -17 -143 -119q-68 -98 -68 -197q0 -31 6 -61q3 -8 37 -21q23 -18 64 -18q24 0 76 24q50 27 96 27q37 0 58 -20.5t24 -55.5q0 -52 -68 -90q-64 -31 -129 -31q-108 0 -190 95q-70 99 -70 204q0 110 33 185q27 61 90 121q-49 28 -86 84q-54 84 -90 268
q-10 74 -23 112q-51 -32 -272 -225q-87 -74 -131 -74q-47 0 -56 70q0 52 66 143q67 93 143 172q86 86 154 125q63 25 111 25q97 0 170 -49q83 -52 83 -117q0 -52 -47 -82q-52 -36 -114 -33l-33 2q22 -167 59 -245q26 -60 86 -103q26 -16 54 -22q71 41 139 41q59 0 86 -19
q9 3 20.5 7.5t27 12t26.5 11.5q153 78 307 172q171 101 248 166q80 68 139 68q30 0 46.5 -18t18.5 -50q0 -17 -4 -37q-24 -56 -178 -151q-150 -89 -334 -170q-287 -127 -432 -127zM35 903q8 7 38.5 35t53.5 49q12 11 31 31q24 26 29 21q3 -5 3 -17h23q-48 -36 -123 -104
q-7 -7 -47 -54q-14 -17 -14 -5q0 10 6 44z" />
    <glyph glyph-name="Cacute" unicode="&#x106;" horiz-adv-x="2441" 
d="M688 -227q-175 0 -291 61q-206 101 -303 270q-94 168 -94 416q0 173 35 322q134 419 481 831q318 348 707 602q395 262 608 262q49 -3 76 -14q29 -8 63 -45q33 -36 33 -100q0 -114 -37 -236q-43 -118 -158 -289q-139 -205 -327 -405q-200 -213 -377 -348
q-189 -148 -289 -148q-125 0 -125 97q0 44 37 73q26 21 115 58q202 81 540 422q325 319 455 585q64 119 64 168q0 31 -19.5 43t-66.5 12q-170 0 -506 -206q-338 -204 -639 -508q-394 -412 -557 -875q-4 -13 -9.5 -32.5t-9 -33.5l-6.5 -26q-9 -41 -12 -88q-4 -70 -4 -139
q0 -175 14 -213q2 -21 23 -64q107 -215 356 -319q49 -21 96 -27q70 -4 146 -4q166 0 337 62q159 59 377 204q254 173 492 381q281 237 426 400q102 114 155 114q28 0 46 -24q18 -21 18 -47q0 -55 -152 -195q-253 -241 -542 -461q-300 -226 -523 -350q-366 -186 -653 -186z
M1681 2693q0 40 41 64q24 15 163 162.5t192 218.5q39 51 80 51q17 0 36 -13q21 -18 21 -38q0 -32 -53 -68q-58 -43 -185 -175t-127 -149q0 -4 2 -6q11 -15 11 -37q0 -35 -33 -61q-27 -21 -57 -25q-28 0 -60 19q-31 21 -31 57z" />
    <glyph glyph-name="cacute" unicode="&#x107;" horiz-adv-x="1349" 
d="M31 285q-117 0 -172 67q-54 66 -54 166q0 175 150 451q57 99 121 166q85 94 160 94q63 0 118 -64q49 -58 49 -143q0 -69 -59 -104q-60 -31 -92 -31q-46 0 -82 28q-41 27 -41 66q2 11 16 4q6 0 3 -3q-1 0 -3 -2l-12 -9q-93 -96 -160 -228q-84 -156 -90 -254
q0 -56 34.5 -81t113.5 -25q119 3 270 59q142 57 434 209q300 162 486 285q124 76 155 76q25 0 43 -21q21 -18 21 -45q0 -49 -121 -119q-117 -71 -416 -217q-328 -162 -543 -245q-210 -80 -329 -80zM264 1665q0 40 41 64q24 15 162.5 162t191.5 218q39 52 80 52q17 0 37 -13
q21 -18 21 -39q0 -31 -54 -67q-57 -43 -184 -175t-127 -149q0 -4 2 -6q10 -13 10 -37q0 -35 -32 -61q-27 -21 -58 -25q-27 0 -59 19q-31 21 -31 57z" />
    <glyph glyph-name="Ccircumflex" unicode="&#x108;" horiz-adv-x="2441" 
d="M688 -227q-175 0 -291 61q-206 101 -303 270q-94 168 -94 416q0 173 35 322q134 419 481 831q318 348 707 602q395 262 608 262q49 -3 76 -14q29 -8 63 -45q33 -36 33 -100q0 -114 -37 -236q-43 -118 -158 -289q-139 -205 -327 -405q-200 -213 -377 -348
q-189 -148 -289 -148q-125 0 -125 97q0 44 37 73q26 21 115 58q202 81 540 422q325 319 455 585q64 119 64 168q0 31 -19.5 43t-66.5 12q-170 0 -506 -206q-338 -204 -639 -508q-394 -412 -557 -875q-4 -13 -9.5 -32.5t-9 -33.5l-6.5 -26q-9 -41 -12 -88q-4 -70 -4 -139
q0 -175 14 -213q2 -21 23 -64q107 -215 356 -319q49 -21 96 -27q70 -4 146 -4q166 0 337 62q159 59 377 204q254 173 492 381q281 237 426 400q102 114 155 114q28 0 46 -24q18 -21 18 -47q0 -55 -152 -195q-253 -241 -542 -461q-300 -226 -523 -350q-366 -186 -653 -186z
M1495 2644q0 33 45 100q38 58 173 219t155 181q58 61 104 61q24 0 37 -10q15 -11 29.5 -47.5t15.5 -91.5q3 -143 7.5 -219t8 -93t9.5 -22q26 -26 26 -53q0 -24 -16.5 -39t-48.5 -15q-47 0 -60 37q-12 30 -12 377q0 25 -3 54q-2 17 0 21.5t13 4.5h4l-3 -3l-11 -7
q-37 -37 -99.5 -107.5t-132 -167t-69.5 -137.5q0 -64 -51 -92q-34 -15 -49 -15q-23 0 -47 17q-25 21 -25 47z" />
    </font>
</defs>
</svg>
