<?xml version="1.0" standalone="no"?>
<!DOCTYPE svg PUBLIC "-//W3C//DTD SVG 1.1//EN" "http://www.w3.org/Graphics/SVG/1.1/DTD/svg11.dtd" >
<svg xmlns="http://www.w3.org/2000/svg" xmlns:xlink="http://www.w3.org/1999/xlink" version="1.1">
<metadata>
Created by FontForge 20170731 at Thu Jun 16 07:36:33 2022
 By Aleksey,,,
2021 (C) Copyright by Mans Greback AB 
</metadata>
<defs>
<font id="MonitaSignaturePERSONALUSE-BoldItalic" horiz-adv-x="0" >
  <font-face 
    font-family="Monita Signature PERSONAL USE Bd"
    font-weight="400"
    font-style="italic"
    font-stretch="normal"
    units-per-em="2048"
    panose-1="0 0 0 0 0 0 0 0 0 0"
    ascent="1638"
    descent="-410"
    x-height="1243"
    cap-height="2687"
    bbox="-1747.16 -1079.29 20619.3 4188"
    underline-thickness="102"
    underline-position="-358"
    unicode-range="U+0020-FB02"
  />
<missing-glyph horiz-adv-x="2097" 
 />
    <glyph glyph-name="mn.sg" unicode="&#x30;&#x30;&#x30;&#x30;&#x30;&#x30;&#x30;&#x30;&#x30;&#x30;" horiz-adv-x="4591" 
d="M2466 2157q-65 0 -107.5 33t-46.5 94q-6 39 -6 116q0 21 -2.5 82.5t-1 105.5t9.5 81q21 96 148 100q128 0 159 -88q9 -28 12.5 -65.5t3.5 -65t-1.5 -69.5t-1.5 -58q0 -103 -6 -146q-13 -64 -51.5 -92t-108.5 -28zM162 174l8 692h113l84 -434l77 434h119l2 -692h-96
l-12 287l-47 -287h-82l-58 281l-6 -281h-102zM655 174v692h88l119 -331v331h109v-692h-86l-121 338v-338h-109zM719 -446q0 49 23.5 77t68.5 21q20 -1 34 -9t21 -17.5t10.5 -26t4 -26.5t0.5 -28h-37q0 38 -4 58q-10 19 -34 20.5t-36 -12.5q-8 -13 -9.5 -33t1 -45t2.5 -29
t-2.5 -33t0 -48.5t12.5 -30.5q9 -19 32.5 -16.5t33.5 26.5q4 14 4 49h37q0 -22 -2 -37t-9 -34t-24 -29t-43 -10q-23 0 -39 7.5t-25 22t-14.5 30t-6.5 38t-1 39.5t1 41t1 35zM913 -496q0 31 1 47.5t6 40.5t14.5 35.5t28.5 19.5t47 5q12 -1 22 -4t17.5 -7t13 -12.5t9.5 -14
t6.5 -17.5t4 -17.5t2 -20t0.5 -19v-19.5v-17v-25t-0.5 -24t-2 -25.5l-4.5 -22.5t-7 -22t-10.5 -17.5t-15 -15t-20.5 -8t-26 -3.5q-18 0 -32 4.5t-23 10.5t-15.5 19t-9.5 21t-4.5 26.5t-2 26t0 29t0.5 26.5zM922 2163v604h133q108 0 141 -70q31 -52 25.5 -120.5t-52.5 -110.5
q-14 -12 -37.5 -17.5t-39 -6.5t-51.5 0t-42 1v-280h-77zM924 1702v379h86v-408q0 -5 -0.5 -24.5t0 -28t2.5 -25t6.5 -25.5t14 -20t22.5 -18q41 -14 68 6t36.5 52.5t9.5 72.5v418h84v-279q0 -14 1 -48.5t1 -56.5t-2 -55t-8.5 -55.5t-17.5 -46.5t-30.5 -39.5t-45.5 -23.5
q-56 -21 -119 1t-88 81q-20 35 -20 143zM954 -473q0 -3 -1 -25t0 -36.5t3 -34.5t9 -33.5t18 -20.5q11 -5 20 -6.5t14.5 2t9.5 8.5t6 13.5t3 17t0.5 19t-1 19.5t-1 18.5t-0.5 15.5t4 44t1 61t-19 30q-27 9 -46.5 -8t-19.5 -47v-37zM999 2499q6 0 20.5 -0.5t23 -0.5t21.5 1.5
t23 5.5q34 14 44 34t10 54q0 28 -2 44t-14.5 34.5t-37.5 25.5q-13 4 -27.5 5t-34.5 0t-26 -1v-202zM1026 -276v309h125v-33h-70v-104h56v-29h-56v-143h-55zM1049 174v125h118v-125h-118zM1130 -655v307h44l55 -246l49 246h47v-307h-25v219l-55 -219h-37l-43 219v-219h-35z
M1174 -111q0 29 0.5 44.5t5.5 40.5t14.5 37.5t28.5 22.5t47 9q13 -2 23 -6t17 -12t12.5 -15.5t8.5 -20t5 -21t2.5 -24t0.5 -23v-23.5v-21q0 -26 -0.5 -38t-2.5 -35t-7 -34.5t-13 -25t-22.5 -19.5t-33.5 -6q-25 0 -42 11.5t-25.5 26t-13 41t-5 41.5t-0.5 42v8zM1210 416
l109 6q0 -84 27 -123q16 -32 43 -23q28 8 28 58q0 25 -13 52t-25 42.5t-38 43t-32 34.5q-8 11 -33 35t-29 39q-47 67 -28 159q2 75 72 115t143 6q90 -44 90 -221l-107 -6q-2 11 -4 38t-4 44.5t-11.5 33.5t-25.5 19q-24 1 -38 -16.5t-13.5 -38t4.5 -35.5q5 -14 14 -27
t13.5 -18t21 -19.5t17.5 -15.5l55 -63q95 -98 80 -230q-2 -48 -33.5 -87t-87.5 -52q-51 -8 -98 14t-68 68q-29 74 -29 168zM1221 -104q0 -5 -2.5 -31t-3 -45.5t6.5 -39t23 -24.5q20 -5 33 4.5t17.5 31t6 36t1.5 35.5q0 5 1 24t1 33t-2 31.5t-8.5 29.5t-16.5 17
q-23 16 -40 -3.5t-17 -47.5v-51zM1278 2163v604h231v-66h-151v-202h125v-56h-125v-221h153v-59h-233zM1315 1640l86 23q0 -28 0.5 -41t6.5 -32.5t19 -30.5q14 -30 43.5 -32t51.5 27q27 22 25.5 54t-21.5 59q-1 1 -5 7.5t-5 8l-5 7.5t-6 8t-6.5 7t-7 7.5t-7.5 6.5t-9 6
t-9.5 4.5t-11.5 3.5q-8 9 -53.5 50t-61.5 66q-18 42 -20 88t23 87.5t71 56.5q89 5 148 -23q49 -41 49 -131l-66 -26q-2 38 -18 71.5t-49 36.5q-26 11 -47 -1t-29 -38q-4 -14 -4.5 -26.5t2 -23t9 -22t12.5 -19t16.5 -18t18 -17t20 -16.5t18.5 -16q10 -9 32.5 -27.5t33 -28.5
t25 -27t21.5 -35.5t9 -40.5q18 -70 -22.5 -125t-114.5 -55q-70 0 -112 47t-50 120zM1378 -655v307h49l50 -246l57 246h41l2 -307h-29l-4 219l-51 -219h-39l-37 219l-4 -219h-35zM1391 -276v309q9 0 27 1.5t28.5 1.5t26 -3.5t28.5 -12.5q37 -18 39.5 -73.5t-39.5 -69.5
l47 -153h-47l-47 143h-27v-143h-36zM1421 1014v319h16.5h22.5t22.5 -1t25 -3.5t21 -6.5t19.5 -10.5t13 -15.5q12 -25 9 -62.5t-22 -53.5q-6 -4 -11.5 -7t-12.5 -5t-11.5 -3t-14 -1.5t-13.5 -0.5h-15.5h-15.5v-149h-33zM1427 -104q74 0 74 55q0 22 -12 33.5t-25.5 13.5
t-36.5 2v-104zM1454 1192q39 0 51 4q21 10 21 57q0 36 -15.5 45t-56.5 9v-115zM1577 2163v604q6 0 46.5 0.5t55 0t46 -2.5t53.5 -7.5t41 -13.5q40 -26 57 -87.5t2 -120t-59 -74.5l65 -299h-65l-88 280h-66v-280h-88zM1581 520q0 21 -1.5 65t-1 76t4.5 60q19 108 100 145
q99 23 154 -16q36 -20 54 -61.5t20 -71t2 -81.5v-15h-111q0 88 -6.5 111.5t-30.5 35.5q-36 4 -49.5 -22t-13.5 -72v-252q0 -5 -1.5 -27t-0.5 -37t3.5 -34.5t12 -31.5t25.5 -16q26 -10 42.5 2.5t20.5 38t6.5 53.5t-0.5 48v14h-69v103h178v-361h-90l-4 23q-33 -30 -84.5 -32.5
t-85.5 21.5q-59 30 -72 142q-4 30 -4.5 61t1 71t1.5 60zM1608 1014v319h28v-284h84v-35h-112zM1626 -655v307h125v-31h-82v-94h66v-33h-66v-125h82v-24h-125zM1647 0v33h161v-33h-57v-276h-49v276h-55zM1665 2499q55 0 88 6q26 18 36.5 46t0.5 58q0 71 -37 82
q-12 6 -25.5 8.5t-22 2.5t-22.5 -0.5t-18 -0.5v-202zM1688 1477v604h237v-72h-158v-197h121v-59h-121v-233h158v-43h-237zM1753 1014v319h113v-26h-80v-111h69v-33h-69v-114h80v-35h-113zM1780 -655v307q15 0 40.5 2t41.5 1t30 -7q39 -22 38.5 -77t-42.5 -67l49 -159h-45
l-32 149h-31v-149h-49zM1829 -473q16 0 23.5 0.5t17.5 4t14 11.5t4 21q0 20 -4 32t-13.5 17t-18 6.5t-23.5 1.5v-94zM1829 -276v309h37v-137h84v137h45v-309h-45v143h-84v-143h-37zM1884 1014l72 319h45l59 -319h-41l-18 80h-64l-10 -80h-43zM1944 86l184 868h108l-196 -868
h-96zM1944 1126h57l-29 142zM1944 2329l84 20q0 -73 20 -102q26 -23 54.5 -24.5t49.5 22.5q24 10 23 46.5t-23 61.5q-1 1 -23 29.5t-42 44.5q-72 46 -115 104q-24 39 -25.5 88.5t23.5 89t72 46.5q29 14 72.5 11t70.5 -22q9 -8 16 -18t11.5 -17.5t10.5 -23t7.5 -21.5t8 -27.5
t8.5 -27.5l-72 -16q-4 28 -9 46.5t-20 39.5t-39 28q-32 0 -54 -12.5t-25 -36.5q0 -14 -2.5 -23t3 -21.5t7.5 -20t11.5 -18.5t14 -17t15.5 -16.5t16.5 -15t16.5 -14t16 -13.5q4 -4 34.5 -32t40 -38.5t26 -35.5t24.5 -50q17 -72 -27 -129t-117 -57q-76 0 -118.5 49.5
t-44.5 122.5zM1972 -446q0 49 23.5 77t70.5 21q31 -2 47.5 -21.5t19.5 -38.5t3 -47h-47q0 4 2 16t1.5 22.5t-5.5 19.5q-4 19 -26.5 20.5t-32.5 -12.5q-9 -10 -13.5 -26.5t-5 -28.5t0.5 -30.5t1 -21.5q0 -4 -1 -25t-0.5 -33.5t5 -28.5t13.5 -25q7 -12 20 -16t24.5 3t14.5 23
q5 6 5.5 14t-1.5 19t-2 16h47q0 -110 -88 -110q-24 0 -40.5 11t-24.5 26.5t-11 41t-3 44.5t1.5 48.5t1.5 41.5zM2034 -276v309h118v-33h-71v-104h61v-29h-61v-115h71v-28h-118zM2081 1100l45 20q0 -22 0.5 -31t5.5 -21.5t16 -18.5q50 0 50 36q0 12 -4.5 23t-15 23t-16.5 18
t-20.5 18t-15.5 13q-21 22 -33 45.5t-10 47.5t24 40q17 14 42.5 17t37.5 -3q41 -24 41 -76l-30 -10q-17 65 -47 63q-17 -2 -25 -24q-7 -27 7 -50.5t36 -33.5q4 -6 31.5 -30.5t27.5 -45.5q18 -40 -1.5 -73t-57.5 -33q-37 0 -60 26t-28 60zM2148 1722q0 16 -0.5 60.5t-0.5 69
t3 62t9 66.5q33 101 137 101q132 0 164 -82q16 -37 18 -81.5t-3 -104t-5 -80.5q0 -16 2.5 -47t1.5 -53t-8 -42q-8 -118 -154 -118q-137 0 -160 120q-4 43 -4 129zM2181 -655v307h37v-307h-37zM2228 1663q0 -23 1 -36t4.5 -33t13.5 -33t26 -19q32 -37 76 0q39 19 39 78
q4 7 4 17.5t-2 23.5t-2 18v217q0 6 1 25.5t0.5 29.5t-4.5 24.5t-13 23.5q-60 26 -78 10q-24 0 -36 -9.5t-30 -39.5q-4 -26 -4 -59t2 -74.5t2 -63.5v-100zM2249 170l14 692h109l79 -436l80 436h123l4 -692h-104l-4 289l-58 -289h-77l-58 283v-283h-108zM2253 -655l59 307h51
l66 -307h-41l-6 77h-70l-18 -77h-41zM2273 1014v319h115v-26h-76v-111h70v-33h-70v-114h84v-35h-123zM2286 -276v309h114v-33h-88v-104h70v-29h-70v-143h-26zM2312 -557h60l-27 145zM2388 2345q0 -94 49 -121q39 -10 72 0q15 11 25.5 26t14.5 27t9 33v270q0 78 -31 101
q-26 31 -67 20q-53 -6 -64 -59q-5 -17 -7 -43t-2 -46t0.5 -54t0.5 -48v-106zM2429 -203v70v166h37v-137q0 -2 -1 -28t0 -40t4 -35t12.5 -31t23.5 -10q10 0 17.5 3.5t13 11t9.5 14.5t6.5 19.5l4 20t2 22t0.5 20v19v14.5v137h33v-142v-16v-18.5t-0.5 -18t-1.5 -20t-3 -19
t-5 -19.5t-8 -16.5t-10.5 -16t-13.5 -13t-18 -10.5q-43 -10 -69.5 10t-32.5 63zM2460 -655v307h43v-283h77v-24h-120zM2503 1333h39l49 -233l41 233h45l-70 -319h-39zM2564 1477v604h55l170 -408v408h78v-604h-61l-180 407v-407h-62zM2632 -276v309h53v-281h57v-28h-110z
M2685 -348h33l55 -230l43 230h35l-66 -307h-43zM2707 1014v319h35v-319h-35zM2718 418v192q0 70 4 105q3 48 29 88.5t71 58.5q94 20 152 -16q13 -8 23 -17t17.5 -23t12.5 -23t8.5 -28t5.5 -26.5t3 -30.5t1 -27v-29v-26v-198v-24v-26t-0.5 -24.5t-2 -26.5t-4 -24.5t-6 -25.5
t-9 -22.5t-12.5 -21.5t-16.5 -17t-20.5 -16q-60 -43 -152 -16q-45 16 -71 55t-29 86q-4 37 -4 103zM2718 2163v604h61l164 -406v406h74v-604h-58l-170 405v-405h-71zM2785 -276v309h37v-281h82v-28h-119zM2798 1100l32 20q0 -52 37 -71q14 0 25.5 9.5t11.5 26.5
q1 28 -20.5 53t-53.5 42q-66 93 -14 133q41 28 84 14q36 -24 43 -76l-39 -10q-11 65 -39 63q-17 -3 -26 -24q-6 -12 -6.5 -21.5t5.5 -19t11 -14.5t17 -15t16 -14q6 -8 22 -21t26.5 -26t12.5 -29q9 -42 -11.5 -74t-60.5 -32q-65 0 -73 86zM2832 432q0 -101 11 -135
q5 -12 20 -20t33 -5q3 2 10.5 5.5t10 5.5t7 6.5t6 10.5t1.5 15q4 15 4.5 31.5t-1 39t-1.5 32.5v198q0 10 1.5 32.5t1 39t-4.5 31.5q0 27 -35 43q-17 0 -32 -7.5t-21 -15.5q-11 -37 -11 -141v-166zM2884 -655v307h125v-31h-76v-94h61v-33h-61v-125h76v-24h-125zM2955 1477
v604h76v-561h150v-43h-226zM2982 1014v319h43v-319h-43zM3009 -276l59 309h51l62 -309h-43l-13 77h-65l-17 -77h-34zM3043 -655v307q10 0 36 2t45 1t34 -7q24 -14 32.5 -47t-2 -63.5t-36.5 -39.5l51 -153h-47l-37 149h-33v-149h-43zM3054 1307v26h149v-26h-55v-293h-33v293
h-61zM3068 -166h55l-31 137zM3076 2163l131 604h80l123 -604h-76l-33 147h-120l-29 -147h-76zM3086 -473q25 0 36 1.5t20.5 9.5t9.5 26q0 20 -4.5 32t-14.5 17t-19.5 6.5t-27.5 1.5v-94zM3105 170v692h84l121 -332v332h108v-692h-88l-117 338v-338h-108zM3195 2365h100
l-45 277zM3213 -276v309h27l90 -199v199h37v-309h-33l-80 210v-210h-41zM3213 2081h74l90 -297l94 297h78q-6 -18 -34 -113.5t-44 -144.5l-43 -121q-6 -10 -9 -21.5t-3 -18.5t1 -19.5t1 -18.5v-147h-80v116q0 10 0.5 31t0.5 38t-1 30q-4 18 -10.5 36t-16.5 40.5t-16 37.5z
M3234 -567l33 2q0 -11 8 -30t20 -28q24 -7 36.5 4t12.5 31q0 21 -24.5 46.5t-52.5 45.5q-27 27 -34 68t23 59q45 39 84 17q22 -11 29.5 -27.5t7.5 -44.5l-33 -16q-1 5 -2 14.5t-2 15.5t-3 13t-5 11.5t-8 6.5q-31 10 -47 -18q-5 -9 -5.5 -18t2 -15t8 -13t10.5 -11t13 -10
t11 -9q2 -2 13 -11.5t14.5 -13t12 -13.5t12 -16.5t6.5 -17t3 -20.5q14 -34 -4.5 -64t-60.5 -30q-78 0 -78 92zM3410 -276v309q6 0 30.5 1t38 0.5t34 -6.5t36.5 -18q11 -11 16.5 -29t6 -30t-0.5 -39.5t-1 -34.5q0 -5 1 -27t0 -32.5t-3.5 -27t-9.5 -26.5t-19 -16
q-13 -12 -32.5 -17.5t-29.5 -7t-38 -0.5t-29 1zM3418 -655v307h37v-307h-37zM3455 -248q21 0 31.5 1.5t22 12t16.5 31.5v160q0 13 -3.5 21t-8 12.5t-15.5 6.5t-18.5 2.5t-24.5 0.5v-248zM3478 2163v604h81v-545h154v-59h-235zM3502 -496q0 31 0.5 47t5.5 40.5t14.5 36
t28 19.5t45.5 5q16 -1 28.5 -6t21 -10.5t14 -18t8.5 -19.5t4.5 -24.5t1.5 -23.5v-25v-21v-12q0 -29 -0.5 -44t-5 -39t-13 -36t-26 -22t-43.5 -10q-21 0 -36.5 6t-24.5 22t-14 26t-7 37t-2 34.5v37.5zM3502 170v692h121v-692h-121zM3557 -473q0 -2 -3.5 -44t0 -69t18.5 -37
q13 -6 23 -6.5t17 3t12.5 10t8.5 15t5 18.5t2.5 21t0.5 20.5v18.5v3.5v3.5q0 3 0.5 25.5t0 34.5t-2 30t-7 29t-13.5 16q-62 16 -62 -55v-37zM3586 1477v84h88v-84h-88zM3586 2081h88l-27 -477h-28zM3697 743v119h313v-119h-96v-573h-119v573h-98zM3723 -655v307h33l82 -209
v209h37v-307h-37l-82 209v-209h-33zM4006 170l127 692h108l119 -692h-114l-23 164h-76l-22 -164h-119zM4166 432h36l-18 141z" />
    <glyph glyph-name="uniE216" unicode="ll" horiz-adv-x="2136" 
d="M303 1186q174 112 518 450l266 277l27 -31q-156 -113 -348 -283q-188 -170 -340 -331zM-340 283q15 74 72 190q326 649 1220 1401q235 197 281 197q36 0 51.5 -20t9.5 -54q-22 -91 -229 -324q-125 -139 -209 -229q-50 -52 -134.5 -142t-111.5 -118q-120 -123 -166 -166
q-43 -40 -65 -47q-29 -13 -72 -13q-53 0 -76 15q-20 20 -38 45q-417 -516 -474 -778q-13 -60 3.5 -84.5t70.5 -24.5q231 0 1104 684q106 81 307 252q126 107 303 287q135 146 293 301q121 116 187 170.5t94 54.5q29 0 41 -25q8 -19 4 -43q-11 -44 -103 -153
q-113 -126 -299 -320q-207 -217 -335 -360q-120 -139 -158 -160q-31 -17 -62 -20q-27 -3 -106 -127q-86 -122 -150 -242q-39 -80 -69 -174q-6 -23 10 -41q17 -20 37 -20q125 0 653 364q126 90 500 354q119 78 151 78q36 0 52 -18t10 -45q-2 -17 -25 -49q-23 -25 -45 -35
q-2 -1 -301 -185q-561 -360 -710 -444q-202 -111 -277 -111q-77 0 -98 64q-24 53 -8 143q36 168 202 414q51 76 54 96v-28l-494 -340q-592 -418 -768 -418q-78 0 -113 65q-40 54 -14 183z" />
    <glyph glyph-name="uniE217" unicode="ss" horiz-adv-x="1671" 
d="M-563 -199q37 3 114 23q248 80 474 254q228 172 268 301q8 49 2 92q-5 29 -16 37q-48 -13 -183 -88q-315 -173 -538 -377q-146 -131 -185 -221q-2 -11 7 -15.5t36 -7.5zM-684 -182q16 80 80 159q77 96 276 252q201 155 398 277l153 96q-33 33 -47 51q-157 177 -143 244
q27 131 123 238q85 94 163 112q82 0 123 -20q23 -12 32.5 -39t2.5 -62q-11 -56 -139 -98q-180 -73 -207 -149q-3 -22 21 -56q15 -23 151 -176q464 296 633 346q25 48 68 94q62 74 106 95q40 18 86 18q67 0 113 -37q46 -30 34 -78q-17 -83 -151 -102q-172 -26 -184 -96
q-6 -17 24 -49q24 -28 125 -99q417 248 545 248q38 0 54.5 -21t8.5 -57q-3 -22 -16 -41q-16 -16 -152 -43q-83 -17 -243 -88q-59 -24 -142 -71l5 -7q33 -56 20 -127q-24 -97 -92 -184q-62 -69 -170 -147q-131 -96 -221 -142q-206 -102 -314 -102q-54 0 -78.5 24t-15.5 70
q34 152 418 436q170 122 307 203q-126 86 -153 137q-58 -18 -154 -63q-311 -139 -412 -209l2 4q-2 -7 6 -39q7 -54 -6 -131q-30 -103 -90 -186q-100 -126 -299 -260q-322 -212 -557 -230q-49 3 -73 31t-19 74zM410 51q-1 -6 3.5 -7t30.5 -1q101 0 308 107q137 70 215 129
q184 144 202 239q9 48 -14 92q-8 13 -14 13q-18 0 -146 -76q-306 -182 -487 -363q-92 -92 -98 -133z" />
    <glyph glyph-name="uniE218" unicode="tt" horiz-adv-x="1824" 
d="M-453 -551q-18 0 -53 21q-32 15 -53 63q-22 40 -12 105q55 243 194 497q129 230 455 684q-47 10 -68 23q-47 21 -37 80q14 49 123 131q231 180 813 774q-75 -6 -227 -27q-283 -42 -479 -74q-388 -60 -459 -90q-30 -17 -43 -34q-25 -25 -45 -37q-25 -11 -98 -11
q-70 0 -107 43q-43 43 -35 80q9 44 68 74q54 28 166 31q80 3 715 80q585 69 657 84q303 316 417 429.5t124 102.5q38 -12 32 -63q-8 -45 -211 -263q-174 -190 -190 -202l-11 11q0 1 3 1q23 0 125 10q148 17 350 35q118 140 143 174q70 96 109 123q48 33 100 33q61 0 96 -35
q32 -34 25 -80q-8 -46 -119 -111q-62 -43 -117 -86q349 24 646 27q209 0 308.5 -29t86.5 -92q-6 -21 -25 -43q-24 -24 -59 -24q-33 0 -82 14q-134 41 -440 41q-264 -3 -582 -21q-144 -133 -260 -251q-691 -694 -1042 -1274q-157 -260 -183 -377q-10 -51 -2.5 -69.5
t37.5 -18.5q54 0 193 84q102 63 522 377q810 608 854 628q19 11 43 11q28 0 42.5 -20t8.5 -56q-2 -26 -31 -55t-84 -56q-197 -119 -1042 -710q-403 -293 -518 -293q-62 0 -84 61q-12 53 0 127q38 166 205 440q178 292 446 619q76 94 389 457q159 179 318 368
q-394 -27 -451 -43l-18 -18t-41 -41.5t-56 -56.5q-479 -505 -684 -756q-149 -181 -346 -467q-178 -262 -280 -455q-97 -176 -129 -319q-18 -85 -11 -107q1 -9 4.5 -11.5t12.5 -2.5l53 6q41 0 60.5 -20.5t13.5 -57.5q-4 -23 -29 -45q-26 -23 -59 -33q-32 -14 -56 -14z" />
    <glyph glyph-name="fi" unicode="fi" horiz-adv-x="1818" 
d="M-485 -293q-60 0 -97 37q-11 18 -22 70q-10 59 -19 59q-36 13 -59 61q-23 41 -16 86q8 37 65 107q64 74 131 133q72 60 137 160q250 399 873 1102q122 136 162 176q47 50 84 82q31 22 57 22q39 0 59 -26q32 -28 21 -64q-11 -46 -219 -366l-109 -172q-44 -75 -82 -93
q-33 -16 -78 -16q-39 0 -61 10q-36 9 -49 31v4q-20 0 -277 -326q-250 -315 -268 -364q-2 -2 -6.5 3t-7.5 11t-2 6q8 0 59 37q343 230 674 393q356 179 477 179q12 0 16 -2q13 26 37 65q64 85 138 88l32 2q49 -3 82 -26q32 -28 35 -74q-16 -92 -108 -123q-33 -13 -87 -82
q-48 -59 -106 -160q-50 -78 -63 -123q0 -15 7 -19.5t31 -4.5q76 3 189 45q87 41 387 201q284 159 346 170q33 -3 48.5 -20.5t12.5 -43.5q-12 -61 -94 -86q-44 -18 -387 -172q-382 -176 -485 -192l-41 -3q-51 -1 -75.5 39.5t-16.5 112.5q3 44 16 109q14 67 37 137h-21
q-140 0 -436 -137q-306 -146 -620 -363q-33 -23 -107 -76q-36 -28 -51 -51q-28 -36 -41 -63q-46 -88 -63 -164q-1 -8 -1.5 -15l-1 -14t-0.5 -8q0 -8 -1 -10t-5 0q11 -6 31 -9q73 -22 107 -61t22 -92q-12 -65 -88 -94q-50 -23 -102 -23zM-612 2l-1 -4q1 4 -3 6q9 -6 10 -6
q4 -2 12 -2q6 0 12 14q7 14 27 60q5 15 27 65q16 29 16 33q2 15 14 -4q9 -14 4 -14q7 0 -24 -27q-17 -15 -64 -70q-30 -38 -30 -51zM1303 1518q41 112 194 127q56 -3 83.5 -27t21.5 -68q-16 -47 -62 -82q-45 -42 -133 -49q-56 3 -83.5 28.5t-20.5 70.5z" />
    <glyph glyph-name="fl" unicode="fl" horiz-adv-x="2000" 
d="M-485 -293q-60 0 -97 37q-11 18 -22 70q-10 59 -19 59q-36 13 -59 61q-23 41 -16 86q8 37 65 107q64 74 131 133q72 60 137 160q250 399 873 1102q122 136 162 176q47 50 84 82q31 22 57 22q39 0 59 -26q32 -28 21 -64q-11 -46 -219 -366l-109 -172q-44 -75 -82 -93
q-33 -16 -78 -16q-39 0 -61 10q-36 9 -49 31v4q-20 0 -277 -326q-250 -315 -268 -364q-2 -2 -6.5 3t-7.5 11t-2 6q8 0 59 37q343 230 674 393q356 179 477 179q40 0 76 -25l-8 8q330 404 852 842q235 197 280 197q36 0 52 -20t10 -54q-21 -90 -230 -324q-230 -256 -456 -489
q-185 -194 -230 -213q-26 -13 -71 -13q-51 0 -74 15q-17 14 -39 45l-60 -74q-13 -29 -34 -47q-337 -432 -381 -657q-14 -60 2.5 -84.5t70.5 -24.5q231 0 1104 684q122 94 187.5 137t91.5 43q46 0 37 -61q-4 -20 -49 -56.5t-144 -103.5l-465 -321q-305 -211 -493.5 -314.5
t-274.5 -103.5q-77 0 -112 63q-41 58 -15 185q15 74 72 190q92 189 256 412l-25 2q-140 0 -436 -137q-306 -146 -620 -363q-33 -23 -107 -76q-36 -28 -51 -51q-28 -36 -41 -63q-46 -88 -63 -164q-1 -8 -1.5 -15l-1 -14t-0.5 -8q0 -8 -1 -10t-5 0q11 -6 31 -9q73 -22 107 -61
t22 -92q-12 -65 -88 -94q-50 -23 -102 -23zM-612 2l-1 -4q1 4 -3 6q9 -6 10 -6q4 -2 12 -2q6 0 12 14q7 14 27 60q5 15 27 65q16 29 16 33q2 15 14 -4q9 -14 4 -14q7 0 -24 -27q-17 -15 -64 -70q-30 -38 -30 -51zM1331 1266l-121 -80q141 99 289 233q178 162 232 217
l266 277l26 -31q-156 -113 -348 -283q-182 -162 -344 -333z" />
    <glyph glyph-name="M_o_n_i_t_a_space_S_i_g_n_a_t_u_r_e" unicode="Monita&#x20;Signature" horiz-adv-x="19884" 
d="M2028 -276q-101 0 -142 112q-44 106 0 307q43 205 205 543q135 293 547 1020q153 268 229 410q60 111 107 223q22 49 47 151q4 8 8 9l-2 -2q-42 0 -297 -209q-150 -127 -352 -342q-163 -176 -480 -551q-171 -210 -292 -328q-112 -106 -176 -106q-96 0 -111 174
q-3 28 0 63q1 10 4.5 38.5t5.5 47.5q8 49 68 328q76 355 86 409q13 84 10 105q0 8 2 8q-6 0 -61 -47q-61 -50 -146 -125q-106 -98 -151 -143q-215 -229 -410 -478q-207 -264 -328 -464q-66 -115 -127 -238q-59 -127 -69 -178l-4 -17q46 0 70 -22.5t18 -61.5q-12 -54 -99 -98
q-59 -26 -114 -26q-54 0 -78.5 26.5t-15.5 77.5q7 41 49 139q167 384 499 828q320 431 736 819q175 158 262 158q141 0 84 -281q-23 -98 -58 -217q-53 -181 -92 -371q-49 -228 -43 -285q6 -31 11.5 -41t15.5 -10q32 0 125 101q95 100 295 348q554 687 897 954
q204 160 295 160q51 0 75 -49q17 -43 4 -115q-15 -68 -90 -213q-78 -156 -241 -438q-353 -610 -551 -1006q-171 -346 -221 -581q-21 -98 -23 -160q-9 -97 6 -143q14 -44 53 -60q82 -30 68 -82q-7 -34 -41 -51q-30 -20 -67 -20zM2451 694q24 120 166 336q88 130 88 152
q20 60 72 92q50 24 94 24q50 -7 74 -26q25 -13 37 -15q6 0 43 11q47 14 80 14q67 -6 94.5 -46t13.5 -110q-35 -114 -133 -247q-5 -6 -11 -13t-9.5 -11t-6.5 -7.5t-4.5 -5t-1.5 -0.5l-14 14q35 9 98 25q59 14 205 53q84 22 193 55q100 33 151 33h-6q165 211 221 315
q31 61 84 107q55 39 103 39q34 0 73 -27q36 -26 29 -74q-15 -66 -172 -217q-168 -172 -403 -444q-174 -212 -189 -260q-3 -7 -14 5q-7 7 -2 7q10 7 37 27q39 27 90 75q66 61 243 209q126 105 230 183q108 83 133 92q40 14 53 14q34 0 56 -43q19 -39 16 -100q-3 -99 2 -142
q5 -40 35 -58.5t94 -18.5q91 0 242 59q141 55 264 148q15 13 63 49q39 87 74 145q64 85 137 88l33 2q49 -3 82 -26q32 -28 35 -74q-7 -44 -35.5 -76t-73.5 -47q-31 -13 -86 -82q-48 -59 -106 -160q-52 -81 -64 -123q0 -15 7 -19.5t32 -4.5q76 3 189 45q87 41 387 201
q249 140 319 163q30 27 68 54q187 143 633 589q56 56 118.5 118t69.5 69q-150 -18 -236 -31q-828 -113 -938 -162q-30 -16 -45 -34q-29 -30 -47 -37q-29 -11 -94 -11q-67 0 -108 41q-41 45 -33 82q9 44 67 74q58 28 166 31q82 3 713 80q586 69 659 84q406 419 474 482
q61 58 67 50q39 -13 33 -63q-9 -48 -211 -265q-165 -179 -191 -200l-11 11q0 1 3 1q23 0 125 10q708 77 1233 80q168 0 229 -10q89 -18 132 -44.5t34 -66.5q-11 -28 -24 -43q-21 -24 -60 -24q-33 0 -82 14q-134 41 -440 41q-366 -6 -866 -37q-305 -20 -355 -35
q-6 -5 -114 -116q-479 -504 -684 -756q-154 -187 -346 -469q-156 -223 -283 -453q-96 -178 -127 -319q-18 -83 -10 -107q2 -9 4.5 -11.5t11.5 -2.5l53 6q41 0 60.5 -20.5t13.5 -57.5q-4 -24 -26 -43q-22 -22 -60 -35q-32 -14 -57 -14q-17 0 -55 19q-32 19 -54 65
q-19 40 -10 105q54 241 195 495q131 235 454 686q-47 10 -71 23q-1 1 -3 2t-2 2q-106 -44 -366 -162q-382 -176 -485 -192l-41 -3q-51 -1 -76 39.5t-17 112.5q2 37 17 109l6 22l24 11h-1q-2 -1 -3 -1q-122 -64 -266 -106q-148 -45 -256 -45q-123 0 -168 63q-45 55 -35 199
v70q0 16 -2 20q-2 0 -2 2q-36 -5 -182 -115q-155 -120 -315 -280q-152 -155 -193 -232q-18 -32 -78 -92q-77 -53 -153 -53q-41 0 -54 16q-15 18 -12 58q0 36 8 67q15 75 88 187q64 98 242 315l18 3q-2 -1 -9 -2l-13 -3q-145 -29 -227 -43q-197 -33 -213 -35q-70 -10 -92 -16
q-32 -8 -43 -17q-20 -10 -35 -30q-97 -90 -201 -148q-116 -61 -180 -61q-42 0 -82 49q-36 53 -17 141zM2576 649q-2 -6 -1 -8.5t2 -3t6 -0.5q49 0 122 43q11 7 43.5 29.5t51.5 33.5l16 2q-77 3 -170 39l-8 -16q-7 -9 -37 -63q-4 -9 -10 -21t-9.5 -20.5t-5.5 -14.5zM2699 856
q3 3 11 0q38 -12 196 -18l51 51q59 62 103 129q44 72 59 119l4 14q-20 4 -45 4q-31 0 -98 -18q-47 -20 -86 -56q-32 -32 -80 -90q-44 -44 -82 -92q-31 -39 -33 -43zM6367 778q13 53 94 140q85 92 181 172q101 84 178 122q58 25 115 25q94 0 161 -49q75 -56 60 -121
q-9 -45 -62 -80q-62 -34 -119 -31l-36 2q-13 -173 6 -249q14 -62 63 -99q33 -26 97 -26q67 0 122 10q57 11 138 47q158 71 344 172q221 120 282 166q95 68 154 68q32 0 46 -19.5t9 -52.5q0 -2 -12 -37q-36 -55 -207 -147q-185 -95 -369 -170q-319 -127 -460 -127
q-190 0 -246 129q-36 77 -33 270q4 93 2 108q-79 -49 -319 -225q-100 -74 -146 -74q-23 0 -35 19t-8 57zM6115 -477q26 108 271 108q137 0 180 -28q27 -15 104 -15q148 0 688 27q1141 54 2139 76q522 12 1239 18q54 155 213 350q207 250 481 465q283 228 604 402
q126 69 145 94q18 34 31 86q9 44 7.5 61t-13.5 19q-19 -3 -121 -47q-208 -92 -217 -133q-9 -37 -55 -66q-52 -25 -96 -25q-45 0 -193 -77q-157 -80 -221 -80q-47 0 -70 33q-8 11 -12 26q-35 -15 -136.5 -60.5t-162.5 -72.5q-382 -176 -485 -192l-41 -3q-51 -1 -76 39.5
t-17 112.5q2 37 17 109q44 205 139 362q64 85 137 88l33 2q49 -3 82 -26q32 -28 35 -74q-7 -44 -35.5 -76t-73.5 -47q-31 -13 -86 -82q-48 -59 -106 -160q-52 -81 -64 -123q0 -15 7 -19.5t32 -4.5q76 3 189 45q87 41 387 201q221 128 315 161q27 27 82 72q112 93 192 137
q77 41 154 41q58 0 96 -30q40 -29 49 -72q-8 8 -10 8q18 0 82 37q194 108 266 108q49 0 65.5 -42.5t-1.5 -120.5q-12 -50 -23 -72q0 -2 -12 -43v10q-14 0 8 9q12 5 57 20h1l1 1h1l1 1h1h1l1 1h1h1l2 1q125 51 217 51q56 0 90 -27l-6 7q120 164 164 243q31 61 84 107
q55 39 102 39q35 0 74 -27q36 -26 29 -74q-14 -64 -173 -217q-168 -172 -403 -444q-172 -210 -188 -260q-4 -7 -15 5q-7 7 -2 7q10 7 37 27q39 27 90 75q56 52 244 209q135 113 229 183q108 83 133 92q40 14 54 14q33 0 55 -43q19 -39 16 -100q-3 -99 2 -142q5 -40 35 -58.5
t94 -18.5q91 0 242 59q141 55 264 148q24 22 70 51q56 56 131 121q101 84 178 122q58 25 115 25q95 0 162 -49q74 -55 59 -121q-10 -46 -61 -80q-62 -34 -119 -31l-37 2q-13 -173 6 -249q14 -61 64 -99q33 -26 96 -26q68 0 123 10q55 11 137 47q158 71 344 172
q224 122 283 166q70 44 73 45l49 31q96 58 255 193.5t444 393.5q95 86 198 184.5t121 115.5l76 71q-585 -4 -1033.5 -16t-697.5 -28t-375.5 -28.5t-191.5 -25.5q-220 -42 -303 -68q-43 -12 -55 -24q-10 -10 -12 -29q-9 -34 -29 -51q-19 -19 -57 -33q-46 -13 -95 -10
q-62 3 -69 33q-10 15 -19 22l-4 17q-3 57 51.5 102.5t173.5 83.5q127 43 360 73.5t461 46t558 24t522 9.5t489 0.5t332 -0.5l101 3q227 212 318 292t99 72q41 -12 35 -63q-9 -48 -229 -265l-35 -34q48 1 140 2t132 2q215 3 275 8q36 3 495.5 8.5t559.5 5.5q143 0 140 -53
q-2 -42 -86 -92q-52 -31 -116 -51q-24 -10 -231.5 5t-471 35.5t-372.5 20.5q-22 0 -91 4t-120 4h-356q-133 -134 -291 -284q-553 -531 -756 -758q-167 -187 -377 -467q-193 -258 -307 -453q-105 -185 -135 -319q-18 -83 -10 -105q5 -11 8.5 -13.5t15.5 -2.5l60 6
q45 0 66.5 -20.5t15.5 -57.5q-4 -23 -29 -45q-24 -21 -66 -33q-35 -14 -61 -14q-15 0 -62 19q-35 20 -61 63q-23 42 -14 107q56 247 207 495q133 226 540 752q-2 -1 -51 -29q-25 -16 -113 -65q-189 -97 -368 -170q-319 -127 -461 -127q-190 0 -246 129q-36 77 -33 270
q4 93 2 108q-79 -49 -319 -225q-100 -74 -145 -74q-32 0 -41 33q-99 -37 -170 -59q-148 -45 -256 -45q-123 0 -168 63q-45 55 -35 199v70q0 16 -2 20q-2 0 -2 2q-37 -5 -183 -115q-155 -120 -315 -280q-150 -153 -192 -232q-18 -32 -78 -92q-77 -53 -154 -53q-40 0 -53 16
q-15 18 -12 58q0 36 8 67q15 75 88 187q75 112 266 348l60 74q6 0 8 -2q-4 2 -27 2q-58 0 -147 -29q-88 -33 -183 -78q-206 -377 -219 -401q-130 -203 -192 -293q-183 -266 -369 -449q422 4 660 4q1665 0 1742 15q10 2 29 2q54 0 98 -29q47 -33 47 -78q-6 -36 -49 -55
q-41 -18 -78 -18q-44 0 -90 26q6 14 -181 23.5t-577.5 14.5t-965.5 5l-735 -2q-7 -7 -19 -16q-251 -213 -420 -213q-86 0 -124 63q-43 61 -19 176l-2 -12q-1022 -10 -1532 -20q-1047 -23 -2044 -99q-375 -29 -430 -37q-82 -9 -106 -28q-55 -37 -146 -37q-76 0 -164 16
q-97 18 -149 41q-33 33 -25 68zM6572 899q8 6 47 35.5t70 54.5q15 10 38 31q28 25 34 20q4 -4 4 -18h22q-79 -55 -147 -107q-11 -9 -22.5 -20.5l-19.5 -19.5l-15.5 -15.5t-9.5 -7.5t-6 1.5t0 15t5 30.5zM8444 1079q26 138 151 297q117 149 351 342q481 400 1122 682
q400 180 711 269q324 92 530 92q170 0 242 -66q70 -67 49 -178q-48 -226 -459 -594q-399 -358 -1182 -833q-181 -104 -260 -158q-60 -31 -116 -31q-66 0 -97 25.5t-24 74.5q9 41 20 54q22 28 183 102q201 92 505 264q677 383 1065 768q215 218 238 332q11 56 -28 80.5
t-142 24.5q-239 0 -653 -127q-403 -121 -842 -340q-475 -247 -844 -541q-371 -295 -450 -518q-9 -41 8 -88q14 -48 45 -72q64 -46 194 -72q141 -28 441 -43q291 -21 368 -37q97 -15 176 -55q83 -44 91 -84v-8q8 0 88 25q116 39 157 39q42 0 62 -23q16 -19 12 -49
q-3 -24 -22 -47q-31 -31 -220 -84q-24 -7 -96 -38q-27 -12 -27 -1v2q-5 -17 -49 -55q-210 -198 -528 -334q-184 -82 -248 -82q-23 0 -35 15t-8 40q20 96 397 322q213 128 394 207q43 20 53 26l-4 4q-24 43 -168 72q-166 33 -490 53q-234 17 -374 41q-166 29 -239.5 106.5
t-47.5 198.5zM9032 94l-54 -8q69 10 129 31q234 85 414 205q83 57 113 81q-280 -120 -393 -182q-74 -38 -135.5 -76.5t-73.5 -50.5zM10764 1518q41 112 195 127q56 -3 83 -27t21 -68q-17 -48 -61 -82q-45 -42 -133 -49q-56 3 -84 28.5t-21 70.5zM10777 -383
q-15 -72 2 -102.5t73 -32.5q127 0 312 139l-387 -2v-2zM10805 -291l471 4q322 279 637 809q179 296 193 342v-20q12 0 11 -3q0 -2 -40 -22q-13 -7 -55 -29t-70 -36q-74 -39 -137 -76l-107 -60q-219 -133 -415 -309q-202 -181 -344 -366q-102 -130 -144 -234zM11379 872
q0 3 -5 11t-10 8q14 0 131 57q61 27 74 43q16 11 21 31q0 1 1 3t1 3q-10 -6 -32.5 -20t-33.5 -21q-69 -48 -104 -76q-31 -22 -43 -39zM13898 885q17 9 143 104q15 10 38 31q28 25 34 20q4 -4 4 -18h22q-79 -55 -147 -107l-45 -38q-10 -13 -27 -27zM16058 864q7 36 45 142
q56 143 80 176q19 27 68 45q36 16 82 16q53 0 82 -29q31 -31 22 -67q-13 -49 -67 -103q-56 -56 -88 -116q-45 -66 -54 -105l-2 -6q-8 2 -18 2q10 0 260 187q187 139 205 139q9 0 24 -10q16 -12 19 -27q8 -14 4 -47q-20 -56 -35 -88q-10 -23 -31 -84q-6 -33 23 -49t104 -19
q79 0 207 35q140 41 193 74q56 34 104 41l68 90q110 144 131 207q19 53 57 88q56 47 117 47q51 0 90 -31q38 -38 27 -90q-9 -31 -43 -65q-32 -37 -72 -50q-23 -17 -53 -45q-98 -94 -211 -239q-143 -184 -156 -219l-8 14q-20 0 9 26q10 9 39 33l81 68q185 167 276 237
q117 91 148 91q66 0 90 -74q7 -19 13 -48t11 -49t13 -28q33 -34 78 -47t90 0q25 5 51 22q39 55 94 107q63 63 164 131q85 57 129 57q33 0 59 -22q21 -23 17 -66q-15 -67 -180 -235q-81 -94 -166 -88l-56 4q-11 3 -28 -25q-23 -29 -29 -53q-5 -22 12.5 -32t67.5 -11
q53 0 133 18q108 23 692 211q334 117 391 117q29 -3 42.5 -21t7.5 -47q-6 -34 -25 -53q-17 -17 -57 -29q-49 -20 -514 -137q-444 -111 -488 -121q-125 -32 -203 -32q-85 0 -122.5 40.5t-20.5 116.5q2 14 10 37q-18 -2 -55 -2q-220 0 -236 264q-254 -192 -428 -407
q-50 -66 -53 -92q-2 -6 -6 -47q-15 -60 -78 -101q-69 -37 -133 -37q-36 0 -55 19q-10 17 -23 78q-6 53 0 88q8 35 142 227q-1 0 -46.5 -10.5t-68.5 -14.5q-115 -22 -229 -22h-9q-123 0 -176.5 60.5t-32.5 158.5l5 16l18 -10q-17 0 -152 -115q-199 -159 -292 -159
q-41 0 -66 28q-51 51 -29 166zM19747 1071q10 40 51 76q43 37 100 37q33 0 66 -23q29 -32 20 -65q-9 -45 -67 -82q-60 -31 -99 -31q-43 0 -59 29q-19 24 -12 59z" />
    <glyph glyph-name=".notdef" horiz-adv-x="2097" 
 />
    <glyph glyph-name=".null" 
 />
    <glyph glyph-name="nonmarkingreturn" horiz-adv-x="1040" 
 />
    <glyph glyph-name="space" unicode=" " horiz-adv-x="716" 
 />
    <glyph glyph-name="space" unicode="&#xa0;" horiz-adv-x="716" 
 />
    <glyph glyph-name="exclam" unicode="!" horiz-adv-x="1187" 
d="M141 51q-41 0 -69 19q-35 20 -29 69q10 34 37 64q22 31 76 55q44 21 84 21q48 0 71 -29t17 -78q-13 -58 -72 -88q-61 -33 -115 -33zM131 543q10 47 49 141q71 182 205 406q142 227 457 673q18 26 274 391q68 100 125 197q33 59 39 88l2 8q24 124 168 136q59 0 88 -31.5
t23 -91.5q-10 -47 -37 -74q-19 -22 -74 -45q-40 -20 -215 -230q-134 -160 -408 -532q-254 -356 -376 -578q-116 -212 -170 -421q-7 -29 16 -52q31 -46 25 -84q-9 -38 -46 -57q-32 -16 -57 -16q-44 0 -72 45q-31 45 -16 127z" />
    <glyph glyph-name="quotedbl" unicode="&#x22;" horiz-adv-x="600" 
d="M666 1851q-29 0 -50 21q-20 22 -16 51q9 24 53 68q41 35 41 45q1 6 -1.5 9t-14.5 9q-43 28 -72 60q-26 33 -22 61q3 33 49 70q41 35 104 41q67 0 80 -74q6 -56 -22 -193l-13 -59q-9 -45 -45 -76q-36 -33 -71 -33zM350 2144q13 46 53 76q48 33 97 33q73 0 100 -86
q21 -75 2 -170q-16 -73 -55 -139q-21 -38 -37 -54q-23 -19 -64 -22q-43 0 -63.5 20.5t-11.5 55.5q6 32 27.5 50.5t52.5 18.5l32 -6q3 0 13 10q9 9 24 35q7 10 12 31q5 19 -12 31q-27 16 -47 16q-47 0 -94 35q-38 24 -29 65z" />
    <glyph glyph-name="numbersign" unicode="#" horiz-adv-x="1513" 
d="M762 123q-44 0 -70 53q-20 47 -4 121q11 51 28 116.5t19 73.5q21 75 29 93q3 17 12 32h-6q-78 0 -287 -59q-10 -45 -10 -55q-7 -16 -10 -35q-4 -7 -10 -39q-9 -38 -4 -43q0 -16 14 -27q30 -38 24 -80q-12 -65 -94 -65q-59 3 -80 49q-17 39 4 145l21 95q-62 -27 -74 -39
q-10 -7 -16 -35q-10 -43 -41 -59q-31 -21 -60 -21q-42 0 -62 26.5t-15 73.5q24 112 280 195q30 5 45 20q30 27 80 152q10 14 20 32l3 5l12 -12q1 0 -9 -4.5t-37 -17t-56 -26.5q-155 -73 -226 -73q-58 0 -78 35q-19 25 -16 65q6 32 53 76q11 9 26.5 20.5t16.5 12.5
q20 10 66 10l47 -2q102 0 197 31q38 13 77 24l72 137q93 166 102 211q15 56 70 99q57 45 109 45q47 0 80 -33q33 -41 22 -82q-11 -51 -86 -104q-35 -25 -55 -25q-36 0 -121 -121q-5 -7 -14 -20q-19 -27 -27 -38.5t-19 -25t-18 -18.5t-14 -6v18q11 0 182 47q169 49 170 49
q13 17 25 39q40 84 49 137q22 83 73 131q55 52 129 52q55 0 78 -20t17 -52q-16 -59 -129 -193q-62 -68 -62 -75q2 6 6 7t29 1q62 0 94.5 -23t28.5 -67q-4 -25 -29 -47q-25 -21 -57 -21q-23 0 -35 12q-25 17 -74 17h-59q-61 -96 -125 -205h-6q3 0 12 3.5t15 4.5q12 2 43 2
q70 0 108 -47q35 -47 29 -92q-13 -46 -72 -76q-36 -18 -55 -18q-13 0 -125 28q-28 7 -35 7q-26 -4 -61 -172q-15 -74 -17 -105q-3 -19 -1 -22.5t13 -3.5q42 0 61 -23t11 -63q-8 -37 -59 -82q-45 -31 -82 -31zM518 680l158 41q86 25 123 31q30 5 53 34q4 7 17.5 33t41.5 81.5
t56 109.5q0 -1 3.5 -7t5.5 -10t1 -4q-21 0 -92 -18q-191 -53 -250 -88q-32 -15 -88 -127q-17 -35 -29 -76z" />
    <glyph glyph-name="dollar" unicode="$" horiz-adv-x="960" 
d="M176 -254q-40 3 -61 49q-18 43 20 228l37 161l-37 9q-128 22 -162 110q-16 42 -10 78q9 39 49 61q44 21 70 21q40 0 59 -19q18 -21 23 -55q6 -29 12 -37q11 -7 47 -10l209 561l-41 58q-59 73 -39 174q16 95 115 202q67 74 240 230q108 293 122 309q59 68 148 68
q45 0 84 -27q34 -30 22 -70q-7 -24 -47 -73q-57 -70 -133 -203q48 -51 60 -72q19 -37 10 -78q-21 -104 -162 -104l-16 2q-13 0 -21 -4q-13 -8 -24 -37q-20 -34 -74 -156q-68 -136 -78 -178q-4 -14 0 -29q7 -11 23 -22q155 -137 120 -313q-21 -93 -123 -195
q-100 -100 -219 -147l-45 -19q-40 -196 -47 -311q0 -28 -6 -70q-10 -33 -20 -43q-58 -49 -105 -49zM430 1098q-8 -38 33 -82l12 -12q4 8 8 14q133 329 135 342l9 -14q4 0 -3 -8t-36.5 -38.5t-52.5 -56.5q-100 -109 -105 -145zM393 360q-1 -9 -3 -10.5t-11 -1.5q11 0 65 29
q97 52 158 125q68 74 80 131q8 40 -16 92q-40 53 -82 84l-29 20q-138 -347 -162 -469z" />
    <glyph glyph-name="percent" unicode="%" horiz-adv-x="1048" 
d="M457 80q-45 0 -66 12q-28 9 -49 47q-27 30 -33 62q-7 22 4 84l9 37q17 63 73 106q55 37 121 37q49 0 94 -23t74 -73q27 -50 18 -99q-20 -78 -92 -133q-72 -57 -153 -57zM-111 51q51 235 625 998l197 260q16 23 39 53.5t35 47.5t18 28q23 37 26 47q2 7 0 12q-9 15 -6 41
q17 63 80 115q66 57 127 57q57 0 78 -37q18 -29 8 -76q-6 -44 -49 -90q-41 -44 -102 -61q-23 -3 -217 -234q-619 -761 -691 -1079q-5 -18 -1 -19q0 -1 7 -3q43 -17 31 -68q-13 -49 -55 -78q-42 -31 -82 -31q-43 0 -60.5 31t-7.5 86zM246 1432q13 50 80 102q65 53 129 53
q62 0 116 -51q55 -52 39 -135q-9 -48 -47 -98q-40 -50 -92 -82q-58 -37 -94 -37q-49 0 -78 69q-11 32 -8 47l-17 33q-33 65 -28 99zM379 1290q-5 -19 -8 -21l-2 4q1 11 6 11q19 0 65 25q46 24 72 59q33 36 39 70q2 4 14 4q5 0 1 -4q-14 -14 -21 -23q-24 -40 -99 -59
q-40 -8 -53 -27q-10 -21 -14 -39zM580 291l-54 -39q55 49 58 65v-1q-2 0 -6 1q0 -1 -5 -24q-1 -5 -4 -15l-2 -9z" />
    <glyph glyph-name="ampersand" unicode="&#x26;" horiz-adv-x="1234" 
d="M733 262q-59 0 -90 60q-22 48 -12 127q8 38 6 53l3 3q4 -3 -1 -3q-21 0 -84 -35q-257 -115 -397 -115q-75 0 -112 30t-30 87q27 132 170 272q111 110 412 295q91 54 173 105l16 10q-1 -1 -14 -10l-28 -21l-98 -4q-169 0 -198 66q-10 29 -3 59q24 117 220 234
q165 92 268 92q86 0 127 -47q23 -27 29 -84q3 -44 -3 -74q-13 -55 -75 -84q-52 -23 -82 -23q-59 0 -103 54q-25 43 -20 80l4 16l12 -16q-17 0 -71 -25q-59 -26 -123 -66q-58 -34 -58 -47q-2 -4 8.5 -7.5t42 -6t83.5 -2.5q26 0 108 4q33 4 84 4q50 0 71.5 -11.5t18.5 -35.5
q-6 -26 -58 -63t-161 -97q-272 -144 -465 -297q-196 -153 -215 -243q-8 -34 7.5 -47t64.5 -13q104 0 295 92q116 59 172 107q59 59 80 121q35 95 102 137q53 35 102 35t72.5 -23.5t15.5 -66.5q-14 -57 -86 -117q-44 -36 -96 -100q-59 -70 -72 -129q-6 -29 0 -42.5t29 -19.5
q41 -6 61 -28t13 -58q-9 -43 -53 -65q-34 -17 -62 -17z" />
    <glyph glyph-name="quotesingle" unicode="'" horiz-adv-x="284" 
d="M291 1227q-29 0 -45 22q-22 22 -15 51q2 19 52 82q43 49 47 68q3 13 -6 20t-39 13q-61 11 -89.5 37t-19.5 67q3 18 21 51q19 36 71 56q47 20 94 20q60 0 83 -48.5t6 -141.5q-11 -50 -58 -183q-29 -82 -57 -96q-24 -18 -45 -18z" />
    <glyph glyph-name="parenleft" unicode="(" horiz-adv-x="1292" 
d="M229 -315q-61 0 -110 75q-45 68 -62 189q-28 204 15 395q18 93 90 297q83 247 129 342q171 353 483 758q234 311 469 532q187 178 287 240q87 49 160 49q60 0 94 -18q24 -10 41 -52q27 -47 18 -88q-13 -59 -76 -88q-57 -22 -88 -22q-45 0 -69 14q-15 9 -39 33l-96 -70
q-266 -195 -531 -512q-279 -332 -473 -680q-52 -91 -82 -170q-36 -86 -92 -254q-67 -207 -78 -262q-16 -66 -16 -139q-12 -347 88 -397q59 -46 47 -93q-9 -37 -49 -61q-27 -18 -60 -18z" />
    <glyph glyph-name="parenright" unicode=")" horiz-adv-x="1495" 
d="M-55 -295q-68 0 -99 16q-25 18 -36 52q-28 49 -19 90q13 60 76 86q49 22 86 22q48 0 74 -16q10 -5 36 -31l97 70q263 195 530 514q285 339 471 678q51 83 84 172q30 69 92 252q67 207 78 262q9 38 17 141q12 345 -93 397q-54 47 -43 93q9 37 47 61q38 19 62 19
q59 0 108 -74q46 -65 64 -191q27 -200 -14 -395q-17 -92 -93 -299q-70 -217 -129 -342q-161 -339 -481 -758q-235 -308 -469 -532q-188 -179 -289 -240q-83 -47 -157 -47z" />
    <glyph glyph-name="asterisk" unicode="*" horiz-adv-x="923" 
d="M438 1083q-40 0 -61 31q-19 22 -12 68q17 63 71 125q43 56 41 63q2 12 12 -10q7 -15 5 -17q4 0 -2 -3q-1 -1 -5 -3l-24 -12q-53 -41 -121 -41q-47 0 -69.5 22t-14.5 62q18 94 184 100q33 0 58 5l37 6l-5 10q-14 28 -36 31q-39 10 -58 39q-21 34 -14 65q50 113 149 113
q43 0 68 -25q28 -23 21 -76q-8 -23 -13 -32q-5 -12 -18 -25q-1 -2 -2.5 -5.5t-2.5 -6.5t-1 -6q-4 -20 -4 -23t4 -31q0 5 2 9q60 58 129 133q91 94 170 94q37 0 67 -23q27 -27 21 -65q-6 -34 -45 -68q-29 -34 -88 -41q-33 -7 -82 -43q89 13 133 13q55 0 80.5 -19.5
t17.5 -56.5q-6 -25 -41 -47q-33 -23 -61 -23q-20 0 -47 6q-63 17 -140 17q-32 0 -67 -5q-19 -3 -19 2q-1 1 0 3q-4 -8 33 -56q26 -40 35 -47q11 -8 31 -8q54 0 71 -22q20 -23 11 -52q-11 -40 -43 -63q-36 -25 -64 -25q-36 0 -59 37q-5 7 -76 184l-4 -4q-18 -20 -45 -59
q-17 -22 -27 -43q2 0 6 -2q42 -23 35 -68q-8 -30 -47 -57q-42 -25 -74 -25z" />
    <glyph glyph-name="plus" unicode="+" horiz-adv-x="983" 
d="M393 250q-39 0 -55.5 23t-7.5 65q7 39 188 575h-4q-37 0 -182 -43q-88 -24 -135 -24q-43 0 -63 23t-11 63q11 53 74 100q55 43 114 43q10 0 56 -12q47 -21 145 -21l57 2q32 112 37 136q13 57 4 92q-8 19 -4 49q14 46 47 90q66 72 138 72q53 0 79 -41q22 -32 13 -84
q-16 -65 -84 -107q-52 -32 -99 -125l-51 -98v16q33 0 189 15q68 6 110 6q55 0 81 -21t18 -61q-9 -37 -50 -70q-35 -24 -69 -24l-19 2q-101 39 -231 39q-50 0 -68 -12q-25 -25 -82 -295q-27 -137 -32 -203q-2 -47 -11 -90q-19 -80 -92 -80z" />
    <glyph glyph-name="comma" unicode="," horiz-adv-x="227" 
d="M-14 43q-23 0 -35 15t-8 40q14 37 37 66q25 28 45 61q18 34 20 45q3 15 -3.5 20.5t-33.5 8.5q-102 29 -88 94q6 32 51 68q46 37 95 37q65 0 75 -62q7 -63 -39 -266q-6 -35 -18 -70q-9 -24 -41 -43q-28 -14 -57 -14z" />
    <glyph glyph-name="hyphen" unicode="-" horiz-adv-x="937" 
d="M207 846q-34 0 -55 18q-31 27 -23 62q13 59 70 90t114 31q26 0 54 -7q46 -14 219 -14q347 0 362 -12q31 -25 25 -62q-7 -27 -35 -55q-34 -27 -70 -27q-24 0 -67 9l-96 12q-59 6 -115 6q-147 0 -258 -27q-85 -24 -125 -24z" />
    <glyph glyph-name="hyphen" unicode="&#xad;" horiz-adv-x="937" 
d="M207 846q-34 0 -55 18q-31 27 -23 62q13 59 70 90t114 31q26 0 54 -7q46 -14 219 -14q347 0 362 -12q31 -25 25 -62q-7 -27 -35 -55q-34 -27 -70 -27q-24 0 -67 9l-96 12q-59 6 -115 6q-147 0 -258 -27q-85 -24 -125 -24z" />
    <glyph glyph-name="period" unicode="." horiz-adv-x="526" 
d="M246 762q-44 0 -60 29q-19 24 -12 59q10 40 51 76q43 37 101 37q32 0 65 -23q30 -33 21 -66q-8 -43 -68 -81q-57 -31 -98 -31z" />
    <glyph glyph-name="slash" unicode="/" horiz-adv-x="1071" 
d="M53 180q-119 0 -88 160q36 155 221 430q168 247 539 717l254 323q93 120 119 160q28 37 32 55q2 7 0 15v26q11 44 52 91q58 73 139 73q61 0 88 -47q23 -37 16 -92q-13 -58 -63 -96q-50 -41 -117 -41q-7 0 -20 -10q-2 -2 -12 -11.5t-21.5 -20.5t-22.5 -24
q-15 -16 -50.5 -57.5t-53.5 -61.5q-513 -610 -746 -976q-54 -92 -120 -230q-62 -130 -72 -178q-2 -6 -2.5 -11.5t-0.5 -8t-1 -3.5q1 -1 1 -2t1 -1.5t4 -1t12 -1.5q34 -10 41 -24q16 -20 8 -47q-6 -31 -34 -62q-35 -35 -60 -35q-6 0 -30 -8h-13z" />
    <glyph glyph-name="colon" unicode=":" horiz-adv-x="387" 
d="M188 528q-30 0 -67 19q-38 21 -60 57q-17 32 -10 74q13 44 45 67q36 25 80 25q69 0 105 -45q46 -49 34 -94q-9 -39 -51 -70q-36 -33 -76 -33zM182 1223q10 47 47 75q41 33 97 33q51 0 94 -37q43 -43 33 -86q-8 -34 -60 -73q-51 -39 -96 -39q-65 0 -92 43q-32 43 -23 84z
" />
    <glyph glyph-name="semicolon" unicode=";" horiz-adv-x="372" 
d="M291 1108q-50 0 -78 35q-32 37 -23 80q8 41 60 77q51 33 112 33q55 -3 80.5 -29t16.5 -71q-11 -47 -66 -88q-52 -37 -102 -37zM57 770q9 41 60 72q47 30 100 30q41 0 76 -24q29 -29 35 -103q5 -57 -9 -139q-13 -67 -51 -119q-57 -94 -141 -94q-37 0 -55 21q-23 20 -17 47
q8 34 86 96q69 51 72 70q2 8 -9.5 16t-43.5 19q-117 41 -103 108z" />
    <glyph glyph-name="semicolon" unicode="&#x37e;" horiz-adv-x="372" 
d="M291 1108q-50 0 -78 35q-32 37 -23 80q8 41 60 77q51 33 112 33q55 -3 80.5 -29t16.5 -71q-11 -47 -66 -88q-52 -37 -102 -37zM57 770q9 41 60 72q47 30 100 30q41 0 76 -24q29 -29 35 -103q5 -57 -9 -139q-13 -67 -51 -119q-57 -94 -141 -94q-37 0 -55 21q-23 20 -17 47
q8 34 86 96q69 51 72 70q2 8 -9.5 16t-43.5 19q-117 41 -103 108z" />
    <glyph glyph-name="less" unicode="&#x3c;" horiz-adv-x="886" 
d="M631 391q-38 0 -49 41q-3 38 -84 94q-86 54 -222 105q-91 29 -129 47q-50 20 -59 51q-12 26 -2 72q11 53 233 303q230 266 252 311q57 92 78 119q44 53 125 53q38 0 70 -26q61 -27 51 -74q-9 -42 -82 -103q-80 -73 -225 -190q-206 -165 -319 -270.5t-124 -137.5
q0 -4 11 -12q9 -9 61 -31q33 -14 145 -53q50 -18 121 -51q75 -35 113 -57q44 -24 68 -45q28 -17 32 -37q8 -15 4 -43q-7 -33 -22 -45q-14 -18 -47 -21z" />
    <glyph glyph-name="equal" unicode="=" horiz-adv-x="956" 
d="M182 569q-52 0 -88 25q-40 27 -31 72q24 110 170 110q40 0 115 -10q88 -16 160 -16q84 0 211 20q37 6 63 6q54 0 79 -23t16 -63q-21 -46 -41 -59q-20 -17 -129 -17l-101 2q-196 0 -287 -24q-94 -23 -137 -23zM205 1116q7 31 55 64q46 30 94 30h31q157 -36 264 -36
q39 0 92 6q66 4 86 4q74 0 91 -23q16 -22 6 -65q-15 -72 -121 -72l-189 16q-49 0 -190 -22q-63 -14 -109 -14q-122 0 -110 112z" />
    <glyph glyph-name="greater" unicode="&#x3e;" horiz-adv-x="880" 
d="M188 315q-34 0 -71 29q-55 26 -49 74q9 39 82 100q90 82 225 191q423 343 442 407q0 2 -10 12q-13 13 -62 31q-75 32 -145 53q-49 19 -121 52q-70 32 -112 57q-52 33 -68 45q-30 20 -33 37q-8 15 -4 43q7 31 21 45q14 16 49 20q38 0 49 -41q3 -39 84 -94q84 -53 221 -104
q81 -23 131 -45q49 -22 57 -53q12 -27 3 -72q-11 -51 -234 -303q-229 -265 -252 -312q-41 -67 -78 -120q-49 -52 -125 -52z" />
    <glyph glyph-name="question" unicode="?" horiz-adv-x="1761" 
d="M223 8q-52 6 -76 27q-27 21 -18 74q12 56 66 81q55 25 92 25q61 0 90 -33q32 -32 26 -61q-5 -30 -63 -72q-56 -41 -117 -41zM338 1483q24 106 231 307q299 293 680 514q418 236 670 236q54 0 70 -13q14 -11 34 -41q29 -51 23 -96q-28 -101 -98 -209q-63 -100 -248 -297
q-205 -215 -522 -524q-372 -362 -504 -498q-239 -260 -295 -393q0 -4 22 -14q60 -23 48 -86q-6 -30 -32.5 -47t-66.5 -17q-61 3 -90 37q-32 35 -22 94q21 97 217 307q215 228 655 654q353 342 510 506q305 320 328 440q7 32 -7 46.5t-59 20.5h-8q-104 0 -305 -88
q-210 -95 -434 -249q-198 -142 -365 -312q-159 -156 -182 -211q1 0 3.5 -1t9 -4.5t13.5 -6.5q57 -40 48 -96q-15 -39 -66 -76q-52 -20 -100 -20q-79 0 -125 34q-49 37 -33 103z" />
    <glyph glyph-name="at" unicode="@" horiz-adv-x="1456" 
d="M434 293q-133 0 -207 53q-73 50 -96 146q-20 82 2 196q72 319 418 615q319 272 559 272q158 0 205 -139q43 -129 -2 -349q-28 -126 -62 -190q-28 -61 -63 -109h22q34 0 49 -17t9 -42q-11 -60 -117 -158q-104 -97 -236 -161q-270 -117 -481 -117zM217 647
q-36 -150 72 -215q44 -14 110 -14q344 0 609 223q65 57 82 74q2 2 6.5 -3.5t7.5 -11.5t2 -6q-6 -4 -29 -18q-88 -51 -162 -51q-27 0 -59 12q-19 11 -41 47q-19 39 -24 68q-10 38 -7 61q0 6 7 -1l4 -3q-17 -7 -86 -59q-159 -116 -220 -113q-76 12 -57 111q24 101 150 251
q170 185 264 185q33 0 76 -37q9 -14 22 -14q6 0 19 -9q25 -14 18 -51q0 -12 16 -49q27 -84 23 -111q-11 -34 -55 -69q-45 -34 -99 -37q-6 -1 -10.5 -2t-6.5 -1.5t-3 -0.5q-3 -46 20 -72q21 -24 54 -24q46 0 120 45q75 43 129 145q61 104 91 246q34 166 -2 242.5t-144 76.5
q-155 0 -371 -147q-217 -148 -383 -375q-116 -166 -143 -293zM522 735q-2 -7 -3 -8.5t-1.5 0.5t-3 5t-6.5 3q10 0 74 37q91 48 131 102q30 49 47 134v2q-36 -33 -111 -113q-121 -133 -127 -162z" />
    <glyph glyph-name="A" unicode="A" horiz-adv-x="2230" 
d="M1604 -406q-41 3 -56 72q-46 132 27 486q58 282 287 972q-2 1 -6.5 4.5t-6.5 4.5q-20 8 -102 22q-82 18 -161 32t-168 26.5t-105 15.5l-8 2l-17 -4q-24 -14 -67 -68q-276 -315 -453 -569q-142 -202 -158 -275q-2 -3 8 -18q19 -37 13 -74q-10 -38 -31 -51q-19 -16 -45 -16
q-40 0 -58.5 36t-11.5 101q24 110 154 287q99 139 373 464q158 180 166 205v-20h-68q-762 -41 -1130 -271l-29 -18q2 -6 16 -41q12 -20 8 -49q-12 -53 -73 -68q-45 12 -66.5 44t-15.5 77q7 38 26 82q76 137 443 240q380 107 819 116l84 2q18 0 57 -8q1 1 3.5 3t7 6t8.5 8
q18 13 69 67q24 26 129 142q452 512 576 663q169 206 188 266q9 27 49 64q27 31 74 65q63 45 96 33q7 0 14 -9t11.5 -30.5t1.5 -48.5q-11 -44 -12 -45q-63 -126 -191 -475q-23 -66 -299 -840q181 -71 281 -155q100 -87 88 -211q-7 -49 -31 -95q-19 -45 -65 -45
q-83 0 -74 152q6 84 -72 147q-78 65 -157 93q-100 -310 -152 -490q-37 -141 -70 -301q-93 -438 -32 -526q31 -48 20 -86l-4 -6q-5 -26 -33 -58q-32 -29 -63 -31zM1370 1329q174 -18 531 -94l6 12q57 129 278 783q68 214 80 276q1 5 4 6.5t7 0.5t7 -2.5t7 -4.5l4 -2
q-28 -21 -180 -176q-141 -144 -385 -406q-209 -222 -359 -393z" />
    <glyph glyph-name="B" unicode="B" horiz-adv-x="2811" 
d="M514 -369q-76 0 -108 47t-17 125q36 132 184 326q49 60 74 96q22 33 27 58q2 3 0 8q-2 27 8 84q90 384 625 1028q165 199 688 803q-16 2 -45 2q-68 0 -162 -17q-105 -15 -186 -39q-400 -108 -746 -366q-349 -258 -539 -588q-59 -95 -88 -223q-26 -123 9 -141
q28 -11 59 -13q55 0 80 -28q22 -28 16 -68q-12 -57 -90 -94q-47 -17 -108 -17q-115 3 -152 91q-34 72 -8 206q82 348 475 744q339 327 721 506q386 184 745 190l142 2q109 144 145 176q53 47 135 47q101 -9 80 -116q-18 -45 -51 -80q-44 -41 -76 -41q-14 0 -65 -45
q63 -54 79 -84q31 -48 13 -133q-38 -151 -172 -308q-139 -158 -434 -403q-153 -132 -183 -162q6 -2 31 -2q76 0 278 27q188 18 361 18q279 0 375 -41q121 -59 94 -190q-43 -179 -344 -424q-271 -223 -651 -449q-364 -213 -711 -364q-350 -148 -498 -148h-10zM461 -219
q-6 -27 10 -37t66 -10q170 0 604 200q676 315 1138 670q363 277 387 397q7 25 -20 60q-32 34 -92 55q-92 30 -326 33q-92 0 -321 -16q-247 -25 -310 -25q-55 0 -73 18q-16 19 -13 56q9 41 31 69q21 35 203 191q489 412 524 579l2 15q10 43 -4 72.5t-57 54.5q-21 18 -25 18
q-22 0 -284 -280q-478 -495 -739.5 -846t-307.5 -574l-16 -69q320 276 594 422q91 48 116 45q27 -3 49 -25q22 -25 19 -53q-8 -32 -57 -68q-74 -48 -166 -96q-90 -51 -201 -127q-90 -61 -219 -160q-94 -75 -101 -90q-1 -3 2 -16q10 -26 3 -43q-11 -30 -39 -47
q-32 -21 -68 -21q-8 2 -20 6h-5q-28 0 -86 -69q-87 -99 -129 -160q-63 -94 -69 -129z" />
    <glyph glyph-name="C" unicode="C" horiz-adv-x="2441" 
d="M512 -227q-171 0 -281 61q-189 105 -245 275q-62 164 -9 415q36 166 105 320q228 427 655 829q380 340 834 604q455 260 663 260q51 -4 72 -14q29 -8 57 -47q25 -38 13 -102q-20 -104 -88 -236q-63 -111 -217 -287q-167 -187 -412 -405q-251 -215 -451 -346
q-219 -148 -319 -148q-62 0 -90 26t-19 75q11 43 49 69q40 25 129 58q217 81 631 424q398 323 580 585q91 123 100 170q6 29 -8.5 40t-60.5 11q-175 0 -551 -206q-383 -205 -750 -510q-484 -412 -743 -877q-34 -64 -47 -92q-22 -60 -29 -88q-9 -31 -35 -139
q-37 -173 -31 -213q0 -30 11 -62q58 -216 284 -317q48 -22 90 -27q66 -4 144 -4q166 0 352 62q170 59 422 206q264 154 573 379q324 233 508 400q126 114 180 114q28 0 41 -26q18 -21 11 -52q-16 -58 -191 -190q-298 -235 -641 -459q-336 -222 -596 -350
q-405 -186 -690 -186z" />
    <glyph glyph-name="D" unicode="D" horiz-adv-x="2811" 
d="M442 -217q-38 0 -80 20q-44 25 -59 74q-20 56 0 135l19 64q118 424 1251 1726q95 110 203 240q-55 -21 -220 -92q-415 -186 -788 -473q-281 -221 -416 -408q-59 -73 -65 -111q-8 -25 16 -49q37 -37 29 -78q-9 -42 -58 -67q-44 -29 -106 -29q-70 0 -111 47q-43 46 -34 105
q38 143 215 338q182 201 485 415q340 244 600 365q197 93 662 270q163 211 172 262q16 59 59 89q46 30 96 30q63 0 92 -39q39 -36 29 -98q-12 -60 -96 -92q-14 -6 -62 -39q-42 -31 -75 -64q-32 -25 -33 -28v24q6 1 133 27q284 59 496 59q285 0 434 -110q154 -114 104 -336
q-52 -238 -328 -582q-271 -337 -727 -725q-442 -370 -798 -563q-351 -184 -533 -184q-144 0 -182 117q-7 14 0 53q23 101 84 196q57 87 207 215q516 425 1065 566q113 26 178 26q62 0 84 -28q21 -25 18 -56q-4 -17 -24 -37q-16 -21 -64 -38q-47 -14 -131 -31
q-354 -74 -733 -299q-230 -137 -399 -281q-169 -138 -181 -211q-8 -33 21 -59q27 -27 92 -27q205 0 631 260q415 250 860 654q675 641 745 987q33 142 -45 229q-49 55 -106 80q-109 31 -281 31q-171 0 -420 -47q-308 -61 -370 -97q-67 -45 -307 -315q-276 -313 -500 -594
q-668 -832 -737 -1157q-12 -56 -7 -74q8 -15 39 -26q37 -12 54 -36t10 -54q-7 -35 -41 -52q-27 -18 -66 -18z" />
    <glyph glyph-name="E" unicode="E" horiz-adv-x="2600" 
d="M311 -338q-181 7 -273 107t-95 282q0 71 16 144q37 155 82 266q13 30 65 135h-10q-8 -2 -22 -2q-81 3 -117 30.5t-25 75.5q9 37 41 66q32 28 78 35q133 20 189 49q30 24 143 186q140 203 319 416q127 158 476 535q125 125 133 147q0 -3 3.5 -7.5t8.5 -4.5q-16 0 -111 -29
q-338 -99 -518 -227q-90 -72 -149 -72q-53 3 -96 43q-42 42 -35 92q18 72 137 99q637 184 897 245l72 76q133 142 192 229q39 62 76 91q29 26 84 26q79 -3 106 -49q23 -48 15 -94q-15 -44 -54 -72q-37 -29 -88 -29h-22q-25 0 -39 -12q-28 -21 -74 -67q-78 -70 -82 -72
q-3 -1 -2 2l-10 6q57 10 68 12q357 52 536 72q218 27 393 27q240 0 338 -39q116 -44 95 -148q-11 -60 -54 -106q-41 -41 -82 -41q-32 0 -47 29q-15 23 -8 61l10 20t15 25q12 15 12 18q4 17 -42.5 29.5t-154 19.5t-270.5 7q-209 0 -428 -31q-219 -32 -508 -96
q-334 -341 -491 -508q-350 -377 -586 -717q-36 -50 -39 -51q-2 0 0 8h-21q30 0 101 27q744 248 1077 248q143 -6 213 -52q66 -43 51 -104q-4 -18 -26 -53q-18 -21 -54 -21q-48 0 -92 53q-22 31 -72 31q-86 4 -120 4q-216 0 -490 -65q-303 -69 -520 -160q-60 -25 -109 -53
q-35 -22 -59 -60q-13 -18 -72 -119q-123 -219 -170 -407q-43 -201 38 -301t294 -107q258 0 690 172q453 182 1051 484q310 153 338 147q24 -6 43 -33q12 -25 6 -53q-8 -25 -20 -35q-46 -32 -261 -131q-237 -110 -503 -225q-267 -115 -478 -197q-598 -240 -852 -229z" />
    <glyph glyph-name="F" unicode="F" horiz-adv-x="1839" 
d="M45 -354q-116 16 -98 106q13 50 69 109q46 49 93 141q3 8 8 27q4 4 6 22q8 34 -21 70q-20 28 -94 88q-85 66 -108 110q-12 37 -2 84q18 72 63 129q76 92 236 193q149 101 354 190q80 34 106 78q114 176 269 396q225 319 374 520q242 325 244 327l10 -2q-94 0 -528 -123
q-311 -87 -371 -124q-18 -10 -18 -23q-18 -57 -72 -80q-44 -24 -106 -24h-15q-72 2 -105.5 36t-23.5 97q4 32 31 47q70 46 655 186q227 57 629 133q254 367 285 379q48 23 86 23q62 0 100 -35q39 -34 27 -82q-19 -76 -113 -107q-28 -14 -69 -47q-5 -5 -35 -31t-45 -42
q-35 -38 -41 -50q3 5 -2.5 12t-12.5 7q8 0 175 22q594 74 1009 74q274 0 389 -28q70 -22 107 -68q36 -52 24 -107q-11 -33 -41 -67q-31 -31 -69 -31q-30 3 -53 29q-17 23 -11 67q5 22 4 23q-93 49 -505 49q-494 0 -1119 -86q15 -1 -7 -24l-57 -57q-5 -6 -9 -11
q-45 -54 -197 -242q-9 -11 -223 -289q-103 -131 -180 -239q-90 -126 -136 -197q-101 -148 -112 -166q-17 -25 -35 -54l-5 -7l1 2l-15 14q31 9 82 27q156 57 349 96q178 39 297 39q112 -1 161.5 -43t34.5 -119l-2 -10q-42 -119 -102 -119q-64 0 -58 107l4 35q-9 12 -135 18
q-276 0 -678 -135q-104 -177 -219 -387q-106 -201 -190 -396q-41 -87 -51 -137q-13 -53 -5 -96q3 -59 -6 -106q-27 -121 -168 -121h-14zM-45 412q-5 -21 18 -54q20 -26 115 -104q85 -79 88 -86q6 -14 4 -14q1 0 6.5 12.5t22.5 50t41 82.5q114 220 299 528
q-381 -168 -535 -333q-51 -51 -59 -82z" />
    <glyph glyph-name="G" unicode="G" horiz-adv-x="2729" 
d="M1640 -477q-26 0 -47 14q-23 15 -34 35q-16 26 -19 49q-3 28 8 78q49 201 144 401q104 224 276 539q108 199 156 291q-19 -11 -81 -48t-144.5 -86t-172.5 -102q-673 -401 -1026 -563q-359 -166 -550 -166q-166 3 -232 92t-29 258q118 514 904 1250q141 132 424 354
q248 194 417 303q225 145 437 238q214 94 335 94q179 -3 230 -154q6 -34 0 -155q-4 -59 0 -127q10 -29 6 -50q-8 -32 -49 -61q-42 -31 -84 -31q-73 3 -113 37q-48 40 -33 115q10 48 45 119q24 61 33 88q10 40 -4 51q-17 14 -65 14q-126 0 -355 -100q-236 -106 -495 -277
q-343 -230 -674 -534q-330 -306 -584 -623q-251 -327 -317 -549l-4 -16q-26 -123 34 -188q24 -27 56 -33q65 -14 139 -14q174 0 434 118q267 123 723 406q146 91 381 239q436 274 473 289q9 3 8 0h19q-20 0 -86 -14q-21 -4 -45.5 -10t-54.5 -13.5t-48 -11.5
q-25 -7 -64.5 -19t-53.5 -16q-63 -24 -95 -24q-55 0 -102 53q-44 53 -31 108q16 45 45 66q35 27 78 27q31 0 55 -9q5 -5 45 -8q66 0 232 21q321 35 465 35q139 -6 186 -23q93 -38 127 -129q21 -56 12 -107q-16 -77 -94 -77q-104 0 -110 102q-3 21 -9 33q-9 6 -39 18
q-58 15 -75 15q-33 0 -51 -13q-48 -27 -70 -43q-54 -46 -86 -80q-39 -44 -103 -137q-394 -554 -499 -987l-31 -125q-8 -34 -6 -45q-3 -9 12 -27q39 -42 31 -81q-21 -74 -105 -74z" />
    <glyph glyph-name="H" unicode="H" horiz-adv-x="3239" 
d="M1874 -522q-68 0 -90 80q-21 67 -8 133q30 152 -217 313q-123 68 -289 117q-246 78 -400 90h-10q-1 -3 -5 -13t-7 -18q-22 -55 -27 -84q-12 -44 2 -51q61 -33 49 -86q-5 -34 -41 -59q-38 -23 -73 -23q-66 0 -92 51q-34 46 -11 146q6 36 56 155q-115 12 -289 29
q-431 43 -498 84q-46 27 -37 76q26 123 418 264q280 104 526 168l328 84l264 340q141 182 592 698q414 462 430 520q9 51 68 80q63 29 108 29t84 -27q41 -29 29 -71q-12 -55 -135 -152q-469 -394 -1008 -1051q-252 -310 -269 -327q-8 -8 -7 -4h-23q23 0 297 55
q519 97 877 133q15 0 26 8q25 14 107 138q62 98 186 278q634 919 664 1083q16 59 69 97q55 39 115 39q43 0 76 -23q44 -24 31 -72q-11 -54 -127 -198q-305 -391 -529 -703q-282 -391 -442 -633h197q266 0 335 -38q82 -48 58 -162q-3 -35 -37 -58q-28 -22 -62 -22
q-58 0 -61 82q5 22 -7 32.5t-50 16.5q-46 9 -283 16l-178 6q-324 -539 -408 -712q-110 -212 -180 -490q-14 -65 -2 -90q15 -33 45 -49q70 -60 59 -113q-9 -37 -47 -61q-35 -25 -77 -39q-40 -12 -70 -12zM-47 428q-1 -3 30 -10t107 -18.5t182 -24.5q388 -43 461 -43
q10 0 21 8q24 14 88 125q87 139 243 362q-209 -49 -516 -141q-345 -99 -522 -199q-94 -53 -94 -59zM909 311l-1 -6v1q-2 7 -5 7q25 0 125 -20q291 -59 383 -88q133 -47 231 -96q88 -49 158 -119l47 -45q1 2 5 16.5t12.5 38t21.5 51.5q101 250 385 742l158 268q4 7 11 -7
q7 -18 -5 -20q-33 0 -229 -18q-538 -55 -957 -152q-330 -492 -340 -553z" />
    <glyph glyph-name="I" unicode="I" horiz-adv-x="735" 
d="M-129 -367q-16 0 -59 25q-58 25 -74 82q-12 50 12 168q68 316 402 831q310 479 862 1168q401 508 409 524l13 -12l15 5q5 1 -1 -5q-154 -136 -352 -344q-180 -189 -322 -363q-136 -171 -147 -219q-2 -4 -19 -47q-24 -52 -92 -82q-50 -21 -92 -21q-43 3 -74 31
q-32 28 -26 66q26 66 428 487q364 379 651 623q140 119 186 133q24 4 41 4q57 -3 51 -68q-15 -52 -96 -153q-166 -214 -362 -445q-583 -697 -903 -1177q-354 -529 -437 -920q-15 -77 -8 -100q3 -22 27 -27q42 -8 63 -30t15 -56q-18 -66 -111 -78z" />
    <glyph glyph-name="J" unicode="J" horiz-adv-x="2183" 
d="M121 -362q-36 0 -53 24t-11 64q34 143 406 462q418 344 954 613q122 63 158 90q96 71 344 375q483 591 551 927q48 204 -74 291q-49 30 -76 35q-32 7 -143 10q-177 0 -414 -94q-213 -84 -463 -237q-234 -149 -430 -312q-183 -150 -329 -309q-128 -146 -142 -225
q-8 -30 29 -84q28 -42 23 -66q-7 -38 -56 -67q-43 -21 -96 -21q-49 0 -80 16q-40 16 -65 74q-22 49 -9 115q42 196 332 467q295 276 684 518q380 234 760 348q147 39 283 39q231 0 330 -115t61 -342q-48 -217 -248 -530q-199 -323 -522 -690q-73 -79 -76 -90l29 28h-45
q4 0 67 17q143 41 207 41q67 0 98.5 -23.5t22.5 -66.5q-11 -50 -49 -64q-26 -16 -121 -29q-161 -27 -377 -125q-66 -25 -244 -194q-512 -495 -946 -754q-200 -116 -270 -116zM141 -260q6 5 -2 8q90 0 416 232q315 223 670 546q28 27 42.5 36.5t28.5 6.5q9 4 13.5 8.5
t5.5 6.5l2 4t5.5 2.5t14.5 1t29 0.5q-82 -35 -227 -115q-323 -182 -480 -291q-185 -130 -350 -272q-162 -137 -168 -174z" />
    <glyph glyph-name="K" unicode="K" horiz-adv-x="1886" 
d="M-4 -467q-63 0 -115 55q-48 48 -71 136q-13 100 28 313q17 94 53 180q5 17 11 33t9.5 25t4.5 12q0 9 -16 20q-40 24 -25 113q16 55 55 108q40 53 140 152q76 88 90 108q16 29 51 60q39 43 207 268q206 280 530 694q487 626 537 732q49 112 170 112h8q49 0 82 -26
q33 -30 29 -78q-5 -29 -140 -164q-387 -372 -903 -1034q-107 -136 -207 -271q2 2 19 15.5t26 21.5q296 255 873 690q221 165 366 279q154 120 510 432q112 -9 152 -25q47 -18 33 -88q-7 -35 -41 -59q-29 -29 -117 -80q-507 -331 -1008 -704q-527 -393 -827 -658
q-59 -56 -66 -65q-13 -25 -18 -52q-26 -135 45 -251q117 -187 360 -187q118 8 312 68q183 54 301 121q129 87 166 92q26 0 49 -23q22 -26 14 -57q-10 -39 -53 -76q-97 -84 -295 -151q-215 -64 -432 -70q-178 0 -307 72q-124 71 -264 223q-72 80 -91 84q-17 -3 -65 -103
q-47 -90 -53 -110q0 -20 8 -33q10 -30 10 -47q-6 -42 -70 -68q-44 -21 -69 -161l-23 -123q-22 -120 -4 -197q8 -58 62 -86q83 -33 69 -94q-3 -24 -33 -51q-27 -27 -67 -27z" />
    <glyph glyph-name="L" unicode="L" horiz-adv-x="2455" 
d="M-244 -82q-59 0 -96 37q-42 39 -33 82q11 26 35 47q62 46 707 295q184 298 354 536q131 174 137 195q7 0 24 -15q2 -3 1 -3l-31 -19q-12 -6 -27 -16q-18 -6 -32 -6q-26 0 -43 24q-18 21 -15 47q11 48 129 115q140 95 160 111q43 37 221 249q187 225 367 455
q185 239 289 387q67 102 100 127q41 33 102 33q26 0 54 -14q27 -12 45 -37q31 -39 6 -70q-3 -7 -16.5 -30t-22.5 -40q-140 -225 -184 -286q-210 -285 -644 -658q-113 -94 -229 -229q-157 -180 -401 -547q-164 -248 -172 -270l-6 5q-6 5 -10 9t-1 4q4 0 90 21
q340 110 670 168q332 61 561 61q179 0 269 -43q103 -45 118 -115q14 -48 9 -69q-9 -36 -35 -47q-19 -11 -60 -11q-43 0 -65 54q-21 90 -305 90q-158 0 -379 -27q-306 -37 -633 -125q-242 -66 -268 -84q-26 -29 -43 -96q-1 -3 -1 -5q0 7 -6 10q-1 1 -2 1h23q44 0 65.5 -19.5
t16.5 -54.5q-7 -35 -53 -69q-53 -29 -97 -29q-45 0 -84 31q-22 22 -22 49q0 32 10 76q3 14 7.5 24.5t8.5 15.5t8.5 7.5t5.5 3.5h1q-12 0 -162 -72q-144 -69 -205 -104q-62 -35 -69 -62q-18 -92 -142 -98zM1380 1624q157 133 359 365q33 42 57 77q42 61 51 78q27 43 45 103
q4 -31 10 -45.5t10.5 -16.5t16.5 -2q-22 -7 -108 -103t-277 -323q-57 -63 -133 -162z" />
    <glyph glyph-name="M" unicode="M" horiz-adv-x="2467" 
d="M1937 -276q-100 0 -141 112q-44 106 0 307q43 205 205 543q135 293 547 1020q153 268 229 410q60 111 107 223q22 49 47 151q4 8 8 9l-2 -2q-42 0 -297 -209q-150 -127 -352 -342q-163 -176 -480 -551q-171 -210 -292 -328q-112 -106 -177 -106q-95 0 -110 174
q-3 28 0 63q1 10 4.5 38.5t5.5 47.5q8 49 68 328q76 355 86 409q13 84 10 105q0 8 2 8q-7 0 -62 -47q-49 -40 -145 -125q-106 -98 -151 -143q-215 -229 -410 -478q-207 -264 -328 -464q-66 -115 -127 -238q-59 -127 -69 -178l-4 -17q46 0 70 -22.5t18 -61.5q-12 -54 -99 -98
q-59 -26 -114 -26q-54 0 -79 26.5t-16 77.5q7 37 50 139q167 384 499 828q320 431 736 819q175 158 262 158q141 0 84 -281q-23 -98 -58 -217q-53 -181 -92 -371q-49 -228 -43 -285q6 -31 11.5 -41t15.5 -10q32 0 125 101q95 100 295 348q554 687 897 954q204 160 295 160
q51 0 75 -49q17 -43 4 -115q-15 -68 -90 -213q-78 -156 -241 -438q-353 -610 -551 -1006q-171 -346 -221 -581q-21 -98 -23 -160q-9 -97 6 -143q14 -44 53 -60q82 -30 68 -82q-7 -34 -41 -51q-30 -20 -68 -20z" />
    <glyph glyph-name="N" unicode="N" horiz-adv-x="2764" 
d="M-41 -203q-65 0 -102 92q-23 89 -11 154q31 137 238 457q176 282 696 1001q508 700 652 957q81 140 124 180q47 47 136 47q52 0 78 -21.5t22 -62.5q-12 -56 -72 -113q-120 -115 -405 -475q-320 -409 -584 -772q-535 -736 -655 -1005q-44 -87 -72 -199q-3 -7 -16 4
q-9 8 -2 8q1 0 11 9t31.5 33t47.5 56l307 373q950 1178 1561 1725q373 350 471 350q48 0 67 -8q68 -28 49 -189q-31 -145 -260 -643q-417 -915 -489 -1239q-27 -126 -10 -180.5t79 -54.5h9q206 34 700 497q110 105 173 155.5t91 51.5q29 0 47 -18q17 -17 17 -45
q-3 -24 -49.5 -73.5t-145.5 -139.5q-562 -485 -813 -525h-22q-93 0 -129.5 79t-10.5 231l15 86q24 145 126.5 407.5t290.5 675.5q165 383 181 422q72 179 94 276q16 105 4 109q-33 -9 -162 -111q-133 -104 -315 -280q-671 -614 -1428 -1608q-332 -434 -352 -504l2 -14
q-6 -38 -33 -72q-25 -31 -55 -49q-72 -35 -113 -35h-14z" />
    <glyph glyph-name="O" unicode="O" horiz-adv-x="2975" 
d="M981 -53q-113 0 -160 41q-49 40 -71 125q-18 36 -15 82q2 27 23 137q28 136 57 211l14 35q-57 -1 -172 -4.5t-174 -4.5q-139 0 -219 15q-81 13 -139 47q-61 25 -83 83.5t-3 145.5q30 140 201 314q157 159 413 333q481 325 1098 533l145 51l74 76q285 309 397 389
q44 35 101 35q86 0 117 -58q36 -52 24 -108q-21 -102 -153 -105l-64 4q-8 4 -33 7l-92 -84q-118 -110 -126 -123q-3 -4 -1 -6q-2 -11 -9 9q-4 11 -3 11q13 0 37 8q39 10 127 13q91 6 190 6q131 0 170 -2q180 -6 338 -99q60 -35 113 -100q72 -90 88 -190q6 -44 -19 -162
q-17 -79 -41 -135q-14 -39 -51 -107q-70 -113 -143 -201q-108 -123 -154 -170h74q119 0 175.5 -27t47.5 -85q-7 -32 -31 -53q-21 -27 -61 -27q-35 0 -51 14q-1 0 -43 13q-48 10 -76 8l-199 -6l-172 -129q-759 -567 -1251 -732q-118 -28 -215 -28zM92 842q-14 -57 53 -107
q104 -73 334 -73q127 0 320 18l80 6q195 348 342 557q187 278 475 612q11 13 73 92q15 20 15 11q6 27 18 10q11 -15 6 -26q-2 -2 -4 -3q-20 0 -112 -34q-730 -268 -1227 -652q-325 -247 -373 -411zM842 276q-23 -115 15 -166t147 -51q242 0 725 279q315 179 610 412
q33 25 56.5 45t32 29t7.5 10q3 10 9 -6q6 -15 1 -15q-84 0 -766 -104q-652 -96 -716 -113q-13 -13 -33 -57q-21 -46 -53 -129q-16 -55 -35 -134zM1010 684q1 7 -5.5 11.5t-11.5 2.5q47 16 103 19q7 1 28.5 5t65 12.5t84.5 15.5q1011 184 1354 237q201 198 315 346
q110 139 141 285q43 197 -114 315q-166 123 -480 123q-130 0 -264 -20q-136 -20 -182 -33q-71 -38 -258 -258q-212 -242 -412 -510q-212 -278 -321 -465q-43 -68 -43 -86z" />
    <glyph glyph-name="P" unicode="P" horiz-adv-x="2459" 
d="M641 -227q-163 0 -109 264q105 488 1065 1792q56 75 113 151.5t77 103.5t19 25l17 -4q-81 -20 -103 -28q-93 -26 -188 -60q-80 -29 -178 -67q-666 -291 -959 -645l-37 -52q65 -46 54 -106q-12 -43 -58 -72q-52 -23 -106 -26q-68 0 -115 30q-49 36 -43 92q21 87 225 269
q212 187 445 334q537 324 1122 471q15 4 29 18q19 11 53 57q11 12 96 131q34 47 117 154q56 68 78 86q51 33 104 33q47 0 80 -23q39 -21 35 -71q-7 -32 -147 -154q-63 -52 -197 -186q172 14 225 14q154 0 287 -31q129 -34 203 -92q156 -132 110 -334q-72 -337 -542 -737
q-195 -166 -349 -262q-514 -302 -782 -305q-86 0 -125 34.5t-27 100.5q9 39 44 88q37 37 73 37q26 0 47 -21q23 -20 19 -47q-3 -17 -19 -39q-9 -16 -12 -28q-2 2 -2 4q8 -4 35 -4q370 12 891 379q288 204 452 391q119 142 158 219q39 73 63 192q17 109 -40 183t-195 118
q-80 25 -188 25q-404 -6 -439 -27q-23 -14 -147 -163q-121 -145 -275 -349q-491 -652 -729 -1120q-144 -278 -182 -450q-13 -66 -7.5 -94t30.5 -31q72 -15 63 -74q-2 -13 -27 -55q-42 -39 -102 -39z" />
    <glyph glyph-name="Q" unicode="Q" horiz-adv-x="1853" 
d="M592 106q-29 0 -55 13q-29 11 -50 41q-19 32 -26 108q-3 72 10 135l16 58q-60 0 -350 -84q-274 -80 -295 -115q-22 -88 -129 -88q-73 0 -119 55q-27 34 -20 76q7 23 29 43q58 51 98 51q19 0 215 45q35 8 112.5 24t214.5 45t265 56l37 144q94 310 311 653q228 368 530 711
q89 107 103 125q142 172 156 204q8 15 57 31q49 19 70 19q19 0 81 38q105 62 172 62q215 0 203 -385q0 -47 -14 -119q-13 -62 -53 -188q-85 -249 -170 -402q-182 -330 -625 -805l84 -10q146 -22 211.5 -72.5t50.5 -130.5q-17 -54 -49 -98q-43 -43 -82 -43q-42 4 -61 24.5
t-13 53.5q14 35 27 53q16 24 16 31l-4 4q-12 18 -139 47q-67 15 -164 23q-168 -152 -301 -252q-230 -181 -350 -181zM563 342q-10 -44 -2 -74q3 -31 6 -41q3 -2 23 -6q59 0 184 76q119 70 289 219q23 18 24 19h-4q-167 0 -440 -50q2 -4 19 -30q11 -11 40 -11q12 0 52 7
q40 4 51 4q33 0 48 -20t7 -54q-13 -47 -63 -70q-53 -24 -107 -24q-79 0 -123 41q-13 12 -13 17q0 1 -1 1q-2 0 1 1q9 5 9 -3v-2zM649 590q273 38 561 61l105 109q415 439 655 911q91 191 154 479q19 92 16 131q-11 166 -106 166q-61 0 -136 -41q-15 -6 -23 -10.5t-10 -7
t-1 -4.5q-2 -2 4 -27q3 -29 0 -55q-15 -39 -56 -78q-46 -37 -102 -37q-4 0 -63 -76l-220 -288q-545 -727 -770 -1211zM756 1018q-17 -12 -16 -1q3 18 102 181q55 97 205 326q120 187 145 217q38 25 39 18q0 -7 -75 -113q-13 -18 -23 -32q-273 -382 -390 -641z" />
    <glyph glyph-name="R" unicode="R" horiz-adv-x="2076" 
d="M-57 -141q-41 0 -70 32q-30 33 -33 125q0 59 6 103q102 458 934 1710q336 504 400 645q23 51 61 78q55 37 115 37q58 0 92 -27q33 -30 33 -63q-3 -27 -49 -70q-578 -656 -945 -1264q-196 -329 -308 -553t-150 -391q-33 1 -20 32q6 13 32 53q28 43 43 69l51 90
q710 1231 1546 1882q318 251 492 266q172 0 131 -282q-79 -353 -418 -797q-352 -449 -756 -709q-209 -134 -350 -137l-53 -2l-2 -33q-3 -101 90 -172q84 -69 199 -69q120 0 272 86q165 91 420 286q162 119 197 127q10 4 30 4q40 0 54 -24q17 -24 14 -55q-4 -26 -61.5 -71.5
t-174.5 -119.5q-290 -194 -417 -252q-146 -67 -267 -67q-144 0 -221 22q-76 26 -137 115q-24 49 -49 119q-47 133 -53 155q-21 83 -21 105q3 11 -27 49l-30 53q-13 26 -13 55q6 40 64 86q54 42 117 45q53 0 77.5 -20.5t18.5 -60.5q-15 -49 -29.5 -96.5t-20.5 -68.5t-7 -24
q-12 -57 -9 -65q18 -9 54 -9q86 3 182 45q303 148 629 486q321 333 518 715q96 178 121 299q18 91 -11 141q-19 41 -55 41q-152 -18 -401 -199q-256 -188 -547 -491q-369 -387 -668 -815q-374 -544 -434 -838q-5 -40 -2 -90q-4 -68 -8 -82q-8 -43 -35 -70q-16 -22 -61 -45
q-40 -21 -80 -24z" />
    <glyph glyph-name="S" unicode="S" horiz-adv-x="2050" 
d="M645 -6q-23 0 -35 15t-8 40q20 96 397 322q213 128 394 207q43 20 53 26l-4 4q-24 43 -168 72q-166 33 -490 53q-234 17 -374 41q-166 29 -239.5 106.5t-47.5 198.5q26 138 151 297q117 149 351 342q481 400 1122 682q400 180 711 269q324 92 530 92q170 0 242 -66
q70 -67 49 -178q-48 -226 -459 -594q-399 -358 -1182 -833q-181 -104 -260 -158q-60 -31 -116 -31q-66 0 -97 25.5t-24 74.5q9 41 20 54q22 28 182 102q206 95 506 264q677 383 1065 768q215 218 238 332q11 56 -28 80.5t-142 24.5q-239 0 -653 -127q-403 -121 -842 -340
q-475 -247 -844 -541q-371 -295 -450 -518q-9 -41 8 -88q14 -48 45 -72q64 -46 194 -72q141 -28 441 -43q291 -21 368 -37q97 -15 176 -55q83 -44 91 -84v-8q8 0 88 25q116 39 157 39q42 0 62 -23q16 -19 12 -49q-3 -23 -23 -47q-31 -32 -219 -84q-24 -7 -96 -38
q-27 -12 -27 -1v2q-5 -17 -49 -55q-210 -198 -528 -334q-184 -82 -248 -82zM711 94l-54 -8q69 10 129 31q234 85 414 205q83 57 113 81q-280 -120 -393 -182q-74 -38 -135.5 -76.5t-73.5 -50.5z" />
    <glyph glyph-name="T" unicode="T" horiz-adv-x="1957" 
d="M934 -68q-60 0 -88.5 29t-20.5 82q2 19 33 84q21 30 62 125q47 108 120 227q94 153 185 283q76 109 84 133q3 16 -25 61q-35 47 -82 70q-109 71 -452 111q-373 48 -439 59q-150 28 -219 73t-57 109q29 150 522 369q505 228 1268 438q308 85 475 123q28 6 63 16t41 11
q53 14 56 37q10 44 61 67q59 23 94 23q44 0 68 -17q15 -12 35 -45q483 73 549 80q106 14 251 14q225 0 329 -61.5t85 -185.5q-12 -64 -72 -146q-31 -40 -47 -51q-19 -16 -53 -16q-38 0 -54.5 18.5t-10.5 44.5q6 28 51 92q37 53 41 70q6 26 -10 46t-60 40q-97 43 -299 43
q-94 0 -264 -18q-398 -44 -471 -80q-24 -18 -174 -174q-648 -686 -971 -1106q-118 -152 -145 -205q-14 -32 -19 -51q-9 -47 -170 -402q-87 -189 -94 -217q-3 -11 -2.5 -13t6.5 -5q36 -22 29 -64q-19 -54 -76 -88q-64 -33 -133 -33zM102 1382q-5 -20 21 -36t94 -35
q143 -38 467 -72q447 -49 563 -121q69 -38 119 -119q6 -8 14 -24q29 43 78 102q130 169 469 584q259 309 459 575q-330 -55 -1014 -268q-490 -149 -891 -332q-360 -166 -379 -254zM1104 395q0 1 2 19q-15 0 5 28q4 6 15 21q42 54 64 92q59 100 84 129q28 21 28 13
q-2 -13 -83 -146q-52 -86 -76.5 -120.5t-38.5 -35.5z" />
    <glyph glyph-name="U" unicode="U" horiz-adv-x="1882" 
d="M1020 -199q-46 0 -77.5 31.5t-43.5 89.5q-25 112 12 285q48 226 162 487q70 160 236 488l41 41q-458 -467 -947 -873q-300 -250 -411 -250q-47 0 -74 43q-28 46 -33 90q-3 46 15 132q40 193 188 493q139 289 369 637q166 244 319 432t234 238q58 33 110 33q67 0 105 -44
q44 -44 32 -92q-12 -44 -51 -73q-46 -31 -100 -31l-51 6q-6 2 -23 -8q-18 -12 -51 -45q-241 -250 -532 -686q-286 -447 -414 -760q-32 -91 -49 -162q-11 -57 -4 -78q3 -9 7.5 -11.5t16.5 -2.5q182 0 1241 1065q48 48 113 114t84 85q58 66 106 124q18 22 97 132
q124 192 303 419q166 214 311 365q150 156 211 156q64 0 49 -109q-27 -116 -287 -408q-202 -230 -723 -772l-110 -204q-341 -618 -426 -1008q-32 -152 -22.5 -218.5t59.5 -66.5q73 0 162 92q46 46 217 242l102 123q83 115 115 156q55 74 65 84q23 26 43 34q14 7 33 7
q31 0 43 -16.5t6 -41.5q-7 -28 -49 -90q-481 -674 -729 -674zM1741 1739q-18 9 -21 16q-1 2 2 2q7 0 338 371q317 357 338 414q5 0 15 -13q5 -6 2 -6q-10 0 -170 -166q-132 -138 -277 -317q-197 -248 -227 -301z" />
    <glyph glyph-name="V" unicode="V" horiz-adv-x="1601" 
d="M258 -262q-137 0 -207 158q-71 145 -74 393q-6 235 58 545q115 539 375 1011q187 355 329 355q60 0 101 -41q39 -49 28 -95q-13 -50 -53 -82q-43 -34 -108 -34q-19 0 -39 -4q-14 -9 -64 -84q-162 -235 -291 -545q-124 -296 -188 -600q-57 -264 -51 -467q6 -197 61 -301
q26 -53 57 -77t72 -24q70 0 168 76q98 73 236 250q128 167 426 608q601 877 940 1323q382 505 506 578q40 18 75 18q36 0 55 -18.5t13 -52.5q-8 -32 -90 -105q-370 -331 -1387 -1767q-410 -582 -510 -705q-254 -313 -438 -313z" />
    <glyph glyph-name="W" unicode="W" horiz-adv-x="2353" 
d="M1290 -213q-63 0 -121 33q-87 52 -145 168q-61 129 -104 340q-45 194 -82 272q-26 57 -59 82t-79 25q-168 -15 -479 -445q-87 -112 -106 -131q-25 -28 -25 -35q-5 -18 -37 -43q-30 -21 -67 -24q-18 0 -39 16q-87 57 -68 176q39 193 254 529q122 201 449 671
q412 591 497 789q70 134 99 160q40 27 110 30q46 0 70 -22.5t18 -63.5q-15 -56 -121 -186q-283 -366 -499 -670q-271 -380 -414 -606q-93 -152 -178 -315q-84 -167 -92 -207v2l-17 16l15 17q7 6 24 23q76 73 135 132q52 54 166 162q187 163 334 166q151 0 219 -180
q16 -33 56 -265q27 -180 59 -292q38 -102 78 -144q76 -88 166 -88q107 3 235 125q209 212 410 582q269 488 370 960q42 205 50 264q49 331 24 494q-7 47 -4 76q8 40 35 55q20 12 61 19q34 0 56 -31q12 -24 12 -105q-3 -164 -70 -481q-52 -256 -133 -485
q-234 -678 -547 -1135q-293 -430 -495 -430h-21z" />
    <glyph glyph-name="X" unicode="X" horiz-adv-x="1636" 
d="M-197 -209q-25 0 -45 10q-73 28 -57 109q21 74 109 203q374 601 1015 1187l166 150q17 154 39.5 346.5t32 279t12.5 124.5q14 153 -4 204q-20 51 -14 86q12 43 59 78q48 33 98 33q60 0 103 -43q26 -37 20 -80q-6 -35 -34 -63q-13 -18 -70 -62l-68 -309q-43 -211 -49 -246
q-25 -137 -39 -223q-3 -13 -8 -51q42 30 51 37q1019 849 1393 849q115 -3 160 -69q37 -58 28 -109q-9 -36 -32 -53q-24 -18 -56 -18q-59 3 -104 57q-18 33 -45 33q-43 0 -162 -45q-317 -113 -692 -383q-398 -284 -559 -443q-36 -399 -33 -637q6 -322 115 -503
q62 -109 79 -123q9 3 31 14q67 31 92 31q37 -1 51.5 -25.5t6.5 -62.5q-15 -57 -78 -99q-59 -41 -121 -41l-41 7q-71 27 -125 163q-54 127 -72 310q-20 379 21 909l-119 -111q-635 -595 -862 -1069q-26 -51 -37 -98q-6 -26 -2.5 -36t18.5 -15q42 -30 31 -74q-8 -42 -59 -86
q-50 -35 -115 -45z" />
    <glyph glyph-name="Y" unicode="Y" horiz-adv-x="1949" 
d="M326 -502q-41 0 -57 30.5t-5 86.5q34 153 301 457q189 199 408 391q249 213 405 315q35 21 74 53q32 32 70 87q51 70 104 163q267 429 311 623q7 60 7 61t-1 1t-2 -0.5t-4 -0.5h-6q-90 0 -413 -280q-320 -272 -830 -797q-281 -290 -416 -405q-145 -121 -223 -121t-110 82
q-27 78 0 215q70 325 432 940q177 276 399 567q232 297 344 385q102 76 197 76q78 -3 113 -34.5t24 -84.5q-12 -52 -74 -74q-50 -20 -94 -20q-3 0 -35 -8q-86 -36 -344 -346q-426 -507 -688 -1037q-131 -261 -160 -405q-15 -75 -2 -101q3 -14 7 -19t12 -5q42 0 143 88
q152 129 487 477q292 306 469 475q183 174 363 320q303 262 426 262q71 0 96.5 -53t3.5 -156q-41 -189 -243 -526q-97 -154 -129 -205q-9 -12 -22 -30l-10 -12q0 1 1 3l-19 10l36 15l110 47q78 30 119 30q59 0 94 -30q43 -32 33 -78q-3 -33 -46 -60q-30 -24 -65 -24
q-26 0 -45 12q-12 6 -29 6q-26 0 -100 -39q-159 -78 -225 -133q-77 -67 -177 -200q-369 -476 -671 -758q-251 -236 -344 -236zM381 -373v-3l-1 -1q-4 9 -11 10q29 21 90 66q69 54 198 176q291 287 533 598q18 21 41 50q20 25 23 25q2 1 0 -9q-1 -4 -3 -11q-19 -19 -217 -178
q-312 -255 -506 -504q-138 -172 -147 -219z" />
    <glyph glyph-name="Z" unicode="Z" horiz-adv-x="2027" 
d="M309 0q-42 0 -58.5 18.5t-10.5 49.5q53 160 536 372q253 114 520 199q108 33 119 37q46 15 98 67q65 62 86 127q6 25 -15 42.5t-75 29.5q-135 33 -419 33h-56q-118 0 -160 10q-49 20 -43 59q23 62 232 181q421 242 725 495q350 292 385 461q11 44 -6 86q-5 32 -25 45
q-22 13 -84 27q-55 16 -131 16q-244 0 -561 -143q-333 -151 -637 -397q-145 -118 -262 -254q-149 -169 -164 -244q-4 -20 2 -28.5t29 -14.5q34 -12 59 -51q25 -37 21 -76q-12 -41 -68 -60q-54 -14 -92 -14q-30 0 -57 6q-154 50 -123 207q6 31 24 68q95 198 391 456
q305 261 656 445q460 238 799 250q68 0 161 -21q131 -36 176 -98q44 -72 23 -178q-13 -58 -39 -111q-22 -52 -70 -121q-129 -172 -421 -397q-302 -231 -664 -434q-33 -19 -76 -45q-37 -21 -37 -19l-8 15h178q274 0 385 -27q192 -48 162 -188q-12 -65 -100 -185q-1 0 -2.5 5
t-3.5 10.5t-4 7.5q16 3 79 18q166 39 281 39q130 0 172 -65q23 -45 16 -76q-20 -57 -98 -57q-29 0 -65 8q-33 10 -78 10q-105 0 -340 -49q-40 -7 -123 -29q-50 -13 -74 -29q-27 -12 -74 -43q-129 -87 -325 -194q-182 -101 -336 -166q-227 -86 -330 -86zM336 88q-6 18 4 18
q38 0 127 27q168 57 338 138t278 151l70 20q-215 -64 -360 -123q-195 -78 -316 -141q-111 -53 -141 -90z" />
    <glyph glyph-name="bracketleft" unicode="[" horiz-adv-x="1226" 
d="M145 -266q-87 0 -139 43q-131 117 -72 409q63 296 287 707q182 338 643 1038q229 351 238 391l2 5q-17 35 -12 65q15 58 86 105q64 45 116 45q55 0 78 -33q7 -7 39 -80q129 4 193 8q122 4 190 4q56 -3 78 -35t16 -61q-9 -41 -57 -68q-41 -18 -64 -18q-35 5 -67 16
q-34 15 -111 15q-16 0 -94 -4q-239 -15 -274 -25q-41 -47 -158 -213q-928 -1326 -1036 -1847q-50 -219 51 -285q37 -22 67 -22q34 0 72 32q58 43 102 43q35 0 51.5 -24.5t10.5 -65.5q-9 -38 -57 -80q-50 -41 -97 -55q-48 -10 -82 -10z" />
    <glyph glyph-name="backslash" unicode="\" horiz-adv-x="1171" 
d="M893 180q-19 8 -27 8q-32 0 -49 41q-16 26 -12 64q5 24 22 41q11 11 47 22q23 3 29 9q4 4 10 28q8 39 5 178q-9 129 -25 228q-80 382 -330 975q-18 47 -53 120q-15 34 -31 54q-4 6 -12 6q-72 0 -105 45q-32 41 -22 100q5 42 51 88q43 43 103 43q79 0 114 -78
q18 -51 10 -94q-4 -14 -10 -24q-1 -2 -2.5 -6t-2.5 -6.5t-1 -4.5q-1 -6 8 -55q14 -52 52 -158l114 -323q171 -456 238 -719q68 -278 37 -430q-15 -74 -52 -113t-92 -39h-14z" />
    <glyph glyph-name="bracketright" unicode="]" horiz-adv-x="1544" 
d="M371 -274q-55 0 -80 32q-15 20 -39 80q-129 -4 -191 -8q-122 -4 -190 -4q-57 3 -78 33q-22 36 -16 63q9 41 57 68q36 18 64 18q35 -5 67 -16q30 -15 111 -15q11 0 25 1t34.5 2t34.5 2q244 16 274 24q41 47 158 213q928 1326 1036 1845q48 224 -51 285q-42 25 -67 25
q-36 0 -72 -33q-58 -43 -102 -43q-36 0 -52 24t-10 66q10 40 57 78q45 42 97 55q44 12 82 12q86 0 141 -43q128 -120 70 -409q-63 -296 -287 -707q-182 -338 -643 -1038q-229 -351 -238 -391l-2 -4q16 -27 12 -66q-15 -57 -86 -104q-67 -45 -116 -45z" />
    <glyph glyph-name="asciicircum" unicode="^" horiz-adv-x="968" 
d="M276 938q-46 0 -67.5 21t-15.5 59q5 24 198 248q194 215 262 280q86 80 133 80q48 0 60 -63q10 -44 10 -152q-3 -255 64 -303q39 -29 30 -72q-3 -29 -37 -49q-35 -14 -59 -14q-59 0 -80 61q-9 40 -6 226q6 141 6 198q-2 29 -1 34t7 5q-12 0 -82 -76q-181 -209 -258 -364
q-66 -119 -164 -119z" />
    <glyph glyph-name="underscore" unicode="_" horiz-adv-x="1187" 
d="M4 201q-57 0 -100 32q-40 40 -29 93q14 39 49 63q30 21 107 21q17 0 75 -4q47 -7 95 -7q77 0 278 19q208 18 326 18q156 0 207 -30q68 -35 59 -84q-16 -75 -96 -78q-35 0 -72 26q-33 29 -88 37q-49 8 -160 8q-104 0 -245 -24q-135 -24 -263 -62q-86 -28 -143 -28z" />
    <glyph glyph-name="grave" unicode="`" horiz-adv-x="430" 
d="M467 1497q-27 0 -37 16q-14 20 -35 132q-35 202 -54 302.5t-26.5 124.5t-15.5 33q-7 7 -17 16q-8 9 -3 9q-19 0 -25 22q-4 10 0 33q10 44 45 64q33 26 70 26q29 0 49 -20q19 -22 10 -62q-8 -24 -16 -34q-11 -11 -11 -15q-1 -6 -1.5 -12.5t0.5 -18t3.5 -23l7.5 -34.5
t10.5 -46t15.5 -64t20 -82.5t25.5 -107t31.5 -132.5q3 -14 21 -35t16 -30q-6 -22 -33 -43q-29 -19 -51 -19z" />
    <glyph glyph-name="a" unicode="a" horiz-adv-x="1529" 
d="M666 494q-190 0 -246 129q-36 77 -33 270q4 93 2 108q-79 -49 -319 -225q-100 -74 -146 -74q-23 0 -35 19t-8 57q13 53 94 140q85 92 181 172q101 84 178 122q58 25 115 25q94 0 161 -49q75 -56 60 -121q-9 -45 -62 -80q-62 -34 -119 -31l-36 2q-13 -173 6 -249
q14 -62 63 -99q33 -26 96 -26q68 0 123 10q57 11 138 47q158 71 344 172q221 120 282 166q95 68 154 68q32 0 46 -19.5t9 -52.5q0 -2 -12 -37q-36 -55 -207 -147q-185 -95 -369 -170q-319 -127 -460 -127zM86 899q8 6 47 35.5t70 54.5q15 10 38 31q28 25 34 20q4 -4 4 -18
h22q-79 -55 -147 -107q-11 -9 -22.5 -20.5l-19.5 -19.5l-15.5 -15.5t-9.5 -7.5t-6 1.5t0 15t5 30.5z" />
    <glyph glyph-name="b" unicode="b" horiz-adv-x="1288" 
d="M-457 -166q-50 0 -71 37q-24 30 -13 78q3 20 29 57q3 5 17 31t32 60.5t37 72.5q107 225 344 573q102 148 105 166q0 2 4 -2q-24 24 -21 62q17 61 133 121q60 26 215 213q174 192 430 452q231 228 400 367q182 149 248 149q22 0 45 -20q20 -25 24 -41q9 -25 6 -41
q-13 -54 -178 -234q-382 -423 -985 -919q-131 -112 -162 -125q-25 -14 -47 -39q-45 -51 -164 -246q-37 -62 -51 -86q15 18 37 37q181 172 367 291q185 110 284 110q73 0 88 -51q5 -21 2 -90l119 60q128 62 254 106q128 41 193 41q65 -11 95 -37.5t23 -68.5q-10 -40 -51 -60
q-12 -12 -39 -12q-5 0 -45 10q-20 10 -59 10q-75 0 -191 -45q-49 -20 -364 -162l-74 -100q-96 -122 -231 -254q-130 -130 -254 -227q-125 -98 -176 -98q-37 0 -50 26q-7 15 0 66q6 31 31 67q17 25 76 97q105 114 266 245q160 136 289 221q49 26 78 52q25 25 39 53
q14 35 18 47q0 2 -1 5.5t-1 4.5q1 -4 0 -5t-12 -1q-51 0 -137 -41q-171 -82 -340 -233q-184 -158 -314 -340q-46 -63 -59 -90q-20 -34 -29 -82l-18 -113q-9 -50 -74 -90q-62 -35 -117 -35zM-88 47q-7 0 -15 10q-1 2 1 2q24 0 157 107q165 135 320 301q112 119 123 137
q8 -4 16 -16q2 -4 0 -4q-1 0 -5.5 -2.5t-17.5 -10t-26 -14.5q-144 -88 -371 -299q-166 -147 -182 -211zM442 1309q348 265 840 778l25 -33q-157 -94 -400 -325q-206 -194 -438 -451z" />
    <glyph glyph-name="c" unicode="c" horiz-adv-x="1349" 
d="M-37 285q-116 0 -162 69q-37 62 -18 168q42 181 246 449q64 87 153 166q106 92 178 92q68 0 109 -66q37 -60 18 -145q-16 -70 -77 -100q-64 -31 -99 -31q-47 0 -78 31q-35 32 -28 67q5 12 22 0q5 0 2 -2q-14 -9 -20 -14q-97 -78 -211 -228q-118 -156 -143 -256
q-12 -56 15 -79t105 -23q118 3 285 59q157 58 479 209q294 142 545 287q142 74 170 74q30 0 43 -23q17 -17 10 -49q-12 -45 -141 -113q-118 -63 -461 -217q-383 -170 -598 -245q-222 -80 -344 -80z" />
    <glyph glyph-name="d" unicode="d" horiz-adv-x="878" 
d="M12 -565q-64 0 -92 57q-39 53 -14 174q80 353 366 840q274 456 770 1096l35 49h45q-49 -34 -358 -308q-292 -252 -322 -290q-26 -35 -92 -84q-76 -58 -137 -113q-161 -143 -242 -143q-46 0 -67 37q-17 29 -8 81q16 71 141 216q214 243 330 243q38 0 65 -24l12 -6
q35 14 234 190q236 194 487 422q246 217 289 217q52 0 49 -49q-15 -48 -280 -367q-873 -1063 -1108 -1747q-50 -160 -64 -217q-9 -41 -13 -68.5t-3.5 -37t2.5 -9.5q7 0 31 15q50 24 69 24q27 0 49 -22q20 -23 17 -55q-12 -50 -76 -86q-59 -35 -115 -35z" />
    <glyph glyph-name="e" unicode="e" horiz-adv-x="1165" 
d="M2 582q-85 0 -122.5 40.5t-20.5 116.5q8 49 51 127q44 74 123 150q63 63 164 131q85 57 129 57q33 0 59 -22q20 -22 16 -66q-15 -67 -180 -235q-81 -94 -166 -88l-55 4q-12 3 -29 -25q-21 -27 -28 -53q-5 -22 12.5 -32t67.5 -11q54 0 133 18q108 23 692 211
q334 117 391 117q29 -3 42 -21t7 -47q-6 -35 -24 -53q-17 -17 -58 -29q-49 -20 -514 -137q-454 -113 -487 -121q-125 -32 -203 -32z" />
    <glyph glyph-name="f" unicode="f" horiz-adv-x="909" 
d="M-485 -293q-60 0 -97 37q-11 18 -22 70q-10 59 -19 59q-36 13 -59 61q-23 41 -16 86q8 37 65 107q64 74 131 133q72 60 137 160q250 399 873 1102q122 136 162 176q47 50 84 82q31 22 57 22q39 0 59 -26q32 -28 21 -64q-11 -46 -219 -366l-109 -172q-44 -75 -82 -93
q-33 -16 -78 -16q-39 0 -61 10q-36 9 -49 31v4q-20 0 -277 -326q-250 -315 -268 -364q-2 -2 -6.5 3t-7.5 11t-2 6q8 0 59 37q343 230 674 393q356 179 477 179q37 0 76 -25q39 -29 31 -68q-15 -73 -105 -73l-72 4q-140 0 -436 -137q-306 -146 -620 -363q-33 -23 -107 -76
q-36 -28 -51 -51q-28 -36 -41 -63q-46 -88 -63 -164q-1 -8 -1.5 -15l-1 -14t-0.5 -8q0 -8 -1 -10t-5 0q11 -6 31 -9q73 -22 107 -61t22 -92q-12 -65 -88 -94q-50 -23 -102 -23zM-612 2l-1 -4q1 4 -3 6q9 -6 10 -6q4 -2 12 -2q6 0 12 14q7 14 27 60q5 15 27 65q16 29 16 33
q2 15 14 -4q9 -14 4 -14q7 0 -24 -27q-17 -15 -64 -70q-30 -38 -30 -51z" />
    <glyph glyph-name="g" unicode="g" horiz-adv-x="1224" 
d="M-418 -608q-87 0 -125 63q-42 60 -18 176q43 192 235 428q206 247 482 465q283 228 604 402q126 69 145 94q18 34 31 86q9 44 7.5 61t-13.5 19q-19 -3 -121 -47q-208 -92 -217 -133q-9 -37 -55 -66q-52 -25 -97 -25q-44 0 -192 -77q-157 -80 -221 -80q-47 0 -70 33
q-23 37 -14 73q14 76 174 205q112 93 192 137q77 41 154 41q59 0 96 -30q40 -29 49 -72q-8 8 -10 8q18 0 82 37q194 108 266 108q49 0 65.5 -42.5t-1.5 -120.5q-12 -50 -23 -72q0 -2 -12 -43v10q-14 0 9 9q12 5 67 24q125 51 217 51q54 0 88 -24q37 -26 28 -68
q-12 -35 -36 -47q-24 -21 -64 -21l-27 7q-4 2 -26 2q-59 0 -148 -29q-83 -31 -182 -78q-206 -377 -219 -401q-119 -186 -193 -293q-242 -349 -487 -557q-251 -213 -420 -213zM-498 -383q-15 -72 2.5 -102.5t73.5 -32.5q159 0 410 219q332 282 651 821q177 293 192 342v-20
q12 0 12 -2.5t-40 -22.5q-13 -7 -55 -29t-70 -36q-74 -39 -137 -76l-107 -60q-222 -135 -416 -309q-202 -181 -344 -366q-146 -187 -172 -326zM104 872q0 3 -4.5 11t-9.5 8q14 0 131 57q61 27 74 43q15 10 20 31q0 1 1 3t1 3q-10 -6 -32 -20l-33 -21q-76 -53 -105 -76
q-31 -22 -43 -39z" />
    <glyph glyph-name="h" unicode="h" horiz-adv-x="1265" 
d="M-252 -152q-17 0 -55 19q-36 20 -39 61q-3 115 16 205q53 246 398 735q-50 29 -50 37q-14 18 -6 56q2 4 5.5 12t6.5 14.5t7 11.5q11 17 43 39q40 31 86 56q37 21 100 65q43 32 66 55l84 103q32 33 149 168q318 363 569 606q278 272 345 272q38 0 51 -32q14 -22 10 -58
q-18 -75 -428 -508q-612 -665 -842 -839q-49 -36 -92 -82q-102 -114 -235 -365q-110 -198 -134 -315q-6 -13 -18 -8q7 0 82 104q145 190 291 361q176 197 280 299q133 127 172 127q83 0 37 -232q-12 -86 0 -129q6 -28 22 -39.5t48 -11.5q61 0 209 96q143 95 274 195
q108 82 154 82q26 0 40.5 -17.5t10.5 -52.5q-5 -23 -88 -84q-39 -29 -193 -125q-278 -175 -403 -178q-82 0 -117 72q-29 62 -10 213q4 33 5 69t3 43q-16 -10 -37 -28q-29 -24 -116 -111q-65 -67 -117 -129q-153 -183 -254 -334q-77 -118 -152 -258q25 -22 29 -29
q9 -11 6 -51q-10 -39 -49 -78q-40 -40 -96 -61q-58 -21 -68 -21zM655 1481q10 14 26 33t46 51t52 55t72 75.5t79 82.5q67 71 161 173q85 91 91 93q5 0 -6 -22q-9 -18 -35 -62q-89 -86 -289 -295q-11 -11 -30 -31t-28 -29.5t-25 -26t-24 -24.5t-20.5 -20t-20.5 -18.5
t-17.5 -14t-17 -12.5t-14.5 -8z" />
    <glyph glyph-name="i" unicode="i" horiz-adv-x="909" 
d="M23 489q-51 -1 -76 39.5t-17 112.5q2 37 17 109q44 205 139 362q64 85 137 88l33 2q49 -3 82 -26q32 -28 35 -74q-7 -44 -35.5 -76t-73.5 -47q-31 -13 -86 -82q-48 -59 -106 -160q-52 -81 -64 -123q0 -15 7 -19.5t32 -4.5q76 3 189 45q87 41 387 201q284 159 346 170
q33 -3 48.5 -20.5t12.5 -43.5q-12 -61 -94 -86q-44 -18 -387 -172q-382 -176 -486 -192zM393 1518q41 112 195 127q56 -3 83 -27t21 -68q-17 -48 -61 -82q-45 -42 -133 -49q-56 3 -84 28.5t-21 70.5z" />
    <glyph glyph-name="j" unicode="j" horiz-adv-x="1034" 
d="M805 1616q-17 0 -49 14q-25 8 -47 35q-25 25 -21 66q9 42 62 77q55 37 116 37q58 0 87 -25.5t26 -72.5q-6 -37 -39 -70q-58 -61 -135 -61zM-760 -395q76 352 770 891q305 236 529 368l161 94l2 46q5 131 -22 189t-94 58q-84 0 -183 -61q-75 -41 -139 -98q-53 -59 -53 -68
q1 5 -6 10q4 2 8 2q29 0 55 -16q26 -21 37 -35q17 -24 14 -47q-13 -57 -75 -86q-64 -31 -144 -31q-55 0 -94 39q-44 40 -33 82q8 43 70 117q65 72 139 129q239 178 402 178q60 0 108 -33q39 -25 70 -110q17 -87 6 -183q-2 -29 -31 -53q-6 -5 0 -6h11q272 127 319 127
q48 0 88 -37q40 -40 29 -82q-12 -66 -78 -69q-26 0 -51 14q-15 10 -37 10q-25 0 -107 -33q-67 -26 -131 -57q-34 -15 -55 -43q-23 -31 -31 -66q-63 -172 -209 -393q-156 -240 -321 -422q-134 -140 -299 -278q-159 -133 -279 -203q-105 -51 -186 -57l-49 -4q-54 -3 -84 45
q-49 64 -27 172zM-700 -416q-14 -58 12 -82q28 -28 61 -28q29 0 105 26q128 47 329 207q215 174 377 361q277 315 418 616q44 87 47 113q0 3 10 -7q2 -2 3 -2q-19 0 -109 -53q-486 -273 -852 -616q-360 -335 -401 -535z" />
    <glyph glyph-name="k" unicode="k" horiz-adv-x="1087" 
d="M-440 -250q-119 0 -95 174q35 159 209 443q127 206 336 473l70 86l-12 12q-5 4 -21 25q-11 18 -8 45q8 28 57 67q50 39 137 99q64 42 95 71q74 62 323 338q228 247 310 326q69 66 110 69q41 0 62 -30q25 -25 18 -66q-10 -40 -137 -188q-106 -129 -299 -332
q-167 -179 -318 -315q-151 -142 -209 -142q-8 0 -129 -147q-365 -469 -446 -754l-27 -92q14 -8 27 -17.5t20 -14t9 -5.5q20 -17 14 -57q-9 -26 -35 -49q-25 -19 -61 -19zM0 618q23 105 399 390q66 52 111 82q46 29 65 34q25 11 54 11q72 0 108 -48q43 -46 31 -92
q-4 -21 -16 -37q-11 -17 -52 -32q-35 -16 -96 -21q-151 -19 -368 -149q-150 -85 -156 -121q-1 -4 5 -6q10 -2 52 -2q95 0 281 57q201 59 373 131q174 69 268 137q70 49 110 49q24 0 36.5 -17t8.5 -48q-9 -33 -51 -59q-39 -26 -135 -64q-116 -43 -283 -102
q-472 -170 -645 -170q-53 0 -79.5 20t-20.5 57z" />
    <glyph glyph-name="l" unicode="l" horiz-adv-x="1091" 
d="M-213 35q-78 0 -113 63q-40 57 -14 185q15 74 72 190q326 649 1220 1401q235 197 281 197q36 0 51.5 -20t9.5 -54q-22 -91 -229 -324q-217 -241 -457 -489q-185 -194 -229 -213q-26 -13 -72 -13q-52 0 -74 15q-15 12 -38 45q-422 -517 -476 -778q-13 -60 3.5 -84.5
t70.5 -24.5q231 0 1104 684q122 94 187.5 137t91.5 43q45 0 36 -61q-4 -20 -49.5 -56.5t-142.5 -103.5l-465 -321q-305 -211 -493.5 -314.5t-274.5 -103.5zM422 1266l-121 -80q141 99 289 233q170 154 231 217l266 277l27 -31q-156 -113 -348 -283q-182 -162 -344 -333z" />
    <glyph glyph-name="m" unicode="m" horiz-adv-x="1597" 
d="M-297 225q-55 0 -82.5 25t-21.5 74q7 34 90 161q16 23 276 389q275 382 281 433q28 70 80 116q54 45 118 45q55 0 81 -24t20 -68q-17 -58 -90 -114q-98 -79 -254 -267q-178 -214 -252 -331q-11 -20 -15 -21q-6 2 -6 35l-18 -19q244 224 360 312q186 139 258 149
q39 2 49 -48t-8 -157q-12 -49 -16 -90q0 -8 2 -8q28 0 272 158q112 74 146 74q42 0 112 -93q54 -65 86 -71q19 -8 64 -8q59 0 235 73q149 62 185 62q41 0 55 -25q16 -21 12 -53q-11 -33 -32 -49q-27 -18 -246 -70q-137 -32 -195 -37q-106 0 -202 107q-51 65 -72 65
q-24 0 -268 -149q-106 -70 -156 -70q-51 0 -57 57q-8 41 12 136q5 26 8 48t3.5 31.5t2.5 12.5q-13 -4 -43 -23q-182 -120 -350 -297q-169 -178 -227 -315q-69 -156 -197 -156z" />
    <glyph glyph-name="n" unicode="n" horiz-adv-x="1345" 
d="M-332 213q-40 0 -53 16q-15 18 -12 58q0 36 8 67q15 75 88 187q75 112 266 348q256 316 326 448q31 61 84 107q55 39 102 39q35 0 74 -27q36 -26 29 -74q-15 -66 -172 -217q-177 -180 -404 -444q-172 -210 -188 -260q-4 -7 -15 5q-7 7 -2 7q10 7 37 27q39 27 90 75
q56 52 244 209q135 112 229 183q108 83 133 92q40 14 54 14q33 0 55 -43q19 -39 16 -100q-3 -99 2 -142q5 -40 35 -58.5t94 -18.5q91 0 242 59q141 55 264 148q83 67 113 67q17 0 27 -10q36 -26 28 -64q-11 -59 -141 -129q-113 -58 -268 -106q-148 -45 -256 -45
q-123 0 -168 63q-45 55 -35 199v70q0 16 -2 20q-2 0 -2 2q-36 -5 -182 -115q-160 -124 -316 -280q-150 -153 -192 -232q-18 -32 -78 -92q-77 -53 -154 -53z" />
    <glyph glyph-name="o" unicode="o" horiz-adv-x="1046" 
d="M-8 504q-42 0 -82 49q-35 52 -16 141q24 122 165 336q88 130 88 152q20 60 72 92q50 24 94 24q50 -7 74 -26q25 -13 37 -15q6 0 43 11q47 14 80 14q67 -6 94.5 -46t13.5 -110q-35 -114 -133 -247q-5 -6 -11 -13t-9.5 -11t-6.5 -7.5t-4.5 -5t-1.5 -0.5l-14 14q35 9 98 25
q59 14 205 53q84 22 193 55q100 33 151 33q46 0 52 -29q3 -16 -3 -57q-12 -41 -53 -53q-42 -13 -135 -29q-145 -29 -227 -43q-197 -33 -213 -35q-70 -10 -92 -16q-32 -8 -43 -17q-20 -10 -35 -30q-97 -90 -201 -148q-116 -61 -180 -61zM18 649q-2 -6 -1 -8.5t2 -3t6 -0.5
q49 0 122 43q11 7 43.5 29.5t51.5 33.5l16 2q-77 3 -170 39l-8 -16q-7 -9 -37 -63q-4 -9 -10 -21t-9.5 -20.5t-5.5 -14.5zM141 856q3 3 11 0q38 -12 196 -18l51 51q59 62 103 129q44 72 59 119l4 14q-20 4 -45 4q-31 0 -98 -18q-47 -20 -86 -56q-32 -32 -80 -90
q-44 -44 -82 -92q-31 -39 -33 -43z" />
    <glyph glyph-name="p" unicode="p" horiz-adv-x="1093" 
d="M-686 -528q-39 0 -57 28q-18 26 -2 117q71 322 475 901q125 184 161 264q20 45 54 84q38 48 41 68q12 49 131 139q117 97 278 262q195 198 267 262q89 80 129 80q33 -1 48 -20.5t9 -50.5q-15 -67 -176 -242q-69 -78 -97 -117t-38 -80q-3 24 -7 37.5t-13 19t-15.5 6.5
t-24.5 1q176 67 268 67q82 0 113.5 -50.5t11.5 -147.5q-1 -6 -14 -45l2 4q85 26 107 33q52 10 102 10q80 0 123 -43q41 -62 31 -107q-18 -65 -99 -65q-44 0 -65 41q-3 11 -11.5 14.5t-31.5 3.5q-48 0 -154 -28q-55 -12 -88 -33q-24 -13 -45 -47q-106 -142 -307 -322
q-325 -278 -467 -278q-48 0 -68 41q-16 36 -10 73q9 33 62 113q88 127 276 260q205 145 418 242q116 55 145 65q3 6 6 27q15 72 6 90q-11 14 -40 14q-54 0 -150 -35q-90 -38 -192 -102q-85 -61 -146 -131q-68 -71 -74 -98q-9 -41 -53 -82q-46 -43 -96 -43l-55 4q-8 4 -29 4
q-268 -373 -385 -582q-110 -186 -170 -420q-4 -18 -4 -28q0 1 -4 4l-2 2q23 0 39 -23q4 -8 12 -28q6 -16 6 -37q-4 -23 -29 -43q-25 -25 -47 -37q-29 -16 -55 -16zM-53 344q0 -2 20 -2q118 0 408 244q166 137 303 301q4 3 10 -10q9 -17 2 -17q-11 0 -67 -20
q-204 -86 -385 -209q-175 -121 -261 -238q-30 -43 -30 -49z" />
    <glyph glyph-name="q" unicode="q" horiz-adv-x="956" 
d="M-129 -678q-54 0 -92 41q-22 22 -27 41q-9 20 -2 61q13 72 17 95q35 171 182 401q148 236 477 651q466 589 481 674q3 12 16 -1q9 -9 3 -11q-12 0 -66 -29l-264 -151q-31 -135 -49 -168q-17 -37 -68 -62q-45 -22 -94 -22t-84 28q-8 0 -94 -51q-127 -86 -195 -86
q-41 0 -60 27.5t-11 77.5q15 67 127 194q114 126 237 221q132 105 213 105q45 0 82 -29q40 -32 31 -76q-1 -6 -3 -2q-4 7 -7 6q20 13 71 43q201 132 289 132q40 0 59 -25q21 -24 7 -98q-17 -71 -117 -213q-78 -118 -344 -443q-295 -367 -402 -518q-130 -176 -196 -311
q-53 -100 -88 -242q-12 -66 -2 -76q5 -16 41 -18q46 -6 66.5 -25.5t14.5 -48.5q-6 -20 -30 -43q-30 -23 -56 -33q-37 -16 -63 -16zM143 944q227 135 230 189q1 8 9 -8q5 -13 7 -13q-23 0 -221 -201z" />
    <glyph glyph-name="r" unicode="r" horiz-adv-x="942" 
d="M-178 354q-36 0 -55 19q-10 17 -23 78q-6 53 0 88q15 64 358 522q110 144 131 207q19 52 58 88q56 47 117 47q51 0 90 -31q37 -37 26 -90q-9 -31 -43 -65q-33 -38 -71 -50q-28 -21 -54 -45q-98 -94 -211 -239q-141 -182 -155 -219l-8 14q-20 0 9 26q10 9 39 33
q51 41 81 68q185 167 276 237q117 91 148 91q66 0 90 -74q7 -19 13 -48t11 -49t13 -28q33 -34 77.5 -47t89.5 0q40 9 101 63q57 51 88 51q24 0 49 -28q17 -27 14 -55q-11 -46 -108 -97q-90 -47 -217 -47q-220 0 -236 264q-254 -192 -428 -407q-50 -66 -53 -92q-2 -6 -6 -47
q-15 -60 -78 -101q-69 -37 -133 -37z" />
    <glyph glyph-name="s" unicode="s" horiz-adv-x="948" 
d="M-592 -287q-49 3 -73 31t-19 74q16 80 80 159q77 96 276 252q214 165 398 279l153 94q-33 33 -47 51q-157 177 -143 244q27 131 123 238q85 94 163 112q82 0 123 -20q23 -12 32.5 -39t2.5 -62q-11 -56 -139 -98q-180 -73 -207 -149q-3 -22 21 -56q15 -23 151 -176
q566 359 694 359q47 0 70.5 -20.5t17.5 -57.5q-11 -58 -133 -90q-33 -7 -188 -74q-113 -50 -252 -123q-130 -65 -160 -86l2 4q-2 -7 6 -39q8 -51 -6 -131q-27 -98 -90 -186q-100 -126 -299 -260q-322 -212 -557 -230zM-627 -178q-2 -12 7 -17t36 -6l21 2q24 2 114 23
q248 80 474 254q224 166 268 301q9 58 2 92q-5 29 -16 37q-48 -13 -183 -88q-315 -173 -538 -377q-140 -126 -185 -221z" />
    <glyph glyph-name="t" unicode="t" horiz-adv-x="626" 
d="M-453 -551q-17 0 -55 19q-31 19 -53 65q-19 40 -10 105q55 244 194 495q127 229 455 686q-43 9 -70 21q-41 24 -35 82q11 50 123 131q187 143 633 589q56 56 119 118t70 69q-150 -18 -236 -31q-828 -113 -938 -162q-30 -16 -45 -34q-29 -30 -47 -37q-29 -11 -94 -11
q-68 0 -109 41q-41 45 -33 82q9 44 68 74q58 28 166 31q80 3 712 80q588 69 660 84q406 419 474 482q61 58 67 50q38 -12 32 -63q-9 -48 -211 -265q-168 -182 -190 -200l-11 11q0 1 3 1q23 0 125 10q708 77 1233 80q168 0 229 -10q89 -18 132 -44.5t34 -66.5
q-10 -26 -25 -43q-21 -24 -59 -24q-33 0 -82 14q-134 41 -440 41q-367 -6 -867 -37q-304 -20 -354 -35q-10 -8 -115 -116q-479 -504 -684 -756q-154 -187 -346 -469q-151 -216 -282 -453q-96 -178 -127 -319q-18 -85 -11 -107q1 -9 4.5 -11.5t12.5 -2.5l53 6
q41 0 60.5 -20.5t13.5 -57.5q-4 -23 -27 -43q-22 -22 -59 -35q-32 -14 -58 -14z" />
    <glyph glyph-name="u" unicode="u" horiz-adv-x="1171" 
d="M74 670q-41 0 -66 28q-50 50 -28 166q7 36 45 142q57 146 79 176q19 27 68 45q36 16 82 16q53 0 82 -29q31 -31 22 -67q-13 -49 -67 -103q-56 -56 -88 -116q-43 -64 -53 -105l-3 -6q-8 2 -18 2q10 0 260 187q187 139 205 139q9 0 24 -10q16 -12 19 -27q8 -14 4 -47
q-20 -56 -35 -88q-10 -23 -31 -84q-6 -33 23 -49t104 -19q79 0 207 35q140 41 193 74q71 41 117 41q38 0 53 -33q10 -21 6 -47q-16 -55 -117 -92q-91 -36 -219 -58q-115 -22 -229 -22h-8q-123 0 -176.5 60.5t-32.5 158.5l4 16l18 -10q-16 0 -151 -115q-199 -159 -293 -159z
" />
    <glyph glyph-name="v" unicode="v" horiz-adv-x="1124" 
d="M57 379q-71 1 -81.5 122.5t32.5 350.5q34 190 37 238l6 38q16 69 74 99q62 30 104 30q46 -3 76 -36q33 -33 27 -76q-9 -34 -53 -90q-35 -57 -111 -269q-40 -105 -64 -208q-10 -46 -6 -58h-4q19 0 258 211q348 304 554 452t286 148q51 0 74 -22.5t16 -65.5
q-19 -82 -111 -82q-71 0 -319 -170q-275 -189 -475 -370q-164 -150 -209 -185q-77 -57 -111 -57z" />
    <glyph glyph-name="w" unicode="w" horiz-adv-x="1486" 
d="M25 406q-64 0 -86 61q-24 53 -5 147q16 85 58 187q13 38 80 227q36 91 53 129q11 30 65 60q54 26 101 26q48 0 88 -37q43 -40 31 -82q-10 -37 -37 -59q-25 -22 -84 -49q-43 -21 -105 -101q-78 -96 -123 -180q-58 -101 -69 -157q-8 -37 6 -66q12 -23 31 -23q25 0 82 35
q71 36 335 303q226 235 306 279q48 20 84 20q63 0 92 -39q30 -42 20 -79q-11 -48 -80 -107q-104 -78 -137 -239q-2 -10 -2.5 -19.5t-0.5 -14.5t-1 -7h6q157 0 510 409q103 114 162 170q64 57 98 57q25 0 49 -24q17 -22 13 -53q-15 -63 -162 -201q-493 -467 -664 -467
q-33 0 -59 20q-47 33 -47 109q0 57 22 221q-453 -374 -557 -440q-36 -16 -73 -16z" />
    <glyph glyph-name="x" unicode="x" horiz-adv-x="1335" 
d="M-117 31q-55 0 -86 51q-20 39 -18 59q0 6 8 56q13 60 31 104q22 57 141 223q112 150 119 168q0 21 -10 113q-13 93 -29 166q-11 78 -21 104q-16 24 -12 62q21 98 156 129l31 2q54 -2 81 -30t21 -79q-9 -43 -33 -61q-21 -36 -63 -232q-4 -18 -6 -34t-2.5 -24.5t-1 -15.5
t-2.5 -9.5t-6 -3.5t-13 -1q-1 0 6 6.5t26 25t40 40.5q365 338 419 371q41 20 93 26q55 -3 86 -39q36 -39 36 -88q-21 -108 -182 -108q-58 0 -94 -19q-71 -38 -203 -139q-197 -156 -213 -207q-3 -66 49 -115t134 -49h18q237 0 852 406q140 96 166 100q32 1 51 -19t21 -55
q-15 -47 -66 -67q-49 -18 -344 -180q-228 -123 -373 -189q-119 -55 -203 -69q-61 -9 -135 -9q-104 0 -155 48q-38 41 -78 135l-6 10q-1 -1 -4.5 -4t-4.5 -4q-5 -4 -10.5 -10t-12.5 -15t-13 -16q-22 -24 -66 -84q-43 -61 -59 -94t-35 -111q-2 -12 -4 -23.5t-3 -18t-1 -9.5
q-2 -6 0 -8q6 -6 20 -13q63 -31 60 -78q-14 -59 -78 -75h-19z" />
    <glyph glyph-name="y" unicode="y" horiz-adv-x="1525" 
d="M-246 -618q-99 0 -139 54.5t-18 157.5q50 234 405 578q336 334 821 614q87 49 119 72q32 22 35 45q6 19 -10 55q-8 39 -34.5 55.5t-82.5 16.5q-165 0 -516 -196q-266 -136 -299 -136q-40 0 -56.5 29t-5.5 80q23 113 166 350q58 92 107 113q47 18 92 18q51 0 88 -26
q37 -27 31 -78q-10 -38 -47 -72q-39 -39 -70 -39q-15 0 -78 -57q-76 -69 -131 -135q-59 -68 -63 -93q-2 -7 -10 7q-6 12 -1 12q38 0 211 96q415 221 584 221q75 0 115 -37q36 -33 51 -79q16 -54 18 -78q0 -6 1 -13t1 -8q36 8 113 43q125 54 209 76q102 27 158 27
q51 -6 94 -45q41 -41 33 -78q-2 -25 -31 -49q-24 -17 -53 -17t-52 13q-26 20 -75 20q-45 0 -148 -33q-111 -31 -205 -75q-48 -22 -57 -33q-8 -8 -14 -37q-30 -139 -170 -379q-145 -243 -299 -428q-208 -239 -422 -385q-214 -147 -365 -147zM-340 -428q-9 -42 -6 -53
q7 -18 14 -25q27 -31 74 -31q29 0 104 21q244 91 516 360q282 279 459 605q111 201 131 299q4 17 16 3q8 -12 3 -14q-13 0 -88 -41q-473 -246 -830 -592q-353 -340 -393 -532z" />
    <glyph glyph-name="z" unicode="z" horiz-adv-x="1118" 
d="M-520 -426q-47 6 -82 37q-73 67 -51 194q54 182 379 469q126 107 315 234q223 147 340 201l70 32q-156 37 -168 45q-21 21 -13 52q17 54 115 159q41 41 111 123q24 30 36 51q-24 -8 -49 -18q-175 -72 -202 -127l-13 -61q-34 -78 -153 -78q-102 9 -117 106q0 23 4 51
q25 70 145 136q108 59 252 108q128 47 207 47q50 -1 70.5 -31t11.5 -81q-21 -88 -194 -238q-127 -118 -127 -123q-1 -3 4 -2q48 7 80 5q9 0 18 -1q48 -8 96 -22q41 -13 58 -13q20 0 125 31q174 55 276 55q56 -8 94 -34q38 -38 29 -66q-18 -72 -168 -78q-105 -3 -279 -55
q-14 -47 -14 -57q-2 -4 -7.5 -23.5t-10.5 -28.5l-27 -77q-143 -425 -612 -727q-317 -197 -508 -197zM-578 -203q-10 -43 11 -78q10 -26 24 -34q26 -16 105 -19q44 0 106 19q210 59 428 213q205 146 353 342q116 164 157 335q10 56 6 68q-37 -8 -166 -59q-423 -192 -698 -410
q-273 -218 -326 -377z" />
    <glyph glyph-name="braceleft" unicode="{" horiz-adv-x="1218" 
d="M12 -307q-93 0 -131 69q-25 52 -10 138q33 144 264 589q93 177 150 306l12 8q-61 -45 -102 -45t-54 37q-8 21 -4 57q8 37 62 106q113 125 200 125l35 -4q6 0 10 2q3 4 14.5 15.5t18.5 19.5t29 35t37 45q297 376 555 899q76 159 131 240q60 85 96 108q47 29 78 29
q75 0 102 -84q21 -63 11 -123q-24 -113 -160 -113h-31q-21 0 -27 -2q-6 0 -16 -18l-94 -170q-228 -427 -600 -875q-110 -136 -139 -217q-30 -90 -168 -325q-288 -473 -318 -621q-10 -51 0.5 -69.5t48.5 -18.5q68 0 181 76q94 63 149 63q42 0 59 -30q15 -24 11 -51
q-12 -53 -105 -103q-70 -41 -166 -74q-73 -24 -129 -24z" />
    <glyph glyph-name="bar" unicode="|" horiz-adv-x="1355" 
d="M6 -201q-64 0 -86 54t0 155q71 335 1014 1647l244 338q142 201 159 256q35 96 107 159q75 66 137 66q27 0 53 -29q39 -51 27 -104l-8 -17q-58 -151 -158 -186q-39 -6 -309 -358q-452 -577 -715 -983q-329 -513 -385 -777q-5 -16 16 -40q38 -38 27 -82q-9 -44 -57 -74
q-39 -25 -66 -25z" />
    <glyph glyph-name="braceright" unicode="}" horiz-adv-x="1267" 
d="M-14 -307q-74 0 -103 86q-21 65 -12 121q12 56 54 85t108 29l28 -2q13 0 29 4q5 0 21 19l90 170q221 411 600 874q110 138 139 217q32 96 170 326q290 486 317 621q9 49 -3 68.5t-50 19.5q-65 0 -178 -76q-94 -64 -149 -64q-43 0 -60 31q-14 22 -10 51q11 46 106 103
q67 38 164 71q77 25 129 25q96 0 133 -70q23 -50 7 -135q-29 -145 -263 -590q-116 -226 -147 -303l-14 -10q61 45 102 45q39 0 51 -35q13 -24 6 -61q-9 -40 -61 -105q-110 -125 -201 -125l-37 4q-4 0 -8 -4l-10 -11l-21 -21q-36 -41 -67 -80q-299 -383 -553 -899
q-78 -163 -133 -240q-53 -80 -97 -108q-43 -31 -77 -31z" />
    <glyph glyph-name="asciitilde" unicode="~" horiz-adv-x="1376" 
d="M412 705q-59 0 -76 36q-42 54 -23 150q13 56 60 145q25 48 76 76q52 27 102 27q57 0 98 -35q43 -40 31 -86q-10 -46 -51 -74q-40 -34 -103 -43q-41 -6 -62 -23.5t-28 -54.5q-2 -3 -1 -3.5t5 -0.5q48 0 232 78q358 141 514 141q47 0 71 -18q26 -23 29 -76q3 -44 -8 -102
q-14 -56 -41 -94q-25 -25 -63 -25q-34 0 -50.5 16t-11.5 41q9 38 55 84q40 40 43 62q3 11 -5 14.5t-38 3.5q-128 0 -508 -160q-178 -79 -247 -79z" />
    <glyph glyph-name="exclamdown" unicode="&#xa1;" horiz-adv-x="1267" 
d="M1374 2353q-48 0 -71 29q-26 26 -19 80q12 51 74 88q58 33 112 33q41 0 70 -19q35 -20 29 -70q-9 -33 -35 -63q-27 -35 -76 -55q-56 -23 -84 -23zM51 174q9 42 35 72q28 28 76 47q47 23 217 229q174 210 403 533q245 335 381 577q114 214 168 420q8 29 -16 53
q-31 46 -25 84q10 42 47 56q32 18 58 18q40 0 71 -47q30 -47 15 -125q-12 -58 -51 -141q-63 -177 -203 -406q-143 -234 -457 -674q-129 -181 -274 -393q-98 -147 -125 -196q-32 -51 -39 -84v-9q-24 -125 -170 -137q-59 0 -88 31.5t-23 91.5z" />
    <glyph glyph-name="cent" unicode="&#xa2;" horiz-adv-x="925" 
d="M244 -184q-101 0 -92 217q5 91 32 231q4 17 6 33t2.5 24.5t1 15.5t2.5 9.5t5.5 4t11.5 1.5q-13 0 -28.5 12t-49.5 44q-91 123 -47 323q44 209 219 457q37 48 101 112q151 148 196 148q8 0 19 20q107 245 133 342q25 71 43 111q25 48 59 70q58 37 115 37q61 0 88 -35
q29 -31 22 -76q-14 -57 -131 -129q-48 -45 -157 -244q-41 -67 -45 -88l-1 -4l-1 1l-5 7q3 -3 19 -6q25 -8 53 -43q39 -44 55 -76q25 -55 27 -78l-4 -32q-18 -74 -92 -119q-60 -29 -96 -29q-100 0 -72 156l12 51q5 22 20 22q2 0 3 -1q-1 0 -16.5 -31.5t-50.5 -110t-77 -178.5
q-30 -71 -67 -176q-47 -117 -74 -211q-37 -109 -41 -133q-1 -1 0 -1q5 1 16 1q31 0 86 37q61 44 86 86q51 63 103 63q40 0 55.5 -24t7.5 -64q-10 -43 -69 -102q-60 -60 -121 -96q-69 -34 -197 -43q-22 -225 -22 -269q0 -71 20 -96q30 -49 23 -76q-7 -29 -31 -45
q-23 -20 -55 -20zM172 686q-33 -147 47 -197l21 -12l41 115q87 259 178 483q76 198 76 199q20 0 22 -3t-10 -14q-12 -9 -58 -49q-119 -113 -202 -250q-89 -145 -115 -272z" />
    <glyph glyph-name="sterling" unicode="&#xa3;" horiz-adv-x="919" 
d="M-29 190q-22 0 -37 21q-12 15 -8 41q8 30 103 133q149 155 213 283h-4q-59 0 -99 37q-42 38 -39 83q7 33 52 62q31 31 71 31q33 0 47 -2q4 -1 14.5 -3t22 -3.5t23.5 -2.5q18 0 27.5 11.5t13.5 38.5q0 -6 -37 -2q-54 10 -84 40q-36 36 -27 76q1 4 23 35q18 21 43 39
q27 18 57 18q29 0 43 -2q16 -3 51 -6q19 0 23 2l3 6q4 5 5 9q183 427 236 493q54 66 122 66q53 0 91 -47q29 -37 47 -99q14 -54 8 -94q-13 -48 -55 -80q-37 -37 -86 -37q-26 0 -50 6q-8 1 -28 4.5t-31 4.5q-4 0 -17 -20.5t-37.5 -69.5t-54.5 -117l35 -8q91 -33 76 -107
t-135 -74q-45 0 -55 -2q-12 -3 -15 -6q-6 -6 -18 -33q-17 -30 -21 -43q-10 -17 -10 -22v6t1.5 6.5t4.5 7.5t9.5 4.5t15.5 2.5l69 4q52 0 76.5 -21.5t16.5 -60.5q-27 -88 -134 -88h-12q-135 0 -153 -49q-90 -146 -148 -244q53 8 127 26q207 52 275 52q38 0 55.5 -20.5
t9.5 -55.5q-9 -51 -51 -70q-51 -20 -119 -28q-339 -49 -434 -93q-80 -39 -111 -39z" />
    <glyph glyph-name="currency" unicode="&#xa4;" horiz-adv-x="1345" 
 />
    <glyph glyph-name="yen" unicode="&#xa5;" horiz-adv-x="1005" 
d="M379 25q-44 0 -62.5 27.5t-9.5 74.5q26 127 178 457l19 41q0 -7 4.5 -13t9.5 -6q-14 0 -69 -24q-92 -37 -138 -37q-54 3 -82 35q-25 32 -22 69q15 74 94 99q78 23 254 49l29 6q114 225 252 483q-4 -4 -13 -12.5t-14 -13.5q-316 -328 -473 -328q-122 0 -125 182
q8 90 59 330q8 44 23 110t16 70q12 34 64 68q53 32 86 32q42 0 90 -45q47 -47 37 -102q-12 -67 -97 -96q-9 -3 -24 -15q-16 -13 -45 -96q-42 -105 -58 -182q-26 -115 13 -115t155 96q130 108 273 263q132 140 153 161q44 47 84 82q39 29 58 25q21 -11 28 -19q11 -14 13 -26
q0 -22 -4 -31q-8 -34 -113 -203q-139 -226 -219 -374q-100 -185 -109 -230q-7 -24 -18 -9q-9 12 -2 15q129 21 182 21q67 0 96.5 -24.5t20.5 -69.5q-12 -39 -58 -68q-47 -29 -98 -29l-37 2q-151 0 -180 -43q-22 -39 -74 -213q-34 -134 -43 -174q-10 -50 -12 -71
q0 -33 -6 -54q-16 -75 -86 -75z" />
    <glyph glyph-name="brokenbar" unicode="&#xa6;" horiz-adv-x="565" 
 />
    <glyph glyph-name="section" unicode="&#xa7;" horiz-adv-x="20527" 
d="M2075 -367q-101 0 -144 117q-45 104 0 316q43 212 209 561q177 368 570 1052q67 118 235 424q76 142 111 230q27 71 47 157q4 8 8 9l-2 -2q-43 0 -305 -216q-159 -133 -367 -354q-149 -161 -495 -569q-199 -241 -302 -338q-115 -109 -180 -109q-100 0 -112 179
q-6 29 -2 63q0 27 10 92q5 34 69 338q72 330 88 422q16 87 13 109q0 8 2 8q-9 0 -66 -49q-61 -48 -149 -129q-92 -82 -158 -148q-216 -230 -422 -491q-200 -252 -338 -482q-78 -135 -131 -245q-67 -147 -74 -185q-4 -16 -2 -16q49 0 73 -23t18 -63q-11 -54 -101 -103
q-65 -26 -121 -26q-55 0 -80 28t-14 78q8 45 49 146q169 387 516 854q339 452 760 846q181 161 271 161q72 0 93.5 -73.5t-7.5 -214.5q-25 -111 -60 -224q-48 -162 -96 -383q-52 -239 -41 -293q4 -35 9.5 -45t17.5 -10q33 0 129 105q134 151 303 358q575 714 927 985
q208 166 306 166q53 0 75 -51q17 -44 4 -117q-14 -69 -90 -221q-88 -166 -252 -453q-377 -652 -567 -1038q-179 -361 -231 -600q-20 -97 -25 -166q-6 -98 10 -147q14 -45 54 -62q82 -33 69 -84q-6 -32 -41 -53q-32 -21 -71 -21zM2515 635q23 119 172 344q90 143 92 160
q21 66 70 94q57 24 98 24q52 -7 76 -26q22 -11 37 -14q15 0 45 10q54 14 84 14q67 -6 95.5 -47.5t14.5 -112.5q-35 -116 -137 -256l-35 -39l-14 15q7 0 102 26q82 17 213 56q84 21 199 55q101 35 156 35h-4q177 232 227 325q39 71 88 111q51 39 102 39q42 0 76 -27
q39 -23 31 -75q-16 -75 -178 -224q-215 -221 -416 -458q-177 -213 -195 -271q-3 -7 -14 5q-7 8 -2 8q10 5 39 28q35 24 92 78q77 71 252 215q127 106 238 188q111 87 137 97q40 14 53 14q38 0 57 -47q20 -38 17 -100q0 -115 2 -146q5 -42 37 -62t98 -20q93 0 250 62
q152 62 270 151q39 31 68 49q36 86 78 154q66 87 139 90l33 2q57 -4 86 -29q34 -27 34 -73q-7 -45 -36 -78.5t-74 -48.5q-33 -11 -92 -86q-64 -84 -109 -164q-49 -80 -63 -127q-2 -15 6.5 -21t34.5 -6q82 3 194 47q74 34 397 207q271 150 334 170q32 32 68 56
q194 149 653 608q43 44 84 84.5t71 69t40 38.5q-73 -6 -244 -30q-854 -117 -969 -168q-29 -15 -47 -35q-28 -31 -53 -39q-23 -10 -92 -10q-68 0 -111 43q-43 46 -35 84q12 43 72 75q54 28 170 31q62 2 735 82q631 75 680 88q420 429 461 469q91 89 98 80q38 -15 33 -66
q-9 -44 -217 -272q-181 -194 -197 -207q-12 12 -11.5 12.5t3.5 0.5q24 0 129 10q719 79 1272 82q168 0 238 -11q92 -18 135.5 -45.5t34.5 -66.5q-4 -21 -25 -45q-22 -25 -59 -25q-31 0 -86 15q-133 43 -455 43q-427 -6 -895 -39q-316 -20 -365 -35q-2 -1 -118 -121
q-480 -503 -707 -780q-152 -184 -358 -486q-160 -229 -291 -467q-103 -187 -131 -329q-18 -86 -12 -111q2 -9 5 -11.5t13 -2.5l55 6q41 0 61.5 -21.5t14.5 -58.5q-4 -26 -31 -47q-26 -23 -59 -33q-32 -14 -57 -14q-13 0 -58 18q-28 17 -55 66q-17 38 -10 108q60 261 200 512
q134 239 469 709q-43 9 -69 22q-6 6 -8 7q-123 -54 -379 -168q-391 -182 -500 -199l-43 -2q-53 -1 -77.5 40.5t-18.5 115.5q8 72 18 112l8 31q27 9 26 6q-1 -1 -3 -2q-112 -57 -281 -111q-158 -47 -264 -47q-120 0 -174 66q-44 62 -35 205q2 17 2 71q0 19 -2 23q-2 0 -2 2
q-37 -5 -188 -119q-171 -131 -326 -289q-149 -149 -203 -239q-18 -38 -77 -94q-77 -56 -160 -56q-42 0 -53 19q-16 24 -13 55q0 31 6 72q16 69 93 190q85 123 276 361l-23 -29q16 1 16.5 0t-24.5 -6q-11 -2 -98 -19.5t-137 -25.5q-198 -32 -219 -35q-70 -10 -95 -19
q-31 -7 -45 -16q-22 -13 -36 -31q-99 -92 -209 -153q-125 -64 -185 -64q-43 0 -84 51q-36 50 -16 146zM2644 588q-2 -9 -1 -11t7 -2q51 0 127 46q64 41 98 65l15 2q-84 3 -174 41l-11 -18q-1 -1 -36 -64q-4 -9 -13.5 -29.5t-11.5 -29.5zM2769 803q4 0 10 -2q41 -13 205 -19
l53 54q48 51 107 133q52 89 59 123l4 16q-20 4 -45 4q-37 0 -102 -20q-48 -19 -90 -58q-75 -81 -82 -90l-84 -96q-9 -12 -17 -22t-12 -15.5t-6 -7.5zM6558 721q11 49 96 143q99 103 186 178q117 95 187 127q55 25 114 25q101 0 168 -49q78 -59 64 -125q-12 -46 -64 -82
q-65 -34 -123 -31l-38 2q-15 -169 6 -260q11 -60 65 -102q35 -27 99 -27q74 0 126 10q59 10 144 50q186 86 354 178q232 126 293 170q97 69 158 69q33 0 47.5 -18.5t9.5 -50.5q-4 -20 -14 -39q-38 -61 -213 -154q-186 -97 -381 -176q-331 -131 -475 -131q-195 0 -254 133
q-36 88 -33 279q6 91 4 112q-65 -37 -332 -231q-101 -76 -149 -76q-24 0 -36.5 19t-8.5 57zM6298 -575q26 112 278 112q142 0 186 -31q32 -14 107 -14q174 0 709 29q1268 58 2209 78q541 12 1280 18q59 159 224 363q211 256 495 479q292 237 625 413q123 67 147 99
q20 36 33 90q10 46 9 63t-15 19q-16 0 -123 -49q-218 -95 -227 -138q-8 -32 -58 -67q-52 -25 -96 -25q-45 0 -199 -80q-168 -84 -231 -84q-42 0 -70 35q-11 15 -14 27q-46 -19 -307 -137q-396 -183 -500 -199l-45 -2q-53 -1 -77.5 40.5t-18.5 115.5q8 72 18 112
q48 215 146 375q70 87 139 90l33 2q56 -3 88 -31q33 -29 33 -71q-16 -96 -111 -127q-36 -14 -90 -86q-57 -71 -109 -164q-50 -78 -65 -127q-2 -15 6.5 -21t34.5 -6q82 3 194 47q68 32 400 207q255 143 325 168q52 48 84 74q100 85 199 141q84 43 158 43q55 0 98 -32
q47 -27 53 -78q-4 12 -12 12q20 0 86 39q198 110 274 110q103 0 68 -167q-13 -51 -27 -76q-2 -7 -6.5 -23.5t-5.5 -19.5v10q-12 0 8 8q7 3 72 27q128 51 223 51q54 0 90 -25l-4 2q111 147 172 254q39 71 88 111q51 39 103 39q36 0 75 -27q36 -25 29 -75q-17 -79 -178 -224
q-209 -218 -416 -458q-177 -216 -194 -271q-4 -7 -15 6q-7 7 -2 7q6 0 41 28q46 34 90 78q77 71 252 215q128 105 238 188q100 78 137 97q44 14 55 14q37 0 58 -47q20 -38 14 -102q0 -82 4 -144q5 -42 36.5 -62t96.5 -20q96 0 250 62q151 60 272 151q58 46 74 54
q21 22 133 124q117 95 187 127q55 25 116 25q99 0 166 -49q78 -59 64 -125q-12 -46 -64 -82q-65 -34 -123 -31l-39 2q-15 -166 7 -260q11 -60 65 -102q35 -27 98 -27q75 0 127 10q58 9 146 50q194 91 352 178q232 126 293 170q56 37 72 45q22 16 55 33q99 61 265 202.5
t456 405.5q144 132 330 309l77 74q-603 -4 -1066 -16.5t-720 -29t-387 -29.5t-198 -26q-244 -48 -314 -69q-41 -11 -57 -27q-12 -12 -12 -26q-9 -37 -31 -56q-18 -18 -59 -30q-41 -18 -97 -15q-70 3 -73 41q-1 -2 -1 -1.5t-6.5 6.5t-13.5 12v18q-2 59 54.5 104.5t177.5 85.5
q131 44 372 76t477 47.5t577 24.5t538.5 10t505 0.5t342.5 -0.5l102 2q331 307 386 350q41 33 46 27q40 -14 35 -66q-4 -24 -60 -87t-176 -185l-36 -37q50 1 145 2t137 2q211 3 283 11q37 3 511 8.5t578 5.5q145 0 144 -54q-1 -43 -86 -94q-55 -34 -123 -55
q-24 -10 -238.5 6t-486.5 37t-385 21q-23 0 -94 4t-123 4h-369q-160 -160 -299 -293q-541 -519 -780 -782q-143 -157 -391 -484q-202 -271 -316 -467q-112 -193 -139 -329q-18 -87 -10 -109q3 -11 7 -13.5t19 -2.5l62 6q44 0 66 -21.5t16 -58.5q-4 -26 -31 -47
q-22 -19 -66 -35q-47 -12 -63 -12q-15 0 -64 18q-38 22 -63 66q-21 38 -14 108q59 257 213 512q137 231 561 779q-31 -15 -60 -33q-110 -64 -114 -66q-186 -97 -381 -176q-331 -131 -475 -131q-195 0 -254 133q-36 88 -33 279q6 91 4 112q-65 -37 -332 -231
q-101 -76 -149 -76q-32 0 -43 35q-77 -33 -178 -64q-155 -47 -263 -47q-120 0 -174 66q-45 58 -35 205q3 25 3 71q0 18 -3 21l-4 4q-38 -6 -188 -119q-167 -130 -326 -289q-157 -162 -200 -237q-15 -37 -80 -96q-74 -56 -158 -56q-38 0 -55 17q-16 23 -13 59q3 28 9 70
q14 73 92 190q79 120 276 361l62 77q4 0 6 -2q-2 2 -27 2q-59 0 -151 -30q-63 -23 -191 -80q-70 -129 -144.5 -267t-80.5 -149q-127 -197 -199 -301q-184 -268 -381 -465q430 4 680 4q1715 0 1803 15q6 2 26 2q58 0 101 -29q55 -31 49 -82q-9 -35 -47 -55q-47 -19 -82 -19
q-40 0 -93 29q3 14 -190.5 23.5t-595.5 14.5t-993 5l-760 -2q-3 -2 -11 -8t-10 -8q-258 -220 -432 -220q-82 0 -131 62q-42 66 -18 184l-2 -12q-956 -9 -1583 -21q-1077 -23 -2112 -102q-384 -29 -442 -37q-82 -9 -109 -31q-53 -36 -151 -36q-77 0 -170 16q-100 18 -152 43
q-32 28 -26 68zM6760 827q15 25 132 111q63 49 69 49t2 -12h31q-74 -47 -156 -111q-30 -25 -47 -34t-31 -3zM8702 1032q35 148 158 307q133 165 360 353q500 414 1161 704q401 182 733 277q337 96 547 96q171 0 248 -68q73 -67 51 -184q-52 -235 -473 -612
q-408 -366 -1218 -861q-182 -101 -271 -163q-60 -31 -118 -31q-69 0 -100.5 25.5t-24.5 76.5q8 38 22 56q10 16 47.5 36t115.5 57q16 7 24 11q223 104 520 272q699 395 1102 795q223 231 245 342q12 56 -30 82.5t-148 26.5q-240 0 -674 -131q-410 -123 -868 -351
q-499 -260 -872 -559q-384 -307 -465 -534q-9 -44 10 -92q11 -47 45 -74q61 -47 203 -74q142 -30 452 -45q285 -19 381 -39q103 -15 182 -57q82 -40 93 -86v-10v2q10 0 92 24q116 41 162 41q44 0 63 -22q16 -19 12 -52q-2 -20 -22 -45q-16 -20 -66 -39t-159 -51
q-39 -11 -71.5 -20.5t-44.5 -13t-13 -3.5q-5 -18 -50 -57q-216 -204 -546 -344q-192 -86 -256 -86q-25 0 -37 15.5t-6 41.5q10 51 111 131.5t300 200.5q216 131 406 213q22 9 35 15.5t17 9.5t3 4q0 -2 -6 4q-25 45 -172 74q-187 36 -504 55q-262 18 -389 43
q-172 29 -247.5 108t-49.5 205zM9308 14l-53 -8q70 10 133 33q237 87 428 211q75 53 119 88q-285 -123 -412 -191q-76 -40 -139 -80t-76 -53zM11100 1483q41 118 199 133q57 -3 85 -28t21 -68q-10 -40 -59 -82q-51 -48 -141 -54q-56 3 -84 28.5t-21 70.5zM11110 -477
q-15 -76 2.5 -108t77.5 -33q124 0 322 145l-402 -2v-2zM11139 -383l490 4q333 291 657 836q180 296 197 354v-20q13 0 14 -2q0 -2 -45 -25q-12 -7 -55.5 -30t-71.5 -38q-32 -16 -143 -78q-15 -8 -54.5 -30.5t-54.5 -30.5q-231 -140 -430 -319q-215 -193 -356 -379
q-98 -124 -148 -242zM11731 811q-2 -10 -6 6q-6 20 -8 21q17 0 135 59q67 27 78 43q20 16 22 33q2 4 2 8q-45 -27 -72 -43q-83 -60 -106 -78q-45 -36 -45 -49zM14332 829q19 8 151 109q64 50 71 49q4 -1 1 -12h31q-78 -49 -154 -111l-51 -41q-11 -15 -27 -28zM16564 811
q6 25 47 145q62 154 82 183q23 29 70 45q36 16 86 16q56 0 82 -29q31 -22 24 -69q-13 -49 -69 -105q-57 -57 -92 -120q-48 -80 -56 -111l-4 -12q1 -4 0 -4q-5 0 -13 11l-1 3q10 0 268 192q193 144 211 144q10 0 27 -10q16 -16 20 -29t0 -47q-8 -31 -35 -90q-19 -44 -30 -86
q-9 -36 21 -52.5t112 -19.5q80 0 211 35q151 46 200 78q52 33 107 41l70 94q102 134 137 213q18 53 55 90q61 49 123 49q53 0 92 -31q37 -41 27 -94q-9 -31 -43 -65q-38 -41 -74 -52q-13 -8 -55 -47q-100 -97 -217 -248q-156 -200 -164 -229v16q-23 0 6 27q11 11 48 42
q47 40 75 65q191 172 284 243q69 52 101 73t51 21q68 0 92 -75q7 -20 13.5 -50t11.5 -50.5t12 -28.5q34 -35 82 -48.5t94 -0.5q25 6 53 24q30 42 97 109q62 60 168 135q89 59 135 59q36 0 63 -24q19 -30 13 -66q-17 -70 -185 -244q-80 -96 -172 -90l-57 4q-13 3 -31 -26
q-26 -29 -29 -53q-5 -25 13 -36t71 -12q42 0 138 21q111 22 714 217q349 121 404 121q62 -6 49 -70q-9 -36 -23 -53q-11 -15 -61 -31q-54 -22 -530 -141q-484 -121 -502 -125q-135 -33 -211 -33q-88 0 -126.5 41.5t-21.5 120.5q2 14 13 39q-18 -2 -60 -2q-225 0 -241 272
q-266 -200 -443 -422q-47 -55 -57 -94q-2 -18 -6 -49q-15 -60 -78 -102q-70 -39 -137 -39q-46 0 -58 18q-11 20 -22 80q-8 52 -2 92q8 38 149 236q-86 -22 -120 -27q-121 -22 -238 -22h-8q-127 0 -181.5 61.5t-33.5 163.5l4 16l18 -10q-18 0 -157 -119q-206 -164 -301 -164
q-39 0 -68 29q-53 56 -31 172zM20374 1024q10 41 53 78q45 39 104 39q36 0 66 -27q25 -25 22 -63q-11 -46 -69 -86q-64 -31 -103 -31q-41 0 -61 29q-19 25 -12 61z" />
    <glyph glyph-name="dieresis" unicode="&#xa8;" horiz-adv-x="520" 
d="M383 1561q-49 0 -76 34q-19 31 -12 72q10 42 65 100q61 45 127 45q47 0 84 -30q36 -36 27 -78q-14 -56 -88 -102q-62 -41 -127 -41zM784 1688q10 42 68 100q57 45 125 45q57 0 84 -31q37 -37 29 -78q-13 -55 -91 -104q-70 -39 -125 -39q-47 0 -75 35q-20 38 -15 72z" />
    <glyph glyph-name="copyright" unicode="&#xa9;" horiz-adv-x="1212" 
d="M444 184q-190 0 -243 275q-11 51 -4 135q6 69 34 213q83 395 287 590l12 10q67 70 373 70q169 0 242 -43q37 -47 63 -115q13 -62 -14 -186q-12 -66 -76 -232q-65 -159 -112 -250q-129 -216 -277 -338q-150 -129 -285 -129zM319 711q-35 -166 -4 -291q26 -107 127 -107
q29 0 56 6q29 5 53 15q72 37 160 119q100 94 168 188q68 100 149 262q65 138 90 258l17 66q8 43 2 49q0 12 -23 35q-16 21 -37 24q-13 8 -82 8q-176 0 -200 -43q-8 -37 -66 -75q-59 -41 -113 -41q-35 0 -49 -19q-18 -30 -71 -43q-31 -6 -86 -131q-54 -121 -91 -280zM475 840
q27 122 119 225q94 102 180 102q42 0 84 -45q41 -48 53 -96q25 -54 15 -100q-18 -54 -70 -86q-47 -29 -102 -29q-50 0 -80 27q-41 28 -31 67q6 17 37 72q37 56 37 70q0 -3 2 -6.5t4.5 -5.5t3.5 -1q-17 -4 -55 -41q-46 -43 -92 -104q-45 -65 -50 -94q-8 -42 13 -66
q24 -27 59 -27q39 0 84 39q67 64 119 64q32 0 47 -21.5t10 -60.5q-15 -66 -90 -107q-68 -38 -143 -38q-99 0 -140 84q-35 77 -14 178z" />
    <glyph glyph-name="ordfeminine" unicode="&#xaa;" horiz-adv-x="555" 
d="M487 1202q-18 0 -43 25q-17 23 -10 63q2 4 15 4q-9 0 -46 -12q-77 -22 -110 -22q-114 0 -105 122q9 55 64 121q54 63 125 107q49 22 112 45q69 16 105 16l22 -4h-2q-3 0 -3 1t2 6q1 2 1 3q4 5 21 43q6 20 14 52q1 12 2 14t6 2q-25 0 -86 -72q-76 -94 -161 -94
q-50 0 -86 25q-42 36 -31 77q15 69 133 140q117 66 240 84q53 0 77 -47q26 -45 13 -117q-4 -24 -31 -84q-21 -44 -27 -78q0 -4 -1 -10t-1 -8v-41q-4 -38 -14 -88q-14 -60 -53 -91q-21 -28 -21 -30l-6 -64q-13 -44 -51 -65q-38 -23 -64 -23zM330 1382q1 6 -3.5 12.5t-9.5 6.5
q13 0 76 35q21 11 47 28q16 10 17 8q0 -2 -2 -6q2 12 14 3q13 -10 4 -17q-6 -4 -18 -4q-42 0 -95 -39q-9 -6 -30 -27z" />
    <glyph glyph-name="guillemotleft" unicode="&#xab;" horiz-adv-x="1343" 
d="M641 467q-37 0 -51 41q0 37 -86 94q-79 53 -217 105q-81 25 -131 47q-48 22 -60 51q-10 26 0 72q11 51 234 303q230 266 252 311q60 98 77 119q44 53 125 53q36 0 70 -27q61 -27 51 -73q-9 -42 -82 -103q-36 -34 -225 -190q-205 -165 -318 -270.5t-124 -137.5
q0 -4 10 -12q8 -8 59 -31q26 -11 150 -53q67 -27 119 -51q76 -37 112 -58q39 -20 68 -45q29 -17 33 -37q7 -15 4 -43q-7 -32 -23 -45q-13 -17 -47 -20zM690 932q9 47 129 155q183 169 201 250q9 42 53 80q46 43 90 43q49 0 99 -35q53 -40 41 -94q-8 -35 -50 -65
q-46 -36 -184 -119q-309 -177 -309 -215q2 3 7.5 -0.5t26.5 -17.5t46 -27q89 -51 225 -101q148 -63 164 -79q23 -26 16 -68q-6 -26 -31 -47q-23 -23 -49 -23q-36 0 -73 49q-49 53 -289 187q-47 27 -88 55q-33 38 -25 72z" />
    <glyph glyph-name="logicalnot" unicode="&#xac;" horiz-adv-x="1298" 
d="M1079 436q-39 0 -75 49q-32 53 -27 88q15 63 133 205q96 122 96 125q0 6 -80 8q-77 0 -231 -16q-84 -9 -270 -39q-120 -20 -174 -43q-65 -29 -125 -29q-71 0 -105 37q-39 39 -31 80q12 44 60 72q57 24 117 24q67 0 276 21q346 29 430 29q94 0 144 -13q52 -11 73 -39
q13 -26 6 -57q-8 -40 -98 -154q-84 -105 -90 -137q-5 -19 2.5 -30t32.5 -21q44 -30 37 -82q-12 -39 -41 -57q-35 -21 -60 -21z" />
    <glyph glyph-name="registered" unicode="&#xae;" horiz-adv-x="813" 
d="M469 1200q-81 0 -137 62q-60 63 -72 178q-4 57 2 98q2 36 68 354l51 35q45 33 96 33l35 -2q58 0 137 12q83 15 131 15q117 0 164.5 -64t24.5 -186q-8 -40 -47 -136q-75 -171 -205 -286q-131 -113 -248 -113zM352 1497q-20 -98 10 -156q39 -51 123 -51q36 0 60 8
q17 4 57 25q111 65 197 188q84 123 108 232q15 77 -8.5 109.5t-95.5 33.5q-10 0 -84 -12q-34 -7 -101 -29q-6 0 -14 -4h8q64 -6 88 -33q25 -25 19 -84q-6 -26 -60 -106q-30 -46 -28 -49q-1 -9 -9 9q-5 11 -6 11q7 0 48 17q95 45 141 45q39 0 53 -17q11 -18 8 -51
q-23 -101 -270 -119q-47 0 -68 21t-10 65l19 62q0 -1 16 -13q2 -3 2 -4q8 0 3 -5q-3 -2 -5 -4t-4 -5q-14 -32 -21 -65q-8 -38 -10 -62q-3 -23 2 -41q12 -27 6 -49q-7 -23 -41 -47q-38 -19 -65 -19q-35 0 -60 25q-23 23 -16 68q10 46 80 202q-20 30 -27 37q0 -4 -4 -8
l-22 -59q-14 -44 -19 -66z" />
    <glyph glyph-name="macron" unicode="&#xaf;" horiz-adv-x="937" 
d="M369 1604q-34 0 -58 18q-29 25 -20 61q12 55 67 91q55 30 115 30q28 0 55 -6q46 -14 217 -14q354 0 363 -12q32 -22 25 -62q-4 -22 -33 -55q-39 -27 -72 -27q-26 0 -67 8l-95 13q-59 6 -116 6q-147 0 -258 -27q-80 -24 -123 -24z" />
    <glyph glyph-name="degree" unicode="&#xb0;" horiz-adv-x="475" 
d="M373 1421q-30 0 -60 23q-72 48 -34 229q21 102 83 135q48 23 76 23q21 0 41 -12q12 -5 33 -21q3 -3 14.5 -9.5t16.5 -10.5q37 -22 51 -70q12 -43 2 -94q-27 -126 -160 -176q-42 -17 -63 -17zM383 1554q-3 -17 -2 -19.5t10 -2.5q23 0 53 18q31 12 60 45q26 37 28 56
q4 18 -6 28q-14 11 -18 11t-12 -4q-13 -8 -17 -15q-4 1 -4 2q0 -6 -2 -8q-2 -3 -7 8q-5 9 -2 9q2 0 5 -3q4 -4 6 -10t2 -10v-4q-3 -22 -24 -43t-43 -27q-24 -12 -27 -31z" />
    <glyph glyph-name="plusminus" unicode="&#xb1;" horiz-adv-x="983" 
d="M393 250q-39 0 -55.5 23t-7.5 65q7 39 188 575h-4q-37 0 -182 -43q-88 -24 -135 -24q-43 0 -63 23t-11 63q11 53 74 100q55 43 114 43q10 0 56 -12q47 -21 145 -21l57 2q32 112 37 136q13 57 4 92q-8 19 -4 49q14 46 47 90q66 72 138 72q53 0 79 -41q22 -32 13 -84
q-16 -65 -84 -107q-52 -32 -99 -125l-51 -98v16q33 0 189 15q68 6 110 6q55 0 81 -21t18 -61q-9 -37 -50 -70q-35 -24 -69 -24l-19 2q-101 39 -231 39q-50 0 -68 -12q-25 -25 -82 -295q-27 -137 -32 -203q-2 -47 -11 -90q-19 -80 -92 -80zM-49 86q13 60 69 90q57 31 115 31
q26 0 53 -6q50 -15 218 -15q353 0 362 -12q32 -22 25 -61q-5 -24 -33 -56q-37 -26 -70 -26q-25 0 -69 8l-95 12q-58 6 -116 6q-149 0 -256 -26q-89 -25 -125 -25q-37 0 -58 21q-28 24 -20 59z" />
    <glyph glyph-name="uni00B2" unicode="&#xb2;" horiz-adv-x="585" 
d="M510 1257q-58 0 -113 15q-80 24 -80 71q0 19 2 31q17 67 82 148q131 162 144 184v-23q13 0 -4 -9q-5 -3 -21 -10l-18 -9q-66 -25 -99 -25q-77 0 -108 66q-14 40 -12 61q9 40 79 68q89 41 181 41q42 0 73 -8q102 -32 84 -117q-1 -9 -12 -35q-25 -54 -217 -246
q-54 -58 -55 -59h22q22 0 101 14q63 17 90 17q49 0 65 -43q8 -19 4 -43q-12 -58 -112 -82q-47 -7 -76 -7z" />
    <glyph glyph-name="uni00B3" unicode="&#xb3;" horiz-adv-x="514" 
d="M317 1196q-18 0 -24 4q-47 17 -37 64q27 77 117 77l33 -2q39 0 96 29l12 6l21 -20q-76 76 -89 98q-21 30 -14 72q11 49 100 129q44 36 48 47h-7q-18 0 -32 -19q-39 -36 -101 -36q-94 0 -135 61q-22 31 -16 66q3 12 10 26q39 74 154 74q85 0 143 -25q47 -15 67 -45.5
t11 -70.5q-13 -53 -119 -162q-12 -11 -23.5 -25.5t-16 -19.5t-5.5 -2q-1 -1 0 -2.5t5 -5t10.5 -9t17.5 -14.5q74 -61 63 -107q-8 -43 -86 -96q-65 -44 -125 -69q-54 -23 -78 -23z" />
    <glyph glyph-name="acute" unicode="&#xb4;" horiz-adv-x="385" 
d="M281 1444q-29 0 -56 18q-31 24 -22 62q9 35 51 61q26 13 197 160.5t241 220.5q49 49 86 49q22 0 37 -12q20 -20 14 -43q-6 -31 -65 -64q-70 -47 -225 -178.5t-156 -148.5q-1 -4 -2 -3v-1q10 -10 4 -39q-12 -41 -45 -58q-29 -20 -59 -24z" />
    <glyph glyph-name="uni00B5" unicode="&#xb5;" horiz-adv-x="835" 
d="M-6 14q-87 0 -62 133q9 47 54 154q35 83 45 137q6 26 4 33q-6 35 4 88q15 80 115 289q73 159 114 289q7 38 31 98q25 42 57 76q82 88 136 88q52 0 71 -62q19 -44 12 -118q-10 -48 -149 -246q-207 -297 -233 -430q-5 -22 -7 -34.5t-1.5 -16t1.5 -3.5q44 0 236 269
q306 418 401 510q35 30 62 30q29 0 43 -19.5t8 -55.5q-11 -39 -74 -144q-150 -249 -184 -413q-36 -161 -4 -164q41 0 59 -29q16 -26 10 -57q-8 -40 -57 -76q-48 -23 -92 -23q-78 0 -88 78q-10 66 14 170q13 58 55 178q-39 -49 -65 -86q-174 -253 -262 -290q-37 -15 -115 -23
l-16 -84q-21 -93 -13 -127q6 -23 2 -41q-7 -28 -43 -47q-43 -31 -69 -31z" />
    <glyph glyph-name="paragraph" unicode="&#xb6;" horiz-adv-x="1345" 
 />
    <glyph glyph-name="periodcentered" unicode="&#xb7;" horiz-adv-x="276" 
d="M160 819q-44 0 -60 29q-19 24 -12 59q10 40 51 76q43 37 101 37q32 0 65 -23q29 -33 21 -65q-8 -44 -68 -82q-60 -31 -98 -31z" />
    <glyph glyph-name="periodcentered" unicode="&#x2219;" horiz-adv-x="276" 
d="M160 819q-44 0 -60 29q-19 24 -12 59q10 40 51 76q43 37 101 37q32 0 65 -23q29 -33 21 -65q-8 -44 -68 -82q-60 -31 -98 -31z" />
    <glyph glyph-name="cedilla" unicode="&#xb8;" horiz-adv-x="477" 
d="M-311 -565q-76 40 -123 223q-3 17 -9.5 39.5t-9.5 33.5t-1.5 24.5t10.5 25.5q37 37 67 22q22 -16 29 -86q22 -185 84 -225q9 -6 20 -6q8 1 0 -13l-2 -3q0 2 6 14q7 7 13 43q2 33 -4 76q-2 23 -15.5 93t-19.5 77q-19 22 -19 47q3 21 23 47q5 6 43 63t84 126.5t69 99.5
q7 10 17.5 24.5t15.5 21t13 17t12 15.5t10 11.5t10.5 9.5t10 7t11 5.5t11.5 2.5q26 4 39 -13.5t16 -47.5q10 -43 -22 -72q-3 -3 -26.5 -28.5t-40.5 -44.5t-45.5 -53t-50 -62.5t-43.5 -63t-36 -63.5q24 -213 19 -248q-3 -52 -45 -109q-28 -35 -60 -43t-61 13z" />
    <glyph glyph-name="uni00B9" unicode="&#xb9;" horiz-adv-x="301" 
d="M291 1260q-44 0 -62.5 27t-9.5 77q1 2 23 84l43 164q9 41 6 49q-3 11 -8 16q-32 40 -23 88q15 60 70 103q61 45 110 45q48 0 78 -41q29 -40 23 -80q-11 -46 -72 -94q-29 -25 -35 -33q-14 -13 -16 -31q-11 -25 -19 -71q-15 -69 -12 -93q0 -27 14 -47q19 -39 11 -77
q-9 -44 -52 -66q-42 -20 -69 -20z" />
    <glyph glyph-name="ordmasculine" unicode="&#xba;" horiz-adv-x="555" 
d="M393 1257q-41 0 -80 31q-103 66 -49 322q30 146 119 188q61 33 104 33q30 0 58 -14l45 -31q16 -13 43 -29q49 -32 69 -96q20 -68 5 -131q-38 -179 -224 -250q-50 -23 -90 -23zM399 1440q-4 -12 -4 -23q0 -8 4 -12q4 -6 19 -6q33 0 84 26t86 70q40 48 45 82q8 34 -12 51
q-22 19 -35 19q-7 0 -19 -9q-8 -4 -28 -20q-5 -4 -9 -10q2 -2 2 -4q5 -15 3 -21q-4 -17 -31 -53q-35 -30 -62 -37q-34 -14 -43 -53z" />
    <glyph glyph-name="guillemotright" unicode="&#xbb;" horiz-adv-x="1343" 
d="M586 467q-34 3 -45 22q-11 17 -4 52q4 24 18 41q13 12 45 32q36 22 88 43q84 39 135 58q8 3 142 53q42 13 99.5 30t70.5 21q55 20 75 33q18 12 21 18q9 59 -266 404q-86 103 -146 188q-45 70 -39 109q9 42 74 65q46 27 80 27q80 0 106 -57q18 -41 29 -123q5 -49 117 -309
q118 -245 108 -306q-9 -45 -30 -69q-17 -25 -74 -45q-86 -31 -148 -49q-147 -43 -268 -105q-105 -51 -131 -98q-22 -35 -57 -35zM47 647q9 35 39 62q17 13 197 77q157 51 266 101q102 46 110 57q2 18 -52.5 69.5t-164.5 135.5q-111 89 -137 121q-26 30 -20 69q13 55 75 88
q68 33 109 33q45 0 76 -45q28 -45 22 -86q-19 -73 92 -246q72 -113 66 -159q-9 -37 -53 -64q-35 -24 -107 -55q-312 -140 -372 -191q-54 -45 -91 -45q-26 0 -43 25q-15 18 -12 53z" />
    <glyph glyph-name="onequarter" unicode="&#xbc;" horiz-adv-x="1726" 
d="M252 647q-48 0 -70 43q-14 53 11 166q14 72 57 188q32 85 160 361q174 377 200 493l8 33q0 11 3 23q0 9 4 37q3 25 16 41q61 73 152 73q58 0 85 -25t21 -75q-9 -39 -53 -86q-44 -44 -111 -158q-63 -107 -143 -264q-63 -118 -119 -252q-84 -245 -106 -342q-9 -61 -9 -67
l7 -60q2 -23 -3 -49q-8 -28 -32 -47q-41 -33 -78 -33zM158 92q36 155 221 430q184 270 541 717l251 324q109 140 121 159q27 39 31 56q2 7 0 12q0 17 2 29q5 39 49 90q61 73 139 73q65 0 89 -47q26 -38 16 -92q-13 -57 -64 -96q-47 -41 -116 -41q-8 0 -21 -10
q-49 -49 -55 -56q-17 -18 -105 -118q-507 -602 -745 -977q-60 -101 -121 -230q-64 -141 -72 -178q-2 -9 -3 -14.5t-0.5 -7.5t1.5 -2v-1l9 -2l8 -1q33 -9 45 -27q9 -18 6 -45q-5 -27 -37 -62q-34 -34 -59 -34q-4 0 -31 -9h-12q-119 0 -88 160zM668 299q16 77 45 180
q31 103 45 154q12 58 8 74q-3 25 0 47q16 62 63 98q46 37 103 37q52 0 84 -35q38 -32 31 -82q-13 -43 -60 -90q-18 -21 -78 -131q-43 -79 -110 -217q-53 -114 -58 -141q-5 -23 -1.5 -29t20.5 -6q68 0 254 104q80 43 110 68q37 27 68 84q38 65 90 174q58 118 74 198l16 78
q8 49 33 84q28 35 72 56q55 30 92 30q46 0 67 -37q19 -28 15 -63q-6 -28 -56 -94q-52 -70 -143 -228q-107 -166 -129 -215q-9 4 -16 17q-2 4 0 4l18 6q45 17 49 18q30 9 51 9q44 0 63 -22.5t11 -61.5q-12 -57 -90 -76q-114 -27 -170 -60q-29 -20 -129 -219
q-90 -193 -98 -229q-2 -5 12 -16q22 -37 14 -68q-10 -47 -61 -84q-51 -39 -96 -39t-65 26t-11 72q14 75 186 387q31 60 47.5 84t30.5 23l-2 -18q-22 -7 -61 -21q-170 -67 -263 -76q-28 0 -45 13q-66 55 -30 233z" />
    <glyph glyph-name="onehalf" unicode="&#xbd;" horiz-adv-x="1712" 
d="M283 795q-48 0 -70 43q-13 48 10 166q23 100 58 188q57 142 161 360q174 383 199 494l8 35q1 1 1 4v8t1 8q0 9 4 37q3 23 17 41q65 74 151 74q58 0 85.5 -25.5t21.5 -73.5q-8 -40 -53 -88q-34 -32 -111 -157q-63 -107 -143 -264q-67 -126 -117 -250q-92 -263 -107 -344
q-6 -27 -10 -68l6 -59q4 -32 -2 -52q-6 -22 -33 -45q-40 -32 -77 -32zM88 92q36 155 221 430q184 270 541 717l252 324q109 140 121 159q25 36 30 56q2 7 0 12q0 17 2 29q5 38 50 90q61 73 139 73q64 0 88 -47q26 -38 16 -92q-13 -58 -63 -96q-47 -41 -117 -41q-8 0 -20 -10
q-2 -2 -12 -11.5t-21.5 -20.5t-22.5 -24q-12 -13 -27 -30t-38 -43t-39 -45q-511 -607 -746 -977q-54 -92 -120 -230q-64 -141 -72 -178q-2 -9 -3 -14.5t-0.5 -7.5t1.5 -2v-2q2 -1 16 -2q33 -9 45 -27q9 -18 6 -45q-6 -28 -36 -62q-34 -34 -60 -34q-4 0 -31 -9h-12
q-119 0 -88 160zM639 719q18 82 180 178q129 83 316 145q121 39 233 39q148 0 213 -48.5t45 -145.5q-22 -95 -153 -234q-123 -133 -398 -358q-81 -67 -187.5 -158t-117.5 -100q-110 -98 -113 -123q-2 -3 3 -4h24q104 0 279 51q82 33 127 33q44 0 65 -35q12 -22 6 -51
q-24 -100 -272 -135q-114 -15 -168 -15l-45 2q-96 12 -113 29q-13 13 -20 41q-18 44 -11 74q7 34 82 109t224 200q329 271 503 430q158 149 170 219q9 39 -21 56.5t-110 17.5q-193 0 -387 -105q-77 -42 -84 -59q2 5 11 -4q41 -39 32 -94q-12 -57 -82 -78q-33 -10 -67 -10
q-77 0 -135 49q-35 35 -29 84z" />
    <glyph glyph-name="threequarters" unicode="&#xbe;" horiz-adv-x="2029" 
d="M250 741q-31 0 -51 27q-18 28 -15 49q3 31 68 70q39 28 172 96q380 196 401 297q3 19 -12 37q-15 20 -82 59q-77 47 -102 84q-34 46 -21 111q17 75 178 293q94 125 97 143q1 3 3 -1q2 -5 5 -5q-27 0 -70 -21q-39 -19 -78 -47q-31 -21 -34 -28q0 -1 1.5 -4.5t2.5 -6.5
l16 -28q4 -12 4 -35q-9 -42 -57 -72q-47 -30 -109 -30q-68 6 -108 40q-52 39 -39 97q10 27 67 78q47 37 127 96q87 57 121 71q103 43 219 46q55 0 76 -43q13 -33 6 -80q-22 -93 -194 -283q-122 -140 -125 -172q-5 -18 10 -33q26 -23 70 -45q84 -48 108 -86q29 -44 19 -106
q-17 -68 -45 -109q-28 -42 -93 -98q-64 -55 -178 -135q-128 -93 -223 -152q-112 -74 -135 -74zM408 92q36 155 221 430q189 278 540 717l252 324q109 140 121 159q27 39 31 56q2 7 0 12q0 17 2 29q5 39 49 90q61 73 139 73q64 0 88 -47q27 -39 17 -92q-13 -57 -64 -96
q-47 -41 -116 -41q-8 0 -21 -10q-49 -49 -55 -56q-17 -18 -105 -118q-507 -602 -745 -977q-60 -101 -121 -230q-64 -141 -72 -178q-2 -9 -3 -14.5t-0.5 -7.5t1.5 -2q0 -2 1 -2q3 -1 16 -2q33 -9 45 -27q9 -17 6 -45q-5 -27 -37 -62q-34 -34 -59 -34q-4 0 -31 -9h-12
q-119 0 -88 160zM995 416q16 77 45 180q41 135 45 154q12 60 9 73q-3 25 0 47q16 64 63 99q46 37 105 37q49 0 84 -35q35 -32 28 -82q-9 -40 -59 -90q-18 -21 -78 -131q-53 -98 -111 -217q-51 -110 -57 -142q-5 -23 -2 -29t20 -6q66 0 254 105q90 48 111 67q37 27 68 84
q17 29 92 175q54 116 74 198l14 78q9 51 35 84q23 33 69 55q60 31 94 31q45 0 66 -37q18 -26 14 -63q-7 -32 -55 -95q-54 -73 -143 -227q-107 -166 -129 -215q-9 4 -17 17q-2 4 0 4q1 0 19 6q45 17 49 18q27 8 51 8q44 0 63 -22.5t11 -61.5q-12 -56 -90 -75
q-114 -27 -170 -60q-33 -23 -127 -219q-92 -188 -101 -229q-2 -5 13 -17q19 -32 16 -67q-13 -48 -63 -84q-51 -39 -95 -39t-65 26t-12 72q14 75 186 387q31 60 47.5 84t30.5 23q0 -1 -2 -19q-23 -6 -62 -20q-170 -67 -262 -76q-29 0 -45 12q-67 56 -31 234z" />
    <glyph glyph-name="questiondown" unicode="&#xbf;" horiz-adv-x="1761" 
d="M1815 2333q-63 0 -91 32q-33 33 -26 62q5 29 63 74q58 39 117 39q54 -7 76 -29q27 -21 18 -72q-13 -58 -65 -82q-53 -24 -92 -24zM55 158q27 98 99 209q75 119 247 299q166 174 523 522q353 344 503 498q239 260 295 393q0 5 -3.5 7.5t-16.5 6.5q-61 22 -49 86
q6 31 32 47.5t66 16.5q61 -3 90 -37q34 -34 23 -95q-21 -94 -219 -307q-182 -197 -654 -653q-353 -342 -510 -506q-303 -318 -327 -440q-8 -32 6.5 -47t58.5 -21h8q106 0 305 90q205 89 435 248q198 142 366 313q157 154 180 209q-1 0 -3.5 1.5t-8.5 5t-14 6.5
q-56 39 -47 96q15 40 65 76q52 20 101 20q74 0 125 -33q48 -41 32 -102q-24 -108 -231 -309q-300 -294 -682 -514q-415 -236 -668 -236q-43 0 -69 15q-20 15 -35 40q-30 46 -23 95z" />
    <glyph glyph-name="Agrave" unicode="&#xc0;" horiz-adv-x="2230" 
d="M1604 -406q-41 3 -56 72q-46 132 27 486q58 282 287 972q-2 1 -6.5 4.5t-6.5 4.5q-20 8 -102 22q-82 18 -161 32t-168 26.5t-105 15.5l-8 2l-17 -4q-24 -14 -67 -68q-276 -315 -453 -569q-142 -202 -158 -275q-2 -3 8 -18q19 -37 13 -74q-10 -38 -31 -51q-19 -16 -45 -16
q-40 0 -58.5 36t-11.5 101q24 110 154 287q99 139 373 464q158 180 166 205v-20h-68q-762 -41 -1130 -271l-29 -18q2 -6 16 -41q12 -20 8 -49q-12 -53 -73 -68q-45 12 -66.5 44t-15.5 77q7 38 26 82q76 137 443 240q380 107 819 116l84 2q18 0 57 -8q1 1 3.5 3t7 6t8.5 8
q18 13 69 67q24 26 129 142q452 512 576 663q169 206 188 266q9 27 49 64q27 31 74 65q63 45 96 33q7 0 14 -9t11.5 -30.5t1.5 -48.5q-11 -44 -12 -45q-63 -126 -191 -475q-23 -66 -299 -840q181 -71 281 -155q100 -87 88 -211q-7 -49 -31 -95q-19 -45 -65 -45
q-83 0 -74 152q6 84 -72 147q-78 65 -157 93q-100 -310 -152 -490q-37 -141 -70 -301q-93 -438 -32 -526q31 -48 20 -86l-4 -6q-5 -26 -33 -58q-32 -29 -63 -31zM1370 1329q174 -18 531 -94l6 12q57 129 278 783q68 214 80 276q1 5 4 6.5t7 0.5t7 -2.5t7 -4.5l4 -2
q-28 -21 -180 -176q-141 -144 -385 -406q-209 -222 -359 -393zM2462 3443q8 37 45 63q39 27 71 27q27 0 48 -21q18 -24 12 -61q-7 -19 -19 -33q-8 -11 -8 -16q-5 -20 2.5 -59t46.5 -198q37 -152 64 -263q3 -14 21 -35.5t16 -30.5q-6 -22 -33 -43q-27 -18 -53 -18
q-24 0 -37 16q-11 11 -33 131q-35 203 -54 303t-26.5 124.5t-15.5 33.5q-8 8 -19 17q-6 7 -2 7q-9 0 -17 6.5t-9 16.5q-5 14 0 33z" />
    <glyph glyph-name="Aacute" unicode="&#xc1;" horiz-adv-x="2230" 
d="M1604 -406q-41 3 -56 72q-46 132 27 486q58 282 287 972q-2 1 -6.5 4.5t-6.5 4.5q-20 8 -102 22q-82 18 -161 32t-168 26.5t-105 15.5l-8 2l-17 -4q-24 -14 -67 -68q-276 -315 -453 -569q-142 -202 -158 -275q-2 -3 8 -18q19 -37 13 -74q-10 -38 -31 -51q-19 -16 -45 -16
q-40 0 -58.5 36t-11.5 101q24 110 154 287q99 139 373 464q158 180 166 205v-20h-68q-762 -41 -1130 -271l-29 -18q2 -6 16 -41q12 -20 8 -49q-12 -53 -73 -68q-45 12 -66.5 44t-15.5 77q7 38 26 82q76 137 443 240q380 107 819 116l84 2q18 0 57 -8q1 1 3.5 3t7 6t8.5 8
q18 13 69 67q24 26 129 142q452 512 576 663q169 206 188 266q9 27 49 64q27 31 74 65q63 45 96 33q7 0 14 -9t11.5 -30.5t1.5 -48.5q-11 -44 -12 -45q-63 -126 -191 -475q-23 -66 -299 -840q181 -71 281 -155q100 -87 88 -211q-7 -49 -31 -95q-19 -45 -65 -45
q-83 0 -74 152q6 84 -72 147q-78 65 -157 93q-100 -310 -152 -490q-37 -141 -70 -301q-93 -438 -32 -526q31 -48 20 -86l-4 -6q-5 -26 -33 -58q-32 -29 -63 -31zM1370 1329q174 -18 531 -94l6 12q57 129 278 783q68 214 80 276q1 5 4 6.5t7 0.5t7 -2.5t7 -4.5l4 -2
q-28 -21 -180 -176q-141 -144 -385 -406q-209 -222 -359 -393zM2445 2910q9 35 52 62q26 13 197 160.5t241 220.5q49 49 86 49q21 0 37 -13q20 -20 14 -43q-6 -29 -66 -63q-67 -44 -219 -174t-164 -154v-4q9 -9 5 -39q-12 -40 -45 -57q-30 -21 -60 -25q-27 0 -55 19
q-32 25 -23 61z" />
    <glyph glyph-name="Acircumflex" unicode="&#xc2;" horiz-adv-x="2230" 
d="M1604 -406q-41 3 -56 72q-46 132 27 486q58 282 287 972q-2 1 -6.5 4.5t-6.5 4.5q-20 8 -102 22q-82 18 -161 32t-168 26.5t-105 15.5l-8 2l-17 -4q-24 -14 -67 -68q-276 -315 -453 -569q-142 -202 -158 -275q-2 -3 8 -18q19 -37 13 -74q-10 -38 -31 -51q-19 -16 -45 -16
q-40 0 -58.5 36t-11.5 101q24 110 154 287q99 139 373 464q158 180 166 205v-20h-68q-762 -41 -1130 -271l-29 -18q2 -6 16 -41q12 -20 8 -49q-12 -53 -73 -68q-45 12 -66.5 44t-15.5 77q7 38 26 82q76 137 443 240q380 107 819 116l84 2q18 0 57 -8q1 1 3.5 3t7 6t8.5 8
q18 13 69 67q24 26 129 142q452 512 576 663q169 206 188 266q9 27 49 64q27 31 74 65q63 45 96 33q7 0 14 -9t11.5 -30.5t1.5 -48.5q-11 -44 -12 -45q-63 -126 -191 -475q-23 -66 -299 -840q181 -71 281 -155q100 -87 88 -211q-7 -49 -31 -95q-19 -45 -65 -45
q-83 0 -74 152q6 84 -72 147q-78 65 -157 93q-100 -310 -152 -490q-37 -141 -70 -301q-93 -438 -32 -526q31 -48 20 -86l-4 -6q-5 -26 -33 -58q-32 -29 -63 -31zM1370 1329q174 -18 531 -94l6 12q57 129 278 783q68 214 80 276q1 5 4 6.5t7 0.5t7 -2.5t7 -4.5l4 -2
q-28 -21 -180 -176q-141 -144 -385 -406q-209 -222 -359 -393zM2249 2861q8 30 63 98q27 31 96 98.5t134.5 130t122.5 116t59 55.5q71 59 117 59q24 0 36 -12q13 -13 19 -45t0 -96q-62 -321 -51 -332q26 -26 18 -56q-9 -49 -72 -49q-47 0 -57 41q-4 35 70 377q9 43 31 74
l-1 2h6l-5 -3q-11 -5 -17 -9q-37 -32 -85 -75.5t-121.5 -113.5t-125 -132t-57.5 -93q-12 -62 -68 -88q-37 -15 -51 -15q-23 0 -43 17q-23 20 -18 51z" />
    <glyph glyph-name="Atilde" unicode="&#xc3;" horiz-adv-x="2230" 
d="M1604 -406q-41 3 -56 72q-46 132 27 486q58 282 287 972q-2 1 -6.5 4.5t-6.5 4.5q-20 8 -102 22q-82 18 -161 32t-168 26.5t-105 15.5l-8 2l-17 -4q-24 -14 -67 -68q-276 -315 -453 -569q-142 -202 -158 -275q-2 -3 8 -18q19 -37 13 -74q-10 -38 -31 -51q-19 -16 -45 -16
q-40 0 -58.5 36t-11.5 101q24 110 154 287q99 139 373 464q158 180 166 205v-20h-68q-762 -41 -1130 -271l-29 -18q2 -6 16 -41q12 -20 8 -49q-12 -53 -73 -68q-45 12 -66.5 44t-15.5 77q7 38 26 82q76 137 443 240q380 107 819 116l84 2q18 0 57 -8q1 1 3.5 3t7 6t8.5 8
q18 13 69 67q24 26 129 142q452 512 576 663q169 206 188 266q9 27 49 64q27 31 74 65q63 45 96 33q7 0 14 -9t11.5 -30.5t1.5 -48.5q-11 -44 -12 -45q-63 -126 -191 -475q-23 -66 -299 -840q181 -71 281 -155q100 -87 88 -211q-7 -49 -31 -95q-19 -45 -65 -45
q-83 0 -74 152q6 84 -72 147q-78 65 -157 93q-100 -310 -152 -490q-37 -141 -70 -301q-93 -438 -32 -526q31 -48 20 -86l-4 -6q-5 -26 -33 -58q-32 -29 -63 -31zM1370 1329q174 -18 531 -94l6 12q57 129 278 783q68 214 80 276q1 5 4 6.5t7 0.5t7 -2.5t7 -4.5l4 -2
q-28 -21 -180 -176q-141 -144 -385 -406q-209 -222 -359 -393zM2247 3023q4 20 28 106q15 42 55 68t97 27q90 0 291 -121q89 -54 102 -54q4 0 -10 -12q-6 -5 -6 -2q-1 -5 -10 6q-10 13 -17 21q-47 60 -37 102q6 20 37 51q29 25 62 37q28 17 57 17q49 0 92 -43q53 -40 41 -93
q-10 -26 -31 -67q-21 -63 -71 -107q-40 -43 -86 -43q-33 0 -199 105q-126 80 -244 106q14 -53 8 -90q-9 -41 -34.5 -64.5t-63.5 -23.5q-35 4 -51 24t-10 50z" />
    <glyph glyph-name="Adieresis" unicode="&#xc4;" horiz-adv-x="2230" 
d="M1604 -406q-41 3 -56 72q-46 132 27 486q58 282 287 972q-2 1 -6.5 4.5t-6.5 4.5q-20 8 -102 22q-82 18 -161 32t-168 26.5t-105 15.5l-8 2l-17 -4q-24 -14 -67 -68q-276 -315 -453 -569q-142 -202 -158 -275q-2 -3 8 -18q19 -37 13 -74q-10 -38 -31 -51q-19 -16 -45 -16
q-40 0 -58.5 36t-11.5 101q24 110 154 287q99 139 373 464q158 180 166 205v-20h-68q-762 -41 -1130 -271l-29 -18q2 -6 16 -41q12 -20 8 -49q-12 -53 -73 -68q-45 12 -66.5 44t-15.5 77q7 38 26 82q76 137 443 240q380 107 819 116l84 2q18 0 57 -8q1 1 3.5 3t7 6t8.5 8
q18 13 69 67q24 26 129 142q452 512 576 663q169 206 188 266q9 27 49 64q27 31 74 65q63 45 96 33q7 0 14 -9t11.5 -30.5t1.5 -48.5q-11 -44 -12 -45q-63 -126 -191 -475q-23 -66 -299 -840q181 -71 281 -155q100 -87 88 -211q-7 -49 -31 -95q-19 -45 -65 -45
q-83 0 -74 152q6 84 -72 147q-78 65 -157 93q-100 -310 -152 -490q-37 -141 -70 -301q-93 -438 -32 -526q31 -48 20 -86l-4 -6q-5 -26 -33 -58q-32 -29 -63 -31zM1370 1329q174 -18 531 -94l6 12q57 129 278 783q68 214 80 276q1 5 4 6.5t7 0.5t7 -2.5t7 -4.5l4 -2
q-28 -21 -180 -176q-141 -144 -385 -406q-209 -222 -359 -393zM2185 2974q10 42 68 100q57 45 127 45q46 0 82 -31q33 -29 26 -77q-11 -57 -86 -103q-65 -41 -127 -41q-47 0 -75 35q-20 38 -15 72zM2677 2994q13 53 69 101q54 45 123 45q55 0 82 -31q41 -35 29 -78
q-11 -55 -88 -104q-70 -39 -125 -39q-53 0 -76 37q-23 38 -14 69z" />
    <glyph glyph-name="Aring" unicode="&#xc5;" horiz-adv-x="2230" 
d="M1604 -406q-41 3 -56 72q-46 132 27 486q58 282 287 972q-2 1 -6.5 4.5t-6.5 4.5q-20 8 -102 22q-82 18 -161 32t-168 26.5t-105 15.5l-8 2l-17 -4q-24 -14 -67 -68q-276 -315 -453 -569q-142 -202 -158 -275q-2 -3 8 -18q19 -37 13 -74q-10 -38 -31 -51q-19 -16 -45 -16
q-40 0 -58.5 36t-11.5 101q24 110 154 287q99 139 373 464q158 180 166 205v-20h-68q-762 -41 -1130 -271l-29 -18q2 -6 16 -41q12 -20 8 -49q-12 -53 -73 -68q-45 12 -66.5 44t-15.5 77q7 38 26 82q76 137 443 240q380 107 819 116l84 2q18 0 57 -8q1 1 3.5 3t7 6t8.5 8
q18 13 69 67q24 26 129 142q452 512 576 663q169 206 188 266q9 27 49 64q27 31 74 65q63 45 96 33q7 0 14 -9t11.5 -30.5t1.5 -48.5q-11 -44 -12 -45q-63 -126 -191 -475q-23 -66 -299 -840q181 -71 281 -155q100 -87 88 -211q-7 -49 -31 -95q-19 -45 -65 -45
q-83 0 -74 152q6 84 -72 147q-78 65 -157 93q-100 -310 -152 -490q-37 -141 -70 -301q-93 -438 -32 -526q31 -48 20 -86l-4 -6q-5 -26 -33 -58q-32 -29 -63 -31zM1370 1329q174 -18 531 -94l6 12q57 129 278 783q68 214 80 276q1 5 4 6.5t7 0.5t7 -2.5t7 -4.5l4 -2
q-28 -21 -180 -176q-141 -144 -385 -406q-209 -222 -359 -393zM2286 3152q40 184 329 250q123 35 193 35q63 0 117 -41q62 -55 41 -148q-48 -126 -162 -219q-113 -90 -219 -104h-29q-49 0 -100 26q-56 31 -76 47q-8 5 -21 11q-9 5 -9 5.5t3 0.5q-12 0 -39 24
q-1 2 -10.5 19.5t-11.5 31.5q-14 27 -6 62zM2533 3207q-25 -33 -32 -66t16 -58t80 -25q42 0 137 59q139 88 154 162q5 14 -6 22q-34 17 -58 17q-122 0 -179.5 -22t-111.5 -89z" />
    <glyph glyph-name="AE" unicode="&#xc6;" horiz-adv-x="4589" 
d="M2318 961q205 290 373 491q139 169 477 535q38 38 70.5 73t85 91.5t96.5 103.5l25 -33q-8 -4 -17.5 -9.5t-24.5 -16t-27 -19t-35.5 -25.5t-38 -27.5t-47 -34.5t-50.5 -38q-362 -274 -545 -418q-132 -102 -870 -706q29 -4 131 -15t189.5 -24.5t148.5 -30.5q44 70 59 103z
M-131 729q21 50 51 94q119 154 574 201q451 48 995 -31l98 -14q19 -2 72 -23q14 4 258.5 200.5t396.5 324.5q412 335 828 694q252 225 280 289q13 25 74 69q133 94 199 88l4 -4q6 -1 15.5 -6t13 -3.5t3.5 13.5l-30 -41q44 67 76 89q33 26 83 26q85 0 107 -49q23 -47 14 -94
q-17 -49 -53 -72q-40 -29 -90 -29q-39 0 -57 -12q-36 -27 -76 -67q-78 -70 -82 -72q-3 -1 -2 2l-10 6q54 9 67 12q341 49 541 74q223 25 391 25q239 0 340 -39q111 -44 90 -150q-21 -72 -53 -104q-41 -41 -80 -41q-35 0 -50 23.5t-7 66.5q12 24 26 45q11 11 11 18
q4 17 -42.5 29.5t-153.5 19.5t-269 7q-213 0 -428 -31q-219 -32 -510 -96q-364 -371 -492 -508q-364 -397 -586 -717q-39 -56 -41 -59q-33 -13 -35 -10q-1 1 42 14q749 183 1077 155q137 -18 203 -69q60 -50 41 -111q-18 -70 -84 -67q-46 3 -88 63q-12 20 -25 27q0 4 -37 10
q-42 4 -55 8q-28 0 -68 6q-201 18 -483 -22q-273 -40 -522 -119l-20 -9q4 0 4 -1q-1 -1 -9 -6q-32 -18 -59 -58q-9 -11 -72 -119q-123 -219 -170 -407q-43 -200 39 -300.5t295 -107.5q256 0 688 172q453 182 1051 484q312 152 335 147q31 -8 45 -30.5t7 -53.5
q-4 -23 -21 -37q-32 -29 -260 -131q-225 -105 -504 -225q-277 -119 -477 -197q-598 -240 -852 -229l-51 2q-180 7 -273 106.5t-96 282.5q4 73 19 144q37 155 82 266q14 35 79 166q35 51 78 123q-82 21 -261.5 41t-213.5 30l-10 4q-5 0 -14 -1t-13 -1q-20 -5 -96 -69
q-397 -334 -655 -604q-212 -214 -248 -308q-2 -5 4 -24q17 -49 -2 -94q-27 -74 -98 -62q-95 16 -45 174q47 136 237 320q210 206 543 491q170 140 227 205q-225 37 -334 45q-727 47 -1140 -125l-43 -18q6 -38 12 -56q10 -34 -2 -61q-26 -54 -96 -68q-95 52 -72 160z" />
    <glyph glyph-name="Ccedilla" unicode="&#xc7;" horiz-adv-x="2441" 
d="M186 -956q-79 44 -123 225q-4 19 -11 42t-9.5 33.5t-1 24t11.5 25.5q36 33 68 20q5 -3 8.5 -6.5t6 -9.5t4 -10t3 -12.5t2 -13.5t1 -16.5t1.5 -17.5q25 -186 82 -225q15 -6 23 -6q7 1 1 -14q1 4 5 12q7 7 12 43q2 33 -4 76q-2 23 -15.5 93t-19.5 77q-18 21 -18 47
q4 26 23 47q0 1 82 124t114 165l6 8q-127 13 -207 59q-189 105 -245 275q-62 164 -9 415q36 166 105 320q228 427 655 829q380 340 834 604q455 260 663 260q51 -4 72 -14q29 -8 57 -47q25 -38 13 -102q-20 -104 -88 -236q-63 -111 -217 -287q-167 -187 -412 -405
q-251 -215 -451 -346q-219 -148 -319 -148q-62 0 -90 26t-19 75q11 43 49 69q40 25 129 58q217 81 631 424q398 323 580 585q91 123 100 170q6 29 -8.5 40t-60.5 11q-175 0 -551 -206q-383 -205 -750 -510q-484 -412 -743 -877q-34 -64 -47 -92q-22 -60 -29 -88
q-9 -31 -35 -139q-37 -173 -31 -213q0 -30 11 -62q58 -216 284 -317q48 -22 90 -27q58 -4 123 -4q12 6 21 6q14 3 26 -6q158 3 326 62q170 59 422 206q264 154 573 379q324 233 508 400q126 114 180 114q28 0 41 -26q18 -21 11 -52q-16 -58 -191 -190q-298 -235 -641 -459
q-336 -222 -596 -350q-348 -161 -608 -182q-10 -20 -12 -23q-1 -2 -22 -23.5t-51 -55t-63 -72.5t-64 -85.5t-48 -84.5q24 -211 18 -248q-6 -61 -45 -109q-27 -35 -59.5 -43t-61.5 11z" />
    <glyph glyph-name="Egrave" unicode="&#xc8;" horiz-adv-x="2600" 
d="M311 -338q-181 7 -273 107t-95 282q0 71 16 144q37 155 82 266q13 30 65 135h-10q-8 -2 -22 -2q-81 3 -117 30.5t-25 75.5q9 37 41 66q32 28 78 35q133 20 189 49q30 24 143 186q140 203 319 416q127 158 476 535q125 125 133 147q0 -3 3.5 -7.5t8.5 -4.5q-16 0 -111 -29
q-338 -99 -518 -227q-90 -72 -149 -72q-53 3 -96 43q-42 42 -35 92q18 72 137 99q637 184 897 245l72 76q133 142 192 229q39 62 76 91q29 26 84 26q79 -3 106 -49q23 -48 15 -94q-15 -44 -54 -72q-37 -29 -88 -29h-22q-25 0 -39 -12q-28 -21 -74 -67q-78 -70 -82 -72
q-3 -1 -2 2l-10 6q57 10 68 12q357 52 536 72q218 27 393 27q240 0 338 -39q116 -44 95 -148q-11 -60 -54 -106q-41 -41 -82 -41q-32 0 -47 29q-15 23 -8 61l10 20t15 25q12 15 12 18q4 17 -42.5 29.5t-154 19.5t-270.5 7q-209 0 -428 -31q-219 -32 -508 -96
q-334 -341 -491 -508q-350 -377 -586 -717q-36 -50 -39 -51q-2 0 0 8h-21q30 0 101 27q744 248 1077 248q143 -6 213 -52q66 -43 51 -104q-4 -18 -26 -53q-18 -21 -54 -21q-48 0 -92 53q-22 31 -72 31q-86 4 -120 4q-216 0 -490 -65q-303 -69 -520 -160q-60 -25 -109 -53
q-35 -22 -59 -60q-13 -18 -72 -119q-123 -219 -170 -407q-43 -201 38 -301t294 -107q258 0 690 172q453 182 1051 484q310 153 338 147q24 -6 43 -33q12 -25 6 -53q-8 -25 -20 -35q-46 -32 -261 -131q-237 -110 -503 -225q-267 -115 -478 -197q-598 -240 -852 -229z
M2443 3408q10 42 45 63q34 27 70 27q29 0 49 -20q19 -22 10 -62q-9 -26 -16 -35q-10 -10 -10 -14q-4 -20 4.5 -65t44.5 -193q12 -46 18.5 -75t19.5 -82.5t25 -104.5q3 -14 21 -35.5t16 -30.5q-6 -22 -33 -43q-27 -18 -51 -18q-27 0 -37 16q-13 19 -34 131q-34 201 -54 302.5
t-27.5 125t-15.5 33.5q-7 7 -17 16q-8 9 -3 9q-19 0 -25 22q-4 10 0 33z" />
    <glyph glyph-name="Eacute" unicode="&#xc9;" horiz-adv-x="2600" 
d="M311 -338q-181 7 -273 107t-95 282q0 71 16 144q37 155 82 266q13 30 65 135h-10q-8 -2 -22 -2q-81 3 -117 30.5t-25 75.5q9 37 41 66q32 28 78 35q133 20 189 49q30 24 143 186q140 203 319 416q127 158 476 535q125 125 133 147q0 -3 3.5 -7.5t8.5 -4.5q-16 0 -111 -29
q-338 -99 -518 -227q-90 -72 -149 -72q-53 3 -96 43q-42 42 -35 92q18 72 137 99q637 184 897 245l72 76q133 142 192 229q39 62 76 91q29 26 84 26q79 -3 106 -49q23 -48 15 -94q-15 -44 -54 -72q-37 -29 -88 -29h-22q-25 0 -39 -12q-28 -21 -74 -67q-78 -70 -82 -72
q-3 -1 -2 2l-10 6q57 10 68 12q357 52 536 72q218 27 393 27q240 0 338 -39q116 -44 95 -148q-11 -60 -54 -106q-41 -41 -82 -41q-32 0 -47 29q-15 23 -8 61l10 20t15 25q12 15 12 18q4 17 -42.5 29.5t-154 19.5t-270.5 7q-209 0 -428 -31q-219 -32 -508 -96
q-334 -341 -491 -508q-350 -377 -586 -717q-36 -50 -39 -51q-2 0 0 8h-21q30 0 101 27q744 248 1077 248q143 -6 213 -52q66 -43 51 -104q-4 -18 -26 -53q-18 -21 -54 -21q-48 0 -92 53q-22 31 -72 31q-86 4 -120 4q-216 0 -490 -65q-303 -69 -520 -160q-60 -25 -109 -53
q-35 -22 -59 -60q-13 -18 -72 -119q-123 -219 -170 -407q-43 -201 38 -301t294 -107q258 0 690 172q453 182 1051 484q310 153 338 147q24 -6 43 -33q12 -25 6 -53q-8 -25 -20 -35q-46 -32 -261 -131q-237 -110 -503 -225q-267 -115 -478 -197q-598 -240 -852 -229z
M2425 2875q9 34 51 62q27 13 198.5 161t239.5 220q49 49 88 49q19 0 37 -12q16 -20 13 -43q-6 -30 -66 -64q-71 -48 -228 -183t-153 -147v-6q5 -11 2 -35q-3 -33 -43 -57q-34 -21 -59 -24q-31 0 -58 18q-25 23 -22 61z" />
    <glyph glyph-name="Ecircumflex" unicode="&#xca;" horiz-adv-x="2600" 
d="M311 -338q-181 7 -273 107t-95 282q0 71 16 144q37 155 82 266q13 30 65 135h-10q-8 -2 -22 -2q-81 3 -117 30.5t-25 75.5q9 37 41 66q32 28 78 35q133 20 189 49q30 24 143 186q140 203 319 416q127 158 476 535q125 125 133 147q0 -3 3.5 -7.5t8.5 -4.5q-16 0 -111 -29
q-338 -99 -518 -227q-90 -72 -149 -72q-53 3 -96 43q-42 42 -35 92q18 72 137 99q637 184 897 245l72 76q133 142 192 229q39 62 76 91q29 26 84 26q79 -3 106 -49q23 -48 15 -94q-15 -44 -54 -72q-37 -29 -88 -29h-22q-25 0 -39 -12q-28 -21 -74 -67q-78 -70 -82 -72
q-3 -1 -2 2l-10 6q57 10 68 12q357 52 536 72q218 27 393 27q240 0 338 -39q116 -44 95 -148q-11 -60 -54 -106q-41 -41 -82 -41q-32 0 -47 29q-15 23 -8 61l10 20t15 25q12 15 12 18q4 17 -42.5 29.5t-154 19.5t-270.5 7q-209 0 -428 -31q-219 -32 -508 -96
q-334 -341 -491 -508q-350 -377 -586 -717q-36 -50 -39 -51q-2 0 0 8h-21q30 0 101 27q744 248 1077 248q143 -6 213 -52q66 -43 51 -104q-4 -18 -26 -53q-18 -21 -54 -21q-48 0 -92 53q-22 31 -72 31q-86 4 -120 4q-216 0 -490 -65q-303 -69 -520 -160q-60 -25 -109 -53
q-35 -22 -59 -60q-13 -18 -72 -119q-123 -219 -170 -407q-43 -201 38 -301t294 -107q258 0 690 172q453 182 1051 484q310 153 338 147q24 -6 43 -33q12 -25 6 -53q-8 -25 -20 -35q-46 -32 -261 -131q-237 -110 -503 -225q-267 -115 -478 -197q-598 -240 -852 -229z
M2228 2826q8 30 66 101q53 58 224.5 221t188.5 176q65 59 113 59q27 0 37 -10q15 -13 21 -45.5t-3 -97.5q-28 -145 -40.5 -219t-12.5 -90.5t4 -22.5q22 -28 19 -55q-12 -50 -74 -50q-51 0 -55 43q-5 41 67 375q9 47 33 76q5 0 0 -2q-10 -5 -16 -10q-29 -24 -83 -72.5
t-124.5 -115.5t-123.5 -130.5t-59 -95.5q-15 -64 -69 -88q-31 -14 -49 -14q-26 0 -47 18q-20 20 -17 49z" />
    <glyph glyph-name="Edieresis" unicode="&#xcb;" horiz-adv-x="2600" 
d="M311 -338q-181 7 -273 107t-95 282q0 71 16 144q37 155 82 266q13 30 65 135h-10q-8 -2 -22 -2q-81 3 -117 30.5t-25 75.5q9 37 41 66q32 28 78 35q133 20 189 49q30 24 143 186q140 203 319 416q127 158 476 535q125 125 133 147q0 -3 3.5 -7.5t8.5 -4.5q-16 0 -111 -29
q-338 -99 -518 -227q-90 -72 -149 -72q-53 3 -96 43q-42 42 -35 92q18 72 137 99q637 184 897 245l72 76q133 142 192 229q39 62 76 91q29 26 84 26q79 -3 106 -49q23 -48 15 -94q-15 -44 -54 -72q-37 -29 -88 -29h-22q-25 0 -39 -12q-28 -21 -74 -67q-78 -70 -82 -72
q-3 -1 -2 2l-10 6q57 10 68 12q357 52 536 72q218 27 393 27q240 0 338 -39q116 -44 95 -148q-11 -60 -54 -106q-41 -41 -82 -41q-32 0 -47 29q-15 23 -8 61l10 20t15 25q12 15 12 18q4 17 -42.5 29.5t-154 19.5t-270.5 7q-209 0 -428 -31q-219 -32 -508 -96
q-334 -341 -491 -508q-350 -377 -586 -717q-36 -50 -39 -51q-2 0 0 8h-21q30 0 101 27q744 248 1077 248q143 -6 213 -52q66 -43 51 -104q-4 -18 -26 -53q-18 -21 -54 -21q-48 0 -92 53q-22 31 -72 31q-86 4 -120 4q-216 0 -490 -65q-303 -69 -520 -160q-60 -25 -109 -53
q-35 -22 -59 -60q-13 -18 -72 -119q-123 -219 -170 -407q-43 -201 38 -301t294 -107q258 0 690 172q453 182 1051 484q310 153 338 147q24 -6 43 -33q12 -25 6 -53q-8 -25 -20 -35q-46 -32 -261 -131q-237 -110 -503 -225q-267 -115 -478 -197q-598 -240 -852 -229z
M2167 2939q10 42 65 100q61 45 127 45q47 0 84 -30q36 -36 27 -78q-14 -57 -88 -103q-62 -41 -127 -41q-48 0 -76 35q-19 31 -12 72zM2656 2959q11 44 68 101q57 45 125 45q57 0 84 -31q36 -36 28 -78q-14 -56 -90 -104q-70 -39 -125 -39q-47 0 -75 35q-20 38 -15 71z" />
    <glyph glyph-name="Igrave" unicode="&#xcc;" horiz-adv-x="735" 
d="M-129 -367q-16 0 -59 25q-58 25 -74 82q-12 50 12 168q68 316 402 831q310 479 862 1168q401 508 409 524l13 -12l15 5q5 1 -1 -5q-154 -136 -352 -344q-180 -189 -322 -363q-136 -171 -147 -219q-2 -4 -19 -47q-24 -52 -92 -82q-50 -21 -92 -21q-43 3 -74 31
q-32 28 -26 66q26 66 428 487q364 379 651 623q140 119 186 133q24 4 41 4q57 -3 51 -68q-15 -52 -96 -153q-166 -214 -362 -445q-583 -697 -903 -1177q-354 -529 -437 -920q-15 -77 -8 -100q3 -22 27 -27q42 -8 63 -30t15 -56q-18 -66 -111 -78zM1622 3463q11 44 47 66
q32 26 70 26q29 0 49 -20q19 -22 10 -62q-10 -24 -16 -32q-10 -13 -10 -17q-4 -20 4.5 -65t44.5 -193q12 -46 18.5 -75t19.5 -82.5t25 -104.5q3 -14 21 -35t16 -30q-6 -22 -33 -43q-29 -19 -51 -19q-26 0 -39 16q-11 11 -33 132q-35 202 -54 302.5t-26.5 124.5t-15.5 33
q-7 7 -17 16q-8 9 -3 9q-19 0 -25 22q-2 5 -2 31z" />
    <glyph glyph-name="Iacute" unicode="&#xcd;" horiz-adv-x="735" 
d="M-129 -367q-16 0 -59 25q-58 25 -74 82q-12 50 12 168q68 316 402 831q310 479 862 1168q401 508 409 524l13 -12l15 5q5 1 -1 -5q-154 -136 -352 -344q-180 -189 -322 -363q-136 -171 -147 -219q-2 -4 -19 -47q-24 -52 -92 -82q-50 -21 -92 -21q-43 3 -74 31
q-32 28 -26 66q26 66 428 487q364 379 651 623q140 119 186 133q24 4 41 4q57 -3 51 -68q-15 -52 -96 -153q-166 -214 -362 -445q-583 -697 -903 -1177q-354 -529 -437 -920q-15 -77 -8 -100q3 -22 27 -27q42 -8 63 -30t15 -56q-18 -66 -111 -78zM1606 2933q9 33 51 61
q26 13 197 160.5t241 220.5q49 49 88 49q19 0 37 -12q15 -19 12 -43q-6 -31 -65 -64q-70 -47 -225 -178.5t-156 -148.5q-1 -4 -2 -3v-1q8 -8 4 -39q-1 -15 -13.5 -31t-29.5 -27q-34 -21 -62 -24q-28 0 -55 18q-25 23 -22 62z" />
    <glyph glyph-name="Icircumflex" unicode="&#xce;" horiz-adv-x="735" 
d="M-129 -367q-16 0 -59 25q-58 25 -74 82q-12 50 12 168q68 316 402 831q310 479 862 1168q401 508 409 524l13 -12l15 5q5 1 -1 -5q-154 -136 -352 -344q-180 -189 -322 -363q-136 -171 -147 -219q-2 -4 -19 -47q-24 -52 -92 -82q-50 -21 -92 -21q-43 3 -74 31
q-32 28 -26 66q26 66 428 487q364 379 651 623q140 119 186 133q24 4 41 4q57 -3 51 -68q-15 -52 -96 -153q-166 -214 -362 -445q-583 -697 -903 -1177q-354 -529 -437 -920q-15 -77 -8 -100q3 -22 27 -27q42 -8 63 -30t15 -56q-18 -66 -111 -78zM1409 2884q7 27 64 100
q54 58 226.5 221.5t188.5 175.5q66 60 113 60q26 0 37 -11q15 -13 21 -45.5t-3 -97.5q-28 -145 -40.5 -219t-12.5 -90.5t4 -22.5q21 -27 18 -55q-12 -49 -73 -49q-52 0 -56 43q-4 38 68 375q9 47 33 75q5 0 0 -2q-11 -5 -17 -10q-45 -37 -123 -107.5t-168 -168t-98 -138.5
q-15 -64 -69 -88q-32 -14 -49 -14q-27 0 -48 18q-19 19 -16 50z" />
    <glyph glyph-name="Idieresis" unicode="&#xcf;" horiz-adv-x="735" 
d="M-129 -367q-16 0 -59 25q-58 25 -74 82q-12 50 12 168q68 316 402 831q310 479 862 1168q401 508 409 524l13 -12l15 5q5 1 -1 -5q-154 -136 -352 -344q-180 -189 -322 -363q-136 -171 -147 -219q-2 -4 -19 -47q-24 -52 -92 -82q-50 -21 -92 -21q-43 3 -74 31
q-32 28 -26 66q26 66 428 487q364 379 651 623q140 119 186 133q24 4 41 4q57 -3 51 -68q-15 -52 -96 -153q-166 -214 -362 -445q-583 -697 -903 -1177q-354 -529 -437 -920q-15 -77 -8 -100q3 -22 27 -27q42 -8 63 -30t15 -56q-18 -66 -111 -78zM1348 2996q10 43 65 101
q61 45 127 45q45 0 84 -31q16 -14 23.5 -36t1.5 -42q-10 -55 -86 -102q-62 -41 -127 -41q-48 0 -76 35q-18 30 -12 71zM1837 3017q10 42 68 100q57 45 125 45q57 0 84 -31q36 -36 28 -77q-14 -57 -90 -105q-70 -39 -125 -39q-48 0 -76 35q-19 37 -14 72z" />
    <glyph glyph-name="Eth" unicode="&#xd0;" horiz-adv-x="2811" 
d="M442 -217q-38 0 -80 20q-44 25 -59 74q-20 56 0 135l19 64q79 293 663 1026q-77 -6 -137 -23q-80 -24 -123 -24q-33 0 -57 18q-30 26 -21 62q11 53 68 90q55 30 114 30q29 0 56 -6q43 -14 209 -14q175 213 479 567q95 110 203 240q-55 -21 -220 -92q-415 -186 -788 -473
q-281 -221 -416 -408q-59 -73 -65 -111q-8 -25 16 -49q37 -37 29 -78q-9 -42 -58 -67q-44 -29 -106 -29q-70 0 -111 47q-43 46 -34 105q38 143 215 338q182 201 485 415q340 244 600 365q197 93 662 270q163 211 172 262q16 59 59 89q46 30 96 30q63 0 92 -39q39 -36 29 -98
q-12 -60 -96 -92q-14 -6 -62 -39q-42 -31 -75 -64q-32 -25 -33 -28v24q6 1 133 27q284 59 496 59q285 0 434 -110q154 -114 104 -336q-52 -238 -328 -582q-271 -337 -727 -725q-442 -370 -798 -563q-351 -184 -533 -184q-144 0 -182 117q-7 14 0 53q23 101 84 196
q57 87 207 215q516 425 1065 566q113 26 178 26q62 0 84 -28q21 -25 18 -56q-4 -17 -24 -37q-16 -21 -64 -38q-47 -14 -131 -31q-354 -74 -733 -299q-230 -137 -399 -281q-169 -138 -181 -211q-8 -33 21 -59q27 -27 92 -27q205 0 631 260q415 250 860 654q675 641 745 987
q33 142 -45 229q-49 55 -106 80q-109 31 -281 31q-171 0 -420 -47q-308 -61 -370 -97q-67 -45 -307 -315q-257 -291 -471 -559q229 0 245 -12q32 -22 25 -62q-4 -22 -33 -55q-39 -27 -72 -27q-26 0 -67 8l-94 13q-53 6 -107 6q-602 -766 -663 -1063q-12 -56 -7 -74
q8 -15 39 -26q37 -12 54 -36t10 -54q-7 -35 -41 -52q-27 -18 -66 -18z" />
    <glyph glyph-name="Ntilde" unicode="&#xd1;" horiz-adv-x="2764" 
d="M-41 -203q-65 0 -102 92q-23 89 -11 154q31 137 238 457q176 282 696 1001q508 700 652 957q81 140 124 180q47 47 136 47q52 0 78 -21.5t22 -62.5q-12 -56 -72 -113q-120 -115 -405 -475q-320 -409 -584 -772q-535 -736 -655 -1005q-44 -87 -72 -199q-3 -7 -16 4
q-9 8 -2 8q1 0 11 9t31.5 33t47.5 56l307 373q950 1178 1561 1725q373 350 471 350q48 0 67 -8q68 -28 49 -189q-31 -145 -260 -643q-417 -915 -489 -1239q-27 -126 -10 -180.5t79 -54.5h9q206 34 700 497q110 105 173 155.5t91 51.5q29 0 47 -18q17 -17 17 -45
q-3 -24 -49.5 -73.5t-145.5 -139.5q-562 -485 -813 -525h-22q-93 0 -129.5 79t-10.5 231l15 86q24 145 126.5 407.5t290.5 675.5q165 383 181 422q72 179 94 276q16 105 4 109q-33 -9 -162 -111q-133 -104 -315 -280q-671 -614 -1428 -1608q-332 -434 -352 -504l2 -14
q-6 -38 -33 -72q-25 -31 -55 -49q-72 -35 -113 -35h-14zM1985 2992q6 23 30 107q15 42 54 67.5t98 26.5q87 0 291 -121q85 -53 100 -53q4 0 -7 -7q-4 -3 -5 -3q-1 -5 -2.5 -6t-3 0.5t-6.5 7.5q-2 2 -3 3.5t-3.5 4.5l-5 6t-5.5 6q-47 60 -37 102q4 17 35 52q33 27 63 37
q27 16 58 16q50 0 90 -43q52 -40 43 -92q-4 -16 -31 -68q-18 -56 -72 -106q-40 -43 -86 -43q-33 0 -198 104q-140 87 -246 107q16 -58 10 -91q-9 -41 -34.5 -64.5t-63.5 -23.5q-34 3 -51 23t-12 51z" />
    <glyph glyph-name="Ograve" unicode="&#xd2;" horiz-adv-x="2975" 
d="M981 -53q-113 0 -160 41q-49 40 -71 125q-18 36 -15 82q2 27 23 137q28 136 57 211l14 35q-57 -1 -172 -4.5t-174 -4.5q-139 0 -219 15q-81 13 -139 47q-61 25 -83 83.5t-3 145.5q30 140 201 314q157 159 413 333q481 325 1098 533l145 51l74 76q285 309 397 389
q44 35 101 35q86 0 117 -58q36 -52 24 -108q-21 -102 -153 -105l-64 4q-8 4 -33 7l-92 -84q-118 -110 -126 -123q-3 -4 -1 -6q-2 -11 -9 9q-4 11 -3 11q13 0 37 8q39 10 127 13q91 6 190 6q131 0 170 -2q180 -6 338 -99q60 -35 113 -100q72 -90 88 -190q6 -44 -19 -162
q-17 -79 -41 -135q-14 -39 -51 -107q-70 -113 -143 -201q-108 -123 -154 -170h74q119 0 175.5 -27t47.5 -85q-7 -32 -31 -53q-21 -27 -61 -27q-35 0 -51 14q-1 0 -43 13q-48 10 -76 8l-199 -6l-172 -129q-759 -567 -1251 -732q-118 -28 -215 -28zM92 842q-14 -57 53 -107
q104 -73 334 -73q127 0 320 18l80 6q195 348 342 557q187 278 475 612q11 13 73 92q15 20 15 11q6 27 18 10q11 -15 6 -26q-2 -2 -4 -3q-20 0 -112 -34q-730 -268 -1227 -652q-325 -247 -373 -411zM842 276q-23 -115 15 -166t147 -51q242 0 725 279q315 179 610 412
q33 25 56.5 45t32 29t7.5 10q3 10 9 -6q6 -15 1 -15q-84 0 -766 -104q-652 -96 -716 -113q-13 -13 -33 -57q-21 -46 -53 -129q-16 -55 -35 -134zM1010 684q1 7 -5.5 11.5t-11.5 2.5q47 16 103 19q7 1 28.5 5t65 12.5t84.5 15.5q1011 184 1354 237q201 198 315 346
q110 139 141 285q43 197 -114 315q-166 123 -480 123q-130 0 -264 -20q-136 -20 -182 -33q-71 -38 -258 -258q-212 -242 -412 -510q-212 -278 -321 -465q-43 -68 -43 -86zM2925 3232q9 38 47 63q34 27 69 27q26 0 47 -21q19 -25 13 -61q-3 -18 -19 -33l-8 -16
q-2 -6 -2.5 -12.5t0.5 -17.5t3.5 -23t7.5 -34.5t10.5 -46.5t15.5 -64.5t20.5 -82.5t26 -107t31.5 -132q3 -14 21 -35.5t16 -30.5q-6 -22 -33 -43q-27 -18 -53 -18q-24 0 -37 16q-11 11 -33 131q-35 203 -54 303t-26.5 124.5t-15.5 33.5q-8 8 -19 17q-6 7 -2 7q-9 0 -17 7.5
t-9 17.5q-3 14 0 31z" />
    <glyph glyph-name="Oacute" unicode="&#xd3;" horiz-adv-x="2975" 
d="M981 -53q-113 0 -160 41q-49 40 -71 125q-18 36 -15 82q2 27 23 137q28 136 57 211l14 35q-57 -1 -172 -4.5t-174 -4.5q-139 0 -219 15q-81 13 -139 47q-61 25 -83 83.5t-3 145.5q30 140 201 314q157 159 413 333q481 325 1098 533l145 51l74 76q285 309 397 389
q44 35 101 35q86 0 117 -58q36 -52 24 -108q-21 -102 -153 -105l-64 4q-8 4 -33 7l-92 -84q-118 -110 -126 -123q-3 -4 -1 -6q-2 -11 -9 9q-4 11 -3 11q13 0 37 8q39 10 127 13q91 6 190 6q131 0 170 -2q180 -6 338 -99q60 -35 113 -100q72 -90 88 -190q6 -44 -19 -162
q-17 -79 -41 -135q-14 -39 -51 -107q-70 -113 -143 -201q-108 -123 -154 -170h74q119 0 175.5 -27t47.5 -85q-7 -32 -31 -53q-21 -27 -61 -27q-35 0 -51 14q-1 0 -43 13q-48 10 -76 8l-199 -6l-172 -129q-759 -567 -1251 -732q-118 -28 -215 -28zM92 842q-14 -57 53 -107
q104 -73 334 -73q127 0 320 18l80 6q195 348 342 557q187 278 475 612q11 13 73 92q15 20 15 11q6 27 18 10q11 -15 6 -26q-2 -2 -4 -3q-20 0 -112 -34q-730 -268 -1227 -652q-325 -247 -373 -411zM842 276q-23 -115 15 -166t147 -51q242 0 725 279q315 179 610 412
q33 25 56.5 45t32 29t7.5 10q3 10 9 -6q6 -15 1 -15q-84 0 -766 -104q-652 -96 -716 -113q-13 -13 -33 -57q-21 -46 -53 -129q-16 -55 -35 -134zM1010 684q1 7 -5.5 11.5t-11.5 2.5q47 16 103 19q7 1 28.5 5t65 12.5t84.5 15.5q1011 184 1354 237q201 198 315 346
q110 139 141 285q43 197 -114 315q-166 123 -480 123q-130 0 -264 -20q-136 -20 -182 -33q-71 -38 -258 -258q-212 -242 -412 -510q-212 -278 -321 -465q-43 -68 -43 -86zM2908 2699q9 36 51 62q26 13 197.5 160.5t241.5 220.5q49 49 86 49q21 0 37 -13q20 -20 14 -43
q-6 -29 -66 -63q-69 -47 -224.5 -179t-156.5 -149q-1 -4 -2 -3v-1q10 -10 4 -39q-12 -40 -45 -57q-31 -21 -59 -25q-26 0 -55 19q-32 25 -23 61z" />
    <glyph glyph-name="Ocircumflex" unicode="&#xd4;" horiz-adv-x="2975" 
d="M981 -53q-113 0 -160 41q-49 40 -71 125q-18 36 -15 82q2 27 23 137q28 136 57 211l14 35q-57 -1 -172 -4.5t-174 -4.5q-139 0 -219 15q-81 13 -139 47q-61 25 -83 83.5t-3 145.5q30 140 201 314q157 159 413 333q481 325 1098 533l145 51l74 76q285 309 397 389
q44 35 101 35q86 0 117 -58q36 -52 24 -108q-21 -102 -153 -105l-64 4q-8 4 -33 7l-92 -84q-118 -110 -126 -123q-3 -4 -1 -6q-2 -11 -9 9q-4 11 -3 11q13 0 37 8q39 10 127 13q91 6 190 6q131 0 170 -2q180 -6 338 -99q60 -35 113 -100q72 -90 88 -190q6 -44 -19 -162
q-17 -79 -41 -135q-14 -39 -51 -107q-70 -113 -143 -201q-108 -123 -154 -170h74q119 0 175.5 -27t47.5 -85q-7 -32 -31 -53q-21 -27 -61 -27q-35 0 -51 14q-1 0 -43 13q-48 10 -76 8l-199 -6l-172 -129q-759 -567 -1251 -732q-118 -28 -215 -28zM92 842q-14 -57 53 -107
q104 -73 334 -73q127 0 320 18l80 6q195 348 342 557q187 278 475 612q11 13 73 92q15 20 15 11q6 27 18 10q11 -15 6 -26q-2 -2 -4 -3q-20 0 -112 -34q-730 -268 -1227 -652q-325 -247 -373 -411zM842 276q-23 -115 15 -166t147 -51q242 0 725 279q315 179 610 412
q33 25 56.5 45t32 29t7.5 10q3 10 9 -6q6 -15 1 -15q-84 0 -766 -104q-652 -96 -716 -113q-13 -13 -33 -57q-21 -46 -53 -129q-16 -55 -35 -134zM1010 684q1 7 -5.5 11.5t-11.5 2.5q47 16 103 19q7 1 28.5 5t65 12.5t84.5 15.5q1011 184 1354 237q201 198 315 346
q110 139 141 285q43 197 -114 315q-166 123 -480 123q-130 0 -264 -20q-136 -20 -182 -33q-71 -38 -258 -258q-212 -242 -412 -510q-212 -278 -321 -465q-43 -68 -43 -86zM2712 2650q8 30 63 98q27 31 96 98.5t134.5 130t122.5 116t59 55.5q71 59 116 59q25 0 37 -12
q13 -13 19 -45t0 -96q-62 -316 -51 -332q26 -26 18 -56q-9 -49 -72 -49q-48 0 -55 41q-3 18 9 86.5t59 290.5q9 43 31 74l-1 2q6 0 2 -2q-13 -8 -16 -10q-45 -37 -123 -107.5t-168.5 -168t-99.5 -138.5q-12 -62 -68 -88q-35 -14 -51 -14q-23 0 -45 18q-19 19 -16 49z" />
    <glyph glyph-name="Otilde" unicode="&#xd5;" horiz-adv-x="2975" 
d="M981 -53q-113 0 -160 41q-49 40 -71 125q-18 36 -15 82q2 27 23 137q28 136 57 211l14 35q-57 -1 -172 -4.5t-174 -4.5q-139 0 -219 15q-81 13 -139 47q-61 25 -83 83.5t-3 145.5q30 140 201 314q157 159 413 333q481 325 1098 533l145 51l74 76q285 309 397 389
q44 35 101 35q86 0 117 -58q36 -52 24 -108q-21 -102 -153 -105l-64 4q-8 4 -33 7l-92 -84q-118 -110 -126 -123q-3 -4 -1 -6q-2 -11 -9 9q-4 11 -3 11q13 0 37 8q39 10 127 13q91 6 190 6q131 0 170 -2q180 -6 338 -99q60 -35 113 -100q72 -90 88 -190q6 -44 -19 -162
q-17 -79 -41 -135q-14 -39 -51 -107q-70 -113 -143 -201q-108 -123 -154 -170h74q119 0 175.5 -27t47.5 -85q-7 -32 -31 -53q-21 -27 -61 -27q-35 0 -51 14q-1 0 -43 13q-48 10 -76 8l-199 -6l-172 -129q-759 -567 -1251 -732q-118 -28 -215 -28zM92 842q-14 -57 53 -107
q104 -73 334 -73q127 0 320 18l80 6q195 348 342 557q187 278 475 612q11 13 73 92q15 20 15 11q6 27 18 10q11 -15 6 -26q-2 -2 -4 -3q-20 0 -112 -34q-730 -268 -1227 -652q-325 -247 -373 -411zM842 276q-23 -115 15 -166t147 -51q242 0 725 279q315 179 610 412
q33 25 56.5 45t32 29t7.5 10q3 10 9 -6q6 -15 1 -15q-84 0 -766 -104q-652 -96 -716 -113q-13 -13 -33 -57q-21 -46 -53 -129q-16 -55 -35 -134zM1010 684q1 7 -5.5 11.5t-11.5 2.5q47 16 103 19q7 1 28.5 5t65 12.5t84.5 15.5q1011 184 1354 237q201 198 315 346
q110 139 141 285q43 197 -114 315q-166 123 -480 123q-130 0 -264 -20q-136 -20 -182 -33q-71 -38 -258 -258q-212 -242 -412 -510q-212 -278 -321 -465q-43 -68 -43 -86zM2710 2812q5 30 30 106q14 42 53.5 68t96.5 27q90 0 291 -121q87 -53 102 -53q4 0 -10 -13
q-6 -5 -6 -2q-1 -5 -10 6q-10 13 -17 21q-45 58 -37 102q6 20 37 51q29 26 61 37q28 17 58 17q49 0 92 -43q53 -40 41 -93q-1 -10 -31 -67q-20 -62 -72 -107q-40 -43 -86 -43q-29 0 -196 105q-129 80 -246 106q15 -55 8 -90q-9 -41 -34 -64.5t-62 -23.5q-36 3 -52.5 23.5
t-10.5 50.5z" />
    <glyph glyph-name="Odieresis" unicode="&#xd6;" horiz-adv-x="2975" 
d="M981 -53q-113 0 -160 41q-49 40 -71 125q-18 36 -15 82q2 27 23 137q28 136 57 211l14 35q-57 -1 -172 -4.5t-174 -4.5q-139 0 -219 15q-81 13 -139 47q-61 25 -83 83.5t-3 145.5q30 140 201 314q157 159 413 333q481 325 1098 533l145 51l74 76q285 309 397 389
q44 35 101 35q86 0 117 -58q36 -52 24 -108q-21 -102 -153 -105l-64 4q-8 4 -33 7l-92 -84q-118 -110 -126 -123q-3 -4 -1 -6q-2 -11 -9 9q-4 11 -3 11q13 0 37 8q39 10 127 13q91 6 190 6q131 0 170 -2q180 -6 338 -99q60 -35 113 -100q72 -90 88 -190q6 -44 -19 -162
q-17 -79 -41 -135q-14 -39 -51 -107q-70 -113 -143 -201q-108 -123 -154 -170h74q119 0 175.5 -27t47.5 -85q-7 -32 -31 -53q-21 -27 -61 -27q-35 0 -51 14q-1 0 -43 13q-48 10 -76 8l-199 -6l-172 -129q-759 -567 -1251 -732q-118 -28 -215 -28zM92 842q-14 -57 53 -107
q104 -73 334 -73q127 0 320 18l80 6q195 348 342 557q187 278 475 612q11 13 73 92q15 20 15 11q6 27 18 10q11 -15 6 -26q-2 -2 -4 -3q-20 0 -112 -34q-730 -268 -1227 -652q-325 -247 -373 -411zM842 276q-23 -115 15 -166t147 -51q242 0 725 279q315 179 610 412
q33 25 56.5 45t32 29t7.5 10q3 10 9 -6q6 -15 1 -15q-84 0 -766 -104q-652 -96 -716 -113q-13 -13 -33 -57q-21 -46 -53 -129q-16 -55 -35 -134zM1010 684q1 7 -5.5 11.5t-11.5 2.5q47 16 103 19q7 1 28.5 5t65 12.5t84.5 15.5q1011 184 1354 237q201 198 315 346
q110 139 141 285q43 197 -114 315q-166 123 -480 123q-130 0 -264 -20q-136 -20 -182 -33q-71 -38 -258 -258q-212 -242 -412 -510q-212 -278 -321 -465q-43 -68 -43 -86zM2650 2763q12 49 66 100q57 45 127 45q46 0 82 -31q33 -29 26 -77q-11 -57 -86 -103
q-65 -41 -127 -41q-48 0 -76 35q-21 41 -12 72zM3140 2783q13 53 69 101q54 45 123 45q53 0 84 -31q37 -37 27 -78q-11 -55 -88 -104q-70 -39 -125 -39q-53 0 -76 37q-19 32 -14 69z" />
    <glyph glyph-name="multiply" unicode="&#xd7;" horiz-adv-x="1021" 
d="M819 412q-36 0 -67 39l-234 350q-70 -65 -117 -135q-37 -48 -41 -72q-3 -14 0 -33q4 -27 0 -45q-14 -67 -106 -70q-49 0 -72.5 22t-15.5 62q14 60 88 150q91 98 199 209q-64 101 -97 143q-40 51 -45 51q-28 0 -49 25q-17 17 -33 49q-10 26 -6 60q9 41 64 75q50 35 100 35
q49 0 88 -31q46 -37 35 -86l-10 -41q-7 -30 6 -67q11 -44 33 -84q10 -23 14 -27h2q26 21 72 72q83 99 90 108q38 52 51 78q56 125 176 125q60 -3 88.5 -28t20.5 -66q-15 -62 -119 -125q-52 -34 -123 -90q-53 -41 -139 -119q-55 -55 -60 -65q4 -18 45 -70q111 -148 209 -236
q46 -49 41 -83q-22 -80 -88 -80z" />
    <glyph glyph-name="Oslash" unicode="&#xd8;" horiz-adv-x="2975" 
d="M981 -53q-43 0 -80 6l-10 -14q-22 -31 -33 -58q-2 -6 12 -20q16 -37 11 -56q-3 -21 -27 -61q-28 -41 -76 -78q-62 -51 -94 -26q-7 -7 -18 -7l-13 5q-36 18 -39.5 56.5t21.5 94.5t78 135l31.5 45t41.5 56q-18 28 -36 88q-18 36 -15 82q2 27 23 137q28 136 57 211l14 35
q-57 -1 -172 -4.5t-174 -4.5q-139 0 -219 15q-81 13 -139 47q-61 25 -83 83.5t-3 145.5q30 140 201 314q157 159 413 333q481 325 1098 533l145 51l74 76q285 309 397 389q44 35 101 35q86 0 117 -58q36 -52 24 -108q-21 -102 -153 -105l-64 4q-8 4 -33 7l-92 -84
q-118 -110 -126 -123q-3 -4 -1 -6q-2 -11 -9 9q-4 11 -3 11q13 0 37 8q39 10 127 13q91 6 190 6q131 0 170 -2q180 -6 338 -99l-4 2q69 59 121 111q70 67 84 88q11 13 18 31q9 22 21 39q40 60 116 123q111 94 183 59q53 -32 35 -115q-15 -72 -66 -143q-54 -80 -127 -123
q-76 -51 -137 -20q-2 1 -21 -11q-32 -14 -98 -69l-45 -35q23 -23 33 -37q72 -90 88 -190q6 -44 -19 -162q-17 -79 -41 -135q-14 -39 -51 -107q-70 -113 -143 -201q-108 -123 -154 -170h74q119 0 175.5 -27t47.5 -85q-7 -32 -31 -53q-21 -27 -61 -27q-35 0 -51 14
q-1 0 -43 13q-48 10 -76 8l-199 -6l-172 -129q-759 -567 -1251 -732q-118 -28 -215 -28zM92 842q-14 -57 53 -107q104 -73 334 -73q127 0 320 18l80 6q195 348 342 557q187 278 475 612q11 13 73 92q15 20 15 11q6 27 18 10q11 -15 6 -26q-2 -2 -4 -3q-20 0 -112 -34
q-730 -268 -1227 -652q-325 -247 -373 -411zM842 276q-23 -112 16 -163q168 196 416 432q34 33 133 123q-379 -57 -446 -72q-16 -24 -31 -57q-21 -46 -53 -129q-16 -55 -35 -134zM1010 684q1 7 -5.5 11.5t-11.5 2.5q47 16 103 19q7 1 28.5 5t65 12.5t84.5 15.5l272 49
q233 213 819 725q155 137 498 436l27 20q-152 76 -400 76q-130 0 -264 -20q-136 -20 -182 -33q-71 -38 -258 -258q-212 -242 -412 -510q-212 -278 -321 -465q-43 -68 -43 -86zM985 59h19q242 0 725 279q315 179 610 412q33 25 56.5 45t32 29t7.5 10q3 10 9 -6q6 -15 1 -15
q-84 0 -766 -104l-106 -15q-26 -26 -75.5 -74t-72.5 -71q-112 -112 -309 -336q-28 -33 -72 -84.5t-59 -69.5zM1716 829q658 120 912 158q201 198 315 346q110 139 141 285q42 194 -112 313l10 -4q-6 -5 -28.5 -22.5t-33.5 -26.5q-722 -598 -1204 -1049z" />
    <glyph glyph-name="Ugrave" unicode="&#xd9;" horiz-adv-x="1882" 
d="M1020 -199q-46 0 -77.5 31.5t-43.5 89.5q-25 112 12 285q48 226 162 487q70 160 236 488l41 41q-458 -467 -947 -873q-300 -250 -411 -250q-47 0 -74 43q-28 46 -33 90q-3 46 15 132q40 193 188 493q139 289 369 637q166 244 319 432t234 238q58 33 110 33q67 0 105 -44
q44 -44 32 -92q-12 -44 -51 -73q-46 -31 -100 -31l-51 6q-6 2 -23 -8q-18 -12 -51 -45q-241 -250 -532 -686q-286 -447 -414 -760q-32 -91 -49 -162q-11 -57 -4 -78q3 -9 7.5 -11.5t16.5 -2.5q182 0 1241 1065q48 48 113 114t84 85q58 66 106 124q18 22 97 132
q124 192 303 419q166 214 311 365q150 156 211 156q64 0 49 -109q-27 -116 -287 -408q-202 -230 -723 -772l-110 -204q-341 -618 -426 -1008q-32 -152 -22.5 -218.5t59.5 -66.5q73 0 162 92q46 46 217 242l102 123q83 115 115 156q55 74 65 84q23 26 43 34q14 7 33 7
q31 0 43 -16.5t6 -41.5q-7 -28 -49 -90q-481 -674 -729 -674zM1747 3111q8 37 45 63q39 27 70 27q29 0 49 -20q19 -22 10 -60q0 -18 -16 -37q-11 -11 -11 -14q-1 -6 -1.5 -12.5t0.5 -18t3.5 -23l7.5 -34.5t10.5 -46t15.5 -64t20 -82.5t25.5 -107t31.5 -132.5q4 -15 23 -36
t14 -34q-6 -19 -33 -39q-27 -18 -51 -18q-27 0 -37 16q-15 21 -35 131q-35 203 -54 303t-26.5 124.5t-15.5 33.5q-6 6 -16 15q-6 9 -2 10q-21 0 -27 22q-4 10 0 33zM1741 1739q-18 9 -21 16q-1 2 2 2q7 0 338 371q317 357 338 414q5 0 15 -13q5 -6 2 -6q-10 0 -170 -166
q-132 -138 -277 -317q-197 -248 -227 -301z" />
    <glyph glyph-name="Uacute" unicode="&#xda;" horiz-adv-x="1882" 
d="M1020 -199q-46 0 -77.5 31.5t-43.5 89.5q-25 112 12 285q48 226 162 487q70 160 236 488l41 41q-458 -467 -947 -873q-300 -250 -411 -250q-47 0 -74 43q-28 46 -33 90q-3 46 15 132q40 193 188 493q139 289 369 637q166 244 319 432t234 238q58 33 110 33q67 0 105 -44
q44 -44 32 -92q-12 -44 -51 -73q-46 -31 -100 -31l-51 6q-6 2 -23 -8q-18 -12 -51 -45q-241 -250 -532 -686q-286 -447 -414 -760q-32 -91 -49 -162q-11 -57 -4 -78q3 -9 7.5 -11.5t16.5 -2.5q182 0 1241 1065q48 48 113 114t84 85q58 66 106 124q18 22 97 132
q124 192 303 419q166 214 311 365q150 156 211 156q64 0 49 -109q-27 -116 -287 -408q-202 -230 -723 -772l-110 -204q-341 -618 -426 -1008q-32 -152 -22.5 -218.5t59.5 -66.5q73 0 162 92q46 46 217 242l102 123q83 115 115 156q55 74 65 84q23 26 43 34q14 7 33 7
q31 0 43 -16.5t6 -41.5q-7 -28 -49 -90q-481 -674 -729 -674zM1729 2578q9 34 51 62q27 13 198.5 161t239.5 220q49 49 88 49q23 0 37 -14q14 -11 14 -39q-5 -30 -67 -66q-71 -48 -228 -183t-153 -147v-6q7 -15 4 -35q-9 -33 -43 -57q-34 -20 -62 -24q-30 0 -57 18
q-25 23 -22 61zM1741 1739q-18 9 -21 16q-1 2 2 2q7 0 338 371q317 357 338 414q5 0 15 -13q5 -6 2 -6q-10 0 -170 -166q-132 -138 -277 -317q-197 -248 -227 -301z" />
    <glyph glyph-name="Ucircumflex" unicode="&#xdb;" horiz-adv-x="1882" 
d="M1020 -199q-46 0 -77.5 31.5t-43.5 89.5q-25 112 12 285q48 226 162 487q70 160 236 488l41 41q-458 -467 -947 -873q-300 -250 -411 -250q-47 0 -74 43q-28 46 -33 90q-3 46 15 132q40 193 188 493q139 289 369 637q166 244 319 432t234 238q58 33 110 33q67 0 105 -44
q44 -44 32 -92q-12 -44 -51 -73q-46 -31 -100 -31l-51 6q-6 2 -23 -8q-18 -12 -51 -45q-241 -250 -532 -686q-286 -447 -414 -760q-32 -91 -49 -162q-11 -57 -4 -78q3 -9 7.5 -11.5t16.5 -2.5q182 0 1241 1065q48 48 113 114t84 85q58 66 106 124q18 22 97 132
q124 192 303 419q166 214 311 365q150 156 211 156q64 0 49 -109q-27 -116 -287 -408q-202 -230 -723 -772l-110 -204q-341 -618 -426 -1008q-32 -152 -22.5 -218.5t59.5 -66.5q73 0 162 92q46 46 217 242l102 123q83 115 115 156q55 74 65 84q23 26 43 34q14 7 33 7
q31 0 43 -16.5t6 -41.5q-7 -28 -49 -90q-481 -674 -729 -674zM1532 2529q8 32 65 101q53 58 224.5 221t189.5 176q72 59 113 59q27 0 37 -10q15 -13 21 -45.5t-3 -97.5q-28 -145 -40.5 -219t-12.5 -90.5t4 -22.5q21 -24 18 -55q-9 -49 -71 -49q-52 0 -58 43q-4 32 68 374
q9 47 33 76q5 0 0 -2q-11 -5 -17 -10q-45 -37 -123 -107.5t-168 -168t-98 -138.5q-16 -65 -69 -88q-31 -14 -50 -14q-26 0 -47 18q-19 19 -16 49zM1741 1739q-18 9 -21 16q-1 2 2 2q7 0 338 371q317 357 338 414q5 0 15 -13q5 -6 2 -6q-10 0 -170 -166q-132 -138 -277 -317
q-197 -248 -227 -301z" />
    <glyph glyph-name="Udieresis" unicode="&#xdc;" horiz-adv-x="1882" 
d="M1020 -199q-46 0 -77.5 31.5t-43.5 89.5q-25 112 12 285q48 226 162 487q70 160 236 488l41 41q-458 -467 -947 -873q-300 -250 -411 -250q-47 0 -74 43q-28 46 -33 90q-3 46 15 132q40 193 188 493q139 289 369 637q166 244 319 432t234 238q58 33 110 33q67 0 105 -44
q44 -44 32 -92q-12 -44 -51 -73q-46 -31 -100 -31l-51 6q-6 2 -23 -8q-18 -12 -51 -45q-241 -250 -532 -686q-286 -447 -414 -760q-32 -91 -49 -162q-11 -57 -4 -78q3 -9 7.5 -11.5t16.5 -2.5q182 0 1241 1065q48 48 113 114t84 85q58 66 106 124q18 22 97 132
q124 192 303 419q166 214 311 365q150 156 211 156q64 0 49 -109q-27 -116 -287 -408q-202 -230 -723 -772l-110 -204q-341 -618 -426 -1008q-32 -152 -22.5 -218.5t59.5 -66.5q73 0 162 92q46 46 217 242l102 123q83 115 115 156q55 74 65 84q23 26 43 34q14 7 33 7
q31 0 43 -16.5t6 -41.5q-7 -28 -49 -90q-481 -674 -729 -674zM1470 2642q10 40 66 100q61 45 127 45q49 0 84 -30q34 -34 27 -78q-14 -57 -88 -103q-62 -41 -125 -41q-47 0 -78 35q-19 32 -13 72zM1741 1739q-18 9 -21 16q-1 2 2 2q7 0 338 371q317 357 338 414q5 0 15 -13
q5 -6 2 -6q-10 0 -170 -166q-132 -138 -277 -317q-197 -248 -227 -301zM1960 2662q11 44 68 101q57 45 126 45q55 0 82 -31q37 -37 29 -78q-14 -56 -90 -104q-70 -39 -123 -39q-50 0 -78 35q-19 37 -14 71z" />
    <glyph glyph-name="Yacute" unicode="&#xdd;" horiz-adv-x="1949" 
d="M326 -502q-41 0 -57 30.5t-5 86.5q34 153 301 457q189 199 408 391q249 213 405 315q35 21 74 53q32 32 70 87q51 70 104 163q267 429 311 623q7 60 7 61t-1 1t-2 -0.5t-4 -0.5h-6q-90 0 -413 -280q-320 -272 -830 -797q-281 -290 -416 -405q-145 -121 -223 -121t-110 82
q-27 78 0 215q70 325 432 940q177 276 399 567q232 297 344 385q102 76 197 76q78 -3 113 -34.5t24 -84.5q-12 -52 -74 -74q-50 -20 -94 -20q-3 0 -35 -8q-86 -36 -344 -346q-426 -507 -688 -1037q-131 -261 -160 -405q-15 -75 -2 -101q3 -14 7 -19t12 -5q42 0 143 88
q152 129 487 477q292 306 469 475q183 174 363 320q303 262 426 262q71 0 96.5 -53t3.5 -156q-41 -189 -243 -526q-97 -154 -129 -205q-9 -12 -22 -30l-10 -12q0 1 1 3l-19 10l36 15l110 47q78 30 119 30q59 0 94 -30q43 -32 33 -78q-3 -33 -46 -60q-30 -24 -65 -24
q-26 0 -45 12q-12 6 -29 6q-26 0 -100 -39q-159 -78 -225 -133q-77 -67 -177 -200q-369 -476 -671 -758q-251 -236 -344 -236zM381 -373v-3l-1 -1q-4 9 -11 10q29 21 90 66q69 54 198 176q291 287 533 598q18 21 41 50q20 25 23 25q2 1 0 -9q-1 -4 -3 -11q-19 -19 -217 -178
q-312 -255 -506 -504q-138 -172 -147 -219zM1901 2488q9 34 51 62q26 13 197 160.5t241 220.5q49 49 86 49q21 0 39 -12q15 -19 12 -43q-6 -31 -65 -64q-69 -47 -224.5 -179t-156.5 -149q-1 -4 -2 -3v-1q10 -10 4 -39q-12 -40 -45 -57q-31 -22 -60 -25q-26 0 -55 19
q-31 24 -22 61z" />
    <glyph glyph-name="Thorn" unicode="&#xde;" horiz-adv-x="2459" 
d="M641 -227q-163 0 -109 264q105 488 1065 1792q56 75 113 151.5t77 103.5t19 25l17 -4q-81 -20 -103 -28q-93 -26 -188 -60q-80 -29 -178 -67q-666 -291 -959 -645l-37 -52q65 -46 54 -106q-12 -43 -58 -72q-52 -23 -106 -26q-68 0 -115 30q-49 36 -43 92q21 87 225 269
q212 187 445 334q537 324 1122 471q15 4 29 18q19 11 53 57q11 12 96 131q34 47 117 154q56 68 78 86q51 33 104 33q47 0 80 -23q39 -21 35 -71q-7 -32 -147 -154q-63 -52 -197 -186q172 14 225 14q154 0 287 -31q129 -34 203 -92q156 -132 110 -334q-72 -337 -542 -737
q-195 -166 -349 -262q-514 -302 -782 -305q-86 0 -125 34.5t-27 100.5q9 39 44 88q37 37 73 37q26 0 47 -21q23 -20 19 -47q-3 -17 -19 -39q-9 -16 -12 -28q-2 2 -2 4q8 -4 35 -4q370 12 891 379q288 204 452 391q119 142 158 219q39 73 63 192q17 109 -40 183t-195 118
q-80 25 -188 25q-404 -6 -439 -27q-23 -14 -147 -163q-121 -145 -275 -349q-491 -652 -729 -1120q-144 -278 -182 -450q-13 -66 -7.5 -94t30.5 -31q72 -15 63 -74q-2 -13 -27 -55q-42 -39 -102 -39z" />
    <glyph glyph-name="germandbls" unicode="&#xdf;" horiz-adv-x="1101" 
d="M-477 -4q-41 0 -61.5 22t-14.5 62q12 51 78 139l272 393q604 899 1180 1358q251 189 342 189q40 0 56 -27t5 -74q-37 -171 -686 -749q-290 -258 -327 -299q42 14 92 14l274 6q111 0 152 -16q51 -15 73 -58q23 -41 13 -94q-42 -197 -738 -577q-184 -99 -231 -99
q-40 0 -53 13q-21 17 -10 59q11 36 24 49q17 17 51 29q536 218 770 407q105 83 115 131q6 30 -37.5 44t-150.5 14l-191 -6q-78 -4 -114 -4q-84 0 -99 22q-21 21 -12 66q8 43 72 110q97 97 358 334q183 172 367 369q149 159 168 205q2 -1 6 -5.5t6 -5.5q-32 -9 -107 -65
q-630 -433 -1239 -1401q-178 -281 -184 -315q-2 -5 4 -7q28 -21 18 -75q-19 -77 -98 -117q-80 -41 -143 -41z" />
    <glyph glyph-name="agrave" unicode="&#xe0;" horiz-adv-x="1529" 
d="M666 494q-190 0 -246 129q-36 77 -33 270q4 93 2 108q-79 -49 -319 -225q-100 -74 -146 -74q-23 0 -35 19t-8 57q13 53 94 140q85 92 181 172q101 84 178 122q58 25 115 25q94 0 161 -49q75 -56 60 -121q-9 -45 -62 -80q-62 -34 -119 -31l-36 2q-13 -173 6 -249
q14 -62 63 -99q33 -26 96 -26q68 0 123 10q57 11 138 47q158 71 344 172q221 120 282 166q95 68 154 68q32 0 46 -19.5t9 -52.5q0 -2 -12 -37q-36 -55 -207 -147q-185 -95 -369 -170q-319 -127 -460 -127zM86 899q8 6 47 35.5t70 54.5q15 10 38 31q28 25 34 20q4 -4 4 -18
h22q-79 -55 -147 -107q-11 -9 -22.5 -20.5l-19.5 -19.5l-15.5 -15.5t-9.5 -7.5t-6 1.5t0 15t5 30.5zM555 2122q8 37 45 63q39 27 72 27q26 0 47 -21q18 -24 12 -61q-8 -21 -18 -33q-8 -11 -8 -16q-6 -21 2 -61t52 -219q10 -44 16.5 -70.5t18.5 -75t23 -94.5q3 -14 21 -35.5
t16 -30.5q-6 -22 -33 -43q-27 -18 -53 -18q-27 0 -37 16q-11 18 -33 131q-35 203 -54 303t-26.5 124.5t-15.5 33.5q-7 7 -18 16q-6 8 -2 8q-9 0 -17.5 6.5t-9.5 16.5q-5 14 0 33z" />
    <glyph glyph-name="aacute" unicode="&#xe1;" horiz-adv-x="1529" 
d="M666 494q-190 0 -246 129q-36 77 -33 270q4 93 2 108q-79 -49 -319 -225q-100 -74 -146 -74q-23 0 -35 19t-8 57q13 53 94 140q85 92 181 172q101 84 178 122q58 25 115 25q94 0 161 -49q75 -56 60 -121q-9 -45 -62 -80q-62 -34 -119 -31l-36 2q-13 -173 6 -249
q14 -62 63 -99q33 -26 96 -26q68 0 123 10q57 11 138 47q158 71 344 172q221 120 282 166q95 68 154 68q32 0 46 -19.5t9 -52.5q0 -2 -12 -37q-36 -55 -207 -147q-185 -95 -369 -170q-319 -127 -460 -127zM86 899q8 6 47 35.5t70 54.5q15 10 38 31q28 25 34 20q4 -4 4 -18
h22q-79 -55 -147 -107q-11 -9 -22.5 -20.5l-19.5 -19.5l-15.5 -15.5t-9.5 -7.5t-6 1.5t0 15t5 30.5zM539 1589q7 37 51 62q26 13 197 160.5t241 220.5q49 49 86 49q21 0 37 -13q20 -20 14 -45q-9 -30 -65 -63q-66 -41 -218.5 -171t-164.5 -155v-6q8 -13 4 -37
q-9 -33 -43 -57q-36 -22 -62 -25q-30 0 -55 19q-31 24 -22 61z" />
    <glyph glyph-name="acircumflex" unicode="&#xe2;" horiz-adv-x="1529" 
d="M666 494q-190 0 -246 129q-36 77 -33 270q4 93 2 108q-79 -49 -319 -225q-100 -74 -146 -74q-23 0 -35 19t-8 57q13 53 94 140q85 92 181 172q101 84 178 122q58 25 115 25q94 0 161 -49q75 -56 60 -121q-9 -45 -62 -80q-62 -34 -119 -31l-36 2q-13 -173 6 -249
q14 -62 63 -99q33 -26 96 -26q68 0 123 10q57 11 138 47q158 71 344 172q221 120 282 166q95 68 154 68q32 0 46 -19.5t9 -52.5q0 -2 -12 -37q-36 -55 -207 -147q-185 -95 -369 -170q-319 -127 -460 -127zM86 899q8 6 47 35.5t70 54.5q15 10 38 31q28 25 34 20q4 -4 4 -18
h22q-79 -55 -147 -107q-11 -9 -22.5 -20.5l-19.5 -19.5l-15.5 -15.5t-9.5 -7.5t-6 1.5t0 15t5 30.5zM342 1542q7 26 64 96q27 31 96 98.5t134.5 130t122 116t58.5 55.5q71 59 117 59q25 0 37 -12q13 -13 19 -45t-3 -96q-60 -321 -49 -332q26 -26 18 -56q-9 -49 -71 -49
q-48 0 -58 41q-4 35 70 377q9 45 32 74l-1 2q5 0 0 -2q-11 -5 -17 -10q-372 -328 -389 -414q-12 -63 -67 -88q-35 -14 -52 -14q-24 0 -43 16q-25 20 -18 53z" />
    <glyph glyph-name="atilde" unicode="&#xe3;" horiz-adv-x="1529" 
d="M666 494q-190 0 -246 129q-36 77 -33 270q4 93 2 108q-79 -49 -319 -225q-100 -74 -146 -74q-23 0 -35 19t-8 57q13 53 94 140q85 92 181 172q101 84 178 122q58 25 115 25q94 0 161 -49q75 -56 60 -121q-9 -45 -62 -80q-62 -34 -119 -31l-36 2q-13 -173 6 -249
q14 -62 63 -99q33 -26 96 -26q68 0 123 10q57 11 138 47q158 71 344 172q221 120 282 166q95 68 154 68q32 0 46 -19.5t9 -52.5q0 -2 -12 -37q-36 -55 -207 -147q-185 -95 -369 -170q-319 -127 -460 -127zM86 899q8 6 47 35.5t70 54.5q15 10 38 31q28 25 34 20q4 -4 4 -18
h22q-79 -55 -147 -107q-11 -9 -22.5 -20.5l-19.5 -19.5l-15.5 -15.5t-9.5 -7.5t-6 1.5t0 15t5 30.5zM338 1702q3 12 13.5 47.5t17.5 58.5q16 43 54.5 68.5t96.5 26.5q90 0 291 -121q85 -53 102 -53q4 0 -10 -13q-6 -5 -6 -2q-1 -5 -10 6q-10 13 -17 21q-46 59 -36 102
q2 7 4.5 12.5t6.5 11t6.5 9t8.5 10t8 8.5q33 26 64 37q28 17 57 17q50 0 90 -43q55 -39 43 -93q-12 -33 -30 -67q-20 -62 -72 -107q-40 -43 -86 -43q-32 0 -199 105q-138 86 -246 106q16 -60 11 -90q-9 -40 -35 -64t-64 -24q-34 3 -51 23t-12 51z" />
    <glyph glyph-name="adieresis" unicode="&#xe4;" horiz-adv-x="1529" 
d="M666 494q-190 0 -246 129q-36 77 -33 270q4 93 2 108q-79 -49 -319 -225q-100 -74 -146 -74q-23 0 -35 19t-8 57q13 53 94 140q85 92 181 172q101 84 178 122q58 25 115 25q94 0 161 -49q75 -56 60 -121q-9 -45 -62 -80q-62 -34 -119 -31l-36 2q-13 -173 6 -249
q14 -62 63 -99q33 -26 96 -26q68 0 123 10q57 11 138 47q158 71 344 172q221 120 282 166q95 68 154 68q32 0 46 -19.5t9 -52.5q0 -2 -12 -37q-36 -55 -207 -147q-185 -95 -369 -170q-319 -127 -460 -127zM86 899q8 6 47 35.5t70 54.5q15 10 38 31q28 25 34 20q4 -4 4 -18
h22q-79 -55 -147 -107q-11 -9 -22.5 -20.5l-19.5 -19.5l-15.5 -15.5t-9.5 -7.5t-6 1.5t0 15t5 30.5zM279 1653q11 44 67 100q57 45 127 45q46 0 82 -31q34 -30 27 -77q-14 -59 -86 -103q-65 -41 -127 -41q-48 0 -76 35q-19 37 -14 72zM770 1673q8 44 68 101q54 45 125 45
q54 0 81 -31q41 -35 29 -78q-11 -55 -88 -104q-73 -39 -125 -39q-53 0 -76 37q-24 36 -14 69z" />
    <glyph glyph-name="aring" unicode="&#xe5;" horiz-adv-x="1529" 
d="M666 494q-190 0 -246 129q-36 77 -33 270q4 93 2 108q-79 -49 -319 -225q-100 -74 -146 -74q-23 0 -35 19t-8 57q13 53 94 140q85 92 181 172q101 84 178 122q58 25 115 25q94 0 161 -49q75 -56 60 -121q-9 -45 -62 -80q-62 -34 -119 -31l-36 2q-13 -173 6 -249
q14 -62 63 -99q33 -26 96 -26q68 0 123 10q57 11 138 47q158 71 344 172q221 120 282 166q95 68 154 68q32 0 46 -19.5t9 -52.5q0 -2 -12 -37q-36 -55 -207 -147q-185 -95 -369 -170q-319 -127 -460 -127zM86 899q8 6 47 35.5t70 54.5q15 10 38 31q28 25 34 20q4 -4 4 -18
h22q-79 -55 -147 -107q-11 -9 -22.5 -20.5l-19.5 -19.5l-15.5 -15.5t-9.5 -7.5t-6 1.5t0 15t5 30.5zM379 1831q40 184 330 250q123 35 192 35q63 0 117 -41q61 -58 41 -148q-56 -135 -162 -219q-113 -90 -219 -104h-29q-52 0 -100 26q-56 31 -76 47q-8 5 -21 11l-9 5l3 1
q-11 0 -38 24q-1 3 -11 20.5t-12 30.5q-14 27 -6 62zM627 1886q-25 -33 -32 -66t15.5 -58t79.5 -25q42 0 137 59q139 88 154 162q5 14 -6 22q-34 17 -57 17q-122 0 -179.5 -22t-111.5 -89z" />
    <glyph glyph-name="ae" unicode="&#xe6;" horiz-adv-x="1562" 
d="M80 887q8 10 23 23t48 38.5t52 40.5q15 10 38 31q28 25 34 20q4 -4 4 -18h22q-83 -57 -145 -107q-28 -21 -44 -28t-32 0zM-119 776q9 51 94 142q88 95 183 172q89 78 176 122q58 25 115 25q93 0 163 -49q6 -4 19 -17q56 33 92 33q35 0 57 -22q21 -23 17 -66
q-7 -29 -68 -112q-37 -49 -111 -123q-76 -88 -165 -88l-54 4q-15 0 -30 -25q-23 -29 -29 -53q-5 -22 11.5 -32t66.5 -11q56 0 135 18q113 24 692 211q335 117 389 117q28 -2 41.5 -21.5t7.5 -54.5q-11 -34 -22 -45q-17 -17 -55 -29q-19 -9 -123 -36q-210 -55 -393 -101
q-424 -106 -490 -121q-125 -32 -201 -32q-85 0 -122.5 40.5t-20.5 116.5l10 35l94 207q-98 -64 -290 -205q-100 -74 -146 -74q-49 0 -43 74z" />
    <glyph glyph-name="ccedilla" unicode="&#xe7;" horiz-adv-x="1349" 
d="M-37 285h12q-5 -11 -12 -19q-1 -2 -21.5 -23.5t-50.5 -55t-63 -72.5t-64 -85.5t-49 -84.5q24 -215 19 -248q-6 -61 -45 -109q-27 -35 -59.5 -43t-61.5 11q-79 44 -123 225q-4 19 -11 42t-9.5 33.5t-1 24t11.5 25.5q35 33 67 20q4 -2 7 -5t5.5 -7t4 -7t3 -8.5t2 -9
t1.5 -11t1.5 -11.5t1.5 -13.5t1 -13.5q26 -189 86 -225q9 -6 20 -6q5 0 5 -2q7 7 12 43q2 33 -4 76q-2 23 -15.5 93t-19.5 77q-19 22 -19 47q4 25 23 49q6 6 43.5 62t84.5 125.5t69 99.5l26 36q-24 15 -39 39q-37 62 -18 168q42 181 246 449q64 87 153 166q106 92 178 92
q68 0 109 -66q37 -60 18 -145q-16 -70 -77 -100q-64 -31 -99 -31q-47 0 -78 31q-35 32 -28 67q5 12 22 0q5 0 2 -2q-14 -9 -20 -14q-97 -78 -211 -228q-118 -156 -143 -256q-9 -41 4 -63.5t53 -32.5q8 4 14 4q20 3 33 -10h16q118 3 285 59q157 58 479 209q294 142 545 287
q142 74 170 74q30 0 43 -23q17 -17 10 -49q-12 -45 -141 -113q-118 -63 -461 -217q-383 -170 -598 -245q-222 -80 -344 -80z" />
    <glyph glyph-name="egrave" unicode="&#xe8;" horiz-adv-x="1165" 
d="M2 582q-85 0 -122.5 40.5t-20.5 116.5q8 49 51 127q44 74 123 150q63 63 164 131q85 57 129 57q33 0 59 -22q20 -22 16 -66q-15 -67 -180 -235q-81 -94 -166 -88l-55 4q-12 3 -29 -25q-21 -27 -28 -53q-5 -22 12.5 -32t67.5 -11q54 0 133 18q108 23 692 211
q334 117 391 117q29 -3 42 -21t7 -47q-6 -35 -24 -53q-17 -17 -58 -29q-49 -20 -514 -137q-454 -113 -487 -121q-125 -32 -203 -32zM494 2136q10 44 45 64q33 26 69 26q29 0 49 -20q20 -23 11 -62q-8 -24 -17 -35q-10 -10 -10 -14q-1 -6 -1.5 -12.5t0.5 -18t3.5 -23
l7.5 -34.5t10.5 -46t15.5 -64t20 -82.5t25.5 -107t31.5 -132.5q3 -14 21 -35.5t16 -30.5q-6 -22 -33 -43q-27 -18 -51 -18q-27 0 -37 16q-15 21 -35 131q-35 203 -54 303t-26.5 124.5t-15.5 33.5q-7 7 -18 16q-8 9 -3 9q-18 0 -24 22q-4 10 0 33z" />
    <glyph glyph-name="eacute" unicode="&#xe9;" horiz-adv-x="1165" 
d="M2 582q-85 0 -122.5 40.5t-20.5 116.5q8 49 51 127q44 74 123 150q63 63 164 131q85 57 129 57q33 0 59 -22q20 -22 16 -66q-15 -67 -180 -235q-81 -94 -166 -88l-55 4q-12 3 -29 -25q-21 -27 -28 -53q-5 -22 12.5 -32t67.5 -11q54 0 133 18q108 23 692 211
q334 117 391 117q29 -3 42 -21t7 -47q-6 -35 -24 -53q-17 -17 -58 -29q-49 -20 -514 -137q-454 -113 -487 -121q-125 -32 -203 -32zM475 1604q9 33 51 61q27 13 199 161t240 220q49 49 88 49q19 0 37 -12q15 -19 12 -43q-6 -30 -66 -64q-71 -48 -228 -182.5t-153 -146.5v-7
q5 -11 2 -34q-1 -15 -13.5 -31t-29.5 -27q-34 -21 -59 -24q-30 0 -57 18q-26 23 -23 62z" />
    <glyph glyph-name="ecircumflex" unicode="&#xea;" horiz-adv-x="1165" 
d="M2 582q-85 0 -122.5 40.5t-20.5 116.5q8 49 51 127q44 74 123 150q63 63 164 131q85 57 129 57q33 0 59 -22q20 -22 16 -66q-15 -67 -180 -235q-81 -94 -166 -88l-55 4q-12 3 -29 -25q-21 -27 -28 -53q-5 -22 12.5 -32t67.5 -11q54 0 133 18q108 23 692 211
q334 117 391 117q29 -3 42 -21t7 -47q-6 -35 -24 -53q-17 -17 -58 -29q-49 -20 -514 -137q-454 -113 -487 -121q-125 -32 -203 -32zM279 1554q8 32 65 101q53 58 224.5 221t189.5 176q65 59 112 59q27 0 37 -10q15 -13 21.5 -45t-2.5 -98q-28 -145 -40.5 -219t-12.5 -90.5
t4 -22.5q21 -27 18 -55q-12 -49 -74 -49q-51 0 -55 43q-4 38 68 374q8 46 32 76q5 0 0 -2q-10 -5 -16 -10q-45 -37 -123 -107.5t-168 -168t-98 -138.5q-15 -63 -70 -88q-31 -14 -49 -14q-26 0 -47 18q-19 19 -16 49z" />
    <glyph glyph-name="edieresis" unicode="&#xeb;" horiz-adv-x="1165" 
d="M2 582q-85 0 -122.5 40.5t-20.5 116.5q8 49 51 127q44 74 123 150q63 63 164 131q85 57 129 57q33 0 59 -22q20 -22 16 -66q-15 -67 -180 -235q-81 -94 -166 -88l-55 4q-12 3 -29 -25q-21 -27 -28 -53q-5 -22 12.5 -32t67.5 -11q54 0 133 18q108 23 692 211
q334 117 391 117q29 -3 42 -21t7 -47q-6 -35 -24 -53q-17 -17 -58 -29q-49 -20 -514 -137q-454 -113 -487 -121q-125 -32 -203 -32zM217 1667q10 40 66 100q61 45 127 45q47 0 84 -30q35 -35 26 -78q-14 -56 -88 -102q-62 -41 -127 -41q-49 0 -76 34q-19 31 -12 72z
M707 1688q11 44 67 100q57 45 125 45q57 0 84 -31q37 -37 29 -78q-14 -56 -90 -104q-70 -39 -125 -39q-48 0 -76 35q-19 37 -14 72z" />
    <glyph glyph-name="igrave" unicode="&#xec;" horiz-adv-x="909" 
d="M23 489q-51 -1 -76 39.5t-17 112.5q2 37 17 109q44 205 139 362q64 85 137 88l33 2q49 -3 82 -26q32 -28 35 -74q-7 -44 -35.5 -76t-73.5 -47q-31 -13 -86 -82q-48 -59 -106 -160q-52 -81 -64 -123q0 -15 7 -19.5t32 -4.5q76 3 189 45q87 41 387 201q284 159 346 170
q33 -3 48.5 -20.5t12.5 -43.5q-12 -61 -94 -86q-44 -18 -387 -172q-382 -176 -486 -192zM418 1901q8 37 45 63q39 27 72 27q26 0 47 -21q18 -24 12 -61q-7 -18 -19 -33q-8 -11 -8 -16q-5 -20 3 -63t47 -200q11 -46 18 -74.5t20 -81t25 -102.5q3 -14 21 -35t16 -30
q-6 -22 -33 -43q-28 -19 -53 -19q-27 0 -37 17q-11 18 -33 131q-35 203 -54 303t-26.5 124.5t-15.5 33.5q-8 8 -19 17q-6 7 -2 7q-9 0 -17 6.5t-9 16.5q-5 14 0 33z" />
    <glyph glyph-name="iacute" unicode="&#xed;" horiz-adv-x="909" 
d="M23 489q-51 -1 -76 39.5t-17 112.5q2 37 17 109q44 205 139 362q64 85 137 88l33 2q49 -3 82 -26q32 -28 35 -74q-7 -44 -35.5 -76t-73.5 -47q-31 -13 -86 -82q-48 -59 -106 -160q-52 -81 -64 -123q0 -15 7 -19.5t32 -4.5q76 3 189 45q87 41 387 201q284 159 346 170
q33 -3 48.5 -20.5t12.5 -43.5q-12 -61 -94 -86q-44 -18 -387 -172q-382 -176 -486 -192zM401 1368q9 35 52 62q26 13 197 160t241 220q50 50 86 50q21 0 37 -13q20 -20 14 -45q-9 -30 -65 -63q-66 -41 -218.5 -171t-164.5 -155v-6q8 -13 4 -37q-12 -40 -45 -57
q-30 -21 -60 -25q-27 0 -55 19q-32 25 -23 61z" />
    <glyph glyph-name="icircumflex" unicode="&#xee;" horiz-adv-x="909" 
d="M23 489q-51 -1 -76 39.5t-17 112.5q2 37 17 109q44 205 139 362q64 85 137 88l33 2q49 -3 82 -26q32 -28 35 -74q-7 -44 -35.5 -76t-73.5 -47q-31 -13 -86 -82q-48 -59 -106 -160q-52 -81 -64 -123q0 -15 7 -19.5t32 -4.5q76 3 189 45q87 41 387 201q284 159 346 170
q33 -3 48.5 -20.5t12.5 -43.5q-12 -61 -94 -86q-44 -18 -387 -172q-382 -176 -486 -192zM205 1321q7 27 63 96q27 31 96 98.5t134.5 130t122.5 116t59 55.5q71 59 117 59q25 0 37 -12q13 -13 19 -45.5t-3 -96.5q-60 -320 -49 -331q26 -26 18 -56q-9 -49 -71 -49
q-48 0 -58 41q-4 35 70 377q9 45 32 74l-1 2q5 0 -1 -3q-10 -5 -16 -10q-373 -329 -389 -413q-12 -62 -68 -88q-38 -15 -51 -15q-23 0 -43 17q-25 20 -18 53z" />
    <glyph glyph-name="idieresis" unicode="&#xef;" horiz-adv-x="909" 
d="M23 489q-51 -1 -76 39.5t-17 112.5q2 37 17 109q44 205 139 362q64 85 137 88l33 2q49 -3 82 -26q32 -28 35 -74q-7 -44 -35.5 -76t-73.5 -47q-31 -13 -86 -82q-48 -59 -106 -160q-52 -81 -64 -123q0 -15 7 -19.5t32 -4.5q76 3 189 45q87 41 387 201q284 159 346 170
q33 -3 48.5 -20.5t12.5 -43.5q-12 -61 -94 -86q-44 -18 -387 -172q-382 -176 -486 -192zM141 1432q10 42 68 100q57 45 127 45q46 0 82 -31q33 -29 26 -78q-14 -58 -86 -102q-65 -41 -127 -41q-47 0 -75 35q-20 38 -15 72zM633 1452q12 51 67 100q54 45 125 45q56 0 82 -30
q41 -35 29 -78q-11 -56 -88 -105q-68 -38 -125 -38q-54 0 -76 36q-23 39 -14 70z" />
    <glyph glyph-name="eth" unicode="&#xf0;" horiz-adv-x="1081" 
d="M231 373q-48 22 -90 82q-95 149 -86 362q6 233 109 383q30 47 61 70q33 29 56 35q28 8 55 -7l53 -26q136 -86 195 -256q61 -172 -4 -268q-56 -80 -140 -35q-63 31 -43 166q9 94 -37 176q-48 86 -92 106q-10 6 -13.5 5t-12.5 -13q-38 -53 -41 -174q-7 -145 14 -246
q29 -182 100 -217q90 -49 217 137l27 35q219 414 262 875q-66 -34 -114 -70q-80 -61 -111 -72q-27 -14 -64 -10q-41 8 -47 45q-13 55 29 103q41 51 98 73q37 15 56 19q52 10 161 55v14q3 115 -6 119q-17 11 -63 35q-75 40 -94 90q-30 65 20 139q53 72 137 80q68 0 107 -20
q66 -34 88 -142q11 -72 -4 -239q227 96 243 92q47 -8 52 -43q5 -24 -11 -62q-26 -38 -55 -49q-56 -19 -69 -22q-26 -7 -105 -31q-24 -6 -76 -27q-50 -295 -129 -526q-104 -316 -229 -504q-96 -140 -197 -198q-125 -84 -207 -39z" />
    <glyph glyph-name="ntilde" unicode="&#xf1;" horiz-adv-x="1345" 
d="M-332 213q-40 0 -53 16q-15 18 -12 58q0 36 8 67q15 75 88 187q75 112 266 348q256 316 326 448q31 61 84 107q55 39 102 39q35 0 74 -27q36 -26 29 -74q-15 -66 -172 -217q-177 -180 -404 -444q-172 -210 -188 -260q-4 -7 -15 5q-7 7 -2 7q10 7 37 27q39 27 90 75
q56 52 244 209q135 112 229 183q108 83 133 92q40 14 54 14q33 0 55 -43q19 -39 16 -100q-3 -99 2 -142q5 -40 35 -58.5t94 -18.5q91 0 242 59q141 55 264 148q83 67 113 67q17 0 27 -10q36 -26 28 -64q-11 -59 -141 -129q-113 -58 -268 -106q-148 -45 -256 -45
q-123 0 -168 63q-45 55 -35 199v70q0 16 -2 20q-2 0 -2 2q-36 -5 -182 -115q-160 -124 -316 -280q-150 -153 -192 -232q-18 -32 -78 -92q-77 -53 -154 -53zM559 1702q3 12 14 47.5t17 58.5q16 43 54.5 68.5t96.5 26.5q90 0 291 -121q85 -53 103 -53q5 0 -11 -14q-6 -4 -6 -1
q-1 -5 -9 5q-9 13 -17 22q-47 60 -37 102q2 8 6.5 16t7.5 12t11 12t10 11q33 27 63 37q28 17 57 17q50 0 90 -43q55 -39 43 -93q-12 -33 -30 -67q-20 -62 -72 -107q-40 -43 -86 -43q-33 0 -199 105q-139 86 -245 106q16 -58 10 -90q-9 -41 -34.5 -64.5t-63.5 -23.5
q-34 3 -51.5 23t-12.5 51z" />
    <glyph glyph-name="ograve" unicode="&#xf2;" horiz-adv-x="1046" 
d="M-8 504q-42 0 -82 49q-35 52 -16 141q24 122 165 336q88 130 88 152q20 60 72 92q50 24 94 24q50 -7 74 -26q25 -13 37 -15q6 0 43 11q47 14 80 14q67 -6 94.5 -46t13.5 -110q-35 -114 -133 -247q-5 -6 -11 -13t-9.5 -11t-6.5 -7.5t-4.5 -5t-1.5 -0.5l-14 14q35 9 98 25
q59 14 205 53q84 22 193 55q100 33 151 33q46 0 52 -29q3 -16 -3 -57q-12 -41 -53 -53q-42 -13 -135 -29q-145 -29 -227 -43q-197 -33 -213 -35q-70 -10 -92 -16q-32 -8 -43 -17q-20 -10 -35 -30q-97 -90 -201 -148q-116 -61 -180 -61zM18 649q-2 -6 -1 -8.5t2 -3t6 -0.5
q49 0 122 43q11 7 43.5 29.5t51.5 33.5l16 2q-77 3 -170 39l-8 -16q-7 -9 -37 -63q-4 -9 -10 -21t-9.5 -20.5t-5.5 -14.5zM141 856q3 3 11 0q38 -12 196 -18l51 51q59 62 103 129q44 72 59 119l4 14q-20 4 -45 4q-31 0 -98 -18q-47 -20 -86 -56q-32 -32 -80 -90
q-44 -44 -82 -92q-31 -39 -33 -43zM627 2122q8 37 45 63q39 27 71 27q27 0 48 -21q18 -24 12 -61q-7 -18 -19 -33q-8 -11 -8 -16q-5 -20 2.5 -59t46.5 -198q37 -152 64 -263q3 -14 21 -35.5t16 -30.5q-6 -22 -33 -43q-27 -18 -53 -18q-27 0 -37 16q-11 18 -33 131
q-35 203 -54 303t-26.5 124.5t-15.5 33.5q-8 8 -19 17q-6 7 -2 7q-9 0 -17 6.5t-9 16.5q-5 14 0 33z" />
    <glyph glyph-name="oacute" unicode="&#xf3;" horiz-adv-x="1046" 
d="M-8 504q-42 0 -82 49q-35 52 -16 141q24 122 165 336q88 130 88 152q20 60 72 92q50 24 94 24q50 -7 74 -26q25 -13 37 -15q6 0 43 11q47 14 80 14q67 -6 94.5 -46t13.5 -110q-35 -114 -133 -247q-5 -6 -11 -13t-9.5 -11t-6.5 -7.5t-4.5 -5t-1.5 -0.5l-14 14q35 9 98 25
q59 14 205 53q84 22 193 55q100 33 151 33q46 0 52 -29q3 -16 -3 -57q-12 -41 -53 -53q-42 -13 -135 -29q-145 -29 -227 -43q-197 -33 -213 -35q-70 -10 -92 -16q-32 -8 -43 -17q-20 -10 -35 -30q-97 -90 -201 -148q-116 -61 -180 -61zM18 649q-2 -6 -1 -8.5t2 -3t6 -0.5
q49 0 122 43q11 7 43.5 29.5t51.5 33.5l16 2q-77 3 -170 39l-8 -16q-7 -9 -37 -63q-4 -9 -10 -21t-9.5 -20.5t-5.5 -14.5zM141 856q3 3 11 0q38 -12 196 -18l51 51q59 62 103 129q44 72 59 119l4 14q-20 4 -45 4q-31 0 -98 -18q-47 -20 -86 -56q-32 -32 -80 -90
q-44 -44 -82 -92q-31 -39 -33 -43zM610 1589q6 37 52 62q26 13 197 160.5t241 220.5q49 49 86 49q21 0 37 -13q20 -20 14 -45q-9 -29 -66 -63q-66 -41 -218.5 -171t-164.5 -155v-6q9 -15 5 -37q-9 -33 -43 -57q-36 -22 -62 -25q-30 0 -55 19q-32 25 -23 61z" />
    <glyph glyph-name="ocircumflex" unicode="&#xf4;" horiz-adv-x="1046" 
d="M-8 504q-42 0 -82 49q-35 52 -16 141q24 122 165 336q88 130 88 152q20 60 72 92q50 24 94 24q50 -7 74 -26q25 -13 37 -15q6 0 43 11q47 14 80 14q67 -6 94.5 -46t13.5 -110q-35 -114 -133 -247q-5 -6 -11 -13t-9.5 -11t-6.5 -7.5t-4.5 -5t-1.5 -0.5l-14 14q35 9 98 25
q59 14 205 53q84 22 193 55q100 33 151 33q46 0 52 -29q3 -16 -3 -57q-12 -41 -53 -53q-42 -13 -135 -29q-145 -29 -227 -43q-197 -33 -213 -35q-70 -10 -92 -16q-32 -8 -43 -17q-20 -10 -35 -30q-97 -90 -201 -148q-116 -61 -180 -61zM18 649q-2 -6 -1 -8.5t2 -3t6 -0.5
q49 0 122 43q11 7 43.5 29.5t51.5 33.5l16 2q-77 3 -170 39l-8 -16q-7 -9 -37 -63q-4 -9 -10 -21t-9.5 -20.5t-5.5 -14.5zM141 856q3 3 11 0q38 -12 196 -18l51 51q59 62 103 129q44 72 59 119l4 14q-20 4 -45 4q-31 0 -98 -18q-47 -20 -86 -56q-32 -32 -80 -90
q-44 -44 -82 -92q-31 -39 -33 -43zM414 1542q7 27 63 96q27 31 96 98.5t134.5 130t122.5 116t59 55.5q71 59 117 59q24 0 36 -12q14 -14 20 -45t-3 -96q-60 -321 -49 -332q26 -26 18 -56q-9 -49 -72 -49q-47 0 -57 41q-4 35 70 377q9 43 31 74l-1 2q5 0 0 -2q-10 -5 -16 -10
q-372 -328 -389 -414q-12 -62 -68 -88q-35 -14 -51 -14q-24 0 -43 16q-25 20 -18 53z" />
    <glyph glyph-name="otilde" unicode="&#xf5;" horiz-adv-x="1046" 
d="M-8 504q-42 0 -82 49q-35 52 -16 141q24 122 165 336q88 130 88 152q20 60 72 92q50 24 94 24q50 -7 74 -26q25 -13 37 -15q6 0 43 11q47 14 80 14q67 -6 94.5 -46t13.5 -110q-35 -114 -133 -247q-5 -6 -11 -13t-9.5 -11t-6.5 -7.5t-4.5 -5t-1.5 -0.5l-14 14q35 9 98 25
q59 14 205 53q84 22 193 55q100 33 151 33q46 0 52 -29q3 -16 -3 -57q-12 -41 -53 -53q-42 -13 -135 -29q-145 -29 -227 -43q-197 -33 -213 -35q-70 -10 -92 -16q-32 -8 -43 -17q-20 -10 -35 -30q-97 -90 -201 -148q-116 -61 -180 -61zM18 649q-2 -6 -1 -8.5t2 -3t6 -0.5
q49 0 122 43q11 7 43.5 29.5t51.5 33.5l16 2q-77 3 -170 39l-8 -16q-7 -9 -37 -63q-4 -9 -10 -21t-9.5 -20.5t-5.5 -14.5zM141 856q3 3 11 0q38 -12 196 -18l51 51q59 62 103 129q44 72 59 119l4 14q-20 4 -45 4q-31 0 -98 -18q-47 -20 -86 -56q-32 -32 -80 -90
q-44 -44 -82 -92q-31 -39 -33 -43zM410 1702q3 12 30 106q15 43 54.5 68.5t97.5 26.5q90 0 291 -121q85 -53 102 -53q4 0 -10 -13q-6 -5 -6 -2q-1 -5 -10 6q-10 13 -17 21q-47 60 -37 102q2 8 6.5 16t7.5 12t11 12t10 11q33 26 64 37q28 17 57 17q50 0 90 -43q55 -39 43 -93
q-10 -26 -31 -67q-21 -63 -71 -107q-40 -43 -86 -43q-32 0 -199 105q-138 86 -246 106q16 -58 10 -90q-9 -41 -34.5 -64.5t-63.5 -23.5q-34 3 -51 23t-12 51z" />
    <glyph glyph-name="odieresis" unicode="&#xf6;" horiz-adv-x="1046" 
d="M-8 504q-42 0 -82 49q-35 52 -16 141q24 122 165 336q88 130 88 152q20 60 72 92q50 24 94 24q50 -7 74 -26q25 -13 37 -15q6 0 43 11q47 14 80 14q67 -6 94.5 -46t13.5 -110q-35 -114 -133 -247q-5 -6 -11 -13t-9.5 -11t-6.5 -7.5t-4.5 -5t-1.5 -0.5l-14 14q35 9 98 25
q59 14 205 53q84 22 193 55q100 33 151 33q46 0 52 -29q3 -16 -3 -57q-12 -41 -53 -53q-42 -13 -135 -29q-145 -29 -227 -43q-197 -33 -213 -35q-70 -10 -92 -16q-32 -8 -43 -17q-20 -10 -35 -30q-97 -90 -201 -148q-116 -61 -180 -61zM18 649q-2 -6 -1 -8.5t2 -3t6 -0.5
q49 0 122 43q11 7 43.5 29.5t51.5 33.5l16 2q-77 3 -170 39l-8 -16q-7 -9 -37 -63q-4 -9 -10 -21t-9.5 -20.5t-5.5 -14.5zM141 856q3 3 11 0q38 -12 196 -18l51 51q59 62 103 129q44 72 59 119l4 14q-20 4 -45 4q-31 0 -98 -18q-47 -20 -86 -56q-32 -32 -80 -90
q-44 -44 -82 -92q-31 -39 -33 -43zM350 1653q10 42 68 100q57 45 127 45q46 0 82 -31q33 -29 26 -77q-14 -59 -86 -103q-65 -41 -127 -41q-47 0 -75 35q-20 38 -15 72zM842 1673q8 45 67 101q54 45 125 45q55 0 82 -31q41 -35 29 -78q-11 -55 -88 -104q-73 -39 -125 -39
q-53 0 -76 37q-24 36 -14 69z" />
    <glyph glyph-name="divide" unicode="&#xf7;" horiz-adv-x="1107" 
d="M623 1135q-54 0 -86 28q-31 31 -25 76q12 52 74 90q51 39 112 39q48 0 84 -31q34 -39 23 -86q-46 -116 -182 -116zM129 911q8 35 66 76q55 37 116 37q31 0 58 -8q21 -6 61 -6q56 0 250 24q182 23 235 23q88 0 121 -33q40 -32 31 -76q-12 -39 -41 -57q-30 -27 -76 -27
q-23 0 -61 17q-49 28 -141 28q-142 0 -349 -65q-121 -41 -145 -41l-21 2l-49 14q-27 10 -43 39q-15 34 -12 53zM401 659q14 49 62 84q45 39 115 39q123 0 102 -112q-24 -113 -154 -119q-55 0 -92 29q-39 26 -33 79z" />
    <glyph glyph-name="oslash" unicode="&#xf8;" horiz-adv-x="1046" 
d="M348 838q178 178 213 299l4 14q-16 4 -22 4q-145 -183 -240 -315zM-262 88q31 149 221 424q-26 12 -49 41q-33 49 -16 141q25 124 165 334q91 141 88 154q40 116 164 116q44 -3 80 -24q20 -14 33 -17q6 0 43 11q32 10 70 14l217 274q143 185 149 220q2 4 2 14v25
q12 47 47 88q66 75 142 75q62 0 92 -47q20 -45 14 -92q-16 -60 -63 -98q-50 -41 -117 -41q-20 0 -76 -64q-65 -70 -319 -381q46 -40 30 -129q-35 -114 -133 -247q-5 -6 -11 -13t-9.5 -11t-6.5 -7.5t-4.5 -5t-1.5 -0.5l-14 14q35 9 98 25q28 6 205 53q84 22 193 55
q100 33 151 33q38 0 49 -25q7 -14 0 -61q-11 -39 -53 -51q-30 -10 -135 -31q-312 -61 -440 -78q-75 -11 -90 -14q-43 -9 -80 -49q-137 -131 -285 -187q-56 -88 -117 -219q-62 -134 -71 -176q-4 -14 -4 -22q7 -7 16 -7q29 -3 45 -22q11 -11 8 -49q-4 -21 -33 -62
q-40 -35 -61 -35q-10 0 -31 -8h-14q-58 0 -81.5 41t-6.5 121zM18 649q-2 -6 -1 -8.5t2 -3t6 -0.5q12 0 20 2l92 127q-4 2 -22.5 8t-26.5 10l-8 -16q-3 -6 -10 -18t-13.5 -23.5t-11.5 -21.5q-16 -27 -27 -56zM141 856q1 4 11 1q21 -6 47 -9q6 7 90 117t133 172
q-44 -16 -84 -56q-55 -55 -82 -90q-115 -124 -115 -135zM221 729q4 2 11.5 7t11.5 7l14 2l-25 3z" />
    <glyph glyph-name="ugrave" unicode="&#xf9;" horiz-adv-x="1171" 
d="M74 670q-41 0 -66 28q-50 50 -28 166q7 36 45 142q57 146 79 176q19 27 68 45q36 16 82 16q53 0 82 -29q31 -31 22 -67q-13 -49 -67 -103q-56 -56 -88 -116q-43 -64 -53 -105l-3 -6q-8 2 -18 2q10 0 260 187q187 139 205 139q9 0 24 -10q16 -12 19 -27q8 -14 4 -47
q-20 -56 -35 -88q-10 -23 -31 -84q-6 -33 23 -49t104 -19q79 0 207 35q140 41 193 74q71 41 117 41q38 0 53 -33q10 -21 6 -47q-16 -55 -117 -92q-91 -36 -219 -58q-115 -22 -229 -22h-8q-123 0 -176.5 60.5t-32.5 158.5l4 16l18 -10q-16 0 -151 -115q-199 -159 -293 -159z
M442 2122q8 37 45 63q39 27 72 27q26 0 47 -21q18 -24 12 -61q-8 -21 -18 -33q-8 -11 -8 -16q-5 -20 2.5 -59t46.5 -198q37 -152 64 -263q3 -14 20.5 -35.5t15.5 -30.5q-7 -23 -32 -43q-27 -18 -54 -18t-37 16t-32 131q-34 201 -54 302.5t-27.5 125t-15.5 33.5q-7 7 -18 16
q-6 8 -2 8q-9 0 -17.5 6.5t-9.5 16.5q-5 14 0 33z" />
    <glyph glyph-name="uacute" unicode="&#xfa;" horiz-adv-x="1171" 
d="M74 670q-41 0 -66 28q-50 50 -28 166q7 36 45 142q57 146 79 176q19 27 68 45q36 16 82 16q53 0 82 -29q31 -31 22 -67q-13 -49 -67 -103q-56 -56 -88 -116q-43 -64 -53 -105l-3 -6q-8 2 -18 2q10 0 260 187q187 139 205 139q9 0 24 -10q16 -12 19 -27q8 -14 4 -47
q-20 -56 -35 -88q-10 -23 -31 -84q-6 -33 23 -49t104 -19q79 0 207 35q140 41 193 74q71 41 117 41q38 0 53 -33q10 -21 6 -47q-16 -55 -117 -92q-91 -36 -219 -58q-115 -22 -229 -22h-8q-123 0 -176.5 60.5t-32.5 158.5l4 16l18 -10q-16 0 -151 -115q-199 -159 -293 -159z
M426 1589q7 37 51 62q26 13 197 160.5t241 220.5q49 49 86 49q21 0 37 -13q21 -21 15 -45q-9 -29 -66 -63q-66 -41 -218.5 -171t-164.5 -155v-6q8 -13 4 -37q-9 -33 -43 -57q-36 -22 -61 -25q-30 0 -55 19q-32 25 -23 61z" />
    <glyph glyph-name="ucircumflex" unicode="&#xfb;" horiz-adv-x="1171" 
d="M74 670q-41 0 -66 28q-50 50 -28 166q7 36 45 142q57 146 79 176q19 27 68 45q36 16 82 16q53 0 82 -29q31 -31 22 -67q-13 -49 -67 -103q-56 -56 -88 -116q-43 -64 -53 -105l-3 -6q-8 2 -18 2q10 0 260 187q187 139 205 139q9 0 24 -10q16 -12 19 -27q8 -14 4 -47
q-20 -56 -35 -88q-10 -23 -31 -84q-6 -33 23 -49t104 -19q79 0 207 35q140 41 193 74q71 41 117 41q38 0 53 -33q10 -21 6 -47q-16 -55 -117 -92q-91 -36 -219 -58q-115 -22 -229 -22h-8q-123 0 -176.5 60.5t-32.5 158.5l4 16l18 -10q-16 0 -151 -115q-199 -159 -293 -159z
M229 1542q7 26 64 96q27 31 96 98.5t134.5 130t122.5 116t59 55.5q71 59 116 59q25 0 37 -12q13 -13 19 -45t-3 -96q-60 -321 -49 -332q26 -26 19 -56q-9 -49 -72 -49q-47 0 -57 41q-4 38 69 377q9 45 32 74l-1 2q5 0 0 -2q-10 -5 -16 -10q-372 -328 -389 -414
q-12 -62 -68 -88q-35 -14 -51 -14q-24 0 -43 16q-26 20 -19 53z" />
    <glyph glyph-name="udieresis" unicode="&#xfc;" horiz-adv-x="1171" 
d="M74 670q-41 0 -66 28q-50 50 -28 166q7 36 45 142q57 146 79 176q19 27 68 45q36 16 82 16q53 0 82 -29q31 -31 22 -67q-13 -49 -67 -103q-56 -56 -88 -116q-43 -64 -53 -105l-3 -6q-8 2 -18 2q10 0 260 187q187 139 205 139q9 0 24 -10q16 -12 19 -27q8 -14 4 -47
q-20 -56 -35 -88q-10 -23 -31 -84q-6 -33 23 -49t104 -19q79 0 207 35q140 41 193 74q71 41 117 41q38 0 53 -33q10 -21 6 -47q-16 -55 -117 -92q-91 -36 -219 -58q-115 -22 -229 -22h-8q-123 0 -176.5 60.5t-32.5 158.5l4 16l18 -10q-16 0 -151 -115q-199 -159 -293 -159z
M408 1550q8 37 55 84q50 41 112 41q39 0 72 -26q26 -30 23 -70q-10 -44 -74 -88q-68 -35 -111 -35q-42 0 -63 31q-21 27 -14 63zM690 1569q9 41 58 84q48 39 110 39q38 0 72 -27q28 -32 20 -68q-8 -49 -71 -90q-62 -32 -111 -32q-43 0 -63 30q-21 27 -15 64z" />
    <glyph glyph-name="yacute" unicode="&#xfd;" horiz-adv-x="1525" 
d="M-246 -618q-99 0 -139 54.5t-18 157.5q50 234 405 578q336 334 821 614q87 49 119 72q32 22 35 45q6 19 -10 55q-8 39 -34.5 55.5t-82.5 16.5q-165 0 -516 -196q-266 -136 -299 -136q-40 0 -56.5 29t-5.5 80q23 113 166 350q58 92 107 113q47 18 92 18q51 0 88 -26
q37 -27 31 -78q-10 -38 -47 -72q-39 -39 -70 -39q-15 0 -78 -57q-76 -69 -131 -135q-59 -68 -63 -93q-2 -7 -10 7q-6 12 -1 12q38 0 211 96q415 221 584 221q75 0 115 -37q36 -33 51 -79q16 -54 18 -78q0 -6 1 -13t1 -8q36 8 113 43q125 54 209 76q102 27 158 27
q51 -6 94 -45q41 -41 33 -78q-2 -25 -31 -49q-24 -17 -53 -17t-52 13q-26 20 -75 20q-45 0 -148 -33q-111 -31 -205 -75q-48 -22 -57 -33q-8 -8 -14 -37q-30 -139 -170 -379q-145 -243 -299 -428q-208 -239 -422 -385q-214 -147 -365 -147zM-340 -428q-9 -42 -6 -53
q7 -18 14 -25q27 -31 74 -31q29 0 104 21q244 91 516 360q282 279 459 605q111 201 131 299q4 17 16 3q8 -12 3 -14q-13 0 -88 -41q-473 -246 -830 -592q-353 -340 -393 -532zM616 1333q9 33 52 62q45 23 192 176q46 49 86 49q22 0 37 -12q20 -20 14 -43q-6 -29 -65 -64
q-129 -87 -135 -123q-1 -4 -2 -3v-1q8 -8 4 -39q-3 -33 -43 -57q-36 -22 -62 -25q-26 0 -55 19q-26 23 -23 61z" />
    <glyph glyph-name="thorn" unicode="&#xfe;" horiz-adv-x="1093" 
d="M-686 -528q-39 0 -57 28q-18 26 -2 117q71 322 475 901q125 184 161 264q20 45 54 84q38 48 41 68q12 49 131 139q117 97 278 262q50 51 252 266t383.5 407t204.5 212q89 80 131 80q33 -1 48 -21t9 -51q-6 -27 -48.5 -82.5t-206.5 -239t-496 -542.5q-69 -78 -97 -117
t-38 -80q-3 24 -7 37.5t-13 19t-15.5 6.5t-24.5 1q176 67 268 67q82 0 113.5 -50.5t11.5 -147.5q-1 -6 -14 -45l2 4q85 26 107 33q52 10 102 10q80 0 123 -43q41 -62 31 -107q-18 -65 -99 -65q-44 0 -65 41q-3 11 -11.5 14.5t-31.5 3.5q-48 0 -154 -28q-55 -12 -88 -33
q-24 -13 -45 -47q-106 -142 -307 -322q-325 -278 -467 -278q-48 0 -68 41q-16 36 -10 73q9 33 62 113q88 127 276 260q205 145 418 242q116 55 145 65q3 6 6 27q15 72 6 90q-11 14 -40 14q-54 0 -150 -35q-90 -38 -192 -102q-85 -61 -146 -131q-68 -71 -74 -98
q-9 -41 -53 -82q-46 -43 -96 -43l-55 4q-8 4 -29 4q-268 -373 -385 -582q-110 -186 -170 -420q-4 -18 -4 -28q0 1 -4 4l-2 2q23 0 39 -23q4 -8 12 -28q6 -16 6 -37q-4 -23 -29 -43q-25 -25 -47 -37q-29 -16 -55 -16zM-53 344q0 -2 20 -2q118 0 408 244q166 137 303 301
q4 3 10 -10q9 -17 2 -17q-11 0 -67 -20q-204 -86 -385 -209q-175 -121 -261 -238q-30 -43 -30 -49z" />
    <glyph glyph-name="ydieresis" unicode="&#xff;" horiz-adv-x="1525" 
d="M-246 -618q-99 0 -139 54.5t-18 157.5q50 234 405 578q336 334 821 614q87 49 119 72q32 22 35 45q6 19 -10 55q-8 39 -34.5 55.5t-82.5 16.5q-165 0 -516 -196q-266 -136 -299 -136q-40 0 -56.5 29t-5.5 80q23 113 166 350q58 92 107 113q47 18 92 18q51 0 88 -26
q37 -27 31 -78q-10 -38 -47 -72q-39 -39 -70 -39q-15 0 -78 -57q-76 -69 -131 -135q-59 -68 -63 -93q-2 -7 -10 7q-6 12 -1 12q38 0 211 96q415 221 584 221q75 0 115 -37q36 -33 51 -79q16 -54 18 -78q0 -6 1 -13t1 -8q36 8 113 43q125 54 209 76q102 27 158 27
q51 -6 94 -45q41 -41 33 -78q-2 -25 -31 -49q-24 -17 -53 -17t-52 13q-26 20 -75 20q-45 0 -148 -33q-111 -31 -205 -75q-48 -22 -57 -33q-8 -8 -14 -37q-30 -139 -170 -379q-145 -243 -299 -428q-208 -239 -422 -385q-214 -147 -365 -147zM-340 -428q-9 -42 -6 -53
q7 -18 14 -25q27 -31 74 -31q29 0 104 21q244 91 516 360q282 279 459 605q111 201 131 299q4 17 16 3q8 -12 3 -14q-13 0 -88 -41q-473 -246 -830 -592q-353 -340 -393 -532zM606 1552q9 42 58 84q47 41 110 41q43 0 72 -26q29 -29 22 -70q-11 -48 -73 -88
q-68 -35 -111 -35q-42 0 -63 31q-21 32 -15 63zM889 1571q7 32 55 84q55 39 113 39q37 0 71 -27q30 -35 23 -68q-11 -49 -74 -90q-62 -32 -108 -32t-66 30q-21 24 -14 64z" />
    <glyph glyph-name="Amacron" unicode="&#x100;" horiz-adv-x="2230" 
d="M1604 -406q-41 3 -56 72q-46 132 27 486q58 282 287 972q-2 1 -6.5 4.5t-6.5 4.5q-20 8 -102 22q-82 18 -161 32t-168 26.5t-105 15.5l-8 2l-17 -4q-24 -14 -67 -68q-276 -315 -453 -569q-142 -202 -158 -275q-2 -3 8 -18q19 -37 13 -74q-10 -38 -31 -51q-19 -16 -45 -16
q-40 0 -58.5 36t-11.5 101q24 110 154 287q99 139 373 464q158 180 166 205v-20h-68q-762 -41 -1130 -271l-29 -18q2 -6 16 -41q12 -20 8 -49q-12 -53 -73 -68q-45 12 -66.5 44t-15.5 77q7 38 26 82q76 137 443 240q380 107 819 116l84 2q18 0 57 -8q1 1 3.5 3t7 6t8.5 8
q18 13 69 67q24 26 129 142q452 512 576 663q169 206 188 266q9 27 49 64q27 31 74 65q63 45 96 33q7 0 14 -9t11.5 -30.5t1.5 -48.5q-11 -44 -12 -45q-63 -126 -191 -475q-23 -66 -299 -840q181 -71 281 -155q100 -87 88 -211q-7 -49 -31 -95q-19 -45 -65 -45
q-83 0 -74 152q6 84 -72 147q-78 65 -157 93q-100 -310 -152 -490q-37 -141 -70 -301q-93 -438 -32 -526q31 -48 20 -86l-4 -6q-5 -26 -33 -58q-32 -29 -63 -31zM1370 1329q174 -18 531 -94l6 12q57 129 278 783q68 214 80 276q1 5 4 6.5t7 0.5t7 -2.5t7 -4.5l4 -2
q-28 -21 -180 -176q-141 -144 -385 -406q-209 -222 -359 -393zM2161 2976q13 60 69 90q53 31 115 31q22 0 53 -7q46 -14 217 -14q354 0 363 -12q31 -22 24 -62q-5 -24 -32 -55q-39 -27 -70 -27q-21 0 -70 9l-94 12q-58 6 -117 6q-148 0 -256 -27q-85 -24 -125 -24
q-33 0 -59 20q-26 26 -18 60z" />
    <glyph glyph-name="amacron" unicode="&#x101;" horiz-adv-x="1529" 
d="M666 494q-190 0 -246 129q-36 77 -33 270q4 93 2 108q-79 -49 -319 -225q-100 -74 -146 -74q-23 0 -35 19t-8 57q13 53 94 140q85 92 181 172q101 84 178 122q58 25 115 25q94 0 161 -49q75 -56 60 -121q-9 -45 -62 -80q-62 -34 -119 -31l-36 2q-13 -173 6 -249
q14 -62 63 -99q33 -26 96 -26q68 0 123 10q57 11 138 47q158 71 344 172q221 120 282 166q95 68 154 68q32 0 46 -19.5t9 -52.5q0 -2 -12 -37q-36 -55 -207 -147q-185 -95 -369 -170q-319 -127 -460 -127zM86 899q8 6 47 35.5t70 54.5q15 10 38 31q28 25 34 20q4 -4 4 -18
h22q-79 -55 -147 -107q-11 -9 -22.5 -20.5l-19.5 -19.5l-15.5 -15.5t-9.5 -7.5t-6 1.5t0 15t5 30.5zM254 1655q11 53 68 90q57 31 114 31q24 0 56 -7q46 -14 217 -14q353 0 362 -12q32 -22 25 -62q-4 -22 -33 -55q-39 -27 -72 -27q-21 0 -67 9l-95 12q-58 6 -116 6
q-147 0 -258 -27q-79 -24 -123 -24q-34 0 -58 18q-29 26 -20 62z" />
    <glyph glyph-name="Abreve" unicode="&#x102;" horiz-adv-x="2230" 
d="M1604 -406q-41 3 -56 72q-46 132 27 486q58 282 287 972q-2 1 -6.5 4.5t-6.5 4.5q-20 8 -102 22q-82 18 -161 32t-168 26.5t-105 15.5l-8 2l-17 -4q-24 -14 -67 -68q-276 -315 -453 -569q-142 -202 -158 -275q-2 -3 8 -18q19 -37 13 -74q-10 -38 -31 -51q-19 -16 -45 -16
q-40 0 -58.5 36t-11.5 101q24 110 154 287q99 139 373 464q158 180 166 205v-20h-68q-762 -41 -1130 -271l-29 -18q2 -6 16 -41q12 -20 8 -49q-12 -53 -73 -68q-45 12 -66.5 44t-15.5 77q7 38 26 82q76 137 443 240q380 107 819 116l84 2q18 0 57 -8q1 1 3.5 3t7 6t8.5 8
q18 13 69 67q24 26 129 142q452 512 576 663q169 206 188 266q9 27 49 64q27 31 74 65q63 45 96 33q7 0 14 -9t11.5 -30.5t1.5 -48.5q-11 -44 -12 -45q-63 -126 -191 -475q-23 -66 -299 -840q181 -71 281 -155q100 -87 88 -211q-7 -49 -31 -95q-19 -45 -65 -45
q-83 0 -74 152q6 84 -72 147q-78 65 -157 93q-100 -310 -152 -490q-37 -141 -70 -301q-93 -438 -32 -526q31 -48 20 -86l-4 -6q-5 -26 -33 -58q-32 -29 -63 -31zM1370 1329q174 -18 531 -94l6 12q57 129 278 783q68 214 80 276q1 5 4 6.5t7 0.5t7 -2.5t7 -4.5l4 -2
q-28 -21 -180 -176q-141 -144 -385 -406q-209 -222 -359 -393zM2370 2877q-30 42 -14 119t71 144q21 26 60.5 46.5t70.5 20.5q49 0 65 -26q11 -14 1 -42.5t-37 -46.5q-28 -19 -43.5 -32.5t-32.5 -37t-22 -56.5t-1 -78q19 -9 35 -9q15 0 39 15q20 10 51 37q132 119 148 172
q9 24 35 47q36 22 51 22q32 0 51 -22q16 -29 8 -49q-17 -54 -86 -126.5t-121 -109.5q-111 -82 -192 -82t-137 94z" />
    </font>
</defs>
</svg>
